<svg xmlns="http://www.w3.org/2000/svg" xmlns:xlink="http://www.w3.org/1999/xlink" width="206.862" height="186.788" viewBox="0 0 206.862 186.788">
  <defs>
    <clipPath id="clip-path">
      <path id="Path_1920" data-name="Path 1920" d="M0-279.338H206.862V-466.126H0Z" transform="translate(0 466.126)" fill="none"/>
    </clipPath>
  </defs>
  <g id="Group_1798" data-name="Group 1798" transform="translate(0 466.126)">
    <g id="Group_1869" data-name="Group 1869" transform="translate(0 -466.126)" clip-path="url(#clip-path)">
      <g id="Group_1866" data-name="Group 1866" transform="translate(14.032 142.139)">
        <path id="Path_1917" data-name="Path 1917" d="M-256.142-.289l-2.114,1.527c-9.5,6.865-21.37,12.247-35.266,15.995a171.251,171.251,0,0,1-44.563,5.681,168.322,168.322,0,0,1-44.549-5.761c-13.846-3.8-25.688-9.211-35.2-16.08l-2.153-1.554-7.438,8.49,1.646,1.919c8.844,10.311,21,18.7,36.133,24.917,15.047,6.186,32.393,9.322,51.555,9.322,19.051,0,36.357-3.151,51.437-9.363,15.149-6.247,27.367-14.61,36.316-24.857l1.709-1.956Z" transform="translate(427.419 0.482)" fill="#ff5756"/>
      </g>
      <g id="Group_1867" data-name="Group 1867" transform="translate(0 60.782)">
        <path id="Path_1918" data-name="Path 1918" d="M-296.949-44.7c-5.56-6.5-14.644-9.79-27-9.79h-24.609c-11.421,0-20.909-1.714-28.2-5.093-7.02-3.255-10.434-7.686-10.434-13.546v-1.459H-398.1v1.459c0,6.106-2.835,10.6-8.666,13.737-6.047,3.253-14.715,4.9-25.764,4.9h-27.685c-12.284,0-21.348,3.293-26.942,9.786-5.543,6.43-8.353,16.979-8.353,31.354v4.638h10.844l.069-1.387a65.626,65.626,0,0,1,1.594-12.624,13.95,13.95,0,0,1,3.839-6.839,13.447,13.447,0,0,1,6.625-3.328,61.4,61.4,0,0,1,11.5-.842h23.276c24.3,0,39.465-5.367,45.158-15.965a21,21,0,0,0,5.373,5.92,37.046,37.046,0,0,0,11.9,5.88,92.748,92.748,0,0,0,14.95,3.128,135.35,135.35,0,0,0,17.157,1.037h20.1a61.372,61.372,0,0,1,11.5.842A13.453,13.453,0,0,1-305-29.557a13.95,13.95,0,0,1,3.839,6.838,65.745,65.745,0,0,1,1.6,12.625l.068,1.387h10.844v-4.638c0-14.371-2.792-24.919-8.3-31.35" transform="translate(495.514 74.583)" fill="#fff"/>
      </g>
      <g id="Group_1868" data-name="Group 1868" transform="translate(14.584 0)">
        <path id="Path_1919" data-name="Path 1919" d="M-87.474-19.753A15.52,15.52,0,0,1-82.89-8.475c0,6.981-3.367,10.646-6.193,12.491-3.718,2.425-8.41,3.653-13.949,3.653A41.944,41.944,0,0,1-129.6-1.675a44.7,44.7,0,0,1-15.711-23.232l-.651-2.294,11.163-5.76,1.289,2.735a49.709,49.709,0,0,0,9.482,13.9c3.158,3.183,6.334,4.86,9.684,5.1a15.317,15.317,0,0,1,4.435-8.547,15.423,15.423,0,0,1,11.29-4.648,15.147,15.147,0,0,1,11.15,4.66m83.2.872a15.174,15.174,0,0,0-11.2-4.611A15.52,15.52,0,0,0-26.75-18.909,15.267,15.267,0,0,0-31.412-7.655,15.153,15.153,0,0,0-26.75,3.495,15.518,15.518,0,0,0-15.473,8.078a15.183,15.183,0,0,0,11.2-4.611A15.332,15.332,0,0,0,.26-7.655,15.439,15.439,0,0,0-4.272-18.88" transform="translate(145.966 32.961)"/>
      </g>
    </g>
  </g>
</svg>
