<svg xmlns="http://www.w3.org/2000/svg" width="240" height="88.752" viewBox="0 0 240 88.752">
  <g id="Group_1725" data-name="Group 1725" transform="translate(-271.369 -241.47)">
    <path id="Path_1843" data-name="Path 1843" d="M511.369,316.075l-.476-59.468H477.526a23.645,23.645,0,0,0-22.252-15.137,21.134,21.134,0,0,0-16.433,8.118h0a21.136,21.136,0,0,0-16.433-8.118A22.48,22.48,0,0,0,400.9,256.607H271.369l.477,59.468H424.824c7.642,8.478,14.016,14.148,14.016,14.148h0s6.544-5.669,14.382-14.148Z" fill="#111"/>
    <g id="Group_1724" data-name="Group 1724" transform="translate(287.646 268.94)">
      <g id="Group_1723" data-name="Group 1723" transform="translate(0 0)">
        <g id="Group_1722" data-name="Group 1722">
          <path id="Path_1844" data-name="Path 1844" d="M338.221,296.74c0-6.781,4.846-11.145,11.349-11.145A10.477,10.477,0,0,1,360.409,296.4a18.725,18.725,0,0,1-.127,2.076H344.555c.127,2.543,2.3,4.152,5.653,4.152a12.788,12.788,0,0,0,7.608-2.076v5.51c-2,1.271-4.207,1.949-7.948,1.949-6.928,0-11.646-4.366-11.646-11.06Zm15.812-2.374c0-1.907-1.956-3.517-4.463-3.517-2.636,0-4.846,1.567-4.973,3.517Z" transform="translate(-301.232 -277.907)" fill="#fff"/>
          <path id="Path_1845" data-name="Path 1845" d="M372.49,275.946h6.546V305.5H372.49Z" transform="translate(-308.196 -275.946)" fill="#fff"/>
          <path id="Path_1846" data-name="Path 1846" d="M397.993,285.435c6.589,0,11.9,5,11.9,11.313s-5.313,11.314-11.9,11.314c-6.631,0-11.9-5-11.9-11.314S391.363,285.435,397.993,285.435Zm0,16.908a5.594,5.594,0,1,0-5.569-5.594A5.535,5.535,0,0,0,397.993,302.343Z" transform="translate(-310.961 -277.874)" fill="#fff"/>
          <path id="Path_1847" data-name="Path 1847" d="M415.966,286.233H422.6L428.291,297l5.7-10.762h6.589L428.291,308.86Z" transform="translate(-317.031 -278.037)" fill="#fff"/>
          <path id="Path_1848" data-name="Path 1848" d="M328.361,285.956h-6.89l-5.395,10.193-5.983-11.279-5.969,11.279-5.394-10.193H291.8l12.326,22.627,5.966-10.989,5.986,10.989Z" transform="translate(-291.798 -277.759)" fill="#fff"/>
          <path id="Path_1849" data-name="Path 1849" d="M446.853,296.74c0-6.781,4.845-11.145,11.349-11.145A10.476,10.476,0,0,1,469.04,296.4a18.841,18.841,0,0,1-.127,2.076H453.186c.128,2.543,2.3,4.152,5.653,4.152a12.793,12.793,0,0,0,7.608-2.076v5.51c-2,1.271-4.208,1.949-7.949,1.949-6.927,0-11.646-4.366-11.646-11.06Zm15.812-2.374c0-1.907-1.955-3.517-4.463-3.517-2.636,0-4.846,1.567-4.974,3.517Z" transform="translate(-323.308 -277.907)" fill="#fff"/>
          <path id="Path_1850" data-name="Path 1850" d="M480.708,304.9a3.433,3.433,0,1,1-3.486,3.432A3.487,3.487,0,0,1,480.708,304.9Z" transform="translate(-329.48 -281.83)" fill="#fff"/>
          <path id="Path_1851" data-name="Path 1851" d="M490.052,275.946h6.334v10.993c.594-1.865,3.1-3.178,6.375-3.178,6.079,0,10.627,4.914,10.627,11.058,0,6.187-4.548,11.06-10.627,11.06-3.272,0-5.781-1.356-6.375-3.178v2.8h-6.334Zm11.561,24.214a5.341,5.341,0,1,0,0-10.679,5.346,5.346,0,1,0,0,10.679Z" transform="translate(-332.087 -275.946)" fill="#fff"/>
          <path id="Path_1852" data-name="Path 1852" d="M533.132,291.784h-9.9v-5.551h20.7l-11.9,15.8h11.306v5.551H521.1Z" transform="translate(-338.398 -278.037)" fill="#fff"/>
        </g>
      </g>
    </g>
  </g>
</svg>
