<svg xmlns="http://www.w3.org/2000/svg" xmlns:xlink="http://www.w3.org/1999/xlink" width="202.667" height="561.887" viewBox="0 0 202.667 561.887">
  <defs>
    <clipPath id="clip-path">
      <path id="Path_1834" data-name="Path 1834" d="M0-34.28H202.667V-596.167H0Z" transform="translate(0 596.167)" fill="none"/>
    </clipPath>
  </defs>
  <g id="Group_1985" data-name="Group 1985" transform="translate(26 -141.447)">
    <g id="Group_1712" data-name="Group 1712" transform="translate(-26 737.615)">
      <g id="Group_1708" data-name="Group 1708" transform="translate(0 -596.167)" clip-path="url(#clip-path)">
        <g id="Group_1704" data-name="Group 1704" transform="translate(0 497.348)">
          <path id="Path_1830" data-name="Path 1830" d="M-11.869-2.151C-17.316,4.214-26.215,7.44-38.32,7.44H-62.429c-11.189,0-20.485,1.68-27.627,4.991-6.877,3.189-10.221,7.53-10.221,13.27v1.43h-10.694V25.7c0-5.982-2.778-10.384-8.49-13.458-5.925-3.187-14.417-4.8-25.242-4.8h-27.123c-12.035,0-20.915-3.226-26.4-9.587-5.431-6.3-8.184-16.634-8.184-30.718v-4.544h10.625l.068,1.358a64.332,64.332,0,0,0,1.562,12.368,13.664,13.664,0,0,0,3.761,6.7,13.175,13.175,0,0,0,6.49,3.26,60.224,60.224,0,0,0,11.271.824h22.8c23.808,0,38.665,5.259,44.243,15.642a20.578,20.578,0,0,1,5.264-5.8A36.294,36.294,0,0,1-88.661-8.817a90.92,90.92,0,0,1,14.646-3.064A132.563,132.563,0,0,1-57.206-12.9h19.69a60.187,60.187,0,0,0,11.269-.824,13.185,13.185,0,0,0,6.492-3.26,13.667,13.667,0,0,0,3.761-6.7,64.382,64.382,0,0,0,1.563-12.368l.068-1.358H-3.74v4.544c0,14.079-2.735,24.414-8.129,30.714" transform="translate(206.406 37.409)" fill="#fff"/>
        </g>
        <g id="Group_1705" data-name="Group 1705" transform="translate(13.748 418.469)">
          <path id="Path_1831" data-name="Path 1831" d="M-10.238-.012l-2.071,1.5c-9.312,6.726-20.937,12-34.551,15.67a167.753,167.753,0,0,1-43.658,5.566,164.9,164.9,0,0,1-43.645-5.645c-13.565-3.725-25.167-9.023-34.482-15.754L-170.754-.2l-7.287,8.318,1.614,1.88c8.663,10.1,20.574,18.316,35.4,24.412,14.743,6.06,31.736,9.133,50.51,9.133,18.664,0,35.619-3.087,50.394-9.172,14.841-6.121,26.811-14.315,35.579-24.353L-2.871,8.1Z" transform="translate(178.041 0.201)" fill="#ff5756"/>
        </g>
        <g id="Group_1706" data-name="Group 1706" transform="translate(0 338.762)">
          <path id="Path_1832" data-name="Path 1832" d="M-11.869-1.786c-5.448-6.365-14.347-9.591-26.451-9.591H-62.429c-11.189,0-20.485-1.68-27.627-4.99-6.877-3.19-10.221-7.531-10.221-13.271v-1.43h-10.694v1.43c0,5.982-2.778,10.384-8.49,13.458-5.925,3.187-14.417,4.8-25.242,4.8h-27.123c-12.035,0-20.915,3.226-26.4,9.587-5.431,6.3-8.184,16.634-8.184,30.718v4.544h10.625l.068-1.358a64.332,64.332,0,0,1,1.562-12.368,13.664,13.664,0,0,1,3.761-6.7,13.175,13.175,0,0,1,6.49-3.26,60.224,60.224,0,0,1,11.271-.824h22.8c23.808,0,38.665-5.259,44.243-15.642a20.578,20.578,0,0,0,5.264,5.8A36.294,36.294,0,0,0-88.661,4.88,90.818,90.818,0,0,0-74.014,7.944,132.563,132.563,0,0,0-57.206,8.961h19.69a60.187,60.187,0,0,1,11.269.824,13.185,13.185,0,0,1,6.492,3.26,13.667,13.667,0,0,1,3.761,6.7A64.445,64.445,0,0,1-14.43,32.113l.067,1.358H-3.74V28.928c0-14.079-2.735-24.414-8.129-30.714" transform="translate(206.406 31.068)" fill="#fff"/>
        </g>
        <g id="Group_1707" data-name="Group 1707" transform="translate(14.288 279.213)">
          <path id="Path_1833" data-name="Path 1833" d="M-3.5-.789A15.205,15.205,0,0,1,.995,10.259c0,6.84-3.3,10.43-6.068,12.237-3.643,2.375-8.239,3.579-13.665,3.579a41.094,41.094,0,0,1-26.034-9.154A43.8,43.8,0,0,1-60.165-5.839L-60.8-8.087l10.937-5.643,1.262,2.68a48.721,48.721,0,0,0,9.29,13.622c3.093,3.119,6.205,4.761,9.487,5A15.013,15.013,0,0,1-25.481-.8,15.114,15.114,0,0,1-14.42-5.356,14.838,14.838,0,0,1-3.5-.789M78.019.065A14.868,14.868,0,0,0,67.044-4.452,15.2,15.2,0,0,0,56,.037a14.959,14.959,0,0,0-4.567,11.025A14.85,14.85,0,0,0,56,21.987a15.2,15.2,0,0,0,11.049,4.49A14.876,14.876,0,0,0,78.02,21.96a15.022,15.022,0,0,0,4.438-10.9,15.127,15.127,0,0,0-4.439-11" transform="translate(60.802 13.73)" fill="#2b2e34"/>
        </g>
      </g>
      <g id="Group_1709" data-name="Group 1709" transform="translate(7.265 -382.844)">
        <path id="Path_1835" data-name="Path 1835" d="M-10.541,0V21.063H-167.956V0h-15.361V38.251H4.819V0Z" transform="translate(183.317)" fill="#ff5756"/>
      </g>
      <g id="Group_1710" data-name="Group 1710" transform="translate(32.207 -522.821)">
        <path id="Path_1836" data-name="Path 1836" d="M-4.648,0h-13.5L-80.837,124h20.686l48.82-100.787L36.476,124h20.94Z" transform="translate(80.837)" fill="#ff5756"/>
      </g>
      <g id="Group_1711" data-name="Group 1711" transform="translate(65.983 -596.167)">
        <path id="Path_1837" data-name="Path 1837" d="M-3.072,0-17.9,22.783-32.728,0l-9.22,5.335,14.374,21.7H-53.43V37.068h25.856L-41.768,58.5l9.04,5.424L-17.9,41.5-3.072,63.92,5.97,58.5-8.315,37.068H17.271V27.034H-8.5L5.97,5.335Z" transform="translate(53.43)" fill="#ff5756"/>
      </g>
      <g id="Group_1745" data-name="Group 1745" transform="translate(7.265 -382.844)">
        <path id="Path_1835-2" data-name="Path 1835" d="M-10.541,0V21.063H-167.956V0h-15.361V38.251H4.819V0Z" transform="translate(183.317)" fill="#ff5756"/>
      </g>
    </g>
  </g>
</svg>
