<?xml version="1.0" encoding="utf-8"?>
<!-- Generator: Adobe Illustrator 26.0.0, SVG Export Plug-In . SVG Version: 6.00 Build 0)  -->
<svg version="1.1" id="Layer_1" xmlns="http://www.w3.org/2000/svg" xmlns:xlink="http://www.w3.org/1999/xlink" x="0px" y="0px"
	 viewBox="0 0 435.78 435.78" style="enable-background:new 0 0 435.78 435.78;" xml:space="preserve">
<g id="XMLID_834_">
	<path id="XMLID_835_" d="M144.59,228h33.98v139.89c0,2.76,2.24,5,5,5h57.62c2.76,0,5-2.24,5-5V228.65h39.06
		c2.54,0,4.68-1.91,4.97-4.43l5.93-51.5c0.16-1.42-0.29-2.84-1.23-3.9c-0.95-1.06-2.31-1.67-3.73-1.67h-45v-32.28
		c0-9.73,5.24-14.67,15.58-14.67c1.47,0,29.42,0,29.42,0c2.76,0,5-2.24,5-5V67.93c0-2.76-2.24-5-5-5h-40.54
		c-0.29-0.01-0.92-0.04-1.86-0.04c-7.04,0-31.49,1.38-50.8,19.15c-21.4,19.69-18.43,43.27-17.72,47.36v37.75h-35.67
		c-2.76,0-5,2.24-5,5v50.84C139.59,225.76,141.83,228,144.59,228z"/>
</g>
</svg>
