<?xml version="1.0" encoding="UTF-8" standalone="no"?>
<svg
   xmlns:dc="http://purl.org/dc/elements/1.1/"
   xmlns:cc="http://creativecommons.org/ns#"
   xmlns:rdf="http://www.w3.org/1999/02/22-rdf-syntax-ns#"
   xmlns:svg="http://www.w3.org/2000/svg"
   xmlns="http://www.w3.org/2000/svg"
   xmlns:sodipodi="http://sodipodi.sourceforge.net/DTD/sodipodi-0.dtd"
   xmlns:inkscape="http://www.inkscape.org/namespaces/inkscape"
   version="1.1"
   id="svg2"
   xml:space="preserve"
   width="1074.4307"
   height="610.40002"
   viewBox="0 0 1074.4307 610.40002"
   sodipodi:docname="Aspiag.ai"><metadata
     id="metadata8"><rdf:RDF><cc:Work
         rdf:about=""><dc:format>image/svg+xml</dc:format><dc:type
           rdf:resource="http://purl.org/dc/dcmitype/StillImage" /></cc:Work></rdf:RDF></metadata><defs
     id="defs6"><clipPath
       clipPathUnits="userSpaceOnUse"
       id="clipPath20"><path
         d="M 0,457.8 H 805.823 V 0 H 0 Z"
         id="path18" /></clipPath></defs><sodipodi:namedview
     pagecolor="#ffffff"
     bordercolor="#666666"
     borderopacity="1"
     objecttolerance="10"
     gridtolerance="10"
     guidetolerance="10"
     inkscape:pageopacity="0"
     inkscape:pageshadow="2"
     inkscape:window-width="640"
     inkscape:window-height="480"
     id="namedview4" /><g
     id="g10"
     inkscape:groupmode="layer"
     inkscape:label="Aspiag"
     transform="matrix(1.3333333,0,0,-1.3333333,0,610.4)"><path
       d="M 59.592,398.208 H 543.143 V 344.435 H 59.592 Z"
       style="fill:#e40020;fill-opacity:1;fill-rule:nonzero;stroke:none"
       id="path12" /><g
       id="g14"><g
         id="g16"
         clip-path="url(#clipPath20)"><g
           id="g22"
           transform="translate(461.6312,388.476)"><path
             d="m 0,0 c 2.424,0 3.928,-0.893 6.198,-3.781 l 16.871,-24.057 c 0.894,-1.258 0.806,-3.266 -0.739,-4.569 -1.367,-1.156 -3.798,-1.261 -5.112,0.473 l -4.04,5.568 h -26.57 l -4.029,-5.673 c -1.423,-1.682 -3.164,-1.682 -4.748,-0.631 -1.64,1.093 -2.057,3.203 -1.051,4.678 L -6.195,-3.781 C -4.03,-0.788 -2.32,0 0,0 m 1.009,-8.903 c -0.445,0.648 -0.61,0.711 -1.086,0.711 -0.529,0 -0.739,-0.263 -1.097,-0.743 -0.582,-0.774 -7.344,-10.711 -7.421,-10.711 H 8.486 c -0.028,0 -6.538,9.352 -7.477,10.743"
             style="fill:#ffffff;fill-opacity:1;fill-rule:nonzero;stroke:none"
             id="path24" /></g><g
           id="g26"
           transform="translate(346.5557,388.436)"><path
             d="m 0,0 h 24.303 c 6.03,0 6.583,-6.917 6.583,-6.917 H 0.984 c -1.478,0 -2.852,-1.114 -2.852,-3.051 0,-2.208 1.686,-3.263 2.747,-3.263 h 21.132 c 4.187,0 10.14,-3.472 10.14,-9.474 0,-7.789 -6.92,-10.557 -9.327,-10.557 H -1.899 c -7.348,0 -6.945,6.98 -6.945,6.98 h 30.645 c 1.223,0 3.027,1.208 3.027,3.02 0,1.727 -1.584,3.052 -2.747,3.052 H 1.373 c -5.872,0 -10.427,4.348 -10.427,10.242 C -9.054,-3.339 -3.339,0 0,0"
             style="fill:#ffffff;fill-opacity:1;fill-rule:nonzero;stroke:none"
             id="path28" /></g><g
           id="g30"
           transform="translate(502.3373,388.4819)"><path
             d="m 0,0 h 25.098 c 3.802,0 9.699,-3.097 9.699,-10.505 v -0.476 c 0,-3.942 -2.478,-7.404 -5.957,-9.082 0,0 0.249,-0.382 5.641,-7.67 0.697,-0.942 0.739,-3.202 -0.788,-4.569 -1.461,-1.303 -3.893,-1.468 -5.119,-0.052 -1.707,1.976 -3.686,4.569 -9.121,11.447 H 9.649 c -2.796,0 -6.59,2.207 -6.59,7.095 h 21.195 c 1.149,0.045 2.992,1.146 2.992,3.304 0,1.997 -1.773,3.36 -3.007,3.36 H 0.834 l 0.017,-22.109 c 0.004,-2.418 -1.853,-4.044 -3.854,-4.044 -1.899,0 -3.798,1.682 -3.798,3.942 V -6.826 C -6.801,-3.045 -2.793,0 0,0"
             style="fill:#ffffff;fill-opacity:1;fill-rule:nonzero;stroke:none"
             id="path32" /></g><g
           id="g34"
           transform="translate(398.8974,388.4255)"><path
             d="m 0,0 h 25.105 c 3.795,0 9.699,-3.101 9.699,-10.505 v -0.473 c 0,-3.945 -2.481,-7.407 -5.957,-9.089 0,0 -1.797,-0.578 -3.49,-0.784 H 9.59 c -2.793,0 -6.377,2.256 -6.377,7.14 h 20.984 c 1.153,0.05 3.056,1.045 3.056,3.199 0,2.001 -1.777,3.364 -3.01,3.364 L 0.837,-7.144 0.851,-29.257 c 0,-2.418 -1.853,-4.04 -3.854,-4.04 -1.895,0 -3.798,1.678 -3.798,3.935 V -6.829 C -6.801,-3.045 -2.793,0 0,0"
             style="fill:#ffffff;fill-opacity:1;fill-rule:nonzero;stroke:none"
             id="path36" /></g><g
           id="g38"
           transform="translate(257.147,388.4024)"><path
             d="m 0,0 -20.964,0.021 c -4.446,0 -8.041,-3.546 -8.041,-7.975 v -17.663 c 0,-4.428 3.606,-8.02 8.052,-8.02 H 0 c 9.334,0 16.913,7.603 16.913,16.913 C 16.913,-7.421 9.334,0 0,0 m -0.056,-30.795 h 0.007 l -20.428,-0.014 c -3.094,0 -5.613,2.522 -5.613,5.63 v 16.738 c 0,3.084 2.519,5.596 5.613,5.596 l 20.421,0.014 c 7.719,0 13.991,-6.251 13.991,-13.931 0,-7.698 -6.272,-14.033 -13.991,-14.033 m 0,25.795 -20.421,-0.01 c -1.895,0 -3.437,-1.549 -3.437,-3.431 v -16.738 c 0,-1.906 1.542,-3.461 3.434,-3.461 l 20.424,0.017 c 6.517,0 11.815,5.35 11.815,11.861 C 11.759,-10.284 6.461,-5 -0.056,-5 m 0,-20.655 -20.256,-0.007 c -0.841,0 -0.652,0.879 -0.652,0.879 v 3.588 l -0.01,8.546 v 3.963 c 0,0.596 0.459,0.911 0.858,0.911 l 20.06,-0.021 c 4.951,0 8.956,-4.005 8.956,-8.928 0,-4.94 -4.005,-8.931 -8.956,-8.931"
             style="fill:#ffffff;fill-opacity:1;fill-rule:nonzero;stroke:none"
             id="path40" /></g><g
           id="g42"
           transform="translate(291.7742,363.6001)"><path
             d="m 0,0 v 3.966 h 30.55 c 0,0 4.061,-0.014 4.061,4.082 0,0 0,3.781 -4.072,3.781 H -0.014 v 4.611 c 0,0.308 0.249,0.547 0.55,0.547 l 33.693,0.014 v 0.119 c -0.319,2.705 -1.587,4.639 -3.052,6.075 -1.685,1.644 -5.711,1.644 -5.711,1.644 L 0.007,24.846 c -4.45,0 -8.052,-3.588 -8.052,-8.021 V -0.841 c 0,-4.422 3.602,-8.013 8.052,-8.013 h 27.018 c 6.797,0 7.302,7.985 7.302,7.985 L 0.645,-0.883 C -0.116,-0.883 0,0 0,0 M 26.548,-5.988 0.533,-6.006 c -3.098,0 -5.624,2.527 -5.624,5.635 v 16.734 c 0,3.087 2.526,5.596 5.62,5.596 0,0 23.202,0.045 25.907,0 2.712,-0.042 3.599,-2.169 3.599,-2.169 L 0.529,19.793 c -1.892,0 -3.441,-1.548 -3.441,-3.43 V 9.128 h 33.451 c 0.603,0 1.09,-0.491 1.09,-1.083 0,-0.603 -0.487,-1.086 -1.09,-1.086 H -2.912 v -7.33 c 0,-1.91 1.549,-3.462 3.437,-3.462 l 29.769,0.017 c 0,0 -0.918,-2.13 -3.746,-2.172"
             style="fill:#ffffff;fill-opacity:1;fill-rule:nonzero;stroke:none"
             id="path44" /></g><path
           d="M 59.592,335.706 H 543.143 V 281.933 H 59.592 Z"
           style="fill:#e40020;fill-opacity:1;fill-rule:nonzero;stroke:none"
           id="path46" /><g
           id="g48"
           transform="translate(461.825,326.0333)"><path
             d="m 0,0 c 2.417,0 3.921,-0.893 6.184,-3.784 l 16.829,-24.093 c 0.897,-1.261 0.806,-3.272 -0.736,-4.576 -1.366,-1.156 -3.784,-1.261 -5.101,0.473 l -4.026,5.579 h -26.51 l -4.023,-5.684 c -1.415,-1.682 -3.153,-1.682 -4.73,-0.63 -1.643,1.093 -2.053,3.209 -1.055,4.681 l 16.991,24.25 C -4.019,-0.788 -2.313,0 0,0 m 1.002,-8.914 c -0.438,0.648 -0.606,0.711 -1.079,0.711 -0.529,0 -0.736,-0.266 -1.097,-0.746 -0.575,-0.774 -7.326,-10.722 -7.4,-10.722 H 8.469 c -0.035,0 -6.524,9.363 -7.467,10.757"
             style="fill:#ffffff;fill-opacity:1;fill-rule:nonzero;stroke:none"
             id="path50" /></g><g
           id="g52"
           transform="translate(347.029,325.9951)"><path
             d="m 0,0 h 24.24 c 6.016,0 6.573,-6.927 6.573,-6.927 H 0.981 c -1.479,0 -2.849,-1.114 -2.849,-3.055 0,-2.215 1.682,-3.27 2.74,-3.27 h 21.083 c 4.177,0 10.123,-3.475 10.123,-9.484 0,-7.8 -6.907,-10.572 -9.314,-10.572 H -1.899 c -7.33,0 -6.924,6.987 -6.924,6.987 h 30.568 c 1.223,0 3.024,1.212 3.024,3.027 0,1.724 -1.581,3.056 -2.744,3.056 H 1.37 c -5.865,0 -10.407,4.352 -10.407,10.256 C -9.037,-3.343 -3.336,0 0,0"
             style="fill:#ffffff;fill-opacity:1;fill-rule:nonzero;stroke:none"
             id="path54" /></g><g
           id="g56"
           transform="translate(502.4336,326.0406)"><path
             d="m 0,0 h 25.038 c 3.791,0 9.678,-3.104 9.678,-10.522 v -0.473 c 0,-3.949 -2.474,-7.414 -5.946,-9.1 0,0 0.249,-0.378 5.634,-7.676 0.69,-0.946 0.736,-3.21 -0.792,-4.576 -1.457,-1.304 -3.882,-1.472 -5.101,-0.053 -1.707,1.976 -3.683,4.576 -9.1,11.465 H 9.629 c -2.79,0 -6.574,2.21 -6.574,7.102 h 21.142 c 1.146,0.045 2.986,1.146 2.986,3.307 0,2.001 -1.766,3.368 -2.996,3.368 H 0.83 l 0.021,-22.141 c 0,-2.418 -1.85,-4.047 -3.847,-4.047 -1.892,0 -3.788,1.682 -3.788,3.942 V -6.84 C -6.784,-3.048 -2.786,0 0,0"
             style="fill:#ffffff;fill-opacity:1;fill-rule:nonzero;stroke:none"
             id="path58" /></g><g
           id="g60"
           transform="translate(399.2468,325.9832)"><path
             d="m 0,0 h 25.035 c 3.791,0 9.678,-3.101 9.678,-10.519 v -0.476 c 0,-3.949 -2.471,-7.414 -5.943,-9.096 0,0 -1.794,-0.582 -3.479,-0.792 H 9.565 c -2.789,0 -6.366,2.26 -6.366,7.155 h 20.935 c 1.15,0.049 3.045,1.044 3.045,3.206 0,1.997 -1.766,3.364 -2.996,3.364 L 0.834,-7.155 0.848,-29.299 c 0.003,-2.418 -1.847,-4.047 -3.844,-4.047 -1.896,0 -3.788,1.682 -3.788,3.945 V -6.836 C -6.784,-3.048 -2.789,0 0,0"
             style="fill:#ffffff;fill-opacity:1;fill-rule:nonzero;stroke:none"
             id="path62" /></g><g
           id="g64"
           transform="translate(235.4308,326.1212)"><path
             d="m 0,0 h 25.55 c 3.872,0 9.881,-3.164 9.881,-10.725 v -0.484 c 0,-4.026 -2.526,-7.561 -6.069,-9.278 0,0 0.256,-0.385 5.743,-7.828 0.708,-0.96 0.753,-3.269 -0.806,-4.663 -1.482,-1.332 -3.959,-1.5 -5.207,-0.056 -1.738,2.018 -3.756,4.667 -9.285,11.692 H 9.825 c -2.846,0 -6.71,2.253 -6.71,7.239 h 21.577 c 1.17,0.049 3.048,1.17 3.048,3.374 0,2.036 -1.808,3.48 -3.059,3.48 H 0.778 l 0.014,-22.625 c 0.003,-2.463 -1.812,-4.124 -3.851,-4.124 -1.934,0 -3.763,1.717 -3.763,4.023 V -7.249 C -6.822,-2.936 -3.024,0 0,0"
             style="fill:#ffffff;fill-opacity:1;fill-rule:nonzero;stroke:none"
             id="path66" /></g><g
           id="g68"
           transform="translate(235.4308,326.1212)"><path
             d="m 0,0 v -0.014 h 25.55 c 1.93,0 4.397,-0.788 6.38,-2.523 1.984,-1.734 3.487,-4.411 3.487,-8.188 v -0.484 c 0,-4.019 -2.523,-7.551 -6.062,-9.264 l -0.014,-0.007 0.007,-0.014 c 0.004,0 0.256,-0.385 5.746,-7.828 0.291,-0.392 0.47,-1.016 0.47,-1.713 0,-0.988 -0.361,-2.116 -1.276,-2.933 -0.767,-0.69 -1.8,-1.065 -2.796,-1.065 -0.914,0 -1.794,0.319 -2.389,1.009 -1.738,2.015 -3.756,4.664 -9.285,11.689 l -0.004,0.007 H 9.825 c -2.842,0 -6.693,2.246 -6.696,7.225 H 3.115 v -0.014 h 21.577 c 1.177,0.049 3.062,1.174 3.062,3.388 0,2.046 -1.812,3.494 -3.073,3.494 H 0.764 l 0.017,-22.639 c 0,-2.459 -1.811,-4.11 -3.84,-4.11 -1.927,0.004 -3.746,1.71 -3.749,4.009 v 22.726 c 0,2.154 0.949,3.962 2.274,5.234 1.324,1.269 3.027,2.001 4.534,2.001 L 0,0 v 0.014 c -3.031,0 -6.833,-2.94 -6.833,-7.263 v -22.726 c 0,-2.313 1.833,-4.037 3.774,-4.037 2.043,0.004 3.861,1.668 3.865,4.138 L 0.792,-7.26 h 23.889 c 1.244,-0.003 3.045,-1.44 3.048,-3.469 0,-2.193 -1.874,-3.311 -3.037,-3.36 H 3.101 v -0.014 c 0,-4.993 3.872,-7.246 6.724,-7.253 h 9.982 v 0.014 l -0.01,-0.01 c 5.529,-7.022 7.543,-9.671 9.288,-11.689 0.599,-0.698 1.486,-1.02 2.407,-1.02 0.999,0 2.043,0.379 2.818,1.072 0.917,0.824 1.282,1.959 1.282,2.954 0,0.701 -0.182,1.328 -0.477,1.727 -2.743,3.725 -4.18,5.68 -4.929,6.707 -0.75,1.026 -0.813,1.121 -0.813,1.125 l -0.011,-0.011 0.004,-0.01 c 3.549,1.716 6.075,5.259 6.075,9.288 v 0.484 c 0,3.784 -1.503,6.471 -3.49,8.209 -1.99,1.738 -4.463,2.53 -6.401,2.53 L 0,0.014 Z"
             style="fill:#ffffff;fill-opacity:1;fill-rule:nonzero;stroke:none"
             id="path70" /></g><g
           id="g72"
           transform="translate(173.9314,299.7825)"><path
             d="m 0,0 v 23.143 c 0,1.244 1.009,3.612 3.833,3.612 2.6,0 3.784,-2.368 3.784,-3.612 V 0.182 h 26.164 v 22.961 c 0,1.244 0.826,3.612 3.766,3.612 2.712,0 3.798,-2.361 3.798,-3.612 V 0.182 c 0,-3.504 -3.609,-7.281 -7.564,-7.281 H 7.617 C 3.833,-7.099 0,-3.5 0,0"
             style="fill:#ffffff;fill-opacity:1;fill-rule:nonzero;stroke:none"
             id="path74" /></g><g
           id="g76"
           transform="translate(173.9314,299.7825)"><path
             d="m 0,0 h 0.014 v 23.143 c 0,1.237 1.005,3.598 3.819,3.602 C 6.422,26.741 7.6,24.38 7.603,23.143 V 0.168 h 26.191 v 22.975 c 0,1.24 0.824,3.598 3.753,3.602 2.702,-0.004 3.784,-2.355 3.784,-3.602 V 0.182 c 0,-1.748 -0.9,-3.563 -2.295,-4.944 -1.394,-1.38 -3.279,-2.323 -5.255,-2.323 H 7.617 C 5.729,-7.085 3.83,-6.184 2.4,-4.849 0.97,-3.514 0.014,-1.745 0.014,0 H 0 -0.014 c 0,-3.507 3.84,-7.109 7.631,-7.113 h 26.164 c 3.966,0.004 7.578,3.784 7.578,7.295 v 22.961 c -0.003,1.258 -1.093,3.626 -3.812,3.626 -2.947,0 -3.774,-2.379 -3.781,-3.626 V 0.196 H 7.631 v 22.947 c 0,1.251 -1.187,3.626 -3.798,3.626 -2.831,0 -3.844,-2.379 -3.847,-3.626 L -0.014,0 Z"
             style="fill:#ffffff;fill-opacity:1;fill-rule:nonzero;stroke:none"
             id="path78" /></g><g
           id="g80"
           transform="translate(282.9742,318.8721)"><path
             d="m 0,0 c 0,3.644 3.861,7.239 7.645,7.239 h 26.16 c 3.952,0 7.537,-3.595 7.537,-7.337 v -18.991 c 0,-3.5 -3.585,-7.099 -7.537,-7.099 H 7.645 C 3.861,-26.188 0,-22.491 0,-18.994 Z M 33.805,0 H 7.603 v -18.935 h 26.202 z"
             style="fill:#ffffff;fill-opacity:1;fill-rule:nonzero;stroke:none"
             id="path82" /></g><g
           id="g84"
           transform="translate(282.9742,318.8721)"><path
             d="m 0,0 h 0.014 c 0,1.818 0.964,3.623 2.397,4.975 1.436,1.353 3.346,2.25 5.234,2.25 h 26.16 c 1.973,0 3.854,-0.897 5.242,-2.26 1.387,-1.367 2.281,-3.199 2.281,-5.063 v -18.991 c 0,-1.745 -0.894,-3.518 -2.281,-4.853 -1.388,-1.335 -3.269,-2.232 -5.242,-2.232 H 7.645 c -1.888,0 -3.798,0.922 -5.234,2.281 -1.433,1.36 -2.397,3.157 -2.397,4.899 L 0.014,0 H 0 -0.014 v -18.994 c 0,-3.508 3.865,-7.208 7.659,-7.208 h 26.16 c 3.963,0 7.551,3.602 7.551,7.113 v 18.991 c 0,3.749 -3.588,7.351 -7.551,7.351 H 7.645 C 3.851,7.253 -0.014,3.651 -0.014,0 Z M 33.805,0 V 0.014 H 7.589 v -18.959 h 26.23 V 0.014 H 33.805 V 0 H 33.791 V -18.917 H 7.617 V -0.011 L 33.805,-0.014 V 0 h -0.014 z"
             style="fill:#ffffff;fill-opacity:1;fill-rule:nonzero;stroke:none"
             id="path86" /></g><g
           id="g88"
           transform="translate(126.9124,326.0936)"><path
             d="m 0,0 h 27.214 c 3.438,0 6.815,-4.075 6.815,-7.239 H 0.427 v -5.855 h 31.027 c 1.878,0 3.328,-1.797 3.328,-3.619 0,-1.934 -1.394,-3.63 -3.219,-3.63 H 0.427 v -5.873 h 33.602 c -0.052,-4.989 -4.341,-7.221 -6.492,-7.221 H 0.427 c -3.461,0 -7.568,3.591 -7.568,8.15 V -6.114 C -7.141,-3.928 -4.135,0 0,0"
             style="fill:#ffffff;fill-opacity:1;fill-rule:nonzero;stroke:none"
             id="path90" /></g><g
           id="g92"
           transform="translate(126.9124,326.0936)"><path
             d="m 0,0 v -0.014 h 27.214 c 1.714,0 3.416,-1.016 4.688,-2.428 1.272,-1.412 2.113,-3.22 2.113,-4.797 h 0.014 v 0.014 H 0.413 v -5.883 h 31.041 c 1.867,-0.003 3.311,-1.79 3.315,-3.605 0,-1.927 -1.392,-3.613 -3.206,-3.616 H 0.413 v -5.901 h 33.616 v 0.014 h -0.014 c -0.052,-4.979 -4.334,-7.211 -6.478,-7.211 H 0.427 c -1.727,0 -3.616,0.897 -5.073,2.365 -1.454,1.465 -2.481,3.501 -2.481,5.775 v 19.173 c 0,1.089 0.75,2.614 2.015,3.868 1.268,1.254 3.048,2.232 5.112,2.232 L 0,0 V 0.014 C -4.145,0.01 -7.151,-3.917 -7.155,-6.114 v -19.173 c 0.004,-4.566 4.114,-8.164 7.582,-8.164 h 27.11 c 2.158,0 6.454,2.239 6.506,7.235 v 0.014 H 0.441 v 5.845 h 31.122 c 1.832,0 3.23,1.706 3.234,3.644 0,1.829 -1.458,3.633 -3.343,3.633 H 0.441 v 5.827 h 33.602 v 0.014 c 0,3.171 -3.381,7.249 -6.829,7.253 L 0,0.014 Z"
             style="fill:#ffffff;fill-opacity:1;fill-rule:nonzero;stroke:none"
             id="path94" /></g><path
           d="M 59.592,273.201 H 543.143 V 219.428 H 59.592 Z"
           style="fill:#e40020;fill-opacity:1;fill-rule:nonzero;stroke:none"
           id="path96" /><g
           id="g98"
           transform="translate(292.0359,263.4813)"><path
             d="m 0,0 h 24.362 c 3.84,0 9.804,-3.139 9.804,-10.648 v -0.48 c 0,-3.998 -2.505,-7.509 -6.02,-9.212 0,0 0.253,-0.382 5.704,-7.771 0.701,-0.957 0.743,-3.248 -0.802,-4.632 -1.471,-1.318 -3.931,-1.49 -5.168,-0.053 -1.731,2.001 -3.732,4.632 -9.222,11.605 H 9.751 c -2.824,0 -6.664,2.239 -6.664,7.19 h 20.42 c 1.163,0.049 3.028,1.163 3.028,3.349 0,2.022 -1.791,3.406 -3.038,3.406 H 0.841 l 0.017,-22.411 c 0.004,-2.449 -1.871,-4.096 -3.896,-4.096 -1.92,0 -3.84,1.703 -3.84,3.991 V -6.924 C -6.878,-3.083 -2.824,0 0,0"
             style="fill:#ffffff;fill-opacity:1;fill-rule:nonzero;stroke:none"
             id="path100" /></g><g
           id="g102"
           transform="translate(238.2923,263.4841)"><path
             d="m 0,0 h 27.018 c 3.416,0 6.769,-4.082 6.769,-7.225 H 0.266 v -5.767 h 30.96 c 1.868,0 3.308,-1.756 3.308,-3.567 0,-1.913 -1.388,-3.511 -3.199,-3.511 H 0.424 v -5.911 h 33.363 c -0.052,-4.951 -4.309,-6.973 -6.447,-6.973 H 0.424 c -3.437,0 -7.512,3.567 -7.512,8.091 V -6.069 C -7.088,-3.896 -4.107,0 0,0"
             style="fill:#ffffff;fill-opacity:1;fill-rule:nonzero;stroke:none"
             id="path104" /></g><g
           id="g106"
           transform="translate(216.9698,263.4841)"><path
             d="m 0,0 c 3.413,0 6.766,-4.082 6.766,-7.225 h -16.913 v -18.472 l -0.021,-4.194 c 0,-2.449 -1.787,-3.865 -3.813,-3.865 -1.92,0 -3.868,1.573 -3.868,3.865 l 0.018,4.194 v 18.472 h -16.962 c 0,3.143 3.356,7.225 6.769,7.225 z"
             style="fill:#ffffff;fill-opacity:1;fill-rule:nonzero;stroke:none"
             id="path108" /></g><g
           id="g110"
           transform="translate(113.2035,233.5939)"><path
             d="M 0,0 C 0,-2.292 1.948,-3.868 3.865,-3.868 5.89,-3.868 7.68,-2.453 7.68,0 l 0.021,4.191 v 22.978 c 0,1.233 -1.18,3.588 -3.763,3.588 -2.803,0 -3.928,-2.355 -3.928,-3.588 l 0,-22.978 z"
             style="fill:#ffffff;fill-opacity:1;fill-rule:nonzero;stroke:none"
             id="path112" /></g><g
           id="g114"
           transform="translate(140.53,263.5139)"><path
             d="m 0,0 c -0.589,0.494 -1.37,0.837 -2.355,0.837 -2.806,0 -3.928,-2.354 -3.928,-3.588 v -22.978 l -0.014,-4.19 c 0,-2.292 1.949,-3.869 3.869,-3.869 2.025,0 3.812,1.416 3.812,3.869 l -0.021,4.19 v 14.17 l 27.67,-21.412 c 0.687,-0.526 1.527,-0.817 2.361,-0.817 2.026,0 3.816,1.416 3.816,3.869 l 0.017,4.19 v 22.978 c 0,1.234 -1.177,3.588 -3.756,3.588 -2.806,0 -3.927,-2.354 -3.927,-3.588 v -18.556 z"
             style="fill:#ffffff;fill-opacity:1;fill-rule:nonzero;stroke:none"
             id="path116" /></g><g
           id="g118"
           transform="translate(461.9347,263.4708)"><path
             d="m 0,0 c 2.417,0 3.917,-0.89 6.177,-3.781 l 16.808,-24.057 c 0.89,-1.261 0.802,-3.266 -0.736,-4.569 -1.366,-1.156 -3.78,-1.261 -5.094,0.473 l -4.023,5.568 h -26.471 l -4.016,-5.673 c -1.419,-1.682 -3.15,-1.682 -4.73,-0.631 -1.636,1.09 -2.046,3.206 -1.048,4.674 L -6.167,-3.781 C -4.012,-0.785 -2.313,0 0,0 m 1.002,-8.903 c -0.438,0.651 -0.606,0.711 -1.076,0.711 -0.529,0 -0.735,-0.263 -1.096,-0.743 -0.575,-0.774 -7.32,-10.708 -7.39,-10.708 H 8.458 c -0.031,0 -6.517,9.349 -7.456,10.74"
             style="fill:#ffffff;fill-opacity:1;fill-rule:nonzero;stroke:none"
             id="path120" /></g><g
           id="g122"
           transform="translate(347.2925,263.4333)"><path
             d="m 0,0 h 24.215 c 6.006,0 6.556,-6.917 6.556,-6.917 H 0.984 c -1.475,0 -2.845,-1.114 -2.845,-3.051 0,-2.211 1.679,-3.263 2.737,-3.263 H 21.93 c 4.17,0 10.105,-3.479 10.105,-9.474 0,-7.789 -6.895,-10.557 -9.295,-10.557 H -1.892 c -7.32,0 -6.913,6.976 -6.913,6.976 h 30.522 c 1.223,0 3.024,1.212 3.024,3.024 0,1.724 -1.581,3.048 -2.737,3.048 H 1.373 c -5.855,0 -10.389,4.349 -10.389,10.246 C -9.016,-3.339 -3.322,0 0,0"
             style="fill:#ffffff;fill-opacity:1;fill-rule:nonzero;stroke:none"
             id="path124" /></g><g
           id="g126"
           transform="translate(502.4904,263.4767)"><path
             d="m 0,0 h 25.003 c 3.788,0 9.664,-3.097 9.664,-10.505 v -0.473 c 0,-3.945 -2.467,-7.407 -5.936,-9.085 0,0 0.249,-0.382 5.621,-7.67 0.693,-0.942 0.735,-3.206 -0.785,-4.572 -1.451,-1.3 -3.879,-1.465 -5.095,-0.053 -1.71,1.976 -3.679,4.573 -9.089,11.454 H 9.614 c -2.785,0 -6.569,2.204 -6.569,7.088 h 21.121 c 1.139,0.049 2.982,1.15 2.982,3.308 0,1.994 -1.77,3.36 -2.996,3.36 H 0.83 l 0.018,-22.113 c 0.003,-2.414 -1.847,-4.043 -3.84,-4.043 -1.893,0 -3.785,1.682 -3.785,3.942 V -6.829 C -6.777,-3.041 -2.786,0 0,0"
             style="fill:#ffffff;fill-opacity:1;fill-rule:nonzero;stroke:none"
             id="path128" /></g><g
           id="g130"
           transform="translate(399.4419,263.4214)"><path
             d="m 0,0 h 25.003 c 3.784,0 9.664,-3.101 9.664,-10.508 v -0.47 c 0,-3.945 -2.47,-7.407 -5.936,-9.089 0,0 -1.79,-0.578 -3.472,-0.788 H 9.555 c -2.786,0 -6.36,2.26 -6.36,7.141 h 20.908 c 1.146,0.049 3.041,1.048 3.041,3.202 0,1.998 -1.766,3.364 -2.992,3.364 L 0.834,-7.144 0.848,-29.261 c 0.003,-2.414 -1.847,-4.043 -3.84,-4.043 -1.892,0 -3.784,1.685 -3.784,3.942 V -6.829 C -6.776,-3.048 -2.782,0 0,0"
             style="fill:#ffffff;fill-opacity:1;fill-rule:nonzero;stroke:none"
             id="path132" /></g><g
           id="g134"
           transform="translate(654.6218,398.2068)"><path
             d="m 0,0 c -51.521,0 -91.608,-40.893 -91.608,-91.653 0,-32.975 16.594,-62.502 45.813,-76.941 27.487,-13.581 64.099,-13.581 91.66,0 27.183,13.395 45.743,43.966 45.743,76.941 C 91.608,-41.219 51.279,0 0,0 m 61.986,-130.452 c -10.028,-16.236 -25.294,-21.979 -37.112,-22.123 -8.147,-0.101 -15.663,5.887 -15.663,15.662 v 13.574 h 48.252 c -20.771,22.47 -48.252,68.301 -57.386,99.576 -9.212,-31.275 -36.696,-77.106 -56.731,-99.576 h 47.519 l 0.106,-13.616 c -0.106,-7.715 -6.251,-15.728 -15.183,-15.627 -12.407,0.151 -27.918,5.894 -37.294,21.812 -6.83,11.611 -11.802,20.767 -11.802,39.117 0,40.083 32.288,73.303 73.35,73.303 40.61,0 73.339,-34.18 73.339,-73.303 0,-18.35 -8.571,-34.219 -11.395,-38.799"
             style="fill:#008030;fill-opacity:1;fill-rule:nonzero;stroke:none"
             id="path136" /></g><g
           id="g138"
           transform="translate(88.9192,122.7174)"><path
             d="M 0,0 -5.569,24.034 H -5.67 L -11.239,0 h -8.58 l -9.583,37.13 h 9.633 l 4.967,-24.135 h 0.101 l 5.469,24.135 h 7.275 L 3.412,12.895 h 0.1 L 8.58,37.13 h 9.584 L 8.329,0 Z"
             style="fill:#008030;fill-opacity:1;fill-rule:nonzero;stroke:none"
             id="path140" /></g><g
           id="g142"
           transform="translate(128.2663,139.7267)"><path
             d="m 0,0 c -0.652,2.86 -3.161,4.767 -6.372,4.767 -3.011,0 -5.62,-1.807 -6.272,-4.767 z m -12.745,-5.62 c 0.452,-3.16 3.111,-5.268 6.524,-5.268 2.257,0 3.712,0.853 5.067,2.609 h 8.53 c -2.659,-6.071 -7.727,-9.634 -13.597,-9.634 -8.028,0 -14.752,6.473 -14.752,14.752 0,8.028 6.422,14.952 14.601,14.952 8.329,0 14.701,-6.573 14.701,-15.203 0,-0.803 -0.05,-1.455 -0.201,-2.208 z"
             style="fill:#008030;fill-opacity:1;fill-rule:nonzero;stroke:none"
             id="path144" /></g><g
           id="g146"
           transform="translate(141.4095,122.7174)"><path
             d="m 0,0 v 27.847 h 7.828 v -2.96 h 0.1 c 1.455,2.96 3.763,3.914 6.974,3.914 v -8.38 C 9.935,20.371 8.329,18.515 8.329,15.354 V 0 Z"
             style="fill:#008030;fill-opacity:1;fill-rule:nonzero;stroke:none"
             id="path148" /></g><g
           id="g150"
           transform="translate(163.6731,122.7174)"><path
             d="m 0,0 v 21.525 h -4.114 v 6.322 H 0 v 9.283 h 8.329 v -9.283 h 4.014 V 21.525 H 8.329 V 0 Z"
             style="fill:#008030;fill-opacity:1;fill-rule:nonzero;stroke:none"
             id="path152" /></g><g
           id="g154"
           transform="translate(198.5934,139.7267)"><path
             d="m 0,0 c -0.652,2.86 -3.161,4.767 -6.372,4.767 -3.011,0 -5.62,-1.807 -6.272,-4.767 z m -12.745,-5.62 c 0.452,-3.16 3.111,-5.268 6.524,-5.268 2.257,0 3.712,0.853 5.067,2.609 h 8.53 c -2.659,-6.071 -7.727,-9.634 -13.597,-9.634 -8.028,0 -14.752,6.473 -14.752,14.752 0,8.028 6.422,14.952 14.601,14.952 8.329,0 14.701,-6.573 14.701,-15.203 0,-0.803 -0.05,-1.455 -0.201,-2.208 z"
             style="fill:#008030;fill-opacity:1;fill-rule:nonzero;stroke:none"
             id="path156" /></g><g
           id="g158"
           transform="translate(261.9605,122.7174)"><path
             d="m 0,0 v 15.002 c 0,4.365 -1.405,5.971 -4.265,5.971 -3.161,0 -4.616,-1.907 -4.616,-5.569 V 0 h -8.329 v 15.354 c 0,3.612 -1.305,5.619 -4.165,5.619 -3.261,0 -4.716,-2.107 -4.716,-5.971 V 0 h -8.329 v 27.847 h 7.777 v -2.96 h 0.1 c 1.455,2.609 4.115,3.914 7.677,3.914 3.613,0 6.272,-1.807 8.028,-4.968 2.007,3.161 5.017,4.968 8.831,4.968 6.222,0 10.336,-3.814 10.336,-11.591 V 0 Z"
             style="fill:#008030;fill-opacity:1;fill-rule:nonzero;stroke:none"
             id="path160" /></g><path
           d="m 276.407,150.565 h 8.329 v -27.847 h -8.329 z m 0,9.282 h 8.329 v -6.322 h -8.329 z"
           style="fill:#008030;fill-opacity:1;fill-rule:nonzero;stroke:none"
           id="path162" /><g
           id="g164"
           transform="translate(292.9134,122.7174)"><path
             d="m 0,0 v 21.525 h -4.114 v 6.322 H 0 v 9.283 h 8.329 v -9.283 h 4.014 V 21.525 H 8.329 V 0 Z"
             style="fill:#008030;fill-opacity:1;fill-rule:nonzero;stroke:none"
             id="path166" /></g><g
           id="g168"
           transform="translate(328.4348,122.7174)"><path
             d="M 0,0 V 28.801 H -7.325 V 37.13 H 16.759 V 28.801 H 9.483 V 0 Z"
             style="fill:#008030;fill-opacity:1;fill-rule:nonzero;stroke:none"
             id="path170" /></g><g
           id="g172"
           transform="translate(347.3487,122.7174)"><path
             d="m 0,0 v 27.847 h 7.828 v -2.96 h 0.1 c 1.455,2.96 3.763,3.914 6.974,3.914 v -8.38 C 9.935,20.371 8.329,18.515 8.329,15.354 V 0 Z"
             style="fill:#008030;fill-opacity:1;fill-rule:nonzero;stroke:none"
             id="path174" /></g><g
           id="g176"
           transform="translate(386.384,136.6658)"><path
             d="m 0,0 c 0,3.914 -3.161,7.075 -7.075,7.075 -3.813,0 -6.824,-3.161 -6.824,-7.175 0,-3.864 3.061,-7.025 6.925,-7.025 C -3.061,-7.125 0,-4.014 0,0 m 0,-13.948 v 3.01 h -0.101 c -1.204,-2.458 -4.515,-3.964 -8.178,-3.964 -8.229,0 -13.949,6.473 -13.949,14.902 0,8.229 5.971,14.852 13.949,14.852 3.412,0 6.573,-1.355 8.178,-3.914 H 0 v 2.961 h 8.329 v -27.847 z"
             style="fill:#008030;fill-opacity:1;fill-rule:nonzero;stroke:none"
             id="path178" /></g><g
           id="g180"
           transform="translate(422.1559,136.7665)"><path
             d="m 0,0 c 0,3.863 -2.96,6.974 -7.075,6.974 -3.913,0 -7.024,-2.91 -7.024,-6.974 0,-4.215 2.96,-7.175 6.974,-7.175 C -3.06,-7.175 0,-4.114 0,0 m -0.05,-14.049 v 3.01 h -0.1 c -1.556,-2.559 -4.366,-3.913 -8.329,-3.913 -8.43,0 -13.949,6.472 -13.949,14.902 0,8.329 5.67,14.801 13.798,14.801 3.211,0 5.82,-0.953 8.179,-3.311 v 11.641 h 8.329 v -37.13 z"
             style="fill:#008030;fill-opacity:1;fill-rule:nonzero;stroke:none"
             id="path182" /></g><path
           d="m 436.302,150.565 h 8.329 v -27.847 h -8.329 z m 0,9.282 h 8.329 v -6.322 h -8.329 z"
           style="fill:#008030;fill-opacity:1;fill-rule:nonzero;stroke:none"
           id="path184" /><g
           id="g186"
           transform="translate(452.8088,122.7174)"><path
             d="m 0,0 v 21.525 h -4.114 v 6.322 H 0 v 9.283 h 8.329 v -9.283 h 4.014 V 21.525 H 8.329 V 0 Z"
             style="fill:#008030;fill-opacity:1;fill-rule:nonzero;stroke:none"
             id="path188" /></g><path
           d="m 469.013,150.565 h 8.329 v -27.847 h -8.329 z m 0,9.282 h 8.329 v -6.322 h -8.329 z"
           style="fill:#008030;fill-opacity:1;fill-rule:nonzero;stroke:none"
           id="path190" /><g
           id="g192"
           transform="translate(503.9849,136.6658)"><path
             d="m 0,0 c 0,3.713 -2.81,7.025 -6.723,7.025 -3.664,0 -6.624,-3.212 -6.624,-7.025 0,-3.813 2.91,-7.024 6.674,-7.024 C -2.76,-7.024 0,-3.713 0,0 m -6.673,-14.802 c -8.48,0 -15.003,6.273 -15.003,14.802 0,8.63 6.674,14.802 15.003,14.802 8.379,0 15.002,-6.272 15.002,-14.701 0,-8.731 -6.623,-14.903 -15.002,-14.903"
             style="fill:#008030;fill-opacity:1;fill-rule:nonzero;stroke:none"
             id="path194" /></g><g
           id="g196"
           transform="translate(534.7391,122.7174)"><path
             d="m 0,0 v 15.454 c 0,3.763 -1.305,5.519 -4.365,5.519 -3.362,0 -4.767,-1.856 -4.767,-5.619 V 0 h -8.329 v 27.847 h 7.777 v -2.96 h 0.101 c 1.755,2.86 4.214,3.914 7.576,3.914 5.017,0 10.336,-2.81 10.336,-11.039 V 0 Z"
             style="fill:#008030;fill-opacity:1;fill-rule:nonzero;stroke:none"
             id="path198" /></g><path
           d="M 59.517,97.675 H 69 v -37.13 h -9.483 z"
           style="fill:#008030;fill-opacity:1;fill-rule:nonzero;stroke:none"
           id="path200" /><path
           d="m 74.117,97.675 h 8.329 v -37.13 h -8.329 z"
           style="fill:#008030;fill-opacity:1;fill-rule:nonzero;stroke:none"
           id="path202" /><g
           id="g204"
           transform="translate(105.5246,60.5458)"><path
             d="m 0,0 -9.985,27.847 h 8.63 l 5.319,-17.36 h 0.1 l 5.319,17.36 h 8.63 L 7.978,0 Z"
             style="fill:#008030;fill-opacity:1;fill-rule:nonzero;stroke:none"
             id="path206" /></g><g
           id="g208"
           transform="translate(146.0643,74.4942)"><path
             d="m 0,0 c 0,3.914 -3.161,7.075 -7.075,7.075 -3.813,0 -6.824,-3.161 -6.824,-7.175 0,-3.864 3.061,-7.025 6.925,-7.025 C -3.061,-7.125 0,-4.014 0,0 m 0,-13.948 v 3.01 h -0.101 c -1.204,-2.458 -4.515,-3.964 -8.178,-3.964 -8.229,0 -13.949,6.473 -13.949,14.902 0,8.229 5.971,14.852 13.949,14.852 3.412,0 6.573,-1.355 8.178,-3.914 H 0 v 2.961 h 8.329 v -27.847 z"
             style="fill:#008030;fill-opacity:1;fill-rule:nonzero;stroke:none"
             id="path210" /></g><path
           d="m 159.458,97.675 h 8.329 v -37.13 h -8.329 z"
           style="fill:#008030;fill-opacity:1;fill-rule:nonzero;stroke:none"
           id="path212" /><g
           id="g214"
           transform="translate(192.9235,74.4942)"><path
             d="m 0,0 c 0,3.713 -2.81,7.025 -6.723,7.025 -3.664,0 -6.624,-3.212 -6.624,-7.025 0,-3.813 2.91,-7.024 6.674,-7.024 C -2.76,-7.024 0,-3.713 0,0 m -6.673,-14.802 c -8.48,0 -15.003,6.273 -15.003,14.802 0,8.63 6.674,14.802 15.003,14.802 8.379,0 15.002,-6.272 15.002,-14.701 0,-8.731 -6.623,-14.903 -15.002,-14.903"
             style="fill:#008030;fill-opacity:1;fill-rule:nonzero;stroke:none"
             id="path216" /></g><g
           id="g218"
           transform="translate(204.6614,60.5458)"><path
             d="m 0,0 v 27.847 h 7.828 v -2.96 h 0.1 c 1.455,2.96 3.763,3.914 6.974,3.914 v -8.38 C 9.935,20.371 8.329,18.515 8.329,15.354 V 0 Z"
             style="fill:#008030;fill-opacity:1;fill-rule:nonzero;stroke:none"
             id="path220" /></g><g
           id="g222"
           transform="translate(240.736,77.5551)"><path
             d="m 0,0 c -0.652,2.86 -3.161,4.767 -6.372,4.767 -3.011,0 -5.62,-1.807 -6.272,-4.767 z m -12.745,-5.62 c 0.452,-3.16 3.111,-5.268 6.524,-5.268 2.257,0 3.712,0.853 5.067,2.609 h 8.53 c -2.659,-6.071 -7.727,-9.634 -13.597,-9.634 -8.028,0 -14.752,6.473 -14.752,14.752 0,8.028 6.422,14.952 14.601,14.952 8.329,0 14.701,-6.573 14.701,-15.203 0,-0.803 -0.05,-1.455 -0.201,-2.208 z"
             style="fill:#008030;fill-opacity:1;fill-rule:nonzero;stroke:none"
             id="path224" /></g><g
           id="g226"
           transform="translate(284.0339,74.5949)"><path
             d="m 0,0 c 0,3.863 -2.96,6.974 -7.075,6.974 -3.913,0 -7.024,-2.91 -7.024,-6.974 0,-4.215 2.96,-7.175 6.974,-7.175 C -3.06,-7.175 0,-4.114 0,0 m -0.05,-14.049 v 3.01 h -0.1 c -1.556,-2.559 -4.366,-3.913 -8.329,-3.913 -8.43,0 -13.949,6.472 -13.949,14.902 0,8.329 5.67,14.801 13.798,14.801 3.211,0 5.82,-0.953 8.179,-3.311 v 11.641 h 8.329 v -37.13 z"
             style="fill:#008030;fill-opacity:1;fill-rule:nonzero;stroke:none"
             id="path228" /></g><g
           id="g230"
           transform="translate(316.1437,77.5551)"><path
             d="m 0,0 c -0.652,2.86 -3.161,4.767 -6.372,4.767 -3.011,0 -5.62,-1.807 -6.272,-4.767 z m -12.745,-5.62 c 0.452,-3.16 3.111,-5.268 6.524,-5.268 2.257,0 3.712,0.853 5.067,2.609 h 8.53 c -2.659,-6.071 -7.727,-9.634 -13.597,-9.634 -8.028,0 -14.752,6.473 -14.752,14.752 0,8.028 6.422,14.952 14.601,14.952 8.329,0 14.701,-6.573 14.701,-15.203 0,-0.803 -0.05,-1.455 -0.201,-2.208 z"
             style="fill:#008030;fill-opacity:1;fill-rule:nonzero;stroke:none"
             id="path232" /></g><path
           d="m 327.832,97.675 h 8.329 v -37.13 h -8.329 z"
           style="fill:#008030;fill-opacity:1;fill-rule:nonzero;stroke:none"
           id="path234" /><path
           d="m 340.926,97.675 h 8.329 v -37.13 h -8.329 z"
           style="fill:#008030;fill-opacity:1;fill-rule:nonzero;stroke:none"
           id="path236" /><g
           id="g238"
           transform="translate(374.9444,74.4942)"><path
             d="m 0,0 c 0,3.914 -3.161,7.075 -7.075,7.075 -3.813,0 -6.824,-3.161 -6.824,-7.175 0,-3.864 3.061,-7.025 6.925,-7.025 C -3.061,-7.125 0,-4.014 0,0 m 0,-13.948 v 3.01 h -0.101 c -1.204,-2.458 -4.515,-3.964 -8.178,-3.964 -8.229,0 -13.949,6.473 -13.949,14.902 0,8.229 5.971,14.852 13.949,14.852 3.412,0 6.573,-1.355 8.178,-3.914 H 0 v 2.961 h 8.329 v -27.847 z"
             style="fill:#008030;fill-opacity:1;fill-rule:nonzero;stroke:none"
             id="path240" /></g><g
           id="g242"
           transform="translate(410.4142,80.5654)"><path
             d="m 0,0 c -0.05,1.606 -1.204,2.108 -2.559,2.108 -1.405,0 -2.408,-0.803 -2.408,-1.857 0,-1.505 1.355,-2.258 5.218,-3.261 6.623,-1.757 8.78,-4.416 8.78,-8.48 0,-5.82 -5.017,-9.483 -11.339,-9.483 -6.272,0 -10.737,3.562 -11.339,9.232 h 8.279 c 0.25,-1.756 1.505,-2.559 3.16,-2.559 1.456,0 2.91,0.853 2.91,2.158 0,1.555 -0.953,2.358 -5.117,3.663 -7.025,2.157 -8.881,4.917 -8.881,8.178 0,5.52 5.168,9.082 10.787,9.082 C 3.512,8.781 7.777,5.469 8.179,0 Z"
             style="fill:#008030;fill-opacity:1;fill-rule:nonzero;stroke:none"
             id="path244" /></g><g
           id="g246"
           transform="translate(442.0231,77.6553)"><path
             d="m 0,0 c -1.204,2.609 -3.362,3.914 -6.222,3.914 -3.813,0 -6.422,-3.161 -6.422,-7.075 0,-4.064 2.759,-7.075 6.623,-7.075 2.81,0 4.767,1.305 6.021,3.713 h 8.479 c -1.655,-6.974 -7.626,-11.49 -14.751,-11.49 -8.229,0 -14.752,6.674 -14.752,14.903 0,8.329 6.574,14.801 14.602,14.801 C 0.903,11.691 6.874,7.075 8.429,0 Z"
             style="fill:#008030;fill-opacity:1;fill-rule:nonzero;stroke:none"
             id="path248" /></g><g
           id="g250"
           transform="translate(473.2792,77.5551)"><path
             d="m 0,0 c -0.652,2.86 -3.161,4.767 -6.372,4.767 -3.011,0 -5.62,-1.807 -6.272,-4.767 z m -12.745,-5.62 c 0.452,-3.16 3.111,-5.268 6.524,-5.268 2.257,0 3.712,0.853 5.067,2.609 h 8.53 c -2.659,-6.071 -7.727,-9.634 -13.597,-9.634 -8.028,0 -14.752,6.473 -14.752,14.752 0,8.028 6.422,14.952 14.601,14.952 8.329,0 14.701,-6.573 14.701,-15.203 0,-0.803 -0.05,-1.455 -0.201,-2.208 z"
             style="fill:#008030;fill-opacity:1;fill-rule:nonzero;stroke:none"
             id="path252" /></g><path
           d="m 484.968,97.675 h 8.329 v -37.13 h -8.329 z"
           style="fill:#008030;fill-opacity:1;fill-rule:nonzero;stroke:none"
           id="path254" /><g
           id="g256"
           transform="translate(499.7186,60.5458)"><path
             d="m 0,0 v 21.525 h -4.114 v 6.322 H 0 v 9.283 h 8.329 v -9.283 h 4.014 V 21.525 H 8.329 V 0 Z"
             style="fill:#008030;fill-opacity:1;fill-rule:nonzero;stroke:none"
             id="path258" /></g><g
           id="g260"
           transform="translate(534.5888,74.4942)"><path
             d="m 0,0 c 0,3.914 -3.161,7.075 -7.075,7.075 -3.813,0 -6.824,-3.161 -6.824,-7.175 0,-3.864 3.061,-7.025 6.925,-7.025 C -3.061,-7.125 0,-4.014 0,0 m 0,-13.948 v 3.01 h -0.101 c -1.204,-2.458 -4.515,-3.964 -8.178,-3.964 -8.229,0 -13.949,6.473 -13.949,14.902 0,8.229 5.971,14.852 13.949,14.852 3.412,0 6.573,-1.355 8.178,-3.914 H 0 v 2.961 h 8.329 v -27.847 z"
             style="fill:#008030;fill-opacity:1;fill-rule:nonzero;stroke:none"
             id="path262" /></g></g></g></g></svg>
