<?xml version="1.0" encoding="utf-8"?>
<!-- Generator: Adobe Illustrator 26.4.1, SVG Export Plug-In . SVG Version: 6.00 Build 0)  -->
<svg version="1.1" id="Livello_1" xmlns="http://www.w3.org/2000/svg" xmlns:xlink="http://www.w3.org/1999/xlink" x="0px" y="0px"
	 viewBox="0 0 318.1 117.6" style="enable-background:new 0 0 318.1 117.6;" xml:space="preserve">
<style type="text/css">
	.st0{fill:#FFFFFF;}
	.st1{fill:#ED1B30;}
	.st2{fill:#00883E;}
</style>
<g>
	<rect class="st0" width="318.1" height="117.6"/>
	<rect x="23.5" y="23.5" class="st1" width="190.9" height="21.2"/>
	<path class="st0" d="M182.6,30.9c-0.2-0.3-0.2-0.3-0.4-0.3c-0.2,0-0.3,0.1-0.4,0.3c-0.2,0.3-2.9,4.2-2.9,4.2h6.7
		C185.6,35.1,183,31.4,182.6,30.9 M182.2,27.4c1,0,1.6,0.4,2.4,1.5l6.7,9.5c0.4,0.5,0.3,1.3-0.3,1.8c-0.5,0.5-1.5,0.5-2-0.2
		l-1.6-2.2h-10.5l-1.6,2.2c-0.6,0.7-1.2,0.7-1.9,0.2c-0.6-0.4-0.8-1.3-0.4-1.8l6.7-9.6C180.6,27.7,181.3,27.4,182.2,27.4"/>
	<path class="st0" d="M136.8,27.4h9.6c2.4,0,2.6,2.7,2.6,2.7h-11.8c-0.6,0-1.1,0.4-1.1,1.2c0,0.9,0.7,1.3,1.1,1.3h8.3
		c1.7,0,4,1.4,4,3.7c0,3.1-2.7,4.2-3.7,4.2H136c-2.9,0-2.7-2.8-2.7-2.8h12.1c0.5,0,1.2-0.5,1.2-1.2c0-0.7-0.6-1.2-1.1-1.2h-8.2
		c-2.3,0-4.1-1.7-4.1-4C133.2,28.7,135.5,27.4,136.8,27.4"/>
	<path class="st0" d="M198.3,27.4h9.9c1.5,0,3.8,1.2,3.8,4.1v0.2c0,1.6-1,2.9-2.4,3.6c0,0,0.1,0.2,2.2,3c0.3,0.4,0.3,1.3-0.3,1.8
		c-0.6,0.5-1.5,0.6-2,0c-0.7-0.8-1.5-1.8-3.6-4.5h-3.9c-1.1,0-2.6-0.9-2.6-2.8h8.4c0.5,0,1.2-0.5,1.2-1.3c0-0.8-0.7-1.3-1.2-1.3
		h-9.2l0,8.7c0,1-0.7,1.6-1.5,1.6c-0.7,0-1.5-0.7-1.5-1.6v-8.9C195.6,28.6,197.2,27.4,198.3,27.4"/>
	<path class="st0" d="M157.5,27.4h9.9c1.5,0,3.8,1.2,3.8,4.1v0.2c0,1.6-1,2.9-2.4,3.6c0,0-0.7,0.2-1.4,0.3h-6.2
		c-1.1,0-2.5-0.9-2.5-2.8h8.3c0.5,0,1.2-0.4,1.2-1.3c0-0.8-0.7-1.3-1.2-1.3l-9.2,0l0,8.7c0,1-0.7,1.6-1.5,1.6
		c-0.7,0-1.5-0.7-1.5-1.6v-8.9C154.8,28.6,156.3,27.4,157.5,27.4"/>
	<path class="st0" d="M101.5,37.5l-8,0c-0.3,0-0.3-0.3-0.3-0.3v-1.4l0-3.4v-1.6c0-0.2,0.2-0.4,0.3-0.4l7.9,0c2,0,3.5,1.6,3.5,3.5
		C105,35.9,103.4,37.5,101.5,37.5 M101.5,29.4l-8.1,0c-0.7,0-1.4,0.6-1.4,1.4v6.6c0,0.8,0.6,1.4,1.4,1.4l8.1,0
		c2.6,0,4.7-2.1,4.7-4.7C106.1,31.5,104.1,29.4,101.5,29.4 M101.5,39.5L101.5,39.5l-8.1,0c-1.2,0-2.2-1-2.2-2.2v-6.6
		c0-1.2,1-2.2,2.2-2.2l8.1,0c3,0,5.5,2.5,5.5,5.5C107,37,104.5,39.5,101.5,39.5 M101.5,27.4l-8.3,0c-1.8,0-3.2,1.4-3.2,3.1v7
		c0,1.7,1.4,3.2,3.2,3.2h8.3c3.7,0,6.7-3,6.7-6.7C108.2,30.3,105.2,27.4,101.5,27.4"/>
	<path class="st0" d="M125.6,39.5l-10.3,0c-1.2,0-2.2-1-2.2-2.2v-6.6c0-1.2,1-2.2,2.2-2.2c0,0,9.2,0,10.2,0c1.1,0,1.4,0.9,1.4,0.9
		l-11.6,0c-0.7,0-1.4,0.6-1.4,1.4v2.9h13.2c0.2,0,0.4,0.2,0.4,0.4c0,0.2-0.2,0.4-0.4,0.4H114v2.9c0,0.8,0.6,1.4,1.4,1.4l11.8,0
		C127.1,38.7,126.8,39.5,125.6,39.5 M115.2,37.2v-1.6h12.1c0,0,1.6,0,1.6-1.6c0,0,0-1.5-1.6-1.5h-12.1v-1.8c0-0.1,0.1-0.2,0.2-0.2
		l13.3,0v0c-0.1-1.1-0.6-1.8-1.2-2.4c-0.7-0.6-2.3-0.6-2.3-0.6l-10,0c-1.8,0-3.2,1.4-3.2,3.2v7c0,1.7,1.4,3.2,3.2,3.2h10.7
		c2.7,0,2.9-3.2,2.9-3.2l-13.3,0C115.1,37.5,115.2,37.2,115.2,37.2"/>
	<rect x="23.5" y="48.2" class="st1" width="190.9" height="21.2"/>
	<path class="st0" d="M182.7,55.5c-0.2-0.3-0.2-0.3-0.4-0.3c-0.2,0-0.3,0.1-0.4,0.3c-0.2,0.3-2.9,4.2-2.9,4.2h6.7
		C185.6,59.8,183.1,56.1,182.7,55.5 M182.3,52c1,0,1.5,0.4,2.4,1.5l6.6,9.5c0.4,0.5,0.3,1.3-0.3,1.8c-0.5,0.5-1.5,0.5-2-0.2
		l-1.6-2.2H177l-1.6,2.2c-0.6,0.7-1.2,0.7-1.9,0.2c-0.6-0.4-0.8-1.3-0.4-1.8l6.7-9.6C180.7,52.3,181.4,52,182.3,52"/>
	<path class="st0" d="M137,52h9.6c2.4,0,2.6,2.7,2.6,2.7h-11.8c-0.6,0-1.1,0.4-1.1,1.2c0,0.9,0.7,1.3,1.1,1.3h8.3c1.6,0,4,1.4,4,3.7
		c0,3.1-2.7,4.2-3.7,4.2h-9.7c-2.9,0-2.7-2.8-2.7-2.8h12.1c0.5,0,1.2-0.5,1.2-1.2c0-0.7-0.6-1.2-1.1-1.2h-8.2c-2.3,0-4.1-1.7-4.1-4
		C133.4,53.3,135.7,52,137,52"/>
	<path class="st0" d="M198.3,52h9.9c1.5,0,3.8,1.2,3.8,4.2v0.2c0,1.6-1,2.9-2.3,3.6c0,0,0.1,0.1,2.2,3c0.3,0.4,0.3,1.3-0.3,1.8
		c-0.6,0.5-1.5,0.6-2,0c-0.7-0.8-1.5-1.8-3.6-4.5h-3.9c-1.1,0-2.6-0.9-2.6-2.8h8.3c0.5,0,1.2-0.5,1.2-1.3c0-0.8-0.7-1.3-1.2-1.3
		h-9.2l0,8.7c0,1-0.7,1.6-1.5,1.6c-0.7,0-1.5-0.7-1.5-1.6v-8.9C195.6,53.2,197.2,52,198.3,52"/>
	<path class="st0" d="M157.6,52h9.9c1.5,0,3.8,1.2,3.8,4.2v0.2c0,1.6-1,2.9-2.3,3.6c0,0-0.7,0.2-1.4,0.3h-6.2
		c-1.1,0-2.5-0.9-2.5-2.8h8.3c0.5,0,1.2-0.4,1.2-1.3c0-0.8-0.7-1.3-1.2-1.3l-9.2,0l0,8.7c0,1-0.7,1.6-1.5,1.6
		c-0.7,0-1.5-0.7-1.5-1.6v-8.9C154.9,53.2,156.5,52,157.6,52"/>
	<path class="st0" d="M92.9,52H103c1.5,0,3.9,1.2,3.9,4.2v0.2c0,1.6-1,3-2.4,3.7c0,0,0.1,0.2,2.3,3.1c0.3,0.4,0.3,1.3-0.3,1.8
		c-0.6,0.5-1.6,0.6-2.1,0c-0.7-0.8-1.5-1.8-3.7-4.6h-3.9c-1.1,0-2.6-0.9-2.6-2.9h8.5c0.5,0,1.2-0.5,1.2-1.3c0-0.8-0.7-1.4-1.2-1.4
		h-9.4l0,8.9c0,1-0.7,1.6-1.5,1.6c-0.8,0-1.5-0.7-1.5-1.6v-9C90.2,53.1,91.7,52,92.9,52"/>
	<path class="st0" d="M92.9,52L92.9,52l10.1,0c0.8,0,1.7,0.3,2.5,1c0.8,0.7,1.4,1.7,1.4,3.2v0.2c0,1.6-1,3-2.4,3.7l0,0l0,0
		c0,0,0.1,0.2,2.3,3.1c0.1,0.2,0.2,0.4,0.2,0.7c0,0.4-0.1,0.8-0.5,1.2c-0.3,0.3-0.7,0.4-1.1,0.4c-0.4,0-0.7-0.1-0.9-0.4
		c-0.7-0.8-1.5-1.8-3.7-4.6l0,0h-3.9c-1.1,0-2.6-0.9-2.6-2.9h0v0h8.5c0.5,0,1.2-0.5,1.2-1.3c0-0.8-0.7-1.4-1.2-1.4h-9.4l0,8.9
		c0,1-0.7,1.6-1.5,1.6c-0.8,0-1.5-0.7-1.5-1.6v-9c0-0.9,0.4-1.6,0.9-2.1C91.7,52.3,92.3,52,92.9,52L92.9,52L92.9,52
		c-1.2,0-2.7,1.2-2.7,2.9v9c0,0.9,0.7,1.6,1.5,1.6c0.8,0,1.5-0.7,1.5-1.6l0-8.9h9.4c0.5,0,1.2,0.6,1.2,1.4c0,0.9-0.7,1.3-1.2,1.3
		h-8.5v0c0,2,1.5,2.9,2.7,2.9h3.9v0l0,0c2.2,2.8,3,3.8,3.7,4.6c0.2,0.3,0.6,0.4,1,0.4c0.4,0,0.8-0.1,1.1-0.4
		c0.4-0.3,0.5-0.8,0.5-1.2c0-0.3-0.1-0.5-0.2-0.7c-1.1-1.5-1.6-2.2-1.9-2.6c-0.3-0.4-0.3-0.4-0.3-0.4l0,0l0,0
		c1.4-0.7,2.4-2.1,2.4-3.7v-0.2c0-1.5-0.6-2.6-1.4-3.2c-0.8-0.7-1.8-1-2.5-1L92.9,52L92.9,52z"/>
	<path class="st0" d="M68.7,62.4v-9.1c0-0.5,0.4-1.4,1.5-1.4c1,0,1.5,0.9,1.5,1.4v9.1H82v-9.1c0-0.5,0.3-1.4,1.5-1.4
		c1.1,0,1.5,0.9,1.5,1.4v9.1c0,1.4-1.4,2.9-3,2.9H71.7C70.2,65.2,68.7,63.8,68.7,62.4"/>
	<path class="st0" d="M68.7,62.4L68.7,62.4l0-9.1c0-0.5,0.4-1.4,1.5-1.4c1,0,1.5,0.9,1.5,1.4v9.1H82v-9.1c0-0.5,0.3-1.4,1.5-1.4
		c1.1,0,1.5,0.9,1.5,1.4v9.1c0,0.7-0.4,1.4-0.9,2c-0.6,0.5-1.3,0.9-2.1,0.9H71.7c-0.7,0-1.5-0.4-2.1-0.9
		C69,63.8,68.7,63.1,68.7,62.4L68.7,62.4L68.7,62.4c0,1.4,1.5,2.8,3,2.8H82c1.6,0,3-1.5,3-2.9v-9.1c0-0.5-0.4-1.4-1.5-1.4
		c-1.2,0-1.5,0.9-1.5,1.4v9.1H71.7v-9.1c0-0.5-0.5-1.4-1.5-1.4c-1.1,0-1.5,0.9-1.5,1.4L68.7,62.4L68.7,62.4z"/>
	<path class="st0" d="M125,54.8h-10.3v7.5H125V54.8z M111.7,54.8c0-1.4,1.5-2.9,3-2.9H125c1.6,0,3,1.4,3,2.9v7.5
		c0,1.4-1.4,2.8-3,2.8h-10.3c-1.5,0-3-1.5-3-2.8V54.8z"/>
	<path class="st0" d="M125,54.8L125,54.8l-10.3,0v7.5H125L125,54.8L125,54.8L125,54.8L125,54.8l0,7.5h-10.3v-7.5L125,54.8L125,54.8
		L125,54.8L125,54.8z M111.7,54.8L111.7,54.8c0-0.7,0.4-1.4,1-2c0.6-0.5,1.3-0.9,2.1-0.9H125c0.8,0,1.5,0.4,2.1,0.9
		c0.5,0.5,0.9,1.3,0.9,2v7.5c0,0.7-0.4,1.4-0.9,1.9c-0.5,0.5-1.3,0.9-2.1,0.9h-10.3c-0.7,0-1.5-0.4-2.1-0.9
		c-0.6-0.5-0.9-1.2-0.9-1.9L111.7,54.8L111.7,54.8L111.7,54.8l0,7.5c0,1.4,1.5,2.8,3,2.8H125c1.6,0,3-1.4,3-2.8v-7.5
		c0-1.5-1.4-2.9-3-2.9h-10.3C113.2,52,111.7,53.4,111.7,54.8L111.7,54.8z"/>
	<path class="st0" d="M50.1,52h10.7c1.4,0,2.7,1.6,2.7,2.9H50.3v2.3h12.2c0.7,0,1.3,0.7,1.3,1.4c0,0.8-0.6,1.4-1.3,1.4H50.3v2.3
		h13.3c0,2-1.7,2.9-2.6,2.9H50.3c-1.4,0-3-1.4-3-3.2v-7.6C47.3,53.5,48.5,52,50.1,52"/>
	<path class="st0" d="M50.1,52L50.1,52l10.7,0c0.7,0,1.3,0.4,1.9,1c0.5,0.6,0.8,1.3,0.8,1.9h0v0H50.3v2.3h12.3
		c0.7,0,1.3,0.7,1.3,1.4c0,0.8-0.5,1.4-1.3,1.4H50.3v2.3h13.3v0h0c0,2-1.7,2.8-2.6,2.8H50.3c-0.7,0-1.4-0.4-2-0.9
		c-0.6-0.6-1-1.4-1-2.3v-7.6c0-0.4,0.3-1,0.8-1.5C48.6,52.4,49.3,52,50.1,52L50.1,52L50.1,52c-1.6,0-2.8,1.5-2.8,2.4V62
		c0,1.8,1.6,3.2,3,3.2H61c0.9,0,2.5-0.9,2.6-2.9v0H50.3V60h12.3c0.7,0,1.3-0.7,1.3-1.4c0-0.7-0.6-1.4-1.3-1.4H50.3v-2.3h13.3v0
		c0-1.3-1.3-2.9-2.7-2.9L50.1,52L50.1,52z"/>
	<rect x="23.5" y="72.9" class="st1" width="190.9" height="21.2"/>
	<path class="st0" d="M115.3,76.7h9.6c1.5,0,3.9,1.2,3.9,4.2v0.2c0,1.6-1,3-2.4,3.6c0,0,0.1,0.2,2.3,3.1c0.3,0.4,0.3,1.3-0.3,1.8
		c-0.6,0.5-1.6,0.6-2,0c-0.7-0.8-1.5-1.8-3.6-4.6h-3.5c-1.1,0-2.6-0.9-2.6-2.8h8.1c0.5,0,1.2-0.5,1.2-1.3c0-0.8-0.7-1.3-1.2-1.3
		h-8.9l0,8.8c0,1-0.7,1.6-1.5,1.6c-0.8,0-1.5-0.7-1.5-1.6v-9C112.6,77.9,114.2,76.7,115.3,76.7"/>
	<path class="st0" d="M94.1,76.7h10.7c1.3,0,2.7,1.6,2.7,2.9H94.2v2.3h12.2c0.7,0,1.3,0.7,1.3,1.4c0,0.8-0.5,1.4-1.3,1.4H94.2V87
		h13.2c0,2-1.7,2.8-2.5,2.8H94.2c-1.4,0-3-1.4-3-3.2v-7.4C91.3,78.2,92.4,76.7,94.1,76.7"/>
	<path class="st0" d="M85.6,76.7c1.3,0,2.7,1.6,2.7,2.9h-6.7v7.3l0,1.7c0,1-0.7,1.5-1.5,1.5c-0.8,0-1.5-0.6-1.5-1.5l0-1.7v-7.3h-6.7
		c0-1.2,1.3-2.9,2.7-2.9H85.6z"/>
	<path class="st0" d="M44.7,88.5c0,0.9,0.8,1.5,1.5,1.5c0.8,0,1.5-0.6,1.5-1.5l0-1.7v-9.1c0-0.5-0.5-1.4-1.5-1.4
		c-1.1,0-1.6,0.9-1.6,1.4v9.1L44.7,88.5z"/>
	<path class="st0" d="M55.5,76.7c-0.2-0.2-0.5-0.3-0.9-0.3c-1.1,0-1.6,0.9-1.6,1.4v9.1l0,1.7c0,0.9,0.8,1.5,1.5,1.5
		c0.8,0,1.5-0.6,1.5-1.5l0-1.7v-5.6l10.9,8.5c0.3,0.2,0.6,0.3,0.9,0.3c0.8,0,1.5-0.6,1.5-1.5l0-1.7v-9.1c0-0.5-0.5-1.4-1.5-1.4
		c-1.1,0-1.6,0.9-1.6,1.4v7.3L55.5,76.7z"/>
	<path class="st0" d="M182.7,80.2c-0.2-0.3-0.2-0.3-0.4-0.3c-0.2,0-0.3,0.1-0.4,0.3c-0.2,0.3-2.9,4.2-2.9,4.2h6.7
		C185.7,84.5,183.1,80.8,182.7,80.2 M182.3,76.7c1,0,1.5,0.4,2.4,1.5l6.6,9.5c0.4,0.5,0.3,1.3-0.3,1.8c-0.5,0.5-1.5,0.5-2-0.2
		l-1.6-2.2h-10.4l-1.6,2.2c-0.6,0.7-1.2,0.7-1.9,0.2c-0.6-0.4-0.8-1.3-0.4-1.8l6.7-9.6C180.8,77,181.4,76.7,182.3,76.7"/>
	<path class="st0" d="M137.1,76.7h9.6c2.4,0,2.6,2.7,2.6,2.7h-11.8c-0.6,0-1.1,0.4-1.1,1.2c0,0.9,0.7,1.3,1.1,1.3h8.3
		c1.6,0,4,1.4,4,3.7c0,3.1-2.7,4.2-3.7,4.2h-9.7c-2.9,0-2.7-2.8-2.7-2.8h12c0.5,0,1.2-0.5,1.2-1.2c0-0.7-0.6-1.2-1.1-1.2h-8.1
		c-2.3,0-4.1-1.7-4.1-4C133.5,78,135.8,76.7,137.1,76.7"/>
	<path class="st0" d="M198.3,76.7h9.9c1.5,0,3.8,1.2,3.8,4.1V81c0,1.6-1,2.9-2.3,3.6c0,0,0.1,0.2,2.2,3c0.3,0.4,0.3,1.3-0.3,1.8
		c-0.6,0.5-1.5,0.6-2,0c-0.7-0.8-1.5-1.8-3.6-4.5h-3.9c-1.1,0-2.6-0.9-2.6-2.8h8.3c0.4,0,1.2-0.5,1.2-1.3c0-0.8-0.7-1.3-1.2-1.3
		h-9.2l0,8.7c0,1-0.7,1.6-1.5,1.6c-0.7,0-1.5-0.7-1.5-1.6v-8.9C195.7,77.9,197.2,76.7,198.3,76.7"/>
	<path class="st0" d="M157.7,76.7h9.9c1.5,0,3.8,1.2,3.8,4.1v0.2c0,1.6-1,2.9-2.3,3.6c0,0-0.7,0.2-1.4,0.3h-6.2
		c-1.1,0-2.5-0.9-2.5-2.8h8.3c0.5,0,1.2-0.4,1.2-1.3c0-0.8-0.7-1.3-1.2-1.3l-9.2,0l0,8.7c0,1-0.7,1.6-1.5,1.6
		c-0.7,0-1.5-0.7-1.5-1.6v-8.9C155,77.9,156.6,76.7,157.7,76.7"/>
	<path class="st2" d="M282.9,75c-4,6.4-10,8.7-14.6,8.7c-3.2,0-6.2-2.3-6.2-6.2v-5.4h19c-8.2-8.9-19-27-22.7-39.3
		c-3.6,12.3-14.5,30.4-22.4,39.3h18.8l0,5.4c0,3-2.5,6.2-6,6.2c-4.9-0.1-11-2.3-14.7-8.6c-2.7-4.6-4.7-8.2-4.7-15.4
		c0-15.8,12.7-28.9,29-28.9c16,0,28.9,13.5,28.9,28.9C287.4,66.9,284,73.2,282.9,75 M258.4,23.5c-20.3,0-36.2,16.1-36.2,36.2
		c0,13,6.5,24.7,18.1,30.4c10.8,5.4,25.3,5.4,36.2,0c10.7-5.3,18.1-17.4,18.1-30.4C294.6,39.8,278.6,23.5,258.4,23.5"/>
</g>
</svg>
