<?xml version="1.0" encoding="utf-8"?>
<!-- Generator: Adobe Illustrator 26.4.1, SVG Export Plug-In . SVG Version: 6.00 Build 0)  -->
<svg version="1.1" xmlns="http://www.w3.org/2000/svg" xmlns:xlink="http://www.w3.org/1999/xlink" x="0px" y="0px"
	 viewBox="0 0 3000 3000" style="enable-background:new 0 0 3000 3000;" xml:space="preserve">
<style type="text/css">
	.st0{fill:#004858;}
	.st1{fill:#FFFFFF;}
	.st2{fill:#3C3C3B;}
	.st3{fill:#FFFFFF;stroke:#FFFFFF;stroke-width:0;stroke-linecap:round;stroke-linejoin:round;stroke-miterlimit:10;}
	.st4{fill:#FFFFFF;stroke:#FFFFFF;stroke-width:0.1429;stroke-linecap:round;stroke-linejoin:round;stroke-miterlimit:10;}
	.st5{fill:#E84E1B;}
	.st6{fill:#5CA7DC;}
	.st7{fill:#FCFCFC;}
	.st8{fill:#FFFFFF;stroke:#FFFFFF;stroke-width:4;stroke-miterlimit:10;}
	.st9{display:none;}
	.st10{display:inline;fill:#FFFFFF;}
	.st11{font-family:'PirulenRg-Regular';}
	.st12{font-size:51.0236px;}
	.st13{letter-spacing:5;}
	.st14{font-size:39.685px;}
	.st15{letter-spacing:4;}
</style>
<g id="sf">
	<rect class="st0" width="3000" height="3000"/>
</g>
<g id="ext_sott">
	<g>
		<path class="st0" d="M1379.7,762.3c0-35.4-28.3-63.7-63.7-63.7s-63.7,28.3-63.7,63.7s28.3,63.7,63.7,63.7
			c35.1,0,63.3-27.9,63.7-62.9"/>
		<path class="st1" d="M1849.1,1112.5l-300.9-198.2L1402,1047.9l-47.3-61.2l-215.6,186.9l0,0.1c-25.1-52.4-39.1-111.3-39.1-173.7
			c0-222.3,177.8-400.1,400-400.1s400,177.8,400,400.1s-177.8,400.1-400,400.1c-120.3,0-227.6-52.1-300.7-135.2l-0.2-0.2l26.2-23.3
			l0-0.1c66.7,76,164.8,123.8,274.8,123.8c163.7,0,300.9-105.7,347.8-253l0.2-0.5c11.1-35.1,17.1-72.5,17.1-111.4
			c0-202.8-162.2-365-365-365c-54.8,0-106.5,11.8-153,33.1l0,0.8c39.3,12.9,67.3,49.6,67.3,93.4c0,54.6-43.7,98.3-98.4,98.3
			c-52.4,0-94.8-40.2-98.1-91.7l-0.8-0.5c-51.4,62.8-82.1,143.4-82.1,231.6c0,40.1,6.3,78.6,18.1,114.6l0.2,0.3l206.5-179l46.7,60.4
			l141-128.9l302,244.2"/>
	</g>
	<g>
		<path class="st0" d="M1385.4,762.6c0-0.1,0-0.2,0-0.3c0-38.9-31.1-70-70-70s-70,31.1-70,70c0,38.9,31.1,70,70,70
			C1354.2,832.4,1385.2,801.4,1385.4,762.6"/>
	</g>
</g>
<g id="go">
	<rect x="1402.3" y="2496.9" class="st2" width="200" height="85.7"/>
	<g>
		<g id="LINE_17_">
			<path class="st3" d="M1490.3,2563.6h-13.6v-10.4h13.3c6.6,0,12-5.4,12-12V2523c0-6.6-5.4-12-12-12h-17.3c-6.6,0-12,5.4-12,12v2.4
				h-11.5v-2.7c0-12.4,10-22.4,22.4-22.4h18.7c12.4,0,22.4,10,22.4,22.4v18.5C1512.7,2553.6,1502.7,2563.6,1490.3,2563.6z"/>
		</g>
		<g id="POLYLINE_16_">
			<polyline class="st3" points="1529.3,2563.6 1518.6,2563.6 1518.6,2553.2 			"/>
		</g>
		<g id="POLYLINE_18_">
			<polyline class="st3" points="1529.3,2563.6 1529.3,2553.2 1518.6,2553.2 			"/>
		</g>
		<g>
			<g id="POLYLINE_20_">
				<rect x="1518.6" y="2500.4" class="st3" width="10.6" height="43.5"/>
			</g>
		</g>
		<g id="LINE_24_">
			<path class="st4" d="M1472.8,2563.8H1437c-16.5,0-29.8-13.4-29.8-29.8v-11.1c0-12.4,10-22.4,22.4-22.4h9.3v11.5h-9.1
				c-6.6,0-12,5.4-12,12v10c0,10.6,8.6,19.2,19.2,19.2h22.9V2543h-10.6v-10.4h23.5V2563.8"/>
		</g>
	</g>
	<rect x="1534.1" y="2500.4" class="st5" width="63.2" height="63.2"/>
	<g>
		<path class="st2" d="M1563.7,2509.8c0,0,0.4-2.4,1.5-3c0,0,1.9-1.3,3.5,0.7c0,0,0.8,0.8,0.6,2.2c0,0.1-0.2,0.7-0.1,0.6
			c0.7-0.2,0.2,0.8,0.1,1c-0.3,0.4-0.3,0.4-0.6,0.3c0,0-0.8,1.1-1,1.6c-0.2,0.6,0.1,0.8,0.1,0.8s0.8,0,1.4,0.3
			c0.6,0.4,3-0.3,4.1,0.4c1.1,0.7,6.1,0.4,6.6,0.4c0.4,0,3.5-2.2,3.5-2.2s2.3-1.4,2.7-1.8c0.3-0.3,5.5-2.8,5.1-1.8c0,0-1.8,0.9-2,1
			c-0.1,0,0.3,0.1,0.3,0.4c0,0.2-0.4,0.3-0.3,0.4c0.7,0.4,0,0.6,0.1,0.7c0.6,0.5-0.3,0.8-0.3,0.8s-0.6,0.2-0.9,0.2
			c-0.2,0-0.7,0.1-0.7,0.1s-0.2,0.1-0.5,0.2c-0.3,0.1-0.7,0.2-0.7,0.2s0,0-0.3,0.2c-0.2,0.2-1.3,1.5-1.7,1.8
			c-0.4,0.4-2.2,1.6-2.2,1.6s-0.7,0.4-1.1,0.7c-0.1,0.1-0.1,0.3-1.4,0.2c-0.3,0-1.7,0.1-1.7,0.1s-2.4,1-5.3-0.2c0,0-0.8-0.1-0.9,0.4
			c0,0.5-0.3,1.1-0.4,1.8c-0.1,0.7,0.3,2,0.3,2s-1.6,5.9-1.6,6.3c0,0.4,1.4,1.6,1.4,1.9c0,0.3,0.1,3,0.1,3s-0.4,2.1-0.1,2.4
			c0,0,0.2,0.1-0.2,0.5c-0.5,0.4-0.4,0.6-0.4,0.6s0,3.1-0.1,4.1c-0.2,1-0.5,5.7-1.7,5.9c0,0-0.9,0.2-1.5-0.7c0,0-0.6-0.5-0.6-0.8
			l0-0.3c0,0-0.6-1.1-0.4-1.7l-0.1-1.5c0,0-0.3-0.2-0.4-0.4c-0.1-0.2-0.2-0.6-0.2-0.6s-0.6,2.6-0.5,3.1c0.1,0.5,0,1.7,0,1.7
			s0.3,0.9,0,1.4c-0.3,0.5-0.3,1.3-0.3,1.3s0.5,1.3,0.3,2.1c-0.2,0.7-0.6,3.8-0.6,3.8s-0.1,4.2,0,4.5c0.1,0.3,1,1.1,0.9,1.5
			c-0.1,0.4,0.2,0.6,0.3,1c0.1,0.3-0.1,1-0.1,1s0.5,0.7,0.3,0.8c-0.2,0.1-2.1,0.7-2.3,0.9c-0.2,0.2-1-0.1-1.1-0.4
			c-0.1-0.3,0.1-0.7,0-0.9c-0.1-0.2-0.2-0.6-0.2-0.6l-0.2-0.7v-0.7c0,0,0.3-0.3,0.1-0.6c-0.2-0.3,0.1-0.7,0.1-0.7l0.2-0.3
			c0,0-1.1-7.7-1-8.4c0-0.7,0.1-2.6,0.4-2.6c0.2,0,0.3-2.1,0.2-2.6s-0.3-0.7-0.5-1.2c-0.2-0.5-1.5-4.2-1.2-7.3c0.1-1.2,0,0.9-1-0.3
			c-0.3-0.4-0.8-0.1-0.8-0.1s-1.7,0.3-0.3-1.5c0.4-0.6,0.6-1.9,0.5-2.1c0-0.3,0.3-0.2,0.3-0.2s1.2-2.8,1.5-2.8
			c0.3,0,0.6-0.5,0.6-0.5l-0.2-0.5c0,0-0.5-0.7-0.8-1c-0.3-0.3-0.4-3.6-0.4-3.6v-3c0,0,0.3-1.5,0.3-1.7s-1-2.1-1.3-2.3
			c-0.3-0.2-3.9-0.3-6.4-2.6c0,0-0.3-0.1-1.1-0.4c-0.2-0.1-0.5-0.7-0.7-0.8c-1.7-1-3.9-3.6-4.6-5.9c0,0-0.4-0.7-0.6-0.7
			c-0.1,0-1.4-0.6-1.7-0.8c-0.8-0.5-1.4-1.3-1-1.6c0.1-0.1-0.1-0.4,0-0.7c0.1-0.1,0.1-0.1,0.2-0.2c0.1-0.1,0-0.5,0.1-0.6
			c0.1-0.2,0.4-0.2,0.4-0.1l-1.2-1.4c0,0,0.1-0.6,1,0.3c0.4,0.4,1.3,1.1,2,2c1,1.2,1.8,2.6,1.8,2.6s1.7,1.4,2.9,2.7
			c1.5,1.6,2.7,3.1,2.9,3.2c0.4,0.4,1.4,0.3,5.1,1.8c0.3,0.1,1.2-0.5,4.1,0.9c0,0,0.8-0.4,1.5-0.7c0.5-0.2,0.1-0.9,0.1-0.9
			s-0.2-1.1-0.3-1.1c-0.1,0-0.3-0.3-0.3-0.3s-0.2-1.1,0-1.2c0.2-0.1,0.4,0,0.4,0L1563.7,2509.8z"/>
	</g>
	<g>
		<path class="st6" d="M1412.6,2577.3l-1,1.9h-3.9l6.2-11.2h4.5l6.1,11.2h-3.9l-1-1.9H1412.6z M1413.8,2574.9h4.4l-2.2-4.1
			L1413.8,2574.9z"/>
		<path class="st6" d="M1430.2,2579.2h-3.5v-8.6h-4.9v-2.6h13.2v2.6h-4.8V2579.2z"/>
		<path class="st6" d="M1439.6,2575v4.2h-3.5V2568h3.5v4.1h7.5v-4.1h3.5v11.2h-3.5v-4.2H1439.6z"/>
		<path class="st6" d="M1462.8,2576.5v2.7h-7.4h-3.5h-0.2V2568h3.5v8.5H1462.8z"/>
		<path class="st6" d="M1475.7,2576.6v2.6h-8.6h-3.5h-0.2V2568h0.1h3.6h8.6v2.6h-8.8v1.9h8.3v2.3h-8.3v1.9H1475.7z"/>
		<path class="st6" d="M1485,2579.2h-3.5v-8.6h-4.9v-2.6h13.2v2.6h-4.8V2579.2z"/>
		<path class="st6" d="M1494.2,2568v11.2h-3.5V2568H1494.2z"/>
		<path class="st6" d="M1495.6,2572.7c0-1,0-1.6,0-1.6c0-1,0.3-1.8,0.9-2.3c0.6-0.5,1.5-0.8,2.8-0.8c1.9,0,5.2,0,9.7,0v2.8
			c-5.7,0-8.8,0-9.3,0c-0.3,0-0.6,0.1-0.7,0.2s-0.2,0.3-0.2,0.4l0,0.9v2.7l0,0.9c0,0.2,0.1,0.4,0.2,0.5c0.2,0.1,0.4,0.2,0.8,0.2
			c0.5,0,3.6,0,9.3,0v2.7c-4.5,0-7.7,0-9.7,0c-1.2,0-2.2-0.3-2.8-0.8c-0.6-0.5-0.9-1.3-0.9-2.3c0,0,0-0.6,0-1.6V2572.7z"/>
		<path class="st6" d="M1531.2,2575.8c0,1.2-0.3,2.1-0.8,2.6c-0.5,0.5-1.4,0.8-2.6,0.8c-1.4,0-4.8,0-10.2,0v-2.4c5.6,0,8.5,0,8.7,0
			s0.4,0,0.6,0c0.2,0,0.3-0.1,0.5-0.1c0.1-0.1,0.3-0.2,0.3-0.3c0.1-0.1,0.1-0.3,0.1-0.5c0-0.2-0.1-0.4-0.2-0.6
			c-0.1-0.1-0.3-0.2-0.5-0.3c-0.2-0.1-0.4-0.1-0.6-0.1c-0.2,0-0.5,0-0.8,0c-0.2,0-0.7,0-1.5-0.1c-1.3,0-2.1-0.1-2.5-0.1
			c-0.3,0-0.6,0-0.9,0c-0.3,0-0.5,0-0.8-0.1c-1.1-0.1-1.8-0.4-2.3-1c-0.3-0.5-0.5-1.2-0.5-2.1c0-1.2,0.2-2,0.7-2.6
			c0.4-0.6,1.2-0.9,2.2-0.9c1.4,0,4.9,0,10.5,0v2.4c-5.6,0-8.5,0-8.7,0c-0.2,0-0.4,0-0.5,0c-0.2,0-0.3,0.1-0.4,0.1
			c-0.1,0.1-0.2,0.2-0.3,0.3c-0.1,0.1-0.1,0.3-0.1,0.5c0,0.4,0.1,0.6,0.4,0.7c0.3,0.1,0.6,0.2,1.1,0.2h0.3c0.1,0,0.2,0,0.3,0
			c0.2,0,0.7,0,1.5,0.1c1.1,0,1.9,0.1,2.4,0.1c0.4,0,0.8,0,1.1,0.1c0.3,0,0.6,0,0.8,0.1c1,0.1,1.8,0.4,2.2,1.1
			C1531,2574.2,1531.2,2574.9,1531.2,2575.8z"/>
		<path class="st6" d="M1539.9,2579.2h-3.5v-8.6h-4.9v-2.6h13.2v2.6h-4.8V2579.2z"/>
		<path class="st6" d="M1549.1,2568v7.5c0,0.2,0.1,0.4,0.3,0.5c0.2,0.1,0.5,0.2,0.9,0.2h5c0.4,0,0.7-0.1,0.9-0.2
			c0.2-0.1,0.3-0.3,0.3-0.5v-7.5h3.4v8c0,0.5-0.1,0.9-0.2,1.3c-0.1,0.4-0.3,0.7-0.6,1c-0.3,0.3-0.6,0.5-0.8,0.6
			c-0.2,0.1-0.5,0.2-0.9,0.3c-0.4,0.1-0.9,0.1-1.6,0.1c-0.7,0-1.7,0-3.1,0c-1.4,0-2.4,0-3,0c-0.7,0-1.2-0.1-1.6-0.1
			c-0.4-0.1-0.7-0.2-0.9-0.3c-0.2-0.1-0.5-0.3-0.8-0.6c-0.3-0.3-0.5-0.6-0.6-1c-0.1-0.4-0.2-0.8-0.2-1.3v-8H1549.1z"/>
		<path class="st6" d="M1561.2,2579.2h-0.1V2568c5.4,0,9,0,10.9,0c1.2,0,2.2,0.3,2.8,0.8c0.6,0.5,0.9,1.3,0.9,2.3c0,0,0,0.6,0,1.6
			v1.9c0,1.1,0,1.6,0,1.6c0,1-0.3,1.8-0.9,2.3c-0.6,0.5-1.5,0.8-2.8,0.8h-7.5H1561.2z M1564.4,2576.6h7.3c0.3,0,0.6-0.1,0.8-0.2
			c0.2-0.1,0.2-0.3,0.2-0.5v-0.9v-1.3v-1.4v-0.9c0-0.2-0.1-0.3-0.2-0.5c-0.2-0.1-0.4-0.2-0.8-0.2c-0.5,0-2.9,0-7.3,0h0
			L1564.4,2576.6L1564.4,2576.6z"/>
		<path class="st6" d="M1580.6,2568v11.2h-3.5V2568H1580.6z"/>
		<path class="st6" d="M1582.2,2570.8c0-0.5,0.1-0.8,0.2-1.1c0.1-0.3,0.3-0.6,0.6-0.8c0.2-0.2,0.5-0.4,0.8-0.6
			c0.3-0.1,0.7-0.2,1.2-0.3c0.5-0.1,1-0.1,1.7-0.1c0.6,0,1.7,0,3,0c1.4,0,2.4,0,3,0c0.6,0,1.2,0,1.7,0.1c0.5,0.1,0.8,0.2,1.1,0.3
			c0.3,0.1,0.6,0.3,0.8,0.6c0.3,0.3,0.5,0.5,0.6,0.8c0.1,0.3,0.2,0.7,0.2,1.1v1.6c0,1.5,0,2.8,0,3.9c0,0.5-0.1,0.8-0.2,1.2
			c-0.1,0.3-0.3,0.6-0.6,0.9c-0.2,0.2-0.5,0.4-0.8,0.6c-0.3,0.1-0.7,0.2-1.2,0.3c-0.5,0.1-1,0.1-1.7,0.1c-0.7,0-1.7,0-2.9,0
			s-2.3,0-2.9,0c-0.7,0-1.2-0.1-1.7-0.1c-0.5-0.1-0.8-0.2-1.1-0.3c-0.3-0.1-0.6-0.3-0.8-0.6c-0.3-0.3-0.5-0.5-0.6-0.9
			c-0.1-0.3-0.2-0.7-0.2-1.2V2570.8z M1585.3,2575.9c0,0.2,0.1,0.4,0.2,0.5c0.1,0.1,0.4,0.1,0.8,0.1c0.5,0,2.6,0,6.4,0
			c0.4,0,0.6-0.1,0.8-0.2c0.2-0.1,0.3-0.3,0.3-0.5v-1.3v-3.3c0-0.3-0.1-0.4-0.2-0.5s-0.4-0.1-0.8-0.1c-0.5,0-2.7,0-6.4,0
			c-0.4,0-0.6,0.1-0.8,0.2c-0.2,0.1-0.2,0.3-0.2,0.5V2575.9z"/>
	</g>
	<g>
		<path class="st7" d="M1289,2480.4l-13.1-20.4l-13.3,20.4h-5.3l16.8-25.3h3.5l16.7,25.3H1289z"/>
		<path class="st7" d="M1297.7,2480.4v-3.7h22c2.2,0,3.2-0.8,3.2-2.3v-3.2c0-1.5-1-2.3-3.2-2.3h-14.9c-5.8,0-8-2.5-8-6.1v-1.5
			c0-3.6,2.2-6.1,8-6.1h21.5v3.7h-21.5c-2.2,0-3.2,0.8-3.2,2.3v1.5c0,1.5,1,2.3,3.2,2.3h14.9c5.8,0,8,2.5,8,6.1v3.1
			c0,3.6-2.2,6.1-8,6.1H1297.7z"/>
		<path class="st7" d="M1334.1,2480.4v-3.7h22c2.2,0,3.2-0.8,3.2-2.3v-3.2c0-1.5-1-2.3-3.2-2.3h-14.9c-5.8,0-8-2.5-8-6.1v-1.5
			c0-3.6,2.2-6.1,8-6.1h21.5v3.7h-21.5c-2.2,0-3.2,0.8-3.2,2.3v1.5c0,1.5,1,2.3,3.2,2.3h14.9c5.8,0,8,2.5,8,6.1v3.1
			c0,3.6-2.2,6.1-8,6.1H1334.1z"/>
		<path class="st7" d="M1377.9,2480.4c-5.8,0-8-2.5-8-6.1v-13.1c0-3.6,2.2-6.1,8-6.1h16.7c5.8,0,8,2.5,8,6.1v13.1
			c0,3.6-2.2,6.1-8,6.1H1377.9z M1397.8,2461.2c0-1.5-1-2.3-3.2-2.3h-16.7c-2.2,0-3.2,0.8-3.2,2.3v13.2c0,1.5,1,2.3,3.2,2.3h16.7
			c2.2,0,3.2-0.8,3.2-2.3V2461.2z"/>
		<path class="st7" d="M1417,2480.4c-5.8,0-8-2.5-8-6.1v-13.1c0-3.6,2.2-6.1,8-6.1h20.4v3.7H1417c-2.2,0-3.2,0.8-3.2,2.3v13.2
			c0,1.5,1,2.3,3.2,2.3h20.4v3.7H1417z"/>
		<path class="st7" d="M1443.8,2480.4v-25.3h4.8v25.3H1443.8z"/>
		<path class="st7" d="M1485,2480.4l-13.1-20.4l-13.3,20.4h-5.3l16.8-25.3h3.5l16.7,25.3H1485z"/>
		<path class="st7" d="M1500.4,2480.4v-21.6h-13.3v-3.7h31v3.7h-12.9v21.6H1500.4z"/>
		<path class="st7" d="M1523.5,2480.4v-25.3h26.1v3.7h-21.3v6.3h20.2v3.7h-20.2v7.8h21.3v3.7H1523.5z"/>
		<path class="st7" d="M1555.8,2480.4v-25.3h23.2c7.2,0,9.4,2.5,9.4,7.5v10.6c0,4.8-2.2,7.2-9.4,7.2H1555.8z M1583.6,2462.6
			c0-2.9-1-3.7-4.6-3.7h-18.4v17.9h18.4c3.6,0,4.6-0.8,4.6-3.5V2462.6z"/>
		<path class="st7" d="M1645.7,2480.4l-8.8-19.4l-9,19.4h-3.5l-11.7-25.3h4.6l8.8,19.4l8.9-19.4h3.6l8.8,19.4l8.9-19.4h4.6
			l-11.7,25.3H1645.7z"/>
		<path class="st7" d="M1665.7,2480.4v-25.3h4.8v25.3H1665.7z"/>
		<path class="st7" d="M1689.3,2480.4v-21.6H1676v-3.7h31v3.7h-12.9v21.6H1689.3z"/>
		<path class="st7" d="M1737.9,2480.4v-11.5h-20.7v11.5h-4.8v-25.3h4.8v10.1h20.7v-10.1h4.8v25.3H1737.9z"/>
	</g>
</g>
<g id="scritte_RASTER">
	<g>
		<g>
			<polygon class="st1" points="1205.2,2026 1179.2,1985.4 1152.8,2026 1141.5,2026 1175.6,1974.8 1182.8,1974.8 1216.6,2026 			"/>
			<path class="st1" d="M1182.7,1975l33.5,50.7h-10.8l-26.1-40.8l-26.6,40.8H1142l33.7-50.7H1182.7 M1183,1974.5h-0.3h-7h-0.3
				l-0.1,0.2l-33.7,50.7l-0.5,0.8h0.9h10.7h0.3l0.1-0.2l26.1-40.2l25.7,40.2l0.1,0.2h0.3h10.8h0.9l-0.5-0.8l-33.5-50.7L1183,1974.5
				L1183,1974.5z"/>
		</g>
		<g>
			<polygon class="st1" points="1246.1,2026 1246.1,1982.8 1219.5,1982.8 1219.5,1974.8 1282,1974.8 1282,1982.8 1256.2,1982.8 
				1256.2,2026 			"/>
			<path class="st1" d="M1281.8,1975v7.5h-25.9v43.2h-9.6v-43.2h-26.6v-7.5H1281.8 M1282.3,1974.5h-0.5h-62h-0.5v0.5v7.5v0.5h0.5
				h26.1v42.7v0.5h0.5h9.6h0.5v-0.5V1983h25.4h0.5v-0.5v-7.5V1974.5L1282.3,1974.5z"/>
		</g>
		<g>
			<polygon class="st1" points="1353.4,2026 1353.4,2003 1312.4,2003 1312.4,2026 1302.3,2026 1302.3,1974.8 1312.4,1974.8 
				1312.4,1995 1353.4,1995 1353.4,1974.8 1363.5,1974.8 1363.5,2026 			"/>
			<path class="st1" d="M1363.2,1975v50.7h-9.6v-23h-41.5v23h-9.6V1975h9.6v20.2h41.5V1975H1363.2 M1363.7,1974.5h-0.5h-9.6h-0.5
				v0.5v19.7h-40.5V1975v-0.5h-0.5h-9.6h-0.5v0.5v50.7v0.5h0.5h9.6h0.5v-0.5v-22.5h40.5v22.5v0.5h0.5h9.6h0.5v-0.5V1975V1974.5
				L1363.7,1974.5z"/>
		</g>
		<g>
			<polygon class="st1" points="1386.7,2026 1386.7,1974.8 1396.9,1974.8 1396.9,2018 1438,2018 1438,2026 			"/>
			<path class="st1" d="M1396.6,1975v43.2h41.1v7.5H1387V1975H1396.6 M1397.1,1974.5h-0.5h-9.6h-0.5v0.5v50.7v0.5h0.5h50.8h0.5v-0.5
				v-7.5v-0.5h-0.5h-40.6V1975V1974.5L1397.1,1974.5z"/>
		</g>
		<g>
			<polygon class="st1" points="1458.6,2026 1458.6,1974.8 1511.2,1974.8 1511.2,1982.8 1468.6,1982.8 1468.6,1995 1509,1995 
				1509,2003 1468.6,2003 1468.6,2018 1511.2,2018 1511.2,2026 			"/>
			<path class="st1" d="M1510.9,1975v7.5h-42.6v12.7h40.4v7.5h-40.4v15.6h42.6v7.5h-52.1V1975H1510.9 M1511.4,1974.5h-0.5h-52.1
				h-0.5v0.5v50.7v0.5h0.5h52.1h0.5v-0.5v-7.5v-0.5h-0.5h-42.1v-14.6h39.9h0.5v-0.5v-7.5v-0.5h-0.5h-39.9V1983h42.1h0.5v-0.5v-7.5
				V1974.5L1511.4,1974.5z"/>
		</g>
		<g>
			<polygon class="st1" points="1556.8,2026 1556.8,1982.8 1530.2,1982.8 1530.2,1974.8 1592.7,1974.8 1592.7,1982.8 1566.9,1982.8 
				1566.9,2026 			"/>
			<path class="st1" d="M1592.5,1975v7.5h-25.9v43.2h-9.6v-43.2h-26.6v-7.5H1592.5 M1593,1974.5h-0.5h-62h-0.5v0.5v7.5v0.5h0.5h26.1
				v42.7v0.5h0.5h9.6h0.5v-0.5V1983h25.4h0.5v-0.5v-7.5V1974.5L1593,1974.5z"/>
		</g>
		<g>
			<rect x="1613.4" y="1974.8" class="st1" width="10.1" height="51.2"/>
			<path class="st1" d="M1623.2,1975v50.7h-9.6V1975H1623.2 M1623.7,1974.5h-0.5h-9.6h-0.5v0.5v50.7v0.5h0.5h9.6h0.5v-0.5V1975
				V1974.5L1623.7,1974.5z"/>
		</g>
		<g>
			<path class="st1" d="M1662.9,2026c-10.7,0-16.2-4.2-16.2-12.5v-26.2c0-8.3,5.4-12.5,16.2-12.5h41.1v8h-41.1
				c-4.1,0-6.1,1.4-6.1,4.4v26.4c0,3,2,4.4,6.1,4.4h41.1v8H1662.9z"/>
			<path class="st1" d="M1703.7,1975v7.5h-40.8c-4.3,0-6.3,1.7-6.3,4.7v26.4c0,3,2,4.7,6.3,4.7h40.8v7.5h-40.8
				c-11.5,0-15.9-5-15.9-12.2v-26.2c0-7.3,4.4-12.2,15.9-12.2H1703.7 M1704.2,1974.5h-0.5h-40.8c-13.6,0-16.4,6.9-16.4,12.7v26.2
				c0,5.8,2.8,12.7,16.4,12.7h40.8h0.5v-0.5v-7.5v-0.5h-0.5h-40.8c-3.9,0-5.8-1.4-5.8-4.2v-26.4c0-2.8,1.9-4.2,5.8-4.2h40.8h0.5
				v-0.5v-7.5V1974.5L1704.2,1974.5z"/>
		</g>
		<g>
			<path class="st1" d="M1725,2026v-18.8c0-8.3,5.4-12.5,16.2-12.5h20.6c4.1,0,6.1-1.4,6.1-4.4v-3.1c0-3-2-4.4-6.1-4.4h-34v-8h34
				c10.7,0,16.2,4.2,16.2,12.5v3c0,8.3-5.4,12.5-16.2,12.5h-20.6c-4.1,0-6.1,1.4-6.1,4.4v10.8h42.8v8H1725z"/>
			<path class="st1" d="M1761.8,1975c11.5,0,15.9,5,15.9,12.2v3c0,7.3-4.4,12.2-15.9,12.2h-20.6c-4.3,0-6.3,1.7-6.3,4.7v11.1h42.8
				v7.5h-52.4v-18.5c0-7.3,4.4-12.2,15.9-12.2h20.6c4.3,0,6.3-1.7,6.3-4.7v-3.1c0-3-2-4.7-6.3-4.7H1728v-7.5H1761.8 M1761.8,1974.5
				H1728h-0.5v0.5v7.5v0.5h0.5h33.8c3.9,0,5.8,1.4,5.8,4.2v3.1c0,2.8-1.9,4.2-5.8,4.2h-20.6c-13.6,0-16.4,6.9-16.4,12.7v18.5v0.5
				h0.5h52.4h0.5v-0.5v-7.5v-0.5h-0.5h-42.3v-10.6c0-2.8,1.9-4.2,5.8-4.2h20.6c13.6,0,16.4-6.9,16.4-12.7v-3
				C1778.2,1981.5,1775.4,1974.5,1761.8,1974.5L1761.8,1974.5z"/>
		</g>
		<g>
			<path class="st1" d="M1803,2026v-8h39.1c4.1,0,6.1-1.4,6.1-4.4v-6.9h-31.7c-10.7,0-16.2-4.2-16.2-12.5v-6.9
				c0-8.3,5.4-12.5,16.2-12.5h25.6c10.7,0,16.2,4.2,16.2,12.5v26.2c0,8.3-5.4,12.5-16.2,12.5H1803z M1816.4,1982.8
				c-4.1,0-6.1,1.4-6.1,4.4v7.1c0,3,2,4.4,6.1,4.4h31.7v-11.5c0-3-2-4.4-6.1-4.4H1816.4z"/>
			<path class="st1" d="M1842.1,1975c11.5,0,15.9,5,15.9,12.2v26.2c0,7.3-4.4,12.2-15.9,12.2h-38.8v-7.5h38.8c4.3,0,6.3-1.7,6.3-4.7
				v-7.1h-32c-11.5,0-15.9-5-15.9-12.2v-6.9c0-7.3,4.4-12.2,15.9-12.2H1842.1 M1816.4,1999h32v-11.7c0-3-2-4.7-6.3-4.7h-25.6
				c-4.3,0-6.3,1.7-6.3,4.7v7.1C1810.1,1997.3,1812.1,1999,1816.4,1999 M1842.1,1974.5h-25.6c-13.6,0-16.4,6.9-16.4,12.7v6.9
				c0,5.8,2.8,12.7,16.4,12.7h31.5v6.6c0,2.8-1.9,4.2-5.8,4.2h-38.8h-0.5v0.5v7.5v0.5h0.5h38.8c13.6,0,16.4-6.9,16.4-12.7v-26.2
				C1858.5,1981.5,1855.6,1974.5,1842.1,1974.5L1842.1,1974.5z M1816.4,1998.5c-3.9,0-5.8-1.4-5.8-4.2v-7.1c0-2.8,1.9-4.2,5.8-4.2
				h25.6c3.9,0,5.8,1.4,5.8,4.2v11.2H1816.4L1816.4,1998.5z"/>
		</g>
	</g>
</g>
<g id="LINE">
	<line class="st8" x1="1000" y1="2071.8" x2="2000" y2="2071.8"/>
</g>
<g id="Livello_11">
</g>
<g id="little_line">
</g>
<g id="TXT">
	<g>
		<g>
			<path class="st1" d="M1118.5,1553.4l-90.1-140.8l-91.6,140.8H900l116.2-174.8h24.1l115.5,174.8H1118.5z"/>
			<path class="st1" d="M1234.9,1553.4v-149h-91.6v-25.8h213.8v25.8H1268v149H1234.9z"/>
			<path class="st1" d="M1580.1,1553.4v-79.5h-143v79.5h-33v-174.8h33v69.5h143v-69.5h33v174.8H1580.1z"/>
			<path class="st1" d="M1667.2,1553.4v-63.8c0-25.1,15.1-42.2,54.9-42.2h71c14.9,0,21.8-5.7,21.8-16.1v-10.7
				c0-10.4-7-16.1-21.8-16.1h-116.4v-25.8h116.4c39.7,0,54.9,17.1,54.9,42.2v10.2c0,25.1-15.1,42.2-54.9,42.2h-71
				c-14.9,0-21.8,5.7-21.8,16.1v38.2H1848v25.8H1667.2z"/>
			<path class="st1" d="M1911.3,1553.4v-25.8h133.8c14.9,0,21.8-5.7,21.8-16.1v-24.6h-110.2c-39.7,0-54.9-17.1-54.9-42.2v-23.8
				c0-25.1,15.1-42.2,54.9-42.2h88.4c39.7,0,54.9,17.1,54.9,42.2v90.4c0,25.1-15.1,42.2-54.9,42.2H1911.3z M2067,1420.6
				c0-10.4-7-16.1-21.8-16.1h-88.4c-14.9,0-21.8,5.7-21.8,16.1v24.3c0,10.4,7,16.1,21.8,16.1H2067V1420.6z"/>
		</g>
	</g>
	<g>
		<path class="st1" d="M940.7,2135v13.3h-6.8v-35.9h29.4c8.2,0,11.3,3.5,11.3,8.7v5.3c0,5.2-3.1,8.7-11.3,8.7H940.7z M967.8,2121
			c0-2.1-1.4-3.3-4.5-3.3h-22.7v12h22.7c3.1,0,4.5-1.2,4.5-3.3V2121z"/>
		<path class="st1" d="M985.3,2148.3v-35.9h36.9v5.3H992v9h28.6v5.3H992v11h30.2v5.3H985.3z"/>
		<path class="st1" d="M1068,2148.3l-8.4-16h-18.9v16h-6.8v-35.9h30.5c8.2,0,11.3,3.5,11.3,8.7v2.6c0,4.6-2.5,8-8.9,8.6l8.5,16.1
			H1068z M1068.9,2121c0-2.1-1.4-3.3-4.5-3.3h-23.7v9.3h23.7c3.1,0,4.5-1.2,4.5-3.3V2121z"/>
		<path class="st1" d="M1087.5,2148.3v-5.3h31.2c3.1,0,4.5-1.2,4.5-3.3v-4.5c0-2.1-1.4-3.3-4.5-3.3h-21.1c-8.2,0-11.3-3.5-11.3-8.7
			v-2.1c0-5.2,3.1-8.7,11.3-8.7h30.4v5.3h-30.4c-3.1,0-4.5,1.2-4.5,3.3v2.2c0,2.1,1.4,3.3,4.5,3.3h21.1c8.2,0,11.3,3.5,11.3,8.7v4.4
			c0,5.2-3.1,8.7-11.3,8.7H1087.5z"/>
		<path class="st1" d="M1152.5,2148.3c-8.2,0-11.3-3.5-11.3-8.7V2121c0-5.2,3.1-8.7,11.3-8.7h23.7c8.2,0,11.3,3.5,11.3,8.7v18.6
			c0,5.2-3.1,8.7-11.3,8.7H1152.5z M1180.7,2121c0-2.1-1.4-3.3-4.5-3.3h-23.7c-3.1,0-4.5,1.2-4.5,3.3v18.7c0,2.1,1.4,3.3,4.5,3.3
			h23.7c3.1,0,4.5-1.2,4.5-3.3V2121z"/>
		<path class="st1" d="M1244,2148.3l-38.3-28v28h-5.9v-35.9h5.9l35.8,26.7v-26.7h5.9v35.9H1244z"/>
		<path class="st1" d="M1301.5,2148.3l-18.5-28.9l-18.8,28.9h-7.6l23.9-35.9h4.9l23.7,35.9H1301.5z"/>
		<path class="st1" d="M1318.4,2148.3v-35.9h6.8v30.6h29.1v5.3H1318.4z"/>
		<path class="st1" d="M1413.1,2148.3v-30.6h-18.8v-5.3h43.9v5.3h-18.3v30.6H1413.1z"/>
		<path class="st1" d="M1482.8,2148.3l-8.4-16h-18.9v16h-6.8v-35.9h30.5c8.2,0,11.3,3.5,11.3,8.7v2.6c0,4.6-2.5,8-8.9,8.6l8.5,16.1
			H1482.8z M1483.7,2121c0-2.1-1.4-3.3-4.5-3.3h-23.7v9.3h23.7c3.1,0,4.5-1.2,4.5-3.3V2121z"/>
		<path class="st1" d="M1543.4,2148.3l-18.5-28.9l-18.8,28.9h-7.6l23.9-35.9h4.9l23.7,35.9H1543.4z"/>
		<path class="st1" d="M1560.6,2148.3v-35.9h6.8v35.9H1560.6z"/>
		<path class="st1" d="M1624.4,2148.3l-38.3-28v28h-5.9v-35.9h5.9l35.8,26.7v-26.7h5.9v35.9H1624.4z"/>
		<path class="st1" d="M1640.3,2148.3v-35.9h36.9v5.3h-30.2v9h28.6v5.3h-28.6v11h30.2v5.3H1640.3z"/>
		<path class="st1" d="M1723,2148.3l-8.4-16h-18.9v16h-6.8v-35.9h30.5c8.2,0,11.3,3.5,11.3,8.7v2.6c0,4.6-2.5,8-8.9,8.6l8.5,16.1
			H1723z M1723.9,2121c0-2.1-1.4-3.3-4.5-3.3h-23.7v9.3h23.7c3.1,0,4.5-1.2,4.5-3.3V2121z"/>
		<path class="st1" d="M1774,2148.3v-5.3h31.2c3.1,0,4.5-1.2,4.5-3.3v-4.5c0-2.1-1.4-3.3-4.5-3.3h-21.1c-8.2,0-11.3-3.5-11.3-8.7
			v-2.1c0-5.2,3.1-8.7,11.3-8.7h30.4v5.3h-30.4c-3.1,0-4.5,1.2-4.5,3.3v2.2c0,2.1,1.4,3.3,4.5,3.3h21.1c8.2,0,11.3,3.5,11.3,8.7v4.4
			c0,5.2-3.1,8.7-11.3,8.7H1774z"/>
		<path class="st1" d="M1843.5,2148.3v-30.6h-18.8v-5.3h43.9v5.3h-18.3v30.6H1843.5z"/>
		<path class="st1" d="M1890.2,2148.3c-8.2,0-11.3-3.5-11.3-8.7v-27.2h6.8v27.3c0,2.1,1.4,3.3,4.5,3.3h22.3c3.1,0,4.5-1.2,4.5-3.3
			v-27.3h6.8v27.2c0,5.2-1.7,8.7-9.8,8.7H1890.2z"/>
		<path class="st1" d="M1936.1,2148.3v-35.9h32.9c10.2,0,13.3,3.5,13.3,10.6v15.1c0,6.7-3.1,10.3-13.3,10.3H1936.1z M1975.5,2123
			c0-4.1-1.4-5.3-6.5-5.3h-26.1v25.3h26.1c5.1,0,6.5-1.2,6.5-5V2123z"/>
		<path class="st1" d="M1994.9,2148.3v-35.9h6.8v35.9H1994.9z"/>
		<path class="st1" d="M2025.5,2148.3c-8.2,0-11.3-3.5-11.3-8.7V2121c0-5.2,3.1-8.7,11.3-8.7h23.7c8.2,0,11.3,3.5,11.3,8.7v18.6
			c0,5.2-3.1,8.7-11.3,8.7H2025.5z M2053.7,2121c0-2.1-1.4-3.3-4.5-3.3h-23.7c-3.1,0-4.5,1.2-4.5,3.3v18.7c0,2.1,1.4,3.3,4.5,3.3
			h23.7c3.1,0,4.5-1.2,4.5-3.3V2121z"/>
	</g>
	<g>
		<path class="st1" d="M1229,2277.4v-27.9h22.7c6.2,0,8.6,2.3,8.6,6v2.6c0,2.4-1.3,4.2-3.3,4.6c2.1,0.6,3.7,1.9,3.7,4.6v4.1
			c0,3.2-1.9,6-8.9,6H1229z M1255.1,2255.8c0-1.5-0.8-2.2-3.3-2.2h-17.5v7.3h17.5c2.5,0,3.3-0.6,3.3-2.2V2255.8z M1255.4,2267.4
			c0-1.7-1.5-2.4-3.6-2.4h-17.5v8.3h17.5c2.1,0,3.6-0.6,3.6-2.9V2267.4z"/>
		<path class="st1" d="M1278.8,2277.4c-6.4,0-8.8-2.7-8.8-6.7v-14.4c0-4,2.4-6.7,8.8-6.7h18.5c6.4,0,8.8,2.7,8.8,6.7v14.4
			c0,4-2.4,6.7-8.8,6.7H1278.8z M1300.8,2256.2c0-1.7-1.1-2.6-3.5-2.6h-18.5c-2.4,0-3.5,0.9-3.5,2.6v14.5c0,1.7,1.1,2.6,3.5,2.6
			h18.5c2.4,0,3.5-0.9,3.5-2.6V2256.2z"/>
		<path class="st1" d="M1315.6,2277.4v-27.9h5.3v23.8h22.7v4.1H1315.6z"/>
		<path class="st1" d="M1351.2,2277.4v-3.6l28.3-19.8h-28.3v-4.5h37.5v3.6l-28.4,19.8h28.4v4.5H1351.2z"/>
		<path class="st1" d="M1429.8,2277.4l-14.4-22.5l-14.6,22.5h-5.9l18.6-27.9h3.8l18.5,27.9H1429.8z"/>
		<path class="st1" d="M1477.3,2277.4l-29.8-21.7v21.7h-4.6v-27.9h4.6l27.8,20.8v-20.8h4.6v27.9H1477.3z"/>
		<path class="st1" d="M1498.2,2277.4c-6.3,0-8.8-2.7-8.8-6.7v-14.4c0-4,2.4-6.7,8.8-6.7h18.5c6.3,0,8.8,2.7,8.8,6.7v14.4
			c0,4-2.4,6.7-8.8,6.7H1498.2z M1520.2,2256.2c0-1.7-1.1-2.6-3.5-2.6h-18.5c-2.4,0-3.5,0.9-3.5,2.6v14.5c0,1.7,1.1,2.6,3.5,2.6
			h18.5c2.4,0,3.5-0.9,3.5-2.6V2256.2z"/>
		<path class="st1" d="M1559.4,2277.4v-27.9h22.7c6.2,0,8.6,2.3,8.6,6v2.6c0,2.4-1.3,4.2-3.3,4.6c2.1,0.6,3.7,1.9,3.7,4.6v4.1
			c0,3.2-1.9,6-8.9,6H1559.4z M1585.5,2255.8c0-1.5-0.8-2.2-3.3-2.2h-17.5v7.3h17.5c2.5,0,3.3-0.6,3.3-2.2V2255.8z M1585.8,2267.4
			c0-1.7-1.5-2.4-3.6-2.4h-17.5v8.3h17.5c2.1,0,3.6-0.6,3.6-2.9V2267.4z"/>
		<path class="st1" d="M1609.3,2277.4c-6.3,0-8.8-2.7-8.8-6.7v-14.4c0-4,2.4-6.7,8.8-6.7h18.5c6.3,0,8.8,2.7,8.8,6.7v14.4
			c0,4-2.4,6.7-8.8,6.7H1609.3z M1631.2,2256.2c0-1.7-1.1-2.6-3.5-2.6h-18.5c-2.4,0-3.5,0.9-3.5,2.6v14.5c0,1.7,1.1,2.6,3.5,2.6
			h18.5c2.4,0,3.5-0.9,3.5-2.6V2256.2z"/>
		<path class="st1" d="M1645.4,2277.4v-3.6l28.3-19.8h-28.3v-4.5h37.5v3.6l-28.4,19.8h28.4v4.5H1645.4z"/>
		<path class="st1" d="M1691.6,2277.4v-27.9h28.7v4.1h-23.5v7h22.3v4.1h-22.3v8.6h23.5v4.1H1691.6z"/>
		<path class="st1" d="M1763.8,2277.4l-29.8-21.7v21.7h-4.6v-27.9h4.6l27.8,20.8v-20.8h4.6v27.9H1763.8z"/>
	</g>
	<g>
		<path class="st1" d="M1068.8,2199.1v-5.7h19.1v5.7H1068.8z"/>
		<path class="st1" d="M1178.1,2215.4v-25.2l-18.3,25.2h-5.6l-18.3-25.1v25.1h-6.3v-35.9h6.3l21.3,29.3l21.2-29.3h5.8v35.9H1178.1z"
			/>
		<path class="st1" d="M1238.5,2215.4l-18.5-28.9l-18.8,28.9h-7.6l23.9-35.9h4.9l23.7,35.9H1238.5z"/>
		<path class="st1" d="M1299.6,2215.4l-38.3-28v28h-5.9v-35.9h5.9l35.8,26.7v-26.7h5.9v35.9H1299.6z"/>
		<path class="st1" d="M1326.6,2215.4c-8.2,0-11.3-3.5-11.3-8.7v-27.2h6.8v27.3c0,2.1,1.4,3.3,4.5,3.3h22.3c3.1,0,4.5-1.2,4.5-3.3
			v-27.3h6.8v27.2c0,5.2-1.7,8.7-9.8,8.7H1326.6z"/>
		<path class="st1" d="M1372.6,2215.4v-35.9h36.9v5.3h-30.2v9h28.6v5.3h-28.6v11h30.2v5.3H1372.6z"/>
		<path class="st1" d="M1421.2,2215.4v-35.9h6.8v30.6h29.1v5.3H1421.2z"/>
		<path class="st1" d="M1499.7,2215.4v-5.3h31.2c3.1,0,4.5-1.2,4.5-3.3v-4.5c0-2.1-1.4-3.3-4.5-3.3h-21.1c-8.2,0-11.3-3.5-11.3-8.7
			v-2.1c0-5.2,3.1-8.7,11.3-8.7h30.4v5.3h-30.4c-3.1,0-4.5,1.2-4.5,3.3v2.2c0,2.1,1.4,3.3,4.5,3.3h21.1c8.2,0,11.3,3.5,11.3,8.7v4.4
			c0,5.2-3.1,8.7-11.3,8.7H1499.7z"/>
		<path class="st1" d="M1564.7,2215.4c-8.2,0-11.3-3.5-11.3-8.7v-18.6c0-5.2,3.1-8.7,11.3-8.7h28.9v5.3h-28.9
			c-3.1,0-4.5,1.2-4.5,3.3v18.7c0,2.1,1.4,3.3,4.5,3.3h28.9v5.3H1564.7z"/>
		<path class="st1" d="M1646.9,2215.4l-18.5-28.9l-18.8,28.9h-7.6l23.9-35.9h4.9l23.7,35.9H1646.9z"/>
		<path class="st1" d="M1674.3,2215.4l-23.9-35.9h7.7l18.8,28.9l18.6-28.9h7.5l-23.7,35.9H1674.3z"/>
		<path class="st1" d="M1721,2215.4c-8.2,0-11.3-3.5-11.3-8.7v-18.6c0-5.2,3.1-8.7,11.3-8.7h23.7c8.2,0,11.3,3.5,11.3,8.7v18.6
			c0,5.2-3.1,8.7-11.3,8.7H1721z M1749.2,2188.1c0-2.1-1.4-3.3-4.5-3.3H1721c-3.1,0-4.5,1.2-4.5,3.3v18.7c0,2.1,1.4,3.3,4.5,3.3
			h23.7c3.1,0,4.5-1.2,4.5-3.3V2188.1z"/>
		<path class="st1" d="M1812.5,2215.4l-38.3-28v28h-5.9v-35.9h5.9l35.8,26.7v-26.7h5.9v35.9H1812.5z"/>
		<path class="st1" d="M1828.4,2215.4v-35.9h36.9v5.3h-30.2v9h28.6v5.3h-28.6v11h30.2v5.3H1828.4z"/>
		<path class="st1" d="M1906.2,2199.1v-5.7h19.1v5.7H1906.2z"/>
	</g>
</g>
<g id="BARRA">
	<rect x="900" y="1469.4" class="st0" width="131.8" height="34.4"/>
</g>
<g id="TXT_LETTERING" class="st9">
	<text transform="matrix(1 0 0 1 930.5544 2148.2793)" class="st10 st11 st12 st13">PERSONAL TRAINER STUDIO</text>
	<text transform="matrix(1 0 0 1 1226.4526 2277.3979)" class="st10 st11 st14 st15">BOLZANO BOZEN</text>
	<text transform="matrix(1 0 0 1 1067.7053 2215.4385)" class="st10 st11 st12 st13">- MANUEL SCAVONE -</text>
</g>
</svg>
