<?xml version="1.0" encoding="utf-8"?>
<!-- Generator: Adobe Illustrator 26.0.0, SVG Export Plug-In . SVG Version: 6.00 Build 0)  -->
<svg version="1.1"
	 id="svg2" xmlns:cc="http://creativecommons.org/ns#" xmlns:dc="http://purl.org/dc/elements/1.1/" xmlns:inkscape="http://www.inkscape.org/namespaces/inkscape" xmlns:rdf="http://www.w3.org/1999/02/22-rdf-syntax-ns#" xmlns:sodipodi="http://sodipodi.sourceforge.net/DTD/sodipodi-0.dtd" xmlns:svg="http://www.w3.org/2000/svg"
	 xmlns="http://www.w3.org/2000/svg" xmlns:xlink="http://www.w3.org/1999/xlink" x="0px" y="0px" viewBox="0 0 1130.08 164"
	 style="enable-background:new 0 0 1130.08 164;" xml:space="preserve">
<style type="text/css">
	.st0{clip-path:url(#SVGID_00000006695865787792618450000013698786731042936738_);}
	.st1{fill-rule:evenodd;clip-rule:evenodd;fill:#A19DA0;}
	.st2{fill:none;stroke:#1E1D1C;stroke-width:1;stroke-miterlimit:13.3333;}
	.st3{fill:#A19DA0;}
</style>
<sodipodi:namedview  bordercolor="#666666" borderopacity="1" gridtolerance="10" guidetolerance="10" id="namedview4" inkscape:pageopacity="0" inkscape:pageshadow="2" inkscape:window-height="480" inkscape:window-width="640" objecttolerance="10" pagecolor="#ffffff">
	</sodipodi:namedview>
<g id="g10" transform="matrix(1.3333333,0,0,-1.3333333,0,484.79867)" inkscape:groupmode="layer" inkscape:label="BrasolinAuto">
	<g id="g12">
		<g>
			<defs>
				<rect id="SVGID_1_" x="-141.26" y="39.07" width="1130.08" height="484.8"/>
			</defs>
			<clipPath id="SVGID_00000078022725163913379220000002940443003850217405_">
				<use xlink:href="#SVGID_1_"  style="overflow:visible;"/>
			</clipPath>
			<g id="g14" style="clip-path:url(#SVGID_00000078022725163913379220000002940443003850217405_);">
				<g id="g20" transform="translate(22.5343,248.8439)">
					<path id="path22" class="st1" d="M0,99.67h25.41V65.73c2.51,2.86,5.37,4.96,8.56,6.42c3.22,1.41,6.74,2.14,10.62,2.14
						c7.99,0,14.63-3.12,19.86-9.33c5.23-6.22,7.86-15.14,7.86-26.74c0-7.76-1.2-14.62-3.58-20.51c-2.4-5.91-5.7-10.3-9.93-13.21
						C54.57,1.55,49.87,0.1,44.71,0.1c-4.4,0-8.43,1.04-12.13,3.06c-2.77,1.63-5.78,4.66-9.04,9.03V1.7H0V99.67z M25.26,37.37
						c0-6.08,1.04-10.49,3.15-13.24c2.13-2.72,4.81-4.12,8.1-4.12c2.97,0,5.52,1.36,7.6,4.05c2.01,2.68,3.06,7.23,3.06,13.59
						c0,5.6-1.03,9.74-3.02,12.37c-1.99,2.62-4.43,3.94-7.29,3.94c-3.42,0-6.19-1.37-8.37-4.1C26.31,47.11,25.26,42.97,25.26,37.37
						 M84.61,72.66h23.58V61.05c2.28,5.01,4.64,8.5,7.03,10.38c2.41,1.88,5.41,2.51,8.94,2.84c3.71,0.37,7.99,0.06,12.17-2.04
						l0.09-21.1c-11.68,3.11-17.31,2.59-23.08-6.69c-2.6-4.15-3.41-9.63-3.41-20.98V1.7H84.61V72.66z M165.75,49.69l-24.06,2.76
						c0.9,4.52,2.2,8.09,3.91,10.71c1.71,2.61,4.18,4.86,7.4,6.77c2.31,1.4,5.5,2.46,9.53,3.21c4.04,0.78,8.42,1.14,13.1,1.14
						c7.55,0,13.64-0.44,18.21-1.35c4.59-0.93,8.41-2.83,11.42-5.75c2.18-2.01,3.86-4.83,5.09-8.48c1.23-3.69,1.85-7.17,1.85-10.55
						V16.79c0-3.31,0.2-5.93,0.58-7.84c0.43-1.87,1.25-4.3,2.59-7.25h-23.64c-0.93,1.84-1.58,3.2-1.86,4.18
						c-0.3,0.97-0.57,2.46-0.87,4.51c-3.27-3.46-6.58-5.88-9.83-7.34c-4.46-1.99-9.62-2.95-15.53-2.95
						c-7.83,0-13.81,1.96-17.86,5.89c-4.05,3.9-6.1,8.75-6.1,14.49c0,5.4,1.46,9.82,4.39,13.3c2.95,3.47,8.32,6.06,16.22,7.76
						c9.45,2.01,15.56,3.48,18.37,4.3c2.78,0.83,5.78,1.93,8.9,3.23c0,3.38-0.65,5.68-1.91,7.02c-1.26,1.34-3.52,2.03-6.76,2.03
						c-4.11,0-7.19-0.73-9.27-2.16C168.03,54.85,166.73,52.74,165.75,49.69 M187.58,35.38c-3.48-1.34-7.08-2.51-10.81-3.58
						c-5.13-1.43-8.37-2.88-9.71-4.3c-1.42-1.48-2.11-3.14-2.11-5.03c0-2.15,0.68-3.88,2.04-5.25c1.41-1.36,3.4-2,6.1-2
						c2.81,0,5.44,0.71,7.86,2.17c2.37,1.51,4.11,3.29,5.12,5.39c1.01,2.14,1.5,4.86,1.5,8.26V35.38z M222.84,21.34l25.01,2.57
						c1.03-3.23,2.47-5.53,4.33-6.92c1.84-1.38,4.32-2.06,7.43-2.06c3.38,0,5.99,0.78,7.83,2.35c1.45,1.12,2.18,2.61,2.18,4.35
						c0,1.96-0.97,3.44-2.83,4.52c-1.36,0.76-4.99,1.69-10.86,2.8c-8.74,1.66-14.8,3.19-18.21,4.59c-3.41,1.42-6.26,3.79-8.59,7.11
						c-2.36,3.3-3.51,7.13-3.51,11.43c0,4.67,1.26,8.71,3.78,12.08c2.51,3.42,5.97,5.95,10.38,7.62c4.43,1.65,10.35,2.49,17.79,2.49
						c7.82,0,13.6-0.67,17.36-1.93c3.72-1.3,6.83-3.32,9.33-6.01c2.49-2.72,4.56-6.41,6.21-11.02l-23.88-2.57
						c-0.62,2.27-1.62,3.95-3.09,5.01c-1.97,1.44-4.38,2.16-7.19,2.16c-2.83,0-4.92-0.55-6.19-1.64c-1.33-1.08-1.96-2.43-1.96-3.99
						c0-1.74,0.82-3.04,2.47-3.93c1.66-0.89,5.24-1.68,10.76-2.4c8.38-1.04,14.61-2.47,18.68-4.27c4.09-1.82,7.21-4.43,9.37-7.83
						c2.16-3.39,3.26-7.07,3.26-11.17c0-4.09-1.17-8.07-3.46-11.94c-2.25-3.89-5.89-6.96-10.8-9.26
						c-4.96-2.31-11.65-3.43-20.16-3.43c-12,0-20.53,1.83-25.63,5.52C227.57,9.27,224.27,14.54,222.84,21.34 M301.59,36.98
						c0,10.81,3.39,19.77,10.16,26.75c6.77,7.04,15.89,10.55,27.4,10.55c13.14,0,23.1-4.11,29.82-12.36
						c5.4-6.64,8.1-14.84,8.1-24.55c0-10.89-3.38-19.85-10.05-26.81c-6.7-6.97-15.97-10.46-27.82-10.46
						c-10.53,0-19.07,2.9-25.61,8.71C305.6,15.97,301.6,25.35,301.59,36.98 M326.85,37.05c0-6.35,1.18-11.02,3.57-14.03
						c2.35-3.02,5.34-4.56,8.92-4.56c3.62,0,6.61,1.53,8.94,4.5c2.33,2.99,3.49,7.74,3.49,14.38c0,6.11-1.17,10.72-3.51,13.71
						c-2.35,3.03-5.26,4.5-8.73,4.5c-3.68,0-6.72-1.53-9.11-4.56C328.06,47.95,326.85,43.29,326.85,37.05 M390.07,99.67h25.28V1.7
						h-25.28V99.67z M432.32,99.67h25.21V81.14h-25.21V99.67z M432.32,72.66h25.21V1.7h-25.21V72.66z M473.58,72.66h23.47V61.11
						c3.53,4.73,7.03,8.07,10.66,10.12c3.59,2.01,7.96,3.04,13.09,3.04c7,0,12.43-2.25,16.36-6.74c3.95-4.44,5.93-11.36,5.93-20.73
						V1.7h-25.33v39.03c0,4.44-0.74,7.61-2.26,9.42c-1.53,1.89-3.66,2.8-6.45,2.8c-3.02,0-5.52-1.26-7.39-3.76
						c-1.91-2.46-2.85-6.95-2.85-13.4V1.7h-25.21L473.58,72.66z"/>
				</g>
				<g id="g24" transform="translate(22.5343,248.8439)">
					<path id="path26" class="st2" d="M0,99.67h25.41V65.73c2.51,2.86,5.37,4.96,8.56,6.42c3.22,1.41,6.74,2.14,10.62,2.14
						c7.99,0,14.63-3.12,19.86-9.33c5.23-6.22,7.86-15.14,7.86-26.74c0-7.76-1.2-14.62-3.58-20.51c-2.4-5.91-5.7-10.3-9.93-13.21
						C54.57,1.55,49.87,0.1,44.71,0.1c-4.4,0-8.43,1.04-12.13,3.06c-2.77,1.63-5.78,4.66-9.04,9.03V1.7H0V99.67z M25.26,37.37
						c0-6.08,1.04-10.49,3.15-13.24c2.13-2.72,4.81-4.12,8.1-4.12c2.97,0,5.52,1.36,7.6,4.05c2.01,2.68,3.06,7.23,3.06,13.59
						c0,5.6-1.03,9.74-3.02,12.37c-1.99,2.62-4.43,3.94-7.29,3.94c-3.42,0-6.19-1.37-8.37-4.1C26.31,47.11,25.26,42.97,25.26,37.37z
						 M84.61,72.66h23.58V61.05c2.28,5.01,4.64,8.5,7.03,10.38c2.41,1.88,5.41,2.51,8.94,2.84c3.71,0.37,7.99,0.06,12.17-2.04
						l0.09-21.1c-11.68,3.11-17.31,2.59-23.08-6.69c-2.6-4.15-3.41-9.63-3.41-20.98V1.7H84.61V72.66z M165.75,49.69l-24.06,2.76
						c0.9,4.52,2.2,8.09,3.91,10.71c1.71,2.61,4.18,4.86,7.4,6.77c2.31,1.4,5.5,2.46,9.53,3.21c4.04,0.78,8.42,1.14,13.1,1.14
						c7.55,0,13.64-0.44,18.21-1.35c4.59-0.93,8.41-2.83,11.42-5.75c2.18-2.01,3.86-4.83,5.09-8.48c1.23-3.69,1.85-7.17,1.85-10.55
						V16.79c0-3.31,0.2-5.93,0.58-7.84c0.43-1.87,1.25-4.3,2.59-7.25h-23.64c-0.93,1.84-1.58,3.2-1.86,4.18
						c-0.3,0.97-0.57,2.46-0.87,4.51c-3.27-3.46-6.58-5.88-9.83-7.34c-4.46-1.99-9.62-2.95-15.53-2.95
						c-7.83,0-13.81,1.96-17.86,5.89c-4.05,3.9-6.1,8.75-6.1,14.49c0,5.4,1.46,9.82,4.39,13.3c2.95,3.47,8.32,6.06,16.22,7.76
						c9.45,2.01,15.56,3.48,18.37,4.3c2.78,0.83,5.78,1.93,8.9,3.23c0,3.38-0.65,5.68-1.91,7.02c-1.26,1.34-3.52,2.03-6.76,2.03
						c-4.11,0-7.19-0.73-9.27-2.16C168.03,54.85,166.73,52.74,165.75,49.69L165.75,49.69z M187.58,35.38
						c-3.48-1.34-7.08-2.51-10.81-3.58c-5.13-1.43-8.37-2.88-9.71-4.3c-1.42-1.48-2.11-3.14-2.11-5.03c0-2.15,0.68-3.88,2.04-5.25
						c1.41-1.36,3.4-2,6.1-2c2.81,0,5.44,0.71,7.86,2.17c2.37,1.51,4.11,3.29,5.12,5.39c1.01,2.14,1.5,4.86,1.5,8.26V35.38z
						 M222.84,21.34l25.01,2.57c1.03-3.23,2.47-5.53,4.33-6.92c1.84-1.38,4.32-2.06,7.43-2.06c3.38,0,5.99,0.78,7.83,2.35
						c1.45,1.12,2.18,2.61,2.18,4.35c0,1.96-0.97,3.44-2.83,4.52c-1.36,0.76-4.99,1.69-10.86,2.8c-8.74,1.66-14.8,3.19-18.21,4.59
						c-3.41,1.42-6.26,3.79-8.59,7.11c-2.36,3.3-3.51,7.13-3.51,11.43c0,4.67,1.26,8.71,3.78,12.08c2.51,3.42,5.97,5.95,10.38,7.62
						c4.43,1.65,10.35,2.49,17.79,2.49c7.82,0,13.6-0.67,17.36-1.93c3.72-1.3,6.83-3.32,9.33-6.01c2.49-2.72,4.56-6.41,6.21-11.02
						l-23.88-2.57c-0.62,2.27-1.62,3.95-3.09,5.01c-1.97,1.44-4.38,2.16-7.19,2.16c-2.83,0-4.92-0.55-6.19-1.64
						c-1.33-1.08-1.96-2.43-1.96-3.99c0-1.74,0.82-3.04,2.47-3.93c1.66-0.89,5.24-1.68,10.76-2.4c8.38-1.04,14.61-2.47,18.68-4.27
						c4.09-1.82,7.21-4.43,9.37-7.83c2.16-3.39,3.26-7.07,3.26-11.17c0-4.09-1.17-8.07-3.46-11.94c-2.25-3.89-5.89-6.96-10.8-9.26
						c-4.96-2.31-11.65-3.43-20.16-3.43c-12,0-20.53,1.83-25.63,5.52C227.57,9.27,224.27,14.54,222.84,21.34L222.84,21.34z
						 M301.6,36.98c0,10.81,3.39,19.77,10.16,26.75c6.77,7.04,15.89,10.55,27.4,10.55c13.14,0,23.1-4.11,29.82-12.36
						c5.4-6.64,8.1-14.84,8.1-24.55c0-10.89-3.38-19.85-10.05-26.81c-6.7-6.97-15.97-10.46-27.82-10.46
						c-10.53,0-19.07,2.9-25.61,8.71C305.6,15.97,301.6,25.35,301.6,36.98L301.6,36.98z M326.85,37.05c0-6.35,1.18-11.02,3.57-14.03
						c2.35-3.02,5.34-4.56,8.92-4.56c3.62,0,6.61,1.53,8.94,4.5c2.33,2.99,3.49,7.74,3.49,14.38c0,6.11-1.17,10.72-3.51,13.71
						c-2.35,3.03-5.26,4.5-8.73,4.5c-3.68,0-6.72-1.53-9.11-4.56C328.06,47.95,326.85,43.29,326.85,37.05z M390.07,99.67h25.28V1.7
						h-25.28V99.67z M432.32,99.67h25.21V81.14h-25.21V99.67z M432.32,72.66h25.21V1.7h-25.21V72.66z M473.58,72.66h23.47V61.11
						c3.53,4.73,7.03,8.07,10.66,10.12c3.59,2.01,7.96,3.04,13.09,3.04c7,0,12.43-2.25,16.36-6.74c3.95-4.44,5.93-11.36,5.93-20.73
						V1.7h-25.33v39.03c0,4.44-0.74,7.61-2.26,9.42c-1.53,1.89-3.66,2.8-6.45,2.8c-3.02,0-5.52-1.26-7.39-3.76
						c-1.91-2.46-2.85-6.95-2.85-13.4V1.7h-25.21L473.58,72.66z"/>
				</g>
				<g id="g28" transform="translate(625.6549,192.8986)">
					<path id="path30" class="st3" d="M0,99.67c-5.39-2.38-11.87-4.9-19.4-6.4c-7.57-1.5-12.26-2.03-13.96-2.91
						c-3.01-1.54-5.16-3.48-6.46-5.74c-1.31-2.24-2-5.16-2-8.67c0-4.83,1.51-8.61,4.5-11.34c2.96-2.71,7.12-2.49,12.4-2.49
						c7.31,0,13.29,2.75,17.95,6.61C-2.31,72.59,0,77.55,0,83.61L0,99.67z M0,69.01c-3.88-3.96-7.87-6.89-11.98-8.86
						c-4.11-1.98-8.38-3.44-12.81-3.44c-7.08,0-12.73-0.03-17.05,3.8c-4.28,3.85-6.45,8.95-6.45,15.3c0,4.91,1.27,9.09,3.73,12.57
						c2.49,3.47,6.09,6.01,10.79,7.76c2.67,0.98,7.94,1.62,15.8,3.21c7.86,1.56,13.84,4.24,17.97,6.82
						c0.05,0.23,0.07,0.48,0.09,0.76c0.05,0.26,0.06,0.69,0.06,1.24c0,4.38-1.62,10.21-4.83,12.61c-3.23,2.41-7.74,3.61-13.56,3.61
						c-5.17,0-9.71-1.17-13.67-3.58c-3.96-2.42-7.15-5.86-9.48-10.44l-4.73,3.44c2.95,5.39,6.67,9.45,11.29,12.18
						c4.62,2.71,10.03,4.07,16.29,4.07c8.48,0,14.76-1.85,18.81-5.52c4.07-3.68,6.13-9.35,6.13-17.03V73.42
						c0-4.45,0.47-7.32,1.41-8.58c0.94-1.25,2.65-1.88,5.23-1.88h1.34v-5.04c-0.91-0.24-1.64-0.45-2.23-0.58
						c-0.53-0.12-1.09-0.16-1.66-0.16c-3.12,0-5.59,1.02-7.43,3.02C1.32,62.22,0.27,65.18,0,69.01 M27.5,84.43v43.68h6.64v-42.2
						c0-8.17,1.37-14.05,4.07-17.6c2.75-3.56,7.22-5.35,13.36-5.35c7.45,0,13.49,2.5,18.04,7.48c4.59,4.96,6.9,11.56,6.9,19.77
						v37.89h6.38V59.15H76.5v14.26c-2.88-5.39-6.39-9.47-10.52-12.17c-4.19-2.7-8.99-4.06-14.54-4.06c-8.13,0-14.14,2.21-18.01,6.71
						C29.51,68.32,27.5,75.17,27.5,84.43 M93.47,122.03v6.07h13.6v21.43l6.54,0.1v-21.53h16.12v-6.07h-16.12V73.28
						c0-3.98,0.66-6.71,2.02-8.08c1.39-1.41,3.97-2.1,7.82-2.1c1.18,0,2.34,0.06,3.5,0.22c1.18,0.2,2.39,0.38,3.6,0.64v-5.75
						c-1.3-0.38-2.63-0.62-3.99-0.8c-1.38-0.14-2.84-0.22-4.43-0.22c-5.43,0-9.29,1.22-11.6,3.66c-2.3,2.44-3.46,6.53-3.46,12.3
						v48.89L93.47,122.03z M169.06,124.39c-7.26,0-13.1-2.82-17.62-8.5c-4.47-5.63-6.74-13.07-6.74-22.29
						c0-9.2,2.27-16.61,6.71-22.2c4.47-5.62,10.35-8.43,17.65-8.43c7.23,0,13.14,2.81,17.65,8.43c4.5,5.59,6.77,13,6.77,22.2
						c0,9.19-2.28,16.61-6.81,22.28C182.15,121.57,176.23,124.39,169.06,124.39 M169.06,130.05c9.19,0,16.67-3.37,22.42-10.05
						c5.79-6.67,8.67-15.42,8.67-26.26c0-10.91-2.88-19.73-8.67-26.45c-5.75-6.74-13.23-10.11-22.42-10.11
						c-9.31,0-16.8,3.35-22.49,10.04c-5.71,6.69-8.6,15.48-8.6,26.37c0,10.95,2.88,19.74,8.6,26.41
						C152.25,126.68,159.74,130.05,169.06,130.05"/>
				</g>
				<g id="g32" transform="translate(625.6549,192.8986)">
					<path id="path34" class="st2" d="M0,99.67c-5.39-2.38-11.87-4.9-19.4-6.4c-7.57-1.5-12.26-2.03-13.96-2.91
						c-3.01-1.54-5.16-3.48-6.46-5.74c-1.31-2.24-2-5.16-2-8.67c0-4.83,1.51-8.61,4.5-11.34c2.96-2.71,7.12-2.49,12.4-2.49
						c7.31,0,13.29,2.75,17.95,6.61C-2.31,72.59,0,77.55,0,83.61L0,99.67z M0,69.01c-3.88-3.96-7.87-6.89-11.98-8.86
						c-4.11-1.98-8.38-3.44-12.81-3.44c-7.08,0-12.73-0.03-17.05,3.8c-4.28,3.85-6.45,8.95-6.45,15.3c0,4.91,1.27,9.09,3.73,12.57
						c2.49,3.47,6.09,6.01,10.79,7.76c2.67,0.98,7.94,1.62,15.8,3.21c7.86,1.56,13.84,4.24,17.97,6.82
						c0.05,0.23,0.07,0.48,0.09,0.76c0.05,0.26,0.06,0.69,0.06,1.24c0,4.38-1.62,10.21-4.83,12.61c-3.23,2.41-7.74,3.61-13.56,3.61
						c-5.17,0-9.71-1.17-13.67-3.58c-3.96-2.42-7.15-5.86-9.48-10.44l-4.73,3.44c2.95,5.39,6.67,9.45,11.29,12.18
						c4.62,2.71,10.03,4.07,16.29,4.07c8.48,0,14.76-1.85,18.81-5.52c4.07-3.68,6.13-9.35,6.13-17.03V73.42
						c0-4.45,0.47-7.32,1.41-8.58c0.94-1.25,2.65-1.88,5.23-1.88h1.34v-5.04c-0.91-0.24-1.64-0.45-2.23-0.58
						c-0.53-0.12-1.09-0.16-1.66-0.16c-3.12,0-5.59,1.02-7.43,3.02C1.32,62.22,0.27,65.18,0,69.01L0,69.01z M27.5,84.43v43.68h6.64
						v-42.2c0-8.17,1.37-14.05,4.07-17.6c2.75-3.56,7.22-5.35,13.36-5.35c7.45,0,13.49,2.5,18.04,7.48
						c4.59,4.96,6.9,11.56,6.9,19.77v37.89h6.38V59.15H76.5v14.26c-2.88-5.39-6.39-9.47-10.52-12.17c-4.19-2.7-8.99-4.06-14.54-4.06
						c-8.13,0-14.14,2.21-18.01,6.71C29.51,68.32,27.5,75.17,27.5,84.43L27.5,84.43z M93.47,122.03v6.07h13.61v21.43l6.54,0.1
						v-21.53h16.12v-6.07h-16.12V73.28c0-3.98,0.66-6.71,2.02-8.08c1.39-1.41,3.97-2.1,7.82-2.1c1.18,0,2.34,0.06,3.5,0.22
						c1.18,0.2,2.39,0.38,3.6,0.64v-5.75c-1.3-0.38-2.63-0.62-3.99-0.8c-1.38-0.14-2.84-0.22-4.43-0.22c-5.43,0-9.29,1.22-11.6,3.66
						c-2.3,2.44-3.46,6.53-3.46,12.3v48.89L93.47,122.03z M169.06,124.39c-7.26,0-13.1-2.82-17.62-8.5
						c-4.47-5.63-6.74-13.07-6.74-22.29c0-9.2,2.27-16.61,6.71-22.2c4.47-5.62,10.35-8.43,17.65-8.43c7.23,0,13.14,2.81,17.65,8.43
						c4.5,5.59,6.77,13,6.77,22.2c0,9.19-2.28,16.61-6.81,22.28C182.15,121.57,176.23,124.39,169.06,124.39z M169.06,130.05
						c9.19,0,16.67-3.37,22.42-10.05c5.79-6.67,8.67-15.42,8.67-26.26c0-10.91-2.88-19.73-8.67-26.45
						c-5.75-6.74-13.23-10.11-22.42-10.11c-9.31,0-16.8,3.35-22.49,10.04c-5.71,6.69-8.6,15.48-8.6,26.37
						c0,10.95,2.88,19.74,8.6,26.41C152.25,126.68,159.74,130.05,169.06,130.05z"/>
				</g>
			</g>
		</g>
	</g>
</g>
</svg>
