<?xml version="1.0" encoding="utf-8"?>
<!-- Generator: Adobe Illustrator 26.4.1, SVG Export Plug-In . SVG Version: 6.00 Build 0)  -->
<svg version="1.1" id="Ebene_1" xmlns="http://www.w3.org/2000/svg" xmlns:xlink="http://www.w3.org/1999/xlink" x="0px" y="0px"
	 viewBox="0 0 623.6 311.8" style="enable-background:new 0 0 623.6 311.8;" xml:space="preserve">
<style type="text/css">
	.st0{fill:#D9DADA;}
	.st1{fill-rule:evenodd;clip-rule:evenodd;}
	.st2{fill:#878786;}
</style>
<path class="st0" d="M422.3,179.2l-5.8-1.2l0.9-4.1l1-4l1-4l1.1-3.9l1.2-3.8l1.2-3.8l1.3-3.7l1.3-3.6l1.4-3.6l1.4-3.5l1.5-3.4
	l1.5-3.3l1.6-3.2l1.6-3.1l1.6-3l1.7-2.9l1.7-2.8l1.8-2.7l1.8-2.6l1.8-2.5l1.9-2.4l1.9-2.2l1.9-2.1l1.9-2l2-1.9l2-1.7l2-1.6l2-1.4
	l2.1-1.3l2.1-1.1l2.1-1l2.2-0.8l1.8,5.6l-1.7,0.6l-1.8,0.8l-1.8,0.9l-1.8,1.1l-1.8,1.2l-1.8,1.4l-1.8,1.5l-1.8,1.7l-1.8,1.8l-1.8,2
	l-1.7,2.1l-1.7,2.2l-1.7,2.3l-1.7,2.5l-1.7,2.6l-1.6,2.7l-1.6,2.8l-1.6,2.9l-1.5,3l-1.5,3.1l-1.5,3.2l-1.4,3.3l-1.4,3.4l-1.3,3.4
	l-1.3,3.5l-1.2,3.6l-1.2,3.7l-1.1,3.7l-1.1,3.8l-1,3.8l-0.9,3.9L422.3,179.2z M472,91.9l2.9,3.4l-4.2,1.4L472,91.9z M470.6,96.6
	l-1.8-5.6l-1.4,4.7L466,94l-1.5-1.7l-1.5-1.7l-1.5-1.7l-1.6-1.6l-1.6-1.6l-1.6-1.6l-1.6-1.6l-1.6-1.6l-1.6-1.5l-1.7-1.5l-1.7-1.5
	l-1.7-1.5l-1.7-1.5l-1.7-1.5l-1.8-1.4l-1.8-1.4l-1.8-1.4l-1.8-1.4l-1.8-1.4l-1.8-1.3l-1.9-1.3l-1.9-1.3l-1.9-1.3l-1.9-1.3l-1.9-1.2
	l-1.9-1.2l-1.9-1.2l-1.9-1.2l-2-1.2l-2-1.1l-2-1.1l2.9-5.2l2.1,1.1l2,1.2l2,1.2l2,1.2l2,1.2l2,1.3l2,1.3l1.9,1.3l1.9,1.3l1.9,1.3
	l1.9,1.4l1.9,1.4l1.9,1.4l1.8,1.4l1.8,1.4l1.8,1.5l1.8,1.5l1.8,1.5l1.8,1.5l1.8,1.5l1.7,1.6l1.7,1.6l1.7,1.6l1.7,1.6l1.7,1.6
	l1.6,1.6l1.6,1.7l1.6,1.7l1.6,1.7l1.6,1.7l1.5,1.7l1.5,1.7L470.6,96.6z M410.5,45.9l1.6-1.9l2.2,1.2L410.5,45.9z M414.3,45.2
	l-2.9,5.2l3.7-0.7l-3.1,3.5l-3.1,3.1l-3.2,2.7l-3.2,2.3l-3.3,1.9l-3.3,1.6l-3.3,1.2l-3.3,0.9l-3.3,0.6l-3.2,0.2l-3.1-0.1l-3.1-0.4
	l-3-0.6l-2.9-0.9l-2.8-1.1l-2.6-1.3l-2.5-1.5l-2.3-1.7l-2.2-1.9l-2-2.1l-1.8-2.2l-1.6-2.3l-1.4-2.4l-1.1-2.5l-0.9-2.6l-0.6-2.7
	l-0.4-2.7l-0.1-2.8l0.2-2.8l0.5-2.8l0.9-2.7l1.2-2.7l5.3,2.7l-0.9,2.1l-0.7,2.1l-0.4,2.1l-0.2,2.1l0.1,2.1l0.3,2.1l0.5,2.1l0.7,2.1
	l0.9,2l1.1,2l1.3,1.9l1.5,1.8l1.6,1.7l1.8,1.6l1.9,1.4l2.1,1.3l2.2,1.1l2.3,0.9l2.4,0.7l2.4,0.5l2.5,0.3l2.6,0.1l2.6-0.2l2.7-0.4
	l2.7-0.7l2.8-1l2.8-1.4l2.8-1.7l2.8-2l2.8-2.4l2.8-2.8l2.8-3.2L414.3,45.2z M354.7,23.4l3.9,0.8l-1.8,3.5L354.7,23.4z M356.8,27.7
	l-5.3-2.7l2.1,4.3l-0.6-0.1l-0.6-0.1l-0.6-0.1l-0.6-0.1l-0.6-0.1l-0.6-0.1l-0.6-0.1l-0.6-0.1l-0.6-0.1l-0.6-0.1l-0.6-0.1l-0.6-0.1
	l-0.6-0.1l-0.6-0.1l-0.6-0.1l-0.6-0.1l-0.6-0.1l-0.6-0.1l-0.6-0.1l-0.6-0.1l-0.6-0.1L340,27l-0.6-0.1l-0.6-0.1l-0.6-0.1l-0.6-0.1
	l-0.6-0.1l-0.6-0.1l-0.6-0.1l-0.6-0.1l-0.6-0.1l-0.6-0.1l0.6-5.9l0.7,0.1l0.6,0.1l0.7,0.1l0.6,0.1l0.6,0.1l0.6,0.1l0.6,0.1l0.6,0.1
	l0.6,0.1l0.6,0.1l0.6,0.1l0.6,0.1l0.6,0.1l0.6,0.1l0.6,0.1l0.6,0.1l0.6,0.1l0.6,0.1l0.6,0.1l0.6,0.1l0.6,0.1l0.6,0.1l0.6,0.1
	l0.6,0.1l0.6,0.1l0.6,0.1l0.6,0.1l0.6,0.1l0.6,0.1l0.6,0.1l0.6,0.1l0.6,0.1L356.8,27.7z M334.3,20.4l-0.6,5.9l-0.6-0.1l-0.6-0.1
	l-0.6-0.1l-0.6,0l-0.6-0.1l-0.6-0.1l-0.6-0.1l-0.6-0.1l-0.6,0l-0.6,0l-0.6,0l-0.6,0l-0.6,0l-0.6,0l-0.6,0l-0.6,0l-0.6,0l-0.7,0
	l-0.6,0l-0.6,0l-0.6,0l-0.6,0l-0.7,0l-0.6,0l-0.6,0l-0.6,0l-0.7,0l-0.6,0l-0.7,0l-0.6,0l-0.6,0l-0.7,0l0-5.9l0.7,0l0.7,0l0.7,0
	l0.7,0l0.7,0l0.7,0l0.7,0l0.7,0l0.7,0l0.7,0l0.7,0l0.7,0l0.7,0l0.7,0l0.7,0l0.7,0l0.7,0l0.7,0l0.6,0l0.7,0l0.7,0l0.7,0l0.7,0l0.6,0
	l0.7,0.1l0.7,0.1l0.7,0.1l0.6,0.1l0.7,0.1l0.7,0.1l0.7,0.1L334.3,20.4z M313.2,19.3l0,5.9v0l-0.8,0l-0.8,0l-0.8,0l-0.8,0l-0.8,0
	l-0.8,0l-0.8,0l-0.8,0l-0.8,0l-0.8,0l-0.8,0l-0.8,0l-0.8,0l-0.8,0l-0.8,0l-0.8,0l-0.8,0l-0.8,0l-0.8,0.1l-0.8,0.1l-0.8,0.1l-0.8,0.1
	l-0.8,0.1l-0.8,0.1L294,26l-0.8,0.1l-0.8,0.1l-0.8,0.1l-0.8,0.1l-0.8,0.1l-0.8,0.1l-0.8,0.1l-0.7-5.9l0.8-0.1l0.8-0.1l0.8-0.1
	l0.8-0.1l0.8-0.1l0.8-0.1l0.8-0.1l0.8-0.1L295,20l0.8-0.1l0.8-0.1l0.8-0.1l0.8-0.1l0.8-0.1l0.8,0l0.8,0l0.8,0l0.8,0l0.8,0l0.8,0
	l0.8,0l0.8,0l0.8,0l0.8,0l0.8,0l0.8,0l0.8,0l0.8,0l0.8,0l0.8,0l0.8,0L313.2,19.3L313.2,19.3z M288,20.7l0.7,5.9l-0.7,0.1l-0.7,0.1
	l-0.7,0.1l-0.7,0.1l-0.8,0.1l-0.7,0.1l-0.7,0.1l-0.7,0.1l-0.7,0.1l-0.7,0.1l-0.7,0.1l-0.7,0.1L279,28l-0.7,0.1l-0.7,0.1l-0.7,0.1
	l-0.7,0.1l-0.7,0.1l-0.7,0.1l-0.7,0.1l-0.7,0.1l-0.7,0.1l-0.7,0.1l-0.7,0.2l-0.7,0.2l-0.7,0.2l-0.7,0.1l-0.7,0.2l-0.7,0.2l-0.7,0.2
	l-0.7,0.2l-0.7,0.2l-1.4-5.8l0.7-0.2l0.7-0.2l0.7-0.2l0.7-0.2l0.7-0.2l0.7-0.2l0.8-0.2l0.8-0.2l0.8-0.2l0.8-0.1l0.8-0.2l0.8-0.1
	l0.8-0.1l0.8-0.1l0.8-0.1l0.7-0.1l0.8-0.1l0.8-0.1l0.8-0.1l0.8-0.1l0.8-0.1l0.8-0.1l0.8-0.1l0.8-0.1l0.8-0.1l0.8-0.1l0.8-0.1
	l0.8-0.1l0.8-0.1l0.8-0.1l0.8-0.1L288,20.7z M261.7,29l-1.3-3.2l3.4-0.8L261.7,29z M263.8,25l1.4,5.8l2.1-4l0.9,2.6l0.6,2.6l0.3,2.6
	l0,2.6l-0.2,2.6l-0.5,2.6l-0.7,2.5l-0.9,2.4l-1.2,2.4l-1.3,2.3l-1.5,2.2l-1.7,2.1l-1.9,1.9l-2,1.8l-2.2,1.6l-2.3,1.5l-2.5,1.3
	l-2.6,1.1l-2.7,0.9l-2.8,0.7l-2.9,0.4l-2.9,0.2l-3-0.1L230,67l-3.1-0.7l-3.1-1l-3.1-1.3l-3.1-1.6l-3.1-1.9l-3.1-2.3l-3-2.6l-3-3
	l4.4-4l2.7,2.7l2.7,2.4l2.7,2l2.7,1.7l2.7,1.4l2.6,1.1l2.6,0.8l2.6,0.6l2.5,0.3l2.5,0.1l2.4-0.1l2.4-0.3l2.3-0.5l2.2-0.7l2.1-0.9
	l2-1.1l1.9-1.2l1.8-1.3l1.7-1.5l1.6-1.6l1.4-1.7l1.3-1.8l1.1-1.9l0.9-1.9l0.8-2l0.6-2l0.4-2l0.2-2l0-2l-0.2-2l-0.5-2l-0.7-2
	L263.8,25z M206.2,47.9l2.1-1.2l1.6,1.8L206.2,47.9z M209.9,48.5l-4.4,4l3.7,0.6l-1.9,1.1l-1.9,1.1l-1.9,1.2l-1.9,1.2l-1.8,1.2
	L198,60l-1.8,1.2l-1.8,1.3l-1.8,1.3l-1.8,1.3l-1.7,1.3l-1.7,1.3l-1.7,1.3l-1.7,1.4l-1.7,1.4l-1.7,1.4l-1.7,1.4l-1.6,1.4l-1.6,1.4
	l-1.6,1.5l-1.6,1.5l-1.6,1.5l-1.6,1.5l-1.5,1.5l-1.5,1.5l-1.5,1.6l-1.5,1.6l-1.5,1.6l-1.4,1.6l-1.4,1.6l-1.4,1.6l-1.4,1.7l-4.6-3.8
	l1.4-1.7l1.5-1.7l1.5-1.7l1.5-1.7l1.5-1.6l1.5-1.6l1.5-1.6l1.6-1.6l1.6-1.6l1.6-1.6l1.6-1.5l1.6-1.5l1.7-1.5l1.7-1.5l1.7-1.5
	l1.7-1.5l1.7-1.4l1.7-1.4l1.7-1.4l1.8-1.4l1.8-1.4l1.8-1.3l1.8-1.3l1.8-1.3l1.8-1.3l1.9-1.3l1.9-1.3l1.9-1.2l1.9-1.2l1.9-1.2
	l1.9-1.2l1.9-1.2L209.9,48.5z M152.4,98.4l-3-1.8l2.2-2.7L152.4,98.4z M151.6,94l4.6,3.8l-0.8-4.4l1.9,1.2l1.8,1.3l1.8,1.4l1.8,1.5
	l1.8,1.6l1.8,1.8l1.7,1.9l1.7,2l1.7,2.1l1.7,2.2l1.6,2.3l1.6,2.3l1.6,2.5l1.5,2.5l1.5,2.6l1.5,2.7l1.5,2.8l1.4,2.9l1.4,2.9l1.3,3
	l1.3,3.1l1.3,3.1l1.2,3.2l1.2,3.3l1.1,3.3l1.1,3.4l1,3.4l1,3.5l0.9,3.5l0.9,3.6l0.8,3.6l0.8,3.7l-5.8,1.2l-0.8-3.6l-0.8-3.5
	l-0.9-3.5l-0.9-3.4l-1-3.4l-1-3.3l-1.1-3.3l-1.1-3.2l-1.1-3.2l-1.2-3.1l-1.2-3l-1.3-3l-1.3-2.9l-1.3-2.8l-1.4-2.8l-1.4-2.7l-1.4-2.6
	l-1.4-2.5l-1.5-2.4l-1.5-2.3l-1.5-2.2l-1.5-2.1l-1.6-2l-1.6-1.9l-1.6-1.8l-1.6-1.7l-1.6-1.6l-1.6-1.5l-1.6-1.4l-1.6-1.3l-1.6-1.1
	l-1.6-1L151.6,94z"/>
<path class="st1" d="M356.2,226h-27.1l13.4-27.3L356.2,226z M326.1,232.3h33l6.1,11.8h-3.5c-1.6,0-2.8,0-3.5,0.2
	c-1.5,0.7-2.6,1.4-4,2.5c-2.8,2.6-0.9,3.1,0.3,3.1H384c1.6,0,2.5-0.5,4.4-2.4c2.5-2.8,0.7-3.3-0.7-3.3h-10.7l-25.9-52.4l-2.7-4.9
	h-22.2c-1.6,0-2.6,0-3.5,0.6c-1.4,0.2-2.7,1.2-3.6,2.2c-3.3,2.7-1.4,2.8,0,2.8h19.8l-25.9,51.7h-5.6c-1.7,0-3,0-3.6,0.2
	c-1.6,0.7-3,1.4-4.2,2.5c-2.8,2.6-0.9,3.1,0.3,3.1h29.6c1.7,0,2.4-0.8,4.3-2.4c2.6-2.8,0.7-3.3-0.7-3.3H320L326.1,232.3z"/>
<path class="st1" d="M356.2,226h-27.1l13.4-27.3L356.2,226z M326.1,232.3h33l6.1,11.8h-3.5c-1.6,0-2.8,0-3.5,0.2
	c-1.5,0.7-2.6,1.4-4,2.5c-2.8,2.6-0.9,3.1,0.3,3.1H384c1.6,0,2.5-0.5,4.4-2.4c2.5-2.8,0.7-3.3-0.7-3.3h-10.7l-25.9-52.4l-2.7-4.9
	h-22.2c-1.6,0-2.6,0-3.5,0.6c-1.4,0.2-2.7,1.2-3.6,2.2c-3.3,2.7-1.4,2.8,0,2.8h19.8l-25.9,51.7h-5.6c-1.7,0-3,0-3.6,0.2
	c-1.6,0.7-3,1.4-4.2,2.5c-2.8,2.6-0.9,3.1,0.3,3.1h29.6c1.7,0,2.4-0.8,4.3-2.4c2.6-2.8,0.7-3.3-0.7-3.3H320L326.1,232.3z"/>
<path class="st1" d="M155.5,246.5c-10.6,0-20.6-7-20.6-19.1v-35h7.5c1.6,0,2.6-0.3,4.2-2c2.7-2.8,1.1-3.5-0.5-3.5h-11.3h-10.6h-4.2
	c-1.6,0-2.8,0-3.8,0.6c-1.5,0.2-2.7,1.2-3.6,2.1c-3,2.8-1.1,2.9,0.2,2.9h11.4v35.7c1.1,16.9,16.4,24.1,31.2,24.1
	c14,0,25.9-10.9,25.9-24.8v-35h9.9c1.6,0,2.6-0.3,4.4-2c2.6-2.8,0.8-3.5-0.8-3.5h-13.5h-5.6H169c-1.4,0-2.8,0-3.5,0.6
	c-1.3,0.2-3,1.2-3.9,2.1c-2.7,2.8-1,2.9,0.2,2.9h14v35C175.8,238.1,166.2,246.5,155.5,246.5"/>
<path class="st1" d="M155.5,246.5c-10.6,0-20.6-7-20.6-19.1v-35h7.5c1.6,0,2.6-0.3,4.2-2c2.7-2.8,1.1-3.5-0.5-3.5h-11.3h-10.6h-4.2
	c-1.6,0-2.8,0-3.8,0.6c-1.5,0.2-2.7,1.2-3.6,2.1c-3,2.8-1.1,2.9,0.2,2.9h11.4v35.7c1.1,16.9,16.4,24.1,31.2,24.1
	c14,0,25.9-10.9,25.9-24.8v-35h9.9c1.6,0,2.6-0.3,4.4-2c2.6-2.8,0.8-3.5-0.8-3.5h-13.5h-5.6H169c-1.4,0-2.8,0-3.5,0.6
	c-1.3,0.2-3,1.2-3.9,2.1c-2.7,2.8-1,2.9,0.2,2.9h14v35C175.8,238.1,166.2,246.5,155.5,246.5"/>
<path class="st1" d="M235.2,192.4h20c4.6,0,7.2,1.6,10,4.6c2.5,2.5,3.5,8.1,1.4,12.5c-0.8,1.9-2.3,3.6-4.7,4.8
	c-2.2,1-4.6,1.6-10.1,1.6h-16.6V192.4z M255.3,186.8h-34.7c-1.6,0-2.7,0-3.3,0.6c-1.8,0.2-3.1,1.2-4.2,2.1c-2.8,2.8-1,2.9,0.2,2.9
	h11.3v51.7h-4c-1.6,0-2.7,0-3.3,0.2c-1.8,0.7-3.1,1.4-4.2,2.5c-2.8,2.6-1,2.8,0.2,2.8h29.5c1.6,0,2.6-0.6,4.3-2.1
	c2.6-2.8,0.9-3.3-0.7-3.3h-11.1v-22.5h11.3c6.1,0,9.7,0.2,13.9,9.8c2.4,5.8,4.5,9.3,5.8,11.1c3.2,4.4,6.9,6.2,13,7.2
	c8.6,1,13.3-4.6,13.2-7.1c0-0.5-0.5-1.5-1.5-1c-2.7,2.1-4.8,2.8-7.6,3.2c-4.9,0.4-6.3-5.2-8.2-8.6c-2.8-5-4.3-8.6-5.2-10
	c-1.4-1.4-2.8-2.8-4.2-4c-0.7-0.9-1.9-1.4-1.3-1.6c2.3-0.6,5-1.6,7.1-2.8c5.6-3.5,8.3-8.1,8.8-14.1c0.1-9.7-9.4-14.1-13.5-15.5
	C264.4,187.6,260.7,186.8,255.3,186.8z"/>
<path class="st1" d="M235.2,192.4h20c4.6,0,7.2,1.6,10,4.6c2.5,2.5,3.5,8.1,1.4,12.5c-0.8,1.9-2.3,3.6-4.7,4.8
	c-2.2,1-4.6,1.6-10.1,1.6h-16.6V192.4z M255.3,186.8h-34.7c-1.6,0-2.7,0-3.3,0.6c-1.8,0.2-3.1,1.2-4.2,2.1c-2.8,2.8-1,2.9,0.2,2.9
	h11.3v51.7h-4c-1.6,0-2.7,0-3.3,0.2c-1.8,0.7-3.1,1.4-4.2,2.5c-2.8,2.6-1,2.8,0.2,2.8h29.5c1.6,0,2.6-0.6,4.3-2.1
	c2.6-2.8,0.9-3.3-0.7-3.3h-11.1v-22.5h11.3c6.1,0,9.7,0.2,13.9,9.8c2.4,5.8,4.5,9.3,5.8,11.1c3.2,4.4,6.9,6.2,13,7.2
	c8.6,1,13.3-4.6,13.2-7.1c0-0.5-0.5-1.5-1.5-1c-2.7,2.1-4.8,2.8-7.6,3.2c-4.9,0.4-6.3-5.2-8.2-8.6c-2.8-5-4.3-8.6-5.2-10
	c-1.4-1.4-2.8-2.8-4.2-4c-0.7-0.9-1.9-1.4-1.3-1.6c2.3-0.6,5-1.6,7.1-2.8c5.6-3.5,8.3-8.1,8.8-14.1c0.1-9.7-9.4-14.1-13.5-15.5
	C264.4,187.6,260.7,186.8,255.3,186.8z"/>
<path class="st1" d="M536.6,186.8h-52.9l-10.9,19.3c-0.8,1.2-0.2,2.8,1,3.8c1.1,0.7,3.1,0.2,4-1l9.2-16.5h18v51.7h-4.1
	c-1.6,0-2.8,0-3.8,0.2c-1.6,0.7-3,1.4-3.9,2.5c-3,2.6-1,3.1,0.2,3.1h29.5c1.8,0,2.6-0.8,4.2-2.4c2.8-2.8,0.8-3.3-0.5-3.3h-11v-51.7
	h17.9l9.2,16.5c0.9,1.2,2.3,1.8,4.1,1c1.1-1,1.6-2.6,0.8-3.8L536.6,186.8z"/>
<path class="st1" d="M536.6,186.8h-52.9l-10.9,19.3c-0.8,1.2-0.2,2.8,1,3.8c1.1,0.7,3.1,0.2,4-1l9.2-16.5h18v51.7h-4.1
	c-1.6,0-2.8,0-3.8,0.2c-1.6,0.7-3,1.4-3.9,2.5c-3,2.6-1,3.1,0.2,3.1h29.5c1.8,0,2.6-0.8,4.2-2.4c2.8-2.8,0.8-3.3-0.5-3.3h-11v-51.7
	h17.9l9.2,16.5c0.9,1.2,2.3,1.8,4.1,1c1.1-1,1.6-2.6,0.8-3.8L536.6,186.8z"/>
<path class="st1" d="M449.7,186.8h-52.9l-11.1,19.3c-0.7,1.2-0.3,2.8,0.9,3.8c1.4,0.7,3.3,0.2,4-1l9.7-16.5h17.6v51.7h-4.2
	c-1.1,0-2.5,0-3.3,0.2c-1.6,0.7-2.8,1.4-4.2,2.5c-2.8,2.6-1,3.1,0.2,3.1h29.6c1.6,0,2.6-0.8,4.4-2.4c2.6-2.8,0.8-3.3-0.8-3.3h-11.1
	v-51.7h17.9l9.2,16.5c1.1,1.2,2.8,1.8,4.1,1c1.5-1,1.7-2.6,1-3.8L449.7,186.8z"/>
<path class="st1" d="M449.7,186.8h-52.9l-11.1,19.3c-0.7,1.2-0.3,2.8,0.9,3.8c1.4,0.7,3.3,0.2,4-1l9.7-16.5h17.6v51.7h-4.2
	c-1.1,0-2.5,0-3.3,0.2c-1.6,0.7-2.8,1.4-4.2,2.5c-2.8,2.6-1,3.1,0.2,3.1h29.6c1.6,0,2.6-0.8,4.4-2.4c2.6-2.8,0.8-3.3-0.8-3.3h-11.1
	v-51.7h17.9l9.2,16.5c1.1,1.2,2.8,1.8,4.1,1c1.5-1,1.7-2.6,1-3.8L449.7,186.8z"/>
<path class="st1" d="M48.8,243.9v-24.2H62c4.8,0,9.3-0.7,13.8,1.1c3,1.4,4.7,3.3,6.3,6c2.5,5,1.7,10-4.6,14.8
	c-3.6,2.3-9.7,2.3-15.5,2.3H48.8z M48.8,192.4h15.6c5.2,0,8.5,1.3,11.7,3.2c4.7,3.5,5.8,10.7,0.7,14.9c-3.9,3.4-9,3.6-13.7,3.6H48.8
	V192.4z M62,186.8H34.1c-1.6,0-2.7,0-3.6,0.6c-1.6,0.2-2.8,1.2-4.1,2.1c-2.7,2.8-1.1,2.9,0.3,2.9h11.6v51.7h-4.2
	c-1.6-0.3-2.7,0-3.6,0.2c-1.6,0.7-2.8,1.4-4.1,2.5c-2.7,2.6-1.1,2.8,0.3,2.8H62c6.4,0,13.3,0.3,20.9-1.8
	c12.3-3.5,17.1-16.7,8.5-25.7c-2.2-2.1-5.1-3.7-8.4-5.1c-1-0.2-1.1-0.3-1.1-0.7c0-0.6,0.1-1.1,0.6-1.4c4.4-2.5,8.2-5.1,8.6-12.1
	c0.3-6-2.3-9-5.1-11.2C80.7,187,75.5,186.8,62,186.8z"/>
<path class="st1" d="M48.8,243.9v-24.2H62c4.8,0,9.3-0.7,13.8,1.1c3,1.4,4.7,3.3,6.3,6c2.5,5,1.7,10-4.6,14.8
	c-3.6,2.3-9.7,2.3-15.5,2.3H48.8z M48.8,192.4h15.6c5.2,0,8.5,1.3,11.7,3.2c4.7,3.5,5.8,10.7,0.7,14.9c-3.9,3.4-9,3.6-13.7,3.6H48.8
	V192.4z M62,186.8H34.1c-1.6,0-2.7,0-3.6,0.6c-1.6,0.2-2.8,1.2-4.1,2.1c-2.7,2.8-1.1,2.9,0.3,2.9h11.6v51.7h-4.2
	c-1.6-0.3-2.7,0-3.6,0.2c-1.6,0.7-2.8,1.4-4.1,2.5c-2.7,2.6-1.1,2.8,0.3,2.8H62c6.4,0,13.3,0.3,20.9-1.8
	c12.3-3.5,17.1-16.7,8.5-25.7c-2.2-2.1-5.1-3.7-8.4-5.1c-1-0.2-1.1-0.3-1.1-0.7c0-0.6,0.1-1.1,0.6-1.4c4.4-2.5,8.2-5.1,8.6-12.1
	c0.3-6-2.3-9-5.1-11.2C80.7,187,75.5,186.8,62,186.8z"/>
<path class="st1" d="M596.5,186.8h-25.5c-1.6,0-2.7,0-3.8,0.6c-1.6,0.2-2.7,1.2-4,2.2c-2.6,2.7-1.1,2.8,0.3,2.8h11.3v51.7h-3.9
	c-1.6,0-2.7,0-3.8,0.2c-1.6,0.7-2.7,1.4-4,2.5c-2.6,2.6-1.1,3.1,0.3,3.1h29.6c1.7,0,2.6-0.8,4.2-2.4c2.5-2.8,0.9-3.3-0.9-3.3h-10.9
	v-51.7h7.6c1.7,0,2.6-0.3,4.2-2C600,187.6,598.4,186.8,596.5,186.8"/>
<path class="st1" d="M596.5,186.8h-25.5c-1.6,0-2.7,0-3.8,0.6c-1.6,0.2-2.7,1.2-4,2.2c-2.6,2.7-1.1,2.8,0.3,2.8h11.3v51.7h-3.9
	c-1.6,0-2.7,0-3.8,0.2c-1.6,0.7-2.7,1.4-4,2.5c-2.6,2.6-1.1,3.1,0.3,3.1h29.6c1.7,0,2.6-0.8,4.2-2.4c2.5-2.8,0.9-3.3-0.9-3.3h-10.9
	v-51.7h7.6c1.7,0,2.6-0.3,4.2-2C600,187.6,598.4,186.8,596.5,186.8"/>
<path class="st2" d="M422.3,183.5l-5.8-1.2l0.9-4.1l1-4l1-4l1.1-3.9l1.2-3.8l1.2-3.8l1.3-3.7l1.3-3.6l1.4-3.6l1.4-3.5l1.5-3.4
	l1.5-3.3l1.6-3.2l1.6-3.1l1.6-3l1.7-2.9l1.7-2.8l1.8-2.7l1.8-2.6l1.8-2.5l1.9-2.4l1.9-2.2l1.9-2.1l1.9-2l2-1.9l2-1.7l2-1.6l2-1.4
	l2.1-1.3l2.1-1.1l2.1-1l2.2-0.8l1.8,5.6l-1.7,0.6l-1.8,0.8l-1.8,0.9l-1.8,1.1l-1.8,1.2L460,107l-1.8,1.5l-1.8,1.7l-1.8,1.8l-1.8,2
	l-1.7,2.1l-1.7,2.2l-1.7,2.3l-1.7,2.5l-1.7,2.6l-1.6,2.7l-1.6,2.8l-1.6,2.9l-1.5,3l-1.5,3.1l-1.5,3.2l-1.4,3.3l-1.4,3.4l-1.3,3.4
	l-1.3,3.5l-1.2,3.6l-1.2,3.7l-1.1,3.7l-1.1,3.8l-1,3.8l-0.9,3.9L422.3,183.5z M472,96.2l2.9,3.4l-4.2,1.4L472,96.2z M470.6,100.9
	l-1.8-5.6l-1.4,4.7l-1.5-1.7l-1.5-1.7l-1.5-1.7l-1.5-1.7l-1.6-1.6l-1.6-1.6l-1.6-1.6l-1.6-1.6l-1.6-1.6l-1.6-1.5l-1.7-1.5l-1.7-1.5
	l-1.7-1.5l-1.7-1.5l-1.7-1.5l-1.8-1.4l-1.8-1.4l-1.8-1.4l-1.8-1.4l-1.8-1.4l-1.8-1.3l-1.9-1.3l-1.9-1.3l-1.9-1.3l-1.9-1.3l-1.9-1.2
	l-1.9-1.2l-1.9-1.2l-1.9-1.2l-2-1.2l-2-1.1l-2-1.1l2.9-5.2l2.1,1.1l2,1.2l2,1.2l2,1.2l2,1.2l2,1.3l2,1.3l1.9,1.3l1.9,1.3l1.9,1.3
	l1.9,1.4l1.9,1.4l1.9,1.4l1.8,1.4l1.8,1.4l1.8,1.5l1.8,1.5l1.8,1.5l1.8,1.5l1.8,1.5l1.7,1.6l1.7,1.6l1.7,1.6l1.7,1.6l1.7,1.6
	l1.6,1.6l1.6,1.7l1.6,1.7l1.6,1.7l1.6,1.7l1.5,1.7l1.5,1.7L470.6,100.9z M410.5,50.2l1.6-1.9l2.2,1.2L410.5,50.2z M414.3,49.5
	l-2.9,5.2l3.7-0.7l-3.1,3.5l-3.1,3.1l-3.2,2.7l-3.2,2.3l-3.3,1.9l-3.3,1.6l-3.3,1.2l-3.3,0.9l-3.3,0.6l-3.2,0.2l-3.1-0.1l-3.1-0.4
	l-3-0.6l-2.9-0.9l-2.8-1.1l-2.6-1.3l-2.5-1.5l-2.3-1.7l-2.2-1.9l-2-2.1l-1.8-2.2l-1.6-2.3l-1.4-2.4l-1.1-2.5l-0.9-2.6l-0.6-2.7
	l-0.4-2.7l-0.1-2.8l0.2-2.8l0.5-2.8l0.9-2.7l1.2-2.7l5.3,2.7l-0.9,2.1l-0.7,2.1l-0.4,2.1l-0.2,2.1l0.1,2.1l0.3,2.1l0.5,2.1l0.7,2.1
	l0.9,2l1.1,2l1.3,1.9l1.5,1.8l1.6,1.7l1.8,1.6l1.9,1.4l2.1,1.3l2.2,1.1l2.3,0.9l2.4,0.7l2.4,0.5l2.5,0.3l2.6,0.1l2.6-0.2l2.7-0.4
	l2.7-0.7l2.8-1l2.8-1.4l2.8-1.7l2.8-2l2.8-2.4l2.8-2.8l2.8-3.2L414.3,49.5z M354.7,27.7l3.9,0.8l-1.8,3.5L354.7,27.7z M356.8,32
	l-5.3-2.7l2.1,4.3l-0.6-0.1l-0.6-0.1l-0.6-0.1l-0.6-0.1l-0.6-0.1l-0.6-0.1l-0.6-0.1l-0.6-0.1l-0.6-0.1l-0.6-0.1l-0.6-0.1l-0.6-0.1
	l-0.6-0.1l-0.6-0.1l-0.6-0.1l-0.6-0.1l-0.6-0.1l-0.6-0.1l-0.6-0.1l-0.6-0.1l-0.6-0.1l-0.6-0.1l-0.6-0.1l-0.6-0.1l-0.6-0.1l-0.6-0.1
	l-0.6-0.1l-0.6-0.1l-0.6-0.1l-0.6-0.1l-0.6-0.1l-0.6-0.1l0.6-5.9l0.7,0.1l0.6,0.1l0.7,0.1l0.6,0.1l0.6,0.1l0.6,0.1l0.6,0.1l0.6,0.1
	l0.6,0.1l0.6,0.1l0.6,0.1l0.6,0.1l0.6,0.1l0.6,0.1l0.6,0.1l0.6,0.1l0.6,0.1l0.6,0.1l0.6,0.1l0.6,0.1l0.6,0.1l0.6,0.1l0.6,0.1
	l0.6,0.1l0.6,0.1l0.6,0.1l0.6,0.1l0.6,0.1l0.6,0.1l0.6,0.1l0.6,0.1l0.6,0.1L356.8,32z M334.3,24.7l-0.6,5.9l-0.6-0.1l-0.6-0.1
	l-0.6-0.1l-0.6,0l-0.6-0.1l-0.6-0.1l-0.6-0.1l-0.6-0.1l-0.6,0l-0.6,0l-0.6,0l-0.6,0l-0.6,0l-0.6,0l-0.6,0l-0.6,0l-0.6,0l-0.7,0
	l-0.6,0l-0.6,0l-0.6,0l-0.6,0l-0.7,0l-0.6,0l-0.6,0l-0.6,0l-0.7,0l-0.6,0l-0.7,0l-0.6,0l-0.6,0l-0.7,0l0-5.9l0.7,0l0.7,0l0.7,0
	l0.7,0l0.7,0l0.7,0l0.7,0l0.7,0l0.7,0l0.7,0l0.7,0l0.7,0l0.7,0l0.7,0l0.7,0l0.7,0l0.7,0l0.7,0l0.6,0l0.7,0l0.7,0l0.7,0l0.7,0l0.6,0
	l0.7,0.1l0.7,0.1l0.7,0.1l0.7,0.1l0.6,0.1l0.7,0.1l0.7,0.1L334.3,24.7z M313.2,23.6l0,5.9v0l-0.8,0l-0.8,0l-0.8,0l-0.8,0l-0.8,0
	l-0.8,0l-0.8,0l-0.8,0l-0.8,0l-0.8,0l-0.8,0l-0.8,0l-0.8,0l-0.8,0l-0.8,0l-0.8,0l-0.8,0l-0.8,0l-0.8,0.1l-0.8,0.1l-0.8,0.1l-0.8,0.1
	l-0.8,0.1l-0.8,0.1l-0.8,0.1l-0.8,0.1l-0.8,0.1l-0.8,0.1l-0.8,0.1l-0.8,0.1l-0.8,0.1l-0.8,0.1L288,25l0.8-0.1l0.8-0.1l0.8-0.1
	l0.8-0.1l0.8-0.1l0.8-0.1l0.8-0.1l0.8-0.1l0.8-0.1l0.8-0.1l0.8-0.1l0.8-0.1l0.8-0.1l0.8-0.1l0.8,0l0.8,0l0.8,0l0.8,0l0.8,0l0.8,0
	l0.8,0l0.8,0l0.8,0l0.8,0l0.8,0l0.8,0l0.8,0l0.8,0l0.8,0l0.8,0l0.8,0L313.2,23.6L313.2,23.6z M288,25l0.7,5.9L288,31l-0.7,0.1
	l-0.7,0.1l-0.7,0.1l-0.8,0.1l-0.7,0.1l-0.7,0.1l-0.7,0.1l-0.7,0.1l-0.7,0.1l-0.7,0.1l-0.7,0.1l-0.7,0.1l-0.7,0.1l-0.7,0.1l-0.7,0.1
	l-0.7,0.1l-0.7,0.1l-0.7,0.1l-0.7,0.1l-0.7,0.1l-0.7,0.1l-0.7,0.1l-0.7,0.2l-0.7,0.2l-0.7,0.2l-0.7,0.1l-0.7,0.2l-0.7,0.2l-0.7,0.2
	l-0.7,0.2l-0.7,0.2l-1.4-5.8l0.7-0.2l0.7-0.2l0.7-0.2l0.7-0.2l0.7-0.2l0.7-0.2l0.8-0.2l0.8-0.2l0.8-0.2l0.8-0.1l0.8-0.2l0.8-0.1
	l0.8-0.1l0.8-0.1l0.8-0.1l0.7-0.1l0.8-0.1l0.8-0.1l0.8-0.1l0.8-0.1l0.8-0.1l0.8-0.1l0.8-0.1l0.8-0.1l0.8-0.1l0.8-0.1l0.8-0.1
	l0.8-0.1l0.8-0.1l0.8-0.1l0.8-0.1L288,25z M261.7,33.2l-1.3-3.2l3.4-0.8L261.7,33.2z M263.8,29.3l1.4,5.8l2.1-4l0.9,2.6l0.6,2.6
	l0.3,2.6l0,2.6l-0.2,2.6l-0.5,2.6l-0.7,2.5l-0.9,2.4l-1.2,2.4l-1.3,2.3l-1.5,2.2l-1.7,2.1l-1.9,1.9l-2,1.8l-2.2,1.6l-2.3,1.5
	l-2.5,1.3l-2.6,1.1l-2.7,0.9l-2.8,0.7l-2.9,0.4l-2.9,0.2l-3-0.1l-3.1-0.4l-3.1-0.7l-3.1-1l-3.1-1.3l-3.1-1.6l-3.1-1.9l-3.1-2.3
	l-3-2.6l-3-3l4.4-4l2.7,2.7l2.7,2.4l2.7,2l2.7,1.7l2.7,1.4l2.6,1.1l2.6,0.8l2.6,0.6l2.5,0.3l2.5,0.1l2.4-0.1l2.4-0.3l2.3-0.5
	l2.2-0.7l2.1-0.9l2-1.1l1.9-1.2l1.8-1.3l1.7-1.5l1.6-1.6l1.4-1.7l1.3-1.8l1.1-1.9l0.9-1.9l0.8-2l0.6-2l0.4-2l0.2-2l0-2l-0.2-2
	l-0.5-2l-0.7-2L263.8,29.3z M206.2,52.2l2.1-1.2l1.6,1.8L206.2,52.2z M209.9,52.8l-4.4,4l3.7,0.6l-1.9,1.1l-1.9,1.1l-1.9,1.2
	l-1.9,1.2l-1.8,1.2l-1.8,1.2l-1.8,1.2l-1.8,1.3l-1.8,1.3l-1.8,1.3l-1.7,1.3l-1.7,1.3l-1.7,1.3l-1.7,1.4l-1.7,1.4l-1.7,1.4l-1.7,1.4
	l-1.6,1.4l-1.6,1.4l-1.6,1.5l-1.6,1.5l-1.6,1.5l-1.6,1.5l-1.5,1.5l-1.5,1.5l-1.5,1.6l-1.5,1.6l-1.5,1.6l-1.4,1.6l-1.4,1.6l-1.4,1.6
	l-1.4,1.7l-4.6-3.8l1.4-1.7l1.5-1.7l1.5-1.7l1.5-1.7l1.5-1.6l1.5-1.6l1.5-1.6l1.6-1.6l1.6-1.6l1.6-1.6l1.6-1.5l1.6-1.5l1.7-1.5
	l1.7-1.5l1.7-1.5l1.7-1.5l1.7-1.4l1.7-1.4l1.7-1.4l1.8-1.4l1.8-1.4l1.8-1.3l1.8-1.3L191,62l1.8-1.3l1.9-1.3l1.9-1.3l1.9-1.2l1.9-1.2
	l1.9-1.2l1.9-1.2l1.9-1.2L209.9,52.8z M152.4,102.7l-3-1.8l2.2-2.7L152.4,102.7z M151.6,98.3l4.6,3.8l-0.8-4.4l1.9,1.2l1.8,1.3
	l1.8,1.4l1.8,1.5l1.8,1.6l1.8,1.8l1.7,1.9l1.7,2l1.7,2.1l1.7,2.2l1.6,2.3l1.6,2.4l1.6,2.5l1.5,2.5l1.5,2.6l1.5,2.7l1.5,2.8l1.4,2.9
	l1.4,2.9l1.3,3l1.3,3.1l1.3,3.1l1.2,3.2l1.2,3.3l1.1,3.3l1.1,3.4l1,3.4l1,3.5l0.9,3.5l0.9,3.6l0.8,3.6l0.8,3.7l-5.8,1.2l-0.8-3.6
	l-0.8-3.5l-0.9-3.5l-0.9-3.4l-1-3.4l-1-3.3l-1.1-3.3l-1.1-3.2l-1.1-3.2l-1.2-3.1l-1.2-3l-1.3-3l-1.3-2.9l-1.3-2.8l-1.4-2.8l-1.4-2.7
	l-1.4-2.6l-1.4-2.5l-1.5-2.4l-1.5-2.3l-1.5-2.2l-1.5-2.1l-1.6-2l-1.6-1.9l-1.6-1.8l-1.6-1.7l-1.6-1.6l-1.6-1.5l-1.6-1.4l-1.6-1.3
	l-1.6-1.1l-1.6-1L151.6,98.3z"/>
<path d="M354.7,163.9c-0.1,0.1-0.2,0.4-0.4,0.8c-0.2,0.4-0.4,0.5-0.8,0.5c-0.1,0-0.3,0-0.5-0.1c-0.7-0.2-1.8-0.3-3.2-0.3
	c-0.2,0-0.4,0.1-0.4,0.2c-0.1,0.4-0.3,0.9-0.5,1.5c1.7,0.4,3,0.8,3.8,1.3c0.9,0.5,1.4,1.2,1.4,1.9c0,1.1-0.7,2-2.1,2.7
	c-1,0.5-2.4,0.9-4.4,1.2c-0.2,0-0.4,0-0.5-0.2c-0.1-0.2,0-0.3,0.3-0.4c2.9-0.7,4.3-1.6,4.3-2.9c0-0.7-0.4-1.3-1.1-1.8
	c-0.7-0.5-2-0.9-3.7-1.4c-0.2,0-0.2-0.1-0.2-0.2c0.1-0.7,0.3-1.4,0.4-2.2c0-0.2,0.3-0.3,0.8-0.3c1.2,0,2.5,0,3.8-0.1
	c0.9,0,1.5-0.1,1.7-0.3c0.3-0.2,0.6-0.3,0.9-0.3C354.7,163.6,354.8,163.7,354.7,163.9 M340.8,169.7v-3.8c-0.7,0.7-2.2,2-4.4,3.7
	L340.8,169.7z M345,170.3c-0.1,0.3-0.3,0.5-0.6,0.4c-0.2,0-0.6,0-1.1,0l-0.6,0c0,0.5,0,1.3,0.1,2.3c0,0.1-0.1,0.2-0.4,0.3
	c-0.2,0-0.4,0.1-0.7,0.1c-0.4,0.1-0.6,0.1-0.8,0.1c-0.1,0-0.2-0.1-0.2-0.2c0-0.3,0-0.8,0.1-1.5c0-0.6,0.1-1,0.1-1.2
	c-0.1,0-2.2-0.1-6.4-0.2c-0.1,0-0.2-0.1-0.2-0.2c0-0.1,0-0.2,0.1-0.3c4.1-3.1,6.5-5.1,7.2-6c0-0.1,0.2-0.1,0.3-0.1
	c0.2,0,0.4,0,0.8,0.1c0.2,0,0.3,0.2,0.2,0.5c-0.1,0.3-0.1,0.7-0.1,1.2v4.2c0.4,0,0.8,0,1.1-0.1c0.3,0,0.5-0.1,0.6-0.3
	c0.2-0.1,0.3-0.2,0.5-0.2c0.1,0,0.2,0.1,0.2,0.3C345.2,169.7,345.1,169.9,345,170.3z M330.4,167c0-1.5-0.9-2.2-2.7-2.2
	c-0.8,0-1.5,0.2-1.9,0.6c-0.5,0.4-0.7,0.9-0.7,1.6c0,1.6,0.8,2.4,2.5,2.4c0.9,0,1.5-0.2,2-0.7C330.2,168.4,330.4,167.8,330.4,167z
	 M332.4,167.4c0,1.5-0.8,2.8-2.4,4c-1.4,1.1-3.2,1.9-5.4,2.4c-0.1,0-0.2-0.1-0.4-0.3c0-0.1,0.2-0.3,0.8-0.5c1.1-0.4,2.1-0.9,3-1.5
	c0.9-0.6,1.5-1.2,1.8-1.9c-0.6,0.4-1.5,0.5-2.8,0.5c-1.1,0-2.1-0.2-2.8-0.7c-0.8-0.5-1.3-1.3-1.3-2.2c0-1,0.5-1.8,1.4-2.4
	c0.9-0.6,2-0.9,3.3-0.9c1.4,0,2.5,0.3,3.3,0.8C332,165.5,332.4,166.3,332.4,167.4z M320.8,170.4c0,0.2-0.1,0.2-0.3,0.3
	c-0.1,0-0.3,0-0.6,0c-1.1-0.1-2.3,0-3.6,0c-0.3,0-0.5,0-0.5,0c-0.1,0-0.1-0.1-0.1-0.3c0-0.1,0.2-0.2,0.6-0.3
	c0.5-0.1,0.8-0.4,0.8-0.9V166c0-0.3,0-0.6-0.1-0.7c-0.1-0.2-0.4-0.3-0.9-0.4c-0.3,0-0.5-0.1-0.5-0.1c-0.2-0.1-0.2-0.2-0.2-0.3
	c0.1-0.2,0.1-0.2,0.3-0.3c0,0,0.2,0,0.6,0c1.1,0.1,2.3,0,3.6,0c0.3,0,0.5,0,0.6,0c0.1,0,0.1,0.1,0.1,0.3c0,0.1-0.2,0.2-0.6,0.3
	c-0.6,0.1-1,0.4-1,0.9v3.3c0,0.3,0.1,0.6,0.2,0.7c0.2,0.2,0.5,0.3,0.9,0.4c0.3,0,0.5,0.1,0.5,0.1
	C320.8,170.2,320.8,170.3,320.8,170.4z M311,166.7c0-0.2-0.1-0.3-0.4-0.3c-0.4,0-1,0.2-1.7,0.6c-0.7,0.4-1.4,0.9-2.1,1.5
	c1.2-0.2,2.2-0.5,3-0.8C310.5,167.3,311,167,311,166.7z M312,168.2c0,0-0.1,0.1-0.2,0.2l-0.5,0.4c-1.7,1.4-3.2,2.1-4.4,2.1
	c-0.6,0-1.1-0.1-1.4-0.4c-0.4-0.3-0.6-0.6-0.6-1c0-1,1-1.8,3.1-2.6c1.1-0.4,2-0.6,2.6-0.6c0.3,0,0.5,0.1,0.8,0.2
	c0.2,0.1,0.3,0.3,0.3,0.4c0,0.4-0.4,0.7-1.2,1c-0.8,0.3-2.1,0.5-3.9,0.8c-0.6,0.6-0.8,1-0.8,1.4c0,0.5,0.4,0.7,1.1,0.7
	c1.3,0,2.9-0.8,4.8-2.5C311.8,168.2,311.9,168.1,312,168.2C312,168.1,312,168.1,312,168.2z M305.8,168.2c0,0.1-0.6,0.5-1.7,1.4
	c-1.3,0.9-2.3,1.4-3.2,1.4c-0.6,0-1.1-0.1-1.5-0.4c-0.4-0.3-0.6-0.6-0.6-1c0-0.5,0.3-0.9,0.8-1.4c0.6-0.5,1.3-0.9,2.2-1.3
	c0.8-0.3,1.4-0.5,1.9-0.5c0.6,0,0.9,0.2,0.9,0.7c0,0.4-0.2,0.7-0.6,1.1c-0.4,0.4-0.8,0.6-1.1,0.6c-0.4,0-0.6-0.1-0.6-0.4
	c0-0.3,0.4-0.5,1.1-0.8c0.6-0.2,0.9-0.4,0.9-0.7c0-0.2-0.2-0.4-0.6-0.4c-0.7,0-1.5,0.4-2.5,1.3c-1,0.9-1.5,1.6-1.5,2.2
	c0,0.5,0.4,0.8,1.1,0.8c1.1,0,2.7-0.8,4.6-2.5C305.6,168.2,305.7,168.1,305.8,168.2C305.8,168.1,305.8,168.1,305.8,168.2z
	 M299.7,168.2c0,0.1-0.6,0.6-1.8,1.6c-1,0.8-1.7,1.1-2.3,1.1c-0.4,0-0.7-0.1-0.9-0.3c-0.2-0.2-0.4-0.4-0.4-0.7
	c0-0.2,0.1-0.5,0.2-0.7c0.2-0.2,0.5-0.6,1.2-1.2c0.7-0.6,1-1.1,1-1.2c0-0.2-0.2-0.3-0.5-0.3c-1.2,0-3,1.5-5.5,4.4
	c-0.4,0-0.6,0-0.7,0c-0.3,0-0.6,0-0.8,0l1.9-2c1.1-1.1,1.6-1.9,1.6-2.1c0-0.2-0.1-0.2-0.3-0.2c-0.4,0-1.2,0.6-2.5,1.7
	c-0.1,0.1-0.1,0.1-0.2,0.1c0,0-0.1,0-0.1,0c0,0,0,0,0.1-0.1l0.2-0.2c1.3-1.1,2.1-1.7,2.5-1.7c0.3,0,0.5,0.1,0.7,0.3
	c0.2,0.2,0.3,0.4,0.3,0.6c0,0.3-0.3,0.8-0.9,1.4c1-0.9,1.7-1.5,2.2-1.8c0.5-0.3,1-0.5,1.4-0.5c0.4,0,0.7,0.1,0.9,0.3
	c0.2,0.2,0.4,0.4,0.4,0.7c0,0.4-0.4,0.9-1.1,1.7c-0.8,0.8-1.2,1.2-1.2,1.5c0,0.2,0.2,0.3,0.5,0.3c0.7,0,2-0.9,3.8-2.6
	C299.6,168.1,299.6,168.1,299.7,168.2C299.7,168.1,299.7,168.1,299.7,168.2z M289.8,168.2c0,0,0,0.1-0.1,0.1l-0.5,0.5
	c-1.5,1.4-2.7,2.1-3.5,2.1c-0.4,0-0.7-0.1-1-0.3c-0.3-0.2-0.4-0.4-0.4-0.7c0-0.3,0.3-0.8,0.8-1.4l1.9-2.1c0.3,0,0.5,0.1,0.6,0.1
	c0.2,0,0.5,0,0.9-0.1l-2.8,3c-0.4,0.4-0.6,0.8-0.6,1c0,0.2,0.2,0.4,0.6,0.4c0.7,0,2-0.9,3.8-2.6
	C289.7,168.1,289.7,168.1,289.8,168.2C289.8,168.1,289.8,168.1,289.8,168.2z M289.7,164.8c0,0.2-0.1,0.4-0.4,0.5
	c-0.2,0.2-0.5,0.2-0.8,0.2c-0.4,0-0.6-0.1-0.6-0.4c0-0.2,0.1-0.3,0.4-0.5c0.3-0.2,0.5-0.2,0.8-0.2
	C289.5,164.5,289.7,164.6,289.7,164.8z M282.2,163.2c0-0.6-0.3-1-0.8-1.4c-0.5-0.3-1.3-0.5-2.2-0.5c-2.2,0-4.3,0.8-6.4,2.3
	c-2.1,1.5-3.1,3.1-3.1,4.7c0,1.1,0.6,1.8,1.8,2.3c0.6-0.6,1.4-1.3,2.4-2c-0.5-0.3-0.8-0.7-0.8-1.1c0-0.3,0.2-0.6,0.5-0.8
	c0.3-0.2,0.7-0.3,1.1-0.3c0.5,0,0.8,0.2,0.8,0.5c0,0.2-0.1,0.3-0.3,0.4c-0.2,0.1-0.4,0.2-0.7,0.2c-0.4,0-0.6-0.1-0.6-0.4
	c0-0.1,0-0.2,0.1-0.3c0-0.1,0-0.1,0-0.1c0,0,0,0-0.1,0c-0.1,0-0.3,0.1-0.4,0.3c-0.1,0.2-0.2,0.4-0.2,0.6c0,0.4,0.3,0.7,0.8,1
	c1.6-1.1,4.2-2.5,7.8-4C282.1,163.9,282.2,163.5,282.2,163.2z M285.3,163.1c-1,0.4-2,0.9-3.1,1.4c-0.5,1.1-1.5,2.1-2.8,3
	c-1.4,0.9-2.7,1.3-3.9,1.3c-0.4,0-0.8-0.1-1.2-0.2c-0.9,0.6-1.7,1.3-2.4,2c0.7,0.2,1.4,0.3,2.3,0.3c1.5,0,3-0.3,4.5-0.9
	c1.4-0.6,2.7-1.4,3.7-2.4c0.5-0.5,0.9-0.9,1.1-1.3c0.3-0.4,0.7-1.2,1.4-2.3C284.9,163.7,285.1,163.4,285.3,163.1z M281.8,164.6
	L281,165c-3.1,1.4-5.3,2.6-6.7,3.5c0.3,0.1,0.7,0.2,1.1,0.2c1.1,0,2.3-0.4,3.6-1.2C280.3,166.7,281.2,165.7,281.8,164.6z
	 M290.3,160.1c0-0.1-0.1-0.2-0.3-0.2c-0.5,0-1.2,0.2-1.8,0.7c-0.7,0.5-1.2,1.1-1.6,1.8c1.1-0.4,2-0.9,2.7-1.3
	C290,160.7,290.3,160.4,290.3,160.1z M290.6,160.1c0,0.3-0.4,0.6-1.2,1.1c-0.8,0.5-1.8,1-2.9,1.4c-0.1,0.3-0.4,0.9-0.7,1.7
	c-0.5,1.3-0.9,2.2-1.3,2.7c-0.4,0.5-1,1.1-1.9,1.6c-2.6,1.6-5.4,2.4-8.6,2.4c-0.9,0-1.7-0.1-2.4-0.3c-0.4,0.5-0.6,0.9-0.6,1.3
	c0,0.5,0.2,0.9,0.7,1.3c0,0,0.1,0.1,0.1,0.1c0,0,0,0.1-0.1,0.1c-0.2,0-0.4-0.2-0.6-0.5c-0.2-0.3-0.3-0.6-0.3-0.9
	c0-0.4,0.2-0.9,0.6-1.4c-1.7-0.6-2.6-1.6-2.6-3c0-0.9,0.4-1.8,1.2-2.7c0.8-0.9,2-1.7,3.5-2.4c1.9-0.9,3.8-1.4,5.6-1.4
	c1,0,1.8,0.2,2.4,0.6c0.6,0.4,0.9,0.9,0.9,1.5c0,0.3-0.1,0.7-0.2,1.1c1.2-0.5,2.3-1,3.2-1.3c0.6-0.8,1.3-1.6,2.2-2.2
	c0.9-0.6,1.7-0.9,2.3-0.9C290.4,159.8,290.6,159.9,290.6,160.1z"/>
</svg>
