<?xml version="1.0" encoding="utf-8"?>
<!-- Generator: Adobe Illustrator 26.4.1, SVG Export Plug-In . SVG Version: 6.00 Build 0)  -->
<svg version="1.1" id="Ebene_1" xmlns="http://www.w3.org/2000/svg" xmlns:xlink="http://www.w3.org/1999/xlink" x="0px" y="0px"
	 viewBox="0 0 338.7 339" style="enable-background:new 0 0 338.7 339;" xml:space="preserve">
<g>
	<defs>
		<path id="SVGID_1_" d="M6.3,172.3c0-90.1,73-163.1,163.1-163.1c90.1,0,163.1,73,163.1,163.1c0,90.1-73,163.1-163.1,163.1
			C79.3,335.4,6.3,262.4,6.3,172.3z"/>
	</defs>
	<clipPath id="SVGID_00000096768290193429494820000007371115874489368230_">
		<use xlink:href="#SVGID_1_"  style="overflow:visible;"/>
	</clipPath>
	<g style="clip-path:url(#SVGID_00000096768290193429494820000007371115874489368230_);">
		<g>
			
				<ellipse transform="matrix(0.2283 -0.9736 0.9736 0.2283 -37.0529 297.8427)" style="fill:none;stroke:#000000;stroke-width:4;stroke-miterlimit:3.864;" cx="169.4" cy="172.3" rx="103.2" ry="103.2"/>
			<path style="fill:#BD1B21;" d="M279.3,172.3c0,59.5-50.4,109.9-109.9,109.9c-59.5,0-109.9-50.4-109.9-109.9
				c0-59.5,50.4-109.9,109.9-109.9C228.9,62.4,279.3,112.8,279.3,172.3 M324.8,172.3c0-85.8-69.6-155.4-155.4-155.4
				S14,86.5,14,172.3c0,85.8,69.6,155.4,155.4,155.4S324.8,258.1,324.8,172.3"/>
		</g>
		<polygon style="fill:#FFFFFF;" points="27.6,346.4 173.9,375.9 372,323.7 372,178 169.4,172.3 -33.3,178 		"/>
		<g>
			<path style="fill:#BD1B21;" d="M249.4,104.1c-3.2-3.8-6.7-7.3-10.5-10.6l-8.8,1.8l-35.4,31.1l38-7.8L249.4,104.1z M141.1,87.4
				l-38.5,7.8l-20,17.6c-2.6,3.8-4.9,7.7-7,11.8l29.6-6.1L141.1,87.4z M145.1,95.2l-35.4,31.1l38-7.8l35.9-31.1L145.1,95.2z
				 M187.7,95.2l-35.4,31.1l38-7.8l35.9-31.1L187.7,95.2z M190.2,161.7l35.9-31.1l-38.5,7.8l-35.4,31.1L190.2,161.7z M147.7,161.7
				l35.9-31.1l-38.5,7.8l-35.4,31.1L147.7,161.7z M105.2,161.7l35.9-31.1l-38.5,7.8l-35.4,31.1L105.2,161.7z M67.7,199.2l30.9-26.8
				l-34.2,6.9C64.9,186.2,66,192.8,67.7,199.2 M70.5,136.3c-2.7,7.5-4.6,15.3-5.5,23.4l33.7-29.1L70.5,136.3z M158.1,67.7
				c-16.8,1.8-32.5,7.6-46,16.3l35.6-7.4L158.1,67.7z M197.1,70.8c-8-2.2-16.4-3.4-25-3.6l-19.8,17.4l38-7.8L197.1,70.8z M219,79.5
				c-3.9-2.1-8-4-12.2-5.6l-12,10.6L219,79.5z M261.4,121.4c-2-3.6-4.2-7.1-6.6-10.4l-17.5,15.4L261.4,121.4z M232.8,161.7
				l33.9-29.4c-0.2-0.4-0.3-0.8-0.5-1.2l-36,7.3l-35.4,31.1L232.8,161.7z M274.1,162c-0.7-7.2-2.1-14.3-4.2-21l-32.5,28.6L274.1,162
				z M232.8,203.5l35.9-31.1l-38.5,7.8l-35.4,31.1L232.8,203.5z M190.2,203.5l35.9-31.1l-38.5,7.8l-35.4,31.1L190.2,203.5z
				 M147.7,203.5l35.9-31.1l-38.5,7.8l-35.4,31.1L147.7,203.5z M105.2,203.5l35.9-31.1l-38.5,7.8l-32.1,28.2
				c0.3,0.7,0.5,1.4,0.8,2.1L105.2,203.5z M269.4,204.7c2.6-7.9,4.2-16.2,4.8-24.8l-1.6,0.3l-35.4,31.1L269.4,204.7z M232.8,246.8
				l29.9-25.9c0.8-1.5,1.5-2.9,2.2-4.4l-34.7,7l-35.4,31.1L232.8,246.8z M190.2,246.8l35.9-31.1l-38.5,7.8l-35.4,31.1L190.2,246.8z
				 M147.7,246.8l35.9-31.1l-38.5,7.8l-35.4,31.1L147.7,246.8z M96.9,248.5l8.4-1.7l35.9-31.1l-38.5,7.8l-15.9,13.9
				C89.9,241.3,93.2,245,96.9,248.5 M75.8,220.3c1.8,3.5,3.7,6.8,5.9,10.1l17-14.7L75.8,220.3z M173.9,277.4
				c14.7-0.6,28.7-4.3,41.2-10.3l11-9.5l-38.5,7.8L173.9,277.4z M137,272.4c7.6,2.5,15.6,4.1,23.9,4.7l22.7-19.6l-38.5,7.8
				L137,272.4z M115.5,262.7c4,2.4,8.1,4.5,12.3,6.3l13.3-11.5L115.5,262.7z"/>
			
				<ellipse transform="matrix(0.2283 -0.9736 0.9736 0.2283 -37.0529 297.8427)" style="fill:none;stroke:#000000;stroke-width:4;stroke-miterlimit:3.864;" cx="169.4" cy="172.3" rx="103.2" ry="103.2"/>
			<path style="fill:none;stroke:#000000;stroke-width:4;stroke-miterlimit:3.864;" d="M6.3,172.3c0-90.1,73-163.1,163.1-163.1
				c90.1,0,163.1,73,163.1,163.1c0,90.1-73,163.1-163.1,163.1C79.3,335.4,6.3,262.4,6.3,172.3z"/>
		</g>
		<text transform="matrix(0.1163 0.9932 -0.9932 0.1163 24.8181 186.0803)" style="font-family:'MyriadPro-Bold'; font-size:45px;"> </text>
		<text transform="matrix(0.2366 0.9716 -0.9716 0.2366 24.9786 193.5419)" style="font-family:'MyriadPro-Bold'; font-size:45px;">B</text>
		<text transform="matrix(0.4413 0.8974 -0.8974 0.4413 32.0563 223.1385)" style="font-family:'MyriadPro-Bold'; font-size:45px;">O</text>
		<text transform="matrix(0.6236 0.7817 -0.7817 0.6236 48.289 254.696)" style="font-family:'MyriadPro-Bold'; font-size:45px;">L</text>
		<text transform="matrix(0.7617 0.6479 -0.6479 0.7617 64.432 275.2937)" style="font-family:'MyriadPro-Bold'; font-size:45px;">Z</text>
		<text transform="matrix(0.8789 0.477 -0.477 0.8789 86.6202 294.3615)" style="font-family:'MyriadPro-Bold'; font-size:45px;">A</text>
		<text transform="matrix(0.9664 0.257 -0.257 0.9664 115.5391 309.9029)" style="font-family:'MyriadPro-Bold'; font-size:45px;">N</text>
		
			<text transform="matrix(0.9998 1.900000e-02 -1.900000e-02 0.9998 148.797 318.6415)" style="font-family:'MyriadPro-Bold'; font-size:45px;">O</text>
		
			<text transform="matrix(0.9911 -0.1329 0.1329 0.9911 183.6649 318.3535)" style="font-family:'MyriadPro-Bold'; font-size:45px;"> </text>
		
			<text transform="matrix(0.9755 -0.2202 0.2202 0.9755 194.9657 316.8904)" style="font-family:'MyriadPro-Bold'; font-size:45px;"> </text>
		<text transform="matrix(0.956 -0.2934 0.2934 0.956 206.0634 314.4164)" style="font-family:'MyriadPro-Bold'; font-size:45px;"> </text>
		
			<text transform="matrix(0.9312 -0.3644 0.3644 0.9312 216.8596 310.9655)" style="font-family:'MyriadPro-Bold'; font-size:45px;"> </text>
		
			<text transform="matrix(0.8669 -0.4985 0.4985 0.8669 228.1659 307.2077)" style="font-family:'MyriadPro-Bold'; font-size:45px;">B</text>
		
			<text transform="matrix(0.7295 -0.6839 0.6839 0.7295 254.6466 292.1557)" style="font-family:'MyriadPro-Bold'; font-size:45px;">O</text>
		<text transform="matrix(0.5558 -0.8313 0.8313 0.5558 280.2758 267.649)" style="font-family:'MyriadPro-Bold'; font-size:45px;">Z</text>
		
			<text transform="matrix(0.3864 -0.9223 0.9223 0.3864 296.5059 243.3927)" style="font-family:'MyriadPro-Bold'; font-size:45px;">E</text>
		
			<text transform="matrix(0.2008 -0.9796 0.9796 0.2008 307.3457 218.2284)" style="font-family:'MyriadPro-Bold'; font-size:45px;">N</text>
		
			<text transform="matrix(0.3551 -0.9342 0.9218 0.3878 57.5211 145.3356)" style="fill:#FFFFFF; font-family:'MyriadPro-Black'; font-size:54.0329px;">F</text>
		
			<text transform="matrix(0.5694 -0.8213 0.8015 0.5981 66.6628 120.5686)" style="fill:#FFFFFF; font-family:'MyriadPro-Black'; font-size:54.0329px;">C</text>
		
			<text transform="matrix(0.6982 -0.7151 0.6907 0.7232 84.731 96.1656)" style="fill:#FFFFFF; font-family:'MyriadPro-Black'; font-size:54.0329px;"> </text>
		
			<text transform="matrix(0.8074 -0.5889 0.5607 0.828 90.2008 89.4963)" style="fill:#FFFFFF; font-family:'MyriadPro-Black'; font-size:54.0329px;">S</text>
		
			<text transform="matrix(0.9342 -0.3551 0.3225 0.9466 112.3672 72.5558)" style="fill:#FFFFFF; font-family:'MyriadPro-Black'; font-size:54.0329px;">U</text>
		
			<text transform="matrix(0.9987 -3.794684e-02 3.070000e-03 1 145.981 59.8985)" style="fill:#FFFFFF; font-family:'MyriadPro-Black'; font-size:54.033px;">D</text>
		
			<text transform="matrix(0.9709 0.2369 -0.203 0.9792 181.6704 58.8921)" style="fill:#FFFFFF; font-family:'MyriadPro-Black'; font-size:54.0329px;">T</text>
		
			<text transform="matrix(0.9156 0.4005 -0.3686 0.9296 208.8531 66.0556)" style="fill:#FFFFFF; font-family:'MyriadPro-Black'; font-size:54.0329px;">I</text>
		
			<text transform="matrix(0.8074 0.5889 -0.5607 0.828 222.6124 71.1648)" style="fill:#FFFFFF; font-family:'MyriadPro-Black'; font-size:54.0329px;">R</text>
		
			<text transform="matrix(0.6081 0.7931 -0.7719 0.6358 248.0784 89.0031)" style="fill:#FFFFFF; font-family:'MyriadPro-Black'; font-size:54.0329px;">O</text>
		
			<text transform="matrix(0.3553 0.9346 -0.9284 0.3716 270.4269 119.1807)" style="fill:#FFFFFF; font-family:'MyriadPro-Black'; font-size:54.0082px;">L</text>
		<line style="fill:none;stroke:#BD1B21;stroke-width:5;" x1="102.1" y1="48.4" x2="137.4" y2="35"/>
		<g>
			<path d="M168.9,122.2c14.1,0,26.8,5.7,36.1,14.9c9.2,9.2,14.9,22,14.9,36.1c0,14.1-5.7,26.8-14.9,36.1c-9.2,9.2-22,15-36.1,15
				c-14.1,0-26.8-5.7-36.1-15c-9.2-9.2-15-22-15-36.1c0-14.1,5.7-26.8,15-36.1C142.1,127.9,154.8,122.2,168.9,122.2"/>
			<path style="fill:#FFFFFF;" d="M203.7,138.5c-8.9-8.9-21.2-14.4-34.8-14.4c-13.6,0-25.9,5.5-34.8,14.4
				c-8.9,8.9-14.4,21.2-14.4,34.8c0,13.6,5.5,25.9,14.4,34.8s21.2,14.4,34.8,14.4c13.6,0,25.9-5.5,34.8-14.4
				c8.9-8.9,14.4-21.2,14.4-34.8C218.1,159.7,212.6,147.4,203.7,138.5"/>
			<path d="M152.7,201.6c-3.4-5.8-6.8-11.7-10.3-17.5c3.6-5.9,7.1-11.8,10.7-17.7c6.5,0.3,13,0.6,19.5,0.8c3.9,5.7,7.9,11.3,11.8,17
				c-3.6,5.8-7.2,11.5-10.8,17.3C166.6,201.5,159.7,201.6,152.7,201.6 M145.8,210.7c2.3-2.7,4.5-5.4,6.8-8.1
				c6.9-0.1,13.8-0.1,20.6-0.2c3.9,3.3,7.9,6.6,11.9,9.8c-2.9,3-5.8,6-8.6,9c-6.6-0.3-13.2-0.5-19.7-0.8
				C153.1,217.1,149.4,213.9,145.8,210.7 M131.4,147.7c4.5,0.1,8.9,0.1,13.4,0.2c2.5,6,5,12,7.5,17.9c-3.6,5.9-7.1,11.7-10.6,17.6
				c-4.7-0.3-9.3-0.6-14-0.9c-2.1-5.7-4.1-11.3-6.2-16.9C124.8,159.7,128.1,153.7,131.4,147.7 M210.5,165
				c-2.8,6.1-5.7,12.2-8.5,18.2c-5.7,0.1-11.3,0.1-17,0.2c-3.8-5.5-7.7-11-11.5-16.6c2.7-6.4,5.3-12.8,8-19.2c5.8,0,11.7,0,17.5,0
				v0.1C202.8,153.5,206.6,159.3,210.5,165 M127.1,183.5c0.9,5.2,1.8,10.5,2.7,15.7c-0.7,0.4-1.3,0.8-2,1.2c0.2,0.3,0.3,0.5,0.5,0.8
				c0.7-0.4,1.4-0.8,2.1-1.3c5,3.8,9.9,7.7,14.9,11.5v0c3.7,3.3,7.4,6.5,11,9.8c0,0,0.1,0.1,0.1,0.1h0.2c6.6,1.5,13.3,1.8,20.1,0.8
				c0.1,0,0.1,0,0.2,0c0-0.1,0.1-0.1,0.1-0.1c3.2-3.4,6.4-6.7,9.7-10.1h0c6-4,12-8,18-12c1.3,0.5,3.9,1.6,5.2,2.1
				c0.1-0.3,0.2-0.6,0.3-0.8c-1.4-0.6-4-1.6-5.3-2.2c-0.7-5-1.4-10-2.1-15.1c2.9-6.2,5.8-12.5,8.7-18.7c2.1,0,4.5,0,6.4,0
				c-2-12.3-9-22.8-18.8-31.4c0,4.2,0,8.8,0,13c-5.8,0-11.6,0-17.4,0c-5.6-3.6-11.2-7.3-16.9-10.9c0.5-3.1,1.1-6.1,1.6-9.2
				c2.6-1,5.2-2,7.7-3c-4.8-0.4-9.6-0.2-14.2,0.7c1.9,0.7,3.7,1.4,5.6,2.1c-0.5,3.1-1.1,6.2-1.6,9.3c-6.1,3.7-12.3,7.5-18.4,11.2
				c-4.6-0.1-9.2-0.1-13.8-0.2c-0.3-1.9-0.5-3.8-0.8-5.7c-5.3,6.6-9.2,14.7-11.4,24.8c0.5,0.1,1,0.2,1.5,0.3
				C122.9,172.1,125,177.8,127.1,183.5"/>
			<path d="M200.5,308.2c3.3,0,6-2.7,6-6c0-3.3-2.7-6-6-6c-3.3,0-6,2.7-6,6C194.6,305.6,197.3,308.2,200.5,308.2"/>
		</g>
	</g>
</g>
</svg>
