<?xml version="1.0" encoding="utf-8"?>
<!-- Generator: Adobe Illustrator 26.0.0, SVG Export Plug-In . SVG Version: 6.00 Build 0)  -->
<svg version="1.1"
	 id="svg2" xmlns:cc="http://creativecommons.org/ns#" xmlns:dc="http://purl.org/dc/elements/1.1/" xmlns:inkscape="http://www.inkscape.org/namespaces/inkscape" xmlns:rdf="http://www.w3.org/1999/02/22-rdf-syntax-ns#" xmlns:sodipodi="http://sodipodi.sourceforge.net/DTD/sodipodi-0.dtd" xmlns:svg="http://www.w3.org/2000/svg"
	 xmlns="http://www.w3.org/2000/svg" xmlns:xlink="http://www.w3.org/1999/xlink" x="0px" y="0px" viewBox="0 0 772 236"
	 style="enable-background:new 0 0 772 236;" xml:space="preserve">
<style type="text/css">
	.st0{clip-path:url(#SVGID_00000011002055238008678930000015292281883164175774_);}
	.st1{fill:#FED500;}
	.st2{fill:#1A1A18;}
</style>
<sodipodi:namedview  bordercolor="#666666" borderopacity="1" gridtolerance="10" guidetolerance="10" id="namedview4" inkscape:pageopacity="0" inkscape:pageshadow="2" inkscape:window-height="480" inkscape:window-width="640" objecttolerance="10" pagecolor="#ffffff">
	</sodipodi:namedview>
<g id="g10" transform="matrix(1.3333333,0,0,-1.3333333,0,447.59867)" inkscape:groupmode="layer" inkscape:label="Globus">
	<g id="g12">
		<g>
			<defs>
				<rect id="SVGID_1_" x="-268.24" y="30.97" width="1107.93" height="447.6"/>
			</defs>
			<clipPath id="SVGID_00000181049099359651775440000000027256490648992436_">
				<use xlink:href="#SVGID_1_"  style="overflow:visible;"/>
			</clipPath>
			<g id="g14" style="clip-path:url(#SVGID_00000181049099359651775440000000027256490648992436_);">
				<g id="g20" transform="translate(701.4096,222.1644)">
					<path id="path22" class="st1" d="M-129.75,86.92c0-13.87-11.25-25.12-25.12-25.12c-13.87,0-25.12,11.25-25.12,25.12
						s11.25,25.12,25.12,25.12C-141,112.04-129.75,100.79-129.75,86.92"/>
				</g>
				<g id="g24" transform="translate(199.3126,160.0045)">
					<path id="path26" class="st2" d="M-129.75,86.92c0,13.39-9.16,21.85-20.44,21.85c-11.63,0-20.79-8.46-20.79-21.85
						c0-13.57,8.63-22.02,20.79-22.02C-138.21,64.89-129.75,73.53-129.75,86.92 M-173.44,41.82c1.59-9.52,9.16-16.38,20.26-16.38
						c14.8,0,23.08,7.4,23.08,24.14v6.34c-3.52-5.64-11.63-11.1-24.14-11.1c-23.08,0-40.34,17.79-40.34,42.11
						c0,22.9,16.56,42.28,40.34,42.28c13.74,0,21.67-5.99,24.66-11.81v10.22h22.55V50.27c0-23.79-12.86-45.45-45.45-45.45
						c-23.78,0-39.64,14.8-42.1,31.36L-173.44,41.82z"/>
				</g>
				<path id="path28" class="st2" d="M111.66,328.49h23.43V200.94h-23.43L111.66,328.49z"/>
				<g id="g30" transform="translate(346.4106,157.3599)">
					<path id="path32" class="st2" d="M-129.75,86.92c0,16.39-10.57,24.67-22.02,24.67c-11.45,0-22.02-8.28-22.02-24.67
						c0-16.21,10.57-24.66,22.02-24.66C-140.32,62.25-129.75,70.53-129.75,86.92 M-106.32,86.92c0-26.6-19.56-45.98-45.45-45.98
						s-45.45,19.38-45.45,45.98c0,26.78,19.56,45.98,45.45,45.98S-106.32,113.7-106.32,86.92"/>
				</g>
				<g id="g34" transform="translate(428.3263,182.0272)">
					<path id="path36" class="st2" d="M-129.75,86.92c-11.8,0-21.67-8.63-21.67-24.49c0-15.68,9.87-24.66,21.67-24.66
						c11.98,0,21.49,8.81,21.49,24.66S-117.77,86.92-129.75,86.92 M-174.15,18.91v127.55h23.08V96.08
						c3.88,6.17,13.39,11.81,26.25,11.81c25.37,0,39.99-19.56,39.99-45.28c0-26.25-16.21-45.8-40.87-45.8
						c-11.98,0-21.14,5.29-25.72,12.68V18.91L-174.15,18.91z"/>
				</g>
				<g id="g38" transform="translate(543.0122,123.3618)">
					<path id="path40" class="st2" d="M-129.75,86.92c-4.76-8.11-14.8-11.63-23.96-11.63c-20.96,0-32.94,15.33-32.94,34.18v54.79
						h23.43v-50.04c0-9.69,4.93-17.44,15.86-17.44c10.39,0,16.38,7.05,16.38,17.09v50.39h23.43v-71c0-6.69,0.53-12.68,0.88-15.68
						h-22.37C-129.4,79.34-129.75,83.39-129.75,86.92"/>
				</g>
				<g id="g42" transform="translate(598.5036,142.5627)">
					<path id="path44" class="st2" d="M-129.75,86.92c0.53-6.87,5.64-13.21,15.86-13.21c7.75,0,11.45,4.05,11.45,8.63
						c0,3.88-2.64,7.05-9.34,8.46l-11.45,2.64c-16.74,3.7-24.31,13.74-24.31,25.9c0,15.5,13.74,28.36,32.42,28.36
						c24.66,0,32.94-15.68,34-25.02l-19.56-4.4c-0.71,5.11-4.41,11.63-14.27,11.63c-6.17,0-11.1-3.7-11.1-8.64
						c0-4.23,3.17-6.87,7.93-7.75l12.33-2.64c17.09-3.52,25.72-13.92,25.72-26.6c0-14.1-10.92-28.54-33.65-28.54
						c-26.07,0-35.06,16.91-36.12,26.78L-129.75,86.92z"/>
				</g>
			</g>
		</g>
	</g>
</g>
</svg>
