<?xml version="1.0" encoding="utf-8"?>
<!-- Generator: Adobe Illustrator 26.0.0, SVG Export Plug-In . SVG Version: 6.00 Build 0)  -->
<svg version="1.1"
	 id="svg2" xmlns:cc="http://creativecommons.org/ns#" xmlns:dc="http://purl.org/dc/elements/1.1/" xmlns:inkscape="http://www.inkscape.org/namespaces/inkscape" xmlns:rdf="http://www.w3.org/1999/02/22-rdf-syntax-ns#" xmlns:sodipodi="http://sodipodi.sourceforge.net/DTD/sodipodi-0.dtd" xmlns:svg="http://www.w3.org/2000/svg"
	 xmlns="http://www.w3.org/2000/svg" xmlns:xlink="http://www.w3.org/1999/xlink" x="0px" y="0px" viewBox="0 0 638.34 251.38"
	 style="enable-background:new 0 0 638.34 251.38;" xml:space="preserve">
<style type="text/css">
	.st0{clip-path:url(#SVGID_00000083064221975430715210000010743098848117693608_);}
	.st1{fill:#1A1A18;}
	.st2{fill:#B60A06;}
	.st3{fill:#CFD0D0;}
	.st4{fill:#76B828;}
	.st5{fill:#0068B4;}
	.st6{fill:#00854B;}
</style>
<sodipodi:namedview  bordercolor="#666666" borderopacity="1" gridtolerance="10" guidetolerance="10" id="namedview4" inkscape:pageopacity="0" inkscape:pageshadow="2" inkscape:window-height="480" inkscape:window-width="640" objecttolerance="10" pagecolor="#ffffff">
	</sodipodi:namedview>
<g id="g10" transform="matrix(1.3333333,0,0,-1.3333333,0,377.95333)" inkscape:groupmode="layer" inkscape:label="Gutweniger">
	<g id="g12">
		<g>
			<defs>
				<rect id="SVGID_1_" x="-103.37" y="1.43" width="680.31" height="377.95"/>
			</defs>
			<clipPath id="SVGID_00000133502775462272828200000001525436192522077569_">
				<use xlink:href="#SVGID_1_"  style="overflow:visible;"/>
			</clipPath>
			<g id="g14" style="clip-path:url(#SVGID_00000133502775462272828200000001525436192522077569_);">
				<g id="g20" transform="translate(176.7552,182.3381)">
					<path id="path22" class="st1" d="M-18.33,48.67l-0.17-8.3c-10.25,0.49-18.43-1.96-18.92-10.38
						c-0.24-8.54,7.34-17.9,16.73-20.36C-11.28,6.84-0.11,8.75,7.53,15c7.8,6.09,11.92,16.5,9.47,25.89
						c-1.24,8.44-6.94,16.29-15.5,20.07c-8.48,4-18.63,4.29-28.32,2.99c9.7,2.64,20.39,4,30.72,0.55
						c10.28-3.28,19.14-12.48,21.55-23.77c2.39-12.76-3.84-26.02-14.04-33.19C1.24,0.18-12.18-1.92-24.14,2.06
						c-11.86,4.01-22.16,14.9-21.5,29.29c0.8,7.46,6.85,13.17,12.77,15.47C-26.83,49.2-24.22,48.78-18.33,48.67"/>
				</g>
				<g id="g24" transform="translate(184.6732,192.3791)">
					<path id="path26" class="st1" d="M-18.33,48.67l-2.25-8c-4.6,1.09-9.91,1.24-14.68-0.18c-2.63,0.88-5.4,1.61-8.24,2.2
						c1.98,2.03,4.08,3.98,6.37,5.85C-31,50.25-24.68,50.2-18.33,48.67"/>
				</g>
				<g id="g28" transform="translate(200.2403,173.8707)">
					<path id="path30" class="st1" d="M-18.33,48.67c-0.68,2.03-2.88,3.13-4.92,2.45c-2.03-0.68-3.13-2.88-2.45-4.91
						c0.68-2.04,2.88-3.13,4.92-2.45C-18.75,44.44-17.65,46.64-18.33,48.67"/>
				</g>
				<g id="g32" transform="translate(186.5484,165.0669)">
					<path id="path34" class="st1" d="M-18.33,48.67c-0.68,2.03-2.88,3.13-4.92,2.45c-2.03-0.68-3.13-2.88-2.45-4.92
						c0.68-2.03,2.88-3.13,4.92-2.45S-17.65,46.63-18.33,48.67"/>
				</g>
				<g id="g36" transform="translate(200.6022,162.7759)">
					<path id="path38" class="st1" d="M-18.33,48.67c-1.2,1.96-4.77,1.96-7.98,0c-3.2-1.96-4.82-5.15-3.61-7.11
						c1.2-1.96,4.77-1.96,7.98,0C-18.74,43.52-17.12,46.71-18.33,48.67"/>
				</g>
				<g id="g40" transform="translate(211.2346,185.0257)">
					<path id="path42" class="st1" d="M-18.33,48.67l-2.59,7.89c3.44,1.23,7.28,3.41,9.32,5.89c2.05,2.53,2.14,4.68,0.44,7.78
						c-1.74,2.85-5.03,6.44-7.71,7.63c-2.39,1.49-6.98,1-9.91,0.23c-5.32-0.14-10.32-8.39-12.39-15.68
						c-0.2,4.12,0.1,8.29,1.33,12.52c1.21,4.04,3.7,8.99,9.18,11.2c5.07,1.29,10.61,1.69,16.04-1.14C-9.54,82-6.69,78.65-3.74,73.93
						c3.18-4.57,2.56-12.96-1.64-16.98C-9.2,52.71-13.47,50.49-18.33,48.67"/>
				</g>
				<g id="g44" transform="translate(197.8968,199.1951)">
					<path id="path46" class="st1" d="M-18.33,48.67c0,0,0,0.01,0.01,0.04c0.19,0.68,3.01,10.37,9.61,5.69
						c6.85-4.86-1.71-10.53-1.71-10.53L-18.33,48.67z"/>
				</g>
				<g id="g48" transform="translate(152.3831,164.962)">
					<path id="path50" class="st1" d="M-18.33,48.67l1.28-8.2c-5.23-0.59-10.11-0.56-15.52,1.58c-2.62,1.12-5.38,3.08-7,5.97
						c-1.71,2.85-2.05,6.03-1.94,8.78c0.6,5.52,1.6,9.92,5.08,14.9c1.7,2.39,4.22,4.18,6.61,5.37c2.66,1.19,4.29,1.96,7.74,2.53
						c5.69-0.22,9.59-3.47,12.25-6.58c2.69-3.23,4.65-6.76,6.07-10.39c-4.93,5.76-13.14,11.1-17.82,8.65
						c-3.41-0.78-6.99-2.45-8.5-4.91c-1.73-2.4-2.97-7.06-3.15-10.26c-0.05-3.41,1.06-5.2,4.05-6.49
						C-26.24,48.4-21.9,48.22-18.33,48.67"/>
				</g>
				<g id="g52" transform="translate(159.0908,175.4501)">
					<path id="path54" class="st1" d="M-18.33,48.67c0,0-0.01,0.01-0.02,0.03c-0.48,0.53-7.4,7.87-11.15,0.69
						c-3.88-7.44,6.33-8.59,6.33-8.59L-18.33,48.67z"/>
				</g>
				<g id="g56" transform="translate(279.3553,181.8907)">
					<path id="path58" class="st1" d="M-18.33,48.67l-3.46,10.22c7.96,2.66,16.55,4.53,25.72,3.77c8.97-0.63,19.56-6.03,23.31-15.87
						c6.35-19-3.15-38.09-17.86-48.08c-14.75-9.9-33.98-12.46-50.64-5.98c-16.59,6.12-29.94,22.18-30.88,40.56
						c-0.17,15.57,8.15,30.45,20.42,38.2c12.11,8.14,26.37,10.56,39.99,10.93c-13.89-2.17-27.82-6.72-37.71-15.93
						c-9.9-9.04-14.33-22.58-11.7-34.86C-59.52,18.15-48.98,6.39-35.7,2.17C-22.58-2.29-6.92,0.12,4.21,8.32
						c5.6,4.04,9.93,9.63,12.3,15.91c2.21,6.08,2.89,13.92,0.6,18.88c-2.35,5.23-7.91,8.26-14.54,8.85
						C-4.11,52.43-11.34,51.05-18.33,48.67"/>
				</g>
				<g id="g60" transform="translate(265.5281,191.7903)">
					<path id="path62" class="st1" d="M-18.33,48.67l-5.4,9.35c9.66,5.24,21.39,9.44,33.06,9.24c4.78-1.89,11.84-3.99,16.14-6.37
						c-4.75-1.18-15.68-0.12-20.23-1.42C-8.06,55.68-9.83,53.19-18.33,48.67"/>
				</g>
				<g id="g64" transform="translate(254.9604,171.799)">
					<path id="path66" class="st1" d="M-18.33,48.67c0.05,2.81,2.37,5.05,5.19,5.01c2.82-0.04,5.06-2.37,5.01-5.19
						c-0.05-2.81-2.37-5.06-5.19-5.01C-16.14,43.53-18.38,45.85-18.33,48.67"/>
				</g>
				<g id="g68" transform="translate(273.2493,166.4272)">
					<path id="path70" class="st1" d="M-18.33,48.67c0.05,2.82,2.37,5.06,5.19,5.01c2.81-0.05,5.05-2.37,5.01-5.19
						c-0.05-2.81-2.37-5.05-5.19-5.01C-16.14,43.54-18.38,45.86-18.33,48.67"/>
				</g>
				<g id="g72" transform="translate(252.0853,156.4615)">
					<path id="path74" class="st1" d="M-18.33,48.67c0,0,3.01-16.25,20.7-17.06c15.8-0.73,33.95,21.91,33.95,21.91
						S14.99,41.76,2.97,42.36C-9.04,42.94-18.33,48.67-18.33,48.67"/>
				</g>
				<g id="g76" transform="translate(174.9328,184.6801)">
					<path id="path78" class="st2" d="M-18.33,48.67l-0.17-8.3c-10.25,0.47-18.43-1.97-18.92-10.38
						c-0.24-8.55,7.34-17.91,16.73-20.37C-11.28,6.83-0.11,8.75,7.53,15c7.8,6.09,11.92,16.5,9.47,25.9
						c-1.24,8.43-6.94,16.28-15.5,20.06c-8.48,4-18.63,4.3-28.32,3c9.7,2.64,20.39,3.99,30.72,0.55
						c10.28-3.28,19.14-12.48,21.55-23.77c2.39-12.76-3.84-26.02-14.04-33.19C1.24,0.18-12.18-1.92-24.14,2.06
						c-11.86,4.01-22.16,14.9-21.5,29.28c0.8,7.46,6.85,13.17,12.77,15.47C-26.83,49.19-24.22,48.77-18.33,48.67"/>
				</g>
				<g id="g80" transform="translate(182.8462,194.718)">
					<path id="path82" class="st2" d="M-18.33,48.67l-2.25-8c-4.6,1.09-9.91,1.24-14.68-0.18c-2.63,0.88-5.4,1.61-8.24,2.2
						c1.98,2.03,4.08,3.98,6.37,5.85C-31,50.25-24.68,50.2-18.33,48.67"/>
				</g>
				<g id="g84" transform="translate(198.4133,176.2068)">
					<path id="path86" class="st2" d="M-18.33,48.67c-0.68,2.03-2.88,3.13-4.92,2.45c-2.03-0.68-3.13-2.88-2.44-4.91
						c0.68-2.03,2.88-3.13,4.91-2.45C-18.74,44.44-17.65,46.64-18.33,48.67"/>
				</g>
				<g id="g88" transform="translate(184.7226,167.4061)">
					<path id="path90" class="st2" d="M-18.33,48.67c-0.68,2.03-2.88,3.13-4.92,2.45c-2.03-0.68-3.13-2.88-2.44-4.92
						c0.68-2.03,2.88-3.13,4.92-2.45C-18.75,44.44-17.65,46.64-18.33,48.67"/>
				</g>
				<g id="g92" transform="translate(198.7768,165.1152)">
					<path id="path94" class="st2" d="M-18.33,48.67c-1.21,1.96-4.78,1.96-7.97,0c-3.2-1.96-4.82-5.15-3.61-7.11
						c1.21-1.96,4.78-1.96,7.98,0C-18.74,43.52-17.13,46.71-18.33,48.67"/>
				</g>
				<g id="g96" transform="translate(209.4091,187.3646)">
					<path id="path98" class="st2" d="M-18.33,48.67l-2.59,7.89c3.44,1.24,7.28,3.42,9.33,5.88c2.05,2.53,2.14,4.69,0.44,7.78
						c-1.74,2.85-5.03,6.44-7.71,7.63c-2.39,1.5-6.98,1-9.91,0.22c-5.32-0.13-10.32-8.38-12.38-15.67c-0.2,4.12,0.1,8.28,1.32,12.51
						c1.21,4.05,3.71,8.99,9.18,11.21c5.07,1.29,10.61,1.69,16.04-1.14C-9.53,82-6.69,78.65-3.74,73.93
						c3.18-4.57,2.56-12.97-1.64-16.98C-9.21,52.71-13.47,50.5-18.33,48.67"/>
				</g>
				<g id="g100" transform="translate(196.0714,201.534)">
					<path id="path102" class="st2" d="M-18.33,48.67c0,0,0,0.01,0.01,0.04c0.19,0.69,3.01,10.38,9.62,5.69
						c6.85-4.85-1.72-10.53-1.72-10.53L-18.33,48.67z"/>
				</g>
				<g id="g104" transform="translate(150.5588,167.3041)">
					<path id="path106" class="st2" d="M-18.33,48.67l1.28-8.2c-5.23-0.59-10.11-0.56-15.52,1.57c-2.61,1.12-5.38,3.08-7.01,5.98
						c-1.7,2.84-2.05,6.03-1.93,8.77c0.59,5.52,1.6,9.92,5.08,14.9c1.7,2.39,4.21,4.19,6.61,5.37c2.66,1.2,4.3,1.97,7.74,2.53
						c5.69-0.22,9.59-3.47,12.25-6.57c2.69-3.22,4.65-6.76,6.07-10.39c-4.93,5.76-13.15,11.1-17.82,8.65
						c-3.41-0.78-6.99-2.45-8.5-4.91c-1.73-2.4-2.97-7.06-3.15-10.25c-0.05-3.42,1.06-5.2,4.06-6.49
						C-26.24,48.4-21.9,48.21-18.33,48.67"/>
				</g>
				<g id="g108" transform="translate(157.2684,177.7922)">
					<path id="path110" class="st2" d="M-18.33,48.67c0,0-0.01,0.01-0.03,0.03c-0.48,0.53-7.4,7.87-11.15,0.69
						c-3.89-7.44,6.32-8.59,6.32-8.59L-18.33,48.67z"/>
				</g>
				<g id="g112" transform="translate(277.528,184.2299)">
					<path id="path114" class="st2" d="M-18.33,48.67l-3.46,10.22c7.97,2.65,16.55,4.52,25.72,3.77
						c8.97-0.62,19.55-6.03,23.31-15.87c6.35-19-3.15-38.09-17.86-48.08c-14.75-9.89-33.98-12.45-50.64-5.97
						c-16.58,6.11-29.93,22.17-30.88,40.56c-0.16,15.57,8.15,30.45,20.42,38.2c12.11,8.15,26.37,10.57,39.98,10.93
						c-13.88-2.17-27.81-6.71-37.71-15.92c-9.9-9.03-14.33-22.58-11.7-34.86C-59.52,18.15-48.97,6.39-35.7,2.17
						C-22.58-2.29-6.92,0.12,4.21,8.32c5.6,4.05,9.93,9.63,12.3,15.91c2.21,6.09,2.89,13.93,0.6,18.88
						c-2.36,5.23-7.91,8.26-14.54,8.85C-4.1,52.43-11.34,51.05-18.33,48.67"/>
				</g>
				<g id="g116" transform="translate(263.7011,194.1295)">
					<path id="path118" class="st2" d="M-18.33,48.67l-5.4,9.35c9.66,5.23,21.39,9.44,33.06,9.24c4.78-1.88,11.84-3.99,16.14-6.37
						c-4.75-1.17-15.69-0.11-20.23-1.41C-8.05,55.68-9.83,53.2-18.33,48.67"/>
				</g>
				<g id="g120" transform="translate(253.1377,174.1379)">
					<path id="path122" class="st2" d="M-18.33,48.67c0.05,2.82,2.37,5.06,5.18,5.01c2.82-0.05,5.06-2.37,5.01-5.19
						c-0.05-2.82-2.37-5.06-5.19-5.01C-16.14,43.53-18.38,45.85-18.33,48.67"/>
				</g>
				<g id="g124" transform="translate(271.4223,168.7692)">
					<path id="path126" class="st2" d="M-18.33,48.67c0.05,2.81,2.37,5.06,5.19,5c2.81-0.05,5.06-2.36,5.01-5.18
						c-0.05-2.82-2.37-5.06-5.19-5.01C-16.14,43.53-18.38,45.85-18.33,48.67"/>
				</g>
				<g id="g128" transform="translate(250.2628,158.8007)">
					<path id="path130" class="st2" d="M-18.33,48.67c0,0,3.01-16.25,20.7-17.06c15.8-0.72,33.95,21.91,33.95,21.91
						S14.99,41.76,2.97,42.35C-9.04,42.95-18.33,48.67-18.33,48.67"/>
				</g>
				<g id="g132" transform="translate(102.7301,113.4819)">
					<path id="path134" class="st3" d="M-18.33,48.67c0.9,6.38,1.6,10.36,2.14,12.14l-16.34,2.3c-0.23-1.61-1.12-7.43-1.57-10.65
						l-0.53-3.78c-2.4-17.05-1.93-22.41,0.79-28.01c4.24-8.54,12.66-10.73,18.41-11.53c7.79-1.1,14.96,0.62,19.98,5.2
						c6.23,5.64,8.16,13.8,10.05,27.28l0.46,3.23c0.78,5.54,1.46,10.88,1.67,12.42L0.65,59.52c-0.3-2.6-0.69-7.48-1.38-12.33
						l-0.38-2.66c-2.24-15.92-2.79-18.85-5.09-21.46c-1.87-2.1-4.25-2.77-6.71-2.42c-2.17,0.3-4.26,1.24-5.61,3.37
						c-2.22,3.53-2.07,8.66-0.49,19.88L-18.33,48.67z"/>
				</g>
				<g id="g136" transform="translate(163.7929,68.0852)">
					<path id="path138" class="st3" d="M-18.33,48.67c-0.14,1.42-0.21,11.19-0.21,18.49v19.69c1.14,0,14.24-0.35,15.58-0.42v12.39
						c-3.47-0.28-18.91-0.57-20.26-0.57h-6.16c-0.78,0-17.57,0.29-20.76,0.57V86.43c2.2,0.07,12.26,0.42,15.66,0.42V68.29
						c0-7.72-0.07-17.78-0.21-19.62H-18.33z"/>
				</g>
				<g id="g140" transform="translate(230.4649,127.1467)">
					<path id="path142" class="st3" d="M-18.33,48.67c-1.49-4.04-7.44-22.67-8.93-26.49h-0.21c-2.55,4.04-7.93,11.34-14.17,20.97
						h-0.71c-6.45-10.77-12.47-20.19-13.6-22.24c-1.13,3.12-6.51,20.33-8.92,28.48l-15.02-5.52c3.4-8.08,17.71-43.71,20.47-49.03
						h0.71c3.26,4.53,11.9,17.21,16.36,23.52c2.69-3.76,11.83-16.79,15.72-21.82h0.71C-23.22,1.5-5.16,40.53-3.88,43.01
						L-18.33,48.67z"/>
				</g>
				<g id="g144" transform="translate(266.7186,75.5706)">
					<path id="path146" class="st3" d="M-18.33,48.67c-3.33-0.28-14.03-0.14-15.87-0.14v8.36c1.56,0,10.98-0.28,12.89-0.28
						l-0.21,11.34c-3.12-0.29-11.26-0.64-12.68-0.64v9.42c1.28,0,12.4,0.36,15.02,0.36l-0.28,11.69
						c-2.62-0.21-26.42-1.27-30.39-1.27c0.07-2.05,0.21-19.19,0.21-20.33v-9.49c0-1.63,0-16.72-0.21-20.48
						c3.68,0,29.26-0.7,31.81-0.7L-18.33,48.67z"/>
				</g>
				<g id="g148" transform="translate(287.7491,62.8094)">
					<path id="path150" class="st3" d="M-18.33,48.67c-0.07,2.34-0.14,22.81-0.14,25.72c1.06-0.85,26.64-21.11,35.14-26.64
						l0.71,0.35c0.21,4.61,0.71,14.66,1.28,24.94c0.64,10.34,1.27,20.9,1.7,26.42L5.9,99.81c-0.07-3.04,0.14-22.03,0.14-25.93
						c-2.48,1.84-25.22,19.06-35.28,26.42l-0.71-0.42c-0.71-9.42-2.41-45.69-2.84-50.72L-18.33,48.67z"/>
				</g>
				<g id="g152" transform="translate(348.399,93.3042)">
					<path id="path154" class="st3" d="M-18.33,48.67c0,8.5,0.21,19.98,0.28,21.25h-16.44c0-1.7,0.21-19.91,0.21-21.11v-7.65
						c0-1.84-0.07-18.42-0.21-21.53h16.44c-0.07,1.63-0.28,14.31-0.28,21.39V48.67z"/>
				</g>
				<g id="g156" transform="translate(396.7957,87.6741)">
					<path id="path158" class="st3" d="M-18.33,48.67c-0.33,2.1-0.59,3.71-0.95,6.44l-15.18-2.4c0.31-1.96,0.75-3.83,1.08-5.85
						l0.81-5.61c-5.29-0.98-13.07,0.58-14.17,7.51c-1.52,9.58,10.91,17.65,20.15,20.4l-5.4,13.2
						c-27.69-10.84-32.5-28.46-31.15-36.99c1.74-10.98,11.78-19.15,32.19-16.2c7.15,1.06,13.53,3.29,15.21,4.06
						c-0.23,1.47-1.36,7.67-1.78,10.34L-18.33,48.67z"/>
				</g>
				<g id="g160" transform="translate(430.3439,74.4207)">
					<path id="path162" class="st3" d="M-18.33,48.67c-3.33-0.28-14.03-0.14-15.87-0.14v8.36c1.56,0,10.98-0.28,12.89-0.28
						l-0.21,11.34c-3.12-0.28-11.26-0.65-12.68-0.65v9.42c1.28,0,12.4,0.36,15.02,0.36l-0.28,11.69
						c-2.62-0.21-26.42-1.28-30.39-1.28c0.08-2.05,0.22-19.19,0.22-20.33v-9.49c0-1.62,0-16.72-0.22-20.47
						c3.69,0,29.26-0.71,31.81-0.71L-18.33,48.67z"/>
				</g>
				<g id="g164" transform="translate(449.3384,108.1132)">
					<path id="path166" class="st3" d="M-18.33,48.67c7.65-0.07,9.99-3.26,9.99-6.59c0-4.74-5.03-8.64-8.14-10.49
						C-14.57,28.48-0.83,8.58,0.8,5.89l12.96,9.77C11.92,17.93,1.08,28.9-1.05,31.31c5.53,3.9,9.14,8.36,9.14,14.17
						c0,6.52-5.67,10.63-16.15,11.97c-6.37,0.85-16.22,0.99-25.92,0.99c0.21-1.35,0.35-16.72,0.35-18.85V33.8
						c0-1.49,0.14-23.94-0.14-25.65h15.8c-0.14,1.06-0.35,18.99-0.35,21.68V48.67z"/>
				</g>
				<g id="g168" transform="translate(82.5869,92.5475)">
					<path id="path170" class="st3" d="M-18.33,48.67c0,2.81,0,4.96,0.09,8.61h-15.35c0-2.62,0.19-5.15,0.19-7.86l-0.1-7.48
						c-7.11-0.19-26.18,0.48-26.18,13.38c0,12.81,21.32,23.72,33.94,25.4l-3.44,14.71c-38.34-8.42-48.25-30.39-48.25-41.79
						c0-14.69,11.41-27.4,38.62-27.77c9.54-0.1,18.33,1.5,20.67,2.15c0,1.96-0.19,10.28-0.19,13.84V48.67z"/>
				</g>
				<g id="g172" transform="translate(108.0447,109.2452)">
					<path id="path174" class="st1" d="M-18.33,48.67c0.9,6.38,1.6,10.36,2.14,12.15l-16.35,2.3c-0.22-1.61-1.12-7.43-1.57-10.65
						l-0.53-3.79c-2.4-17.04-1.93-22.4,0.78-28.01c4.24-8.54,12.66-10.72,18.41-11.53c7.79-1.1,14.96,0.62,19.97,5.21
						c6.23,5.63,8.17,13.8,10.06,27.26l0.46,3.23c0.78,5.54,1.46,10.88,1.68,12.43L0.65,59.52c-0.3-2.6-0.7-7.48-1.38-12.32
						l-0.38-2.67c-2.24-15.92-2.79-18.85-5.09-21.46c-1.87-2.1-4.25-2.77-6.71-2.42c-2.17,0.3-4.26,1.24-5.6,3.36
						c-2.22,3.53-2.08,8.66-0.5,19.88L-18.33,48.67z"/>
				</g>
				<g id="g176" transform="translate(169.109,63.8483)">
					<path id="path178" class="st1" d="M-18.33,48.67c-0.14,1.42-0.21,11.19-0.21,18.49v19.69c1.14,0,14.24-0.36,15.59-0.42v12.4
						c-3.47-0.28-18.92-0.57-20.26-0.57h-6.17c-0.78,0-17.57,0.28-20.75,0.57v-12.4c2.2,0.07,12.26,0.42,15.66,0.42V68.29
						c0-7.72-0.08-17.77-0.22-19.62H-18.33z"/>
				</g>
				<g id="g180" transform="translate(235.7811,122.9131)">
					<path id="path182" class="st1" d="M-18.33,48.67c-1.49-4.04-7.44-22.67-8.92-26.5h-0.22c-2.55,4.04-7.93,11.34-14.16,20.97
						h-0.71c-6.44-10.77-12.47-20.19-13.6-22.25c-1.13,3.12-6.51,20.33-8.92,28.48l-15.02-5.53c3.4-8.07,17.71-43.71,20.47-49.02
						h0.71c3.26,4.53,11.9,17.21,16.36,23.52c2.69-3.76,11.83-16.79,15.73-21.82h0.71c2.69,4.96,20.76,44,22.03,46.48L-18.33,48.67z
						"/>
				</g>
				<g id="g184" transform="translate(272.0347,71.334)">
					<path id="path186" class="st1" d="M-18.33,48.67c-3.33-0.28-14.02-0.14-15.87-0.14v8.36c1.56,0,10.98-0.28,12.89-0.28
						l-0.21,11.34c-3.12-0.28-11.27-0.64-12.68-0.64v9.42c1.27,0,12.4,0.36,15.02,0.36l-0.28,11.69
						c-2.62-0.21-26.43-1.27-30.39-1.27c0.07-2.06,0.21-19.19,0.21-20.33v-9.49c0-1.63,0-16.72-0.21-20.47
						c3.68,0,29.26-0.71,31.81-0.71L-18.33,48.67z"/>
				</g>
				<g id="g188" transform="translate(293.0681,58.5728)">
					<path id="path190" class="st1" d="M-18.33,48.67c-0.07,2.34-0.14,22.81-0.14,25.72c1.06-0.85,26.63-21.11,35.13-26.64
						l0.71,0.35c0.22,4.61,0.71,14.66,1.28,24.94c0.64,10.34,1.28,20.9,1.7,26.42L5.89,99.81c-0.07-3.05,0.14-22.03,0.14-25.93
						c-2.48,1.84-25.22,19.06-35.28,26.42l-0.71-0.42c-0.71-9.43-2.41-45.69-2.83-50.72L-18.33,48.67z"/>
				</g>
				<g id="g192" transform="translate(353.7167,89.0676)">
					<path id="path194" class="st1" d="M-18.33,48.67c0,8.5,0.21,19.98,0.28,21.25h-16.43c0-1.7,0.21-19.9,0.21-21.11v-7.65
						c0-1.84-0.07-18.42-0.21-21.53h16.43c-0.07,1.63-0.28,14.31-0.28,21.39V48.67z"/>
				</g>
				<g id="g196" transform="translate(402.1165,83.4375)">
					<path id="path198" class="st1" d="M-18.33,48.67c-0.34,2.1-0.59,3.71-0.95,6.44l-15.18-2.4c0.31-1.96,0.75-3.83,1.07-5.86
						l0.81-5.61c-5.29-0.98-13.07,0.58-14.17,7.51c-1.52,9.58,10.9,17.65,20.15,20.4l-5.39,13.21c-27.69-10.85-32.5-28.46-31.15-37
						c1.74-10.98,11.78-19.15,32.19-16.2c7.15,1.06,13.54,3.29,15.21,4.06c-0.23,1.47-1.36,7.67-1.78,10.33L-18.33,48.67z"/>
				</g>
				<g id="g200" transform="translate(435.6586,70.184)">
					<path id="path202" class="st1" d="M-18.33,48.67c-3.33-0.28-14.02-0.14-15.86-0.14v8.36c1.56,0,10.98-0.28,12.89-0.28
						l-0.21,11.34c-3.12-0.28-11.27-0.64-12.68-0.64v9.42c1.27,0,12.39,0.35,15.02,0.35l-0.28,11.69
						c-2.62-0.21-26.43-1.27-30.39-1.27c0.07-2.06,0.21-19.19,0.21-20.33v-9.49c0-1.63,0-16.72-0.21-20.47
						c3.68,0,29.26-0.71,31.81-0.71L-18.33,48.67z"/>
				</g>
				<g id="g204" transform="translate(454.6562,103.8824)">
					<path id="path206" class="st1" d="M-18.33,48.67c7.65-0.08,9.99-3.27,9.99-6.59c0-4.75-5.03-8.64-8.15-10.49
						C-14.58,28.47-0.84,8.57,0.79,5.88l12.97,9.77C11.92,17.92,1.08,28.9-1.04,31.31c5.52,3.9,9.14,8.36,9.14,14.17
						c0,6.52-5.67,10.63-16.15,11.97c-6.38,0.85-16.22,0.99-25.93,0.99c0.21-1.35,0.35-16.72,0.35-18.84v-5.81
						c0-1.49,0.14-23.94-0.14-25.65h15.8c-0.14,1.06-0.35,18.99-0.35,21.68V48.67z"/>
				</g>
				<g id="g208" transform="translate(87.9061,88.314)">
					<path id="path210" class="st1" d="M-18.33,48.67c0,2.8,0,4.96,0.09,8.61h-15.35c0-2.62,0.19-5.14,0.19-7.86l-0.1-7.48
						c-7.11-0.19-26.18,0.48-26.18,13.38c0,12.81,21.32,23.72,33.94,25.4l-3.44,14.71c-38.34-8.41-48.25-30.39-48.25-41.79
						c0-14.68,11.41-27.4,38.61-27.77c9.54-0.09,18.33,1.5,20.67,2.15c0,1.96-0.18,10.29-0.18,13.84V48.67z"/>
				</g>
				<g id="g212" transform="translate(105.3332,112.0076)">
					<path id="path214" class="st4" d="M-18.33,48.67c0.9,6.38,1.6,10.37,2.14,12.15l-16.34,2.3c-0.23-1.62-1.12-7.43-1.57-10.65
						l-0.53-3.79c-2.4-17.04-1.94-22.4,0.79-28c4.23-8.54,12.66-10.72,18.41-11.53c7.79-1.1,14.97,0.61,19.97,5.2
						c6.23,5.63,8.16,13.8,10.06,27.27l0.45,3.23c0.78,5.54,1.46,10.88,1.67,12.43L0.65,59.53c-0.29-2.61-0.69-7.49-1.37-12.33
						l-0.37-2.67c-2.24-15.93-2.79-18.85-5.09-21.46c-1.87-2.09-4.25-2.76-6.71-2.42c-2.18,0.31-4.26,1.24-5.61,3.36
						c-2.22,3.53-2.07,8.66-0.5,19.89L-18.33,48.67z"/>
				</g>
				<g id="g216" transform="translate(166.3994,66.611)">
					<path id="path218" class="st5" d="M-18.33,48.67c-0.14,1.42-0.22,11.19-0.22,18.49v19.69c1.14,0,14.24-0.35,15.59-0.43v12.4
						c-3.47-0.29-18.91-0.56-20.26-0.56h-6.17c-0.78,0-17.57,0.28-20.75,0.56v-12.4c2.19,0.08,12.26,0.43,15.66,0.43V68.29
						c0-7.72-0.07-17.78-0.21-19.62H-18.33z"/>
				</g>
				<g id="g220" transform="translate(233.0713,125.6785)">
					<path id="path222" class="st2" d="M-18.33,48.67c-1.49-4.04-7.44-22.67-8.93-26.5h-0.21c-2.55,4.04-7.94,11.34-14.17,20.97
						h-0.71c-6.44-10.77-12.47-20.19-13.6-22.24c-1.14,3.12-6.52,20.33-8.93,28.48l-15.02-5.53c3.4-8.07,17.71-43.71,20.47-49.02
						h0.71c3.26,4.53,11.9,17.21,16.36,23.52c2.69-3.75,11.83-16.79,15.73-21.82h0.71C-23.22,1.49-5.16,40.52-3.88,43L-18.33,48.67z
						"/>
				</g>
				<g id="g224" transform="translate(269.325,74.0963)">
					<path id="path226" class="st6" d="M-18.33,48.67c-3.33-0.28-14.03-0.14-15.87-0.14v8.36c1.56,0,10.98-0.28,12.89-0.28
						l-0.21,11.34c-3.12-0.29-11.26-0.64-12.68-0.64v9.42c1.27,0,12.4,0.35,15.02,0.35l-0.28,11.69
						c-2.62-0.21-26.42-1.27-30.39-1.27c0.07-2.06,0.21-19.19,0.21-20.33v-9.5c0-1.62,0-16.72-0.21-20.47
						c3.69,0,29.26-0.71,31.81-0.71L-18.33,48.67z"/>
				</g>
				<g id="g228" transform="translate(290.3569,61.3351)">
					<path id="path230" class="st4" d="M-18.33,48.67c-0.07,2.34-0.14,22.81-0.14,25.72c1.06-0.85,26.63-21.11,35.14-26.64
						l0.71,0.35c0.21,4.61,0.71,14.66,1.27,24.94c0.64,10.35,1.28,20.9,1.7,26.42L5.89,99.82c-0.07-3.05,0.14-22.03,0.14-25.93
						c-2.48,1.85-25.22,19.06-35.28,26.43l-0.71-0.43c-0.71-9.42-2.41-45.69-2.83-50.72L-18.33,48.67z"/>
				</g>
				<g id="g232" transform="translate(351.0056,91.8329)">
					<path id="path234" class="st5" d="M-18.33,48.67c0,8.5,0.21,19.98,0.28,21.25h-16.44c0-1.7,0.21-19.9,0.21-21.11v-7.65
						c0-1.84-0.07-18.42-0.21-21.53h16.44c-0.08,1.63-0.28,14.31-0.28,21.39V48.67z"/>
				</g>
				<g id="g236" transform="translate(399.4018,86.2001)">
					<path id="path238" class="st2" d="M-18.33,48.67c-0.33,2.1-0.59,3.71-0.95,6.45l-15.18-2.41c0.31-1.95,0.75-3.83,1.07-5.85
						l0.82-5.61c-5.29-0.98-13.07,0.58-14.17,7.51c-1.52,9.58,10.9,17.65,20.15,20.41l-5.39,13.2
						c-27.69-10.84-32.5-28.46-31.15-36.99c1.74-10.99,11.78-19.15,32.19-16.21c7.15,1.06,13.54,3.29,15.21,4.06
						c-0.23,1.47-1.36,7.67-1.78,10.33L-18.33,48.67z"/>
				</g>
				<g id="g240" transform="translate(432.9504,72.9464)">
					<path id="path242" class="st6" d="M-18.33,48.67c-3.33-0.28-14.03-0.14-15.87-0.14v8.36c1.56,0,10.98-0.28,12.89-0.28
						l-0.21,11.34c-3.12-0.29-11.27-0.64-12.68-0.64v9.42c1.27,0,12.4,0.36,15.02,0.36l-0.28,11.69
						c-2.62-0.21-26.42-1.27-30.39-1.27c0.07-2.06,0.21-19.19,0.21-20.33v-9.5c0-1.62,0-16.72-0.21-20.47
						c3.69,0,29.26-0.71,31.81-0.71L-18.33,48.67z"/>
				</g>
				<g id="g244" transform="translate(451.9449,106.6419)">
					<path id="path246" class="st4" d="M-18.33,48.67c7.65-0.07,9.99-3.26,9.99-6.59c0-4.74-5.03-8.64-8.15-10.49
						C-14.58,28.48-0.83,8.58,0.8,5.88l12.96,9.78c-1.84,2.26-12.68,13.25-14.8,15.65c5.53,3.89,9.14,8.36,9.14,14.17
						c0,6.52-5.67,10.63-16.15,11.97c-6.38,0.85-16.22,1-25.93,1c0.22-1.35,0.36-16.72,0.36-18.85v-5.81
						c0-1.49,0.14-23.94-0.14-25.64h15.79c-0.14,1.06-0.35,18.99-0.35,21.67V48.67z"/>
				</g>
				<g id="g248" transform="translate(85.1945,91.0793)">
					<path id="path250" class="st6" d="M-18.33,48.67c0,2.8,0,4.95,0.09,8.6h-15.35c0-2.62,0.19-5.14,0.19-7.85l-0.09-7.48
						c-7.11-0.19-26.19,0.48-26.19,13.37c0,12.81,21.32,23.72,33.94,25.41l-3.44,14.71c-38.34-8.42-48.25-30.4-48.25-41.8
						c0-14.68,11.41-27.39,38.62-27.77c9.54-0.09,18.33,1.5,20.67,2.15c0,1.97-0.19,10.29-0.19,13.84V48.67z"/>
				</g>
			</g>
		</g>
	</g>
</g>
</svg>
