<?xml version="1.0" encoding="utf-8"?>
<!-- Generator: Adobe Illustrator 26.0.0, SVG Export Plug-In . SVG Version: 6.00 Build 0)  -->
<svg version="1.1"
	 id="svg2" xmlns:cc="http://creativecommons.org/ns#" xmlns:dc="http://purl.org/dc/elements/1.1/" xmlns:inkscape="http://www.inkscape.org/namespaces/inkscape" xmlns:rdf="http://www.w3.org/1999/02/22-rdf-syntax-ns#" xmlns:sodipodi="http://sodipodi.sourceforge.net/DTD/sodipodi-0.dtd" xmlns:svg="http://www.w3.org/2000/svg"
	 xmlns="http://www.w3.org/2000/svg" xmlns:xlink="http://www.w3.org/1999/xlink" x="0px" y="0px" viewBox="0 0 483.91 456.7"
	 style="enable-background:new 0 0 483.91 456.7;" xml:space="preserve">
<style type="text/css">
	.st0{clip-path:url(#SVGID_00000085234940270715950110000000706410066103536779_);}
	.st1{fill:#FFFFFF;}
	.st2{fill:#C6C6C7;}
	.st3{fill:#E73229;}
	.st4{fill:#1A1A18;}
</style>
<sodipodi:namedview  bordercolor="#666666" borderopacity="1" gridtolerance="10" guidetolerance="10" id="namedview4" inkscape:pageopacity="0" inkscape:pageshadow="2" inkscape:window-height="480" inkscape:window-width="640" objecttolerance="10" pagecolor="#ffffff">
	</sodipodi:namedview>
<g id="g10" transform="matrix(1.3333333,0,0,-1.3333333,0,749.076)" inkscape:groupmode="layer" inkscape:label="HCB_Foxes">
	<g id="g12">
		<g>
			<defs>
				<rect id="SVGID_1_" x="-215.39" y="16.01" width="793.71" height="749.08"/>
			</defs>
			<clipPath id="SVGID_00000013172933814204642700000004664081655354051499_">
				<use xlink:href="#SVGID_1_"  style="overflow:visible;"/>
			</clipPath>
			<g id="g14" style="clip-path:url(#SVGID_00000013172933814204642700000004664081655354051499_);">
				<g id="g20" transform="translate(366.7604,226.5611)">
					<path id="path22" class="st1" d="M-116.17,109.64c16.04,17.62,25.83,41.03,25.83,66.74c0,20.37-6.15,39.3-16.68,55.05
						c-0.01,0.8-0.07,1.78-0.15,3.09c-0.07,1.03-0.16,2.37-0.28,3.95c-2.74,37.31,0.59,48.28,1.91,52.75
						c3.34,11.29,8.64,17.51,8.64,17.51l-17.23-3.78c-25.42-5.58-41.68-18.93-51.93-32.19c-7.51,1.82-15.36,2.79-23.44,2.79
						s-15.92-0.97-23.44-2.79c-10.25,13.26-26.51,26.61-51.93,32.19l-17.23,3.78c0,0,5.3-6.21,8.64-17.51
						c1.32-4.47,4.64-15.43,1.91-52.75c-0.11-1.58-0.21-2.92-0.28-3.95c-0.09-1.31-0.14-2.29-0.15-3.09
						c-10.53-15.75-16.68-34.68-16.68-55.05c0-25.71,9.79-49.12,25.83-66.74h-59.6l22.98-22.98V14.73h29V26l81.01-11.29l58.6,8.21
						l1.15-0.88c3.48-2.66,7.39-4.63,11.63-5.85c4.44-1.29,8.25-1.47,12.24-1.47c16.83,0,26.29,8.2,26.29,8.2v63.73L-67.07,99
						l10.5,10.64H-116.17z"/>
				</g>
				<g id="g24" transform="translate(219.2885,243.5721)">
					<path id="path26" class="st2" d="M-116.17,109.64c-5.52,21.43,8.79,31.81,8.79,31.81s1.82-30.99,9.48-43.36L-116.17,109.64z"/>
				</g>
				<g id="g28" transform="translate(367.5605,243.5721)">
					<path id="path30" class="st2" d="M-116.17,109.64c5.52,21.43-8.79,31.81-8.79,31.81s-1.82-30.99-9.48-43.36L-116.17,109.64z"/>
				</g>
				<g id="g32" transform="translate(320.5009,282.145)">
					<path id="path34" class="st3" d="M-116.17,109.64l-6.85-8.62l-9.95,1.23l22.62,16.9L-116.17,109.64z M-144.09,113.54
						l-10.83,53.75c0,0,3.92,4.58,10.83,4.58C-144.09,153.3-144.09,113.54-144.09,113.54 M-163.48,101.02l-6.85,8.62l-5.82,9.51
						l22.62-16.9L-163.48,101.02z M-67.75,160.63c-0.57,2.39-6.35,1.51-14.03-0.84c5.91,6.84,11.93,12.86,12.49,15.15
						c0.5,2.06-5.12,48.82,1.71,58.61c-0.05,0-0.96,0.67-0.96,0.67c-40.55-7.31-59.94-58.12-61.94-63.86
						c-0.06-0.29-0.13-0.57-0.19-0.87c0,0-0.49,3.57-1.06,5.31c-0.75,2.29-6.44,8.24-11.52,8.24s-10.77-5.95-11.52-8.24
						c-0.57-1.74-1.06-5.31-1.06-5.31c-0.06,0.3-0.13,0.57-0.19,0.87c-1.99,5.74-21.39,56.55-61.94,63.86c0,0-0.91-0.68-0.96-0.67
						c6.83-9.79,1.21-56.55,1.71-58.61c0.55-2.29,6.58-8.31,12.49-15.15c-7.68,2.35-13.45,3.23-14.03,0.84
						c-4.76-19.79,4.38-35.42,11.13-43.75c9.7,8.83,32.1,4.8,41.68-15.84c-0.07-0.71,0.09-1.49,0.53-2.33
						c9-17.33,13.99-49.17,13.99-49.17h8.16h8.16c0,0,5,31.83,14,49.17c0.44,0.84,0.59,1.61,0.53,2.33
						c9.58,20.64,31.98,24.67,41.68,15.84C-72.13,125.21-62.99,140.84-67.75,160.63"/>
				</g>
				<g id="g36" transform="translate(336.0228,370.3271)">
					<path id="path38" class="st4" d="M-116.17,109.64c3.11,3.81,5.98,6.69,8.14,7.6c10.6,4.48,13.36-4.5,13.61-5.42
						c-1.73,9.18-2.35,11.32-0.61,22.21c-35-17.75-42.75-57.29-42.75-57.29s6.55,11.52,13.87,22.32c4.22,4.52,9.31,8.06,17.76,12.4
						C-109.7,111.46-113.36,110.56-116.17,109.64"/>
				</g>
				<g id="g40" transform="translate(229.6828,394.7171)">
					<path id="path42" class="st4" d="M-116.17,109.64c1.74-10.89,1.13-13.03-0.6-22.21c0.25,0.92,3.01,9.9,13.6,5.42
						c2.16-0.91,5.03-3.79,8.14-7.6c-2.81,0.92-6.46,1.82-10.01,1.82c8.45-4.34,13.53-7.88,17.76-12.4
						c7.32-10.8,13.86-22.32,13.86-22.32S-81.17,91.89-116.17,109.64"/>
				</g>
				<g id="g44" transform="translate(251.4113,162.1685)">
					<path id="path46" class="st4" d="M-116.17,109.64h4.17c0.66,0,1,0.3,1,0.91v48c0,0.61-0.33,0.91-1,0.91h-4.17
						c-0.67,0-1-0.3-1-0.91v-48C-117.17,109.94-116.84,109.64-116.17,109.64"/>
				</g>
				<g id="g48" transform="translate(307.4264,145.8123)">
					<path id="path50" class="st4" d="M-116.17,109.64v0.58c0,0.75-0.25,1.08-0.84,1.08h-0.79v-2.78h0.65
						C-116.55,108.53-116.17,108.8-116.17,109.64"/>
				</g>
				<g id="g52" transform="translate(397.2113,205.8725)">
					<path id="path54" class="st4" d="M-116.17,109.64V94.88h-16.45v16.47c0,0.76-0.42,1.14-1.25,1.14h-5.1
						c-0.83,0-1.25-0.38-1.25-1.14V94.81c0-0.83,0.05-1.34,0.17-1.52c0.12-0.19,0.4-0.4,0.85-0.63l18.17-8.62
						c2.97-1.41,4.86-4.4,4.86-7.68V47.4c-2.88-2.2-6.09-3.8-9.65-4.82c-3.55-1.02-7.07-1.53-10.54-1.53
						c-3.48,0-6.98,0.51-10.5,1.53c-3.52,1.01-6.71,2.62-9.58,4.82v21.8H-140V53.87c0-0.76,0.42-1.13,1.26-1.13h5.1
						c0.83,0,1.25,0.38,1.25,1.13v17.46c0,1.05-0.05,1.74-0.17,2.04c-0.11,0.31-0.58,0.65-1.41,1.02l-17.6,8.35
						c-2.97,1.41-4.86,4.4-4.86,7.68v21.95c0,5.03,5.61,11.44,10.99,11.44c16.14,0,43.44-0.01,43.44-0.01L-116.17,109.64z
						 M-230.24,178.52l-9.95-1.23l-6.85,8.62l-5.82,9.51L-230.24,178.52z M-209.68,178.52l22.62,16.9l-5.82-9.51l-6.85-8.62
						L-209.68,178.52z M-162.78,137.51c1.96,7.58,2.07,19.49-3.1,29.39c-5.7,10.92-18.88,11.13-24.3,0
						c-2.89-5.92-9.62-23.67-15.05-35.68c-0.22-0.49-0.64-0.77-1.13-0.89c-0.38-0.1-0.8-0.09-1.22,0c-0.52,0.11-1.03,0.33-1.42,0.66
						l-5.67,4.74c-1.17,0.99-1.87,2.41-1.94,3.94l-1.14,24.73l11.34-5.35c0.52-0.24,1.02,0.35,0.69,0.82l-5.29,7.48
						c-0.6,0.84-0.07,2.03,0.97,2.13c2.47,0.23,6.44,0.68,9.66,1.36c5.06,1.06,7.52,3.53,8.88,5.81
						c5.72,9.56,18.75,33.37,18.75,33.37l-39.74-29.32c-1.14-0.84-2.53-1.3-3.96-1.3h-7.02c-1.43,0-2.82,0.46-3.96,1.3l-39.74,29.32
						c0,0,13.03-23.81,18.75-33.37c1.36-2.28,3.82-4.75,8.88-5.81c3.22-0.68,7.19-1.13,9.66-1.36c1.04-0.1,1.57-1.29,0.97-2.13
						l-5.29-7.48c-0.33-0.47,0.17-1.06,0.69-0.82l11.34,5.35l-1.14-24.73c-0.07-1.53-0.77-2.95-1.94-3.94l-5.67-4.74
						c-0.39-0.33-0.9-0.56-1.42-0.66c-0.42-0.09-0.84-0.1-1.22,0c-0.49,0.12-0.91,0.4-1.13,0.89
						c-5.43,12.01-12.16,29.76-15.05,35.68c-5.42,11.13-18.6,10.92-24.3,0c-5.17-9.9-5.06-21.81-3.1-29.39
						c-3.78,0-18.4,12.85-18.4,44.89c-1.94,0-7.97-10.41-7.97-15.94c-2.03,0-13.36,23.73,5.59,46.19c-2.43,0-12.06-9.22-12.06-12.03
						c0,11.5,11.92,36.03,18.44,36.03c4.73,0,21.39-15.06,21.91-20.5c0,0.22-0.02,0.44-0.05,0.67c-0.12,1.24-0.51,2.57-1.1,3.97
						c-4.7,11.19-22.17,26.45-23.14,30.42c-0.07,0.29-0.02,1.5,0.11,3.42c0.68,10.66,4.57,50.8-3.34,62.69
						c59.23-13,64.61-71.53,64.61-71.55v0c0,0,0.49,3.57,1.06,5.32c0.75,2.29,6.44,4.24,11.52,4.24s10.77-1.95,11.52-4.24
						c0.57-1.75,1.06-5.32,1.06-5.32v0c0,0.02,5.38,58.55,64.61,71.55c-7.91-11.89-4.02-52.03-3.34-62.69
						c0.13-1.92,0.18-3.13,0.11-3.42c-0.97-3.97-18.44-19.23-23.14-30.42c-0.59-1.4-0.98-2.73-1.1-3.97
						c-0.03-0.23-0.05-0.45-0.05-0.67c0.52,5.44,17.18,20.5,21.91,20.5c6.52,0,18.44-24.53,18.44-36.03
						c0,2.81-9.63,12.03-12.06,12.03c18.95-22.46,7.62-46.19,5.59-46.19c0,5.53-6.03,15.94-7.97,15.94
						C-144.38,150.36-159,137.51-162.78,137.51 M-163.7,112.48h-19.41V95.69h18.14V85.26h-18.14V69.2h19.41V57.86h-32.66v65.96
						h32.66V112.48z M-203.63,103.83l-9.71-12.99l9.71-13V57.86h-13.25v19.99l-3.08,4.13l-3.08-4.13V57.86h-13.25v19.99l9.71,13
						l-9.71,12.99v19.76c1.83-1.38,6.93-2.43,13.25-2.69v-17.06l3.08-4.13l3.08,4.13v17.06c6.32,0.26,11.42,1.32,13.25,2.69V103.83z
						 M-204.14,44.73c0-1.62-0.86-2.49-2.5-2.49h-2.6v10.5h2.49c1.71,0,2.44-0.79,2.44-2.42v-0.38c0-1.08-0.33-1.76-1.07-2.1v-0.03
						c0.89-0.35,1.23-1.12,1.23-2.23V44.73z M-217.45,49.2h-1.56v1.12c0,0.75-0.33,1.03-0.86,1.03c-0.52,0-0.85-0.28-0.85-1.03
						v-5.67c0-0.75,0.33-1.02,0.85-1.02c0.53,0,0.86,0.27,0.86,1.02v1.5h1.56v-1.4c0-1.68-0.84-2.64-2.46-2.64
						c-1.62,0-2.46,0.96-2.46,2.64v5.46c0,1.68,0.84,2.64,2.46,2.64c1.62,0,2.46-0.96,2.46-2.64V49.2z M-230.63,42.24h-1.68v4.5
						h-1.88v-4.5h-1.65v10.5h1.65v-4.5h1.88v4.5h1.68V42.24z M-243.56,61.67c-2.3-1.76-4.89-3.04-7.8-3.85
						c-2.9-0.82-5.74-1.23-8.53-1.23c-2.78,0-5.62,0.41-8.53,1.23c-2.9,0.81-5.5,2.1-7.8,3.85v58.34v3.81c2.78,0,20.84,0,32.66,0
						V61.67z M-283.48,109.64h-23.7l-0.08-14.49h22.12V82.11h-22.12l0.08-40.74h-16.56v68.28l-14.17,14.17l54.43,0.01V109.64z
						 M-146.62,130.33c16.04,17.62,25.83,41.03,25.83,66.74c0,20.37-6.15,39.3-16.68,55.05c-0.01,0.81-0.07,1.78-0.15,3.09
						c-0.07,1.03-0.16,2.37-0.28,3.95c-2.74,37.31,0.59,48.28,1.91,52.75c3.34,11.29,8.64,17.51,8.64,17.51l-17.23-3.78
						c-25.42-5.58-41.68-18.93-51.93-32.19c-7.51,1.82-15.36,2.79-23.44,2.79s-15.92-0.97-23.44-2.79
						c-10.25,13.26-26.51,26.61-51.93,32.19l-17.23,3.78c0,0,5.3-6.21,8.64-17.51c1.32-4.47,4.64-15.43,1.91-52.75
						c-0.11-1.58-0.21-2.92-0.28-3.95c-0.09-1.31-0.14-2.29-0.15-3.09c-10.53-15.75-16.68-34.68-16.68-55.05
						c0-25.71,9.79-49.12,25.83-66.74h-59.6l22.98-22.98V35.41h29v11.28l81.01-11.29l58.6,8.21l1.15-0.88
						c3.48-2.66,7.39-4.63,11.63-5.85c4.44-1.29,8.25-1.47,12.24-1.47c16.83,0,26.29,8.2,26.29,8.2v63.73l12.48,12.34l10.5,10.64
						H-146.62z"/>
				</g>
				<g id="g56" transform="translate(306.527,143.2019)">
					<path id="path58" class="st4" d="M-116.17,109.64h-0.74v-3.22h0.94c0.56,0,0.85,0.25,0.85,1.04v0.91
						C-115.11,109.34-115.42,109.64-116.17,109.64"/>
				</g>
			</g>
		</g>
	</g>
</g>
</svg>
