<?xml version="1.0" encoding="UTF-8" standalone="no"?>
<svg
   xmlns:dc="http://purl.org/dc/elements/1.1/"
   xmlns:cc="http://creativecommons.org/ns#"
   xmlns:rdf="http://www.w3.org/1999/02/22-rdf-syntax-ns#"
   xmlns:svg="http://www.w3.org/2000/svg"
   xmlns="http://www.w3.org/2000/svg"
   xmlns:sodipodi="http://sodipodi.sourceforge.net/DTD/sodipodi-0.dtd"
   xmlns:inkscape="http://www.inkscape.org/namespaces/inkscape"
   version="1.1"
   id="svg2"
   xml:space="preserve"
   width="744.56665"
   height="139.84267"
   viewBox="0 0 744.56665 139.84267"
   sodipodi:docname="hds_unione.ai"><metadata
     id="metadata8"><rdf:RDF><cc:Work
         rdf:about=""><dc:format>image/svg+xml</dc:format><dc:type
           rdf:resource="http://purl.org/dc/dcmitype/StillImage" /></cc:Work></rdf:RDF></metadata><defs
     id="defs6"><clipPath
       clipPathUnits="userSpaceOnUse"
       id="clipPath24"><path
         d="M 0,104.882 H 558.425 V 0 H 0 Z"
         id="path22" /></clipPath></defs><sodipodi:namedview
     pagecolor="#ffffff"
     bordercolor="#666666"
     borderopacity="1"
     objecttolerance="10"
     gridtolerance="10"
     guidetolerance="10"
     inkscape:pageopacity="0"
     inkscape:pageshadow="2"
     inkscape:window-width="640"
     inkscape:window-height="480"
     id="namedview4" /><g
     id="g10"
     inkscape:groupmode="layer"
     inkscape:label="hds_unione"
     transform="matrix(1.3333333,0,0,-1.3333333,0,139.84267)"><path
       d="M 91.369,14.274 H 14.177 v 77.195 h 77.192 z"
       style="fill:#5692ce;fill-opacity:1;fill-rule:nonzero;stroke:none"
       id="path12" /><path
       d="m 168.554,14.274 h -12.866 v 77.195 h 12.866 z"
       style="fill:#004a93;fill-opacity:1;fill-rule:nonzero;stroke:none"
       id="path14" /><path
       d="m 147.318,14.274 h -38.591 v 77.195 h 38.591 z"
       style="fill:#004a93;fill-opacity:1;fill-rule:nonzero;stroke:none"
       id="path16" /><g
       id="g18"><g
         id="g20"
         clip-path="url(#clipPath24)"><g
           id="g26"
           transform="translate(265.2666,14.2737)"><path
             d="m 0,0 0.492,2.335 -4.794,2.52 v 15.303 c 0,6.146 -4.425,8.481 -9.772,8.481 -1.044,0 -6.821,-2.827 -6.821,-2.827 v 16.839 l -1.66,1.598 -9.771,-3.134 0.676,-2.582 4.179,-0.798 V 4.855 l -4.732,-2.643 0.368,-2.396 c 2.274,0 6.576,0.184 8.297,0.184 h 5.9 l 0.553,2.52 -3.81,2.274 v 16.962 c 1.72,0.614 3.81,0.983 5.777,0.983 3.195,0 4.24,-1.352 4.24,-4.732 V 4.794 l -3.81,-2.397 0.737,-2.581 c 2.09,0 5.224,0.184 7.191,0.184 z m 27.785,-0.86 c 0.983,0 5.9,3.134 5.9,3.134 L 33.07,4.548 28.891,5.285 v 37.243 l -1.782,1.721 -9.649,-3.134 0.614,-2.582 4.18,-0.798 V 27.287 c -1.598,0.86 -3.626,1.352 -5.224,1.352 -8.973,0 -13.951,-7.989 -13.951,-15.61 0,-8.297 4.486,-13.889 12.66,-13.889 2.704,0 6.084,2.028 7.867,3.441 0.983,-1.413 2.704,-3.441 4.179,-3.441 M 22.254,18.068 V 5.961 C 20.41,5.347 18.505,5.039 16.538,5.039 c -4.917,0 -6.699,4.917 -6.699,9.834 0,5.592 1.475,8.296 7.129,8.296 1.045,0 4.425,-0.061 4.978,-0.676 0.492,-0.491 0.308,-3.626 0.308,-4.425 M 46.762,-0.86 c 5.162,0 11.615,2.581 11.615,9.034 0,4.425 -3.626,6.637 -6.883,8.358 -3.196,1.659 -6.023,2.643 -6.023,4.486 0,1.967 2.213,2.95 4.364,2.95 0.553,0 1.413,-0.123 1.966,-0.184 l 2.705,-4.855 2.765,0.922 -0.307,7.805 c -2.213,0.737 -5.101,0.921 -7.068,0.921 -5.039,0 -11.062,-2.335 -11.062,-8.603 0,-3.995 2.766,-5.962 6.023,-7.621 4.363,-2.213 6.637,-3.38 6.637,-5.408 0,-2.028 -2.151,-2.95 -4.179,-2.95 -1.229,0 -2.704,0.184 -2.95,0.43 -0.184,0.246 -0.922,3.503 -0.983,3.626 l -2.458,0.676 c 0,0 -3.258,-4.732 -3.258,-5.654 0,-3.134 6.515,-3.933 9.096,-3.933 m 75.344,0 c 1.106,0 6.084,3.072 6.084,3.072 l -0.676,2.582 -4.179,0.737 v 21.387 l -1.72,1.721 -9.711,-3.134 0.676,-2.52 4.179,-0.799 V 5.9 c -1.966,-0.553 -3.748,-0.922 -5.715,-0.922 -3.257,0 -4.056,1.291 -4.056,4.609 v 17.454 l -1.782,1.598 -9.649,-3.134 0.614,-2.52 4.241,-0.799 V 7.559 c 0,-6.33 3.441,-8.419 9.587,-8.419 1.352,0 6.453,2.704 7.928,3.441 0.553,-0.614 2.889,-3.441 4.179,-3.441 m 42.147,0.86 0.614,2.458 -4.855,2.336 v 15.425 c 0,6.33 -3.38,8.42 -9.526,8.42 -1.229,0 -7.006,-3.011 -7.989,-3.503 -0.922,1.106 -2.766,3.503 -4.302,3.503 -0.922,0 -5.961,-3.134 -5.961,-3.134 l 0.676,-2.52 4.179,-0.799 V 4.794 l -4.732,-2.582 0.43,-2.396 c 1.966,0 5.47,0.184 7.866,0.184 h 6.269 l 0.553,2.212 -3.749,2.582 v 17.023 c 1.967,0.615 3.872,0.984 5.839,0.984 3.134,0 3.81,-1.475 3.81,-4.856 V 4.794 l -3.81,-2.52 0.614,-2.458 c 2.213,0 5.408,0.184 7.375,0.184 z m 19.997,0 0.615,2.458 -4.855,2.336 v 22.124 l -1.783,1.782 -9.71,-3.195 0.676,-2.582 4.241,-0.737 V 4.794 l -4.794,-2.582 0.369,-2.396 c 2.089,0 6.268,0.184 8.051,0.184 z m -3.564,36.69 v 1.29 c 0,1.168 -3.196,3.688 -4.302,3.688 -1.168,0 -4.487,-2.95 -4.487,-4.118 v -1.106 c 0,-1.229 3.319,-3.687 4.487,-3.687 1.106,0 4.302,2.765 4.302,3.933 m 20.778,-37.55 c 9.218,0 14.135,7.497 14.135,15.364 0,8.542 -4.364,14.073 -13.828,14.073 -9.218,0 -14.135,-7.497 -14.135,-15.364 0,-8.481 4.486,-14.073 13.828,-14.073 m 0.369,23.906 c 5.715,0 6.821,-4.302 6.821,-9.648 0,-5.04 -2.089,-9.28 -7.252,-9.28 -5.346,0 -6.944,5.408 -6.944,10.509 0,3.933 0.86,6.883 1.352,7.436 0.553,0.553 2.95,0.983 6.023,0.983 M 251.28,0 l 0.615,2.458 -4.855,2.336 v 15.425 c 0,6.33 -3.38,8.42 -9.526,8.42 -1.229,0 -7.006,-3.011 -7.989,-3.503 -0.922,1.106 -2.766,3.503 -4.302,3.503 -0.922,0 -5.962,-3.134 -5.962,-3.134 l 0.676,-2.52 4.179,-0.799 V 4.794 l -4.732,-2.582 0.43,-2.396 c 1.967,0 5.47,0.184 7.867,0.184 h 6.268 l 0.554,2.212 -3.749,2.582 v 17.023 c 1.966,0.615 3.871,0.984 5.838,0.984 3.134,0 3.81,-1.475 3.81,-4.856 V 4.794 l -3.81,-2.52 0.615,-2.458 c 2.212,0 5.408,0.184 7.375,0.184 z m 16.107,-0.86 c 3.934,0 9.035,1.597 12.169,5.039 l -1.168,2.827 c -3.257,-1.475 -6.822,-2.151 -9.403,-2.151 -5.224,0 -7.497,3.749 -7.62,8.85 h 18.006 c 0.062,1.905 0.123,3.196 0.123,4.056 0,6.146 -3.81,10.878 -10.877,10.878 -9.096,0 -14.074,-8.235 -14.074,-15.795 0,-7.374 4.117,-13.704 12.844,-13.704 m 5.286,19.113 -0.431,-0.43 c -3.38,-0.246 -7.497,-0.308 -11.062,-0.369 0.553,4.302 3.257,5.777 7.805,5.777 0.922,0 2.704,-0.185 2.95,-0.43 0.615,-0.615 0.738,-3.319 0.738,-4.548"
             style="fill:#004a93;fill-opacity:1;fill-rule:nonzero;stroke:none"
             id="path28" /></g></g></g></g></svg>
