<?xml version="1.0" encoding="utf-8"?>
<!-- Generator: Adobe Illustrator 26.4.1, SVG Export Plug-In . SVG Version: 6.00 Build 0)  -->
<svg version="1.1" id="Layer_1" xmlns="http://www.w3.org/2000/svg" xmlns:xlink="http://www.w3.org/1999/xlink" x="0px" y="0px"
	 viewBox="0 0 260.5 257.3" style="enable-background:new 0 0 260.5 257.3;" xml:space="preserve">
<style type="text/css">
	.st0{clip-path:url(#SVGID_00000011752533560782268930000011287359975724676014_);fill:#AF896C;}
	.st1{clip-path:url(#SVGID_00000011752533560782268930000011287359975724676014_);fill:#939598;}
	.st2{clip-path:url(#SVGID_00000011752533560782268930000011287359975724676014_);fill:#6E1517;}
	.st3{clip-path:url(#SVGID_00000011752533560782268930000011287359975724676014_);fill:#8E1416;}
</style>
<g>
	<defs>
		<rect id="SVGID_1_" width="260.5" height="257.3"/>
	</defs>
	<clipPath id="SVGID_00000098937783395684698820000016635273757325840826_">
		<use xlink:href="#SVGID_1_"  style="overflow:visible;"/>
	</clipPath>
	<path style="clip-path:url(#SVGID_00000098937783395684698820000016635273757325840826_);fill:#AF896C;" d="M148.5,124.8
		c0.5,0.3,0.7,0.9,1.2,1.1c0.3,0.3,0.7,0.4,1.1,0.6c0.2,0.2,0.6,0.3,0.9,0.3c0.5-0.1,0.9-0.3,1.4-0.3c0.5-0.2,1.2,0,1.8,0.1
		c0.1,0.2,0.3,0,0.4,0.1c0.2,0.1,0.4,0.1,0.4-0.2c-0.4-0.3-0.6-0.9-1.2-1.1c-0.4,0-0.6-0.3-1-0.3c-0.3,0.2-0.7,0.1-1,0.3
		c-1.1,0-2.2,0.1-3.1-0.6c-0.4,0-0.6-0.6-0.9-0.3C148.4,124.6,148.5,124.7,148.5,124.8"/>
	<path style="clip-path:url(#SVGID_00000098937783395684698820000016635273757325840826_);fill:#AF896C;" d="M156.3,126.1
		c0.9,0.7,2,0.8,3.2,0.7c0.4-0.2,0.7,0,1.1-0.1c0.4-0.1,0.7,0.2,1.1,0c0-0.1,0-0.2,0-0.2c-0.6-0.3-0.8-1.3-1.6-1.1
		c-0.3-0.2-0.6,0.1-0.9,0c-0.2-0.3-0.4,0.2-0.7,0.1c-0.6,0-1.3,0.1-1.9-0.1c-0.4,0-0.8-0.3-1.2-0.5c-0.1-0.1-0.3-0.1-0.4,0
		c0.1,0.6,0.7,0.7,1.1,1.2C156.2,125.9,156.3,126,156.3,126.1"/>
	<path style="clip-path:url(#SVGID_00000098937783395684698820000016635273757325840826_);fill:#AF896C;" d="M165.2,126.6
		c0.7,0.1,1.4,0,2.1,0.2c0.4-0.3-0.3-0.5-0.3-0.8c-0.7-0.7-1.8-1-2.7-0.6c-0.3-0.1-0.6,0.2-0.8-0.1c-0.4,0.2-0.9-0.2-1.3-0.2
		c-0.4-0.1-0.6-0.5-1-0.5c-0.3,0.4,0.5,0.7,0.6,1.1c0.3,0.1,0.6,0.4,0.8,0.6c0.3,0.1,0.5,0.4,0.9,0.4
		C164,126.7,164.7,126.8,165.2,126.6"/>
	<path style="clip-path:url(#SVGID_00000098937783395684698820000016635273757325840826_);fill:#AF896C;" d="M167.7,125.7
		c0.1,0.3,0.5,0.2,0.6,0.5c0.2,0,0.2,0.2,0.4,0.2c0.6,0.5,1.7,0.3,2.4,0.4c0.4,0,0.7-0.2,1.1-0.1c0.4-0.1,0.8,0.2,1.2,0
		c0-0.1,0.2-0.1,0.1-0.2c-0.3-0.3-0.5-0.6-0.9-0.8c-0.2-0.2-0.5-0.2-0.7-0.4c-1.2-0.2-2.4,0.4-3.6-0.2c-0.5,0-0.8-0.3-1.3-0.5
		c-0.2,0-0.1,0.2-0.2,0.3C167,125.3,167.4,125.4,167.7,125.7"/>
	<path style="clip-path:url(#SVGID_00000098937783395684698820000016635273757325840826_);fill:#AF896C;" d="M176.4,126.8
		c0.9-0.2,1.8-0.1,2.7-0.1c0.3-0.2-0.1-0.3-0.1-0.5c-0.4-0.8-1.4-1.1-2.2-1.1c-1.1,0.3-2.3,0.2-3.4-0.1c-0.2-0.3-0.5-0.4-0.8-0.5
		c-0.1,0.1-0.1,0.2-0.1,0.3c0.2,0.3,0.5,0.5,0.7,0.8c0.6,0.3,0.9,0.8,1.6,0.9C175.3,126.8,175.9,126.5,176.4,126.8"/>
	<path style="clip-path:url(#SVGID_00000098937783395684698820000016635273757325840826_);fill:#AF896C;" d="M202.4,126.5
		c0.9-0.2,1.7,0.2,2.5-0.1c0.7,0.1,1.7,0.1,2.4,0.1c0.7-0.1,1.5,0.1,2.2-0.1c0.3-0.2,0-0.4-0.2-0.4c-0.8,0-1.7,0.1-2.6,0
		c-0.2,0.1-0.3,0.1-0.5,0c-0.7,0.1-1.2-0.1-1.9-0.1c-0.2,0.2-0.5,0-0.7,0.1c-0.4,0.1-0.6-0.2-1,0c-1.3-0.1-2.7,0.1-4.1,0
		c-0.5,0.1-1.1,0.1-1.6,0.1c-0.9-0.1-1.6,0-2.4,0c-0.6-0.1-1.3,0-1.8,0c-0.6,0.1-1.1-0.1-1.8,0c-0.7,0.1-1.5,0-2.3,0
		c-0.8-0.1-1.7,0-2.6,0c-0.2,0-0.3,0-0.4,0c-1.8,0.2-3.6-0.1-5.3,0.1c-0.1,0-0.3,0.1-0.3,0.3c0.2,0.2,0.5,0.2,0.7,0.3
		c0.4-0.1,0.9,0,1.4-0.1c1.5,0,2.9-0.1,4.4-0.1c0.4,0,0.9,0.1,1.3,0c0.8,0,1.7,0,2.5,0c0.3-0.1,0.6,0.1,0.9-0.1c1,0.1,1.8,0,2.7-0.1
		c0.5,0.2,1-0.1,1.4,0.1c0.5-0.1,1.1,0,1.6,0c0.7,0.2,1.4-0.2,2.1,0C200.3,126.4,201.3,126.6,202.4,126.5"/>
	<path style="clip-path:url(#SVGID_00000098937783395684698820000016635273757325840826_);fill:#AF896C;" d="M182.3,125
		c0.5,0.1,1,0.1,1.5,0c0.7,0.1,1.5-0.1,2.2,0c0.4,0.1,0.8-0.1,1.2,0c0.9,0.1,1.7-0.1,2.5,0c0.4-0.1,0.9-0.1,1.3-0.1
		c0.2,0.1,0.4,0.2,0.6,0c0.9-0.1,1.9,0,2.8,0c0.5,0,0.9-0.1,1.3,0c1.3-0.1,2.7,0,4.1,0c0.5,0,1,0,1.5,0c0.3,0.1,0.6-0.1,0.8,0
		c0.8-0.1,1.8-0.1,2.7-0.1c0.3,0,0.7,0,0.9,0.1c0.2-0.1,0.4-0.1,0.5-0.3c-0.1-0.4-0.5-0.3-0.8-0.4c-0.4,0-0.7,0.1-1,0
		c-0.6,0.1-1.2,0-1.8,0.1c-0.7-0.1-1.5,0-2.1-0.1c-0.5,0-0.9,0.2-1.4,0c-0.3,0.1-0.5-0.1-0.8,0.1c-0.3-0.2-0.4,0.1-0.7-0.1
		c-0.5,0.2-1.1-0.1-1.6,0.1c-1.6,0-3,0.2-4.5,0c-0.1,0.1-0.2,0.1-0.3,0.1c-1.3-0.2-2.4,0.1-3.7,0c-0.2,0-0.4,0.1-0.6,0.1
		c-0.3,0.1-0.6,0-0.8,0c-1.1,0-2.1-0.1-3.3,0c-0.3-0.1-0.6,0-0.9,0.1l-0.1-0.1c-0.5,0.1-1-0.1-1.5,0c-0.5,0-1.2-0.2-1.5,0.3l0.2,0.2
		C180.3,125,181.3,125.1,182.3,125"/>
	<path style="clip-path:url(#SVGID_00000098937783395684698820000016635273757325840826_);fill:#AF896C;" d="M148.6,123.5
		c0.6,0.1,1,0.6,1.7,0.6c0.3,0.2,0.8,0.4,1.1,0.2c0.2,0.1,0.5,0.1,0.7,0.1c0.5,0.1,0.9-0.1,1.4-0.2c0.3-0.4,0.8-0.4,1.2-0.4
		c0.4-0.2,0.9-0.2,1.3-0.4c0,0,0.1-0.1,0-0.2c-0.5-0.1-1-0.1-1.5-0.2c-0.3-0.2-0.8-0.3-1.1-0.4c-0.5-0.2-1-0.2-1.6-0.3
		c-0.5,0.3-1,0.1-1.5,0.2c-0.2,0.2-0.6,0.2-0.8,0.4c-0.3,0.1-0.7,0.2-1,0.4C148.4,123.3,148.5,123.4,148.6,123.5"/>
	<path style="clip-path:url(#SVGID_00000098937783395684698820000016635273757325840826_);fill:#AF896C;" d="M161,123
		c-0.2,0-0.4-0.3-0.6-0.2c-0.4-0.3-0.9-0.1-1.2-0.4c-0.5,0.1-0.7-0.3-1.1-0.2c-0.5,0.1-1.1,0.1-1.6,0.3l-0.1,0c0,0-0.1,0-0.1,0.1
		c0.3,0.5,1.1,0.1,1.5,0.6c0.2,0.1-0.1,0.3-0.1,0.4c-0.1,0.1-0.2,0.2-0.3,0.1c-0.3,0.3-0.7,0.2-1,0.3c0,0.1,0,0.2,0,0.3
		c0.5,0.1,1.1,0.2,1.7,0.2c0.5-0.2,1.1,0,1.5-0.3c0.4,0.1,0.6-0.4,1.1-0.3c0.3-0.5,1-0.2,1.4-0.6C161.8,122.9,161.3,123,161,123"/>
	<path style="clip-path:url(#SVGID_00000098937783395684698820000016635273757325840826_);fill:#AF896C;" d="M162.3,124
		c0.1,0.3,0.6,0.2,0.8,0.4c0.1,0,0.2,0,0.3,0c0.7-0.1,1.5-0.2,2.1-0.5c0.4,0.1,0.7-0.3,1.1-0.4c0.4-0.1,0.8,0,1.2-0.3
		c0.1-0.2-0.1-0.1-0.2-0.3c-0.5,0.1-1-0.2-1.6-0.2c-0.3-0.5-1-0.1-1.3-0.5c-0.5,0-1.1-0.2-1.6,0c-0.2-0.1-0.3,0.1-0.6,0.1
		c-0.1,0.1-0.4,0.2-0.2,0.3c0.5,0.2,1,0,1.2,0.5C163.5,124,162.6,123.5,162.3,124"/>
	<path style="clip-path:url(#SVGID_00000098937783395684698820000016635273757325840826_);fill:#AF896C;" d="M168.1,124
		c-0.1,0.1,0,0.2,0,0.3l1.8,0.1c0.6-0.2,1.2-0.3,1.8-0.5c0.6-0.5,1.4-0.1,2-0.5c0-0.1,0-0.2-0.1-0.2c-0.3-0.1-0.6,0-0.9-0.2
		c-0.7-0.1-1.3-0.4-1.9-0.4c-0.2-0.2-0.5-0.2-0.8-0.3c-0.6,0.1-1.2-0.1-1.7,0.2c-0.1,0.1-0.4-0.1-0.4,0.1c0.3,0.4,0.6,0.1,1,0.3
		c0.2,0.1,0.2,0.3,0.2,0.5c-0.1,0.2-0.3,0.2-0.4,0.3C168.5,123.6,168.3,123.9,168.1,124"/>
	<path style="clip-path:url(#SVGID_00000098937783395684698820000016635273757325840826_);fill:#AF896C;" d="M173.8,123.9
		c0,0.1-0.1,0.2,0,0.4c0.6,0.1,1.2,0.1,1.7,0.2c0.5-0.1,1-0.3,1.5-0.3c0.3-0.4,0.9-0.3,1.3-0.6c0.4-0.1,0.9,0,1.1-0.3
		c-0.2-0.4-0.6-0.2-0.9-0.3c-0.1-0.3-0.4-0.1-0.6-0.2c-0.2-0.2-0.6-0.1-0.8-0.3c-0.4-0.2-0.8-0.1-1.1-0.3c-0.5-0.2-1,0-1.5,0
		c-0.2,0.3-0.7,0.1-0.8,0.4c0.4,0.2,1,0.2,1.4,0.6c0,0.2-0.2,0.2-0.2,0.4C174.5,123.5,174.3,123.9,173.8,123.9"/>
	<path style="clip-path:url(#SVGID_00000098937783395684698820000016635273757325840826_);fill:#AF896C;" d="M209.3,122.8
		c-0.6,0-1.1,0-1.7,0c-0.6,0.1-1.1-0.1-1.7,0c-0.3,0-0.6,0-0.9-0.1c-0.5,0.2-1.1,0.1-1.7,0.1c-0.2-0.1-0.3,0-0.5,0
		c-0.4,0-0.9,0-1.2-0.1c-0.4,0.2-0.9,0-1.3,0.1c-0.3-0.1-0.6,0-0.9,0c-0.6,0-1.2-0.1-1.8,0c-0.4,0.1-0.9-0.2-1.3,0
		c-1.1,0-2.2,0-3.4,0c-0.3-0.1-0.5,0.2-0.8,0c-0.6,0-1.5,0.1-2.2,0c-0.1-0.1-0.2-0.1-0.3,0c-1.4,0-2.7,0.1-4,0c-0.7,0-1.2,0-1.9,0
		c-0.5-0.1-0.9,0.1-1.4-0.1c-0.3,0-0.6,0.3-0.9,0.1l-0.9,0c-0.1,0-0.3,0.1-0.3,0.2c0,0.3,0.3,0.1,0.5,0.2c0.5-0.1,1.1,0,1.6,0
		c0.4-0.1,0.8,0.1,1.2-0.1c0.9,0.2,1.6-0.2,2.5,0.1c0.6-0.1,1.4-0.1,2.1-0.1c0.7,0.2,1.3-0.2,2,0c0.2,0,0.3-0.1,0.5,0
		c1,0,2.1,0.1,3.1-0.1c1,0.1,2.1-0.1,3,0.1c0.5-0.1,1.1,0.1,1.5-0.1c0.3-0.1,0.5,0.2,0.7,0c0.4,0.1,0.8-0.1,1.2,0c0.9,0,1.7,0,2.6,0
		c0.1,0,0.1-0.2,0.2,0c0.2,0,0.5,0.2,0.8,0c0.2,0,0.3,0,0.5-0.1c0.1,0.2,0.2-0.1,0.3,0.1c0.4-0.1,0.8,0.1,1.2,0
		c1.1,0.1,2.2-0.1,3.3,0.1c0.2-0.1,0.6,0,0.6-0.3C209.5,122.9,209.4,122.8,209.3,122.8"/>
	<path style="clip-path:url(#SVGID_00000098937783395684698820000016635273757325840826_);fill:#AF896C;" d="M155.4,120
		c-0.7,0.4-1.4,0.2-2.2,0.3c-0.2,0-0.3-0.2-0.5-0.2c-0.6-0.1-1.1-0.2-1.7,0c-0.1,0-0.2,0.2-0.3,0.1c-0.2,0.3-0.6,0.3-0.9,0.6
		c-0.2,0.5-0.8,0.5-1,1c0.1,0.2-0.3,0.2-0.1,0.4c0,0.1,0.1,0.2,0.2,0.2c0.3-0.2,0.6-0.5,0.9-0.6c0.4,0.1,0.5-0.5,1-0.3
		c0.3-0.3,0.8-0.1,1.2-0.2c0.2-0.2,0.4,0.1,0.6,0c0.1,0.2,0.3,0,0.5,0.2c0.5,0,0.8,0.2,1.3,0c0.4,0,0.5-0.5,0.9-0.5
		c0.2-0.4,0.9-0.5,0.7-1C155.6,119.9,155.5,119.9,155.4,120"/>
	<path style="clip-path:url(#SVGID_00000098937783395684698820000016635273757325840826_);fill:#AF896C;" d="M155.1,121.9
		c0.6,0.3,1-0.5,1.5-0.4c0.2-0.3,0.6,0.1,0.8-0.2c0.3-0.1,0.8-0.1,1.2,0c0.3-0.2,0.6,0.2,0.8,0.1c0.3-0.1,0.8,0,1.1-0.3
		c0.6-0.1,1-0.8,1.3-1.1c-0.2-0.3-0.5-0.1-0.7,0c-0.3-0.1-0.6,0-0.8,0c-0.6-0.1-1.1,0-1.6-0.3c-0.4,0.4-1-0.1-1.3,0.4
		c-0.3,0.2-0.6,0.2-0.8,0.4c-0.5,0.2-0.9,0.6-1.2,0.9C155.3,121.6,155.1,121.6,155.1,121.9"/>
	<path style="clip-path:url(#SVGID_00000098937783395684698820000016635273757325840826_);fill:#AF896C;" d="M164.1,119.8
		c-0.4,0.2-0.8,0.1-1.1,0.4c-0.2,0.1-0.3,0.4-0.7,0.4c-0.4,0.4-1.2,0.7-1.1,1.3l0.2,0c0.3-0.4,0.8-0.6,1.3-0.7c0.4,0,1-0.3,1.4,0
		c0.1-0.1,0.3,0,0.4-0.1c0.3,0.3,0.8,0.1,1.2,0.1c0.1,0,0.3-0.1,0.4-0.2c0.4,0.1,0.6-0.4,0.9-0.5c0.1-0.4,0.7-0.3,0.6-0.8
		c-0.3,0-0.6,0-0.8,0.1C165.9,119.9,165.1,120.1,164.1,119.8"/>
	<path style="clip-path:url(#SVGID_00000098937783395684698820000016635273757325840826_);fill:#AF896C;" d="M172.2,119.9
		c-0.4-0.2-0.7,0.1-1.1,0c-0.4-0.2-0.9,0-1.4-0.1l-0.1,0.1c-0.6-0.1-1,0.5-1.6,0.6c-0.5,0.5-1.2,0.7-1.3,1.4l0.2,0
		c0.5-0.1,0.6-0.6,1.1-0.6c0.4-0.3,0.9-0.2,1.4-0.2c0.3-0.1,0.7-0.1,1.1,0c0.6,0.2,1.4,0.1,1.8-0.3c0.3-0.1,0.5-0.3,0.8-0.4
		c0.1-0.2,0.3-0.4,0.2-0.6c-0.1,0-0.3-0.1-0.4-0.1C172.7,119.9,172.4,119.9,172.2,119.9"/>
	<path style="clip-path:url(#SVGID_00000098937783395684698820000016635273757325840826_);fill:#AF896C;" d="M179.3,119.8
		c-0.7-0.2-1.3,0.3-1.9,0.1c-0.3,0.2-0.6-0.1-0.9,0c-0.6-0.1-1.2-0.1-1.8,0.1c-0.1,0.3-0.6,0.3-0.7,0.6l-0.7,0.4
		c-0.2,0.4-0.6,0.4-0.6,0.8c0.3,0.5,0.6-0.1,1-0.2c0.3-0.3,0.8-0.1,1.1-0.3c0.4,0,0.9-0.1,1.4,0c0.3,0.1,0.7,0.1,1,0.2
		c0.7,0.1,1.3-0.4,1.8-0.7C179,120.3,179.5,120.2,179.3,119.8"/>
	<path style="clip-path:url(#SVGID_00000098937783395684698820000016635273757325840826_);fill:#AF896C;" d="M182.9,121.9
		c0.4,0.3,0.7-0.2,1.1,0c0.7-0.1,1.2,0,1.8-0.1c0.3-0.1,0.5,0.3,0.7,0c2.1,0,4.4,0.1,6.4,0c0.4,0.1,0.8,0,1.2,0.1
		c0.9-0.1,1.9,0,2.8,0c0.5,0,1.2,0.1,1.7-0.1c1,0,2.1,0.1,3,0c0.7,0.1,1.4-0.2,2.1,0c0.4-0.1,0.9-0.2,1.3,0c0.5-0.1,1.1,0.2,1.3-0.2
		c-0.1-0.2-0.2-0.2-0.3-0.3c-1.1,0-2,0.1-3,0c-0.2,0.1-0.4,0-0.6,0c-0.8,0.1-1.6,0-2.3,0c-0.4-0.1-0.9,0.1-1.2,0
		c-0.4,0.2-0.9-0.2-1.3,0c-0.6-0.2-1.1,0-1.7,0c-0.9-0.1-1.8,0.1-2.6,0c-0.9,0.1-1.8-0.1-2.6,0.1c-1.9-0.1-3.7,0-5.6-0.1
		c-0.5,0.1-1.1,0-1.7,0.1c-0.2,0-0.3-0.2-0.4,0c-0.7,0-1.4,0-2.1,0c-0.5,0.1-1.1,0-1.7,0c0,0.1-0.2,0.1-0.2,0.2
		c0.3,0.4,0.7,0.2,1.2,0.2C181.2,122,182.1,121.7,182.9,121.9"/>
	<path style="clip-path:url(#SVGID_00000098937783395684698820000016635273757325840826_);fill:#AF896C;" d="M182.5,119.6
		c-0.8,0.2-1.7-0.3-2.3,0.1c0,0.1,0,0.2,0,0.2c0.5,0,1,0.3,1.5,0.1c0.3,0,0.6,0.2,0.9,0c0.2,0.1,0.5,0,0.7-0.1c0.8,0.1,1.7,0,2.5,0
		c0.6,0.2,1.2-0.1,1.8,0.1c0.2,0,0.5-0.1,0.6,0c0.1,0,0.2,0.1,0.2-0.1c0,0,0.2,0,0.2,0.1c0.2,0.1,0.3,0,0.4-0.1
		c1.1,0.1,2.2-0.1,3.3,0.1c0.4-0.1,0.9-0.1,1.3,0c0.2-0.2,0.5,0.1,0.8,0c0.4-0.2,0.8,0,1.2-0.1c0.1,0,0.2,0.2,0.2,0
		c1.3-0.1,2.8,0,4-0.1c0.4,0.1,0.7,0.2,1,0c0.3,0.2,0.4-0.2,0.7,0.1c0.1,0.1,0.2-0.1,0.3,0c1.1-0.1,2.2,0,3.2,0
		c0.6-0.3,1.2,0.2,1.8-0.1c0.3,0,0.6,0.1,0.9,0.1c0.2-0.1,0.4,0,0.6,0c0.4,0.2,0.8,0.1,1.2-0.1c0-0.1,0.1-0.2-0.1-0.3
		c-0.3-0.1-0.6-0.1-0.8-0.2c-0.8,0.1-1.7,0.1-2.4,0.1l0-0.2c-0.1-0.1-0.1,0.1-0.2,0.1c-0.5,0.2-1.1,0.1-1.6,0
		c-0.4,0.1-0.9,0.1-1.3,0c-0.6,0.3-1.1-0.1-1.7,0.1c-0.6,0-1.3-0.1-1.8,0c-0.6-0.1-1.4-0.1-2.1,0c-0.9,0-2.1,0.1-3.2,0
		c-0.6-0.1-1.3-0.1-1.9,0.1c-0.5-0.2-1.1,0-1.6,0c-0.7-0.2-1.5,0.1-2.3-0.1l-0.1,0c-1.6,0-2.8,0-4.5,0
		C183.6,119.7,183,119.7,182.5,119.6"/>
	<path style="clip-path:url(#SVGID_00000098937783395684698820000016635273757325840826_);fill:#AF896C;" d="M116,121.9
		c-0.5-0.3-0.7-0.9-1.2-1.1c-0.3-0.3-0.7-0.4-1.1-0.6c-0.2-0.2-0.6-0.3-0.9-0.3c-0.5,0.1-0.9,0.3-1.4,0.3c-0.5,0.2-1.2,0-1.8-0.1
		c-0.1-0.2-0.3,0-0.4-0.1c-0.2-0.1-0.4-0.1-0.4,0.2c0.4,0.3,0.6,0.9,1.2,1.1c0.4,0,0.6,0.3,1,0.3c0.3-0.2,0.7-0.1,1-0.3
		c1.1,0,2.2-0.1,3.1,0.6c0.4,0,0.6,0.6,0.9,0.3C116.2,122,116,122,116,121.9"/>
	<path style="clip-path:url(#SVGID_00000098937783395684698820000016635273757325840826_);fill:#AF896C;" d="M102.8,120
		c0,0.1,0,0.2,0,0.2c0.6,0.3,0.8,1.3,1.6,1.1c0.3,0.2,0.6-0.1,0.9,0c0.2,0.3,0.4-0.2,0.7-0.1c0.6,0,1.3-0.1,1.9,0.1
		c0.4,0,0.8,0.3,1.2,0.5c0.1,0.1,0.3,0.1,0.4,0c-0.1-0.6-0.8-0.7-1.1-1.2c-0.1,0-0.2,0-0.2-0.2c-0.9-0.7-2-0.8-3.2-0.7
		c-0.4,0.2-0.7,0-1.1,0.1C103.5,120.1,103.2,119.8,102.8,120"/>
	<path style="clip-path:url(#SVGID_00000098937783395684698820000016635273757325840826_);fill:#AF896C;" d="M101.9,120.4
		c-0.3-0.1-0.5-0.4-0.9-0.4c-0.6,0-1.2-0.1-1.8,0.1c-0.7-0.1-1.4,0-2.1-0.2c-0.4,0.3,0.3,0.5,0.3,0.8c0.7,0.7,1.8,1,2.7,0.6
		c0.3,0.1,0.6-0.2,0.8,0.1c0.4-0.2,0.9,0.2,1.3,0.2c0.4,0.1,0.6,0.5,1,0.5c0.3-0.4-0.5-0.7-0.6-1.1
		C102.4,120.8,102.2,120.6,101.9,120.4"/>
	<path style="clip-path:url(#SVGID_00000098937783395684698820000016635273757325840826_);fill:#AF896C;" d="M96.3,120.5
		c-0.2,0-0.2-0.2-0.4-0.2c-0.6-0.5-1.7-0.3-2.4-0.4c-0.4,0-0.7,0.2-1.1,0.1c-0.4,0.1-0.8-0.2-1.2,0c0,0.1-0.2,0.1-0.1,0.2
		c0.3,0.3,0.5,0.6,0.9,0.8c0.2,0.2,0.5,0.2,0.7,0.4c1.2,0.2,2.4-0.4,3.6,0.2c0.5,0,0.8,0.3,1.3,0.5c0.2,0,0.1-0.2,0.2-0.3
		c-0.2-0.4-0.6-0.5-0.9-0.8C96.8,120.7,96.4,120.8,96.3,120.5"/>
	<path style="clip-path:url(#SVGID_00000098937783395684698820000016635273757325840826_);fill:#AF896C;" d="M85.4,120
		c-0.3,0.2,0.1,0.3,0.1,0.5c0.4,0.8,1.4,1.1,2.2,1.1c1.1-0.3,2.3-0.2,3.4,0.1c0.2,0.2,0.5,0.4,0.8,0.5c0.1-0.1,0.1-0.2,0.1-0.3
		c-0.2-0.3-0.5-0.5-0.7-0.8c-0.6-0.3-0.9-0.8-1.6-0.9c-0.4-0.3-1,0-1.5-0.2C87.2,120.1,86.3,120.1,85.4,120"/>
	<path style="clip-path:url(#SVGID_00000098937783395684698820000016635273757325840826_);fill:#AF896C;" d="M69.1,120.1
		c-0.5,0.1-1.1,0-1.6,0c-0.7-0.2-1.4,0.2-2.1,0c-1.1,0.1-2.2,0-3.3,0.1c-0.9,0.2-1.7-0.2-2.5,0.1c-0.7-0.1-1.7-0.1-2.4-0.1
		c-0.7,0.1-1.5-0.1-2.2,0.1c-0.3,0.2,0,0.4,0.1,0.4c0.8,0,1.7-0.1,2.6,0c0.2-0.1,0.3-0.1,0.5,0c0.7-0.1,1.2,0.1,1.9,0.1
		c0.2-0.2,0.5,0,0.7-0.1c0.4-0.1,0.6,0.2,1,0c1.3,0.1,2.7-0.1,4.1,0c0.5-0.1,1.1-0.1,1.6-0.1c0.9,0.1,1.6,0,2.4-0.1
		c0.6,0.1,1.3,0,1.8,0c0.6-0.1,1.1,0.1,1.8,0c0.7-0.1,1.5,0,2.3,0c0.8,0.1,1.7,0,2.6,0c0.2,0,0.3,0,0.4,0c1.8-0.2,3.6,0.1,5.3-0.1
		c0.1,0,0.3-0.1,0.3-0.3c-0.2-0.2-0.5-0.2-0.7-0.3c-0.5,0.1-0.9,0-1.4,0.1c-1.5,0-2.9,0.1-4.4,0.1c-0.4,0-0.9-0.1-1.3,0
		c-0.8,0-1.7,0-2.5,0c-0.3,0.1-0.6-0.1-0.9,0.1c-1-0.1-1.8,0-2.7,0.1C70.1,120,69.6,120.3,69.1,120.1"/>
	<path style="clip-path:url(#SVGID_00000098937783395684698820000016635273757325840826_);fill:#AF896C;" d="M85.5,121.6
		c-1.2,0.1-2.2,0-3.3,0.1c-0.5-0.1-1-0.2-1.5,0c-0.7-0.1-1.5,0.1-2.2,0c-0.4-0.1-0.8,0.1-1.2,0c-0.9-0.1-1.7,0.1-2.5,0
		c-0.4,0.1-0.9,0.1-1.3,0.1c-0.2-0.1-0.4-0.2-0.6,0c-0.9,0.1-1.9,0-2.8,0c-0.5,0-0.9,0.1-1.3,0c-1.3,0.1-2.7,0-4.1,0
		c-0.5,0-1,0-1.5,0c-0.3-0.1-0.6,0.1-0.8,0c-0.8,0.1-1.7,0.1-2.7,0.1c-0.3,0-0.7,0-0.9-0.1c-0.2,0.1-0.4,0.1-0.5,0.3
		c0.1,0.4,0.5,0.3,0.8,0.4c0.4,0,0.7-0.1,1,0c0.6-0.1,1.2,0,1.8-0.1c0.7,0.1,1.5,0,2.1,0.1c0.5,0,0.9-0.2,1.4,0
		c0.3-0.1,0.5,0.1,0.8-0.1c0.3,0.2,0.4-0.1,0.7,0.1c0.5-0.2,1.1,0.1,1.6-0.1c1.6,0.1,3-0.2,4.5,0c0.1-0.1,0.2-0.1,0.3-0.1
		c1.3,0.2,2.4-0.1,3.7,0c0.2,0,0.4-0.1,0.6-0.1c0.3-0.1,0.6,0,0.8,0c1.1,0,2.2,0.1,3.3,0c0.3,0.1,0.6,0,0.9-0.1l0.1,0.1
		c0.5-0.1,1,0.1,1.5,0c0.5,0,1.2,0.2,1.5-0.3L85.5,121.6z"/>
	<path style="clip-path:url(#SVGID_00000098937783395684698820000016635273757325840826_);fill:#AF896C;" d="M115.9,123.2
		c-0.6-0.1-1-0.6-1.7-0.6c-0.3-0.2-0.8-0.4-1.1-0.2c-0.2-0.1-0.5-0.1-0.7-0.1c-0.5-0.1-0.9,0.1-1.4,0.2c-0.3,0.4-0.8,0.4-1.2,0.4
		c-0.4,0.2-0.9,0.2-1.3,0.4c0,0-0.1,0.1,0,0.2c0.5,0.1,1,0.1,1.5,0.2c0.3,0.2,0.8,0.3,1.1,0.4c0.5,0.2,1,0.2,1.6,0.3
		c0.5-0.3,1-0.1,1.5-0.2c0.2-0.2,0.6-0.2,0.8-0.4c0.3-0.1,0.7-0.2,1-0.4C116.1,123.4,116,123.3,115.9,123.2"/>
	<path style="clip-path:url(#SVGID_00000098937783395684698820000016635273757325840826_);fill:#AF896C;" d="M107.3,123.1
		c0.3-0.3,0.7-0.2,1-0.3c0-0.1,0-0.2,0-0.3c-0.5-0.1-1.1-0.2-1.7-0.2c-0.5,0.2-1.1,0-1.5,0.3c-0.4-0.1-0.6,0.4-1.1,0.3
		c-0.3,0.5-1,0.2-1.4,0.6c0.2,0.4,0.7,0.3,1,0.3c0.2,0.1,0.4,0.3,0.6,0.2c0.4,0.3,0.9,0.1,1.2,0.4c0.5-0.1,0.7,0.3,1.1,0.2
		c0.5-0.1,1.1-0.1,1.6-0.3l0.1,0c0,0,0.1,0,0.1-0.1c-0.3-0.5-1.1-0.1-1.5-0.6c-0.2-0.1,0.1-0.3,0.1-0.4
		C107,123.1,107.2,123,107.3,123.1"/>
	<path style="clip-path:url(#SVGID_00000098937783395684698820000016635273757325840826_);fill:#AF896C;" d="M102.3,122.6
		c-0.1-0.3-0.6-0.2-0.8-0.4c-0.1,0-0.2,0-0.3,0c-0.7,0.1-1.5,0.2-2.1,0.5c-0.4-0.1-0.7,0.3-1.1,0.4c-0.4,0.1-0.8,0-1.2,0.3
		c-0.1,0.2,0.1,0.1,0.2,0.2c0.5-0.1,1,0.2,1.6,0.2c0.3,0.5,1,0.1,1.3,0.5c0.5,0,1.1,0.2,1.6,0c0.2,0.1,0.3-0.1,0.6-0.1
		c0.1-0.1,0.4-0.2,0.2-0.3c-0.5-0.2-1,0-1.2-0.5C101,122.7,102,123.1,102.3,122.6"/>
	<path style="clip-path:url(#SVGID_00000098937783395684698820000016635273757325840826_);fill:#AF896C;" d="M91.8,123.7
		c0.7,0.1,1.3,0.4,1.9,0.4c0.2,0.2,0.5,0.2,0.8,0.3c0.6-0.1,1.2,0.1,1.7-0.2c0.1-0.1,0.4,0.1,0.4-0.1c-0.3-0.4-0.6-0.2-1-0.3
		c-0.2-0.1-0.2-0.3-0.2-0.5c0.1-0.2,0.3-0.2,0.4-0.3c0.3,0.1,0.5-0.2,0.8-0.3c0.1-0.1,0-0.2,0-0.3l-1.8-0.1
		c-0.6,0.2-1.2,0.3-1.8,0.5c-0.6,0.5-1.4,0.1-2,0.5c0,0.1,0,0.2,0.1,0.2C91.2,123.7,91.5,123.6,91.8,123.7"/>
	<path style="clip-path:url(#SVGID_00000098937783395684698820000016635273757325840826_);fill:#AF896C;" d="M86.6,123.9
		c0.2,0.2,0.6,0.1,0.8,0.3c0.4,0.2,0.8,0.1,1.1,0.3c0.5,0.2,1,0,1.5,0c0.2-0.3,0.7-0.1,0.8-0.4c-0.4-0.2-1-0.1-1.4-0.6
		c0-0.2,0.2-0.2,0.2-0.4c0.5,0.1,0.7-0.4,1.1-0.3c0-0.1,0.1-0.2,0-0.4c-0.6-0.1-1.2-0.1-1.7-0.2c-0.5,0.1-1,0.3-1.5,0.3
		c-0.3,0.4-0.9,0.3-1.3,0.6c-0.4,0.1-0.9,0-1.1,0.3c0.2,0.4,0.6,0.2,0.9,0.3C86.1,124,86.4,123.8,86.6,123.9"/>
	<path style="clip-path:url(#SVGID_00000098937783395684698820000016635273757325840826_);fill:#AF896C;" d="M55.3,123.9
		c0.6,0,1.1,0,1.7,0c0.6-0.1,1.1,0.1,1.7,0c0.3,0,0.6,0,0.9,0.1c0.5-0.2,1.1,0,1.7-0.1c0.2,0.1,0.3,0,0.5,0c0.4,0,0.9,0,1.2,0.1
		c0.4-0.2,0.9,0,1.3-0.1c0.3,0.1,0.6,0,0.8,0c0.6,0,1.2,0.1,1.8,0c0.4-0.1,0.9,0.2,1.3,0c1.1,0,2.2,0,3.4,0c0.3,0.1,0.5-0.2,0.8,0
		c0.6,0,1.5-0.1,2.2,0c0.1,0.1,0.2,0.1,0.3,0c1.4,0,2.7-0.1,4,0c0.7,0,1.2,0,1.9,0c0.5,0.1,0.9-0.1,1.4,0c0.3,0,0.6-0.3,0.9-0.1
		l0.9,0c0.1,0,0.3-0.1,0.2-0.2c0-0.3-0.3-0.1-0.5-0.2c-0.5,0.1-1.1,0-1.6,0c-0.4,0.1-0.8-0.1-1.2,0.1c-0.9-0.2-1.6,0.2-2.5-0.1
		c-0.7,0.1-1.4,0.1-2.1,0.1c-0.7-0.2-1.3,0.2-2,0c-0.2,0-0.3,0.1-0.5,0c-1,0-2.1-0.1-3.1,0.1c-1-0.1-2.1,0.1-3-0.1
		c-0.5,0.1-1.1-0.1-1.5,0.1c-0.3,0.1-0.5-0.2-0.7,0c-0.4-0.1-0.8,0.1-1.2,0c-0.9,0-1.7,0-2.6,0c-0.1,0-0.1,0.2-0.2,0
		c-0.2,0-0.5-0.2-0.8,0c-0.2,0-0.3,0-0.5,0.1c-0.1-0.2-0.2,0.1-0.3-0.1c-0.4,0.1-0.8-0.1-1.2,0c-1.1-0.1-2.2,0.1-3.3-0.1
		c-0.2,0.1-0.6,0-0.6,0.3C55.1,123.7,55.2,123.8,55.3,123.9"/>
	<path style="clip-path:url(#SVGID_00000098937783395684698820000016635273757325840826_);fill:#AF896C;" d="M109.2,126.7
		c0.7-0.4,1.4-0.2,2.2-0.3c0.2,0,0.3,0.2,0.5,0.2c0.6,0.1,1.1,0.2,1.7,0c0.1,0,0.2-0.2,0.3-0.1c0.2-0.3,0.6-0.3,0.9-0.6
		c0.2-0.5,0.7-0.5,1-1c-0.1-0.2,0.2-0.2,0.1-0.4c0-0.1-0.1-0.2-0.2-0.2c-0.3,0.2-0.6,0.5-0.9,0.6c-0.4-0.1-0.5,0.5-1,0.3
		c-0.3,0.3-0.8,0.1-1.2,0.2c-0.2,0.2-0.4-0.1-0.6,0c-0.1-0.2-0.3,0-0.5-0.2c-0.5,0-0.8-0.2-1.3,0c-0.4,0-0.5,0.5-0.9,0.5
		c-0.2,0.4-0.9,0.5-0.7,1C108.9,126.8,109.1,126.8,109.2,126.7"/>
	<path style="clip-path:url(#SVGID_00000098937783395684698820000016635273757325840826_);fill:#AF896C;" d="M103.4,126.7
		c0.3,0.1,0.6,0,0.8-0.1c0.6,0.1,1.1,0,1.6,0.3c0.4-0.4,1,0.1,1.3-0.4c0.3-0.2,0.6-0.2,0.8-0.4c0.5-0.2,0.9-0.6,1.2-0.9
		c0.1-0.1,0.3-0.2,0.3-0.4c-0.6-0.3-1,0.5-1.5,0.4c-0.2,0.3-0.6-0.1-0.8,0.2c-0.3,0.1-0.8,0.1-1.2,0c-0.3,0.2-0.6-0.2-0.8-0.1
		c-0.3,0.2-0.8,0-1.1,0.3c-0.6,0.1-1,0.8-1.3,1.1C102.8,127,103.2,126.7,103.4,126.7"/>
	<path style="clip-path:url(#SVGID_00000098937783395684698820000016635273757325840826_);fill:#AF896C;" d="M96.9,126.9
		c0.3,0,0.6,0,0.8-0.1c1,0,1.8-0.1,2.7,0.1c0.4-0.2,0.8-0.1,1.1-0.4c0.2-0.1,0.3-0.4,0.7-0.4c0.4-0.4,1.2-0.7,1.1-1.3l-0.2,0
		c-0.3,0.4-0.8,0.6-1.3,0.7c-0.4,0-1,0.3-1.4,0c-0.1,0.1-0.3,0-0.4,0.1c-0.3-0.3-0.8-0.1-1.2-0.1c-0.1,0-0.3,0.1-0.4,0.2
		c-0.4-0.1-0.6,0.4-0.9,0.4C97.3,126.4,96.8,126.4,96.9,126.9"/>
	<path style="clip-path:url(#SVGID_00000098937783395684698820000016635273757325840826_);fill:#AF896C;" d="M91.6,126.9
		c0.2-0.1,0.5-0.1,0.8-0.1c0.4,0.2,0.7-0.1,1.1,0c0.4,0.2,0.9,0,1.4,0.1l0.1-0.1c0.6,0.1,1-0.5,1.6-0.6c0.5-0.5,1.2-0.7,1.3-1.4
		l-0.2-0.1c-0.5,0.1-0.6,0.6-1.1,0.6c-0.4,0.3-0.9,0.2-1.4,0.2c-0.3,0.1-0.7,0.1-1.1,0c-0.6-0.2-1.4-0.1-1.8,0.3
		c-0.3,0.1-0.5,0.4-0.8,0.4c-0.1,0.2-0.3,0.4-0.2,0.6C91.3,126.8,91.4,126.9,91.6,126.9"/>
	<path style="clip-path:url(#SVGID_00000098937783395684698820000016635273757325840826_);fill:#AF896C;" d="M90.6,126.1l0.7-0.4
		c0.2-0.4,0.6-0.4,0.6-0.7c-0.3-0.5-0.6,0.1-1,0.2c-0.3,0.3-0.8,0.1-1.1,0.3c-0.4,0-0.9,0.1-1.4,0c-0.3-0.1-0.7-0.1-1-0.2
		c-0.7-0.1-1.3,0.4-1.8,0.7c-0.1,0.3-0.6,0.5-0.4,0.8c0.7,0.2,1.3-0.3,1.9-0.1c0.3-0.2,0.6,0.1,0.9,0c0.6,0.1,1.2,0.1,1.8-0.1
		C90,126.4,90.5,126.3,90.6,126.1"/>
	<path style="clip-path:url(#SVGID_00000098937783395684698820000016635273757325840826_);fill:#AF896C;" d="M81.6,124.8
		c-0.4-0.3-0.7,0.2-1.1,0.1c-0.7,0.1-1.2,0-1.8,0.1c-0.3,0.1-0.5-0.3-0.7,0c-2.1,0-4.4-0.1-6.4,0c-0.4-0.1-0.8,0-1.2-0.1
		c-0.9,0.1-1.9,0-2.8,0c-0.5,0-1.2-0.1-1.7,0.1c-1,0-2.1-0.1-3,0c-0.7-0.1-1.4,0.2-2.2,0c-0.4,0.1-0.9,0.2-1.3,0
		c-0.5,0.1-1.1-0.2-1.3,0.2c0.1,0.2,0.2,0.2,0.3,0.3c1.1,0,2-0.1,3,0c0.2-0.1,0.4,0,0.6,0c0.8-0.1,1.6,0,2.3,0c0.4,0,0.9-0.1,1.2,0
		c0.4-0.2,0.9,0.2,1.3,0c0.6,0.2,1.1,0,1.7,0c0.9,0.1,1.8-0.1,2.6,0c0.9-0.1,1.8,0.1,2.6-0.1c1.9,0.1,3.7,0,5.6,0.1
		c0.5-0.1,1.1,0,1.7-0.1c0.2,0,0.3,0.2,0.4,0c0.7,0,1.4,0,2.1,0c0.5-0.1,1.1,0,1.7,0c0-0.1,0.2-0.1,0.2-0.2
		c-0.3-0.4-0.7-0.2-1.2-0.2C83.4,124.7,82.4,125,81.6,124.8"/>
	<path style="clip-path:url(#SVGID_00000098937783395684698820000016635273757325840826_);fill:#AF896C;" d="M55.9,127.2
		c0.8-0.1,1.7-0.1,2.4-0.1l0,0.2c0.1,0.1,0.1-0.1,0.2-0.1c0.5-0.2,1.1-0.1,1.6,0c0.4-0.1,0.9-0.1,1.3,0c0.6-0.3,1.1,0.1,1.7-0.1
		c0.6,0,1.2,0.1,1.8,0c0.6,0.1,1.4,0.1,2.1,0c0.9,0,2.1-0.1,3.2,0c0.6,0.1,1.3,0.1,1.9-0.1c0.5,0.2,1.1,0,1.6,0
		c0.7,0.2,1.5-0.1,2.3,0.1l0.1,0c1.6,0,2.8,0,4.5,0c0.4-0.1,1-0.1,1.5-0.1c0.8-0.2,1.7,0.3,2.3-0.1c0-0.1,0-0.2,0-0.2
		c-0.5,0-1-0.3-1.5-0.1c-0.3,0-0.6-0.2-0.9,0c-0.2-0.1-0.5,0-0.7,0.1c-0.9-0.1-1.7-0.1-2.5,0c-0.6-0.2-1.2,0.1-1.8-0.1
		c-0.2,0-0.5,0.1-0.6,0c-0.1,0-0.2,0-0.2,0.1c0,0-0.2,0-0.2-0.1c-0.2,0-0.3,0-0.4,0.1c-1.1-0.1-2.2,0.1-3.3-0.1
		c-0.4,0.1-0.9,0.1-1.3,0c-0.2,0.2-0.5-0.1-0.8,0c-0.4,0.1-0.8,0-1.2,0c-0.1,0-0.2-0.2-0.2,0c-1.3,0.1-2.8-0.1-4,0.1
		c-0.4-0.1-0.7-0.2-1,0c-0.3-0.2-0.5,0.2-0.7-0.1c-0.1-0.1-0.2,0.1-0.3,0c-1.1,0.1-2.2,0-3.2,0c-0.6,0.3-1.2-0.2-1.8,0.1
		c-0.3,0-0.6-0.1-0.9-0.1c-0.2,0.1-0.4,0-0.6,0c-0.4-0.2-0.8-0.1-1.2,0.1c0,0.1,0,0.2,0.1,0.3C55.4,127.2,55.6,127.1,55.9,127.2"/>
	<path style="clip-path:url(#SVGID_00000098937783395684698820000016635273757325840826_);fill:#AF896C;" d="M103.2,105.3
		c-0.1,0.8-0.1,1.7,0,2.5c0.1,0.7,0.5,1.3,0.8,1.8c0,0.4-0.7-0.1-0.5,0.4c0.3,0.4,0.3,1,0.6,1.4c0.3,0.6,0.7,1,1.2,1.4
		c0.6,0.4,1.1,0.8,1.8,1.1c-0.1,0.5-0.8,0.2-0.9,0.6c0.1,0.5,0.7,0.5,1,0.8c0.7,0.3,1.4,0.8,2.1,1.2c0.5,0,0.7,0.6,1.2,0.5
		c0.5,0.3,1.1,0.4,1.6,0.7c0.2,0.1,0.3,0,0.4-0.1c0-0.2,0.1-0.3,0.1-0.5c0-0.1,0.2-0.3,0.1-0.5c-0.7-0.2-1.5-0.4-2.1-0.7
		c-0.4-0.3-0.9-0.3-1.3-0.6c-0.3-0.1-0.5-0.3-0.8-0.5c-0.2-0.5,0.6-0.3,0.5-0.7c-0.4-0.5-1.1-0.5-1.4-1.1c-0.5-0.1-0.7-0.4-1.1-0.7
		c-0.4,0-0.5-0.4-0.8-0.6c-0.1,0-0.3-0.1-0.2-0.3c0.1-0.2,0.4-0.1,0.6-0.2c0.5,0.1,1,0.3,1.4,0.3c0.2,0,0.6,0.3,0.6-0.1
		c-0.1-0.2-0.2-0.3-0.4-0.4c-0.4,0-0.5-0.4-0.8-0.4c-0.8-0.4-1.3-1.1-1.9-1.7c-0.3-0.5-0.9-1-0.8-1.7c0.2-0.4,0.6,0.1,0.9,0
		c0.2,0.3,0.6,0.4,0.8,0.6c0.3,0.2,0.4,0.5,0.8,0.4c0.1-0.2-0.1-0.4-0.2-0.6c-0.2-0.1-0.2-0.5-0.4-0.5c-0.3-0.6-0.8-1.1-1-1.8
		c0-0.3-0.2-0.4-0.3-0.6c0-0.4-0.5-0.7-0.1-1.1c0.6,0,1,0.3,1.4,0.5c0.2,0,0.3,0.2,0.4,0.2c0.1-0.4-0.3-0.8-0.3-1.1
		c-0.3-0.6-0.6-1.2-0.7-2c-0.2-0.5-0.2-1.1-0.1-1.5h0c0.1-0.3-0.1-0.7,0-1c0.1-0.1,0.2-0.2,0.4-0.2c1.4,0.3,2.8,0.7,3.7,1.8
		c0.4,0.1,0.6,0.6,0.8,0.8c0.3,0.1,0.3,0.7,0.7,0.4c0.2-0.2,0.1-0.6,0-0.8c0.1-0.4-0.3-0.8,0.1-1.1c0.1,0,0.3-0.1,0.4,0
		c0.2,0.4,0.9,0.3,1,0.9c0.1,0.1,0.3,0.1,0.2,0.3c0.3,0.2,0.5,0.4,0.7,0.7c0,0.4,0.5,0.6,0.7,0.9c0.3,0.2,0.2,0.7,0.6,0.8
		c0.3,0,0-0.2,0.1-0.4c0-0.4-0.1-0.6-0.1-1c-0.1-0.3-0.1-0.6-0.3-0.9c0-0.2,0.1-0.3,0.2-0.4c0.4-0.2,0.6,0.2,0.9,0.4
		c0.2,0.3,0.5,0.5,0.6,0.9c0.7,1.1,1,2.4,1.2,3.8c0.1,0.1,0.2,0.1,0.2,0c0-0.1,0.2-0.3,0.1-0.4c0.1-0.5,0.2-1.2,0.3-1.8
		c0.1-0.1,0.2-0.1,0.4-0.1c0.6,0.5,0.5,1.4,0.7,2c0,0.3,0.2,0.5,0.2,0.8c0,0.3,0.3,0.3,0.5,0.4c0.3,0,0.3-0.3,0.7-0.4
		c0.1,0.1,0.3,0,0.4,0.2c0.1,0.3,0.3,0.6,0.4,1c0.8,1.4,0.7,3.3,1.9,4.5c0.4,0.5,1,0.6,1.6,0.8c0.9,0.1,1.6-0.2,2.2-0.9
		c0.2-0.3,0.2-0.7,0.4-1c-0.1-0.3,0.2-0.5,0-0.7c0.2-0.1,0-0.3,0-0.5c0.2-0.4-0.4-0.6-0.2-0.9c-0.4-0.3-0.5-1-1-1.3
		c-0.3,0-0.2-0.4-0.5-0.4c-0.2-0.1-0.2-0.2-0.3-0.3c-0.8-0.9-1.6-2-2.2-3c0-0.3-0.3-0.5-0.3-0.8c-0.1-0.2,0-0.3-0.1-0.4
		c0-0.4,0.5-0.3,0.6-0.6c0-0.3,0.2-0.6,0.2-0.8c-0.2-0.4-0.3-1-0.6-1.4c0-0.4-0.3-0.6-0.3-1.1c-0.2-0.4-0.4-0.9-0.3-1.3
		c0.3-0.4,0.5,0.2,0.9,0.2c0.5,0.5,1.2,1,1.7,1.6c0.2,0.1,0.2-0.2,0.3-0.2c-0.2-0.3-0.3-0.7-0.5-1c-0.2-0.2-0.3-0.5-0.3-0.7
		c-0.3-0.4-0.3-0.9-0.5-1.5c0.1-0.2-0.2-0.3,0-0.5c-0.2-0.6-0.1-1.1,0.1-1.6c0-0.4,0.4-0.8,0.5-1.2c0.2-0.1,0.3-0.3,0.5-0.2
		c0.3,0.3,0.6,0.8,0.7,1.2c0.3,0.4,0.4,0.9,0.7,1.3c0.2,0,0.2-0.2,0.2-0.4c-0.1-0.2,0.1-0.4,0-0.7c0.1-1,0.2-1.9,0.3-2.8h0
		c0-0.3,0.2-0.6,0.3-0.9c-0.1-0.4,0.2-0.6,0.4-0.9c0.1,0,0.3-0.1,0.4,0c0.4,0.4,0.7,0.8,0.9,1.4c0.2,0.1,0.2,0.4,0.4,0.3
		c0.2-0.2,0.2-0.6,0.3-1c0.1-0.6,0.4-1.2,0.5-1.7c0.2-1.2,1.4-2,2.2-2.9c0.3-0.1,0.4-0.6,0.7-0.6c0.4,0,0.5,0.5,0.7,0.7
		c0.3,0.1,0.2,0.6,0.6,0.6c0.1,0.1,0.3,0.1,0.2,0.3c0,0.1,0.1,0.2,0.2,0.2c0.7,0.7,0.8,1.6,1.1,2.5c0,0.4,0.3,0.7,0.3,1
		c0.1,0.3-0.1,0.7,0.1,1c0.1,0.1,0.3,0,0.4,0c0.3-0.3,0.4-0.7,0.6-1.1c0.4-0.1,0.3-0.5,0.6-0.7c0.2-0.1,0.3-0.1,0.5,0
		c0.3,0.7,0.6,1.4,0.5,2.1c0.2,0.4-0.1,0.8,0.2,1.2c-0.1,0.7,0.2,1.5-0.1,2.2l0.1,0.2c0.1,0,0.2-0.1,0.3-0.1c0.3-0.4,0.5-1,0.8-1.3
		c0.4-0.3,0.4-1.2,1.1-1.2c0.1,0.1,0.2,0.2,0.2,0.4c0.2,0.1,0.2,0.4,0.3,0.7c0,0.6,0,1.2-0.1,1.8c0.1,0.9-0.4,1.6-0.6,2.3
		c-0.4,0.5-0.5,1.2-1,1.6c0,0.2,0.2,0.2,0.3,0.2c0.6-0.6,1.4-1.1,2.1-1.7c0.1-0.2,0.4-0.4,0.7-0.3c0.3,0.1,0.2,0.4,0.2,0.6
		c-0.3,0.4-0.6,0.8-0.6,1.4c-0.3,0.2-0.3,0.5-0.5,0.8c-0.1,0.6-0.6,1.2-0.5,1.9c0,0.5,0.8,0.4,0.9,0.8c-0.2,0.2-0.3,0.6-0.4,0.8
		c-0.1,0.3-0.4,0.6-0.5,1c-0.4,0.5-0.6,1.1-1.1,1.5c0,0.3-0.5,0.3-0.4,0.7c-0.4,0.4-0.8,0.9-1.3,1.3c-0.3,0.3-0.3,0.8-0.7,1
		c-0.2,0.5-0.3,1.1-0.4,1.6c0.2,0.5,0.2,1.1,0.6,1.4c0,0.3,0.3,0.2,0.4,0.4c0.4,0.1,0.6,0.4,1,0.3c0.2,0.2,0.4,0,0.6,0
		c0.5,0.1,0.8-0.3,1.2-0.3c0.5-0.3,0.8-0.9,1.2-1.3c0.1-0.5,0.5-1,0.5-1.5c0.1-0.2,0.1-0.4,0.3-0.6c0.1-0.4,0.2-0.7,0.4-1
		c0.2-0.3,0.3-0.8,0.4-1.1c0.2-0.1,0.3-0.4,0.5-0.4c0.3-0.1,0.6,0.1,0.8,0.2c0.5,0,0.7-0.6,0.8-1c0.1-0.7,0.5-1.3,0.6-2
		c0-0.1,0.2-0.2,0.3-0.1c0.4,0.1,0.3,0.5,0.4,0.8c0.2,0.5,0,1,0.2,1.4c0.1,0.1,0.2-0.1,0.2-0.2c0.3-0.9,0.6-2,1-2.9
		c0.2-0.4,0.6-0.5,0.7-0.9c0.3-0.4,0.6-0.8,1.1-1c0.2,0,0.3,0.2,0.3,0.4c-0.1,0.5-0.4,0.8-0.4,1.3c-0.1,0.4-0.3,0.6-0.2,1
		c0.3,0,0.4-0.4,0.5-0.5c0.3-0.3,0.4-0.7,0.7-0.9c0.1-0.3,0.3-0.5,0.5-0.7c0-0.1,0.1-0.3,0.3-0.2c-0.1-0.1,0.1-0.2,0.1-0.3
		c0.5-0.3,0.8-0.9,1.4-1.1c0.1,0,0.3,0.1,0.3,0.2c0.1,0.2,0.1,0.4,0,0.5c0.1,0.5-0.4,0.8-0.1,1.3c0.1,0,0.2,0,0.3,0
		c0.2-0.4,0.5-0.6,0.8-0.8c0.2-0.3,0.5-0.5,0.8-0.7c0.1-0.3,0.4-0.2,0.5-0.4c0.5-0.3,0.9-0.7,1.4-0.7c0.2-0.1,0.5,0,0.7-0.2
		c0.4-0.1,0.9-0.4,1.3-0.1c0,0.4,0,0.9,0,1.2c0,0.6,0,1.1-0.2,1.7c-0.1,0.2-0.3,0.6-0.3,0.9c-0.3,0.2-0.2,0.6-0.4,0.8
		c-0.2,0.4-0.5,0.7-0.5,1.1c0.3,0.2,0.6,0,0.9-0.2c0.5-0.1,0.9-0.5,1.4-0.4c0.2,0.3-0.2,0.5-0.2,0.8c-0.1,0.3-0.1,0.6-0.4,0.8
		c-0.2,0.7-0.9,1.3-1.2,2c-0.2,0.2-0.5,0.5-0.7,0.6c0,0.2-0.3,0.3-0.2,0.4c0.1,0.1,0.2,0.1,0.4,0.1c0.7-0.4,1.3-0.7,2-1.1
		c0.1-0.1,0.2-0.2,0.4-0.1c0.1,0,0.2,0,0.2,0.2c-0.2,0.6-0.6,1.1-0.9,1.6c-0.2,0.2-0.5,0.4-0.7,0.6c-0.4,0.2-0.6,0.6-1,0.7
		c-0.5,0.2-0.9,0.7-1.4,0.8c-0.2,0-0.2,0.2-0.4,0.2c-0.1,0-0.2,0.1-0.3,0.2c0,0.1,0.1,0.2,0.2,0.2c0.8,0,1.4-0.4,2.1-0.4
		c0.2,0,0.6-0.1,0.6,0.2c-0.3,0.5-1,0.6-1.5,1c-0.3,0.3-0.7,0.4-1,0.7c-0.3,0-0.6,0.2-0.9,0.2c-0.1,0.2-0.4,0.2-0.6,0.4
		c0,0.5,0.6,0.6,1,0.8c0.1,0.4-0.4,0.4-0.6,0.6c-0.4,0.3-0.9,0.4-1.3,0.7c-0.5,0.2-0.9,0.4-1.4,0.6c-0.3,0.2-0.9,0.1-1.1,0.4
		c0.3,0.3-0.1,0.9,0.4,1c0.6,0,1-0.5,1.6-0.5c0-0.2,0.3-0.1,0.4-0.3c0.4,0,0.6-0.3,0.9-0.4c0.2-0.2,0.5-0.2,0.7-0.4
		c0.4-0.1,0.7-0.5,1.1-0.8c0.4-0.1,0.7-0.2,1-0.4c0.1-0.3,0.5,0,0.6-0.3c0.5-0.6-0.7-0.3-0.9-0.7c0-0.1,0.1-0.2,0.1-0.3
		c0.4-0.1,0.7-0.4,1-0.6c0.3-0.3,0.6-0.4,0.9-0.6c0.7-0.8,1.3-1.7,1.6-2.7c0-0.2-0.2-0.1-0.3-0.1c-0.2-0.1,0-0.3,0-0.4
		c0.3-0.1,0.4-0.5,0.5-0.8c0.4-0.3,0.3-1,0.4-1.4c0-0.6-0.1-1.2,0-1.8c-0.1-0.1-0.2-0.2-0.3-0.2c-0.6-0.1,0.1-0.5-0.1-0.8
		c0.3-0.2,0-0.6,0.2-0.8c-0.1-0.6-0.1-0.9-0.3-1.5c-0.3-0.1-0.4,0.2-0.7,0.1c-0.2-0.1,0-0.4-0.1-0.5c0.2-0.5,0.2-1,0.3-1.5
		c-0.2-0.2,0-0.4-0.1-0.7c-0.2-0.4,0.1-0.8-0.1-1.2c0.1-0.3-0.2-0.5-0.1-0.8c0-0.2,0.1-0.6-0.1-0.7c-0.6,0.3-1.1,0.5-1.7,0.7
		c-0.8,0-1.5,0.4-2.2,0.7c-0.4,0.1-0.6,0.3-0.8,0.6c-0.2-0.1-0.3,0.3-0.5,0.2c-0.5-0.1,0-0.6-0.2-0.9c-0.1-0.1-0.2-0.1-0.3,0
		c-0.3,0-0.5,0.1-0.8,0.2c-0.7,0-1.2,0.6-1.7,1l-0.1,0c-0.3,0,0-0.3-0.3-0.4c-0.3-0.1-0.5,0.3-0.9,0.2c-0.2,0.2-0.6,0.1-0.8,0.3
		c-0.6,0.2-1.1,0.6-1.5,1.1c-0.4,0.3-0.3,1.2-0.9,0.8c-0.2-0.1,0-0.2-0.1-0.4c-0.3-0.4-0.3,0.3-0.6,0.3c-0.2,0.3-0.5,0.5-0.8,0.7
		c-0.3,0.8-1,1.3-1,2.3c0,0.2-0.2,0.3-0.4,0.3c-0.1,0-0.1-0.2-0.2-0.2c-0.1-0.3-0.3,0-0.5,0c-0.1,0.5-0.4,0.9-0.7,1.4
		c-0.4,0.5-0.7,1.1-0.9,1.6c-0.4,0.6-0.6,1.3-0.9,1.9c-0.1,0.1,0,0.3-0.1,0.4c0,0.3-0.2,0.6-0.4,0.8c-0.3,0.6-0.8,1-1.5,1.1
		c-0.2-0.1-0.7,0-0.7-0.2c0,0-0.1,0-0.1,0.1c-0.4-0.2-0.6-0.5-0.6-0.9c0.2-0.9,0.7-1.6,1.2-2.3c0.3-0.1,0.3-0.4,0.6-0.5
		c0.5-0.7,1.2-1.2,1.5-1.9c0.2-0.2,0.2-0.3,0.4-0.5c0.3-0.3,0.3-0.7,0.6-1.1c0-0.1,0.3-0.1,0.2-0.3c0.1-0.2,0.2-0.4,0.2-0.6
		c0.3-0.4,0.3-0.8,0.5-1.3c0.1-0.3,0.2-0.6,0.3-0.9c0-0.1-0.1-0.2-0.2-0.2l-0.4,0.3c-0.2,0-0.4,0-0.6-0.1c0-0.2,0-0.4,0.1-0.6
		c0.4-0.9,0.9-1.7,1.1-2.6c0.1-0.3,0-0.7,0.1-0.9c-0.2-0.6-0.2-1.2-0.5-1.8c-0.3,0.1-0.5,0.4-0.7,0.6c-0.1,0.2-0.3-0.1-0.4-0.1
		c-0.1-0.2-0.1-0.3,0-0.5c0.2-0.6,0.1-1.2,0.1-1.8c-0.1-0.1,0.1-0.2-0.1-0.3c-0.1-0.9-0.9-1.6-1.4-2.3c0-0.1-0.2-0.1-0.2-0.2
		c-0.1-0.1-0.3-0.3-0.5-0.3c-0.1,0.1-0.2,0.3-0.2,0.5c-0.1,0.2-0.2,0.3-0.4,0.3c-0.3-0.2-0.3-0.6-0.3-1c-0.2-0.5-0.4-1.1-0.7-1.6
		c-0.2-0.2-0.3-0.3-0.4-0.5c-0.4-0.1-0.6-0.8-1.1-0.6c-0.1,0.4-0.4,0.7-0.8,0.8c-0.2,0-0.2-0.3-0.3-0.5c-0.1-0.6-0.4-1.1-0.6-1.6
		c-0.4-0.3-0.4-0.7-0.7-0.9c-0.1-0.2-0.3-0.3-0.5-0.6c-0.7-0.5-1.2-1.2-1.7-1.9c-0.1,0-0.3-0.1-0.4,0c-0.3,0.6-1,1-1.4,1.5
		c-0.2,0.4-0.7,0.5-0.9,0.9c-0.3,0.2-0.5,0.5-0.7,0.8c-0.3,0.2-0.2,0.6-0.5,0.8c-0.1,0.4,0,1-0.4,1.3c-0.2,0-0.4,0-0.5-0.2
		c0-0.2-0.3-0.3-0.3-0.5c-0.1-0.1-0.3-0.4-0.5-0.3c-0.2,0.3-0.4,0.5-0.6,0.7c-0.7,0.5-1,1.2-1.2,2c0,0.4,0.1,0.8-0.2,1
		c-0.2,0.1-0.3,0-0.4-0.1c-0.2-0.2-0.1-0.8-0.5-0.7c-0.5,0.6-1.1,1.1-1.5,1.8c-0.3,0.6-0.6,1.2-0.6,1.9c-0.2,0.6,0.2,1.2,0.2,1.8
		c-0.1,0.1-0.2,0.2-0.4,0.2c-0.3-0.2-0.4-0.7-0.8-0.8c-0.1,0.1-0.2,0.2-0.1,0.3c0.2,0.4-0.1,0.8-0.1,1.3c-0.2,0.7-0.1,1.5,0.1,2.2
		c0.1,0.7,0.5,1.3,0.8,2c0,1-0.7-0.2-1.1,0.2c0.2,0.7,0.4,1.3,0.6,2c0,0.3,0.3,0.5,0.3,0.8c0.3,0.3,0.5,0.7,0.6,1.1
		c0.5,0.3,0.5,1,1,1.3c0,0.5,0.5,0.7,0.7,1.1c0.4,0.6,1.2,1.1,1.6,1.8c0,0.2,0.2,0.3,0.3,0.5c0.3,0.4,0.4,1,0.2,1.5
		c-0.3,0.6-0.9,0.6-1.4,0.5c-0.2-0.2-0.4-0.1-0.6-0.3c-0.6-0.5-1.1-1.1-1.2-1.9c-0.2-0.1-0.1-0.4-0.3-0.5c-0.1-0.9-0.6-1.7-0.9-2.4
		c-0.1-0.2-0.3-0.2-0.3-0.5c-0.4-0.1-0.1-0.6-0.5-0.8c-0.1-0.3-0.3-0.5-0.4-0.8c-0.3-0.1-0.3,0.3-0.6,0.4c-0.5-0.1-0.4-0.7-0.5-1.1
		c-0.2-0.3-0.2-0.8-0.5-1.1c-0.2-0.5-0.9-0.7-1.1-1.3c-0.3-0.2-0.5,0.1-0.6,0.3c-0.1-0.1-0.5-0.2-0.5-0.5c-0.2-0.4-0.5-0.7-0.9-1
		c-0.2-0.5-0.7-0.2-1-0.6c-0.5,0-0.8-0.4-1.2-0.5c-0.3-0.1-0.6-0.1-0.7,0.3c-0.5,0.1-0.7-0.4-1.1-0.6c-0.6,0-1-0.6-1.7-0.5
		c-0.6,0,0.1,0.6-0.4,0.7c-0.2,0-0.3,0-0.5-0.1c-0.6-0.3-1.1-0.7-1.7-0.9c-0.6-0.1-1.1-0.1-1.6-0.5c-0.2,0-0.4,0-0.5-0.1
		c-0.4,0-1-0.8-1.3-0.1c0.1,0.8,0,1.7-0.2,2.5c0.2,0.4-0.1,0.8,0.1,1.3c-0.1,0.4,0.3,0.7,0.2,1.1c-0.2,0.2-0.4-0.1-0.7-0.1
		c-0.3,0-0.3,0.4-0.3,0.6c-0.2,0.7-0.2,1.4,0.1,2.1C103.8,105.1,103.4,105.1,103.2,105.3"/>
	<path style="clip-path:url(#SVGID_00000098937783395684698820000016635273757325840826_);fill:#AF896C;" d="M132.7,94
		c-0.3,0.2-0.4,0.6-0.6,0.9c-0.1,0.3,0.1,0.5,0.2,0.7c0.3,0.1,0.2,0.4,0.5,0.4c0.3-0.2,0.3-0.6,0.7-0.7c0.3-0.4-0.4-0.4-0.2-0.8
		C133.1,94.3,133,94.1,132.7,94"/>
	<path style="clip-path:url(#SVGID_00000098937783395684698820000016635273757325840826_);fill:#AF896C;" d="M131.1,94.5
		c-0.1,0.3-0.6,0.3-0.7,0.6c-0.2,0.3-0.8,0.4-0.8,0.8c0.1,0.2,0.1,0.4,0.4,0.5c0.5-0.3,0.7-1,1.2-1.2c-0.1-0.4,0.4-0.6,0.5-0.8
		C131.6,94.3,131.3,94.5,131.1,94.5"/>
	<path style="clip-path:url(#SVGID_00000098937783395684698820000016635273757325840826_);fill:#AF896C;" d="M135.3,95.3
		c-0.3-0.1-0.4-0.4-0.7-0.6c-0.1,0-0.4-0.1-0.3,0.1c0.2,0.4,0.5,0.7,0.8,1.1c0.1,0.2,0.1,0.3,0.2,0.4c0.2,0,0.3-0.2,0.4-0.3
		C135.9,95.7,135.4,95.6,135.3,95.3"/>
	<path style="clip-path:url(#SVGID_00000098937783395684698820000016635273757325840826_);fill:#AF896C;" d="M133.2,97
		c-0.1,0.4,0.3,0.4,0.4,0.7c0.3,0.3,0.2,0.7,0.4,0.9c0.2,0.1,0.2-0.2,0.4-0.2c0.1-0.4,0.8-0.4,0.7-0.9c-0.1-0.4-0.3-0.7-0.5-1.1
		c-0.3,0-0.2-0.5-0.5-0.4C133.7,96.2,133.5,96.5,133.2,97"/>
	<path style="clip-path:url(#SVGID_00000098937783395684698820000016635273757325840826_);fill:#AF896C;" d="M131.4,96
		c-0.4,0.2-0.6,0.8-0.9,1.1c0,0.2-0.1,0.5,0.1,0.6c0.4,0.1,0.4,0.5,0.7,0.7c0.3-0.4,0.5-0.9,1-1.2c0-0.1,0.2-0.3,0-0.4
		c-0.1-0.2-0.2-0.4-0.3-0.5C131.8,96.3,131.7,95.9,131.4,96"/>
	<path style="clip-path:url(#SVGID_00000098937783395684698820000016635273757325840826_);fill:#AF896C;" d="M129.1,96.6
		c-0.4-0.2-0.5,0.3-0.7,0.4c-0.2,0.4-0.4,0.7-0.6,1c-0.2,0.4,0.3,0.5,0.3,0.9c0.2,0.1,0.4,0,0.5-0.1c0-0.7,1-0.6,1.1-1.3
		C129.4,97.1,129.4,96.8,129.1,96.6"/>
	<path style="clip-path:url(#SVGID_00000098937783395684698820000016635273757325840826_);fill:#AF896C;" d="M136.4,96.6
		c-0.3,0.2-0.3,0.6-0.4,1c0,0.5,0.6,0.6,0.9,1c0,0.2,0.1,0.3,0.1,0.5c0.1,0.1,0.2,0.1,0.3,0c0.2-0.3,0.4-0.4,0.4-0.8
		C137.3,97.6,137,96.9,136.4,96.6"/>
	<path style="clip-path:url(#SVGID_00000098937783395684698820000016635273757325840826_);fill:#AF896C;" d="M132.6,100.5
		c0.2,0.2,0.3-0.1,0.4-0.2c0.2-0.2,0.6-0.2,0.8-0.4c0.1-0.2-0.1-0.4-0.1-0.6c-0.3-0.2-0.1-0.6-0.4-0.8l-0.5-0.5
		c-0.6,0-0.7,0.7-1,1.1c-0.1,0.4-0.2,0.8,0.3,1.1C132.3,100.3,132.6,100.3,132.6,100.5"/>
	<path style="clip-path:url(#SVGID_00000098937783395684698820000016635273757325840826_);fill:#AF896C;" d="M135.3,98.6
		c-0.1,0.4-0.5,0.5-0.6,0.9c-0.4,0.6,0.4,0.9,0.7,1.3c0.2,0.2,0,0.6,0.3,0.7c0.3-0.3,0.8-0.6,1-1c0.2-0.5-0.1-0.9-0.3-1.4
		C136,99,135.9,98.3,135.3,98.6"/>
	<path style="clip-path:url(#SVGID_00000098937783395684698820000016635273757325840826_);fill:#AF896C;" d="M129.1,99.1
		c0,0.4-0.5,0.6-0.4,1.2l0.3,0.3c0,0.3,0.3,0.3,0.3,0.6c0.1,0.2,0.2,0.3,0.4,0.1c0.3-0.3,0.4-0.7,0.7-1c0.2-0.1,0.5-0.3,0.5-0.6
		c-0.1-0.3-0.1-0.7-0.4-0.8c-0.2-0.2-0.3-0.6-0.6-0.6C129.6,98.6,129.4,98.9,129.1,99.1"/>
	<path style="clip-path:url(#SVGID_00000098937783395684698820000016635273757325840826_);fill:#AF896C;" d="M137.9,99.4
		c-0.1,0.2-0.2,0.3-0.2,0.5c-0.4,0.7,0.5,1.1,0.6,1.7c0.2-0.1,0.4-0.5,0.4-0.8c-0.1-0.4-0.2-0.8-0.4-1.1
		C138.2,99.6,138.1,99.3,137.9,99.4"/>
	<path style="clip-path:url(#SVGID_00000098937783395684698820000016635273757325840826_);fill:#AF896C;" d="M127.2,99.4
		c-0.4,0.7-0.5,1.6-0.4,2.3c0.1,0.1,0.2,0.2,0.3,0.1c0.2-0.5,0.5-0.8,0.8-1.2c0.1-0.2,0-0.4,0.1-0.6c-0.2-0.2-0.1-0.6-0.4-0.7
		C127.4,99.2,127.3,99.3,127.2,99.4"/>
	<path style="clip-path:url(#SVGID_00000098937783395684698820000016635273757325840826_);fill:#AF896C;" d="M134.3,102.8
		c0.1,0.1,0.1,0.4,0.3,0.3c0.2-0.2,0.4-0.3,0.6-0.6c0.1-0.2,0.1-0.4-0.1-0.5c-0.1-0.5-0.5-1-0.9-1.3c-0.2-0.2-0.4,0.1-0.6,0
		c-0.2,0.3-0.5,0.5-0.4,1c0,0.2,0.2,0.1,0.2,0.3C133.8,102.2,134.3,102.3,134.3,102.8"/>
	<path style="clip-path:url(#SVGID_00000098937783395684698820000016635273757325840826_);fill:#AF896C;" d="M131.4,102.4
		c0-0.1,0.2-0.2,0.3-0.2c0.2-0.1,0.4-0.1,0.6-0.3c0.1-0.2,0-0.3,0-0.4c-0.2-0.3-0.5-0.7-1-0.7c-0.5,0.4-1,0.9-1.1,1.6
		c0,0.3,0.3,0.5,0.5,0.7c0.2,0.1,0.3-0.2,0.4-0.4C131.2,102.6,131.3,102.4,131.4,102.4"/>
	<path style="clip-path:url(#SVGID_00000098937783395684698820000016635273757325840826_);fill:#AF896C;" d="M129.3,102.5
		c-0.2-0.2-0.4-0.3-0.4-0.6c-0.2-0.2-0.4-0.7-0.8-0.5c-0.3,0.5-0.9,1.1-0.7,1.8c0.4,0.2,0.6,0.5,1,0.8c0.1,0.1,0.1,0.3,0.3,0.4
		c0.2-0.1,0.2-0.4,0.3-0.6C128.8,103.2,129.5,103,129.3,102.5"/>
	<path style="clip-path:url(#SVGID_00000098937783395684698820000016635273757325840826_);fill:#AF896C;" d="M137,101.6l-0.6,0.6
		c-0.1,0.3-0.2,0.5-0.4,0.7c0.1,0.6,0.5,1,0.4,1.6c0.2,0.1,0.3-0.2,0.4-0.2c0.2-0.3,0.6-0.5,0.9-0.8c0.1-0.2,0-0.4,0.1-0.6
		C137.6,102.4,137.6,101.7,137,101.6"/>
	<path style="clip-path:url(#SVGID_00000098937783395684698820000016635273757325840826_);fill:#AF896C;" d="M133,104
		c0.2,0.1,0.2,0.4,0.5,0.3c0.2-0.2,0.5-0.4,0.5-0.7c-0.1-0.2-0.1-0.6-0.5-0.6c-0.2-0.3-0.6-0.5-1-0.6c-0.5,0.2-0.8,0.5-1.1,1
		c-0.1,0.3,0.1,0.6,0.2,0.8C132.2,104.4,132.5,103.8,133,104"/>
	<path style="clip-path:url(#SVGID_00000098937783395684698820000016635273757325840826_);fill:#AF896C;" d="M126.5,104
		c0.2,0,0.1-0.2,0.3-0.3c0.1-0.2,0-0.3,0.1-0.5c-0.2-0.2-0.1-0.7-0.4-0.8c-0.2,0.1-0.2,0.2-0.3,0.4
		C126.5,103.2,126.2,103.7,126.5,104"/>
	<path style="clip-path:url(#SVGID_00000098937783395684698820000016635273757325840826_);fill:#AF896C;" d="M138.7,103.9
		c0.1-0.1,0.1-0.2,0.1-0.3c0.1-0.3-0.1-0.5-0.2-0.7c-0.1,0.2-0.1,0.4-0.2,0.6C138.5,103.6,138.6,103.8,138.7,103.9"/>
	<path style="clip-path:url(#SVGID_00000098937783395684698820000016635273757325840826_);fill:#AF896C;" d="M129.8,103.5
		c-0.4,0.5-0.2,1.1-0.4,1.6c0.2,0.3,0,0.8,0.3,1.1c0.2,0.2,0.4,0.2,0.7,0.2c0.1-0.2,0.2-0.2,0.2-0.5c-0.1-0.4,0.3-0.7,0.6-1
		c0-0.5-0.4-0.7-0.7-1.1C130.2,103.8,130.2,103.3,129.8,103.5"/>
	<path style="clip-path:url(#SVGID_00000098937783395684698820000016635273757325840826_);fill:#AF896C;" d="M135.4,106.7
		c0.1,0,0.2-0.2,0.3-0.3c0.1-0.8,0.2-1.2,0.1-1.9c0-0.2-0.1-0.5-0.3-0.7c-0.3-0.2-0.3,0.2-0.5,0.2c-0.5,0.2-0.7,0.8-0.8,1.3
		c0.2,0.4,0.4,0.7,0.4,1.2C134.6,106.8,135.2,106.6,135.4,106.7"/>
	<path style="clip-path:url(#SVGID_00000098937783395684698820000016635273757325840826_);fill:#AF896C;" d="M128.4,105.3
		c-0.2-0.4-0.6-0.6-0.8-0.9c-0.1-0.1-0.2,0-0.2-0.2c-0.1-0.2-0.3-0.2-0.5-0.1c-0.1,0.4-0.1,0.7,0.1,1.1c0.1,0.1,0,0.2,0.1,0.3
		c0,0.4,0.2,0.8,0.5,1c0.1,0.6,0.8,0.2,1.1,0.3c0.6-0.4-0.1-0.8-0.1-1.3C128.5,105.5,128.4,105.4,128.4,105.3"/>
	<path style="clip-path:url(#SVGID_00000098937783395684698820000016635273757325840826_);fill:#AF896C;" d="M137.5,106.7
		c0.6-0.4,0.8-1.4,0.8-2.1c0-0.2-0.2-0.4-0.4-0.2c-0.4,0.4-0.9,0.8-1.2,1.3c-0.1,0.3-0.4,0.5-0.4,0.9c0.2,0.2,0.5,0.2,0.7,0.3
		C137.2,106.9,137.4,106.9,137.5,106.7"/>
	<path style="clip-path:url(#SVGID_00000098937783395684698820000016635273757325840826_);fill:#AF896C;" d="M134.5,109.2
		c0.4,0,0.8-0.2,1.2-0.2c0.1-0.2,0.3,0,0.4-0.2c0.5-0.2,1-0.5,1.5-0.8c0.3-0.3,0.6-0.4,1-0.7c0.1-0.2,0-0.3-0.2-0.3
		c-0.3,0.4-0.7,0.4-1.1,0.6c-0.7,0.2-1.2-0.5-1.8-0.3c-0.3,0.1-0.7,0.2-1,0.3c-0.2-0.1-0.4,0.3-0.6,0.1c-0.1-0.1,0-0.2,0.1-0.3
		c0.1-0.5,0.3-0.9,0.1-1.4c-0.2-0.2-0.4-0.6-0.7-0.7c-0.2-0.2-0.4-0.5-0.8-0.5c-0.3,0.2-0.4,0.5-0.7,0.6c-0.1,0.4-0.6,0.8-0.6,1.2
		c-0.1,0.4,0.3,0.6,0.2,1c-0.3,0.1-0.6-0.1-0.8-0.2c-0.1-0.2-0.4-0.3-0.6-0.3c-0.7-0.2-1.4,0.7-2.2,0.1c-0.4-0.1-0.6-0.3-1-0.4
		c-0.4,0.4,0.4,0.5,0.5,0.8c0.5,0.1,0.7,0.6,1.2,0.6c0.6,0.3,1.2,0.7,1.9,0.7c0.3,0.1,0.7-0.1,1,0.2c0,0.1-0.1,0.2-0.1,0.3
		c-0.7,0.2-1.3,0.6-1.7,1.2c0,0.1-0.2,0.2-0.1,0.4c0.7-0.1,1.5-0.3,2-0.7c0.4-0.4,0.1-1,0.4-1.3c-0.2-0.2,0.1-0.4,0.1-0.7
		c0.1-0.2,0.5-0.3,0.7-0.3c0.3-0.2,0.3,0.2,0.5,0.2c0.1,0.3,0.3,0.5,0.2,0.9c0.2,0.1,0,0.2,0,0.4c0.1,0.2,0,0.5,0.2,0.6
		c0.3,0.5,1,0.6,1.5,0.8c0.2,0.1,0.4,0.3,0.5,0.1c-0.3-0.7-0.8-1.2-1.4-1.5c-0.2,0.1-0.2-0.2-0.4-0.2
		C134,109.1,134.3,109.4,134.5,109.2"/>
	<path style="clip-path:url(#SVGID_00000098937783395684698820000016635273757325840826_);fill:#AF896C;" d="M130,115.6
		c-0.2,0.5-0.8,0.7-1.1,1.2c-0.2,0.2-0.4,0.5-0.5,0.8c0,0.1,0.1,0.1,0.2,0.1c0.7-0.4,1.2-1.3,1.9-1.8c0.1-0.4,0.5-0.5,0.7-0.8
		c0.2-0.2,0.4-0.4,0.7-0.5c0.1-0.4,0.4-0.1,0.8-0.2c0.4,0.1,0.6,0.7,0.9,0.9c0.2,0.3,0.4,0.6,0.6,0.9c0.4,0.3,0.7,0.7,1.1,1
		c0.1,0.3,0.3,0.4,0.5,0.7c0.1,0.1,0.2,0,0.4,0c0-0.1,0.1-0.4,0-0.5c-0.4-0.4-0.8-0.9-1.1-1.3c-0.1,0-0.1-0.2-0.2-0.4
		c-0.3-0.1-0.5-0.5-0.8-0.6c-0.3-0.5-0.7-0.8-1.1-1.2c-0.1-0.5,0-1.1-0.1-1.6c0.2-0.7-0.1-1.5,0.1-2.1c0-0.2,0-0.6-0.2-0.9
		c-0.4,0-0.3,0.5-0.3,0.8c0.1,0.9-0.1,1.7-0.1,2.7c-0.1,0.3,0.2,0.8-0.1,1C131.2,114,130.7,115,130,115.6"/>
	<path style="clip-path:url(#SVGID_00000098937783395684698820000016635273757325840826_);fill:#AF896C;" d="M131,118.6
		c0.2,0,0.3-0.1,0.4,0c0.3-0.2,0.6,0,0.9-0.2c0.5,0.1,1,0.5,1.5,0.3c0.3-0.2,0.6-0.1,0.9-0.4c0.1,0,0.2,0.1,0.2,0.1
		c0.1,0.1,0,0.3-0.2,0.4c-0.3,0.4-0.8,0.6-1,1.1c0,0.3-0.3,0.4-0.3,0.7c-0.2,0.4-0.4,0.9-0.5,1.3c-0.2,0.4-0.3,0.9-0.4,1.3
		c0.1,0.1,0.2,0,0.2,0c0.1-0.2,0.2-0.6,0.4-0.8c0.2-0.4,0.6-0.6,0.9-0.9c0.4,0,0.7-0.2,0.9-0.5c0.5-0.3,0.4-0.9,0.7-1.3
		c0.1-0.2,0.3,0.1,0.4,0.1c0.4,0.5,0.8,1.2,1.5,1.2c0.4,0,0.9,0,1.1-0.4c0.2-0.3,0-0.7,0.2-1c-0.2-0.2-0.1-0.6-0.4-0.8
		c0-0.3-0.3-0.4-0.5-0.6c-0.2-0.1-0.4-0.1-0.4-0.3c0-0.1,0.1-0.1,0.2-0.1c0.6-0.3,1.4-0.3,1.7-1c0.2-0.5,0.6-1,1.3-1.2
		c0.4-0.1,0.7-0.1,1.1-0.2c0.1-0.1,0.1-0.2-0.1-0.3c-0.1,0-0.2,0-0.3,0c-0.7-0.1-1.3,0.2-2,0.4c-0.1,0-0.2-0.1-0.3,0
		c-0.4,0-0.6,0.4-1.1,0.3c-0.2,0.2-0.3,0.3-0.5,0.3c-0.3,0.2-0.5,0.4-0.7,0.5c-0.1,0-0.4,0.2-0.5,0c0-0.3,0.2-0.4,0.3-0.7
		c0.3-0.4,0.1-1.1,0.1-1.6c0-0.2-0.2-0.3-0.4-0.2c-0.1,0.7-0.9,1.1-0.7,1.9c0.1,0.7,0.7,0.9,1,1.5c0.2,0.4-0.1,0.8-0.3,1
		c-0.2-0.1-0.4,0-0.5-0.1c-0.3,0-0.5-0.2-0.6-0.4c-0.3-0.3-0.7-0.7-1.2-0.8c-0.3-0.1-0.5,0.2-0.8,0.2c-0.5,0.3-0.9,0.6-1.5,0.4
		c-0.4-0.2-0.7-0.4-1.1-0.5c-0.5-0.1-0.9,0.1-1.2,0.3c-0.3,0.2-0.4,0.5-0.7,0.6c-0.1,0.2-0.4,0.1-0.7,0.1c-0.3,0-0.4-0.4-0.6-0.6
		c0-0.3,0.2-0.7,0.4-0.9c0-0.2,0.3-0.2,0.4-0.5c0.1-0.3,0.3-0.4,0.2-0.6c0,0,0,0,0.1,0l-0.1-0.4c-0.2-0.5-0.5-0.9-0.8-1.4
		c0-0.1-0.1,0-0.2,0c0,0.5-0.2,1.1,0.1,1.5c0.2,0.3,0.4,0.6,0.2,1c-0.5,0-0.6-0.4-0.9-0.6c-0.2-0.2-0.6-0.3-0.8-0.4
		c-0.6-0.2-1.2-0.4-1.9-0.5c-0.1-0.1-0.3-0.1-0.4-0.1c-0.4-0.3-0.9-0.3-1.3,0c-0.1,0.2,0.1,0.3,0.2,0.3c0.7,0.1,1.5,0.3,1.9,0.8
		c0.1,0.4,0.3,0.6,0.5,0.9c0.4,0.2,0.7,0.4,1.1,0.4c0.2,0,0.2,0.2,0.4,0.2c0.1,0.1,0.1,0.2,0.1,0.3l-0.7,0.5
		c-0.2,0.4-0.5,0.8-0.4,1.3c-0.2,0.3,0,0.6,0,0.9c0.2,0.4,0.7,0.1,1,0.2c0.4,0,0.9-0.2,1.3-0.4c0-0.1,0.2-0.2,0.2-0.3
		c0.2-0.2,0.1-0.5,0.3-0.6c0.2,0,0.4,0.1,0.5,0.2c0,0.2,0.4,0.4,0.2,0.6c0.2,0.5,0.5,0.8,1,1c0.9,0.2,1.2,1.1,1.4,1.9l0.1,0
		c0.1,0,0.1-0.1,0.1-0.2c-0.1-0.3,0.1-0.6-0.1-0.7c-0.1-0.9-0.6-1.8-1.1-2.7c0-0.3-0.4-0.4-0.5-0.7c-0.4-0.1-0.2-0.5-0.5-0.7
		C130.1,118.3,130.6,118.5,131,118.6"/>
	<path style="clip-path:url(#SVGID_00000098937783395684698820000016635273757325840826_);fill:#AF896C;" d="M142.3,116.4
		c-0.3-0.3-0.8-0.3-1.2-0.3c-0.2,0-0.2,0.2-0.4,0.3c-0.1,0.3-0.4,0.4-0.3,0.7c0.1,0.1,0.3,0.1,0.4,0.1c0.8,0.4,1.8,0.5,2.7,0.3
		C143.3,117,142.7,116.7,142.3,116.4"/>
	<path style="clip-path:url(#SVGID_00000098937783395684698820000016635273757325840826_);fill:#AF896C;" d="M123.7,116
		c-0.5,0.1-1.1,0.1-1.5,0.5c-0.2,0-0.2,0.1-0.3,0.2c-0.3,0.1-0.4,0.4-0.6,0.6c0,0.2,0.3,0.3,0.5,0.3c0.8-0.1,1.8-0.2,2.5-0.6
		l0.1-0.1c0-0.3-0.3-0.4-0.3-0.6C124.1,116.1,124,116,123.7,116"/>
	<path style="clip-path:url(#SVGID_00000098937783395684698820000016635273757325840826_);fill:#AF896C;" d="M144.6,117.8
		c-0.2-0.1-0.4-0.6-0.7-0.3c0,0.4,0.4,0.7,0.7,0.8c0.2,0,0-0.2,0.1-0.3C144.7,117.9,144.6,117.9,144.6,117.8"/>
	<path style="clip-path:url(#SVGID_00000098937783395684698820000016635273757325840826_);fill:#AF896C;" d="M120.4,117.4
		c0,0.4-0.5,0.4-0.5,0.8c0,0.1,0.1,0.2,0.2,0.2c0.4-0.1,0.7-0.5,0.8-0.9C121,117.1,120.6,117.2,120.4,117.4"/>
	<path style="clip-path:url(#SVGID_00000098937783395684698820000016635273757325840826_);fill:#AF896C;" d="M139.1,118.3
		c0.3,0.4,0.6,0.8,0.6,1.3c0.2,0.2,0.6,0.3,0.8,0.4l0.9,0c0.2-0.1,0.2-0.3,0.1-0.5c-0.4-0.5-0.7-1-1.1-1.5c-0.3-0.1-0.5-0.4-0.9-0.3
		C139.4,117.9,139,118,139.1,118.3"/>
	<path style="clip-path:url(#SVGID_00000098937783395684698820000016635273757325840826_);fill:#AF896C;" d="M125.8,118
		c-0.3,0-0.5-0.3-0.9-0.3c-0.5,0.2-0.9,0.6-1.1,1.1c-0.5,0.2-0.5,0.8-0.7,1.2c0.2,0.2,0.6,0.1,0.9,0.1c0.3-0.2,0.8-0.1,1.1-0.3
		c0-0.3,0.1-0.7,0.3-0.9C125.4,118.5,126.1,118.4,125.8,118"/>
	<path style="clip-path:url(#SVGID_00000098937783395684698820000016635273757325840826_);fill:#AF896C;" d="M143.1,118.6
		c-0.4,0-0.8-0.1-1.3-0.2c-0.1,0-0.1,0.1-0.1,0.2c0.5,0.3,0.6,0.8,0.7,1.3c0.2,0.3,0.6,0.2,0.9,0.3c0.3,0,0.6,0.2,0.9,0.1
		c0.1-0.2,0-0.5-0.1-0.7c-0.2-0.2,0-0.5-0.2-0.7C143.7,118.7,143.4,118.5,143.1,118.6"/>
	<path style="clip-path:url(#SVGID_00000098937783395684698820000016635273757325840826_);fill:#AF896C;" d="M121.3,118.5
		c-0.6,0.2-0.5,0.9-0.6,1.4c0,0.1-0.2,0.2-0.1,0.3c0.1,0.4,0.4,0.2,0.7,0.2c0.3-0.1,0.6-0.3,0.9-0.3c0.3-0.2,0.1-0.7,0.3-1
		c0.1-0.3,0.4-0.4,0.4-0.7l-0.2,0C122.3,118.6,121.8,118.6,121.3,118.5"/>
	<path style="clip-path:url(#SVGID_00000098937783395684698820000016635273757325840826_);fill:#AF896C;" d="M146.2,121.3
		c0.1-0.5-0.3-0.9-0.4-1.4c-0.2-0.2-0.3-0.5-0.6-0.5c-0.2,0.3,0.1,0.7,0.1,1.1c-0.3,0.1,0,0.4,0.1,0.5
		C145.6,121.1,145.8,121.5,146.2,121.3"/>
	<path style="clip-path:url(#SVGID_00000098937783395684698820000016635273757325840826_);fill:#AF896C;" d="M119.7,119.2
		c-0.2,0.1-0.5,0.2-0.5,0.5c-0.2,0.3-0.4,0.6-0.4,0.9c0,0.3-0.3,0.5-0.2,0.7c0.1,0.1,0.3,0.1,0.4,0c0.3-0.1,0.8-0.3,0.8-0.8
		c-0.3-0.4,0.1-0.7,0-1.1L119.7,119.2z"/>
	<path style="clip-path:url(#SVGID_00000098937783395684698820000016635273757325840826_);fill:#AF896C;" d="M138.4,122.6
		c0.1,0.3,0.3,0.3,0.6,0.4c0.4-0.1,1,0,1.3-0.4c0.2-0.4,0.3-0.9,0.1-1.3c-0.1-0.3-0.5-0.5-0.8-0.3c-0.1,0.1-0.1,0.4-0.1,0.5
		c-0.2,0.3-0.6,0.4-1,0.4C138.1,122,138.3,122.4,138.4,122.6"/>
	<path style="clip-path:url(#SVGID_00000098937783395684698820000016635273757325840826_);fill:#AF896C;" d="M141,123
		c0.2,0.4,0.6,0.3,1,0.3c0.5-0.1,0.3-0.6,0.5-1c-0.3-0.4-0.1-0.8-0.4-1.2c-0.2-0.2-0.5-0.1-0.7-0.2c-0.6,0.2,0,0.7-0.1,1.2
		c0,0.1,0,0.2-0.1,0.3C141.2,122.6,141,122.8,141,123"/>
	<path style="clip-path:url(#SVGID_00000098937783395684698820000016635273757325840826_);fill:#AF896C;" d="M125.8,121.9
		c-0.2-0.1-0.5-0.2-0.6-0.4c-0.1-0.2,0.1-0.3,0-0.4l-0.1-0.2c-0.2-0.2-0.3,0.1-0.5,0.1c-0.2,0.1-0.4,0.1-0.4,0.4
		c0,0.5,0,1.1,0.4,1.4c0.4,0.3,1,0.1,1.5,0c0.1-0.2,0.2-0.4,0.2-0.6c0-0.1,0.1-0.2,0-0.3C126.2,121.9,126,121.8,125.8,121.9"/>
	<path style="clip-path:url(#SVGID_00000098937783395684698820000016635273757325840826_);fill:#AF896C;" d="M123.7,121.5
		c-0.3-0.2,0-0.7-0.5-0.5c-0.3,0.1-0.7,0-0.8,0.4c0,0.6-0.3,1.4,0.1,1.9c0.2,0,0.4,0.1,0.6,0.1l0.3-0.2c0.1-0.1,0.2-0.3,0-0.4
		c0-0.4-0.3-0.8,0-1.2C123.5,121.5,123.7,121.6,123.7,121.5"/>
	<path style="clip-path:url(#SVGID_00000098937783395684698820000016635273757325840826_);fill:#AF896C;" d="M143.2,121.3
		c-0.1,0-0.2,0-0.2,0.2c0.3,0.3,0.3,0.7,0.3,1.2c-0.1,0.3,0,0.5-0.1,0.7c0.4,0.5,1,0.5,1.6,0.4c0.1-0.3,0.3-0.6,0.2-0.9
		c0.1-0.4-0.2-0.6,0-0.9C144.6,121.3,143.7,121.6,143.2,121.3"/>
	<path style="clip-path:url(#SVGID_00000098937783395684698820000016635273757325840826_);fill:#AF896C;" d="M121.4,121.3
		c-0.3,0.2-0.8,0.3-1.2,0.2c0,0.2-0.3,0.4-0.2,0.6c-0.1,0.4-0.2,0.7-0.1,1c0,0.2-0.1,0.4-0.1,0.5c0.5,0.5,1.1,0,1.5-0.2
		c0.1-0.3,0-0.6,0-0.9c0.1-0.3,0.1-0.7,0.3-1C121.7,121.3,121.6,121.2,121.4,121.3"/>
	<path style="clip-path:url(#SVGID_00000098937783395684698820000016635273757325840826_);fill:#AF896C;" d="M137.4,122.1
		c-0.2,0-0.5-0.1-0.7-0.1c-0.3-0.1-0.5-0.6-0.9-0.3c-0.3,0.2-0.3,0.6-0.1,0.9c0.1,0.2,0.4,0.2,0.3,0.5c0.3,0.3,0.7,0.4,0.9,0.8
		c0.2,0,0.4,0.4,0.6,0.1c0.2-0.5-0.1-0.9,0.1-1.4C137.5,122.4,137.5,122.2,137.4,122.1"/>
	<path style="clip-path:url(#SVGID_00000098937783395684698820000016635273757325840826_);fill:#AF896C;" d="M128.3,121.6
		c-0.1,0.5-0.7,0.4-1.1,0.5c-0.1,0.2,0,0.5-0.2,0.6c0.2,0.4,0,0.8,0.1,1.2c0.5,0.1,0.9-0.4,1.2-0.8c0.3-0.2,0.6-0.8,0.9-1.1
		l-0.1-0.2C128.8,121.7,128.6,121.5,128.3,121.6"/>
	<path style="clip-path:url(#SVGID_00000098937783395684698820000016635273757325840826_);fill:#AF896C;" d="M146.5,122.6
		c0-0.5-0.6-0.2-0.8-0.5c0,0.1-0.2,0.2-0.1,0.2c0.2,0.4,0.4,0.9,0,1.3c0.1,0.2-0.1,0.4,0.1,0.6c0.2,0.2,0.5,0.2,0.7,0.3
		c0.3,0,0.3-0.3,0.3-0.4C146.8,123.5,146.6,123.1,146.5,122.6"/>
	<path style="clip-path:url(#SVGID_00000098937783395684698820000016635273757325840826_);fill:#AF896C;" d="M119.2,123.7
		c-0.4-0.4,0-1,0-1.5c0-0.1-0.1-0.2-0.3-0.2c-0.8,0.1-0.8,0.9-0.9,1.6c0,0.3-0.1,0.8,0.4,0.8C118.7,124.3,119.2,124.2,119.2,123.7"
		/>
	<path style="clip-path:url(#SVGID_00000098937783395684698820000016635273757325840826_);fill:#AF896C;" d="M134.9,122.6
		c-0.2-0.5-0.5,0.1-0.8,0.1c-0.3,0.3-0.4,0.8-0.2,1.3c0.1,0.2,0.2,0.5,0.2,0.7c0.1,0.1,0.1,0.1,0.2,0.2c0,0.2,0.2,0.4,0.3,0.5
		c0.3,0.1,0.4,0,0.5-0.3c-0.1-0.3,0.2-0.5,0.1-0.8c0-0.3-0.1-0.5,0-0.8C135.1,123.2,135,123,134.9,122.6"/>
	<path style="clip-path:url(#SVGID_00000098937783395684698820000016635273757325840826_);fill:#AF896C;" d="M130.5,124.4
		c0-0.5,0.4-0.9,0.2-1.4c-0.1-0.4-0.5-0.5-0.8-0.6c-0.4,0.3-0.2,1-0.4,1.4c0,0.2,0.1,0.4-0.1,0.5c0.4,0.2,0,0.6,0.1,0.9
		C130.1,125.5,130.1,124.7,130.5,124.4"/>
	<path style="clip-path:url(#SVGID_00000098937783395684698820000016635273757325840826_);fill:#AF896C;" d="M138.7,124.7
		c0.3,0.3,0.8,0.1,1.1,0.4c0.3,0.2,0.4-0.2,0.7-0.3c0-0.1,0-0.3,0-0.5c-0.1-0.2-0.1-0.4-0.3-0.5c-0.3,0.1-0.7,0.2-0.9,0
		c-0.4,0.1-0.7-0.3-1.1-0.1c0,0.3,0.2,0.6,0,0.9C138.4,124.6,138.6,124.7,138.7,124.7"/>
	<path style="clip-path:url(#SVGID_00000098937783395684698820000016635273757325840826_);fill:#AF896C;" d="M126.3,123.8
		c-0.1-0.1,0-0.2-0.2-0.2c-0.3,0.4-0.8,0.2-1.2,0.2c-0.1-0.2-0.4-0.2-0.6-0.2c-0.2,0.2,0.1,0.4-0.1,0.6c0,0.2,0,0.5,0.1,0.7
		c0.2,0,0.4,0.2,0.7,0.1c0.3-0.1,0.7-0.2,1.1-0.4C126.6,124.7,126.1,124.1,126.3,123.8"/>
	<path style="clip-path:url(#SVGID_00000098937783395684698820000016635273757325840826_);fill:#AF896C;" d="M141.9,125.9
		c0.4,0,0.7,0.4,1.2,0.2c0-0.1,0.2-0.3,0-0.4c0.2-0.3-0.2-0.5-0.1-0.8c-0.1-0.2-0.2-0.5-0.3-0.7c-0.4,0.2-0.8-0.1-1.2,0.1
		c0,0.1,0,0.2,0,0.2c0.1,0.2,0,0.4-0.1,0.6c-0.2,0.3,0.1,0.5,0.3,0.7C141.6,125.8,141.8,125.8,141.9,125.9"/>
	<path style="clip-path:url(#SVGID_00000098937783395684698820000016635273757325840826_);fill:#AF896C;" d="M136.3,126.5
		c0.5,0,0.7,0.6,1.2,0.3c0,0,0.1-0.1,0-0.2l0.1-0.4c-0.2-0.3-0.1-0.6-0.1-0.9c-0.2,0-0.1-0.2-0.1-0.3c-0.4-0.1-0.8-0.3-1.2-0.6
		c-0.1-0.1-0.3-0.3-0.4-0.1c0.3,0.5,0,1.1-0.1,1.6C135.8,126.2,136,126.4,136.3,126.5"/>
	<path style="clip-path:url(#SVGID_00000098937783395684698820000016635273757325840826_);fill:#AF896C;" d="M128.6,126.1
		c0.1-0.2,0.1-0.4,0.1-0.5c-0.3-0.2-0.1-0.5-0.1-0.8c-0.1,0,0-0.2,0-0.2c0.1-0.2,0-0.3-0.2-0.4c-0.4,0.2-0.6,0.7-1,0.7
		c-0.7,0.5-0.2,1.2-0.4,1.8C127.6,127,128.1,126.4,128.6,126.1"/>
	<path style="clip-path:url(#SVGID_00000098937783395684698820000016635273757325840826_);fill:#AF896C;" d="M123.3,125
		c-0.2-0.2-0.1-0.5-0.2-0.8l-0.1-0.1c-0.4,0.1-0.8-0.2-1.1,0c-0.1,0.3-0.1,0.5-0.3,0.7c0.2,0.3-0.1,0.8,0.1,1.1c0.2,0,0.4,0,0.6,0
		c0.2-0.3,0.5-0.1,0.7-0.4C123.2,125.5,123.5,125.3,123.3,125"/>
	<path style="clip-path:url(#SVGID_00000098937783395684698820000016635273757325840826_);fill:#AF896C;" d="M145.1,125
		c-0.2-0.2-0.5-0.1-0.8-0.1c-0.1-0.2-0.4-0.1-0.6-0.1c-0.1,0.2,0.1,0.4,0.3,0.5c0,0.2,0.1,0.4,0,0.6c0.1,0.2-0.1,0.7,0.3,0.6
		c0.2,0.3,0.6,0.3,0.9,0.3c0.1-0.2,0.2-0.3,0.2-0.5c-0.2-0.2,0.1-0.4-0.1-0.6C145,125.5,145.2,125.2,145.1,125"/>
	<path style="clip-path:url(#SVGID_00000098937783395684698820000016635273757325840826_);fill:#AF896C;" d="M119.4,126.6
		c0.1,0.2,0.3,0.1,0.5,0.1c0.2-0.2,0.8-0.1,0.8-0.5c-0.1-0.6,0-1,0.3-1.5c-0.2-0.2-0.4,0-0.5-0.1c-0.2,0.2-0.5-0.1-0.7,0.2
		C119.5,125.4,119.3,126,119.4,126.6"/>
	<path style="clip-path:url(#SVGID_00000098937783395684698820000016635273757325840826_);fill:#AF896C;" d="M146.6,125.8
		c0-0.2-0.2-0.2-0.4-0.2c-0.2,0-0.2,0.2-0.2,0.4c0.3,0.5-0.2,1,0.1,1.4c0.3,0.1,0.3-0.2,0.4-0.3
		C146.4,126.6,146.7,126.2,146.6,125.8"/>
	<path style="clip-path:url(#SVGID_00000098937783395684698820000016635273757325840826_);fill:#AF896C;" d="M139.2,127.6
		c0.5,0,1.1,0.4,1.5,0c0.3-0.4-0.1-0.8,0-1.2c-0.2-0.1-0.1-0.4-0.3-0.5c-0.2,0.3-0.5,0-0.9,0.1c-0.2-0.3-0.7-0.2-1.1-0.4l-0.1,0.1
		c0.3,0.4,0.2,0.9,0.1,1.3C138.4,127.5,139,127.4,139.2,127.6"/>
	<path style="clip-path:url(#SVGID_00000098937783395684698820000016635273757325840826_);fill:#AF896C;" d="M118.4,125.4
		c-0.1,0.2-0.4,0.1-0.4,0.4c-0.1,0.4,0,0.6,0,1.1c0.1,0.2,0,0.6,0.3,0.7c0.1,0,0.1-0.1,0.1-0.1c0.2-0.2,0.3-0.5,0.3-0.7
		c-0.2-0.3,0-0.7,0-1C118.7,125.6,118.7,125.3,118.4,125.4"/>
	<path style="clip-path:url(#SVGID_00000098937783395684698820000016635273757325840826_);fill:#AF896C;" d="M126.1,127
		c0.2-0.2-0.2-0.1,0-0.3c0-0.3,0-0.7,0-1.1l-0.2,0c-0.4,0.5-1.1,0.3-1.7,0.3c-0.1,0-0.2,0.1-0.2,0.2c-0.2,0.4,0,0.8-0.2,1.2
		c0,0.2,0.1,0.4,0.3,0.5c0.7-0.1,1.4-0.1,2-0.5C126.2,127.2,126.2,127.1,126.1,127"/>
	<path style="clip-path:url(#SVGID_00000098937783395684698820000016635273757325840826_);fill:#AF896C;" d="M135.4,127.3
		c0.4-0.3-0.4-0.6-0.2-0.9l-0.3-0.4c-0.2,0-0.4-0.3-0.5,0C134.7,126.5,134.9,127,135.4,127.3"/>
	<path style="clip-path:url(#SVGID_00000098937783395684698820000016635273757325840826_);fill:#AF896C;" d="M129.2,126.9
		c0.2-0.4,0.7-0.4,0.6-1h-0.1c-0.1,0.1-0.3,0.2-0.4,0.3c-0.1,0.1,0,0.2-0.2,0.3c-0.1,0.1-0.2,0.3-0.1,0.4
		C129,127,129.1,127,129.2,126.9"/>
	<path style="clip-path:url(#SVGID_00000098937783395684698820000016635273757325840826_);fill:#AF896C;" d="M143.2,128.6
		c0.1,0,0.1-0.1,0.1-0.2c0.3-0.3-0.1-0.6,0.1-0.9c-0.2-0.3-0.3-0.6-0.8-0.4c-0.1-0.1-0.4-0.1-0.4-0.2c-0.3,0.1-0.6-0.3-0.7,0.1
		c0.2,0.2,0.1,0.7-0.1,0.9C141.9,128.4,142.6,128.5,143.2,128.6"/>
	<path style="clip-path:url(#SVGID_00000098937783395684698820000016635273757325840826_);fill:#AF896C;" d="M122.8,127.4
		c-0.1-0.2,0.3-0.7-0.1-0.8c-0.4,0.3-0.9,0.4-1.4,0.5c-0.1,0.5-0.1,0.9,0,1.3c0.2,0.3,0.5,0,0.8,0c0.3-0.1,0.6-0.3,0.9-0.3
		C123,127.9,122.8,127.7,122.8,127.4"/>
	<path style="clip-path:url(#SVGID_00000098937783395684698820000016635273757325840826_);fill:#AF896C;" d="M137.1,128.6
		c0.4-0.1,0.6,0.5,1,0.3c0.3-0.4-0.2-0.6-0.2-1c-0.1-0.5-0.6-0.3-0.9-0.4c-0.3-0.2-0.6-0.3-0.9-0.3c0,0.2,0.2,0.5,0.3,0.7
		C136.4,128.4,136.9,128.3,137.1,128.6"/>
	<path style="clip-path:url(#SVGID_00000098937783395684698820000016635273757325840826_);fill:#AF896C;" d="M145.5,129
		c0.1-0.3,0.1-0.7,0-1.1c-0.1-0.5-0.8-0.3-1.2-0.4l-0.1,0.1c0.2,0.4-0.2,1,0.2,1.3C144.8,128.9,145.2,129.3,145.5,129"/>
	<path style="clip-path:url(#SVGID_00000098937783395684698820000016635273757325840826_);fill:#AF896C;" d="M126.3,128.7
		c0.2,0.2,0.4,0,0.6,0c0.3-0.3,0.9-0.5,1.1-0.9c-0.2-0.2,0.1-0.3,0.1-0.5l-0.3,0c-0.3,0.3-0.6,0.2-1,0.3
		C126.3,127.8,126.6,128.4,126.3,128.7"/>
	<path style="clip-path:url(#SVGID_00000098937783395684698820000016635273757325840826_);fill:#AF896C;" d="M120.4,128.6
		c-0.2-0.4,0.2-0.7,0-1.1l-0.1-0.2c-0.3-0.1-0.6,0.2-0.9,0.1c-0.2,0.2-0.1,0.5-0.3,0.7c0,0.2-0.1,0.6,0.1,0.8
		C119.6,129.1,120.1,129,120.4,128.6"/>
	<path style="clip-path:url(#SVGID_00000098937783395684698820000016635273757325840826_);fill:#AF896C;" d="M141.1,129.8
		c0-0.1,0-0.2,0.1-0.4c-0.1-0.3-0.3-0.8-0.6-0.9c-0.4,0.3-1-0.1-1.6,0c-0.2,0.2,0,0.6,0,0.8C139.6,129.7,140.3,129.9,141.1,129.8"/>
	<path style="clip-path:url(#SVGID_00000098937783395684698820000016635273757325840826_);fill:#AF896C;" d="M125.5,128.3
		c-0.1,0.2-0.4,0.1-0.5,0.4c-0.4,0.1-1-0.4-1.4,0c0,0.4-0.3,0.6-0.2,1c0.3,0.3,0.6,0.1,1,0.1c0.2,0,0.3-0.2,0.5-0.2
		c0.2-0.2,0.5-0.1,0.7-0.4C125.3,128.9,125.9,128.5,125.5,128.3"/>
	<path style="clip-path:url(#SVGID_00000098937783395684698820000016635273757325840826_);fill:#AF896C;" d="M142.6,129.9
		c0.4-0.1,1,0.1,1.4,0c0.1-0.2,0.4-0.1,0.3-0.4c-0.8-0.2-1.6-0.3-2.4-0.4l-0.2,0.2c0,0.2,0.1,0.4,0.3,0.6L142.6,129.9z"/>
	<path style="clip-path:url(#SVGID_00000098937783395684698820000016635273757325840826_);fill:#AF896C;" d="M122.3,129.8
		c0.2-0.2,0.2-0.5,0.3-0.8c-0.1-0.2-0.3,0-0.5-0.1c-0.3,0.3-0.9,0.2-1.3,0.2c-0.2,0.3-0.6,0-0.7,0.4l0.1,0.1
		C120.9,129.8,121.7,129.9,122.3,129.8"/>
	<polygon style="clip-path:url(#SVGID_00000098937783395684698820000016635273757325840826_);fill:#939598;" points="28.5,161.4 
		28.5,140.8 28,140.8 27.9,162.1 20.8,162.1 20.7,162.1 20.7,163.2 29,163.2 29,163.1 29,161.4 28.5,161.4 	"/>
	<path style="clip-path:url(#SVGID_00000098937783395684698820000016635273757325840826_);fill:#939598;" d="M53.1,143.4
		c0-0.3,0.2-0.6,0.5-0.8c1.1-0.4,2.4-0.2,3.6-0.3l0-1.7h-1.1c0,0.3,0,0.4,0,0.6c-1.3,0-3-0.1-3.7,0.4c-0.2,0.2-0.4,0.4-0.4,0.7
		l0,16.9l0.2,0.5c0.3,0.1,0.6,0.1,0.9,0.1L53.1,143.4z"/>
	<path style="clip-path:url(#SVGID_00000098937783395684698820000016635273757325840826_);fill:#939598;" d="M34.5,142.7
		c0.2-1.1,1.6-0.7,2.4-0.8l0-1.6h-1.1c0,0,0,0.2,0,0.4c-0.5,0-1.2-0.1-1.7,0.2c-0.4,0.2-0.6,0.6-0.6,1c0,2.4,0,6.3,0,6.3l1.1,0
		L34.5,142.7z"/>
	<polygon style="clip-path:url(#SVGID_00000098937783395684698820000016635273757325840826_);fill:#939598;" points="47.2,161.4 
		47.1,140.8 46.7,140.8 46.7,162.2 40.9,162.2 40.9,163.1 47.8,163.1 47.8,161.4 47.2,161.4 	"/>
	<path style="clip-path:url(#SVGID_00000098937783395684698820000016635273757325840826_);fill:#939598;" d="M23.1,141l0-0.2
		c0,0,0-0.1-0.1-0.1c-0.7-0.1-1.5-0.2-2.2-0.1c0,0.3,0,0.7,0.1,1l2.2,0V141C23.1,141,23.1,141,23.1,141"/>
	<path style="clip-path:url(#SVGID_00000098937783395684698820000016635273757325840826_);fill:#939598;" d="M41.7,140.8
		c-0.1-0.2-0.4-0.2-0.6-0.2l0,1c0.3,0,0.4,0,0.6,0L41.7,140.8C41.7,140.8,41.7,140.8,41.7,140.8"/>
	<path style="clip-path:url(#SVGID_00000098937783395684698820000016635273757325840826_);fill:#939598;" d="M34.5,152.6h7.1v-1
		h-8.2l0,8.3l0,0.4c0.3,0.1,0.7,0.1,1,0.1L34.5,152.6z"/>
	<polygon style="clip-path:url(#SVGID_00000098937783395684698820000016635273757325840826_);fill:#939598;" points="57.3,162.6 
		56.2,162.6 56.2,162.9 48.9,162.9 48.9,163.9 57.3,163.9 	"/>
	<path style="clip-path:url(#SVGID_00000098937783395684698820000016635273757325840826_);fill:#939598;" d="M35.8,162.6
		c0,0,0,0.1,0,0.3l-5.6,0l0,1l6.7,0l0-1.3C36.3,162.6,35.8,162.6,35.8,162.6"/>
	<path style="clip-path:url(#SVGID_00000098937783395684698820000016635273757325840826_);fill:#939598;" d="M71.3,141.2
		c-3.7,2.8-3.6,8.2-3.1,12.4c0.2,1.5,0.6,3,1.4,4.3c0.1,0.2,0.3,0.4,0.4,0.6c0.2,0.2,0.3,0.4,0.5,0.6c0.1,0.1,0.2,0.2,0.4,0.3
		c0,0,0,0,0,0c-0.8-1.1-1.2-2.4-1.5-3.8c-0.6-3.7-0.7-7.5,0.8-10.8c1-2.4,3.6-3.7,6.1-3.7c1.2,0,2.4,0.2,3.5,0.7
		c0.2,0,0.4,0.3,0.5,0.3c-0.2-0.2-0.4-0.5-0.6-0.7c-0.9-0.7-1.9-1-2.9-1.2C74.8,139.9,72.9,140.2,71.3,141.2"/>
	<path style="clip-path:url(#SVGID_00000098937783395684698820000016635273757325840826_);fill:#939598;" d="M84.5,142.5
		c2.3,3,2.6,7.1,2.2,10.9c-0.1,0.5-0.2,1.1-0.3,1.6c0.3-0.7,0.6-1.4,0.8-2.1c0.5-2.3,0.4-4.8-0.3-7.1c-0.6-1.4-1.5-2.7-2.5-3.9v-0.1
		l0.5,0.3c-0.2-0.3-0.5-0.6-0.8-0.8c-0.3-0.3-0.7-0.5-1-0.7C83.6,141.2,84.1,141.8,84.5,142.5"/>
	<path style="clip-path:url(#SVGID_00000098937783395684698820000016635273757325840826_);fill:#939598;" d="M92.4,156
		c1.6-4.2,0.6-9.6-2.8-12.6c2.7,3.2,3.3,8.4,1.5,12.2c-1.5,3.3-4.8,5.8-8.3,6.2l-1.6-0.1c-1.1,0.4-2.3,0.8-3.5,0.9
		c-1,0.1-1.9,0.2-2.9,0.1c-1.8,0-3.4-0.4-4.9-1.1l-1.5,0.3c-1.6-0.4-3.2-0.9-4.5-1.9c-0.4-0.3-0.8-0.7-1.3-0.8
		c1.8,2,4.2,3.1,6.7,3.7l1.5-0.2l1.3,0.4c1,0.3,2.1,0.6,3.2,0.6c2.3,0,4.6,0,6.7-1c0.6,0,1-0.1,1.6,0.1
		C87.5,162.6,91.1,159.6,92.4,156"/>
	<path style="clip-path:url(#SVGID_00000098937783395684698820000016635273757325840826_);fill:#939598;" d="M63.9,145.1
		c0.1-0.4,0.5-0.9,0.6-1.3l-0.8,1.3c-1.7,3.8-1.6,9.2,1.1,12.6c0.2,0.2,0.5,0.5,0.8,0.7c-0.8-1.1-1.2-2.3-1.6-3.6
		c0-0.1,0-0.1-0.1-0.2c-0.1-0.3-0.2-0.6-0.3-1c0,0,0,0,0,0c-0.1-0.2-0.1-0.5-0.2-0.8C62.9,150.3,63,147.5,63.9,145.1"/>
	<polygon style="clip-path:url(#SVGID_00000098937783395684698820000016635273757325840826_);fill:#939598;" points="89.5,161.7 
		89.6,161.7 89.5,161.6 	"/>
	<path style="clip-path:url(#SVGID_00000098937783395684698820000016635273757325840826_);fill:#939598;" d="M104.4,140.6h-0.7
		l0,21.5l-7.3,0c0,0.3,0,0.7,0,1h8.3l0-1.7h-0.4v-0.1h0L104.4,140.6z"/>
	<path style="clip-path:url(#SVGID_00000098937783395684698820000016635273757325840826_);fill:#939598;" d="M109.1,140.4l0,10.9
		c0.4,0,0.7,0,1.1,0v-9.8c2.6,0.2,5.2-0.3,7.5,0.6c-0.3-0.4-0.5-0.8-0.9-1.1c-0.5-0.3-1-0.4-1.6-0.6
		C113.2,140.3,111,140.5,109.1,140.4"/>
	<path style="clip-path:url(#SVGID_00000098937783395684698820000016635273757325840826_);fill:#939598;" d="M98.8,140.2
		c-0.7-0.1-1.4-0.1-2.1-0.1c0,0,0,1,0,1l2.3,0v-0.3C99,140.6,98.9,140.4,98.8,140.2"/>
	<path style="clip-path:url(#SVGID_00000098937783395684698820000016635273757325840826_);fill:#939598;" d="M121.9,141.2
		c1.5,1.8,1.8,4.4,1.4,6.8c0,0.4-0.2,0.7-0.2,1.1c0.8-1.1,1.1-2.4,1.1-3.8c0-0.3,0-0.5,0-0.8C123.7,143.2,122.8,141.7,121.9,141.2"
		/>
	<path style="clip-path:url(#SVGID_00000098937783395684698820000016635273757325840826_);fill:#939598;" d="M121,153.6l1.2,0.3
		c3.2-0.2,6.6-2,7.5-5.3c0.4-2-0.3-4-1.9-5.3c0.8,1.1,1.2,2.6,0.9,4.1c-0.5,2.5-3.6,4.7-5.6,5.1c-1,0.1-2.2,0.4-3.1-0.1
		c-3.2,1.7-7.2,1.2-10.9,1.3l0,3.4c0,0.8-0.1,1.8,0.3,2.6c0.3,0.1,0.5,0.2,0.8,0.2c0-2.3,0-3.1,0-5.2l5.8,0
		C117.9,154.8,119.5,154.4,121,153.6"/>
	<path style="clip-path:url(#SVGID_00000098937783395684698820000016635273757325840826_);fill:#939598;" d="M106,163.9
		c3.1,0,5,0,8.3,0v-1.4h-1.1l0,0.4H106C106,163.2,106,163.4,106,163.9"/>
	<polygon style="clip-path:url(#SVGID_00000098937783395684698820000016635273757325840826_);fill:#939598;" points="162.9,147.6 
		163.1,148.7 164,148.7 164,140.3 162.9,140.3 	"/>
	<path style="clip-path:url(#SVGID_00000098937783395684698820000016635273757325840826_);fill:#939598;" d="M141.7,161.4l0-20.5
		c-0.2,0-0.4,0-0.6,0l0,21.3h-7.3l0,1h8.4l0-1.7H141.7L141.7,161.4z"/>
	<path style="clip-path:url(#SVGID_00000098937783395684698820000016635273757325840826_);fill:#939598;" d="M147.5,141.9
		c2.7,0.1,5.4-0.1,8.1,0.2c1.6,0.2,3.2,0.5,4.5,1.5h0.2l-0.5-0.6c-3.5-2.8-8.7-2.1-13.4-2.3v8.1c0.3,0.2,0.7,0.2,1.1,0.3
		L147.5,141.9z"/>
	<path style="clip-path:url(#SVGID_00000098937783395684698820000016635273757325840826_);fill:#939598;" d="M136.2,140.7
		c-0.7-0.1-1.5-0.2-2.3-0.1c0,0.3,0,0.6,0,1c0.9,0,1.5,0,2.4,0l0-0.6C136.3,141,136.2,140.9,136.2,140.7"/>
	<path style="clip-path:url(#SVGID_00000098937783395684698820000016635273757325840826_);fill:#939598;" d="M155.5,157.1
		c0,0,0.5-0.1,0.9-0.2l0-9.4l-1-0.4l0,8.8l-0.3,0.2L155.5,157.1z"/>
	<path style="clip-path:url(#SVGID_00000098937783395684698820000016635273757325840826_);fill:#939598;" d="M152.9,152.9
		c-1.1-0.7-2.4-0.6-3.8-0.7c-1,0.1-2,0.1-2.7,0.6l0,3.2c0,1.4-0.1,2.7,0.2,4.1c0.3,0.1,0.6,0.2,0.9,0.2c0-3.1,0-4.1,0-6.5
		c0.9-0.5,1.9-0.5,3-0.5c1-0.1,2,0.1,2.8,0.3c-0.1-0.1-0.1-0.3-0.2-0.4C153,153.1,153,153,152.9,152.9"/>
	<polygon style="clip-path:url(#SVGID_00000098937783395684698820000016635273757325840826_);fill:#939598;" points="151.8,162.5 
		150.7,162.5 150.7,162.8 143.5,162.8 143.5,163.9 151.8,163.9 	"/>
	<path style="clip-path:url(#SVGID_00000098937783395684698820000016635273757325840826_);fill:#939598;" d="M198.2,148.2l0.3,1.2
		c0.4-0.1,0.8-0.2,1.1-0.3l-0.4-6.1c-0.1-0.8-0.1-1.7-0.2-2.4c-0.3,0-0.7-0.1-0.9,0.1c0.2,2.4,0.3,4.9,0.5,7.3
		C198.6,148.2,198.2,148,198.2,148.2"/>
	<path style="clip-path:url(#SVGID_00000098937783395684698820000016635273757325840826_);fill:#939598;" d="M176.8,161.4
		L176.8,161.4L176.8,161.4l0-20.6c-0.1,0-0.3,0-0.5,0v21.3h-7.4v1h8.4v-1.7h0H176.8z"/>
	<path style="clip-path:url(#SVGID_00000098937783395684698820000016635273757325840826_);fill:#939598;" d="M182.8,142.1l0-0.2
		c4.1,0.1,8.9-0.6,12.4,1.6c-0.5-1-1.7-1.5-2.8-1.9c-3.3-1-7.2-0.6-10.7-0.7c0,2.7,0,5.4,0,8.1c0.3,0.1,0.7,0.1,1,0.2L182.8,142.1z"
		/>
	<path style="clip-path:url(#SVGID_00000098937783395684698820000016635273757325840826_);fill:#939598;" d="M171.5,140.7
		c-0.7-0.2-1.5-0.1-2.2-0.2c-0.1,0.4,0,0.7,0,1l2.3,0L171.5,140.7C171.5,140.8,171.5,140.8,171.5,140.7"/>
	<path style="clip-path:url(#SVGID_00000098937783395684698820000016635273757325840826_);fill:#939598;" d="M190.5,147.6l0,8.1
		c0,0-0.2,0.2-0.4,0.3c0.2,0.4,0.4,0.7,0.6,1.1l0.9-0.4l0-9c-0.2-0.2-0.4-0.4-0.7-0.5C190.6,147.2,190.6,147.5,190.5,147.6"/>
	<path style="clip-path:url(#SVGID_00000098937783395684698820000016635273757325840826_);fill:#939598;" d="M187.9,152.9
		c-1.7-1.2-4.3-1.3-6.1-0.3l0,7.4c0.3,0,0.7,0,1,0c0-2.1,0-4.3,0-6.4c1.3-0.8,3.3-0.8,4.8-0.4c0.3,0,0.5,0.2,0.7,0.3
		c-0.1-0.1-0.2-0.3-0.2-0.4C188,153,187.9,153,187.9,152.9"/>
	<path style="clip-path:url(#SVGID_00000098937783395684698820000016635273757325840826_);fill:#939598;" d="M199.1,163.6
		c0.3-3.1,0.5-5.8,0.8-9l-1.1-0.2c-0.2,2.6-0.4,5.6-0.8,8.2l-19.5,0l0,1H199.1z"/>
	<path style="clip-path:url(#SVGID_00000098937783395684698820000016635273757325840826_);fill:#939598;" d="M239.1,140.8
		c-1.1,0.4-2.1,1.2-2.3,2.4l-0.1,5.9l0,7.6l-0.7-0.6v0.1l0,0.1c-6.4-5.3-12.7-10.7-19.1-16l-0.2,0.2c0,0,21.1,17.7,21.1,17.7l0-12.9
		c0-0.7,0-1.2,0.3-1.8c0.5-1.5,2.2-1.8,3.7-1.9c0-0.4,0-0.8,0-1.2C241.7,140.7,239.7,140.6,239.1,140.8"/>
	<path style="clip-path:url(#SVGID_00000098937783395684698820000016635273757325840826_);fill:#939598;" d="M231.5,140.6l0,1
		l1.3,0.1c0.4,0.1,0.7,0.2,1,0.2c0,0,0,0,0,0C233.4,140.9,232.3,140.8,231.5,140.6"/>
	<path style="clip-path:url(#SVGID_00000098937783395684698820000016635273757325840826_);fill:#939598;" d="M209.7,141
		c-0.6-0.4-1.3-0.4-1.9-0.3c0,0.3,0,0.6,0,1c0.8,0,1.4,0,2.3,0c0-0.1-0.1-0.1-0.1-0.2L209.7,141z"/>
	<path style="clip-path:url(#SVGID_00000098937783395684698820000016635273757325840826_);fill:#939598;" d="M236.4,159.2l0,2.4
		l-0.3,0.4c-0.7,0.5-1.6,0.4-2.3,0l-0.8-0.6c-0.5-0.3-0.9-0.7-1.3-1l-1.4-1.1l-3.1-2.6l-3.5-2.9l-7.7-6.4l-2.7-2.3
		c-0.2-0.1-0.4-0.1-0.6-0.1l0,0l0,13.1l0.4,1l0.2,0.2c0,0,0.1,0.1,0.1,0.1c0.1,0,0.2,0.1,0.3,0.1c0.1-1.5,0-12.6,0-12.6
		c0-0.6,0.3-0.4,0.6-0.5c0,0,16.3,13.4,19,15.7c0.7,0.6,1.4,1,2.3,1.1c0.7,0.1,1.5-0.2,1.9-0.8v-2.3
		C237.3,159.9,236.8,159.4,236.4,159.2"/>
	<path style="clip-path:url(#SVGID_00000098937783395684698820000016635273757325840826_);fill:#939598;" d="M216.8,161.9
		c0,0,0,1,0,1l-8.9,0c0,0.4,0,0.6,0,1h10l0-1.4L216.8,161.9z"/>
	<path style="clip-path:url(#SVGID_00000098937783395684698820000016635273757325840826_);fill:#939598;" d="M96.5,174.3
		C96.5,174.3,96.5,174.2,96.5,174.3c-0.4,0.7-0.3,1.6-0.3,2.4c0.2,1.1,0.7,1.8,1.3,2.7l1.5,1.6c-0.5-0.7-0.9-1.5-1.3-2.4
		c-0.1-0.2-0.1-0.5-0.2-0.7c0,0,0,0,0,0C96.7,176.9,96.4,175.5,96.5,174.3"/>
	<path style="clip-path:url(#SVGID_00000098937783395684698820000016635273757325840826_);fill:#939598;" d="M105.6,193.5l-1.1-1
		c-0.2,0.2-0.2,0.2-0.3,0.3c-0.9,0.7-1.9,1.1-3,1.3c-2.9,0.3-5.9,0.4-8.6-0.7c-0.2,0-0.4,0-0.5,0.2c-1.1,0.2-2.2,0-3.2-0.3
		c-0.7-0.2-1.5-0.6-2.1-1c1.1,1.4,2.8,2.3,4.5,2.6c0.8,0.2,1.8,0.2,2.5-0.2c2.2,0.9,4.4,1,6.9,0.8c1.8-0.1,3.6-0.7,5.2-1.6l1,0.9
		l4.2,0c-0.4-0.4-0.8-0.9-1.2-1.3L105.6,193.5z"/>
	<path style="clip-path:url(#SVGID_00000098937783395684698820000016635273757325840826_);fill:#939598;" d="M138.7,172.5
		c-1.7,0.1-3.3,0.1-4.7,0.9c-2.8,1.5-4.1,4.4-4.1,7.5c0.1,2.4,0.1,4.9,0.9,7.1c0.1,0.4,0.3,0.7,0.5,1.1c0.3,0.4,0.7,0.8,1.2,1.1
		c-0.9-1.7-1.2-3.8-1.3-5.8c-0.3-3.9,0.5-8.1,4.1-9.9c2.8-1.3,6.7-1,9.2,0.7v0c-0.1-0.2-0.2-0.3-0.4-0.5
		C142.7,173.1,140.7,172.5,138.7,172.5"/>
	<path style="clip-path:url(#SVGID_00000098937783395684698820000016635273757325840826_);fill:#939598;" d="M148,180.7l0.3,1.2
		l0.9,0l0.1-9.3l-0.9-0.2l-0.5,0.6C147.9,176.1,148,177.1,148,180.7"/>
	<path style="clip-path:url(#SVGID_00000098937783395684698820000016635273757325840826_);fill:#939598;" d="M125.7,177.7
		c-1.3,3.1-1,7.2,0.4,10.1c0.3,0.5,0.6,1.1,1,1.6c0.3,0.3,0.6,0.6,1,0.9c-1.2-2.2-2.3-4.5-2.4-7.1c0-0.1,0-0.2,0-0.3
		c0-0.4,0-0.9,0-1.4c0-0.2,0-0.5,0-0.7c0-1.3,0.2-2.5,0.6-3.6c0-0.1,0.1-0.3,0.1-0.4c0.1-0.2,0.2-0.4,0.3-0.6
		c0.1-0.3,0.2-0.6,0.4-0.9C126.5,176,126.1,176.8,125.7,177.7"/>
	<path style="clip-path:url(#SVGID_00000098937783395684698820000016635273757325840826_);fill:#939598;" d="M148.9,186.8
		c0,0.8-0.2,1.5-0.5,2.2c-1.5,3.6-5.1,4.8-9.1,5.1c-1.6,0.1-3.3,0.1-4.8-0.1c-1.1-0.2-2.3-0.5-3.3-1c-0.3,0.1-0.5,0.1-0.7,0.3
		c-2.1-0.3-4-1.3-5.5-2.5c1.2,1.6,3,2.7,4.8,3.3c0.9,0.2,1.8,0.9,2.7,0.3c1.3,0.5,2.7,0.9,4.1,1c3.9,0.4,7.8-0.1,10.8-2.6
		c1.8-1.5,2.8-3.7,2.9-6.1l-0.1-0.2C149.7,186.6,149.3,186.6,148.9,186.8"/>
	<path style="clip-path:url(#SVGID_00000098937783395684698820000016635273757325840826_);fill:#939598;" d="M103.4,172.4
		c-1.2,0.1-2.6,0.5-2.9,1.8c-0.3,0.7,0,1.4,0.4,2c0.5,0.5,0.9,1,1.4,1.5c-0.2-0.2-0.4-0.5-0.5-0.8c-0.3-0.6-0.1-1.3,0.2-1.9
		c0.8-1.3,2.4-1.4,3.8-1.1c0,0,0,0,0,0c0-0.1,0-0.1,0-0.2c0-0.1-0.1-0.2-0.2-0.3C105.1,172.6,104.2,172.4,103.4,172.4"/>
	<path style="clip-path:url(#SVGID_00000098937783395684698820000016635273757325840826_);fill:#939598;" d="M105.6,181.4
		c0.5-0.2,1.2-0.5,1.7-0.8c-0.1,0-0.2,0-0.3,0v-0.9h0.1v0h1.3c0.5-0.7,0.9-1.6,1-2.4c0.1-1.7-0.5-3.4-2-4.2c0,0.1,0.2,0.3,0.2,0.5
		c0.6,1.1,0.5,2.3,0.3,3.5c-0.1,1.2-1,2.4-2.1,2.8c-0.4,0.3-1.1-0.1-1.4,0.2c0.4,0.4,0.7,0.8,1.1,1.2
		C105.5,181.4,105.6,181.4,105.6,181.4"/>
	<path style="clip-path:url(#SVGID_00000098937783395684698820000016635273757325840826_);fill:#939598;" d="M111.5,188.4
		c-0.1-0.3,0.1-1,0.2-1.3c1.4-1.5,2.7-3.1,4.6-3.8c0.4-0.2,0.9-0.1,1.3-0.3c0-0.3,0-0.6-0.1-0.9c-0.9,0-1.8,0-2.7,0
		c-1.2,0.4-2.3,1.5-3.1,2.4c-0.1,0.9-1,1.8-1.7,2.3c0,0,0,0.1,0,0.1c0.5,0.5,0.9,1,1.4,1.4C111.4,188.3,111.4,188.4,111.5,188.4"/>
	<path style="clip-path:url(#SVGID_00000098937783395684698820000016635273757325840826_);fill:#939598;" d="M108.9,181.9
		c0,0.3,0,0.6,0,0.9l0.7,0c0-0.1,0.1-0.3,0.1-0.5c0-0.2,0-0.4-0.1-0.5C109.4,181.8,109.1,181.9,108.9,181.9"/>
	<path style="clip-path:url(#SVGID_00000098937783395684698820000016635273757325840826_);fill:#939598;" d="M93.2,183.4
		c-1,1.9-0.9,4.5,0.2,6.3c0.3,0.4,0.8,0.8,1.2,1.1c-1-1.7-1.2-4.1-0.3-5.9c0.4-0.7,1.1-1.4,1.9-1.5c-0.4-0.4-0.8-0.9-1.2-1.3
		C94.3,182.2,93.5,182.7,93.2,183.4"/>
	<path style="clip-path:url(#SVGID_00000098937783395684698820000016635273757325840826_);fill:#939598;" d="M88.2,189.1
		c0.1,0.4,0.3,0.8,0.6,1.2c0.3,0.3,0.6,0.6,1,0.8c-0.2-0.4-0.3-0.9-0.7-1.2c-0.2-0.4-0.4-0.8-0.5-1.2c-0.1-0.2-0.1-0.3-0.1-0.5
		c0-0.1,0-0.2-0.1-0.3c-0.1-0.3-0.1-0.6-0.1-0.9c0-0.1,0-0.2,0-0.2c0-0.2,0-0.3,0-0.5c0,0,0-0.1,0-0.1c0-0.1,0-0.2,0-0.2
		C87.9,186.8,87.8,188.1,88.2,189.1"/>
	<path style="clip-path:url(#SVGID_00000098937783395684698820000016635273757325840826_);fill:#939598;" d="M118.1,193.6
		c-0.3,0-6.3,0-6.3,0l0,0c0.4,0.5,0.8,0.8,1.3,1.2h5.2C118.1,194.6,118.2,193.9,118.1,193.6"/>
	<path style="clip-path:url(#SVGID_00000098937783395684698820000016635273757325840826_);fill:#939598;" d="M161.8,177.1
		c-0.7,0.5-1.7,1.3-2.1,2.1c-1.2,2.7-1.2,6-0.5,8.9c0.3,0.8,0.6,1.8,1.2,2.5c0.3,0.3,0.6,0.5,0.9,0.7c-0.6-1.2-1-2.6-1.1-4.1
		c-0.2-3-0.1-6.2,2.1-8.4c1.7-1.4,4.3-1.5,6.3-0.6c-0.1-0.1-0.1-0.2-0.2-0.4l-0.4-0.5C166.3,176,163.2,176.3,161.8,177.1"/>
	<path style="clip-path:url(#SVGID_00000098937783395684698820000016635273757325840826_);fill:#939598;" d="M171,177.2
		c1.1,1.1,1.8,2.5,2.2,3.9c0.5,1.9,0.4,4,0.2,5.8c0.3-0.9,0.4-1.8,0.5-2.9c0-0.3,0-0.6,0-0.9c0-0.9-0.2-1.9-0.5-2.7
		c0-0.1-0.1-0.3-0.1-0.4c0-0.1-0.1-0.2-0.1-0.4c-0.4-0.9-0.8-1.5-0.8-1.5c0,0,0,0,0,0c-0.2-0.2-0.3-0.4-0.5-0.6c0,0-0.1-0.1-0.1-0.1
		c-0.2-0.2-0.4-0.3-0.6-0.4C171.1,177.1,171,177.1,171,177.2"/>
	<path style="clip-path:url(#SVGID_00000098937783395684698820000016635273757325840826_);fill:#939598;" d="M175.7,179.1
		c0.5,0.7,1,1.5,1.3,2.3c1.2,3.5,0.3,7.5-2.6,9.8c-1.8,1.5-3.4,2-5.1,1.8c-0.7,0.5-1.5,0.8-2.3,0.9c-1.4,0.2-2.6-0.3-3.9-0.2
		c-1-0.1-1.9-0.4-2.8-0.7l-1.2,0.1c-1.6-0.3-3.1-1-4.4-2c1.4,1.8,3.5,2.8,5.6,3.3c0.7,0,1.3-0.3,1.9,0.1c2.4,0.9,5.7,0.7,8.1-0.2
		c1.7,0.3,3.3-0.4,4.7-1.2c2.7-1.9,4.1-5,3.7-8.4C178.5,182.5,177.5,180.6,175.7,179.1"/>
	<path style="clip-path:url(#SVGID_00000098937783395684698820000016635273757325840826_);fill:#939598;" d="M155.3,188.1
		c0.3,0.7,0.7,1.4,1.2,2c0.2,0.2,0.5,0.4,0.7,0.6c0-0.1-0.1-0.1-0.1-0.2c-0.8-1-1.4-2.2-1.8-3.5c0-0.1,0-0.1,0-0.2
		c-0.4-1.6-0.5-3.4-0.2-5.2c0-0.1,0.1-0.3,0.1-0.4c0-0.1,0.1-0.2,0.1-0.4c0-0.1,0-0.1,0-0.2C154.4,182.9,154.4,185.9,155.3,188.1"/>
	<path style="clip-path:url(#SVGID_00000098937783395684698820000016635273757325840826_);fill:#6E1517;" d="M67.1,140.3
		c-2.6,2.5-4.1,5.6-4,9.3c0,1.1,0.1,2.1,0.2,3.2c0,0.3,0.1,0.5,0.2,0.8c0,0,0,0,0,0c0.1,0.3,0.2,0.7,0.3,1c0.3,0.7,0.6,1.5,1,2.1
		c0.6,0.8,1.2,1.7,1.9,2.4c-0.5-0.2-0.9-0.5-1.3-0.8c-0.3-0.2-0.5-0.4-0.8-0.7c-2-2-2.8-5-2.8-8C62.1,145.9,63.5,141.9,67.1,140.3
		 M67.4,147.6c0.2-3,1.4-6.6,4.7-7.7c2.1-0.6,4.7-0.6,6.6,0.6c0.4,0.2,0.7,0.5,1,0.8c0.2,0.2,0.4,0.5,0.6,0.7
		c0.1,0.1,0.2,0.2,0.2,0.3c1.9,3.3,1.6,7.5,1.3,11.2c-0.4,2.6-1.3,5.5-4,6.5c-2.2,0.8-5,0.5-6.9-0.8c-0.1-0.1-0.3-0.2-0.4-0.3
		c-0.2-0.2-0.4-0.4-0.5-0.6C67.4,155.6,67.1,151.7,67.4,147.6 M84.1,141.4c0.3,0.3,0.5,0.6,0.8,0.8c0.9,1.1,1.6,2.3,2,3.6
		c0.7,2.3,0.8,4.8,0.3,7.1c-0.2,0.7-0.4,1.4-0.8,2.1c-0.7,1.4-1.6,2.6-2.8,3.6l-0.1,0c2.3-2.8,3.1-6.6,2.7-10.5
		c-0.3-2.9-1.6-5.7-3.6-7.9C83.1,140.6,83.6,141,84.1,141.4 M67.6,161.1l1.5-0.2l1.4,0.5c2.9,1,6.7,0.8,9.4-0.3
		c0.6-0.3,1.3-0.1,1.8,0c3.7-0.3,7.2-3.1,8.6-6.5c1-2.3,1.2-5.2,0.6-7.7c-0.9-3.9-4.4-7.2-8.3-8l-1.8,0.1c-3.1-1.3-7.3-1.4-10.5-0.4
		c-0.9,0.5-2,0.1-2.9,0.1c-3.7,0.6-7.2,3.4-8.8,6.8c-1.3,2.5-1.1,5.7-0.1,8.2C60.1,157.5,63.8,160.3,67.6,161.1"/>
	<path style="clip-path:url(#SVGID_00000098937783395684698820000016635273757325840826_);fill:#6E1517;" d="M88.6,183.2
		c0.2-0.1,0.3-0.4,0.6-0.5c-0.5,0.9-0.8,1.8-0.8,2.9c0,0,0,0.1,0,0.1c0,0.2,0,0.3,0,0.5c0,0.1,0,0.2,0,0.2c0,0.3,0.1,0.6,0.1,0.9
		c0,0.1,0,0.2,0.1,0.3c0,0.2,0.1,0.3,0.1,0.5c0.3,1.1,0.9,2,1.8,2.8c-0.2-0.1-0.5-0.2-0.7-0.3c-0.4-0.2-0.7-0.5-1-0.8
		c-0.3-0.3-0.6-0.7-0.8-1.1C87.1,187,87.3,184.7,88.6,183.2 M92.4,183.8c0.2-1,0.9-2,1.9-2.3c0.1,0,0.3,0,0.4,0
		c0.1,0.1,0.3,0.3,0.4,0.4c0.4,0.4,0.8,0.9,1.2,1.3c2.1,2.2,4.1,4.3,6.1,6.5c-0.1,0.7-0.9,1.1-1.5,1.4c-1.1,0.4-2.4,0.7-3.8,0.5
		c-0.9-0.1-1.7-0.4-2.4-0.9c-0.5-0.3-0.9-0.7-1.2-1.1c-0.3-0.3-0.5-0.7-0.7-1.1C92.1,187,92,185.2,92.4,183.8 M100,173.9
		c0.4-1.1,1.7-1.5,2.8-1.6c1.1,0,2.2,0.5,2.7,1.5c0.1,0.1,0.1,0.2,0.2,0.3c0,0.1,0,0.1,0,0.2c0.3,1.2,0,2.5-0.7,3.4
		c-0.6,0.6-1.4,1.1-2.2,0.8c-0.2-0.1-0.4-0.2-0.6-0.4c-0.5-0.4-0.9-1-1.4-1.5c-0.1-0.1-0.2-0.2-0.2-0.3
		C100,175.7,99.6,174.8,100,173.9 M92,192.1c1.1,0.4,2.4,0.7,3.6,0.8c1,0.1,1.9,0,2.9,0c2-0.1,3.7-0.7,5.4-1.6l1.1,0.9l4.2,0
		c-0.5-0.5-0.9-1.1-1.4-1.5l-7.5-8l-1.3-1.4l-1.5-1.6l-0.3-0.4c-1.3-1.4-2-3.3-1.3-5.1c0.3-0.5,0.6-1.1,1.2-1.3
		c-0.3,0.5-0.4,1.1-0.5,1.8c-0.1,1.3,0.2,2.6,1,3.5c0,0,0,0,0,0c4.3,4.6,9,9.5,13.6,14l5.3-0.1c-0.1-0.3,0-0.7-0.1-1
		c-1-0.1-2-0.3-2.7-0.8c-0.8-0.7-1.5-1.4-2.2-2.2c-0.5-0.5-0.9-0.9-1.4-1.4c0,0-0.1-0.1-0.1-0.1l-0.3-0.6c-0.2-0.4,0-0.8,0.3-1.1
		l2.2-2.2c0.9-1,2.1-1.5,3.4-1.7v-0.8H107h-0.1v0.9c0.1,0,0.2,0,0.3,0c0.6,0.1,1.3,0.1,1.9,0.4c0.2,0.1,0.4,0.3,0.5,0.5
		c0.1,0.2,0.1,0.3,0.1,0.5c0,0.2,0,0.3-0.1,0.5c-0.2,0.8-0.8,1.3-1.4,1.8H108c-0.8-1-1.7-2-2.6-3c-0.4-0.4-0.7-0.8-1.1-1.2
		c-0.1-0.2-0.3-0.3-0.4-0.5l0.1-0.1c1-0.3,1.8-0.9,2.5-1.7c0.9-1.3,1.1-3.4,0.2-4.8c-1-1.7-2.7-2.5-4.6-2.5
		c-1.3,0.1-2.6,0.2-3.7,0.8l-0.4-0.4l-1,0.1c-1.8,0.4-3.5,1.7-4.1,3.5c-0.6,1.7-0.5,3.9,0.7,5.3l-0.9,0.2c-0.7,0.2-1.4,0.6-1.8,1.2
		l-0.6-0.4c-1.7,0.1-3.4,0.6-4.6,1.8c-1.4,1.4-1.8,3.6-1.1,5.4c0.7,2,2.6,3.3,4.5,3.8C90,192.3,91,192.6,92,192.1"/>
	<path style="clip-path:url(#SVGID_00000098937783395684698820000016635273757325840826_);fill:#6E1517;" d="M161.5,176.2
		c1.9-0.8,4.6-0.7,6.2,0.7l0.3,0.3l0.4,0.5c0.1,0.1,0.1,0.2,0.2,0.4c1.3,2.2,1.1,5.1,1,7.7c-0.3,2.2-0.8,4.8-3.1,5.8
		c-1.7,0.6-3.7,0.5-5.2-0.4c-0.3-0.2-0.6-0.4-0.9-0.7c0,0-0.1-0.1-0.1-0.1c-1.3-1.6-1.8-3.5-1.9-5.5
		C158.2,181.7,158.4,177.9,161.5,176.2 M155.3,180.8c0,0.1-0.1,0.2-0.1,0.4c-0.1,0.3-0.1,0.6-0.1,0.9c-0.2,1.2-0.1,2.2,0,3.4
		c0,0.5,0.1,0.9,0.2,1.3c0,0.1,0,0.1,0,0.2c0.4,1.3,1,2.4,1.8,3.5c0,0.1,0.1,0.1,0.1,0.2c-0.3-0.2-0.5-0.4-0.7-0.6
		c-2.4-2.2-2.9-5.9-2.1-9c0.4-1.9,1.6-3.5,3.2-4.5C156.6,177.7,155.7,179.1,155.3,180.8 M171.7,177.6c0,0,0.1,0.1,0.1,0.1
		c0.2,0.2,0.4,0.4,0.5,0.6c0,0,0,0,0,0c0.3,0.5,0.6,1,0.8,1.5c0.1,0.1,0.1,0.2,0.1,0.4c0,0.1,0.1,0.3,0.1,0.4
		c0.3,0.9,0.4,1.8,0.5,2.7c0,0.1,0,0.2,0,0.3c0.1,2.1-0.4,4-1.6,5.6c-0.4,0.5-0.9,1-1.4,1.4c1.5-2,2.3-4.4,2.1-7
		c0-2.6-0.9-5.1-2.6-6.9l-0.1-0.2C170.8,176.8,171.3,177.2,171.7,177.6 M160.5,192.5c2.2,0.8,5.2,0.7,7.3-0.1
		c0.6-0.4,1.2-0.1,1.9-0.1c2-0.3,3.9-1.2,5.2-2.9c1.9-2.3,2.6-5.7,1.6-8.6c-0.8-2.9-3.6-5-6.4-5.6l-1.4,0.1
		c-2.6-1.1-6.1-1.1-8.8-0.1l-1.6-0.1c-2.8,0.5-5.4,2.4-6.7,5c-0.9,1.5-1,3.6-0.6,5.3c0.7,3.5,3.9,6.3,7.4,6.9
		C159.2,192.4,159.9,192.1,160.5,192.5"/>
	<path style="clip-path:url(#SVGID_00000098937783395684698820000016635273757325840826_);fill:#6E1517;" d="M126.4,176.7
		c0,0.1-0.1,0.3-0.1,0.4c-0.4,1.1-0.6,2.3-0.6,3.6c0,0.1,0,0.3,0,0.4c0,0.1,0,0.2,0,0.3c0,0.5,0,0.9,0,1.4c0.2,3,1.3,5.6,3.3,7.7
		c-0.3,0-0.6-0.2-0.9-0.4c-0.4-0.3-0.7-0.6-1-0.9c0,0,0,0-0.1-0.1c-2.7-3.2-3.4-8.1-1.9-12.1c0.6-1.9,2.2-3.6,3.9-4.5
		c-1,1.1-1.8,2.3-2.4,3.6C126.6,176.3,126.5,176.5,126.4,176.7 M130.7,191.7c0.9,0.4,1.8,0.7,2.8,0.9c2.9,0.3,6.1,0.4,8.8-0.7
		c2.8-1,5.5-3.6,5.8-6.8c0-0.4,0.1-0.8,0-1.2l-1.1,0.2l-0.1,0.6c-0.4,2.7-2.4,5-4.9,5.9c-2.7,1.1-6.2,1.2-8.8,0
		c-0.3-0.1-0.5-0.3-0.7-0.5c-0.5-0.3-0.9-0.7-1.2-1.1c-1.7-2.1-1.9-5.2-2-8.1c0-2.3,0.3-4.5,1.6-6.3c2.1-3.1,6.3-3.4,9.7-2.5
		c1.5,0.4,2.7,1.3,3.6,2.4c0.1,0.2,0.3,0.3,0.4,0.5c1.1,1.5,1.7,3.3,2.1,5c0.4,0,0.7,0.2,1,0.1c0-3.2-0.1-6-0.1-9.3
		c-0.3,0-0.6-0.1-0.8-0.1c-0.3,0.4-0.8,0.9-1.3,1.1c-3-0.7-6.3-1.4-9.6-1.2c-2,0.1-3.8,0.6-5.5,1.2c-0.2-0.2-0.2-0.5-0.4-0.7
		c-2,0.3-3.8,1.1-5.3,2.4c-3,2.5-4.8,6.3-3.7,10.2c0.9,4.1,4.9,7.5,9,8.1L130.7,191.7z"/>
	<path style="clip-path:url(#SVGID_00000098937783395684698820000016635273757325840826_);fill:#6E1517;" d="M108.5,140.3
		c2.5,0.2,6-0.6,8.2,1l0,0c0.4,0.3,0.7,0.7,0.9,1.1c0.1,0.2,0.2,0.3,0.3,0.5c0.8,2.1,0.8,5-0.6,6.9c-1.8,2.1-4.6,1.9-7.3,1.8
		c-0.4,0-0.7,0-1.1,0c-0.2,0-0.4,0-0.6,0L108.5,140.3z M124.1,144.8c0,0.3,0,0.5,0,0.8c0.1,1.3-0.3,2.7-1.1,3.8
		c-0.5,0.7-1.1,1.2-1.9,1.6c0.5-0.7,0.9-1.4,1.2-2.2c0.4-1.6,0.5-3.2,0.2-4.9c-0.2-1.2-0.8-2.3-1.5-3.3
		C122.7,141.4,123.8,143,124.1,144.8 M109.1,159.5c-0.4-0.3-0.5-0.9-0.6-1.3V153c3.6-0.1,7.7,0.6,10.8-1.2l1.1,0.3
		c1.8,0.1,3.5-0.7,5-1.7c1.9-1.3,3.1-3.5,2.5-5.8c-0.7-3.2-4.1-4.5-6.9-5.1l-1.4,0.4l-1.1-0.4c-3.5-0.8-7.3-0.4-11.1-0.6
		c-1.1,0-2.2-0.1-3.2,0v1.5l0,20.7h0l8.2,0.1c0,0,0-0.5,0-1.2c-0.8-0.1-1.6-0.1-2.4-0.2c-0.3,0-0.5-0.1-0.8-0.2
		C109.3,159.6,109.2,159.6,109.1,159.5"/>
	<path style="clip-path:url(#SVGID_00000098937783395684698820000016635273757325840826_);fill:#6E1517;" d="M103.1,138.9
		c-3.6,0-6-0.1-8.1-0.1c0,0.5,0,0.9,0,1.5c1.1,0,2.2-0.1,3.2,0.1c0.2,0.1,0.5,0.2,0.6,0.5c0.1,0.2,0.2,0.4,0.2,0.5v0.3l0,15.9
		c0.1,0.7-0.1,1.6-0.7,1.9c-1.2,0.4-2.4,0.3-3.6,0.5v1.4h8.4L103.1,138.9z"/>
	<path style="clip-path:url(#SVGID_00000098937783395684698820000016635273757325840826_);fill:#6E1517;" d="M135.7,159.5
		c-1.1,0.4-2.4,0.4-3.7,0.5l0,1.3h0.1l8.3,0l-0.1-22.3c-2.7,0-5.4,0-8.1,0c0,0.5,0,1,0,1.5c1.2,0,2.3-0.1,3.4,0.1
		c0.3,0.2,0.6,0.5,0.7,0.8l0,0.3l0,0.6l0.1,9l0,6.9C136.3,158.7,136.1,159.2,135.7,159.5"/>
	<path style="clip-path:url(#SVGID_00000098937783395684698820000016635273757325840826_);fill:#6E1517;" d="M159.1,142.7
		c1.4,1.2,2,2.9,2.3,4.7c0.3-0.1,0.6,0.1,0.8-0.1l0-8.3l-0.5,0l-20,0l0,0.1v1.7l0,20.5h0.1h0.3h8l0-1.1c-0.9-0.1-1.8-0.1-2.7-0.3
		c-0.3,0-0.6-0.1-0.9-0.2c0,0,0,0-0.1,0c-0.5-0.2-0.7-0.8-0.8-1.3l0-6.6l0.1-0.2c0.4-0.3,0.9-0.4,1.5-0.4c1.5-0.1,3.1-0.2,4.4,0.3
		c0.7,0.2,1.1,0.7,1.4,1.3c0.1,0.1,0.1,0.3,0.2,0.4c0.3,0.6,0.4,1.3,0.6,2l0.9-0.2l0-9.4c-0.3-0.3-0.7-0.2-1-0.3
		c-0.2,1-0.5,2-1.1,2.9c-0.6,1-1.7,1.3-2.8,1.5c-0.8,0-1.6,0.1-2.3,0c-0.4,0-0.8-0.1-1.1-0.3c-0.2-0.1-0.4-0.2-0.6-0.4l0-8.3
		l0.1-0.1C150.3,140.7,155.5,139.7,159.1,142.7"/>
	<path style="clip-path:url(#SVGID_00000098937783395684698820000016635273757325840826_);fill:#6E1517;" d="M175.6,138.9h-8.1
		l0,1.5c1.1,0.2,2.5-0.2,3.6,0.3c0.3,0.1,0.4,0.4,0.5,0.7v0v0.8l0,14.7c0,0.9,0.2,2.2-0.8,2.7c-1.1,0.2-2.3,0.4-3.5,0.4l0,1.3h8.4
		L175.6,138.9z"/>
	<path style="clip-path:url(#SVGID_00000098937783395684698820000016635273757325840826_);fill:#6E1517;" d="M197.9,154.8
		c0-0.9,0.1-1.7,0.2-2.5c-0.4-0.1-0.8-0.3-1.2-0.3c0,0.9-0.3,1.6-0.5,2.4c-1,2.9-3.8,4.9-6.7,5.3c-2.3,0.2-4.6,0.1-6.9,0.1
		c-0.3,0-0.7,0-1,0c-0.2,0-0.5,0-0.7,0l0.1-8.1c1.4-0.8,3.2-0.7,4.8-0.4c0.9,0.2,1.6,0.8,2.1,1.6c0.1,0.1,0.2,0.3,0.2,0.4
		c0.3,0.6,0.6,1.4,0.6,2.1c0.3,0,0.6-0.3,0.9-0.4l0-9.1c-0.2-0.2-0.4-0.4-0.7-0.5c-0.6,1.2-1.2,2.5-2.2,3.4c-1.1,0.9-2.6,1.2-4,1
		c-0.4,0-0.7-0.1-1-0.2c-0.2-0.1-0.5-0.1-0.7-0.2l-0.1-8.6l0.1-0.1l6.5,0c1.7,0.2,3.4,0.2,4.9,1c2.5,1.1,3.7,3.7,4,6.2l0.1,0.1
		c0.4-0.1,0.8-0.1,1.1-0.3c-0.1-2.8-0.4-5.6-0.6-8.5l-0.6,0l-19.8,0v1.7l0,20.6h0h0.5l20,0L197.9,154.8z"/>
	<path style="clip-path:url(#SVGID_00000098937783395684698820000016635273757325840826_);fill:#6E1517;" d="M235.9,156.3v-0.1
		l0-11.5c0-1.1,0-2.2,0.7-3.1c0.8-1.1,2.1-1.4,3.4-1.6c0-0.3,0-0.9,0-1.2l-10.1,0l0,1.4c0.8,0,1.7,0.1,2.4,0.5
		c0.7,0.4,1.2,1,1.5,1.7c0,0,0,0,0,0c0.1,0.3,0.2,0.7,0.3,1.1l0,6.1l-0.1,0.1l-1.1-0.9l-9-7.2c-1.2-0.9-2.3-2.2-3.8-2.7l-5.2-0.1
		v0.1c0.6,0.5,1.2,1,1.9,1.5C223.2,145.6,229.5,151.1,235.9,156.3L235.9,156.3z"/>
	<path style="clip-path:url(#SVGID_00000098937783395684698820000016635273757325840826_);fill:#6E1517;" d="M213.3,159
		c-0.8-0.5-1.3-1.4-1.3-2.3l0-12.3l0.1-0.1l0.7,0l0.6,0.5l2.7,2.3l7.7,6.4l3.5,2.9l4,3.3c0.2,0.1,0.3,0.2,0.5,0.4
		c0.4,0.4,0.8,0.7,1.3,1c0.5,0.3,1.1,0.5,1.7,0.4c0.4-0.1,0.9-0.4,1-0.8l0-2.4c-2.1-1.8-4.1-3.5-6.3-5.3l-14.4-12l-1.6-1.3
		c-0.6-0.4-1.2-0.7-1.9-0.8c-1.8-0.1-3.6-0.1-5.4,0l0,1.5c0.7,0.1,1.5-0.1,2.2,0.1c0.8,0.2,1.4,0.9,1.7,1.6c0,0.1,0.1,0.1,0.1,0.2
		c0.1,0.2,0.1,0.5,0.2,0.8l0.1,12.3c0,0.9,0.1,1.8-0.4,2.5c-0.7,1.3-2.4,1.9-3.9,1.9c0,0,0,1,0,1.4h9.9l0-1.4
		c-0.9,0.1-1.6-0.3-2.3-0.6C213.6,159.2,213.5,159.2,213.3,159C213.4,159.1,213.4,159.1,213.3,159"/>
	<path style="clip-path:url(#SVGID_00000098937783395684698820000016635273757325840826_);fill:#6E1517;" d="M55.5,160.2L55.5,160.2
		c-0.9-0.1-1.7-0.2-2.4-0.3c-0.3,0-0.6-0.1-0.9-0.1c0,0,0,0,0,0c-1.5-0.5-0.8-2.4-1-3.5l0.1-14.7c0.1-0.3,0.3-0.6,0.6-0.7
		c0.6-0.2,2.5-0.3,3.5-0.3l0-1.5h-8.2l0,1.8l0,20.6h0h0.6h7.7L55.5,160.2z"/>
	<path style="clip-path:url(#SVGID_00000098937783395684698820000016635273757325840826_);fill:#6E1517;" d="M46.1,161.3l0-22.4
		h-6.7v1.4c0.5,0.1,1.3-0.1,1.8,0.2c0.4,0.2,0.6,0.5,0.6,0.9c0,0,0,0,0,0l0,0.8l0,6.5l-7.2,0l-1.1,0l-0.8,0c0,0-0.2-7,0.3-7.8
		c0.4-0.7,1.3-0.4,2-0.5l0.1-0.1l0-1.5l-6.6,0v1.8v20.6h0H29h6c0,0,0-1.2,0-1.2c-0.2,0-0.4,0-0.5,0c-0.4,0-0.7-0.1-1-0.1
		c-0.1,0-0.1,0-0.2,0c-0.3,0-0.6-0.3-0.6-0.7l0-8.6l8.9,0l0,8.6c-0.2,1.2-1.5,0.6-2.3,0.8l0,1.3C41.6,161.3,43.8,161.4,46.1,161.3"
		/>
	<path style="clip-path:url(#SVGID_00000098937783395684698820000016635273757325840826_);fill:#6E1517;" d="M27.3,161.3l0-22.3
		c-3.6,0-8.3,0-8.3,0l0,1.5c1,0,2.5-0.1,3.6,0.2c0.2,0.1,0.4,0.3,0.4,0.6c0,0,0,0.1,0.1,0.1c0,0,0,0,0,0v0.2l0,0.6l0,15.7
		c0,0.6-0.2,1.3-0.8,1.5c-1.2,0.3-2.3,0.4-3.5,0.5c0,0,0,1.3,0,1.3H27.3z"/>
	<path style="clip-path:url(#SVGID_00000098937783395684698820000016635273757325840826_);fill:#AF896C;" d="M62.5,184.1
		c0.4-0.8,0.4-2-0.2-2.8c-0.5-0.6-1.3-0.9-2.1-0.9c-1,0-1.9,0.8-2.2,1.6c-0.2,0.7-0.2,1.5,0.2,2.1c0.4,0.7,1.1,1,1.8,1.2
		C61,185.4,62,184.9,62.5,184.1"/>
	<path style="clip-path:url(#SVGID_00000098937783395684698820000016635273757325840826_);fill:#AF896C;" d="M64.2,185.9
		c-1,0-1.8,0.7-2.2,1.5c-0.4,0.9-0.1,2,0.5,2.7c0.7,0.7,1.6,0.8,2.5,0.6c0.7-0.1,1.3-0.8,1.6-1.5c0.2-0.8,0.1-1.7-0.4-2.3
		C65.8,186.2,65,185.9,64.2,185.9"/>
	<path style="clip-path:url(#SVGID_00000098937783395684698820000016635273757325840826_);fill:#AF896C;" d="M56.6,186.1
		c-0.7-0.3-1.5-0.1-2.2,0.3c-0.8,0.5-1.3,1.4-1.1,2.4c0.1,0.9,0.8,1.7,1.6,2c1,0.4,2.1,0.1,2.8-0.7c0.6-0.7,0.8-1.7,0.4-2.5
		C57.9,186.9,57.3,186.3,56.6,186.1"/>
	<path style="clip-path:url(#SVGID_00000098937783395684698820000016635273757325840826_);fill:#AF896C;" d="M204.9,180.5
		c-0.7,0.3-1.3,0.9-1.5,1.7c-0.2,1,0,1.9,0.8,2.6c0.6,0.6,1.4,0.7,2.2,0.5c0.8-0.2,1.6-1,1.7-1.8c0.1-0.6,0-1.3-0.3-1.9
		C207.3,180.6,206,180.1,204.9,180.5"/>
	<path style="clip-path:url(#SVGID_00000098937783395684698820000016635273757325840826_);fill:#AF896C;" d="M199.7,183.8
		c0.3-0.8,0.2-1.6-0.2-2.3c-0.5-0.7-1.3-1.1-2.2-1.1c-0.9,0-1.8,0.6-2.2,1.4c-0.3,0.7-0.2,1.4,0,2c0.4,0.9,1.3,1.6,2.3,1.5
		C198.4,185.4,199.3,184.7,199.7,183.8"/>
	<path style="clip-path:url(#SVGID_00000098937783395684698820000016635273757325840826_);fill:#AF896C;" d="M201,186
		c-0.9,0.1-1.8,0.8-2,1.7c-0.3,0.8,0,1.7,0.5,2.4c0.6,0.6,1.3,0.9,2.2,0.8c0.8-0.1,1.3-0.5,1.8-1.1c0.4-0.8,0.4-1.9-0.1-2.6
		C202.8,186.3,202,185.9,201,186"/>
	<polygon style="clip-path:url(#SVGID_00000098937783395684698820000016635273757325840826_);fill:#8E1416;" points="35.3,98.7 
		28,92.7 26.5,92.3 30.2,90 29.8,91.5 34.6,95.6 33.2,90.8 32.3,89.9 30.8,89.6 34.4,87.3 34.1,88.7 38.8,92.9 37.1,86.8 35.7,86.5 
		38.5,84.6 38.2,86.1 40.6,95.2 39.5,95.9 34.8,92 36.3,98 	"/>
	<path style="clip-path:url(#SVGID_00000098937783395684698820000016635273757325840826_);fill:#8E1416;" d="M44.5,93l0.4-1.4
		l-2-3.8l-1.3-0.4l2.2-2.4l3,5.6l1.4,0.4L44.5,93z M42.5,85.1c-0.5,0.3-1.1,0.1-1.4-0.4c-0.3-0.5-0.1-1.2,0.4-1.4
		c0.5-0.3,1.2-0.1,1.4,0.4C43.2,84.2,43.1,84.8,42.5,85.1"/>
	<path style="clip-path:url(#SVGID_00000098937783395684698820000016635273757325840826_);fill:#8E1416;" d="M50.6,81.6
		c0.1-0.1,0.5-0.2,0.7-0.2l1.2,2.6l-2.3-0.8l-0.6,1.9l1.6,3.3l1.3,0.5l-3.7,1.8l0.5-1.3l-1.9-3.9L46.1,85l2.3-2.3L49,84l0.3-0.9
		C49.4,82.6,49.9,82,50.6,81.6"/>
	<path style="clip-path:url(#SVGID_00000098937783395684698820000016635273757325840826_);fill:#8E1416;" d="M59.7,84.7
		c-0.1,1.2-0.9,1.7-1.3,1.9c-1.1,0.5-2.2,0.1-2.6-0.9l-1.7-3.9l-1.2,0.5l1.8-4.4l0.8,1.8l1.8-0.8l0.3,0.8l-1.8,0.8l2.2,5.1
		c0.6-0.2,0.9-0.6,1-1.2L59.7,84.7z"/>
	<path style="clip-path:url(#SVGID_00000098937783395684698820000016635273757325840826_);fill:#8E1416;" d="M65.3,81.2
		c0.5,1.4-0.1,2.7-1.5,3.3c-0.5,0.2-0.9,0.2-0.9,0.2l-2.2,0.1l0.5-1.8l1.4,0.9c0,0,0.3,0.1,0.7,0c0.5-0.2,0.9-0.9,0.7-1.5
		C63.9,82,63.7,82,63.6,82l-2.9-0.3c-0.8-0.1-1.2-0.7-1.4-1.2c-0.6-1.6,0.3-2.8,1.5-3.2c0.3-0.1,0.6-0.2,0.8-0.2l2.1-0.2l-0.5,1.8
		l-1.4-0.8c-0.2-0.1-0.4-0.1-0.6,0c-0.4,0.2-0.9,0.7-0.7,1.3c0,0,0.1,0.3,0.5,0.3l2.7,0.4C64.3,80,65,80.3,65.3,81.2"/>
	<path style="clip-path:url(#SVGID_00000098937783395684698820000016635273757325840826_);fill:#8E1416;" d="M69.8,74.1
		c0.9-0.3,1.7,0.4,2,1l0.4-0.8c0.4-0.8,0.8-1.3,1.4-1.4c1.2-0.4,1.9,0.6,2.2,1.4l1.3,4.2l1.3,0.7l-3,0.9l-1.7-5.2
		c0-0.1-0.3-0.3-0.6-0.2c-0.2,0.1-0.4,0.3-0.5,0.6l-0.5,0.9l1.1,3.6l1.3,0.7l-2.9,0.9L70,76.1c0-0.1-0.3-0.3-0.6-0.2
		c-0.2,0.1-0.4,0.3-0.5,0.6l-0.5,0.9l1.1,3.6l1.3,0.7l-3.9,1.2l0.7-1.3l-1.3-4.1L65,76.9l2.6-1.9l0.4,1.4l0.4-0.8
		C68.9,74.7,69.3,74.3,69.8,74.1"/>
	<path style="clip-path:url(#SVGID_00000098937783395684698820000016635273757325840826_);fill:#8E1416;" d="M80.2,71.3l1.4,5.4
		c0.1,0.2,0.3,0.6,0.7,0.5c0.2-0.1,0.5-0.3,0.8-0.8l0.5-0.8l-0.7-2.9L81.6,72l2.7-1.8l1.5,6.1l1.2,0.7l-3,0.8l-0.3-1.2l-0.4,0.7
		c-0.5,0.9-1.1,1.2-1.6,1.3c-1.2,0.3-2.1-0.5-2.2-1.2l-0.9-3.7L77.4,73L80.2,71.3z"/>
	<path style="clip-path:url(#SVGID_00000098937783395684698820000016635273757325840826_);fill:#8E1416;" d="M93,73.6
		c0.3,1.5-0.6,2.7-2,3c-0.5,0.1-0.9,0.1-0.9,0.1l-2.2-0.2l0.8-1.7l1.3,1.1c0,0,0.3,0.2,0.7,0.1c0.5-0.1,1.1-0.7,0.9-1.4
		c-0.1-0.3-0.3-0.4-0.3-0.4l-2.8-0.8c-0.8-0.2-1.1-0.9-1.2-1.4c-0.3-1.6,0.7-2.7,2-2.9c0.3-0.1,0.6-0.1,0.9-0.1l2.1,0.2l-0.7,1.7
		l-1.2-1c-0.1-0.1-0.3-0.2-0.6-0.1c-0.5,0.1-1,0.6-0.9,1.2c0,0.1,0.1,0.3,0.5,0.4l2.6,0.8C92.2,72.2,92.8,72.7,93,73.6"/>
	<path style="clip-path:url(#SVGID_00000098937783395684698820000016635273757325840826_);fill:#8E1416;" d="M98.4,70.2
		c0.1-0.2,0.1-0.4,0.1-0.6c-0.1-0.6-0.8-1.3-1.5-1.2c-0.8,0.1-0.9,1.2-0.7,2.2C96.6,70.5,98.4,70.2,98.4,70.2 M96.4,71.5
		c0.3,1.9,0.6,2.9,2.3,2.6c1.3-0.2,1.7-1,1.9-1.4l0.6,0.5c-0.5,0.8-1.2,1.6-3,1.9C96.2,75.5,94.4,74,94,72c-0.3-2,0.8-4.1,2.8-4.4
		c1.9-0.3,3.7,0.9,4.1,3.1L96.4,71.5z"/>
	<path style="clip-path:url(#SVGID_00000098937783395684698820000016635273757325840826_);fill:#8E1416;" d="M104.7,66.5l0.7,5.5
		c0,0.2,0.2,0.6,0.7,0.6c0.2,0,0.5-0.2,0.9-0.7l0.6-0.8l-0.4-2.9l-1.1-0.8L109,66l0.8,6.3l1.1,0.9l-3.1,0.4l-0.2-1.2l-0.5,0.7
		c-0.7,0.8-1.2,1-1.7,1.1c-1.2,0.1-2-0.7-2.1-1.5l-0.5-3.8l-1.1-0.8L104.7,66.5z"/>
	<path style="clip-path:url(#SVGID_00000098937783395684698820000016635273757325840826_);fill:#8E1416;" d="M116.5,65.2
		c0.9-0.1,1.6,0.8,1.7,1.5l0.6-0.7c0.6-0.7,1.1-1.1,1.7-1.1c1.2-0.1,1.7,1.1,1.8,1.9l0.3,4.4l1.1,0.9l-3.1,0.2l-0.4-5.5
		c0-0.1-0.2-0.4-0.5-0.4c-0.2,0-0.4,0.2-0.7,0.5l-0.6,0.7l0.3,3.8l1.1,0.9l-3.1,0.2l-0.4-5.5c0-0.1-0.2-0.4-0.5-0.4
		c-0.2,0-0.4,0.2-0.7,0.5l-0.6,0.7l0.3,3.8l1.1,0.9l-4.1,0.3l0.9-1.1l-0.3-4.3l-1.1-0.9l3-1.3l0.1,1.5l0.6-0.7
		C115.5,65.5,116,65.2,116.5,65.2"/>
	<path style="clip-path:url(#SVGID_00000098937783395684698820000016635273757325840826_);fill:#8E1416;" d="M134.2,66.3l0,0.5
		c-1.3,0-2.3,1-2.3,2.2c0,1.1,0.6,2.2,1.9,2.1c0.5,0,0.8-0.2,1.2-0.6l0-4.1l3.1,0l-1,1l0,3.7c-0.8,0.5-1.4,1-3.3,1
		c-1.5,0-4.1-0.9-4.1-2.9c0-1.3,0.8-2.3,1.9-2.7c-1-0.6-1.3-1.5-1.3-2.2c0-2.1,1.9-2.6,3.4-2.6c1,0,1.9,0.1,2.8,0.6l0,2.2l-1.6-1.6
		c-0.4-0.4-0.5-0.4-1-0.4c-0.7,0-1.5,0.7-1.5,1.7C132.4,65,132.9,66.2,134.2,66.3"/>
	<polygon style="clip-path:url(#SVGID_00000098937783395684698820000016635273757325840826_);fill:#8E1416;" points="145.5,63.2 
		145,71.1 143.9,72.1 148.1,72.4 147.1,71.2 147.3,67.4 150.6,67.6 150.3,71.4 149.2,72.4 153.4,72.7 152.4,71.6 152.9,63.7 
		154,62.7 149.8,62.4 150.8,63.5 150.6,66.6 147.4,66.4 147.6,63.3 148.7,62.3 144.5,62.1 	"/>
	<path style="clip-path:url(#SVGID_00000098937783395684698820000016635273757325840826_);fill:#8E1416;" d="M156.9,71.2
		c-0.1,0.5,0.3,0.8,0.6,0.8c0.1,0,0.2,0,0.3-0.1l1.3-0.8l0.2-1.5l-0.7-0.1C157.7,69.5,157.1,70,156.9,71.2 M156.1,68.4l0.2-2.1
		c0.9-0.5,1.8-0.5,2.7-0.4c1.5,0.2,2.8,1.1,2.7,2.3l-0.5,4.3l0.9,1.1l-3.1-0.3l0.1-1.2l-1.9,1.1c-0.2,0.1-0.4,0.2-0.7,0.1
		c-0.9-0.1-1.7-1.2-1.5-2.4c0.2-1.6,1.9-2.4,3.4-2.2l1.1,0.1l0.1-0.9c0.1-0.6-0.1-1.2-0.8-1.2c-0.4,0-0.6,0.1-1,0.3L156.1,68.4z"/>
	<path style="clip-path:url(#SVGID_00000098937783395684698820000016635273757325840826_);fill:#8E1416;" d="M166.8,66.9l-0.8,5.5
		c0,0.2,0,0.6,0.5,0.7c0.2,0,0.6-0.1,1-0.4l0.8-0.6l0.4-2.9l-0.8-1.1l3.2-0.6l-0.9,6.3l0.8,1.1l-3.1-0.5l0.2-1.2l-0.7,0.5
		c-0.8,0.6-1.5,0.7-1.9,0.6c-1.2-0.2-1.7-1.3-1.6-2l0.6-3.8l-0.8-1.1L166.8,66.9z"/>
	<path style="clip-path:url(#SVGID_00000098937783395684698820000016635273757325840826_);fill:#8E1416;" d="M177.7,74.1
		c-0.3,1.5-1.5,2.2-3,2c-0.5-0.1-0.9-0.3-0.9-0.3l-2-1.1l1.4-1.3l0.8,1.5c0,0,0.2,0.3,0.6,0.4c0.5,0.1,1.3-0.3,1.4-0.9
		c0.1-0.3-0.1-0.5-0.2-0.5l-2.3-1.8c-0.6-0.5-0.7-1.2-0.6-1.8c0.3-1.6,1.7-2.2,2.9-2c0.3,0.1,0.6,0.2,0.8,0.3l1.8,1l-1.3,1.3
		l-0.7-1.4c-0.1-0.2-0.3-0.3-0.5-0.3c-0.5-0.1-1.2,0.2-1.3,0.7c0,0.1-0.1,0.3,0.3,0.6l2.1,1.8C177.5,72.5,177.9,73.1,177.7,74.1"/>
	<path style="clip-path:url(#SVGID_00000098937783395684698820000016635273757325840826_);fill:#8E1416;" d="M184.3,74.1
		c0.4-1.7,0.5-2.7-0.4-2.9c-0.7-0.2-1.3,0.2-1.7,0.8l-0.7,3.1c0,0.7,0.4,1.3,1.1,1.5C183.5,76.8,183.9,75.8,184.3,74.1 M179,76.8
		L181,68l-0.7-1.2l3.2-0.2l-1,4.3c0.5-0.5,1.4-0.9,2.2-0.7c1.8,0.4,2.4,2.7,2,4.5c-0.4,1.7-2,3.6-3.7,3.1c-0.8-0.2-1.5-0.9-1.8-1.7
		L179,76.8z"/>
	<path style="clip-path:url(#SVGID_00000098937783395684698820000016635273757325840826_);fill:#8E1416;" d="M194.3,72.9
		c0.1,0,0.4,0.2,0.6,0.3l-0.8,2.8l-1.2-2.2l-1.7,1.1l-1,3.5l0.7,1.2l-4-1.1l1.3-0.7l1.2-4.1l-0.7-1.2l3.2-0.2l-0.4,1.3l0.8-0.5
		C192.8,72.8,193.6,72.6,194.3,72.9"/>
	<path style="clip-path:url(#SVGID_00000098937783395684698820000016635273757325840826_);fill:#8E1416;" d="M196.7,79.4
		c-0.1,0.4,0.1,0.8,0.4,0.9c0.1,0,0.2,0,0.3,0l1.5-0.5l0.5-1.5l-0.7-0.2C197.8,77.8,197,78.2,196.7,79.4 M196.4,76.4l0.7-2.1
		c1-0.3,1.9-0.1,2.7,0.2c1.4,0.5,2.5,1.6,2.1,2.8l-1.4,4.2l0.7,1.3l-3-1l0.4-1.1l-2.1,0.7c-0.3,0.1-0.5,0.1-0.7,0
		c-0.8-0.3-1.4-1.5-1-2.6c0.5-1.5,2.3-2,3.8-1.5l1,0.3l0.3-0.9c0.2-0.5,0.1-1.2-0.5-1.4c-0.3-0.1-0.6-0.1-1,0.1L196.4,76.4z"/>
	<path style="clip-path:url(#SVGID_00000098937783395684698820000016635273757325840826_);fill:#8E1416;" d="M207.2,77.2l-2,5.2
		c-0.1,0.2-0.1,0.6,0.3,0.8c0.2,0.1,0.6,0.1,1.1-0.2l0.9-0.4l1.1-2.8l-0.6-1.3l3.2,0.1l-2.3,5.9l0.6,1.3l-2.9-1.1l0.5-1.2l-0.8,0.4
		c-1,0.4-1.6,0.3-2,0.1c-1.1-0.4-1.4-1.6-1.1-2.3l1.4-3.6l-0.6-1.3L207.2,77.2z"/>
	<path style="clip-path:url(#SVGID_00000098937783395684698820000016635273757325840826_);fill:#8E1416;" d="M216.6,84.1
		c0.2-0.1,0.3-0.3,0.4-0.5c0.3-0.6,0.1-1.6-0.6-1.8c-0.7-0.3-1.4,0.5-1.8,1.4C214.9,83.4,216.6,84.1,216.6,84.1 M214.2,84
		c-0.8,1.8-1.2,2.7,0.4,3.4c1.2,0.6,2,0.1,2.3-0.1l0.3,0.7c-0.8,0.4-1.9,0.7-3.6-0.1c-1.8-0.8-2.5-3.1-1.6-4.9
		c0.8-1.9,2.9-2.9,4.8-2.1c1.8,0.8,2.6,2.8,1.6,4.9L214.2,84z"/>
	<path style="clip-path:url(#SVGID_00000098937783395684698820000016635273757325840826_);fill:#8E1416;" d="M226.2,85.8
		c0.1,0.1,0.4,0.3,0.6,0.4l-1.3,2.5l-0.7-2.4l-1.9,0.7l-1.7,3.2l0.4,1.4l-3.6-1.9l1.4-0.4l2-3.8l-0.4-1.3l3.2,0.5l-0.6,1.2l0.8-0.3
		C224.7,85.4,225.5,85.4,226.2,85.8"/>
	<path style="clip-path:url(#SVGID_00000098937783395684698820000016635273757325840826_);fill:#8E1416;" d="M230.8,91.6
		c0.2-0.1,0.3-0.2,0.4-0.4c0.3-0.5,0.2-1.5-0.3-1.9c-0.7-0.4-1.5,0.3-2,1.2C229.2,90.7,230.8,91.6,230.8,91.6 M228.4,91.3
		c-1,1.7-1.5,2.6,0,3.5c1.2,0.7,1.9,0.4,2.3,0.2l0.2,0.8c-0.9,0.3-2,0.5-3.6-0.5c-1.7-1-2.1-3.4-1.1-5.1c1.1-1.8,3.3-2.6,5-1.5
		c1.7,1,2.3,3.1,1.1,5.1L228.4,91.3z"/>
	<path style="clip-path:url(#SVGID_00000098937783395684698820000016635273757325840826_);fill:#8E1416;" d="M237.8,92.3
		c-0.5-0.3-0.6-1-0.3-1.4c0.3-0.5,1-0.6,1.5-0.3c0.5,0.3,0.6,1,0.3,1.5C238.9,92.5,238.3,92.6,237.8,92.3 M231.6,97.6l1.4-0.3
		l2.4-3.6l-0.3-1.4l3.1,0.9l-3.6,5.2l0.3,1.4L231.6,97.6z"/>
</g>
</svg>
