<?xml version="1.0" encoding="utf-8"?>
<!-- Generator: Adobe Illustrator 26.0.0, SVG Export Plug-In . SVG Version: 6.00 Build 0)  -->
<svg version="1.1"
	 id="svg2" xmlns:cc="http://creativecommons.org/ns#" xmlns:dc="http://purl.org/dc/elements/1.1/" xmlns:inkscape="http://www.inkscape.org/namespaces/inkscape" xmlns:rdf="http://www.w3.org/1999/02/22-rdf-syntax-ns#" xmlns:sodipodi="http://sodipodi.sourceforge.net/DTD/sodipodi-0.dtd" xmlns:svg="http://www.w3.org/2000/svg"
	 xmlns="http://www.w3.org/2000/svg" xmlns:xlink="http://www.w3.org/1999/xlink" x="0px" y="0px" viewBox="0 0 542.63 269.64"
	 style="enable-background:new 0 0 542.63 269.64;" xml:space="preserve">
<style type="text/css">
	.st0{clip-path:url(#SVGID_00000043438470730021802950000004413610277272210832_);}
	.st1{fill:#B99669;}
	.st2{fill:#51514E;}
</style>
<sodipodi:namedview  bordercolor="#666666" borderopacity="1" gridtolerance="10" guidetolerance="10" id="namedview4" inkscape:pageopacity="0" inkscape:pageshadow="2" inkscape:window-height="480" inkscape:window-width="640" objecttolerance="10" pagecolor="#ffffff">
	</sodipodi:namedview>
<g id="g10" transform="matrix(1.3333333,0,0,-1.3333333,0,310.75333)" inkscape:groupmode="layer" inkscape:label="Laurin">
	<g id="g12">
		<g>
			<defs>
				<rect id="SVGID_1_" x="-109.2" y="-23.43" width="625.37" height="310.75"/>
			</defs>
			<clipPath id="SVGID_00000039116146184054256230000009364607980117394348_">
				<use xlink:href="#SVGID_1_"  style="overflow:visible;"/>
			</clipPath>
			<g id="g14" style="clip-path:url(#SVGID_00000039116146184054256230000009364607980117394348_);">
				<g id="g20" transform="translate(44.0686,40.6041)">
					<path id="path22" class="st1" d="M-31.03,15.42h18.21l1.65,8.15h-0.86c-0.99-2.83-2.02-4.59-3.08-5.28
						c-1.06-0.69-3.09-1.03-6.11-1.03c-0.77,0-1.3,0.01-1.58,0.02c-0.28,0.01-0.55,0.05-0.8,0.09c-0.43,0.08-0.71,0.26-0.84,0.56
						s-0.19,0.71-0.19,1.23v22.58c0,1.56,0.21,2.58,0.64,3.05c0.42,0.47,1.26,0.76,2.5,0.85v0.87h-9.55v-0.87
						c1.26-0.12,2.07-0.44,2.43-0.95c0.36-0.51,0.55-1.6,0.55-3.27V20.51c0-1.77-0.18-2.86-0.55-3.3c-0.37-0.43-1.18-0.74-2.42-0.92
						V15.42z M-8.05,15.42H1.97v0.87c-1.38,0.14-2.27,0.42-2.68,0.86c-0.41,0.43-0.61,1.56-0.61,3.37v20.91
						c0,1.73,0.2,2.84,0.61,3.34c0.41,0.5,1.3,0.79,2.68,0.88v0.87H-8.05v-0.87c1.38-0.09,2.27-0.39,2.68-0.88
						c0.41-0.5,0.61-1.61,0.61-3.34V20.51c0-1.81-0.2-2.93-0.61-3.37c-0.41-0.43-1.3-0.72-2.68-0.86V15.42z M5.88,15.42h9.47v0.87
						c-1.28,0.14-2.11,0.45-2.49,0.92c-0.38,0.48-0.57,1.58-0.57,3.3v10.28h4.91c1.43,0,2.35-0.3,2.74-0.88
						c0.4-0.59,0.72-1.79,0.97-3.61h0.79v10.86h-0.79c-0.24-1.81-0.56-3.01-0.96-3.61c-0.4-0.59-1.32-0.89-2.76-0.89h-4.91v10.49
						c0,0.63,0.06,1.05,0.19,1.26c0.13,0.21,0.42,0.32,0.87,0.32h4.64c1.88,0,3.15-0.29,3.78-0.86c0.64-0.57,1.07-1.93,1.31-4.08
						h0.94l-0.12,6.72H5.88v-0.87c1.26-0.12,2.06-0.44,2.43-0.95c0.36-0.51,0.54-1.6,0.54-3.27V21.06c0-2.03-0.16-3.28-0.49-3.76
						c-0.33-0.48-1.15-0.82-2.49-1.02V15.42z M27.67,15.42h18.29l1.54,7.94h-0.94c-0.87-2.68-1.85-4.36-2.94-5.06
						c-1.09-0.7-2.78-1.04-5.08-1.04c-2.12,0-3.39,0.08-3.81,0.25c-0.43,0.17-0.64,0.72-0.64,1.65v11.64h5.22
						c1.43,0,2.35-0.3,2.74-0.88c0.4-0.59,0.72-1.79,0.97-3.61h0.79v10.86h-0.79c-0.24-1.81-0.56-3.01-0.96-3.61
						c-0.4-0.59-1.32-0.89-2.76-0.89h-5.22v10.49c0,0.61,0.06,1.03,0.17,1.25c0.12,0.22,0.42,0.33,0.92,0.33h4.61
						c1.98,0,3.26-0.31,3.83-0.91c0.57-0.61,1-1.95,1.29-4.02h0.86l-0.12,6.72H27.67v-0.87c1.26-0.12,2.06-0.44,2.43-0.95
						c0.36-0.51,0.54-1.6,0.54-3.27V20.51c0-1.77-0.19-2.86-0.55-3.3c-0.37-0.43-1.18-0.74-2.42-0.92V15.42z M54.84,14.91
						c0.52,0,0.95,0.24,1.31,0.72c0.36,0.48,0.53,1.06,0.53,1.73c0,0.67-0.17,1.27-0.5,1.78c-0.34,0.51-0.76,0.77-1.26,0.77
						c-0.52,0-0.95-0.25-1.31-0.76c-0.35-0.5-0.53-1.1-0.53-1.79c0-0.72,0.18-1.31,0.53-1.77C53.97,15.14,54.37,14.91,54.84,14.91
						 M56.68,43.44c0,0.84-0.07,1.55-0.21,2.11c-0.28,1.09-0.78,1.63-1.52,1.63c-0.72,0-1.21-0.4-1.47-1.19
						c-0.26-0.8-0.4-1.67-0.4-2.62c0-0.73,0.18-2.87,0.53-6.4c0.4-4.05,0.64-6.8,0.73-8.24l0.31-5.05h0.43l0.78,9.29l0.74,8.7
						c0.03,0.37,0.06,0.68,0.07,0.95C56.67,42.89,56.68,43.16,56.68,43.44"/>
				</g>
				<g id="g24" transform="translate(44.0686,78.6041)">
					<path id="path26" class="st2" d="M-31.03,15.42h18.21l1.65,8.15h-0.86c-0.99-2.83-2.02-4.59-3.08-5.28
						c-1.06-0.69-3.09-1.03-6.11-1.03c-0.77,0-1.3,0.01-1.58,0.02c-0.28,0.02-0.55,0.05-0.8,0.09c-0.43,0.08-0.71,0.26-0.84,0.56
						s-0.19,0.71-0.19,1.23v22.58c0,1.56,0.21,2.58,0.64,3.05s1.26,0.76,2.5,0.85v0.87h-9.55v-0.87c1.26-0.12,2.07-0.44,2.43-0.95
						c0.36-0.51,0.55-1.6,0.55-3.27V20.51c0-1.77-0.18-2.87-0.55-3.3c-0.37-0.43-1.18-0.74-2.42-0.92V15.42z M-1.26,27.49l3.9,12.94
						l3.88-12.94L-1.26,27.49z M-1.35,15.42v0.87c-0.79,0.09-1.33,0.23-1.62,0.41c-0.46,0.3-0.69,0.85-0.69,1.64
						c0,0.4,0.08,0.93,0.26,1.61c0.17,0.68,0.7,2.55,1.57,5.63h8.92l1.35-4.52c0.2-0.64,0.35-1.25,0.46-1.83s0.17-0.98,0.17-1.21
						c0-0.68-0.14-1.12-0.43-1.29c-0.29-0.17-0.92-0.32-1.91-0.44v-0.87h8.61v0.87c-0.79,0.15-1.36,0.44-1.69,0.86
						c-0.34,0.42-0.78,1.51-1.35,3.27L3.86,47.06H3.19L-3.86,24c-1.06-3.46-1.8-5.57-2.24-6.35c-0.43-0.77-1.09-1.23-1.96-1.36
						v-0.87H-1.35z M16.15,46.51v-0.87c1.28-0.14,2.11-0.45,2.49-0.93c0.38-0.48,0.57-1.58,0.57-3.29V26.73
						c0-2.91,0.36-5.25,1.07-7.02c1.32-3.31,3.81-4.96,7.47-4.96c3.7,0,6.21,1.68,7.53,5.03c0.72,1.82,1.07,4.35,1.07,7.6v12.23
						c0,2.46,0.2,4.04,0.6,4.72c0.4,0.68,1.26,1.12,2.57,1.32v0.87H31.7v-0.87c1.23-0.17,2.07-0.58,2.51-1.23s0.66-2.25,0.66-4.81
						V27.37c0-3-0.26-5.22-0.79-6.66c-0.95-2.57-2.8-3.86-5.57-3.86c-2.52,0-4.24,1.25-5.14,3.76c-0.49,1.38-0.73,3.3-0.73,5.76
						v15.03c0,1.73,0.19,2.83,0.58,3.32c0.38,0.48,1.23,0.78,2.53,0.91v0.87H16.15z M49.73,31.53V43.1c0,0.7,0.11,1.15,0.32,1.34
						c0.21,0.19,0.8,0.29,1.76,0.29c1.42,0,2.56-0.27,3.42-0.8c1.61-0.99,2.41-2.85,2.41-5.57c0-2.83-0.9-4.75-2.69-5.77
						C53.9,32,52.16,31.65,49.73,31.53 M43.38,15.42h9.4v0.87c-1.28,0.15-2.11,0.46-2.49,0.93s-0.57,1.57-0.57,3.31v9.26l1.49,0.12
						l8.46-14.48h5.45v0.87c-0.67,0.09-1.22,0.3-1.65,0.64c-0.43,0.33-0.86,0.87-1.29,1.59l-6.97,11.93
						c1.88,0.4,3.37,1.22,4.47,2.48c1.1,1.25,1.64,3.05,1.64,5.39c0,3.48-1.23,5.87-3.7,7.17c-1.3,0.69-2.93,1.03-4.88,1.03h-9.37
						v-0.87c1.22-0.14,2.01-0.46,2.37-0.97c0.36-0.51,0.54-1.6,0.54-3.25V21.06c0-1.95-0.16-3.19-0.48-3.72
						c-0.32-0.53-1.13-0.88-2.43-1.05V15.42z M68.97,15.42h10.01v0.87c-1.38,0.14-2.27,0.42-2.68,0.86
						c-0.41,0.43-0.61,1.56-0.61,3.37v20.91c0,1.73,0.2,2.84,0.61,3.34c0.41,0.5,1.3,0.79,2.68,0.88v0.87H68.97v-0.87
						c1.38-0.09,2.27-0.39,2.68-0.88c0.41-0.5,0.61-1.61,0.61-3.34V20.51c0-1.81-0.2-2.93-0.61-3.37c-0.41-0.43-1.3-0.72-2.68-0.86
						L68.97,15.42z M82.9,15.42h7.95v0.87c-1.22,0.18-2.01,0.53-2.36,1.03c-0.54,0.78-0.81,2.45-0.81,5.02v18.3l14.97-25.77h0.58
						v24.74c0,2.46,0.21,4.04,0.65,4.73c0.43,0.69,1.29,1.12,2.58,1.31v0.87h-7.95v-0.87c1.24-0.15,2.05-0.48,2.41-0.98
						c0.55-0.77,0.83-2.45,0.83-5.02V24.03L88.67,46.51H82.9v-0.87c0.69-0.03,1.21-0.14,1.56-0.33c0.35-0.19,0.77-0.69,1.26-1.5
						l0.46-0.76V22.34c0-2.48-0.2-4.06-0.6-4.74c-0.4-0.68-1.29-1.12-2.69-1.32V15.42z M127.73,17.12c-1.2,0-1.97,0.12-2.3,0.36
						c-0.33,0.24-0.5,0.76-0.5,1.57v11.7c0.29-0.01,0.5-0.02,0.64-0.02h0.98c2.12,0,3.86-0.48,5.22-1.45
						c1.37-0.96,2.05-2.76,2.05-5.39c0-2.65-0.58-4.44-1.75-5.37S129.46,17.12,127.73,17.12 M118.26,15.42h11.03
						c1.88,0,3.47,0.36,4.75,1.08c2.44,1.38,3.67,3.9,3.67,7.57c0,2.19-0.55,3.89-1.65,5.1c-1.1,1.22-2.43,2.08-3.98,2.6
						c1.26,0.43,2.2,0.97,2.83,1.63c1.11,1.15,1.67,2.83,1.67,5.05c0,2.95-0.79,5.04-2.38,6.25c-1.59,1.21-3.74,1.82-6.45,1.82
						h-9.48v-0.87c1.36-0.09,2.24-0.39,2.64-0.88c0.4-0.5,0.6-1.61,0.6-3.34V20.51c0-1.75-0.2-2.87-0.6-3.34
						c-0.4-0.48-1.28-0.77-2.64-0.88L118.26,15.42z M128.16,32.58l-3.22-0.07v10.62c0,0.75,0.08,1.21,0.25,1.38
						c0.16,0.17,0.6,0.25,1.3,0.25c1.86,0,3.25-0.27,4.16-0.81c1.65-0.98,2.48-2.87,2.48-5.68c0-2.38-0.72-4.02-2.15-4.94
						C130.24,32.87,129.3,32.61,128.16,32.58 M148,27.49l3.9,12.94l3.88-12.94H148z M147.9,15.42v0.87
						c-0.79,0.09-1.33,0.23-1.62,0.41c-0.46,0.3-0.69,0.85-0.69,1.64c0,0.4,0.09,0.93,0.26,1.61c0.17,0.68,0.7,2.55,1.57,5.63h8.92
						l1.35-4.52c0.2-0.64,0.35-1.25,0.46-1.83s0.17-0.98,0.17-1.21c0-0.68-0.14-1.12-0.43-1.29c-0.29-0.17-0.92-0.32-1.91-0.44
						v-0.87h8.6v0.87c-0.79,0.15-1.36,0.44-1.69,0.86c-0.34,0.42-0.79,1.51-1.35,3.27l-8.43,26.65h-0.67L145.39,24
						c-1.06-3.46-1.8-5.57-2.24-6.35c-0.43-0.77-1.09-1.23-1.96-1.36v-0.87H147.9z M174.75,31.53V43.1c0,0.7,0.11,1.15,0.32,1.34
						c0.21,0.19,0.8,0.29,1.76,0.29c1.42,0,2.56-0.27,3.42-0.8c1.61-0.99,2.41-2.85,2.41-5.57c0-2.83-0.9-4.75-2.69-5.77
						C178.93,32,177.19,31.65,174.75,31.53 M168.41,15.42h9.4v0.87c-1.28,0.15-2.11,0.46-2.49,0.93c-0.38,0.47-0.57,1.57-0.57,3.31
						v9.26l1.49,0.11l8.46-14.48h5.45v0.87c-0.67,0.09-1.22,0.3-1.65,0.64c-0.43,0.33-0.86,0.87-1.29,1.59l-6.97,11.93
						c1.88,0.4,3.37,1.22,4.47,2.48c1.1,1.25,1.64,3.05,1.64,5.39c0,3.48-1.23,5.87-3.7,7.17c-1.3,0.69-2.93,1.03-4.88,1.03h-9.37
						v-0.87c1.22-0.14,2.01-0.46,2.37-0.97c0.36-0.51,0.54-1.6,0.54-3.25V21.06c0-1.95-0.16-3.19-0.48-3.72
						c-0.32-0.53-1.13-0.88-2.43-1.05V15.42z M197.47,40.19c-0.24,0.7-0.43,1.37-0.58,2.03c-0.15,0.66-0.22,1.26-0.22,1.83
						c0,0.72,0.13,1.3,0.4,1.74c0.27,0.44,0.64,0.66,1.13,0.66c0.45,0,0.82-0.21,1.11-0.64c0.29-0.43,0.44-0.99,0.44-1.69
						c0-0.93-0.29-1.77-0.86-2.54C198.57,41.14,198.1,40.68,197.47,40.19 M196.32,29.89c-0.75,0-1.37,0.37-1.85,1.12
						c-0.48,0.74-0.72,1.63-0.72,2.64c0,1.11,0.27,2.08,0.82,2.92c0.36,0.54,0.87,1.09,1.53,1.63c0.73-1.82,1.26-3.1,1.6-3.83
						c0.34-0.73,0.82-1.63,1.42-2.7c-0.47-0.62-0.97-1.07-1.49-1.35C197.12,30.03,196.68,29.89,196.32,29.89 M195.05,38.55
						c-0.99-0.78-1.76-1.64-2.32-2.58c-0.55-0.94-0.83-2.03-0.83-3.27c0-1.32,0.31-2.36,0.93-3.12c0.62-0.76,1.44-1.14,2.48-1.14
						c0.93,0,1.78,0.27,2.56,0.8c0.59,0.39,1.18,0.96,1.76,1.7c0.62-0.81,1.11-1.38,1.48-1.7c0.62-0.54,1.24-0.82,1.87-0.82
						c0.25,0,0.51,0.05,0.78,0.16c0.45,0.17,0.84,0.46,1.18,0.87c0.21,0.26,0.44,0.62,0.67,1.08c0.23,0.46,0.37,0.8,0.41,1.01
						l-0.29,0.32c-0.3-0.51-0.55-0.85-0.73-1.03c-0.3-0.29-0.66-0.43-1.09-0.43c-0.72,0-1.44,0.42-2.16,1.27
						c-0.33,0.43-0.62,0.85-0.88,1.27c0.49,0.85,0.85,1.51,1.09,1.99c0.24,0.48,0.55,1.18,0.91,2.09l0.51,1.27
						c0.25,0.62,0.54,1.06,0.89,1.3c0.21,0.14,0.54,0.25,0.97,0.32v0.58h-4.28v-0.58c0.41-0.05,0.7-0.13,0.87-0.24
						c0.26-0.19,0.4-0.53,0.4-1.03c0-0.49-0.13-1.15-0.4-1.97c-0.26-0.82-0.74-1.81-1.43-2.97c-0.64,1.15-1.1,2.02-1.37,2.61
						c-0.27,0.59-0.69,1.6-1.26,3.02c0.74,0.45,1.43,1.06,2.07,1.81c0.64,0.75,0.96,1.71,0.96,2.89c0,1.01-0.25,1.81-0.76,2.41
						c-0.51,0.6-1.15,0.9-1.94,0.9c-0.87,0-1.58-0.42-2.15-1.27c-0.56-0.85-0.85-1.91-0.85-3.2c0-0.28,0.02-0.56,0.05-0.85
						c0.03-0.29,0.07-0.58,0.13-0.86c0.04-0.26,0.12-0.6,0.23-1.02c0.11-0.42,0.21-0.75,0.29-0.99L195.05,38.55z M218.24,17.12
						c-1.2,0-1.97,0.12-2.3,0.36c-0.33,0.24-0.5,0.76-0.5,1.57v11.7c0.29-0.01,0.5-0.02,0.64-0.02h0.98c2.12,0,3.85-0.48,5.22-1.45
						c1.37-0.96,2.05-2.76,2.05-5.39c0-2.65-0.58-4.44-1.75-5.37C221.42,17.58,219.97,17.12,218.24,17.12 M208.77,15.42h11.03
						c1.88,0,3.47,0.36,4.76,1.08c2.44,1.38,3.67,3.9,3.67,7.57c0,2.19-0.55,3.89-1.65,5.1c-1.1,1.22-2.43,2.08-3.98,2.6
						c1.26,0.43,2.2,0.97,2.83,1.63c1.11,1.15,1.67,2.83,1.67,5.05c0,2.95-0.8,5.04-2.39,6.25c-1.59,1.21-3.74,1.82-6.45,1.82h-9.48
						v-0.87c1.36-0.09,2.24-0.39,2.64-0.88c0.4-0.5,0.6-1.61,0.6-3.34V20.51c0-1.75-0.2-2.87-0.6-3.34s-1.28-0.77-2.64-0.88V15.42z
						 M218.67,32.58l-3.22-0.07v10.62c0,0.75,0.08,1.21,0.25,1.38c0.16,0.17,0.6,0.25,1.31,0.25c1.86,0,3.25-0.27,4.16-0.81
						c1.65-0.98,2.48-2.87,2.48-5.68c0-2.38-0.72-4.02-2.15-4.94C220.74,32.87,219.8,32.61,218.67,32.58 M232.04,15.42h10.01v0.87
						c-1.38,0.14-2.27,0.42-2.68,0.86c-0.41,0.43-0.61,1.56-0.61,3.37v20.91c0,1.73,0.2,2.84,0.61,3.34c0.41,0.5,1.3,0.79,2.68,0.88
						v0.87h-10.01v-0.87c1.38-0.09,2.27-0.39,2.68-0.88c0.41-0.5,0.61-1.61,0.61-3.34V20.51c0-1.81-0.2-2.93-0.61-3.37
						c-0.41-0.43-1.3-0.72-2.68-0.86V15.42z M246.02,24.87l1.01-10.01h0.74c0.04,0.38,0.14,0.74,0.27,1.08
						c0.14,0.34,0.4,0.51,0.8,0.51c0.17,0,0.82-0.28,1.96-0.83c1.14-0.55,2.23-0.83,3.28-0.83c2.08,0,3.79,0.83,5.13,2.48
						c1.34,1.65,2.01,3.71,2.01,6.17c0,1.84-0.38,3.43-1.13,4.77c-0.76,1.33-2.08,2.79-3.93,4.38l-2.97,2.55
						c-1.11,0.95-1.93,1.86-2.46,2.73c-0.53,0.86-0.79,1.89-0.79,3.1c0,1.35,0.34,2.4,1.03,3.16c0.69,0.76,1.49,1.14,2.42,1.14
						c1.19,0,2.39-0.6,3.61-1.79c1.22-1.19,2.1-3.3,2.65-6.31h0.81l-0.74,10.01h-0.69c-0.09-0.5-0.21-0.9-0.37-1.17
						c-0.16-0.27-0.45-0.41-0.87-0.41c-0.15,0-0.77,0.26-1.86,0.79c-1.09,0.53-2.01,0.79-2.79,0.79c-1.87,0-3.38-0.79-4.51-2.36
						c-1.14-1.58-1.7-3.55-1.7-5.92c0-1.79,0.48-3.43,1.44-4.91c0.52-0.78,1.21-1.55,2.08-2.32l2.89-2.5
						c1.66-1.44,2.75-2.52,3.26-3.24c0.79-1.13,1.19-2.46,1.19-3.99c0-1.7-0.39-3.02-1.18-3.97c-0.79-0.95-1.72-1.42-2.8-1.42
						c-1.99,0-3.66,1.09-5,3.28c-0.77,1.26-1.44,2.94-2.01,5.05L246.02,24.87z M265.45,38.53h0.83c0.34,2.52,0.85,4.16,1.53,4.91
						c0.68,0.75,1.95,1.12,3.83,1.12h1.9v-23.5c0-2.03-0.18-3.29-0.53-3.79c-0.35-0.5-1.24-0.83-2.68-0.98v-0.87h9.86v0.87
						c-1.38,0.14-2.27,0.42-2.68,0.86c-0.41,0.43-0.61,1.56-0.61,3.37v24.05h1.88c1.96,0,3.25-0.38,3.86-1.14
						c0.61-0.76,1.12-2.39,1.51-4.9h0.81l-0.18,7.99h-19.13L265.45,38.53z M295.11,31.53V43.1c0,0.7,0.11,1.15,0.32,1.34
						c0.21,0.19,0.8,0.29,1.76,0.29c1.42,0,2.56-0.27,3.42-0.8c1.61-0.99,2.41-2.85,2.41-5.57c0-2.83-0.9-4.75-2.69-5.77
						C299.29,32,297.55,31.65,295.11,31.53 M288.77,15.42h9.4v0.87c-1.28,0.15-2.11,0.46-2.49,0.93s-0.57,1.57-0.57,3.31v9.26
						l1.48,0.11l8.46-14.48h5.45v0.87c-0.67,0.09-1.22,0.3-1.65,0.64c-0.43,0.33-0.86,0.87-1.29,1.59l-6.97,11.93
						c1.88,0.4,3.37,1.22,4.47,2.48c1.1,1.25,1.64,3.05,1.64,5.39c0,3.48-1.23,5.87-3.7,7.17c-1.3,0.69-2.92,1.03-4.87,1.03h-9.37
						v-0.87c1.22-0.14,2.01-0.46,2.37-0.97c0.36-0.51,0.54-1.6,0.54-3.25V21.06c0-1.95-0.16-3.19-0.48-3.72
						c-0.32-0.53-1.13-0.88-2.43-1.05V15.42z M316.27,30.95c0,4.96,0.7,8.62,2.11,10.98c1.41,2.36,3.12,3.55,5.15,3.55
						c1.96,0,3.66-1.14,5.1-3.42c1.43-2.28,2.15-5.98,2.15-11.11c0-5.07-0.71-8.75-2.13-11.05c-1.42-2.3-3.12-3.45-5.12-3.45
						c-2.04,0-3.76,1.18-5.16,3.55C316.97,22.36,316.27,26.01,316.27,30.95 M312.43,30.95c0-4.77,1.06-8.68,3.19-11.73
						c2.09-2.98,4.73-4.48,7.9-4.48c2.96,0,5.49,1.35,7.58,4.04c2.33,3.01,3.5,7.07,3.5,12.16c0,5.02-1.13,9.03-3.39,12.05
						c-2.08,2.78-4.65,4.18-7.7,4.18c-3.04,0-5.6-1.39-7.68-4.15C313.57,40,312.43,35.97,312.43,30.95"/>
				</g>
				<g id="g28" transform="translate(44.1513,139.714)">
					<path id="path30" class="st1" d="M-31.03,15.42h0.83c0.34,2.52,0.85,4.16,1.53,4.91c0.68,0.75,1.95,1.13,3.83,1.13h1.9v-23.5
						c0-2.03-0.18-3.29-0.53-3.79c-0.35-0.5-1.25-0.83-2.68-0.98v-0.87h9.87v0.87c-1.38,0.14-2.27,0.42-2.68,0.86
						c-0.41,0.43-0.61,1.56-0.61,3.37v24.05h1.88c1.96,0,3.25-0.38,3.86-1.14c0.61-0.76,1.11-2.39,1.51-4.9h0.81l-0.18,7.99h-19.13
						L-31.03,15.42z M-7.63-7.69h9.39v0.87C0.52-6.68-0.28-6.37-0.66-5.88C-1.03-5.4-1.21-4.3-1.21-2.6v9.68H9.06v-9.13
						c0-2.03-0.16-3.28-0.49-3.77c-0.33-0.49-1.15-0.82-2.49-1v-0.87h9.39v0.87c-1.24,0.15-2.05,0.47-2.42,0.95
						C12.68-5.39,12.5-4.3,12.5-2.6v20.91c0,1.68,0.19,2.78,0.55,3.28c0.37,0.51,1.18,0.82,2.42,0.94v0.87H6.09v-0.87
						c1.26-0.12,2.07-0.44,2.43-0.94c0.36-0.5,0.55-1.6,0.55-3.28V9.15H-1.21v9.16c0,1.68,0.19,2.78,0.56,3.28
						c0.37,0.5,1.18,0.82,2.41,0.94v0.87h-9.39v-0.87c1.24-0.12,2.05-0.44,2.42-0.94c0.37-0.5,0.55-1.6,0.55-3.28V-2.05
						c0-2.03-0.17-3.28-0.5-3.76C-5.48-6.28-6.3-6.62-7.63-6.82V-7.69z M19.41-7.69H37.7l1.54,7.94H38.3
						c-0.87-2.68-1.85-4.37-2.94-5.06s-2.79-1.04-5.08-1.04c-2.12,0-3.39,0.08-3.81,0.25c-0.42,0.17-0.64,0.72-0.64,1.65V7.68h5.22
						c1.43,0,2.35-0.3,2.74-0.88c0.4-0.59,0.72-1.79,0.97-3.62h0.79v10.86h-0.79c-0.24-1.81-0.56-3.01-0.96-3.61
						c-0.4-0.59-1.32-0.89-2.76-0.89h-5.22v10.49c0,0.61,0.06,1.03,0.17,1.25c0.12,0.22,0.42,0.33,0.92,0.33h4.61
						c1.98,0,3.26-0.31,3.83-0.91c0.57-0.61,1-1.95,1.29-4.02h0.86l-0.12,6.72H19.41v-0.87c1.26-0.12,2.07-0.44,2.43-0.95
						c0.36-0.51,0.55-1.6,0.55-3.27V-2.6c0-1.76-0.19-2.87-0.55-3.3c-0.37-0.43-1.18-0.74-2.42-0.92V-7.69z"/>
				</g>
				<g id="g32" transform="translate(44.0686,154.6041)">
					<path id="path34" class="st1" d="M-31.03,15.42h18.29l1.54,7.94h-0.94c-0.87-2.68-1.85-4.36-2.94-5.06
						c-1.09-0.7-2.79-1.04-5.08-1.04c-2.12,0-3.39,0.08-3.82,0.25c-0.43,0.17-0.64,0.72-0.64,1.65v11.64h5.22
						c1.43,0,2.35-0.3,2.74-0.88c0.4-0.59,0.72-1.79,0.97-3.61h0.79v10.86h-0.79c-0.24-1.81-0.56-3.01-0.96-3.61
						c-0.4-0.59-1.32-0.89-2.76-0.89h-5.22v10.49c0,0.61,0.06,1.03,0.17,1.25c0.12,0.22,0.42,0.33,0.92,0.33h4.61
						c1.98,0,3.26-0.31,3.83-0.91c0.57-0.61,1-1.95,1.29-4.02h0.86l-0.11,6.72h-17.98v-0.87c1.26-0.12,2.07-0.44,2.43-0.95
						c0.36-0.51,0.55-1.6,0.55-3.27V20.51c0-1.77-0.18-2.86-0.55-3.3c-0.37-0.43-1.18-0.74-2.42-0.92V15.42z M-8.09,15.42h7.95v0.87
						c-1.22,0.18-2.01,0.53-2.36,1.03c-0.54,0.78-0.81,2.45-0.81,5.02v18.3l14.97-25.77h0.58v24.74c0,2.46,0.22,4.04,0.64,4.73
						c0.43,0.69,1.29,1.12,2.58,1.31v0.87H7.51v-0.87c1.24-0.15,2.05-0.48,2.41-0.98c0.55-0.77,0.83-2.45,0.83-5.02V24.03
						L-2.31,46.51h-5.77v-0.87c0.69-0.03,1.22-0.14,1.56-0.33c0.35-0.19,0.77-0.69,1.26-1.5l0.46-0.76V22.34
						c0-2.48-0.2-4.06-0.59-4.74c-0.4-0.68-1.29-1.12-2.69-1.32V15.42z M17.96,18.13c0-0.83,0.29-1.58,0.88-2.25
						s1.41-1.01,2.47-1.01c1.61,0,2.96,0.77,4.05,2.3c1.09,1.52,1.63,3.85,1.63,7v17.26c0,1.62,0.2,2.7,0.59,3.25
						c0.39,0.54,1.24,0.87,2.55,0.98v0.87h-9.72v-0.87c1.28-0.09,2.12-0.38,2.53-0.87c0.41-0.49,0.61-1.61,0.61-3.35V20.16
						c0-1.33-0.09-2.26-0.26-2.8c-0.17-0.54-0.48-0.8-0.92-0.8c-0.41,0-0.79,0.65-1.16,1.95c-0.36,1.3-0.93,1.95-1.69,1.95
						c-0.38,0-0.75-0.18-1.08-0.54C18.12,19.57,17.96,18.97,17.96,18.13 M37,30.95c0,4.96,0.7,8.62,2.11,10.98
						c1.41,2.36,3.12,3.54,5.15,3.54c1.96,0,3.66-1.14,5.1-3.42c1.43-2.28,2.15-5.98,2.15-11.11c0-5.07-0.71-8.75-2.13-11.05
						c-1.42-2.3-3.12-3.45-5.12-3.45c-2.04,0-3.76,1.18-5.16,3.55C37.7,22.36,37,26.01,37,30.95 M33.17,30.95
						c0-4.77,1.06-8.68,3.19-11.73c2.09-2.98,4.73-4.48,7.9-4.48c2.96,0,5.49,1.35,7.58,4.04c2.33,3.01,3.5,7.07,3.5,12.16
						c0,5.02-1.13,9.03-3.39,12.05c-2.08,2.78-4.65,4.18-7.7,4.18c-3.04,0-5.6-1.39-7.68-4.15C34.3,40,33.17,35.97,33.17,30.95
						 M57.23,46.51v-0.87c0.88-0.06,1.63-0.53,2.25-1.41c0.62-0.88,1.69-2.87,3.22-5.98l4.43-9.02v-8.16c0-2.05-0.18-3.33-0.55-3.84
						c-0.37-0.51-1.32-0.83-2.85-0.95v-0.87h10.33v0.87c-1.48,0.11-2.43,0.39-2.85,0.84c-0.42,0.45-0.64,1.58-0.64,3.4v9.14l5,10.6
						c1.04,2.2,1.99,3.71,2.82,4.52c0.54,0.52,1.15,0.8,1.83,0.85v0.87h-7.39v-0.87c0.75-0.01,1.28-0.09,1.59-0.23
						c0.52-0.22,0.78-0.66,0.78-1.33c0-0.14-0.03-0.35-0.09-0.64c-0.06-0.29-0.19-0.66-0.39-1.1l-4.86-10.3l-4.98,10.14
						c-0.23,0.49-0.38,0.88-0.45,1.18c-0.07,0.3-0.1,0.55-0.1,0.75c0,0.66,0.2,1.09,0.6,1.28c0.4,0.2,0.99,0.28,1.78,0.25v0.87
						H57.23z"/>
				</g>
			</g>
		</g>
	</g>
</g>
</svg>
