<?xml version="1.0" encoding="utf-8"?>
<!-- Generator: Adobe Illustrator 26.0.0, SVG Export Plug-In . SVG Version: 6.00 Build 0)  -->
<svg version="1.1"
	 id="svg2" xmlns:cc="http://creativecommons.org/ns#" xmlns:dc="http://purl.org/dc/elements/1.1/" xmlns:inkscape="http://www.inkscape.org/namespaces/inkscape" xmlns:rdf="http://www.w3.org/1999/02/22-rdf-syntax-ns#" xmlns:sodipodi="http://sodipodi.sourceforge.net/DTD/sodipodi-0.dtd" xmlns:svg="http://www.w3.org/2000/svg"
	 xmlns="http://www.w3.org/2000/svg" xmlns:xlink="http://www.w3.org/1999/xlink" x="0px" y="0px" viewBox="0 0 660.3 465.81"
	 style="enable-background:new 0 0 660.3 465.81;" xml:space="preserve">
<style type="text/css">
	.st0{clip-path:url(#SVGID_00000037668689443118495850000016167866020613399743_);}
	.st1{fill:#1A1A18;}
	.st2{font-family:'Times-Bold';}
	.st3{font-size:34.8025px;}
</style>
<sodipodi:namedview  bordercolor="#666666" borderopacity="1" gridtolerance="10" guidetolerance="10" id="namedview4" inkscape:pageopacity="0" inkscape:pageshadow="2" inkscape:window-height="480" inkscape:window-width="640" objecttolerance="10" pagecolor="#ffffff">
	</sodipodi:namedview>
<g id="g10" transform="matrix(1.3333333,0,0,-1.3333333,0,559.916)" inkscape:groupmode="layer" inkscape:label="Lorenzi">
	<g id="g12">
		<g>
			<defs>
				<rect id="SVGID_1_" x="-149.24" y="-34.7" width="793.7" height="559.92"/>
			</defs>
			<clipPath id="SVGID_00000152236581181124944580000007682997766087446717_">
				<use xlink:href="#SVGID_1_"  style="overflow:visible;"/>
			</clipPath>
			<g id="g14" style="clip-path:url(#SVGID_00000152236581181124944580000007682997766087446717_);">
				<g id="g20" transform="translate(393.1804,232.9813)">
					<path id="path22" class="st1" d="M-50.03,35.29c1.19,0.22,2.04,0.27,2.81,0.54c3.79,1.37,7.09,3.53,9.8,6.51
						c2.6,2.85,4.68,6.02,4.67,10.08c0,0.81-0.28,2.12-0.77,2.3c-0.81,0.31-2.03,0.14-2.83-0.28c-3.13-1.67-5.32-4.35-7.41-7.16
						C-46.4,43.75-48.46,39.94-50.03,35.29 M42.03,13.87c-0.13,0.1-0.25,0.19-0.38,0.29c-0.26-0.15-0.56-0.27-0.79-0.46
						c-2.65-2.24-5.39-4.39-7.9-6.78c-4.68-4.45-9.45-8.84-13.28-14.11c-2.48-3.4-4.27-7.02-4.35-11.33
						c-0.06-3.3,1.5-4.33,4.56-2.97c0.49,0.22,0.98,0.46,1.4,0.77c3.14,2.32,5.75,5.21,7.7,8.54c3.23,5.49,6.29,11.08,9.19,16.74
						C39.71,7.54,40.76,10.76,42.03,13.87 M-120.85,26.72c0.04-0.46,0.07-0.73,0.08-0.99c0.16-4.12,1.86-4.94,5.6-3.01
						c3.82,1.98,6.49,5.12,8.7,8.57c3.23,5.05,5.35,10.62,5.82,16.68c0.13,1.69,0.11,3.45-0.23,5.1c-0.41,1.98-1.77,2.66-3.72,2.31
						c-3.08-0.54-5.08-2.7-6.81-4.97c-2.61-3.42-4.94-7-6.44-11.14C-119.36,35.11-120.56,30.94-120.85,26.72 M-8.55,38.93
						c1.55,2.09,2.97,4.3,4.67,6.26c3.02,3.46,6.14,6.85,9.36,10.11c1.41,1.42,3.33,2.55,5.39,1.64c2.12-0.93,2.64-3.09,2.85-5.23
						c0.46-4.48-1.36-8.33-3.4-12.11c-1.47-2.73-3.04-5.4-4.44-8.17c-1.08-2.14-1.95-4.39-2.91-6.59c-0.13-0.29-0.33-0.64-0.27-0.91
						c0.2-0.95,0.51-1.87,0.77-2.8c0.87,0.27,1.9,0.32,2.57,0.84c4.47,3.44,7.82,7.91,10.97,12.51c2.4,3.51,4.39,7.3,6.76,10.84
						c2.59,3.86,5.11,7.82,9.09,10.51c3.81,2.57,7.27,0.52,7.82-3.99c0.39-3.17-0.75-5.99-1.89-8.84c-0.25-0.62-0.39-1.68-0.06-2.05
						c0.38-0.41,1.44-0.52,2.06-0.31c1.51,0.51,3.03,1.13,4.35,1.99c1.87,1.22,3.81,2.5,5.3,4.13c2.3,2.51,4.27,5.32,6.34,8.04
						c1.48,1.95,2.3,2.38,3.47,1.62c0.99-0.64,0.96-2.42-0.31-4.04c-1.48-1.88-3.16-3.6-4.74-5.41c-2.77-3.17-5.53-6.35-8.31-9.51
						c-2.14-2.44-4.3-4.86-6.42-7.32c-0.33-0.38-0.53-0.88-1.02-1.72c4.86,0.66,7.4-1.57,8.47-6.28c1.04,0.94,2.01,1.58,2.66,2.46
						c3.35,4.5,6.63,9.05,9.92,13.59c2.63,3.64,5.23,7.31,7.86,10.95c1.5,2.08,3.03,4.14,4.59,6.18c0.3,0.39,0.76,0.85,1.2,0.91
						c2.04,0.26,4.09,0.38,6.53,0.59c-1.13-2.48-2.09-4.66-3.11-6.82c-2.7-5.77-5.43-11.53-8.14-17.29c-1-2.13-2.08-4.23-2.97-6.41
						c-0.44-1.07-0.68-2.27-0.73-3.43c-0.09-2.13,1.45-3.08,3.28-1.99c1.6,0.95,3.21,2.01,4.51,3.33
						c4.09,4.16,7.46,8.91,10.73,13.73c0.38,0.55,1.4,1.33,1.65,1.19c1.17-0.68,0.47-1.76,0.02-2.51c-0.84-1.36-1.85-2.62-2.87-3.87
						c-3.33-4.1-6.25-8.56-10.28-12.08c-1.52-1.33-3.06-2.46-5.2-2.54c-3.48-0.13-5.23,1.57-5.73,4.99
						c-0.52,3.54-0.08,7.06,1.38,10.38c1.79,4.1,3.59,8.19,5.28,12.39c-0.38-0.46-0.79-0.9-1.12-1.4
						c-2.39-3.64-4.66-7.37-7.18-10.92c-3.42-4.82-6.98-9.54-11.34-13.6c-0.63-0.59-1.11-1.69-1.1-2.55
						c0.07-4.42-1.5-8.4-3.15-12.34c-2.07-4.94-4.65-9.67-7.9-13.91c-4.28-5.6-8.63-11.24-15.16-14.54c-1.82-0.92-3.74-1.31-5.75-1
						c-2.1,0.33-3.23,1.75-3.83,3.67c-0.81,2.6-0.56,5.16,0.24,7.73c1.13,3.64,3.42,6.6,5.95,9.24c3.85,4,8.02,7.71,12.16,11.43
						c3.82,3.43,7.81,6.68,11.66,10.08c1.61,1.42,1.67,5.99,0.26,7.59c-0.81,0.92-2.59,1.16-3.81,0.08
						c-1.75-1.53-3.22-3.38-4.83-5.07c-0.47-0.5-0.92-1.11-1.52-1.39c-0.7-0.33-1.79-0.72-2.25-0.41c-0.51,0.36-0.91,1.67-0.65,2.21
						c0.76,1.54,1.57,3.45,2.93,4.22c4.33,2.45,6.82,6.56,9.99,10.06c1.46,1.61,2.84,3.28,4.36,5.04c-2.41-0.63-4.26-1.97-6.76-2.13
						c-5.02-0.31-7.61,3.31-6.66,7.75c0.39,1.84,1.43,3.54,2.01,5.35c0.34,1.05,0.37,2.21,0.54,3.32c-0.92-0.42-2.11-0.61-2.72-1.3
						c-2.84-3.25-5.71-6.5-8.2-10.02c-3.1-4.38-5.71-9.12-8.79-13.51c-1.77-2.52-4-4.72-6.12-6.98c-1.11-1.19-2.29-2.4-3.66-3.25
						c-3.2-1.98-5.95-0.67-6.98,3.14c-1.79,6.65,0.47,12.57,3.69,18.23c2.17,3.8,4.45,7.54,6.67,11.31c0.13,0.23,0.32,0.5,0.3,0.74
						C9.81,53.32,9.82,54,9.51,54.34c-0.21,0.23-1.11,0.18-1.43-0.08c-1.82-1.49-3.78-2.89-5.27-4.67
						c-3.4-4.09-6.64-8.33-9.78-12.63c-2.81-3.84-5.42-7.83-8.07-11.79c-1.1-1.64-2.03-3.38-3.12-5.01
						c-0.29-0.43-0.85-0.88-1.34-0.94c-2.15-0.28-4.32-0.43-6.92-0.66c0.68,1.5,1.14,2.72,1.75,3.85
						c3.58,6.65,7.25,13.26,10.76,19.95c1.61,3.08,2.99,6.28,4.31,9.5c0.31,0.76-0.06,1.8-0.11,2.71c-0.97-0.1-2.25,0.17-2.86-0.35
						c-2.33-2.01-4.71-4.07-6.56-6.49c-2.84-3.73-5.26-7.79-7.88-11.7c-2.88-4.3-5.8-8.56-9.6-12.13
						c-3.53-3.32-7.68-5.19-12.56-5.12c-1.98,0.03-3.31,1.43-4.4,2.92c-2.29,3.11-2.87,6.75-3,10.49c-0.03,0.83-0.01,1.66-0.01,2.85
						c-1.51-1.44-2.66-2.59-3.87-3.66c-1.74-1.55-3.85-1.52-5.93-1.11c-1.86,0.37-3.34,3.03-3.21,5.55c0.06,1.2,0.21,2.4,0.32,3.61
						c-0.15,0.08-0.31,0.16-0.46,0.25c-1.24-1.61-2.55-3.16-3.7-4.83c-3.2-4.67-6.32-9.39-9.49-14.07c-0.29-0.43-0.69-1.05-1.09-1.1
						c-2.04-0.26-4.1-0.35-6.58-0.53c0.94,2.1,1.63,3.82,2.46,5.47c2.43,4.77,4.96,9.49,7.39,14.26c1.97,3.87,3.89,7.76,5.74,11.68
						c0.4,0.85,0.57,1.85,0.63,2.8c0.12,1.71-0.83,2.39-2.28,1.53c-1.5-0.89-3.18-1.81-4.2-3.15c-3.67-4.83-7.11-9.84-10.62-14.8
						c-2.51-3.54-5.21-6.81-9.77-7.76c-0.47-0.1-0.98-0.31-1.41-0.21c-2.13,0.51-3.21-0.71-4.26-2.27c-2.24-3.31-5.18-5.8-9.03-7.07
						c-4.37-1.43-8.68,1.07-9.25,5.65c-0.47,3.8-0.44,7.66-0.62,11.49c-0.02,0.51,0,1.02,0,1.76c-0.54-0.36-0.81-0.66-1.14-0.73
						c-0.37-0.08-0.99-0.11-1.14,0.1c-0.22,0.31-0.32,0.98-0.12,1.26c4.73,6.94,9.74,13.62,17.61,17.37
						c2.35,1.12,4.86,1.62,7.49,1.36c1.82-0.18,3.04-1.22,3.98-2.68c1.96-3.05,2.06-6.49,1.35-9.79c-0.79-3.67-2.17-7.23-3.41-10.8
						c-0.35-1.01-1.1-1.87-1.67-2.81c0.11-0.19,0.22-0.38,0.33-0.57c1.35,0.46,2.82,0.72,4.03,1.43c2.53,1.49,4.29,3.74,5.86,6.24
						c2.18,3.49,4.51,6.92,7.06,10.15c2.04,2.59,4.45,4.89,6.77,7.24c1.55,1.57,3.53,1.92,5.5,1.02c1.93-0.89,2.72-2.8,2.76-4.76
						c0.05-2.06-0.17-4.18-0.65-6.19c-0.6-2.51-1.6-4.93-2.42-7.39c0.12-0.08,0.24-0.17,0.36-0.25c1.35,1.74,2.67,3.49,4.04,5.21
						c1.86,2.32,3.06,4.92,4.06,7.74c0.8,2.26,2.07,4.55,4.55,5.55c0.94,0.38,2.09,0.57,3.08,0.42c1.76-0.26,2.35-1.41,1.96-3.21
						c-0.53-2.47-2.34-4.01-4.09-5.59c-2.57-2.34-5.3-4.62-6.65-7.91c-0.72-1.77-1.07-3.81-1.08-5.73
						c-0.02-2.43,3.09-4.02,4.97-2.49c1.83,1.48,3.6,3.3,4.73,5.33c3.05,5.45,7.02,10.09,11.53,14.3c2.55,2.38,5.58,3.96,8.92,4.93
						c2.91,0.85,6.18,0.02,7.27-1.98c1.58-2.93,1.54-5.98,0.04-8.94c-2.55-5.05-6.76-8.27-11.87-10.42
						c-2.65-1.11-5.35-2.13-7.99-3.27c-0.46-0.2-0.95-0.74-1.07-1.22c-0.67-2.69-0.9-5.46,0.2-8.05c0.38-0.88,1.61-1.82,2.56-1.95
						c3.47-0.48,6.16,1.44,8.66,3.5c5.28,4.33,9.05,9.87,12.75,15.55c3.23,4.95,6.37,10.08,10.93,14c1.27,1.09,2.77,2.18,4.35,2.62
						c3.44,0.96,6-1.67,6.05-5.41c0.05-4.05-1.28-7.66-2.85-11.25c-0.21-0.47-0.39-0.95-0.58-1.43C-8.69,39-8.62,38.97-8.55,38.93"
						/>
				</g>
				<g id="g24" transform="translate(148.9978,306.5602)">
					<path id="path26" class="st1" d="M-50.03,35.29c0.56,2.64,1.03,4.93,1.53,7.21c0.12,0.57,0.32,1.12,0.49,1.67
						c0.29,0.97,0.95,1.85,1.92,1.47c0.64-0.25,1.4-1.37,1.33-2.03c-0.31-3.07-0.6-6.21-1.47-9.15c-0.73-2.47-0.2-4.35,0.79-6.55
						c1.56-3.45,3.13-7.01,3.86-10.69c1.23-6.11,2.11-12.34,2.54-18.56c0.34-4.94-0.15-9.94-0.37-14.91
						c-0.12-2.69-0.46-5.36-0.54-8.11C-32.7-5.81-24.18,11.94-9.82,26.43c-3.19-0.22-6-0.6-8.8-0.55c-2.48,0.05-4.97,0.49-7.43,0.95
						c-0.49,0.09-0.83,1.02-1.23,1.57c0.57,0.27,1.16,0.82,1.7,0.77c1.91-0.18,3.78-0.67,5.68-0.84c6.2-0.55,11.59,1.31,16.15,5.56
						c3.36,3.13,6.75,6.24,10.16,9.32c1.83,1.65,4.06,2.13,6.44,1.86c1.32-0.15,1.86-1.13,2.01-2.36c0.42-3.6-1.02-6.29-4.12-8.04
						c-2.23-1.26-4.61-2.26-6.86-3.48C1.2,29.74-1.59,28.41-4,26.6c-4.53-3.39-8.46-7.45-11.97-11.91
						c-4.73-6.02-8.95-12.36-12.42-19.17c-3.02-5.95-6.17-11.86-8.72-18.01c-1.74-4.2-2.69-8.76-3.73-13.22
						c-1.31-5.61-2.34-11.29-3.52-16.94c-0.35-1.66-1.4-2.14-3.08-2.03c-1.68,0.11-2.24,1.08-2.17,2.39
						c0.08,1.68,0.29,3.42,0.81,5.02c1.56,4.78,3.49,9.46,4.9,14.28c0.72,2.47,0.83,5.17,0.84,7.77c0.02,6.47,0.08,12.97-0.34,19.42
						c-0.5,7.61-2.26,15.01-4.98,22.16c-0.36,0.95-0.98,1.82-1.66,3.04c-1.42-3.64-2.59-6.9-3.95-10.08
						c-2.16-5.06-4.41-10.08-6.7-15.08c-1.45-3.16-2.88-6.35-4.6-9.36c-2.5-4.36-5.26-8.57-7.9-12.85
						c-2.87-4.65-6.36-8.79-10.12-12.73c-4.82-5.06-10.28-9.34-16.87-11.67c-6.32-2.24-12.87-3.03-19.46-0.35
						c-6.47,2.63-10.53,7.38-13.17,13.66c-3.15,7.51-3.17,15.3-2.48,23.22c0.33,3.8,1,7.46,2.95,10.74c0.9,1.51,1.91,3.1,4.15,3.04
						c1.87-0.05,2.94-1.05,3.38-2.67c0.79-2.9-0.06-7.23-3.56-8.31c-4.05-1.24-4.6-4.74-4.62-8.29c-0.05-7.2,2.66-13.34,7.57-18.52
						c4-4.22,8.75-7.23,14.57-8.19c5.25-0.87,10.16,0.36,14.97,2.51c6.03,2.69,10.86,6.97,15.09,11.77
						c3.65,4.15,6.63,8.92,9.67,13.57c4.91,7.52,8.48,15.75,11.67,24.1c2.41,6.3,4.34,12.78,6.37,19.22
						c0.25,0.79,0.02,1.97-0.43,2.71c-3.93,6.45-8.95,11.88-16.14,14.6c-6.27,2.37-12.41,1.48-18.13-2.16
						c-4.7-2.99-7.6-7.29-9.85-12.29c-1.68-3.74-2.58-7.58-2.93-11.59c-0.65-7.57,0.14-14.86,4.55-21.34
						c5.5-8.08,13.99-6.85,19.39-0.66c2.8,3.21,4.58,6.95,6.09,10.86c0.04,0.1,0.04,0.22,0.11,0.3c0.48,0.63,0.97,1.25,1.46,1.88
						c0.22-0.86,0.83-1.85,0.6-2.57c-0.8-2.49-1.59-5.08-2.96-7.27c-1.79-2.87-3.89-5.64-6.3-8.01c-4.5-4.43-10.06-6.17-16.29-4.73
						c-4.22,0.97-7.26,3.71-9.41,7.45c-1.83,3.19-3.28,6.58-3.52,10.24c-0.22,3.44,0.01,6.92,0.2,10.37
						c0.36,6.37,2.94,12.03,6.06,17.45c2.09,3.64,4.93,6.7,7.99,9.59c3.83,3.62,8.24,6.18,13.36,7.3c6.14,1.34,12.16,1.06,18.07-1.5
						c4.11-1.78,7.18-4.74,10.26-7.78C-50.77,35.87-50.6,35.75-50.03,35.29"/>
				</g>
				<g id="g28" transform="translate(321.5586,294.0063)">
					<path id="path30" class="st1" d="M-50.03,35.29c0.03,0.55,0.14,1.41,0.1,2.26c-0.13,3.06-0.51,6.15-2.07,8.81
						c-2.3,3.92-6.4,5.17-11.05,3.99c-4.79-1.22-8.48-4.05-11.85-7.48c-3.88-3.95-6.99-8.51-9.42-13.39
						c-3.48-6.97-6.39-14.23-9.58-21.35c-0.43-0.95-0.28-1.68,0.55-2.2c1.44-0.91,2.86-1.89,4.4-2.59c5.87-2.67,11.9-2.67,18-0.81
						c4.16,1.27,7.94,3.18,10.89,6.44c1.78,1.97,3.7,3.91,5.04,6.18C-51.4,21.23-49.9,27.92-50.03,35.29 M-97.35,10.47
						c1.06,2.38,2.03,4.44,2.91,6.54C-91.57,23.9-88.21,30.55-84,36.7c2.31,3.37,5.25,6.31,7.95,9.4c2.25,2.57,5.02,4.53,8.1,5.91
						c6.01,2.69,12,2.75,17.53-1.19c3.45-2.47,5.35-6.15,6.21-10.21c1.43-6.73,0.6-13.27-2.13-19.61
						c-2.01-4.67-4.77-8.85-8.45-12.28c-4.58-4.28-9.95-7.23-16.11-8.83C-76-1.44-81.09-1.46-86.12-0.44
						c-2.76,0.56-5.37,2.01-7.92,3.31c-1.78,0.91-1.75,0.98-2.62-0.8c-2.11-4.31-4.27-8.61-6.58-12.82
						c-1.94-3.54-3.91-7.11-6.25-10.39c-3.15-4.42-6.51-8.74-11.11-11.85c-2.02-1.36-3.95-2.86-6.05-4.38
						c0.66-0.26,1.36-0.57,2.08-0.82c7.97-2.69,15.9-5.49,23.92-8.02c5.31-1.67,10.71-3.11,16.38-2.79
						c7.96,0.45,14.58,3.38,18.18,10.85c1.31,2.72,1.77,5.95,2.1,9c0.35,3.18,0.07,6.43,0.1,9.65c0,0.55,0.18,1.09,0.28,1.63
						c0.19,0.04,0.39,0.08,0.58,0.13c0.34-0.81,0.88-1.6,0.97-2.44c0.23-2.18,0.35-4.37,0.35-6.56c0.01-4.02-0.29-8.01-1.89-11.77
						c-1.96-4.63-4.56-8.78-8.48-12.07c-3.21-2.7-6.74-4.82-10.77-5.75c-4.58-1.05-9.23-0.9-13.81,0.48
						c-5.73,1.73-10.99,4.41-16.08,7.51c-4.28,2.61-8.71,4.99-12.92,7.7c-3.27,2.11-6.49,1.5-9.81,0.5
						c-3.82-1.15-7.73-0.94-11.61-0.71c-2.95,0.17-4.81,2.1-5.1,4.85c-0.23,2.23,1.22,3.93,3.47,4.18
						c3.83,0.42,7.44-0.51,11.01-1.74c1.47-0.5,2.92-1.06,4.39-1.54c2.4-0.79,4.53,0.03,6.58,1.22c4.91,2.83,9.44,6.16,12.91,10.67
						c1.65,2.15,3.03,4.55,4.27,6.98c2.39,4.65,4.63,9.39,6.86,14.12c1.09,2.32,1.91,4.78,3.05,7.08c0.67,1.34,0.24,2.24-0.62,3.15
						c-3.3,3.52-5.3,7.69-6.71,12.28c-2.06,6.74-1.93,13.44,0.09,20.07c1.49,4.9,4.2,9.26,8.26,12.4
						c4.86,3.76,10.49,5.17,16.64,3.89c0.41-0.08,0.87-0.2,1.17-0.46c0.32-0.28,0.69-0.79,0.63-1.12c-0.05-0.29-0.67-0.65-1.06-0.67
						c-1.39-0.09-2.78-0.05-4.18-0.06c-4.6-0.02-8.03-2.32-10.82-5.71c-5.05-6.14-6.67-13.4-6.38-21.14
						c0.13-3.35,0.55-6.73,1.3-9.99C-100.72,15.06-99.51,12.64-97.35,10.47"/>
				</g>
				<g id="g32" transform="translate(236.9516,156.6332)">
					<path id="path34" class="st1" d="M-50.03,35.29c-0.79-0.3-1.19-0.35-1.44-0.57c-3.2-2.82-6.6-5.49-7.9-9.82
						c-0.2-0.66,0.08-1.47,0.15-2.21c0.79,0.24,1.81,0.25,2.34,0.76C-53.56,26.59-52.14,30.86-50.03,35.29 M-59.41,52.76
						c0.14-0.07,0.28-0.14,0.43-0.21c2.06,2.48,4.3,4.85,6.14,7.49c1.31,1.88,2.13,4.12,3.09,6.24c0.15,0.34,0.01,1.05-0.26,1.26
						c-0.27,0.21-0.99,0.18-1.29-0.04c-0.91-0.71-1.97-1.42-2.51-2.38c-1.55-2.73-2.93-5.56-4.26-8.4
						C-58.66,55.46-58.97,54.08-59.41,52.76 M-32.59,49.25c0.02,1.49-0.86,2.04-1.99,1.34c-3.88-2.37-4.88-6.37-5.71-10.42
						c-0.08-0.4,0.35-1.22,0.67-1.3c0.44-0.11,1.12,0.19,1.52,0.52c2.29,1.89,3.54,4.5,4.74,7.12
						C-32.95,47.43-32.8,48.46-32.59,49.25 M1.28,48.71c-0.28,0.44-0.69,1.7-1.17,1.73c-0.86,0.05-2.05-0.41-2.59-1.08
						c-1.96-2.42-3.35-5.19-3.86-8.3c-0.13-0.77,0.21-1.61,0.33-2.42c0.8,0.18,1.76,0.15,2.36,0.59
						C-0.6,41.45,0.61,44.69,1.28,48.71 M-77.71,41.41c-0.14-2.45,0.39-2.84,1.91-2.19c2.69,1.16,6.11,6.73,5.78,9.59
						c-0.08,0.73-0.46,1.76-1,2.02c-0.51,0.24-1.57-0.17-2.14-0.61C-76.28,47.82-76.93,44.18-77.71,41.41 M5.04,44.91
						c-0.38-0.78-0.51-1.33-0.85-1.7c-0.46-0.51-1.01-1.02-1.63-1.28C0.29,40.97-1.46,39.23-3.52,38c-2.5-1.5-4.18-0.69-4.87,2.12
						c-0.22,0.92-0.26,1.89-0.44,3.22c-1.21-1.4-2.2-2.6-3.26-3.73c-0.57-0.61-1.22-1.2-1.94-1.63c-1.61-0.97-3.27-0.08-3.04,1.8
						c0.23,1.92,0.82,3.85,1.55,5.65c0.67,1.67,1.72,3.18,2.82,5.14c-2.16-0.49-3.16-1.87-4.11-3.1c-2.05-2.66-4.01-5.41-5.79-8.25
						c-0.93-1.49-2.05-1.88-3.96-1.59c2.3,4.32,4.53,8.5,6.77,12.69c-0.16,0.19-0.31,0.37-0.46,0.56c-0.67-0.33-1.54-0.49-1.97-1.01
						c-1.44-1.78-2.69-3.72-4.09-5.53c-1.59-2.07-3.14-4.2-4.94-6.08c-1.47-1.52-3.23-0.83-3.67,1.23
						c-0.09,0.41-0.12,0.83-0.22,1.51c-0.91-0.8-1.62-1.56-2.46-2.12c-0.78-0.52-1.71-1.15-2.56-1.13
						c-1.24,0.03-1.88,1.12-2.07,2.33c-0.14,0.84-0.22,1.69-0.38,3.06c-1.85-2.74-4.42-4.23-5.07-7.6c-0.77-4-2.93-7.56-5.83-10.52
						c-1.08-1.1-2.26-2.16-3.57-2.94c-0.75-0.45-2.22-0.73-2.7-0.31c-0.7,0.6-1.29,2.03-1.06,2.87c0.45,1.64,1.21,3.39,2.35,4.61
						c2.25,2.42,4.87,4.48,7.29,6.75c0.9,0.84,2.17,1.54,1.76,3.16c-0.33,1.3-1.01,1.57-2.06,0.73c-0.42-0.33-0.74-0.78-1.13-1.14
						c-0.42-0.38-0.88-0.72-1.45-1.18c-0.52,1.51,0.25,2.11,1.02,2.82c1.47,1.35,2.85,2.8,4.58,4.51c-1.89,0.41-4.02-0.43-4.42,1.51
						c-0.28,1.38,0.37,2.95,0.68,4.88c-1-0.93-1.84-1.54-2.46-2.33c-0.99-1.26-1.77-2.68-2.74-3.96c-1.51-1.98-3.1-3.88-4.66-5.82
						c-0.07-0.08-0.13-0.21-0.22-0.23c-1.18-0.35-2.37-0.69-3.55-1.03c-0.31,1.26-0.86,2.52-0.85,3.77
						c0.01,1.12,0.63,2.23,1.12,3.82c-0.85-0.9-1.34-1.49-1.9-2c-0.63-0.57-1.24-1.29-2-1.56c-1.64-0.58-2.96-1.46-4.16-2.75
						c-1.07-1.15-2.68-1.78-4.26-1.01c-1.49,0.73-1.84,2.21-1.92,3.8c-0.05,0.95-0.46,1.88-0.64,2.83
						c-0.05,0.27,0.04,0.63,0.18,0.88c1.8,3.06,4.21,5.4,7.66,6.51c1.85,0.59,3.8-0.64,3.68-2.6c-0.14-2.25-0.73-4.48-1.14-6.79
						c1.26-0.01,2.01,1.15,2.77,2.17c3.94,5.31,6.87,11.22,10.06,16.99c1.1,1.99,2.62,3.76,4.06,5.54c0.44,0.54,1.21,0.89,1.88,1.17
						c1.59,0.66,2.81-0.04,2.66-1.75c-0.14-1.54-0.5-3.31-1.4-4.47c-2.97-3.82-6.29-7.37-9.35-11.12c-1.06-1.3-1.92-2.83-2.62-4.37
						c-1.07-2.38-1.94-4.85-2.87-7.29c-0.08-0.22-0.01-0.5-0.01-1.16c0.81,0.41,1.59,0.58,2.01,1.06c1.55,1.76,3.05,3.57,4.45,5.45
						c1.24,1.67,2.29,3.48,3.49,5.19c0.36,0.51,0.89,0.94,1.43,1.27c0.74,0.47,1.66,1.29,2.42,0.35c0.58-0.71,0.9-1.76,0.97-2.69
						c0.07-0.9-0.33-1.84-0.55-2.88c1.98-0.12,3.08,1.03,4.15,2.06c0.88,0.85,1.48,1.98,2.34,2.85c0.4,0.4,1.12,0.48,1.69,0.71
						c-0.12-0.55-0.08-1.24-0.4-1.63c-1.86-2.26-3.8-4.44-5.71-6.66c-0.44-0.51-0.86-1.04-1.26-1.53c0.98-0.87,1.83-1.62,2.9-2.57
						c0.38,0.39,0.95,0.84,1.37,1.4c1.83,2.44,3.51,5.01,5.48,7.33c1.12,1.31,2.61,2.38,4.11,3.25c2.08,1.21,3.36,0.72,4.79-1.5
						c0.59,1.49,1.61,2.13,3.41,1.55c-1.85-4.14-3.69-8.27-5.54-12.39c0.2-0.18,0.4-0.35,0.6-0.53c0.51,0.3,1.18,0.48,1.51,0.91
						c1.9,2.45,3.66,5.01,5.58,7.44c1.21,1.54,2.43,3.16,3.94,4.36c1.72,1.36,2.84,0.75,3.1-1.45c0.12-1.02,0.02-2.08,0.02-2.62
						c1.14,1.03,2.58,2.44,4.14,3.71c0.55,0.45,1.63,0.99,2,0.75c0.6-0.38,1.17-1.39,1.12-2.09c-0.09-1.35-0.46-2.73-1.02-3.97
						c-0.87-1.95-2.02-3.77-2.98-5.68c-0.18-0.35-0.01-0.88,0-1.33c0.4,0.04,0.96-0.07,1.19,0.16c1.32,1.29,2.64,2.6,3.81,4.03
						c1.72,2.1,3.14,4.47,5,6.43c1.09,1.15,2.7,1.91,4.21,2.52c1.66,0.67,3.62-0.92,3.41-2.94c-0.22-2.08-0.97-4.11-1.49-6.16
						c-0.05-0.19-0.16-0.37-0.31-0.69C2.6,41.94,3.07,44.18,5.04,44.91"/>
				</g>
				<g id="g36" transform="translate(403.599,164.5027)">
					<path id="path38" class="st1" d="M-50.03,35.29c2.48-0.03,5.76,3.54,5.82,5.63c0.03,1.09-0.75,1.18-1.41,0.74
						C-47.86,40.16-49.38,38.12-50.03,35.29 M-60.84,26.19c-0.18,0.12-0.36,0.25-0.54,0.37c-1.12-0.96-2.29-1.87-3.34-2.9
						c-2.28-2.24-4.64-4.47-5.48-7.71c-0.18-0.68,0.13-1.48,0.21-2.23c0.74,0.18,1.5,0.3,2.21,0.56c0.31,0.12,0.58,0.48,0.77,0.79
						c1.44,2.25,2.92,4.48,4.24,6.8C-61.99,23.24-61.47,24.75-60.84,26.19 M-71.95,40.03c-0.27,0.57-0.45,1.47-0.99,1.89
						c-0.32,0.25-1.38-0.08-1.84-0.47c-2.94-2.49-4.03-5.94-4.66-9.57c-0.1-0.59,0.28-1.27,0.43-1.9c0.69,0.19,1.48,0.22,2.06,0.59
						C-73.62,32.73-72.89,36.3-71.95,40.03 M-60.61,33.19c0.92-0.78,1.59-1.35,2.27-1.92c1-0.84,1.46,0.07,1.89,0.66
						c1.32,1.81,2.47,3.75,3.87,5.49c1.73,2.16,3.48,4.38,6.21,5.4c1.83,0.68,2.83,0.39,3.63-0.92c0.74-1.2,0.26-2.89-0.79-4.08
						c-1.7-1.92-3.96-2.87-6.13-4c-1.03-0.53-1.56-2.26-0.95-3.25c0.73-1.18,1.69-1.05,2.77-0.42c2.34,1.38,3.83,3.49,5.31,5.69
						c1.44,2.15,3.12,4.14,4.7,6.2c0.07,0.08,0.15,0.15,0.24,0.22c0.89,0.67,2,1.41,2.89,0.6c0.67-0.61,0.8-1.85,1.07-2.83
						c0.1-0.36-0.12-0.8,0.12-1.46c0.47,0.4,0.97,0.78,1.4,1.22c0.82,0.84,1.53,1.81,2.41,2.57c1.52,1.3,3.09,0.75,3.1-1.24
						c0.01-1.51-0.56-3.1-1.16-4.53c-0.82-1.96-1.92-3.8-2.84-5.71c-0.13-0.27,0.03-0.69,0.08-1.36c3.29,1.38,4.42,4.56,6.55,6.72
						c0.14-0.11,0.28-0.21,0.42-0.32c-1.19-1.62-2.35-3.26-3.58-4.85c-0.42-0.55-0.92-1.09-1.5-1.43c-0.71-0.42-1.61-0.96-2.32-0.84
						c-1.19,0.2-1.73,1.37-1.54,2.49c0.28,1.67,0.68,3.35,1.34,4.9c0.56,1.31,1.56,2.42,2.34,3.65c0.3,0.48,0.52,1.01,0.78,1.52
						c-0.13,0.12-0.26,0.25-0.4,0.37c-1.08-0.94-2.35-1.74-3.21-2.85c-2.22-2.86-4.26-5.87-6.38-8.81
						c-0.24-0.34-0.48-0.83-0.82-0.93c-0.78-0.24-1.62-0.29-2.44-0.41c0.18,0.78,0.2,1.64,0.56,2.32c1.3,2.46,2.76,4.84,4.08,7.29
						c0.52,0.97,0.83,2.05,1.23,3.08c-0.16,0.16-0.32,0.32-0.48,0.48c-0.77-0.57-1.72-1-2.28-1.73c-1.7-2.19-3.25-4.49-4.86-6.74
						c-1.41-1.97-2.86-3.82-5.39-4.55c-2.03-0.59-4.04,0.41-4.49,2.52c-0.16,0.78-0.4,1.54-0.65,2.47
						c-1.45-1.53-2.82-2.93-4.12-4.39c-0.28-0.32-0.35-0.87-0.43-1.33c-1.12-6.22-4.44-11.05-9.42-14.79
						c-0.96-0.72-2.16-1.46-3.38-0.57c-1.19,0.86-1.17,2.16-0.88,3.5c0.56,2.65,2.62,4.21,4.37,5.94c2.25,2.23,4.7,4.27,7,6.46
						c0.74,0.7,0.91,1.82-0.06,2.33c-0.49,0.26-1.49-0.29-2.18-0.63c-0.46-0.23-0.72-0.81-1.17-1.08c-0.35-0.21-0.83-0.19-1.26-0.27
						c0.04,0.45-0.06,0.98,0.15,1.32c0.26,0.43,0.79,0.69,1.16,1.07c1.43,1.46,2.84,2.95,4.61,4.78c-1.97,0.09-3.97-0.85-4.47,1.14
						c-0.34,1.36,0.18,2.94,0.34,4.73c-2.04-1.72-3.63-3.55-4.72-5.79c-1.01-2.08-2.49-3.52-4.82-4.04
						c-0.67-0.15-1.25-0.7-1.86-1.07c-1.11-0.69-2.15-1.56-3.35-2.03c-1.66-0.65-2.5-0.22-3.07,1.49c-0.33,0.99-0.26,2.1-0.44,3.15
						c-0.12,0.69-0.38,1.36-0.53,2.05c-0.06,0.27-0.05,0.63,0.08,0.85c1.71,2.86,3.87,5.22,7.1,6.45c2.44,0.93,4.32-0.6,4.21-3.16
						c-0.09-2.08-0.91-4.12-1.43-6.25c1.52,0.16,2.12,1.58,2.98,2.64c1.54,1.91,3,3.89,4.55,5.79c0.69,0.85,1.6,1.68,2.74,0.93
						c1.19-0.77,1.16-2.05,0.87-3.32c-0.16-0.7-0.32-1.41-0.5-2.19c2.34-0.42,3.47,1.13,4.71,2.38c0.75,0.76,1.28,1.73,2.03,2.49
						c0.29,0.31,0.88,0.33,1.34,0.48c-0.04-0.44,0.09-1-0.13-1.31c-0.94-1.28-1.95-2.52-3.01-3.72c-1.09-1.24-2.28-2.4-3.39-3.62
						C-60.28,33.95-60.44,33.49-60.61,33.19"/>
				</g>
				<g id="g40" transform="translate(200.0077,193.0387)">
					<path id="path42" class="st1" d="M-50.03,35.29c-1.19,0.37-2.02,0.74-2.88,0.88c-3.26,0.52-6.47,0.42-9.63-0.72
						c-5.21-1.87-9.45-5.09-12.44-9.68c-2.9-4.44-4.3-9.51-4.5-14.79c-0.08-2.02,0.62-4.09,1.11-6.09c0.53-2.16,2.76-3.43,4.93-3.1
						c1.98,0.3,3.45,1.4,4.73,2.81c3.05,3.38,4.93,7.48,6.97,11.49c2.94,5.78,5.81,11.59,9.75,16.78
						C-51.42,33.6-50.82,34.3-50.03,35.29 M-51.25,20.42c3.04-1.41,5.11-3.21,5.83-6.13c0.6-2.43,0.06-4.81-1.13-6.89
						c-1.01-1.77-2.32-3.48-3.85-4.81c-1.87-1.61-4.21-1.95-6.63-1c-2.91,1.15-4.15,6.03-2.17,9.08c1.11,1.71,2.8,3.05,4.3,4.48
						c0.3,0.29,0.92,0.24,1.39,0.35c0.09-0.16,0.17-0.33,0.26-0.49c-0.69-0.5-1.34-1.06-2.07-1.49c-2.93-1.75-4.46-6.31-3.22-8.75
						c0.81-1.59,1.81-2.31,3.47-1.68c1.34,0.51,2.76,1.28,3.66,2.34c1.94,2.3,2.85,5.15,3.05,8.14c0.23,3.35-1.61,5.39-4.98,5.84
						c-0.86,0.11-2.36-0.35-2.26,1.05c0.1,1.44,1.39,0.51,2.2,0.52c1.75,0.04,3.11,0.9,4.01,2.33c1.72,2.74,2.22,5.76,1.43,8.9
						c-0.16,0.64-0.86,1.14-1.31,1.7c-0.47-0.4-1.02-0.73-1.38-1.21c-4.85-6.46-7.69-14.03-11.54-21.04
						c-1.71-3.11-3.57-6.08-6.27-8.41c-2.7-2.33-6.31-3.63-10.05-1.75c-3.64,1.83-4.27,5.2-4.31,8.71
						c-0.06,4.9,1.66,9.34,4.19,13.45c4.05,6.58,9.87,11.04,17.18,13.37c4.02,1.29,8.2,1.51,12.23-0.3c1.52-0.68,2.17,0.8,3.23,1.25
						c0.58,0.24,1.1,0.6,1.65,0.91l0.42-0.59c-1-0.81-2.01-1.62-3.17-2.57c2.21-2.41,3.67-5.13,2.55-8.61
						C-45.58,23.91-47.91,21.93-51.25,20.42"/>
				</g>
				<g id="g44" transform="translate(364.3893,191.7401)">
					<path id="path46" class="st1" d="M-50.03,35.29c-0.51,0.33-0.9,0.75-1.37,0.87c-3.78,0.98-7.5,0.79-11.11-0.76
						c-3.8-1.63-7.31-3.62-10.06-6.87c-2.76-3.26-4.64-6.95-5.66-11.03c-1.04-4.16-1.55-8.4,0.13-12.59c0.84-2.1,3.43-3.7,5.44-2.88
						c1.63,0.67,3.48,1.6,4.43,2.96c2.74,3.94,5.32,8.03,7.53,12.29C-57.53,23.42-54.51,29.61-50.03,35.29 M-43.41,38.44
						c-1.01-0.77-2.03-1.53-3.03-2.29c4.08-7.95,3.64-9.71-3.89-15.54c0.26-0.19,0.47-0.39,0.71-0.51c4.2-2.1,5.9-5.97,4.5-10.45
						c-0.96-3.07-2.56-5.72-5.43-7.43c-3.02-1.8-7.39-0.9-8.64,2.2c-0.65,1.61-0.76,3.81-0.2,5.43c0.92,2.67,3.07,4.58,5.67,5.85
						c0.16,0.08,0.39,0.01,0.84-0.37c-0.6-0.5-1.16-1.07-1.82-1.48c-2.11-1.31-3.48-3.04-3.88-5.57c-0.3-1.91,0.26-4.07,1.49-4.76
						c1.36-0.76,4.33-0.26,5.49,1.15c2.8,3.39,4.29,7.23,3.42,11.71c-0.35,1.83-2.46,3.25-4.81,3.31c-0.48,0.01-1-0.05-1.42,0.11
						c-0.36,0.14-0.62,0.56-0.92,0.85c0.4,0.28,0.82,0.82,1.21,0.81c3.48-0.09,6.22,1.94,6.62,5.38c0.22,1.91,0.09,3.92-0.23,5.83
						c-0.24,1.43-1.21,1.71-2.13,0.61c-1.43-1.71-2.71-3.58-3.76-5.55c-3.06-5.74-5.84-11.64-9-17.33
						c-1.89-3.39-4.12-6.62-7.73-8.59c-4.61-2.51-10.14-0.19-11.49,4.85c-1.1,4.13-0.2,8.05,1.12,11.93
						c1.44,4.24,3.87,7.88,7.03,11.01c2.94,2.92,6.37,5.12,10.23,6.77c3.1,1.33,6.26,1.86,9.54,1.73c1.58-0.06,3.15-0.57,4.7-0.96
						c1.06-0.27,1.9-0.22,2.8,0.57c0.71,0.62,1.71,0.92,2.58,1.36C-43.69,38.88-43.55,38.66-43.41,38.44"/>
				</g>
				<g id="g48" transform="translate(175.7244,222.5389)">
					<path id="path50" class="st1" d="M-50.03,35.29c-0.19-1.11-0.26-2.14-0.56-3.1c-0.79-2.49-3.02-3.68-5.43-2.72
						c-0.74,0.3-1.48,1.31-1.67,2.12c-0.47,1.96-0.27,3.96,0.82,5.74c1.42,2.32,5.04,2.53,6.28,0.32
						C-50.19,36.96-50.19,36.04-50.03,35.29"/>
				</g>
				<g id="g52" transform="translate(526.9053,275.9735)">
					<path id="path54" class="st1" d="M-50.03,35.29c0.6,1.33,1.08,2.73,1.83,3.98c0.74,1.23,2.2,1.37,3.31,0.94
						c0.77-0.3,1.47-1.35,1.75-2.21c0.66-2.03,0.03-3.92-1.23-5.58c-0.89-1.16-2.29-1.51-3.47-0.98c-0.79,0.36-1.25,1.54-1.74,2.42
						c-0.19,0.33-0.07,0.84-0.1,1.27C-49.79,35.18-49.91,35.24-50.03,35.29"/>
				</g>
				<g id="g56" transform="translate(312.9158,165.7066)">
					<path id="path58" class="st1" d="M-50.03,35.29c-0.7-0.73-1.12-1.17-1.55-1.61c-0.55,0.55-1.38,1.02-1.55,1.66
						c-0.11,0.39,0.79,1.06,1.24,1.6C-51.35,36.46-50.81,35.99-50.03,35.29"/>
				</g>
			</g>
		</g>
	</g>
	<text transform="matrix(0.75 0 0 -0.75 48.298 138.8112)" class="st1 st2 st3">C</text>
	<text transform="matrix(0.75 0 0 -0.75 67.1436 138.8112)" class="st1 st2 st3">O</text>
	<text transform="matrix(0.75 0 0 -0.75 87.4507 138.8112)" class="st1 st2 st3">L</text>
	<text transform="matrix(0.75 0 0 -0.75 102.4646 138.8112)" class="st1 st2 st3">T</text>
	<text transform="matrix(0.75 0 0 -0.75 119.8746 138.8112)" class="st1 st2 st3">E</text>
	<text transform="matrix(0.75 0 0 -0.75 137.2843 138.8112)" class="st1 st2 st3">L</text>
	<text transform="matrix(0.75 0 0 -0.75 154.6947 138.8112)" class="st1 st2 st3">L</text>
	<text transform="matrix(0.75 0 0 -0.75 172.1044 138.8112)" class="st1 st2 st3">E</text>
	<text transform="matrix(0.75 0 0 -0.75 189.5141 138.8112)" class="st1 st2 st3">R</text>
	<text transform="matrix(0.75 0 0 -0.75 208.36 138.8112)" class="st1 st2 st3">I</text>
	<text transform="matrix(0.75 0 0 -0.75 218.5136 138.8112)" class="st1 st2 st3">A</text>
	<text transform="matrix(0.75 0 0 -0.75 239.9904 138.8112)" class="st1 st2 st3">/</text>
	<text transform="matrix(0.75 0 0 -0.75 250.3791 138.8112)" class="st1 st2 st3">M</text>
	<text transform="matrix(0.75 0 0 -0.75 275.0192 138.8112)" class="st1 st2 st3">E</text>
	<text transform="matrix(0.75 0 0 -0.75 292.4289 138.8112)" class="st1 st2 st3">S</text>
	<text transform="matrix(0.75 0 0 -0.75 306.9418 138.8112)" class="st1 st2 st3">S</text>
	<text transform="matrix(0.75 0 0 -0.75 321.454 138.8112)" class="st1 st2 st3">E</text>
	<text transform="matrix(0.75 0 0 -0.75 338.8644 138.8112)" class="st1 st2 st3">R</text>
	<text transform="matrix(0.75 0 0 -0.75 357.7097 138.8112)" class="st1 st2 st3">L</text>
	<text transform="matrix(0.75 0 0 -0.75 375.1201 138.8112)" class="st1 st2 st3">A</text>
	<text transform="matrix(0.75 0 0 -0.75 393.9653 138.8112)" class="st1 st2 st3">D</text>
	<text transform="matrix(0.75 0 0 -0.75 412.8112 138.8112)" class="st1 st2 st3">E</text>
	<text transform="matrix(0.75 0 0 -0.75 430.2209 138.8112)" class="st1 st2 st3">N</text>
</g>
</svg>
