<?xml version="1.0" encoding="utf-8"?>
<!-- Generator: Adobe Illustrator 26.0.0, SVG Export Plug-In . SVG Version: 6.00 Build 0)  -->
<svg version="1.1"
	 id="svg2" xmlns:cc="http://creativecommons.org/ns#" xmlns:dc="http://purl.org/dc/elements/1.1/" xmlns:inkscape="http://www.inkscape.org/namespaces/inkscape" xmlns:rdf="http://www.w3.org/1999/02/22-rdf-syntax-ns#" xmlns:sodipodi="http://sodipodi.sourceforge.net/DTD/sodipodi-0.dtd" xmlns:svg="http://www.w3.org/2000/svg"
	 xmlns="http://www.w3.org/2000/svg" xmlns:xlink="http://www.w3.org/1999/xlink" x="0px" y="0px" viewBox="0 0 5805.03 1889.83"
	 style="enable-background:new 0 0 5805.03 1889.83;" xml:space="preserve">
<style type="text/css">
	.st0{fill-rule:evenodd;clip-rule:evenodd;fill:#2C2B2A;}
	.st1{clip-path:url(#SVGID_00000027572204950896695860000000037145368725665717_);}
	.st2{fill-rule:evenodd;clip-rule:evenodd;fill:#FEFEFE;}
</style>
<sodipodi:namedview  bordercolor="#666666" borderopacity="1" gridtolerance="10" guidetolerance="10" id="namedview4" inkscape:pageopacity="0" inkscape:pageshadow="2" inkscape:window-height="480" inkscape:window-width="640" objecttolerance="10" pagecolor="#ffffff">
	</sodipodi:namedview>
<g id="g10" transform="matrix(1.3333333,0,0,-1.3333333,0,2138.48)" inkscape:groupmode="layer" inkscape:label="Mair">
	<g id="g12" transform="translate(2194.4827,282.2256)">
		<path id="path14" class="st0" d="M-286.42,93.24l173.22,799.42L32.19,614.68L177.07,893.3L348.85,93.24h81.97L209.86,1123.57
			L30.18,783.13l-177.94,340.31L-369.39,93.24H-286.42z"/>
	</g>
	<g id="g16">
		<g>
			<defs>
				<rect id="SVGID_1_" x="-1107.52" y="-174.07" width="6568.82" height="2138.49"/>
			</defs>
			<clipPath id="SVGID_00000000901819623945600680000004145471228735622811_">
				<use xlink:href="#SVGID_1_"  style="overflow:visible;"/>
			</clipPath>
			<g id="g18" style="clip-path:url(#SVGID_00000000901819623945600680000004145471228735622811_);">
				<g id="g24" transform="translate(3424.7397,888.0444)">
					<path id="path26" class="st0" d="M-286.42,93.24h-239.58v251.71c0,30.52,9.7,57.81,34.68,76.39
						c24.52,18.23,54.14,24.76,84.25,24.76c31.86,0,66.48-6.04,90.32-28.92c20.4-19.58,30.32-43.99,30.32-72.22V93.24z
						 M-206.26-513.5v869.05c0,49.18-22.13,88.07-59.34,119.48c-40.81,34.45-88.1,50.73-141.45,50.73
						c-53.78,0-102.25-15.25-143.05-50.64c-36.58-31.73-57.75-70.76-57.75-119.57V93.24h-82.78l25.52-75.76h57.26v-530.06h81.86
						V17.48h239.58V-513.5H-206.26z"/>
				</g>
				<path id="path28" class="st0" d="M3503.8,1402.63h-80.16V374.55h80.16V1402.63z"/>
				<g id="g30" transform="translate(4496.1792,890.3837)">
					<path id="path32" class="st0" d="M-286.42,93.24c0-100.43-42.55-182.88-116.4-249.97c-80.65-73.26-178.08-105.35-286.55-105.35
						h-10.09v709.25h10.09c106.71,0,201.83-32.79,282.94-102.37C-329.24,278.58-286.42,195.45-286.42,93.24 M-779.62,512.24V-515.84
						h80.16v210.37l305.75-210.37h112.35l-295.31,203.16l22.97,4.88c99.01,21.03,181.49,69.92,247.88,146.3
						c63.63,73.21,99.57,157.4,99.57,254.75c0,120.23-50.96,217.25-141.09,295.68c-97.64,84.96-212.93,123.31-342.02,123.31H-779.62
						z"/>
				</g>
				<g id="g34" transform="translate(1623.2183,1303.7795)">
					<path id="path36" class="st0" d="M-286.42,93.24h-894.83L-1561.36-176v-63.35l803.14-673.11L77.85-239.35V-176L-286.42,93.24z"
						/>
				</g>
				<g id="g38" transform="translate(390.3131,1035.7351)">
					<path id="path40" class="st2" d="M-286.42,93.24h27.61l45.52,47.82L-286.42,93.24z M938.02,333.81h-43.28l74.61-23.91
						L938.02,333.81z M59.05,333.81h43.28L27.71,309.9L59.05,333.81z M1244.52,98.76l-65.2,47.03l44.88-46.99L1244.52,98.76z
						 M-275.17,35.76h-28.95l178.08-144.78L-275.17,35.76z M1241.58,35.76h28.96l-178.09-144.79L1241.58,35.76z M423.84-414.76
						l61.05,361.64l49.82-361.64v-39.59l-47.51-95.03v-15.84h-15.84v15.84l-47.51,102.95V-414.76z M237-408.71l218.47-172.35
						c-17.68,35.38-35.71,70.5-51.85,106.61L9.21-93.81L237-408.71z M729.42-408.7L510.95-581.06
						c17.68,35.38,35.71,70.5,51.86,106.61L957.2-93.81L729.42-408.7z M122.87-303.9L-122.61,36.62h-102.95L122.87-303.9z
						 M843.54-303.9l245.49,340.51h102.95L843.54-303.9z M360.99-385.42L154.55,36.62H-67.18L360.99-385.42z M605.42-385.41
						L811.87,36.62h221.73L605.42-385.41z M400.03-375.17L465.77,35.6l-271.63,1.02L400.03-375.17z M566.38-375.17L500.64,35.6
						l271.63,1.02L566.38-375.17z M546.07,95.48l174.22,150.76l49.74-151.93L546.07,95.48z M203.6,96.98l42.29,137.61h19.57
						L433.25,96.98H203.6z M-114.69,93.17l-92.29,0.07l116.09,117.59L-114.69,93.17z M1065.27,218.75
						c39.6-39.59,79.19-79.19,118.78-118.78h-102.94L1065.27,218.75z M981.44,96.98l-169,0.12l-51.81,131.36L981.44,96.98z
						 M171.93,95.79l-208.57-0.17l246.67,131.06L171.93,95.79z M439.68,313.78h62.81l191.78-51.08L495.11,99.97h-7.92L289.22,258.34
						L439.68,313.78z M817.13,326.18l204.34-69.73l20.04-156.48l-293,166.3L817.13,326.18z M-75.05,107.89l39.6,134.62l174.22,71.27
						h23.76l47.51-39.6L-75.05,107.89z M761.66,327.67l-36.9-29.74H701c-45.4,9.08-89.98,18.69-134.61,30.98L761.66,327.67z
						 M273.38,297.94h-39.59l-39.59,31.68l176.54-0.61L273.38,297.94z"/>
				</g>
			</g>
		</g>
	</g>
</g>
</svg>
