<?xml version="1.0" encoding="UTF-8" standalone="no"?>
<svg
   xmlns:dc="http://purl.org/dc/elements/1.1/"
   xmlns:cc="http://creativecommons.org/ns#"
   xmlns:rdf="http://www.w3.org/1999/02/22-rdf-syntax-ns#"
   xmlns:svg="http://www.w3.org/2000/svg"
   xmlns="http://www.w3.org/2000/svg"
   xmlns:sodipodi="http://sodipodi.sourceforge.net/DTD/sodipodi-0.dtd"
   xmlns:inkscape="http://www.inkscape.org/namespaces/inkscape"
   version="1.1"
   id="svg2"
   xml:space="preserve"
   width="1645.7867"
   height="1791.6667"
   viewBox="0 0 1645.7867 1791.6667"
   sodipodi:docname="META.ai"><metadata
     id="metadata8"><rdf:RDF><cc:Work
         rdf:about=""><dc:format>image/svg+xml</dc:format><dc:type
           rdf:resource="http://purl.org/dc/dcmitype/StillImage" /></cc:Work></rdf:RDF></metadata><defs
     id="defs6"><clipPath
       clipPathUnits="userSpaceOnUse"
       id="clipPath34"><path
         d="M 0,1343.746 H 1234.342 V 0 H 0 Z"
         id="path32" /></clipPath></defs><sodipodi:namedview
     pagecolor="#ffffff"
     bordercolor="#666666"
     borderopacity="1"
     objecttolerance="10"
     gridtolerance="10"
     guidetolerance="10"
     inkscape:pageopacity="0"
     inkscape:pageshadow="2"
     inkscape:window-width="640"
     inkscape:window-height="480"
     id="namedview4" /><g
     id="g10"
     inkscape:groupmode="layer"
     inkscape:label="META"
     transform="matrix(1.3333333,0,0,-1.3333333,0,1791.6667)"><g
       id="g12"
       transform="translate(270.0155,719.5807)"><path
         d="m 0,0 -34.99,-250.43 h -1.001 L -70.981,0 h -78.477 v -349.906 h 47.985 v 264.929 h 1.001 l 39.99,-264.929 h 45.987 l 39.989,264.929 h 0.998 V -349.906 H 78.48 V 0 Z"
         style="fill:#202222;fill-opacity:1;fill-rule:nonzero;stroke:none"
         id="path14" /></g><g
       id="g16"
       transform="translate(459.4624,719.5807)"><path
         d="M 0,0 H 149.959 V -49.986 H 54.983 v -92.477 h 75.482 v -49.986 H 54.983 v -107.47 h 94.976 v -49.986 H 0 Z"
         style="fill:#202222;fill-opacity:1;fill-rule:nonzero;stroke:none"
         id="path18" /></g><g
       id="g20"
       transform="translate(753.8794,669.5943)"><path
         d="M 0,0 H -57.487 V 49.986 H 112.469 V 0 H 54.982 V -299.919 H 0 Z"
         style="fill:#202222;fill-opacity:1;fill-rule:nonzero;stroke:none"
         id="path22" /></g><g
       id="g24"
       transform="translate(982.3187,719.5807)"><path
         d="m 0,0 -56.984,-349.906 h 50.987 l 9.996,68.481 h 62.483 v 1.001 l 9.996,-69.482 h 54.988 L 74.481,0 Z m 34.492,-60.984 h 1 l 24.495,-172.95 H 10.499 Z"
         style="fill:#202222;fill-opacity:1;fill-rule:nonzero;stroke:none"
         id="path26" /></g><g
       id="g28"><g
         id="g30"
         clip-path="url(#clipPath34)"><g
           id="g36"
           transform="translate(396.9976,261.36)"><path
             d="m 0,0 c 0,10.842 -7.164,17.038 -20.717,17.038 h -18.006 v -33.977 h 18.006 C -7.164,-16.939 0,-10.647 0,0 m 0.386,-44.529 -15.488,21.779 c -1.743,-0.191 -3.485,-0.288 -5.42,-0.288 h -18.201 v -21.491 h -7.164 v 67.762 h 25.365 C -3.292,23.233 7.163,14.521 7.163,0 7.163,-10.647 1.548,-18.103 -8.326,-21.296 L 8.228,-44.529 Z"
             style="fill:#857650;fill-opacity:1;fill-rule:nonzero;stroke:none"
             id="path38" /></g><g
           id="g40"
           transform="translate(422.3716,245.2906)"><path
             d="M 0,0 H 36.108 C 35.237,9.971 27.977,16.941 18.006,16.941 8.131,16.941 0.871,9.971 0,0 M 42.595,-5.13 H 0 c 0.774,-10.648 8.905,-17.717 20.039,-17.717 6.195,0 11.713,2.227 15.586,6.681 l 3.871,-4.454 c -4.55,-5.42 -11.616,-8.325 -19.651,-8.325 -15.876,0 -26.718,10.842 -26.718,25.945 0,15.1 10.551,25.846 24.879,25.846 14.327,0 24.685,-10.552 24.685,-25.846 0,-0.581 -0.096,-1.356 -0.096,-2.13"
             style="fill:#857650;fill-opacity:1;fill-rule:nonzero;stroke:none"
             id="path42" /></g><g
           id="g44"
           transform="translate(473.0103,222.6383)"><path
             d="m 0,0 3.098,5.422 c 4.065,-3.195 10.938,-5.713 18.101,-5.713 9.682,0 13.651,3.293 13.651,8.325 0,13.264 -33.011,2.809 -33.011,22.944 0,8.325 7.163,14.52 20.135,14.52 6.583,0 13.747,-1.839 18.005,-4.744 l -3,-5.517 c -4.454,3.099 -9.778,4.357 -15.005,4.357 -9.197,0 -13.262,-3.581 -13.262,-8.423 0,-13.745 33.01,-3.387 33.01,-22.942 0,-8.811 -7.743,-14.522 -21.007,-14.522 C 12.294,-6.293 4.162,-3.581 0,0"
             style="fill:#857650;fill-opacity:1;fill-rule:nonzero;stroke:none"
             id="path46" /></g><g
           id="g48"
           transform="translate(555.2056,219.9264)"><path
             d="m 0,0 c -2.712,-2.418 -6.777,-3.581 -10.746,-3.581 -9.584,0 -14.907,5.423 -14.907,14.811 v 30.785 h -9.101 v 5.807 h 9.101 v 11.134 h 6.873 V 47.822 H -3.292 V 42.015 H -18.78 V 11.618 c 0,-6.001 3.097,-9.294 8.808,-9.294 2.808,0 5.616,0.872 7.551,2.614 z"
             style="fill:#857650;fill-opacity:1;fill-rule:nonzero;stroke:none"
             id="path50" /></g><g
           id="g52"
           transform="translate(600.2251,232.1266)"><path
             d="m 0,0 v 8.325 h -15.973 c -9.874,0 -13.069,-3.874 -13.069,-9.1 0,-5.906 4.744,-9.583 12.876,-9.583 C -8.422,-10.358 -2.71,-6.681 0,0 M 6.873,16.263 V -15.296 H 0.291 v 7.938 c -3.098,-5.227 -9.1,-8.423 -17.522,-8.423 -11.52,0 -18.586,6.002 -18.586,14.811 0,7.841 5.033,14.424 19.651,14.424 H 0 v 3.1 c 0,8.71 -4.937,13.454 -14.424,13.454 -6.582,0 -12.777,-2.323 -16.94,-6.001 l -3.098,5.129 c 5.131,4.356 12.681,6.874 20.715,6.874 13.167,0 20.62,-6.583 20.62,-19.747"
             style="fill:#857650;fill-opacity:1;fill-rule:nonzero;stroke:none"
             id="path54" /></g><g
           id="g56"
           transform="translate(672.644,267.7486)"><path
             d="m 0,0 v -50.918 h -6.582 v 9.294 c -3.583,-6.198 -10.166,-9.779 -18.298,-9.779 -12.971,0 -21.49,7.261 -21.49,21.88 V 0 h 6.874 v -28.848 c 0,-10.84 5.614,-16.359 15.295,-16.359 10.647,0 17.328,6.873 17.328,18.489 l 0,26.718 z"
             style="fill:#857650;fill-opacity:1;fill-rule:nonzero;stroke:none"
             id="path58" /></g><g
           id="g60"
           transform="translate(718.5405,268.1363)"><path
             d="m 0,0 v -6.68 c -0.582,0 -1.162,0.097 -1.646,0.097 -10.648,0 -17.134,-6.774 -17.134,-18.78 v -25.943 h -6.873 v 50.918 h 6.582 v -9.97 C -15.877,-3.581 -9.391,0 0,0"
             style="fill:#857650;fill-opacity:1;fill-rule:nonzero;stroke:none"
             id="path62" /></g><g
           id="g64"
           transform="translate(763.3667,232.1266)"><path
             d="m 0,0 v 8.325 h -15.973 c -9.875,0 -13.069,-3.874 -13.069,-9.1 0,-5.906 4.744,-9.583 12.876,-9.583 C -8.423,-10.358 -2.71,-6.681 0,0 M 6.874,16.263 V -15.296 H 0.29 v 7.938 c -3.098,-5.227 -9.099,-8.423 -17.521,-8.423 -11.52,0 -18.586,6.002 -18.586,14.811 0,7.841 5.033,14.424 19.651,14.424 H 0 v 3.1 c 0,8.71 -4.937,13.454 -14.424,13.454 -6.584,0 -12.779,-2.323 -16.94,-6.001 l -3.098,5.129 c 5.13,4.356 12.681,6.874 20.715,6.874 13.166,0 20.621,-6.583 20.621,-19.747"
             style="fill:#857650;fill-opacity:1;fill-rule:nonzero;stroke:none"
             id="path66" /></g><g
           id="g68"
           transform="translate(836.7544,246.356)"><path
             d="m 0,0 v -29.525 h -6.873 v 28.847 c 0,10.745 -5.615,16.263 -15.295,16.263 -10.939,0 -17.812,-6.777 -17.812,-18.393 v -26.717 h -6.874 v 50.918 h 6.583 v -9.389 c 3.679,6.195 10.552,9.776 19.362,9.776 C -8.519,21.78 0,14.618 0,0"
             style="fill:#857650;fill-opacity:1;fill-rule:nonzero;stroke:none"
             id="path70" /></g><g
           id="g72"
           transform="translate(883.2309,219.9264)"><path
             d="m 0,0 c -2.711,-2.418 -6.776,-3.581 -10.745,-3.581 -9.585,0 -14.908,5.423 -14.908,14.811 v 30.785 h -9.101 v 5.807 h 9.101 v 11.134 h 6.873 V 47.822 H -3.291 V 42.015 H -18.78 V 11.618 c 0,-6.001 3.097,-9.294 8.808,-9.294 2.809,0 5.616,0.872 7.552,2.614 z"
             style="fill:#857650;fill-opacity:1;fill-rule:nonzero;stroke:none"
             id="path74" /></g><g
           id="g76"
           transform="translate(176.4595,140.3326)"><path
             d="m 0,0 c 0,10.843 -7.163,17.038 -20.716,17.038 h -18.007 v -33.88 h 18.007 C -7.163,-16.842 0,-10.646 0,0 m 7.164,0 c 0,-14.424 -10.455,-23.135 -27.686,-23.135 h -18.201 v -21.394 h -7.163 v 67.763 h 25.364 C -3.291,23.234 7.164,14.521 7.164,0"
             style="fill:#857650;fill-opacity:1;fill-rule:nonzero;stroke:none"
             id="path78" /></g><g
           id="g80"
           transform="translate(229.7124,111.0992)"><path
             d="m 0,0 v 8.326 h -15.972 c -9.875,0 -13.069,-3.875 -13.069,-9.1 0,-5.906 4.744,-9.583 12.875,-9.583 C -8.422,-10.357 -2.71,-6.68 0,0 m 6.873,16.264 v -31.56 H 0.291 v 7.938 c -3.098,-5.226 -9.1,-8.422 -17.521,-8.422 -11.521,0 -18.587,6.002 -18.587,14.811 0,7.841 5.034,14.424 19.651,14.424 H 0 v 3.099 c 0,8.711 -4.937,13.455 -14.424,13.455 -6.582,0 -12.777,-2.323 -16.94,-6.002 l -3.098,5.13 c 5.131,4.356 12.681,6.874 20.716,6.874 13.166,0 20.619,-6.583 20.619,-19.747"
             style="fill:#857650;fill-opacity:1;fill-rule:nonzero;stroke:none"
             id="path82" /></g><path
           d="m 256.248,167.632 h 6.873 V 95.803 h -6.873 z"
           style="fill:#857650;fill-opacity:1;fill-rule:nonzero;stroke:none"
           id="path84" /><g
           id="g86"
           transform="translate(314.8179,111.0992)"><path
             d="m 0,0 v 8.326 h -15.973 c -9.874,0 -13.069,-3.875 -13.069,-9.1 0,-5.906 4.744,-9.583 12.876,-9.583 C -8.422,-10.357 -2.71,-6.68 0,0 m 6.874,16.264 v -31.56 H 0.291 v 7.938 c -3.098,-5.226 -9.1,-8.422 -17.522,-8.422 -11.52,0 -18.586,6.002 -18.586,14.811 0,7.841 5.033,14.424 19.651,14.424 H 0 v 3.099 c 0,8.711 -4.937,13.455 -14.424,13.455 -6.583,0 -12.779,-2.323 -16.94,-6.002 l -3.098,5.13 c 5.131,4.356 12.681,6.874 20.715,6.874 13.167,0 20.621,-6.583 20.621,-19.747"
             style="fill:#857650;fill-opacity:1;fill-rule:nonzero;stroke:none"
             id="path88" /></g><path
           d="m 341.353,146.722 h 6.872 V 95.803 h -6.872 z m -1.55,16.071 c 0,2.613 2.227,4.839 5.034,4.839 2.808,0 5.034,-2.13 5.034,-4.742 0,-2.807 -2.129,-5.034 -5.034,-5.034 -2.807,0 -5.034,2.227 -5.034,4.937"
           style="fill:#857650;fill-opacity:1;fill-rule:nonzero;stroke:none"
           id="path90" /><g
           id="g92"
           transform="translate(361.2983,101.6109)"><path
             d="M 0,0 3.098,5.423 C 7.164,2.228 14.036,-0.29 21.2,-0.29 c 9.681,0 13.65,3.293 13.65,8.325 0,13.263 -33.011,2.808 -33.011,22.944 0,8.325 7.164,14.52 20.135,14.52 6.584,0 13.747,-1.839 18.006,-4.744 l -3,-5.518 c -4.454,3.1 -9.779,4.357 -15.006,4.357 -9.197,0 -13.262,-3.581 -13.262,-8.422 0,-13.745 33.011,-3.388 33.011,-22.943 0,-8.81 -7.744,-14.521 -21.008,-14.521 C 12.294,-6.292 4.163,-3.581 0,0"
             style="fill:#857650;fill-opacity:1;fill-rule:nonzero;stroke:none"
             id="path94" /></g><g
           id="g96"
           transform="translate(438.4634,129.6861)"><path
             d="m 0,0 c 0,19.845 15.103,34.462 35.528,34.462 9.873,0 18.781,-3.293 24.783,-9.873 L 55.76,20.038 C 50.241,25.652 43.466,28.072 35.722,28.072 19.361,28.072 7.066,16.069 7.066,0 c 0,-16.071 12.295,-28.075 28.656,-28.075 7.744,0 14.519,2.421 20.038,8.132 l 4.551,-4.55 C 54.309,-31.074 45.401,-34.464 35.432,-34.464 15.103,-34.464 0,-19.847 0,0"
             style="fill:#857650;fill-opacity:1;fill-rule:nonzero;stroke:none"
             id="path98" /></g><g
           id="g100"
           transform="translate(544.3794,111.0992)"><path
             d="m 0,0 v 8.326 h -15.972 c -9.875,0 -13.069,-3.875 -13.069,-9.1 0,-5.906 4.744,-9.583 12.875,-9.583 C -8.422,-10.357 -2.71,-6.68 0,0 m 6.873,16.264 v -31.56 H 0.291 v 7.938 c -3.098,-5.226 -9.1,-8.422 -17.521,-8.422 -11.521,0 -18.587,6.002 -18.587,14.811 0,7.841 5.034,14.424 19.651,14.424 H 0 v 3.099 c 0,8.711 -4.937,13.455 -14.424,13.455 -6.582,0 -12.777,-2.323 -16.94,-6.002 l -3.098,5.13 c 5.131,4.356 12.681,6.874 20.716,6.874 13.166,0 20.619,-6.583 20.619,-19.747"
             style="fill:#857650;fill-opacity:1;fill-rule:nonzero;stroke:none"
             id="path102" /></g><g
           id="g104"
           transform="translate(654.9409,125.3297)"><path
             d="m 0,0 v -29.526 h -6.873 v 28.847 c 0,10.746 -5.422,16.264 -14.618,16.264 -10.455,0 -17.037,-6.777 -17.037,-18.394 v -26.717 h -6.874 v 28.847 c 0,10.746 -5.42,16.264 -14.713,16.264 -10.359,0 -17.038,-6.777 -17.038,-18.394 v -26.717 h -6.873 v 50.919 h 6.582 v -9.292 c 3.582,6.098 10.165,9.679 18.683,9.679 8.422,0 15.005,-3.581 18.103,-10.746 3.679,6.583 10.938,10.746 20.136,10.746 C -8.132,21.78 0,14.618 0,0"
             style="fill:#857650;fill-opacity:1;fill-rule:nonzero;stroke:none"
             id="path106" /></g><g
           id="g108"
           transform="translate(719.3315,121.2642)"><path
             d="m 0,0 c 0,11.81 -8.229,19.844 -18.973,19.844 -10.842,0 -18.974,-8.034 -18.974,-19.844 0,-11.909 8.132,-19.847 18.974,-19.847 C -8.229,-19.847 0,-11.909 0,0 m 6.874,0 c 0,-15.49 -10.843,-25.945 -25.363,-25.945 -8.132,0 -15.102,3.486 -19.362,10.067 v -28.363 h -6.872 v 69.699 h 6.582 V 15.391 c 4.162,6.777 11.229,10.455 19.652,10.455 C -3.969,25.846 6.874,15.391 6.874,0"
             style="fill:#857650;fill-opacity:1;fill-rule:nonzero;stroke:none"
             id="path110" /></g><g
           id="g112"
           transform="translate(780.9106,121.2642)"><path
             d="M 0,0 C 0,11.906 -8.034,19.844 -18.876,19.844 -29.719,19.844 -37.85,11.906 -37.85,0 c 0,-11.909 8.131,-19.847 18.974,-19.847 C -8.034,-19.847 0,-11.909 0,0 m -44.819,0 c 0,15.1 11.035,25.846 25.943,25.846 C -3.969,25.846 6.972,15.1 6.972,0 c 0,-15.103 -10.941,-25.945 -25.848,-25.945 -14.908,0 -25.943,10.842 -25.943,25.945"
             style="fill:#857650;fill-opacity:1;fill-rule:nonzero;stroke:none"
             id="path114" /></g><g
           id="g116"
           transform="translate(810.7378,152.7242)"><path
             d="M 0,0 V -6.002 H 15.683 V -11.81 H 0.193 v -45.111 h -6.872 v 45.111 h -9.1 v 5.808 h 9.1 V 0.29 c 0,9.101 5.42,15.103 15.392,15.103 3.774,0 7.646,-1.064 10.164,-3.194 L 16.554,7.067 C 14.617,8.713 11.907,9.585 9.002,9.585 3.098,9.585 0,6.292 0,0"
             style="fill:#857650;fill-opacity:1;fill-rule:nonzero;stroke:none"
             id="path118" /></g><g
           id="g120"
           transform="translate(870.0835,147.11)"><path
             d="m 0,0 v -6.681 c -0.582,0 -1.162,0.098 -1.646,0.098 -10.649,0 -17.134,-6.775 -17.134,-18.78 v -25.944 h -6.873 v 50.919 h 6.582 v -9.97 C -15.877,-3.581 -9.391,0 0,0"
             style="fill:#857650;fill-opacity:1;fill-rule:nonzero;stroke:none"
             id="path122" /></g><g
           id="g124"
           transform="translate(914.9106,111.0992)"><path
             d="m 0,0 v 8.326 h -15.973 c -9.875,0 -13.069,-3.875 -13.069,-9.1 0,-5.906 4.744,-9.583 12.876,-9.583 C -8.423,-10.357 -2.71,-6.68 0,0 m 6.872,16.264 v -31.56 H 0.29 v 7.938 c -3.098,-5.226 -9.099,-8.422 -17.521,-8.422 -11.52,0 -18.586,6.002 -18.586,14.811 0,7.841 5.033,14.424 19.651,14.424 H 0 v 3.099 c 0,8.711 -4.937,13.455 -14.424,13.455 -6.582,0 -12.778,-2.323 -16.94,-6.002 l -3.098,5.13 c 5.13,4.356 12.681,6.874 20.715,6.874 13.166,0 20.619,-6.583 20.619,-19.747"
             style="fill:#857650;fill-opacity:1;fill-rule:nonzero;stroke:none"
             id="path126" /></g><g
           id="g128"
           transform="translate(988.2983,125.3297)"><path
             d="m 0,0 v -29.526 h -6.873 v 28.847 c 0,10.746 -5.615,16.264 -15.295,16.264 -10.939,0 -17.812,-6.777 -17.812,-18.394 v -26.717 h -6.874 v 50.919 h 6.583 v -9.389 c 3.679,6.195 10.552,9.776 19.362,9.776 C -8.519,21.78 0,14.618 0,0"
             style="fill:#857650;fill-opacity:1;fill-rule:nonzero;stroke:none"
             id="path130" /></g><g
           id="g132"
           transform="translate(1003.022,121.2642)"><path
             d="m 0,0 c 0,15.196 11.036,25.846 26.233,25.846 8.617,0 15.877,-3.388 19.943,-10.068 l -5.131,-3.484 c -3.485,5.13 -8.905,7.55 -14.812,7.55 C 15.102,19.844 6.97,11.906 6.97,0 c 0,-12.006 8.132,-19.847 19.263,-19.847 5.907,0 11.327,2.324 14.812,7.455 l 5.131,-3.486 C 42.11,-22.459 34.85,-25.945 26.233,-25.945 11.036,-25.945 0,-15.199 0,0"
             style="fill:#857650;fill-opacity:1;fill-rule:nonzero;stroke:none"
             id="path134" /></g><g
           id="g136"
           transform="translate(1102.4497,121.2642)"><path
             d="m 0,0 c 0,11.906 -8.034,19.844 -18.876,19.844 -10.843,0 -18.975,-7.938 -18.975,-19.844 0,-11.909 8.132,-19.847 18.975,-19.847 C -8.034,-19.847 0,-11.909 0,0 m -44.82,0 c 0,15.1 11.035,25.846 25.944,25.846 C -3.969,25.846 6.971,15.1 6.971,0 c 0,-15.103 -10.94,-25.945 -25.847,-25.945 -14.909,0 -25.944,10.842 -25.944,25.945"
             style="fill:#857650;fill-opacity:1;fill-rule:nonzero;stroke:none"
             id="path138" /></g><g
           id="g140"
           transform="translate(951.5396,935.459)"><path
             d="m 0,0 c -0.282,-1.222 -0.61,-2.442 -0.979,-3.668 -1.185,-4.289 -2.612,-8.229 -4.243,-11.72 -0.04,-0.087 -0.086,-0.16 -0.126,-0.247 -16.448,12.8 -110.974,82.631 -188.769,61.455 C -116.086,73.656 -9.9,35.202 4.63,29.659 3.425,17.338 1.956,7.917 0,0 m -30.237,-38.119 c -0.462,-0.138 -0.941,-0.224 -1.408,-0.347 -10.796,10.757 -96.811,93.48 -169.947,75.301 -3.942,-0.981 -7.766,-2.259 -11.483,-3.797 5.005,2.703 10.216,4.999 15.686,6.771 76.557,24.802 176.063,-49.218 189.765,-59.823 -5.436,-9.423 -12.71,-15.237 -22.613,-18.105 m -9.568,-1.794 c -14.758,-1.39 -30.615,11.928 -48.986,27.415 -21.307,17.951 -47.821,40.291 -81.901,45.088 -9.38,1.309 -18.696,1.264 -28.216,-0.114 65.562,14.945 144.477,-55.879 161.49,-72.101 -0.786,-0.108 -1.577,-0.211 -2.387,-0.288 M -308.928,70.76 c -10.011,8.175 -22.43,11.924 -37.954,11.659 -13.277,-0.277 -27.518,-3.513 -41.468,-6.685 -16.45,-3.713 -33.46,-7.569 -48.953,-6.512 -17.02,1.127 -29.941,7.892 -40.656,21.288 -1.175,1.48 -2.246,3.089 -3.243,4.754 77.06,19.765 133.242,13.679 166.984,-18.136 3.068,-2.892 5.857,-5.957 8.441,-9.134 -0.12,0.113 -0.234,0.239 -0.355,0.353 -0.918,0.839 -1.86,1.657 -2.796,2.413 m -180.496,66.544 c 15.557,1.676 118.998,10.313 175.184,-47.732 11.155,-11.524 19.796,-24.962 25.915,-40.268 -5.446,11.365 -12.773,22.102 -22.555,31.33 -35.197,33.202 -93.289,39.595 -172.659,19.028 -0.027,0.059 -0.064,0.119 -0.09,0.178 -4.677,10.045 -6.644,22.95 -5.795,37.464 m 3.172,22.16 c 2.337,10.263 5.783,20.548 10.251,30.708 14.792,-2.282 118.255,-20.683 170.439,-94.759 10.354,-14.699 18.023,-30.713 23.119,-47.923 -6.402,17.383 -15.844,32.566 -28.333,45.464 -56.729,58.588 -159.557,51.159 -178.309,49.252 0.051,0.502 0.104,1.005 0.163,1.553 0.553,5.064 1.45,10.347 2.67,15.705 m 14.106,38.987 0.204,0.406 c 3.995,7.971 8.533,15.583 13.488,22.622 0.912,1.295 1.867,2.553 2.816,3.818 9.087,-2.321 57.066,-15.875 100.778,-52.926 23.917,-20.275 49.106,-50.049 64.285,-92.151 -3.295,6.188 -6.956,12.2 -11.047,18.006 -51.867,73.601 -152.878,93.342 -172.294,96.515 0.331,0.702 0.65,1.406 0.991,2.107 0.241,0.539 0.514,1.075 0.779,1.603 m 42.362,53.841 c 7.785,-2.609 51.61,-18.649 90.356,-60.55 26.49,-28.644 54.175,-73.747 62.219,-140.868 -12.608,59.83 -44.552,99.785 -74.52,125.189 -41.867,35.488 -87.675,49.835 -100.721,53.396 0.192,0.236 0.358,0.471 0.557,0.709 6.845,8.516 14.284,15.914 22.109,22.124 m 20.565,13.087 c 6.588,3.145 13.294,5.984 19.978,8.488 6.24,-3.827 42.193,-27.221 72.522,-75.385 20.824,-33.071 41.795,-82.791 44.802,-151.069 -7.543,70.706 -36.486,117.972 -64.122,147.795 -35.871,38.711 -76.034,55.762 -89.165,60.597 0.199,0.142 0.392,0.296 0.591,0.436 4.951,3.515 10.134,6.593 15.394,9.138 m 52.842,18.633 c 5.216,-3.374 34.74,-23.972 58.191,-71.619 16.126,-32.766 31.509,-83.252 30.604,-155.691 -4.434,64.777 -24.886,112.419 -45.186,144.588 -27.412,43.439 -59.407,67.126 -70.774,74.671 0.036,0.012 0.071,0.026 0.107,0.039 8.35,2.923 16.964,5.473 27.058,8.012 m 15.398,3.651 3.166,0.716 c 11.42,2.567 21.284,4.785 29.285,7.914 2.961,1.152 6.027,2.463 9.287,3.963 4.159,-7.809 19.776,-39.484 29.962,-92.191 7.373,-38.151 12.819,-92.936 6.297,-161.857 2.621,79.209 -13.805,133.809 -31.037,168.681 -20.845,42.186 -45.826,63.298 -56.054,70.688 3.121,0.736 6.164,1.426 9.094,2.086 m 68.183,26.914 0.269,0.161 c 7.484,4.458 13.508,8.026 19.301,10.015 3.554,-16.739 21.944,-116.536 -4.723,-276.66 6.244,68.511 0.758,123.057 -6.631,161.167 -10.192,52.578 -25.787,84.575 -30.284,93.073 0.619,0.3 1.255,0.6 1.859,0.903 7.939,3.999 14.744,8.072 20.209,11.341 m 44.995,6.647 c 11.736,-6.867 18.79,-28.498 19.864,-60.912 0,-0.005 0.003,-0.009 0.003,-0.013 0,-0.004 -0.002,-0.007 -0.002,-0.011 0.487,-11.27 -0.066,-22.798 -1.599,-35.376 -0.14,-0.538 -0.287,-1.081 -0.421,-1.618 -0.107,-0.429 -0.056,-0.846 0.059,-1.243 -4.436,-33.585 -15.73,-74.95 -33.217,-138.973 -3.276,-11.993 -6.803,-24.906 -10.559,-38.78 27.631,163.307 8.673,265.113 5.124,281.727 6.648,1.21 13.046,-0.27 20.748,-4.801 m 60.676,-14.227 c 2.444,1.789 4.747,2.394 7.226,1.881 2.24,-0.464 4.206,-1.021 6.067,-1.677 -2.794,-27.466 -27.863,-90.636 -54.385,-157.452 -13.168,-33.175 -27.126,-68.35 -39.501,-101.985 3.276,12.076 6.377,23.43 9.275,34.038 17.982,65.835 29.451,107.843 33.68,142.223 9.503,36.353 31.955,78.885 37.638,82.972 m 46.555,-33.408 c -11.332,-26.219 -29.961,-58.06 -51.5,-94.862 -22.118,-37.789 -47.139,-80.549 -68.199,-124.785 11.61,31.174 24.417,63.449 36.552,94.02 27.32,68.826 51.047,128.618 54.542,157.322 12.404,-5.974 20.022,-17.384 28.605,-31.695 m 31.582,-46.295 0.472,-0.527 c 0.335,-0.376 0.669,-0.75 0.986,-1.08 0.227,-0.247 0.458,-0.471 0.686,-0.712 -13.98,-10.721 -91.382,-72.605 -146.815,-168.456 20.502,42.41 44.482,83.399 65.766,119.764 20.759,35.466 38.828,66.346 50.371,92.2 7.435,-12.535 15.866,-26.736 28.534,-41.189 m 50.022,-34.939 c -13.539,-2.813 -51.218,-12.561 -93.691,-40.275 -29.863,-19.487 -65.923,-50.583 -97.317,-98.844 55.795,96.942 134.492,159.079 146.587,168.291 8.89,-8.405 17.875,-13.392 26.604,-18.197 5.901,-3.245 12,-6.601 17.817,-10.975 m 26.733,-32.945 c 3.541,-6.702 6.676,-13.341 9.331,-19.764 0.198,-0.465 0.37,-0.937 0.559,-1.403 -14.032,1.395 -62.253,4.389 -115.095,-12.914 -32.725,-10.717 -71.074,-30.675 -103.783,-67.698 29.753,43.506 63.122,72.034 90.998,90.256 47.643,31.143 89.051,39.269 96.167,40.485 8.28,-7.269 15.247,-16.496 21.823,-28.962 M -205.553,54.386 c -6.1,-3.544 -11.823,-7.501 -17.249,-11.776 25.715,24.1 59.866,41.06 102.336,50.684 C -60.051,106.99 -2.474,100.367 8.3,98.921 8.328,98.685 8.359,98.463 8.386,98.218 8.424,97.989 8.464,97.741 8.49,97.448 9.979,84.137 9.192,72.767 8.179,63.332 c -19.406,5.9 -133.744,37.519 -213.732,-8.946 M -0.4,133.166 c 3.722,-9.958 6.397,-19.78 7.949,-29.266 -13.929,1.756 -70.088,7.462 -128.956,-5.854 -32.769,-7.412 -69.888,-21.678 -100.541,-48.735 32.923,39.511 72.386,60.377 105.839,71.359 55.989,18.384 106.667,13.566 115.709,12.496 M -216.733,40.877 c -0.653,-0.367 -1.269,-0.775 -1.913,-1.153 4.902,3.782 10.051,7.295 15.509,10.466 C -123.479,96.475 -8.313,63.375 7.63,58.438 7.522,57.534 7.409,56.636 7.296,55.75 L 7.006,53.424 C 6.429,48.718 5.884,44.274 5.523,39.823 L 5.371,37.977 C 5.281,36.879 5.184,35.778 5.079,34.662 -15.683,42.428 -138.258,85.038 -216.733,40.877 M 13.308,97.92 c -0.032,0.36 -0.089,0.75 -0.128,0.955 -0.093,0.88 -0.23,1.754 -0.354,2.631 -0.011,0.058 -0.008,0.119 -0.023,0.177 -0.072,0.495 -0.122,0.995 -0.2,1.487 -1.614,10.608 -4.615,21.639 -8.863,32.784 -0.009,0.037 -0.027,0.068 -0.038,0.106 -0.116,0.303 -0.208,0.605 -0.326,0.908 -0.576,1.525 -1.175,3.05 -1.814,4.551 -2.703,6.538 -5.904,13.319 -9.515,20.151 -7.129,13.516 -14.734,23.449 -23.93,31.254 -1.347,1.149 -2.724,2.248 -4.092,3.262 -0.066,0.047 -0.134,0.092 -0.204,0.135 -6.053,4.534 -12.264,7.947 -18.299,11.266 -8.853,4.872 -18.007,9.914 -26.848,18.638 -0.883,0.884 -1.766,1.792 -2.675,2.776 -0.308,0.321 -0.603,0.654 -0.904,0.99 l -0.472,0.525 c -12.375,14.123 -20.697,28.155 -28.072,40.589 l -1.331,2.236 c -0.532,0.903 -1.057,1.791 -1.576,2.638 -9.189,15.327 -17.335,27.564 -31.425,34.043 -0.775,0.355 -1.517,0.621 -2.27,0.916 -0.128,0.075 -0.268,0.116 -0.411,0.167 -0.373,0.142 -0.761,0.328 -1.131,0.456 -2.211,0.82 -4.607,1.494 -7.332,2.061 -3.821,0.776 -7.537,-0.139 -11.044,-2.709 -5.683,-4.085 -21.978,-33.839 -33.06,-65.013 0.153,4.933 0.137,9.772 -0.069,14.57 v 0.002 c -1.148,34.63 -8.845,57.084 -22.253,64.929 -8.653,5.092 -16.296,6.803 -24.11,5.378 l -1.117,-0.222 c -0.438,-0.092 -0.856,-0.228 -1.287,-0.341 -0.055,-0.009 -0.107,0.006 -0.161,-0.007 -0.063,-0.015 -0.108,-0.06 -0.168,-0.081 -0.361,-0.099 -0.735,-0.172 -1.082,-0.285 -6.746,-2.021 -13.358,-5.96 -21.729,-10.947 l -0.272,-0.161 c -5.402,-3.233 -12.124,-7.257 -19.899,-11.171 -1.107,-0.553 -2.24,-1.109 -3.432,-1.669 -4.204,-2.002 -8.022,-3.669 -11.68,-5.092 -7.662,-2.997 -17.359,-5.176 -28.591,-7.701 l -3.165,-0.716 c -3.255,-0.733 -6.632,-1.494 -10.155,-2.336 l -1.949,-0.484 c -0.813,-0.2 -1.63,-0.402 -2.438,-0.612 -0.002,-0.001 -0.003,-0.002 -0.005,-0.002 -0.097,-0.025 -0.198,-0.048 -0.296,-0.074 -10.518,-2.628 -19.464,-5.269 -28.137,-8.307 -1.441,-0.496 -2.88,-1.021 -4.298,-1.555 -7.335,-2.687 -14.731,-5.805 -21.993,-9.273 -5.514,-2.669 -10.932,-5.884 -16.087,-9.545 -1.255,-0.877 -2.511,-1.808 -3.731,-2.754 -8.719,-6.68 -16.972,-14.837 -24.502,-24.205 -0.908,-1.085 -1.767,-2.198 -2.578,-3.281 -0.121,-0.156 -0.232,-0.32 -0.352,-0.477 -0.024,-0.031 -0.046,-0.061 -0.068,-0.092 -1.288,-1.681 -2.548,-3.376 -3.78,-5.123 -5.093,-7.236 -9.755,-15.053 -13.858,-23.241 l -0.201,-0.397 c -0.296,-0.591 -0.599,-1.196 -0.838,-1.728 -6.132,-12.576 -10.73,-25.482 -13.662,-38.362 -1.261,-5.539 -2.19,-11.006 -2.779,-16.41 -0.145,-1.336 -0.287,-2.648 -0.355,-3.877 -1.329,-16.366 0.777,-31.046 6.076,-42.427 0.558,-1.239 1.198,-2.511 1.905,-3.785 1.299,-2.319 2.771,-4.519 4.38,-6.548 11.629,-14.537 25.649,-21.877 44.119,-23.101 16.199,-1.095 33.556,2.827 50.527,6.664 13.536,3.077 27.532,6.259 40.318,6.524 14.344,0.276 25.711,-3.151 34.8,-10.574 0.869,-0.702 1.736,-1.453 2.564,-2.212 14.057,-13.091 22.362,-35.256 25.39,-67.766 0.975,-10.379 1.435,-22.03 1.408,-35.627 0,-2.111 -0.026,-4.271 -0.073,-6.462 0,-0.705 0,-1.414 -0.026,-2.17 -0.021,-1.75 -0.066,-3.475 -0.111,-5.222 l -0.01,-0.388 c -0.024,-1.132 -0.049,-2.24 -0.098,-3.477 0,-0.196 0.003,-0.39 -0.025,-0.808 l 0.005,-0.211 -0.054,-1.257 c 0,-0.525 -0.023,-1.026 -0.05,-1.641 0,-0.116 0.006,-0.22 -0.005,-0.324 -0.012,-0.094 -0.018,-0.191 -0.018,-0.288 l 0.007,-0.057 -0.05,-0.955 c -0.002,-0.033 -0.009,-0.212 -0.01,-0.245 -0.047,-1.36 -0.093,-2.74 -0.163,-4.1 -0.004,-0.059 -0.005,-0.118 -0.004,-0.174 v -0.048 c 0,-0.194 0.004,-0.368 -0.023,-0.709 -0.049,-1.553 -0.122,-3.106 -0.194,-4.635 l -0.583,-11.706 c -22.487,-188.688 -16.585,-305.355 -16.523,-306.512 0.069,-1.29 1.139,-2.29 2.415,-2.29 0.043,0 0.087,0 0.132,0.002 1.335,0.073 2.359,1.213 2.287,2.549 -0.061,1.153 -5.932,117.459 16.495,305.67 0.383,1.931 0.789,3.867 1.217,5.801 0.006,0.026 0.011,0.051 0.016,0.078 0.004,0.018 0.007,0.035 0.011,0.052 0.289,1.331 0.578,2.633 0.923,4.077 0.083,0.459 0.187,0.917 0.313,1.357 0.028,0.102 0.05,0.211 0.065,0.321 0.05,0.244 0.11,0.478 0.171,0.722 0.009,0.032 0.068,0.269 0.075,0.304 0.117,0.57 0.252,1.123 0.389,1.688 l 0.077,0.312 c 0.002,0.01 0.005,0.019 0.007,0.029 0.042,0.123 0.079,0.276 0.109,0.432 l 0.002,-0.002 c 0.131,0.567 0.262,1.135 0.494,1.936 0.084,0.416 0.188,0.832 0.362,1.437 0.061,0.288 0.122,0.556 0.239,0.976 0.093,0.418 0.204,0.818 0.317,1.229 l 0.077,0.274 c 0.631,2.381 1.288,4.74 1.963,7.085 0.237,0.804 0.472,1.584 0.732,2.361 0.037,0.109 0.065,0.22 0.087,0.334 0.022,0.066 0.044,0.132 0.061,0.2 0.177,0.696 0.403,1.365 0.654,2.123 0.361,1.177 0.721,2.333 1.113,3.506 0.985,3.032 2.029,5.989 3.196,9.06 0.316,0.851 0.631,1.7 0.85,2.305 0.029,0.059 0.061,0.132 0.091,0.21 0.06,0.125 0.136,0.308 0.204,0.518 0.227,0.567 0.454,1.134 0.686,1.695 0.58,1.42 1.157,2.822 1.764,4.205 1.938,4.458 3.823,8.384 5.759,11.992 0.082,0.13 0.153,0.264 0.212,0.404 h 0.002 c 0.057,0.106 0.114,0.217 0.298,0.515 2.47,4.59 5.172,8.931 8.033,12.904 9.041,12.646 19.627,21.539 31.471,26.439 2.743,1.139 5.631,2.09 8.58,2.823 12.792,3.169 24.999,3.869 37.315,2.153 32.697,-4.602 57.537,-25.531 79.452,-43.995 19.207,-16.187 35.798,-30.196 52.568,-28.531 2.149,0.201 4.244,0.51 6.201,0.915 0.417,0.08 0.828,0.212 1.246,0.306 0.167,0.033 0.333,0.053 0.491,0.121 0.851,0.201 1.71,0.376 2.539,0.624 11.638,3.374 20.289,10.685 26.415,22.188 0.1,0.174 0.219,0.341 0.271,0.528 0.452,0.869 0.926,1.703 1.349,2.62 1.741,3.727 3.262,7.923 4.505,12.419 0.382,1.272 0.736,2.595 1.034,3.882 2.014,8.15 3.525,17.835 4.758,30.493 l 0.118,1.266 c 0.092,0.949 0.184,1.908 0.246,2.797 0.137,1.371 0.251,2.756 0.365,4.153 l 0.153,1.839 c 0.353,4.364 0.892,8.761 1.462,13.415 l 0.289,2.302 c 0.125,0.976 0.251,1.969 0.368,2.974 l 0.443,3.902 c 1.081,9.85 1.974,21.828 0.398,35.906"
             style="fill:#857650;fill-opacity:1;fill-rule:nonzero;stroke:none"
             id="path142" /></g></g></g></g></svg>
