<?xml version="1.0" encoding="UTF-8" standalone="no"?>
<svg
   xmlns:dc="http://purl.org/dc/elements/1.1/"
   xmlns:cc="http://creativecommons.org/ns#"
   xmlns:rdf="http://www.w3.org/1999/02/22-rdf-syntax-ns#"
   xmlns:svg="http://www.w3.org/2000/svg"
   xmlns="http://www.w3.org/2000/svg"
   xmlns:sodipodi="http://sodipodi.sourceforge.net/DTD/sodipodi-0.dtd"
   xmlns:inkscape="http://www.inkscape.org/namespaces/inkscape"
   version="1.1"
   id="svg2"
   xml:space="preserve"
   width="1115.176"
   height="775.54132"
   viewBox="0 0 1115.176 775.54132"
   sodipodi:docname="OberrauchZitt.ai"><metadata
     id="metadata8"><rdf:RDF><cc:Work
         rdf:about=""><dc:format>image/svg+xml</dc:format><dc:type
           rdf:resource="http://purl.org/dc/dcmitype/StillImage" /></cc:Work></rdf:RDF></metadata><defs
     id="defs6"><clipPath
       clipPathUnits="userSpaceOnUse"
       id="clipPath18"><path
         d="M 0,581.656 H 836.382 V 0 H 0 Z"
         id="path16" /></clipPath></defs><sodipodi:namedview
     pagecolor="#ffffff"
     bordercolor="#666666"
     borderopacity="1"
     objecttolerance="10"
     gridtolerance="10"
     guidetolerance="10"
     inkscape:pageopacity="0"
     inkscape:pageshadow="2"
     inkscape:window-width="640"
     inkscape:window-height="480"
     id="namedview4" /><g
     id="g10"
     inkscape:groupmode="layer"
     inkscape:label="OberrauchZitt"
     transform="matrix(1.3333333,0,0,-1.3333333,0,775.54133)"><g
       id="g12"><g
         id="g14"
         clip-path="url(#clipPath18)"><g
           id="g20"
           transform="translate(121.3985,92.8535)"><path
             d="m 0,0 c -0.598,-2.911 -1.521,-5.445 -2.768,-7.601 -1.248,-2.159 -2.821,-3.86 -4.717,-5.108 -1.898,-1.246 -4.12,-1.87 -6.666,-1.87 -2.913,0 -5.471,0.74 -7.68,2.221 -2.211,1.483 -4.068,3.457 -5.575,5.926 -1.508,2.468 -2.64,5.315 -3.392,8.538 -0.755,3.222 -1.13,6.601 -1.13,10.136 0,3.326 0.311,6.443 0.935,9.356 0.624,2.909 1.559,5.431 2.807,7.563 1.247,2.131 2.819,3.82 4.718,5.068 1.896,1.248 4.143,1.872 6.743,1.872 2.859,0 5.392,-0.743 7.603,-2.223 2.209,-1.483 4.054,-3.459 5.535,-5.926 1.481,-2.47 2.598,-5.315 3.352,-8.537 C 0.518,16.192 0.897,12.838 0.897,9.357 0.897,6.03 0.596,2.911 0,0 m 4.56,31.577 c -2.339,2.443 -5.146,4.353 -8.42,5.731 -3.274,1.377 -6.889,2.067 -10.837,2.067 -9.774,-1.716 -16.934,-4.991 -21.48,-9.824 C -40.727,24.716 -43,18.062 -43,9.591 c 0,-3.952 0.636,-7.603 1.91,-10.955 1.274,-3.352 3.08,-6.251 5.419,-8.693 2.339,-2.443 5.146,-4.355 8.421,-5.731 3.275,-1.377 6.912,-2.067 10.916,-2.067 9.718,1.716 16.866,4.991 21.44,9.824 4.574,4.835 6.861,11.488 6.861,19.961 0,3.949 -0.65,7.602 -1.948,10.954 -1.3,3.352 -3.12,6.249 -5.459,8.693"
             style="fill:#004b2c;fill-opacity:1;fill-rule:nonzero;stroke:none"
             id="path22" /></g><g
           id="g24"
           transform="translate(171.8432,86.8892)"><path
             d="M 0,0 C -0.443,-1.587 -1.157,-2.989 -2.145,-4.211 -3.133,-5.433 -4.419,-6.42 -6.004,-7.172 -7.591,-7.926 -9.551,-8.303 -11.89,-8.303 l -6.083,0.545 v 24.716 h 7.096 c 3.43,0 6.211,-1.053 8.341,-3.158 C -0.403,11.696 0.662,8.719 0.662,4.873 0.662,3.21 0.44,1.585 0,0 m -17.973,41.517 h 6.861 c 2.963,0 5.198,-0.915 6.707,-2.747 1.506,-1.832 2.26,-4.246 2.26,-7.238 0,-1.703 -0.222,-3.292 -0.663,-4.764 -0.442,-1.47 -1.08,-2.747 -1.91,-3.832 -0.833,-1.084 -1.858,-1.936 -3.08,-2.554 -1.221,-0.619 -2.586,-0.928 -4.092,-0.928 h -6.083 z M 6.47,14.581 c -1.481,1.22 -3.352,2.182 -5.613,2.884 -2.261,0.703 -4.925,1.052 -7.993,1.052 2.185,0.261 4.211,0.78 6.083,1.56 1.872,0.779 3.469,1.754 4.795,2.924 1.326,1.169 2.365,2.521 3.119,4.054 0.753,1.533 1.13,3.184 1.13,4.951 0,1.507 -0.311,2.989 -0.935,4.444 -0.624,1.454 -1.549,2.742 -2.769,3.86 -1.221,1.117 -2.768,2.014 -4.638,2.69 -1.872,0.674 -4.054,1.013 -6.55,1.013 H -22.884 -33.8 l -0.234,-2.047 6.159,-0.76 V -7.68 l -6.159,-0.834 0.234,-2.05 h 10.681 13.49 c 3.013,0.311 5.781,0.83 8.303,1.558 2.52,0.729 4.691,1.728 6.51,3.003 1.82,1.273 3.222,2.845 4.211,4.717 0.987,1.872 1.48,4.054 1.48,6.548 0,1.82 -0.363,3.521 -1.091,5.108 -0.728,1.585 -1.832,2.989 -3.314,4.211"
             style="fill:#004b2c;fill-opacity:1;fill-rule:nonzero;stroke:none"
             id="path26" /></g><g
           id="g28"
           transform="translate(223.8868,79.0532)"><path
             d="m 0,0 h -20.428 v 24.561 h 10.604 l 3.352,-8.889 h 2.183 l -0.389,10.37 0.389,10.135 h -2.183 l -3.352,-8.966 h -10.604 v 21.91 h 19.804 l 4.99,-11.7 H 6.548 L 6.159,51.849 h -31.655 -10.759 l -0.235,-2.183 6.159,-0.81 v -48.7 l -6.159,-0.834 0.235,-2.05 H -25.574 6.237 L 7.563,12.163 H 5.302 Z"
             style="fill:#004b2c;fill-opacity:1;fill-rule:nonzero;stroke:none"
             id="path30" /></g><g
           id="g32"
           transform="translate(258.425,104.3146)"><path
             d="m 0,0 h -4.522 v 23.859 l 6.394,0.468 c 2.911,0 5.34,-0.993 7.29,-2.972 1.95,-1.983 2.923,-4.903 2.923,-8.761 0,-3.755 -1.079,-6.793 -3.234,-9.113 C 6.692,1.161 3.743,0 0,0 m 13.1,-4.902 -9.122,2.954 c 2.598,0.413 5.04,1.011 7.328,1.788 2.288,0.777 4.288,1.775 6.003,2.993 1.715,1.218 3.067,2.669 4.054,4.355 0.988,1.684 1.483,3.641 1.483,5.87 0,2.385 -0.455,4.432 -1.364,6.142 -0.911,1.71 -2.133,3.111 -3.666,4.2 -1.534,1.088 -3.326,1.891 -5.38,2.409 -2.054,0.52 -4.197,0.778 -6.432,0.778 H -9.59 -20.349 l -0.234,-2.047 6.159,-0.759 v -48.886 l -6.159,-0.834 0.234,-2.051 H -9.511 1.015 l 0.233,2.026 -5.77,0.859 v 22.533 h 4.678 l 0.781,-0.855 14.97,-24.563 h 6.002 7.563 l 0.157,2.099 -3.744,0.855 z"
             style="fill:#004b2c;fill-opacity:1;fill-rule:nonzero;stroke:none"
             id="path34" /></g><g
           id="g36"
           transform="translate(355.7276,97.6882)"><path
             d="M 0,0 8.889,25.807 10.526,19.335 16.998,0 Z m -42.805,6.626 h -4.522 v 23.86 l 6.393,0.467 c 2.911,0 5.341,-0.992 7.291,-2.972 1.95,-1.983 2.923,-4.902 2.923,-8.76 0,-3.756 -1.079,-6.794 -3.234,-9.114 -2.159,-2.32 -5.108,-3.481 -8.851,-3.481 m 58.164,27.601 -7.094,-2.415 -18.4,-50.369 -3.754,-0.544 -3.031,0.692 -12.785,20.133 -9.122,2.954 c 2.598,0.414 5.04,1.012 7.328,1.789 2.287,0.776 4.288,1.774 6.003,2.992 1.715,1.218 3.067,2.67 4.054,4.355 0.987,1.684 1.483,3.641 1.483,5.871 0,2.384 -0.456,4.431 -1.365,6.141 -0.91,1.71 -2.132,3.111 -3.665,4.201 -1.534,1.088 -3.326,1.89 -5.38,2.408 -2.054,0.52 -4.197,0.779 -6.432,0.779 h -15.594 -10.759 l -0.234,-2.047 6.159,-0.76 v -48.886 l -6.159,-0.834 0.234,-2.05 h 10.838 10.526 l 0.233,2.026 -5.77,0.858 V 4.054 h 4.678 l 0.781,-0.855 14.969,-24.562 h 6.003 5.615 1.948 5.302 7.953 l 0.156,2.05 -6.472,0.834 5.537,15.827 h 18.79 l 5.38,-15.827 -6.239,-0.834 0.157,-2.05 h 10.682 11.616 l 0.157,2.102 -5.457,0.779 z"
             style="fill:#004b2c;fill-opacity:1;fill-rule:nonzero;stroke:none"
             id="path38" /></g><g
           id="g40"
           transform="translate(437.671,130.9021)"><path
             d="m 0,0 h -8.265 l -0.155,-2.047 6.237,-0.76 v -33.214 c 0,-4.73 -1.119,-8.512 -3.352,-11.344 -2.237,-2.835 -5.354,-4.249 -9.357,-4.249 -2.182,0 -4.106,0.375 -5.769,1.129 -1.665,0.755 -3.054,1.806 -4.171,3.158 -1.119,1.352 -1.964,2.975 -2.534,4.873 -0.574,1.898 -0.859,4.016 -0.859,6.355 v 33.292 l 5.927,0.781 L -22.533,0 h -10.994 -10.681 l -0.156,-2.047 6.082,-0.76 v -32.668 c 0,-3.067 0.39,-5.848 1.17,-8.343 0.779,-2.494 2.026,-4.639 3.742,-6.432 1.715,-1.794 3.938,-3.184 6.666,-4.171 2.728,-0.987 6.017,-1.482 9.862,-1.482 3.794,0.78 6.914,1.805 9.357,3.079 2.443,1.274 4.367,2.769 5.77,4.484 1.404,1.715 2.377,3.637 2.925,5.77 0.545,2.13 0.818,4.443 0.818,6.939 V -2.807 L 8.031,-2.047 7.874,0 Z"
             style="fill:#004b2c;fill-opacity:1;fill-rule:nonzero;stroke:none"
             id="path42" /></g><g
           id="g44"
           transform="translate(490.0656,82.7183)"><path
             d="M 0,0 C -1.196,-1.197 -2.69,-2.261 -4.484,-3.198 -6.275,-4.133 -8.317,-4.6 -10.603,-4.6 c -3.171,0 -5.954,0.714 -8.343,2.144 -2.391,1.429 -4.38,3.353 -5.964,5.77 -1.587,2.416 -2.781,5.196 -3.587,8.342 -0.807,3.144 -1.208,6.458 -1.208,9.94 0,4.107 0.453,7.72 1.364,10.839 0.909,3.118 2.169,5.73 3.782,7.835 1.611,2.106 3.521,3.691 5.729,4.756 2.209,1.065 4.588,1.599 7.134,1.599 2.963,0 5.381,-0.52 7.252,-1.559 1.872,-1.041 3.403,-2.21 4.6,-3.509 l 4.055,-9.591 h 2.885 v 12.709 c -2.183,1.196 -4.795,2.301 -7.836,3.314 -3.042,1.013 -6.51,1.521 -10.41,1.521 -4.47,-0.522 -8.536,-1.509 -12.202,-2.963 -3.663,-1.457 -6.782,-3.419 -9.356,-5.886 -2.572,-2.47 -4.56,-5.419 -5.964,-8.85 -1.403,-3.43 -2.105,-7.408 -2.105,-11.93 0,-4.522 0.78,-8.498 2.339,-11.929 1.559,-3.43 3.637,-6.315 6.237,-8.654 2.598,-2.339 5.601,-4.093 9.006,-5.262 3.404,-1.17 6.951,-1.756 10.643,-1.756 3.898,0.418 7.406,1.106 10.526,2.067 3.117,0.961 6.028,2.04 8.731,3.236 L 7.641,10.681 H 4.757 Z"
             style="fill:#004b2c;fill-opacity:1;fill-rule:nonzero;stroke:none"
             id="path46" /></g><g
           id="g48"
           transform="translate(557.9741,128.8758)"><path
             d="m 0,0 -0.235,2.026 h -10.68 -10.681 L -21.831,0 -15.905,-0.78 V -22.846 H -38.673 V -0.78 l 5.77,0.78 -0.233,2.026 h -10.526 -10.837 l -0.235,-2.047 6.159,-0.759 v -48.886 l -6.159,-0.834 0.235,-2.051 h 10.837 10.526 l 0.233,2.026 -5.77,0.859 v 24.013 h 22.768 v -24.013 l -5.926,-0.859 0.235,-2.026 h 10.681 10.68 L 0,-50.5 -6.004,-49.666 V -0.78 Z"
             style="fill:#004b2c;fill-opacity:1;fill-rule:nonzero;stroke:none"
             id="path50" /></g><g
           id="g52"
           transform="translate(627.9889,128.801)"><path
             d="M 0,0 -0.389,2.101 H -39.296 V -12.74 h 2.417 l 5.302,12.113 h 20.974 l -2.261,-2.254 -28.77,-47.263 0.389,-2.332 H -1.402 L 0,-37.048 h -2.494 l -6.393,-12.7 h -22.222 l 2.182,2.179 z"
             style="fill:#004b2c;fill-opacity:1;fill-rule:nonzero;stroke:none"
             id="path54" /></g><g
           id="g56"
           transform="translate(656.057,128.8549)"><path
             d="M 0,0 -0.156,2.047 H -11.072 -21.909 L -22.144,0 l 6.159,-0.759 v -48.886 l -6.159,-0.76 0.235,-2.125 h 10.837 10.916 l 0.156,2.125 -6.082,0.76 v 48.886 z"
             style="fill:#004b2c;fill-opacity:1;fill-rule:nonzero;stroke:none"
             id="path58" /></g><g
           id="g60"
           transform="translate(661.3575,130.9021)"><path
             d="M 0,0 V -15.126 H 2.183 L 7.096,-2.65 h 10.213 v -49.043 l -7.874,-0.834 0.156,-2.05 h 12.631 12.553 l 0.156,2.05 -7.72,0.834 V -2.65 h 10.136 l 4.912,-12.476 h 2.183 L 44.442,0 H 22.377 Z"
             style="fill:#004b2c;fill-opacity:1;fill-rule:nonzero;stroke:none"
             id="path62" /></g><g
           id="g64"
           transform="translate(710.1652,130.9021)"><path
             d="M 0,0 V -15.126 H 2.183 L 7.096,-2.65 h 10.213 v -49.043 l -7.874,-0.834 0.156,-2.05 h 12.631 12.552 l 0.157,2.05 -7.72,0.834 V -2.65 h 10.135 l 4.913,-12.476 h 2.183 V 0 H 22.377 Z"
             style="fill:#004b2c;fill-opacity:1;fill-rule:nonzero;stroke:none"
             id="path66" /></g><g
           id="g68"
           transform="translate(418.072,457.7986)"><path
             d="M 0,0 C 32.24,0 60.367,-9.095 82.41,-20.261 60.82,-9.431 31.713,-2.791 0,-2.791 c -31.713,0 -60.82,-6.64 -82.41,-17.47 C -60.367,-9.095 -32.24,0 0,0 m 62.562,-33.346 -7.208,6.972 7.208,4.213 7.209,-6.972 z m -36.088,14.159 8.38,4.897 8.379,-8.106 -8.379,-4.897 z m -38.846,1.554 12.451,9.661 12.45,-9.661 -12.45,-9.66 z m -30.861,-4.763 8.379,8.106 8.38,-4.897 -8.38,-8.106 z m 43.312,-12.64 c -24.723,0 -47.164,-2.08 -65.753,-9.829 21.322,9.203 40.619,12.005 65.753,12.005 25.133,0 44.273,-2.802 65.595,-12.005 -18.589,7.749 -40.872,9.829 -65.595,9.829 m -69.85,5.903 7.209,6.972 7.207,-4.213 -7.207,-6.972 z m -42.598,33.409 c -1.312,-2.953 -1.144,-6.484 0.799,-9.359 2.944,-4.357 8.801,-5.537 13.212,-2.739 l 0.014,-0.024 31.028,-43.244 c 20.626,6.212 43.374,8.919 67.43,8.919 24.055,0 46.977,-2.707 67.603,-8.919 l 30.933,42.993 0.021,0.041 c 4.357,-2.462 9.93,-1.245 12.78,2.973 1.941,2.875 2.11,6.406 0.799,9.359 0.977,0.669 1.857,1.512 2.56,2.553 2.997,4.436 1.83,10.462 -2.606,13.459 -4.436,2.997 -10.463,1.83 -13.459,-2.606 -0.605,-0.896 -0.997,-1.864 -1.27,-2.852 -0.146,0.111 -0.265,0.246 -0.42,0.35 -4.437,2.997 -10.462,1.83 -13.459,-2.606 -2.997,-4.436 -1.83,-10.462 2.606,-13.459 0.16,-0.108 0.334,-0.171 0.498,-0.268 L 67.097,-4.969 56.945,28.747 15.88,6.227 6.497,16.582 c 0,0 0.004,0.022 0.006,0.033 1.004,-0.352 2.066,-0.581 3.191,-0.581 5.354,0 9.694,4.34 9.694,9.694 0,5.354 -4.34,9.694 -9.694,9.694 -0.187,0 -0.361,-0.045 -0.545,-0.055 0.327,0.971 0.545,1.993 0.545,3.074 0,5.353 -4.34,9.693 -9.694,9.693 -5.353,0 -9.694,-4.34 -9.694,-9.693 0,-1.081 0.218,-2.103 0.545,-3.074 -0.184,0.01 -0.358,0.055 -0.545,0.055 -5.354,0 -9.693,-4.34 -9.693,-9.694 0,-5.354 4.339,-9.694 9.693,-9.694 1.125,0 2.187,0.229 3.191,0.581 0.003,-0.014 0.006,-0.028 0.008,-0.043 L -17.016,6.227 -56.945,28.747 -69.633,-4.998 -86.322,-0.885 c 4.436,2.997 5.603,9.023 2.607,13.459 -2.997,4.436 -9.023,5.603 -13.459,2.606 -0.155,-0.104 -0.274,-0.239 -0.421,-0.35 -0.272,0.988 -0.664,1.956 -1.27,2.852 -2.996,4.436 -9.023,5.603 -13.458,2.606 -4.436,-2.997 -5.603,-9.023 -2.607,-13.459 0.703,-1.041 1.584,-1.884 2.561,-2.553"
             style="fill:#004b2c;fill-opacity:1;fill-rule:nonzero;stroke:none"
             id="path70" /></g><g
           id="g72"
           transform="translate(414.4655,297.4872)"><path
             d="m 0,0 v -34.016 c -1.839,-0.377 -3.587,-0.824 -5.242,-1.338 -3.321,-1.034 -6.159,-2.4 -8.512,-4.097 -2.353,-1.698 -4.175,-3.755 -5.465,-6.172 -1.294,-2.417 -1.939,-5.25 -1.939,-8.497 0,-3.211 0.703,-6.043 2.111,-8.497 1.407,-2.455 3.274,-4.512 5.606,-6.173 2.327,-1.661 5.016,-2.915 8.059,-3.764 3.045,-0.848 6.205,-1.273 9.481,-1.273 1.661,0.185 3.31,0.443 4.947,0.774 1.637,0.333 3.218,0.683 4.741,1.052 1.522,0.369 2.941,0.756 4.255,1.163 1.315,0.405 2.456,0.793 3.425,1.162 l 1.591,8.858 h -4.151 l -3.598,-6.311 c -1.063,-0.775 -2.353,-1.532 -3.875,-2.27 -1.523,-0.738 -3.369,-1.107 -5.536,-1.107 -2.768,0 -5.237,0.499 -7.404,1.495 -2.168,0.996 -4.003,2.325 -5.502,3.985 -1.499,1.661 -2.64,3.571 -3.425,5.73 -0.785,2.159 -1.175,4.382 -1.175,6.671 0,2.62 0.403,4.945 1.21,6.974 0.807,2.029 1.926,3.737 3.356,5.121 1.43,1.384 3.137,2.436 5.122,3.155 1.982,0.72 4.151,1.08 6.504,1.08 1.428,0 2.722,-0.121 3.874,-0.36 1.153,-0.24 2.191,-0.554 3.114,-0.941 0.923,-0.388 1.719,-0.812 2.387,-1.273 0.669,-0.462 1.234,-0.913 1.695,-1.357 l 2.215,-5.259 h 4.29 v 8.36 c -0.83,0.442 -1.812,0.894 -2.94,1.355 -1.132,0.462 -2.4,0.895 -3.806,1.301 -1.408,0.406 -2.918,0.739 -4.533,0.997 -1.405,0.224 -2.87,0.333 -4.379,0.362 V 0 H 89.003 V 0.001 L 89.004,0 104.408,-1.931 95.753,6.593 89.003,4.662 V 4.663 H 6.501 v 7.228 h 72.023 l 14.699,-2.21 -8.655,8.525 -6.647,-2.21 H 6.501 V 57.634 L 9.55,68.545 -3.043,63.075 0,57.262 V 15.996 h -70.915 l -6.647,2.21 -8.654,-8.525 14.698,2.21 H 0 V 4.663 H -82.502 V 4.662 L -89.251,6.593 -97.906,-1.931 -82.502,0 Z"
             style="fill:#004b2c;fill-opacity:1;fill-rule:nonzero;stroke:none"
             id="path74" /></g><g
           id="g76"
           transform="translate(228.9764,374.2103)"><path
             d="M 0,0 C 20.131,-3.175 17.395,7.514 17.395,7.514 10.803,2.496 0.51,7.287 0.51,7.287 c 0,0 -21.607,-4.108 -21.778,-4.111 0,0 5.81,-0.868 21.268,-3.176"
             style="fill:#004b2c;fill-opacity:1;fill-rule:nonzero;stroke:none"
             id="path78" /></g><g
           id="g80"
           transform="translate(607.7509,374.2103)"><path
             d="M 0,0 C 15.458,2.308 21.268,3.176 21.268,3.176 21.097,3.179 -0.51,7.287 -0.51,7.287 c 0,0 -10.293,-4.791 -16.885,0.227 0,0 -2.736,-10.689 17.395,-7.514"
             style="fill:#004b2c;fill-opacity:1;fill-rule:nonzero;stroke:none"
             id="path82" /></g><g
           id="g84"
           transform="translate(601.8042,286.8619)"><path
             d="m 0,0 -18.663,2.845 c 0.119,1.736 0.187,3.482 0.187,5.238 0,12.765 -3.193,25.025 -9.055,36.448 l 13.532,-5.565 25.585,-17.701 0.817,-7.427 z M -26.995,4.116 -39.48,6.019 c 0.023,0.689 0.081,1.372 0.081,2.064 0,51.271 -64.779,92.834 -144.689,92.834 -79.909,0 -144.689,-41.563 -144.689,-92.834 0,-0.758 0.061,-1.507 0.089,-2.26 l -12.486,-1.904 c -0.084,1.385 -0.153,2.771 -0.153,4.164 0,26.918 15.914,52.46 44.811,71.921 29.912,20.144 69.84,31.238 112.428,31.238 42.588,0 82.516,-11.094 112.429,-31.238 28.896,-19.461 44.811,-45.003 44.811,-71.921 0,-1.327 -0.07,-2.648 -0.147,-3.967 m -296.334,3.967 c 0,48.185 62.463,87.386 139.241,87.386 76.778,0 139.242,-39.201 139.242,-87.386 0,-48.186 -62.464,-87.387 -139.242,-87.387 -76.778,0 -139.241,39.201 -139.241,87.387 m 251.67,-71.921 c -29.913,-20.145 -69.841,-31.239 -112.429,-31.239 -42.588,0 -82.516,11.094 -112.428,31.239 -22.086,14.873 -36.556,33.305 -42.166,53.182 5.166,1.709 9.526,3.151 11.769,3.893 11.079,-44.211 70.794,-77.989 142.825,-77.989 72.246,0 132.113,33.976 142.934,78.382 1.381,-0.457 5.971,-1.976 11.763,-3.892 -5.529,-20.028 -20.038,-38.605 -42.268,-53.576 M -349.502,2.649 -366.881,0 l -12.403,13.838 0.817,7.427 25.585,17.701 11.884,4.887 c -5.643,-11.229 -8.702,-23.259 -8.702,-35.77 0,-1.822 0.07,-3.633 0.198,-5.434 m 505.269,79.628 c -0.056,12.599 -6.786,22.743 -17.6,26.494 -10.429,3.619 -21.99,0.274 -28.763,-8.32 -16.999,-21.564 3.092,-58.142 12.52,-72.866 17.76,-27.744 23.498,-48.837 16.592,-60.999 -6.852,-12.062 -24.658,-12.605 -27.534,-12.6 L 63,18.204 l 3.801,7.45 10.276,-5.578 c 0,0 10.121,26.73 6.362,62.206 -3.757,35.476 -16.783,48.396 -26.659,48.396 H 28.408 l -5.786,-9.452 H 9.638 c 0,0 0.398,-22.505 5.71,-24.526 5.312,-2.02 7.778,-1.467 17.082,-1.467 9.303,0 9.767,-9.85 9.767,-9.85 H 16.905 L 14.4,75.547 23.94,75.459 C 23.94,65.04 12.041,55.096 12.041,55.096 L 24.119,48.593 17.42,43.015 c 0,0 -28.47,9.649 -28.878,9.861 -0.303,0.158 -19.129,7.051 -28.87,10.615 -28.559,33.534 -82.241,56.124 -143.76,56.124 -61.932,0 -115.914,-22.898 -144.324,-56.804 -10.091,-3.693 -26.727,-9.787 -27.011,-9.935 -0.408,-0.212 -28.879,-9.861 -28.879,-9.861 l -6.698,5.578 12.078,6.503 c 0,0 -11.899,9.944 -11.899,20.363 l 9.54,0.088 -2.505,9.836 h -25.292 c 0,0 0.464,9.85 9.767,9.85 9.303,0 11.77,-0.553 17.082,1.467 5.312,2.021 5.71,24.526 5.71,24.526 h -12.984 l -5.786,9.452 h -28.372 c -9.876,0 -22.902,-12.92 -26.659,-48.396 -3.759,-35.476 6.361,-62.206 6.361,-62.206 l 10.277,5.578 3.801,-7.45 -47.984,-64.221 c -2.88,-0.011 -20.679,0.533 -27.532,12.605 -6.906,12.16 -1.168,33.253 16.592,60.997 9.428,14.724 29.519,51.302 12.52,72.866 -6.773,8.596 -18.34,11.932 -28.763,8.32 -10.814,-3.751 -17.544,-13.895 -17.6,-26.494 l -0.011,-0.007 v -18 c 0,-6.892 4.186,-17.189 4.186,-17.189 0,0 9.42,4.934 13.356,17.167 3.935,12.233 -3.604,27.382 -3.604,27.382 l -4.765,-3.199 c 1.594,5.996 5.524,10.468 11.181,12.429 7.066,2.448 14.881,0.202 19.447,-5.592 9.482,-12.03 4.624,-35.644 -12.997,-63.17 -19.842,-30.993 -25.494,-54.44 -16.797,-69.689 9.088,-15.938 30.239,-16.797 34.687,-16.797 0.024,0 0.036,0 0.06,0 v -1.657 -26.838 l 14.716,-28.924 h 23.604 c 0,0 -2.253,11.11 -10.942,11.11 l -4.539,21.809 5.978,22.252 34.503,-17.027 19.924,-38.144 h 23.603 c 0,0 -2.252,11.11 -10.942,11.11 l -10.489,35.553 -29.342,24.907 33.826,30.951 7.475,-8.08 15.81,-1.905 c 4.836,1.6 11.551,3.821 18.071,5.979 14.808,-51.371 81.953,-90.157 162.561,-90.157 80.813,0 148.094,38.984 162.672,90.549 6.883,-2.278 14.126,-4.674 19.255,-6.371 l 15.81,1.905 7.475,8.081 33.825,-30.952 -29.342,-24.907 -10.489,-35.553 c -8.689,0 -10.941,-11.11 -10.941,-11.11 H 27.78 l 19.924,38.144 34.503,17.027 5.978,-22.252 -4.539,-21.809 c -8.689,0 -10.942,-11.11 -10.942,-11.11 h 23.604 l 14.715,28.924 v 26.838 1.657 c 0.025,0 0.037,0 0.061,0 4.448,0 25.599,0.861 34.687,16.795 8.695,15.249 3.045,38.698 -16.797,69.691 -17.621,27.526 -22.479,51.14 -12.997,63.17 4.564,5.794 12.379,8.043 19.447,5.592 5.657,-1.961 9.587,-6.433 11.181,-12.43 l -4.765,3.2 c 0,0 -7.539,-15.149 -3.604,-27.382 3.936,-12.233 13.356,-17.167 13.356,-17.167 0,0 4.186,10.297 4.186,17.189 v 18 z"
             style="fill:#004b2c;fill-opacity:1;fill-rule:nonzero;stroke:none"
             id="path86" /></g><g
           id="g88"
           transform="translate(379.2285,266.6721)"><path
             d="m 0,0 c -1.824,1.568 -4.35,2.962 -7.578,4.179 l -8.442,3.045 c -1.798,0.664 -3.252,1.457 -4.358,2.38 -1.109,0.922 -1.661,2.085 -1.661,3.488 0,1.66 0.727,2.998 2.178,4.013 1.454,1.015 3.496,1.523 6.125,1.523 2.03,0 3.667,-0.277 4.913,-0.831 1.245,-0.554 2.329,-1.218 3.252,-1.993 l 2.006,-5.037 h 4.083 v 7.972 c -1.799,0.995 -3.887,1.779 -6.261,2.352 -2.377,0.572 -4.741,0.858 -7.093,0.858 -5.582,-0.96 -9.839,-2.38 -12.768,-4.262 -2.929,-1.883 -4.393,-4.245 -4.393,-7.086 0,-1.219 0.231,-2.307 0.692,-3.266 0.46,-0.96 1.107,-1.819 1.937,-2.575 0.83,-0.756 1.81,-1.43 2.942,-2.02 1.13,-0.591 2.363,-1.126 3.701,-1.605 l 8.374,-3.1 c 2.075,-0.739 3.724,-1.652 4.947,-2.741 1.221,-1.088 1.833,-2.463 1.833,-4.123 0,-1.957 -0.774,-3.535 -2.318,-4.733 -1.546,-1.2 -3.679,-1.8 -6.401,-1.8 -1.937,0 -3.748,0.351 -5.431,1.052 -1.686,0.701 -3.057,1.55 -4.119,2.546 l -2.351,4.872 h -5.329 l 1.523,-8.137 c 1.937,-1.145 4.083,-2.058 6.435,-2.741 2.353,-0.682 5.051,-1.024 8.097,-1.024 6.411,1.144 11.035,2.813 13.873,5.01 2.837,2.195 4.256,4.714 4.256,7.557 C 2.709,-3.645 1.821,-1.569 0,0"
             style="fill:#004b2c;fill-opacity:1;fill-rule:nonzero;stroke:none"
             id="path90" /></g><g
           id="g92"
           transform="translate(484.0945,257.0398)"><path
             d="m 0,0 c -0.371,-1.016 -1.005,-1.938 -1.904,-2.768 -0.899,-0.83 -2.088,-1.513 -3.563,-2.048 -1.477,-0.536 -3.321,-0.803 -5.536,-0.803 l -5.467,0.333 v 16.219 h 6.713 c 3.274,0 5.813,-0.747 7.611,-2.242 C -0.347,7.197 0.552,5.286 0.552,2.962 0.552,2.001 0.369,1.015 0,0 m -16.47,27.928 h 6.159 c 2.767,0 4.82,-0.594 6.159,-1.779 1.338,-1.187 2.006,-2.745 2.006,-4.679 0,-1.095 -0.22,-2.116 -0.657,-3.065 -0.438,-0.948 -1.051,-1.788 -1.834,-2.517 -0.785,-0.731 -1.742,-1.305 -2.872,-1.724 -1.13,-0.42 -2.386,-0.629 -3.77,-0.629 H -16.47 Z M 5.95,9.87 c -2.4,1.797 -5.95,2.696 -10.656,2.696 1.706,0.332 3.263,0.804 4.671,1.413 1.407,0.61 2.617,1.331 3.632,2.163 1.014,0.832 1.799,1.755 2.353,2.772 0.555,1.016 0.831,2.079 0.831,3.189 0,1.033 -0.266,2.069 -0.796,3.104 -0.531,1.034 -1.326,1.949 -2.388,2.744 -1.061,0.794 -2.411,1.432 -4.048,1.912 -1.637,0.481 -3.563,0.722 -5.777,0.722 h -15.293 -9.203 l -0.345,-2.159 5.881,-0.886 V -5.231 l -5.881,-0.748 0.345,-2.131 h 9.203 12.595 c 2.674,0.296 5.141,0.712 7.403,1.251 2.259,0.537 4.208,1.25 5.847,2.14 1.637,0.889 2.916,1.982 3.841,3.279 0.921,1.296 1.383,2.853 1.383,4.669 0,2.63 -1.199,4.844 -3.598,6.641"
             style="fill:#004b2c;fill-opacity:1;fill-rule:nonzero;stroke:none"
             id="path94" /></g><g
           id="g96"
           transform="translate(356.2193,341.8781)"><path
             d="M 0,0 2.238,0.969 1.973,0.097 V -14.87 l -7.94,-0.802 0.267,-1.887 h 10.922 10.87 l 0.266,1.887 -7.991,0.802 V 5.643 H 5.489 L -6.499,0.872 -5.487,-1.066 Z"
             style="fill:#004b2c;fill-opacity:1;fill-rule:nonzero;stroke:none"
             id="path98" /></g><g
           id="g100"
           transform="translate(382.3282,339.5289)"><path
             d="m 0,0 c 0.816,0.613 1.59,1.107 2.318,1.478 0.727,0.371 1.499,0.557 2.317,0.557 1.313,0 2.469,-0.614 3.463,-1.841 0.994,-1.228 1.492,-3.051 1.492,-5.473 0,-2.487 -0.515,-4.465 -1.545,-5.934 -1.03,-1.47 -2.416,-2.204 -4.155,-2.204 -1.137,0 -2.088,0.331 -2.851,0.993 -0.765,0.661 -1.377,1.55 -1.838,2.665 -0.462,1.113 -0.782,2.389 -0.96,3.826 -0.178,1.436 -0.265,2.913 -0.265,4.432 z m -5.889,-12.181 c 0.978,-1.211 2.186,-2.149 3.625,-2.81 1.437,-0.662 3.063,-0.993 4.875,-0.993 1.953,0.42 3.755,0.945 5.407,1.574 1.651,0.63 3.072,1.413 4.262,2.349 1.19,0.937 2.123,2.066 2.798,3.391 0.675,1.323 1.012,2.874 1.012,4.65 0,1.324 -0.205,2.616 -0.612,3.875 C 15.069,1.115 14.43,2.236 13.56,3.221 12.689,4.206 11.579,4.997 10.229,5.595 8.879,6.192 7.28,6.491 5.434,6.491 L -1.919,1.308 c 0.108,1.679 0.382,3.245 0.827,4.699 0.443,1.453 1.19,2.84 2.237,4.165 1.048,1.324 2.451,2.584 4.209,3.778 1.759,1.195 4.023,2.374 6.794,3.536 l -0.8,2.18 C 7.725,18.407 4.626,16.993 2.051,15.427 -0.525,13.861 -2.629,12.15 -4.262,10.294 -5.898,8.436 -7.086,6.458 -7.833,4.36 -8.578,2.26 -8.952,0.049 -8.952,-2.277 c 0,-2.034 0.267,-3.89 0.8,-5.569 0.532,-1.68 1.288,-3.124 2.263,-4.335"
             style="fill:#004b2c;fill-opacity:1;fill-rule:nonzero;stroke:none"
             id="path102" /></g><g
           id="g104"
           transform="translate(442.5602,337.2768)"><path
             d="M 0,0 C 0.587,1.114 1.501,2.09 2.745,2.931 3.561,2.478 4.459,1.986 5.436,1.454 6.412,0.92 7.318,0.315 8.152,-0.363 c 0.834,-0.678 1.528,-1.446 2.079,-2.301 0.55,-0.856 0.827,-1.8 0.827,-2.834 0,-0.904 -0.16,-1.703 -0.48,-2.397 -0.32,-0.695 -0.756,-1.284 -1.306,-1.768 -0.551,-0.484 -1.181,-0.848 -1.892,-1.09 -0.71,-0.242 -1.457,-0.364 -2.238,-0.364 -0.889,0 -1.695,0.187 -2.424,0.558 -0.728,0.371 -1.359,0.879 -1.891,1.525 -0.533,0.646 -0.951,1.397 -1.252,2.252 -0.302,0.856 -0.453,1.769 -0.453,2.738 0,1.581 0.293,2.93 0.878,4.044 m 0.24,14.265 c 0,1.453 0.436,2.608 1.306,3.463 0.87,0.855 2.051,1.284 3.543,1.284 0.889,0 1.67,-0.163 2.344,-0.484 0.676,-0.324 1.234,-0.744 1.679,-1.26 0.443,-0.517 0.772,-1.122 0.986,-1.816 0.213,-0.695 0.32,-1.397 0.32,-2.108 0,-1.452 -0.285,-2.672 -0.854,-3.656 C 8.995,8.702 8.091,7.79 6.848,6.951 6.03,7.436 5.222,7.944 4.424,8.477 3.625,9.009 2.912,9.582 2.291,10.196 1.67,10.81 1.174,11.456 0.799,12.133 0.427,12.812 0.24,13.521 0.24,14.265 M -5.62,0.048 c -1.172,-1.566 -1.758,-3.253 -1.758,-5.061 0,-1.228 0.292,-2.366 0.879,-3.415 0.585,-1.05 1.412,-1.97 2.476,-2.761 1.067,-0.792 2.328,-1.413 3.785,-1.864 1.455,-0.453 3.036,-0.679 4.74,-0.679 4.265,0.937 7.531,2.171 9.804,3.705 2.273,1.534 3.411,3.658 3.411,6.371 0,1 -0.222,1.936 -0.665,2.808 -0.446,0.873 -1.058,1.687 -1.839,2.447 -0.781,0.758 -1.715,1.469 -2.798,2.131 -1.083,0.661 -2.246,1.284 -3.49,1.864 2.345,1.034 4.264,2.269 5.756,3.706 1.491,1.437 2.236,3.173 2.236,5.207 0,1.033 -0.265,1.986 -0.799,2.858 -0.533,0.872 -1.287,1.623 -2.264,2.252 -0.978,0.63 -2.159,1.122 -3.543,1.477 -1.386,0.355 -2.931,0.534 -4.635,0.534 -3.979,-0.841 -6.971,-1.995 -8.979,-3.464 -2.006,-1.469 -3.011,-3.269 -3.011,-5.4 0,-1.68 0.578,-3.254 1.734,-4.723 C -3.427,6.571 -1.713,5.272 0.56,4.142 -2.389,2.979 -4.448,1.614 -5.62,0.048"
             style="fill:#004b2c;fill-opacity:1;fill-rule:nonzero;stroke:none"
             id="path106" /></g><g
           id="g108"
           transform="translate(477.8063,337.1315)"><path
             d="m 0,0 c -0.64,-0.662 -1.421,-1.34 -2.344,-2.034 -0.925,-0.695 -1.971,-1.445 -3.145,-2.253 l -9.322,-6.394 1.117,-2.179 H 9.484 l 1.545,3.149 v 1.743 h -13.8 l -6.713,-1.502 7.885,3.876 c 1.528,0.775 2.922,1.517 4.183,2.227 1.261,0.711 2.345,1.454 3.25,2.229 0.907,0.775 1.599,1.606 2.079,2.494 0.479,0.888 0.719,1.897 0.719,3.027 0,1.938 -0.872,3.496 -2.611,4.675 -1.74,1.178 -4.21,1.768 -7.407,1.768 L -11.935,7.338 V 1.672 h 4.475 l 1.811,5.473 c 0.391,0.193 0.871,0.379 1.439,0.557 0.569,0.177 1.208,0.266 1.919,0.266 1.562,0 2.663,-0.363 3.303,-1.09 C 1.652,6.152 1.971,5.272 1.971,4.239 1.971,3.463 1.802,2.728 1.464,2.035 1.126,1.34 0.64,0.661 0,0"
             style="fill:#004b2c;fill-opacity:1;fill-rule:nonzero;stroke:none"
             id="path110" /></g></g></g></g></svg>
