<?xml version="1.0" encoding="utf-8"?>
<!-- Generator: Adobe Illustrator 26.0.0, SVG Export Plug-In . SVG Version: 6.00 Build 0)  -->
<svg version="1.1"
	 id="svg2" xmlns:cc="http://creativecommons.org/ns#" xmlns:dc="http://purl.org/dc/elements/1.1/" xmlns:inkscape="http://www.inkscape.org/namespaces/inkscape" xmlns:rdf="http://www.w3.org/1999/02/22-rdf-syntax-ns#" xmlns:sodipodi="http://sodipodi.sourceforge.net/DTD/sodipodi-0.dtd" xmlns:svg="http://www.w3.org/2000/svg"
	 xmlns="http://www.w3.org/2000/svg" xmlns:xlink="http://www.w3.org/1999/xlink" x="0px" y="0px" viewBox="0 0 1033.48 403"
	 style="enable-background:new 0 0 1033.48 403;" xml:space="preserve">
<style type="text/css">
	.st0{clip-path:url(#SVGID_00000068679197318655525330000009691765919808929440_);}
	.st1{fill:#AE9A63;}
</style>
<sodipodi:namedview  bordercolor="#666666" borderopacity="1" gridtolerance="10" guidetolerance="10" id="namedview4" inkscape:pageopacity="0" inkscape:pageshadow="2" inkscape:window-height="480" inkscape:window-width="640" objecttolerance="10" pagecolor="#ffffff">
	</sodipodi:namedview>
<g id="g10" transform="matrix(1.3333333,0,0,-1.3333333,0,437.72533)" inkscape:groupmode="layer" inkscape:label="Pornbacher">
	<g id="g12">
		<g>
			<defs>
				<rect id="SVGID_1_" x="-173.7" y="-41.7" width="1122.52" height="437.73"/>
			</defs>
			<clipPath id="SVGID_00000017493570705323731140000012218247004801048758_">
				<use xlink:href="#SVGID_1_"  style="overflow:visible;"/>
			</clipPath>
			<g id="g14" style="clip-path:url(#SVGID_00000017493570705323731140000012218247004801048758_);">
				<g id="g20" transform="translate(130.4365,198.2646)">
					<path id="path22" class="st1" d="M-33.39,13.02c-1.95-4.31-50.43-92.47-50.87-89.36c-4.92,34.39,23.87,87.57,48.67,107.05
						C3.6,61.48,66.06,59.58,79.55,49.33c4.97-3.78,6.02-9.7-0.7-15.19C54.59,14.31,1.16,5.93-5.62,8.64
						c-0.59,0.24-1.16,0.39-1.7,0.48C4.82,25.7,13.51,37.58,13.98,38.26c1.63,2.32,0,3.35-1.87,2.32
						c-1.87-1.03-40.37-23.43-42.47-24.21C-32.46,15.6-32.69,14.56-33.39,13.02 M-6.79,4.26c4.2-2.1,13.68-3.8,25.86-4.04
						c-1.08-3.3-2.83-8.61-2.99-9.23c-0.57-2.2-0.11-2.19,0.7-2.19c0.81,0,8.17,0.13,8.98,0c0.82-0.13,1.4,0.65,1.52,1.67
						c0.08,0.72,1.42,6.5,2.22,9.9c2.56,0.12,5.18,0.3,7.86,0.56l-1.91-9.55c-0.12-1.16-0.35-1.8,0.7-1.93c1.05-0.13,7.58,0,8.52,0
						c0.93,0,1.51,0.77,1.75,1.93c0.17,0.82,1.03,7.24,1.52,10.93C71.9,6.19,98.29,16,116.19,36.46c6.53,7.47,3.73,12.36-4.43,15.97
						C97.67,58.64,9.28,77.89-43.66,34.14C-105.03-16.59-98.5-94.88-97.56-100.29c0.93-5.41,6.07-4.63,8.87-1.29
						c1.94,2.31,49.41,67.04,79.12,107.62C-8.95,5.49-8.05,4.89-6.79,4.26"/>
				</g>
				<g id="g24" transform="translate(693.6397,159.5077)">
					<path id="path26" class="st1" d="M-33.39,13.02c5.35,1.12,6.53-0.51,4.34-3.67C-30.14,7.79-39.56-4.19-55.31-3.88
						C-51.93,1.12-44.44,10.71-33.39,13.02 M-289.5,52.94c16.28,18.35,32.03,23.37,34.3,23.95c2.27,0.58,3.32-1.54,2.1-4.25
						c-1.23-2.7-9.78-16.02-23.45-28.59c-11.98-11.01-35-24.72-35-24.72S-305.34,35.08-289.5,52.94 M-64.6,52.55
						c-0.52-0.97-3.83-7.17-13.64-14.26c-10.08-7.28-19.15-10.22-24.17-10.76c-1.34-0.14-2.07,1.23-0.26,2.95
						c0.1,0.1,0.17,0.17,0.25,0.26c15.58,14.61,32.21,23.5,35.88,24.22C-64.48,55.37-64.08,53.52-64.6,52.55 M47-8.48
						c-7.12-7.73-17.59-14.89-23.08-12.06c-4.97,2.57-1.66,12.96,0.09,19.01c1.75,6.05-0.58,8.24-1.98,9.79
						c-1.4,1.55-3.85,3.86-7.47,7.6c-3.62,3.73-1.63,5.28-0.81,7.08c0.81,1.8,4.32,8.24,4.08,16.35c-0.23,8.11-6.77,9.01-12.6,4.64
						c-5.84-4.38-8.17-9.66-9.22-14.94c-1.05-5.28-0.93-11.67,1.75-14.37c1.33-1.33,3.11-2.36,4.84-3.21
						C-5.85,1.5-29.97-20.97-52.6-20.97c-7.05,0-9.66,6.07-4.49,14.32c11.91-2.22,39.43-1.71,44.24,11.43
						c2.74,7.48-2.45,12.52-13.3,14.07c-15.7,2.24-38.44-4.81-49.36-20.03c-4.2-2.66-17.85-12.14-21.73-14.06
						c-4.29-2.12-2.54,2.41-1.92,4.16c0.61,1.74,8.57,16.75,9.18,18.15c1.22,2.81,2.98,11.78-5.16,11.78
						c-10.33,0-32.64-17.19-34.48-18.07c-1.84-0.88-1.31,0.98-0.61,2.04c0.63,0.97,6.74,6.9,20.1,20.29c0.1,0,0.18-0.01,0.29-0.01
						c10.94,0,37.02,5.89,54.08,25.21c9.29,10.52-4.64,11.24-7.18,11.11c-32.29-1.69-51.46-19.87-70.33-36.44
						c-10.39-9.12-19.12-18.74-23.47-24.98c-4.93-3.05-13.44-8.59-17.78-8.59c-7.61,0-7.21,6.78-5.69,11.11
						c1.84,5.21,5.17,11.61,12.16,16.12c4.52,2.91,11.38,5.5,19.87,5.5c3,0,3.06,4.36,0.09,4.36c-1.89,0-6.88,1.17-14.09,0.08
						c-7.21-1.09-18.86-5.42-32.99-20.05c-4.46-4.62-14.62-15.38-22.93-17.89c-3.28-0.99-5.6,1.35-4.73,5.99
						c0.88,4.63,12.79,22.12,14.12,23.67c1.33,1.55-0.12,1.73-2.22,1.54c-3.19-0.3-16.5-1.94-16.98-2.03
						c-1.2-0.22-1.63-0.5-2.33-2.05c-7.39-16.3-19.37-20.65-26.11-20.65c-5.25,0-5.66,5.88,3.32,14.1
						c13.41,12.26,32.29,13.23,41.92,13.23c1.66,0,1.66,2.47-0.44,2.61c-40.34,2.7-67.95-15.19-77.86-21.36
						c-1.49,7.16-4.15,13.74-4.49,14.12c-0.53,0.58-1.05,0.96-2.1,0c-1.05-0.97-12.78-9.08-13.83-10.05
						c-1.05-0.96-1.37-0.95-0.7-2.32c5.25-10.82,13.02-8.97,15.58-10.04c-0.44-3.53-4.9-9.85-9.63-8.89
						c-12.53,2.56-15.23,13.33-13.13,21.83c33.08,18.93,63.23,44.26,75.78,64.7c3.67,5.99,3.43,9.49-1.04,9.59
						c-8.07,0.18-31.25-0.35-59.52-27.75c-23.75-23.02-33.81-42.14-34.91-53.2c-6.9-3.45-30.87-16.4-33.69-17.68
						c-2.98-1.35-5.6,0-4.03,3.28c1.58,3.28,11.03,18.93,12.6,21.44c1.57,2.51,0.7,6.76-2.98,5.02c-3.67-1.74-30.1-18.5-33.25-19.97
						c-3.15-1.47-4.38-0.7-3.68,1.91c0.7,2.61,9.98,19.02,12.95,22.12c2.98,3.09,1.92,6.37-1.92,4.63
						c-3.85-1.74-44.1-28.66-49.35-30.52c-5.37-1.9-9.8-1.74-6.13,3.77c3.68,5.51,7.65,11.3,3.45,14c-4.2,2.7-8.44,1.74-11.24,4.06
						c-1.25,1.04-1.49,2.32,0.79,4.06c2.28,1.74,9.21,6.57,9.47,15.11c0.16,5.17-4.22,7.1-7.89,7.1c-3.85,0-7.32-2.21-14.82-8.21
						c-8.16-6.53-9.89-12.02-6.73-16.37c-10.8-7.06-18.22-7.03-25.32-8.14c0,0,1.07,7.86-1.79,9.6c-2.86,1.74-18.67-3.67-22.11-5.6
						c-2.83-1.59-2.74-3.54-0.87-5.09c1.87-1.55,7.7-4.9,14-4.25c1.51,0.16,1.98-0.77,1.28-2.06c-0.7-1.29-16.45-21.37-29.29-21.37
						c-12.84,0-14.2,6.96-14,10.17c0.47,7.47,13.07,26.91,42.59,29.87c2.21,0.22,3.43,2.05,0.7,2.32
						c-57.23,5.6-76.12-36.89-61.08-48.67c25.9-20.28,62.83,15.64,67.5,29.74c18.17,0.3,29.2,6.58,33.29,9.43
						c1.6-0.9,3.48-1.73,5.62-2.47c1.58-0.55,2.1-2.32,0-5.02c-2.1-2.7-9.39-10.38-12.51-17.19c-3.76-8.21-0.12-16.96,12.33-15.71
						c11.3,1.13,32.57,19.39,34.49,20.74c1.92,1.35,2.8,1.35,2.1-0.58c-0.7-1.93-6.52-14.1,0.24-18.15
						c6.76-4.06,26.19,14.1,27.41,14.87c1.23,0.77,2.45,1.16,1.92-0.77c-0.52-1.93-10.33-22.02,2.45-22.02
						c12.32,0,49.7,26.76,57.68,31.09c1.53-10.33,8.86-24.13,22.82-24.13c15.23,0,24.7,11.2,25.82,20.67
						c0.12,1.05,0.15,2.17,0.12,3.33c3.12,2.77,9.32,7.99,13.61,9.81c-9.54-10.14-7.02-29.49,5.86-29.84
						c14.18-0.39,22.75,13.91,28.62,17.29c-1.93-3.86-3.68-18.73,7-18.73c9.04,0,22.93,9.85,31.68,17.96
						c0.83,0.77,1.75,0.61,1.27-0.47c-2.41-5.43,2.93-15.76,11.16-15.76c8.43,0,19.75,7.44,27.44,13.11
						c-2.89-6.21-3-10.19-3.2-12.05c-0.44-4.06,2.65-5.57,4.55-3.77c15.84,14.97,41.58,26.37,45.33,27.91
						c3.06,1.26,4.2-2.13,3.24-4.64c-0.96-2.51-4.67-7.62-6.91-16.51c-1.75-6.95,4.03-11.4,8.84-10.33
						c6.52,1.44,22.52,14.74,30.22,21.01c-0.16-0.43-0.33-0.86-0.48-1.3c-4.19-12.73,5.42-20.9,15.06-20.51
						c15.41,0.63,47.38,10.86,72.4,40c0,0,0.01,0,0.01,0c1.95-1.1,0.29-5.57,0.64-3.77c0.32,1.63-5.37-19.57-5.6-26.52
						c-0.14-4.19,2.45-11.33,9.33-11.33c19.48,0,35.94,20.99,37.1,22.53C49.92-8.35,48.88-6.44,47-8.48"/>
				</g>
			</g>
		</g>
	</g>
</g>
</svg>
