<?xml version="1.0" encoding="utf-8"?>
<!-- Generator: Adobe Illustrator 26.0.0, SVG Export Plug-In . SVG Version: 6.00 Build 0)  -->
<svg version="1.1"
	 id="svg2" xmlns:cc="http://creativecommons.org/ns#" xmlns:dc="http://purl.org/dc/elements/1.1/" xmlns:inkscape="http://www.inkscape.org/namespaces/inkscape" xmlns:rdf="http://www.w3.org/1999/02/22-rdf-syntax-ns#" xmlns:sodipodi="http://sodipodi.sourceforge.net/DTD/sodipodi-0.dtd" xmlns:svg="http://www.w3.org/2000/svg"
	 xmlns="http://www.w3.org/2000/svg" xmlns:xlink="http://www.w3.org/1999/xlink" x="0px" y="0px" viewBox="0 0 506.61 253.2"
	 style="enable-background:new 0 0 506.61 253.2;" xml:space="preserve">
<style type="text/css">
	.st0{fill:none;stroke:#1A1A18;stroke-width:0.9613;stroke-miterlimit:13.3333;}
	.st1{fill:#1A1A18;}
	.st2{fill:none;stroke:#1A1A18;stroke-width:0.5547;stroke-miterlimit:13.3333;}
	.st3{fill:none;stroke:#1A1A18;stroke-width:0.74;stroke-miterlimit:13.3333;}
	.st4{fill:#1A1A18;stroke:#1A1A18;stroke-width:0.9613;stroke-miterlimit:13.3333;}
	.st5{clip-path:url(#SVGID_00000014632417569238626170000010950697639420872851_);}
	.st6{fill:none;stroke:#1A1A18;stroke-width:0.3333;stroke-miterlimit:13.3333;}
</style>
<sodipodi:namedview  bordercolor="#666666" borderopacity="1" gridtolerance="10" guidetolerance="10" id="namedview4" inkscape:pageopacity="0" inkscape:pageshadow="2" inkscape:window-height="480" inkscape:window-width="640" objecttolerance="10" pagecolor="#ffffff">
	</sodipodi:namedview>
<g id="g10" transform="matrix(1.3333333,0,0,-1.3333333,0,334.55333)" inkscape:groupmode="layer" inkscape:label="Ranzi_Knapp">
	<g id="g12" transform="translate(246.0471,124.8786)">
		<path id="path14" class="st0" d="M-61.04,30.51l-38.12,36.11v1.47l16.01,11.79h22.11h22.11l16.01-11.79v-1.47L-61.04,30.51z"/>
	</g>
	<g id="g16" transform="translate(246.0471,174.2479)">
		<path id="path18" class="st1" d="M-61.04,30.51l7.82-4.42l-6.9-7.49h11.33l-4.43,7.49l14.9-7.37v7l-10.59,4.79l9.98,0l0.62-4.79
			l8.87-7.25h6.53v-1.23h-38.12l-2.77,9.09L-61.04,30.51z"/>
	</g>
	<g id="g20" transform="translate(246.0471,174.2479)">
		<path id="path22" class="st2" d="M-61.04,30.51l7.82-4.42l-6.9-7.49h11.33l-4.43,7.49l14.9-7.37v7l-10.59,4.79l9.98,0l0.62-4.79
			l8.87-7.25h6.53v-1.23h-38.12l-2.77,9.09L-61.04,30.51z"/>
	</g>
	<g id="g24" transform="translate(246.0471,162.7039)">
		<path id="path26" class="st1" d="M-61.04,30.51l1.05-2.09V6.68l12.44,22.97L-53.76,4.1l24.88,25.05l0.29-0.25L-47.31,7.17
			l0.12-1.11L-61.04-7.32l-0.29,3.44L-61.04,30.51z"/>
	</g>
	<g id="g28" transform="translate(246.0471,162.7039)">
		<path id="path30" class="st3" d="M-61.04,30.51l1.05-2.09V6.68l12.44,22.97L-53.76,4.1l24.88,25.05l0.29-0.25L-47.31,7.17
			l0.12-1.11L-61.04-7.32l-0.29,3.44L-61.04,30.51z"/>
	</g>
	<g id="g32" transform="translate(253.8683,169.8263)">
		<path id="path34" class="st4" d="M-61.04,30.51l4.31,4.42"/>
	</g>
	<g id="g36" transform="translate(268.7718,169.4578)">
		<path id="path38" class="st4" d="M-61.04,30.51l15.4-7.25"/>
	</g>
	<g id="g40" transform="translate(253.3268,136.2993)">
		<path id="path42" class="st4" d="M-61.04,30.51l16.43,25.42"/>
	</g>
	<g id="g44" transform="translate(246.0471,174.2479)">
		<path id="path46" class="st1" d="M-61.04,30.51l-7.82-4.42l6.9-7.49h-11.33l4.43,7.49l-14.9-7.37v7l10.59,4.79l-9.98,0l-0.62-4.79
			l-8.87-7.25h-6.53v-1.23h38.12l2.77,9.09L-61.04,30.51z"/>
	</g>
	<g id="g48" transform="translate(246.0471,174.2479)">
		<path id="path50" class="st2" d="M-61.04,30.51l-7.82-4.42l6.9-7.49h-11.33l4.43,7.49l-14.9-7.37v7l10.59,4.79l-9.98,0l-0.62-4.79
			l-8.87-7.25h-6.53v-1.23h38.12l2.77,9.09L-61.04,30.51z"/>
	</g>
	<g id="g52" transform="translate(246.0471,162.7039)">
		<path id="path54" class="st1" d="M-61.04,30.51l-1.05-2.09V6.68l-12.44,22.97l6.21-25.55L-93.2,29.16l-0.29-0.25l18.71-21.74
			l-0.12-1.11l13.86-13.39l0.29,3.44L-61.04,30.51z"/>
	</g>
	<g id="g56" transform="translate(246.0471,162.7039)">
		<path id="path58" class="st3" d="M-61.04,30.51l-1.05-2.09V6.68l-12.44,22.97l6.21-25.55L-93.2,29.16l-0.29-0.25l18.71-21.74
			l-0.12-1.11l13.86-13.39l0.29,3.44L-61.04,30.51z"/>
	</g>
	<g id="g60" transform="translate(238.2258,169.8263)">
		<path id="path62" class="st4" d="M-61.04,30.51l-4.31,4.42"/>
	</g>
	<g id="g64" transform="translate(223.3224,169.4578)">
		<path id="path66" class="st4" d="M-61.04,30.51l-15.4-7.25"/>
	</g>
	<g id="g68" transform="translate(238.7674,136.2993)">
		<path id="path70" class="st4" d="M-61.04,30.51l-16.43,25.42"/>
	</g>
	<g id="g72">
		<g>
			<defs>
				<rect id="SVGID_1_" x="-144.71" y="-11.31" width="669.39" height="334.55"/>
			</defs>
			<clipPath id="SVGID_00000010273522087828265470000003100726125381937796_">
				<use xlink:href="#SVGID_1_"  style="overflow:visible;"/>
			</clipPath>
			<g id="g74" style="clip-path:url(#SVGID_00000010273522087828265470000003100726125381937796_);">
				<g id="g80" transform="translate(117.9272,110.8206)">
					<path id="path82" class="st1" d="M-61.04,30.51c0.14,0.28,0.44,0.56,0.73,0.56c0.38,0,1.84-0.52,1.35-1.59
						c2.77,0.28,5.58,0.64,9.51,0.64c8.03,0,11.21-1.35,9.6-4.61c-1.76-3.57-8.52-8.54-19.94-8.54l-0.04-0.08l3.27-4.13
						c4.01-5.08,6.17-7.15,7.55-7.15c0.63,0,0.8,0,0.7-0.2c-0.16-0.32-2.88-2.03-3.97-2.03c-0.42,0-0.95,0.44-1.91,1.55l-9.5,11.4
						c-0.41,0.52-0.61,0.87-0.58,0.95c0.1,0.2,1.49,1.15,2.45,1.15c0.5,0,2-0.52,3.88-0.52c7.4,0,12.51,3.57,14,6.59
						c1.84,3.73-4.27,4.65-7.28,4.65c-2.67,0-5.51-0.4-8.39-0.91c-2.27-4.17-4.28-7.9-6.32-12.03c-3.1-6.27-4.29-9.37-4.59-9.97
						c-0.26-0.52-0.4-0.64-0.94-0.64c-1.21,0-2.84,0.44-2.27,1.59c0.2,0.4,0.45,0.91,0.86,1.67l10.59,18.99
						c-4.17-0.99-5.35-1.79-6.15-1.79c-0.42,0-1.06,0.48-0.67,1.27c0.37,0.76,1.01,0.95,7.38,1.83L-61.04,30.51z"/>
				</g>
				<g id="g84" transform="translate(117.9272,110.8206)">
					<path id="path86" class="st6" d="M-61.04,30.51c0.14,0.28,0.44,0.56,0.73,0.56c0.38,0,1.84-0.52,1.35-1.59
						c2.77,0.28,5.58,0.64,9.51,0.64c8.03,0,11.21-1.35,9.6-4.61c-1.76-3.57-8.52-8.54-19.94-8.54l-0.04-0.08l3.27-4.13
						c4.01-5.08,6.17-7.15,7.55-7.15c0.63,0,0.8,0,0.7-0.2c-0.16-0.32-2.88-2.03-3.97-2.03c-0.42,0-0.95,0.44-1.91,1.55l-9.5,11.4
						c-0.41,0.52-0.61,0.87-0.58,0.95c0.1,0.2,1.49,1.15,2.45,1.15c0.5,0,2-0.52,3.88-0.52c7.4,0,12.51,3.57,14,6.59
						c1.84,3.73-4.27,4.65-7.28,4.65c-2.67,0-5.51-0.4-8.39-0.91c-2.27-4.17-4.28-7.9-6.32-12.03c-3.1-6.27-4.29-9.37-4.59-9.97
						c-0.26-0.52-0.4-0.64-0.94-0.64c-1.21,0-2.84,0.44-2.27,1.59c0.2,0.4,0.45,0.91,0.86,1.67l10.59,18.99
						c-4.17-0.99-5.35-1.79-6.15-1.79c-0.42,0-1.06,0.48-0.67,1.27c0.37,0.76,1.01,0.95,7.38,1.83L-61.04,30.51z"/>
				</g>
				<g id="g88" transform="translate(153.5717,96.4831)">
					<path id="path90" class="st1" d="M-61.04,30.51c-1.12,0.87-2.23,1.07-3.32,1.07c-4.01,0-8.77-3.53-10.59-7.23
						c-1.14-2.3,0.79-3.22,2.3-3.22c3.89,0,8.94,2.7,9.93,3.77c0.26,0.28,0.68,1.03,0.93,1.55C-61.39,27.25-60.59,30.15-61.04,30.51
						 M-62.81,32.77c1.63,0,2.53-0.79,2.91-1.99c0.87,0.16,1.74,0.4,2.48,0.72l-1.35-3.5c-1.41-3.69-2.3-7.03-1.38-7.03
						c0.29,0,0.27-0.12,0.18-0.32c-0.2-0.4-2.97-1.35-3.47-1.35c-0.38,0-0.55,0.08,0.87,4.81c-3.95-2.66-8.58-4.17-12.39-4.17
						c-2.38,0-4.97,0.6-3.58,3.42C-76.36,27.77-67.32,32.77-62.81,32.77"/>
				</g>
				<g id="g92" transform="translate(153.5717,96.4831)">
					<path id="path94" class="st6" d="M-61.04,30.51c-1.12,0.87-2.23,1.07-3.32,1.07c-4.01,0-8.77-3.53-10.59-7.23
						c-1.14-2.3,0.79-3.22,2.3-3.22c3.89,0,8.94,2.7,9.93,3.77c0.26,0.28,0.68,1.03,0.93,1.55C-61.39,27.25-60.59,30.15-61.04,30.51
						z M-62.81,32.77c1.63,0,2.53-0.79,2.91-1.99c0.87,0.16,1.74,0.4,2.48,0.72l-1.35-3.5c-1.41-3.69-2.3-7.03-1.38-7.03
						c0.29,0,0.27-0.12,0.18-0.32c-0.2-0.4-2.97-1.35-3.47-1.35c-0.38,0-0.55,0.08,0.87,4.81c-3.95-2.66-8.58-4.17-12.39-4.17
						c-2.38,0-4.97,0.6-3.58,3.42C-76.36,27.77-67.32,32.77-62.81,32.77z"/>
				</g>
				<g id="g96" transform="translate(174.686,92.5113)">
					<path id="path98" class="st1" d="M-61.04,30.51c0.72,2.9,0.81,4.01-0.53,4.01c-1.92,0-7.56-4.13-11.95-9.29
						c-0.34-0.44-0.48-0.56-0.69-0.56c-0.29,0-1.66,0.2-1.27,0.99c0.39,0.79,1.67,2.54,3.97,7.19c1.47,2.98,1.51,3.73,1.72,4.17
						c0.08,0.16,0.22,0.28,0.39,0.28c0.25,0,2.34-0.67,2.07-1.23c-0.31-0.63-1.66-2.86-2.78-4.61l-2.5-3.97h0.08
						c3.22,3.3,9.93,9.02,13.9,9.02c1.8,0,1.63-1.19,1.09-3.3l-1.63-6.35c-0.11-0.4-0.35-1.47,0.36-1.47c0.12,0,0.19-0.04,0.11-0.2
						c-0.38-0.68-2.9-1.55-3.48-1.55c-0.46,0-0.41,0.52-0.16,1.63L-61.04,30.51z"/>
				</g>
				<g id="g100" transform="translate(174.686,92.5113)">
					<path id="path102" class="st6" d="M-61.04,30.51c0.72,2.9,0.81,4.01-0.53,4.01c-1.92,0-7.56-4.13-11.95-9.29
						c-0.34-0.44-0.48-0.56-0.69-0.56c-0.29,0-1.66,0.2-1.27,0.99c0.39,0.79,1.67,2.54,3.97,7.19c1.47,2.98,1.51,3.73,1.72,4.17
						c0.08,0.16,0.22,0.28,0.39,0.28c0.25,0,2.34-0.67,2.07-1.23c-0.31-0.63-1.66-2.86-2.78-4.61l-2.5-3.97h0.08
						c3.22,3.3,9.93,9.02,13.9,9.02c1.8,0,1.63-1.19,1.09-3.3l-1.63-6.35c-0.11-0.4-0.35-1.47,0.36-1.47c0.12,0,0.19-0.04,0.11-0.2
						c-0.38-0.68-2.9-1.55-3.48-1.55c-0.46,0-0.41,0.52-0.16,1.63L-61.04,30.51z"/>
				</g>
				<g id="g104" transform="translate(189.9816,90.7237)">
					<path id="path106" class="st1" d="M-61.04,30.51c-4.68-1.87-5.1-2.03-5.23-2.3c-0.51-1.03,6.64-1.03,8.02-1.03
						c1.71,0,5.44,0.36,6.2,0.36c0.21,0,0.19-0.12,0.11-0.28c-0.2-0.4-6.55-1.83-14.41-1.83c-2.68,0-5.08,0.12-4.55,1.19
						c0.86,1.75,17.51,7.27,18.96,10.21c0.37,0.76-0.8,0.76-1.38,0.76c-4.06,0-10.93-2.07-11.51-2.07c-0.38,0-0.22,0.32-0.14,0.48
						c0.25,0.52,2.65,2.06,3.29,2.19c1.81,0.36,3.06,0.36,4.15,0.36c7.23,0,9.53-0.52,8.78-2.03c-0.61-1.23-1.84-1.87-5.43-3.3
						L-61.04,30.51z"/>
				</g>
				<g id="g108" transform="translate(189.9816,90.7237)">
					<path id="path110" class="st6" d="M-61.04,30.51c-4.68-1.87-5.1-2.03-5.23-2.3c-0.51-1.03,6.64-1.03,8.02-1.03
						c1.71,0,5.44,0.36,6.2,0.36c0.21,0,0.19-0.12,0.11-0.28c-0.2-0.4-6.55-1.83-14.41-1.83c-2.68,0-5.08,0.12-4.55,1.19
						c0.86,1.75,17.51,7.27,18.96,10.21c0.37,0.76-0.8,0.76-1.38,0.76c-4.06,0-10.93-2.07-11.51-2.07c-0.38,0-0.22,0.32-0.14,0.48
						c0.25,0.52,2.65,2.06,3.29,2.19c1.81,0.36,3.06,0.36,4.15,0.36c7.23,0,9.53-0.52,8.78-2.03c-0.61-1.23-1.84-1.87-5.43-3.3
						L-61.04,30.51z"/>
				</g>
				<g id="g112" transform="translate(214.0329,102.5197)">
					<path id="path114" class="st1" d="M-61.04,30.51c-0.54,0-1.81,0.4-1.52,1.07c0.47,1.11,0.89,2.23,1.44,3.34
						c0.1,0.2,0.22,0.2,0.43,0.2c0.71,0,1.76-0.68,1.76-0.83c0.02-0.12-0.72-1.63-1.21-2.62C-60.63,30.67-60.75,30.51-61.04,30.51
						 M-67.33,22.25c1.92,3.89,1.47,4.25,1.65,4.61c0.06,0.12,0.14,0.2,0.39,0.2c0.38,0,2.88-0.52,2.45-1.39
						c-0.9-1.83-3.66-6.47-4.87-8.94c-0.53-1.07-0.88-1.95-1.27-2.74c-0.14-0.28-0.39-0.36-0.59-0.36c-0.33,0-1.85,0.32-1.48,1.07
						L-67.33,22.25z"/>
				</g>
				<g id="g116" transform="translate(214.0329,102.5197)">
					<path id="path118" class="st6" d="M-61.04,30.51c-0.54,0-1.81,0.4-1.52,1.07c0.47,1.11,0.89,2.23,1.44,3.34
						c0.1,0.2,0.22,0.2,0.43,0.2c0.71,0,1.76-0.68,1.76-0.83c0.02-0.12-0.72-1.63-1.21-2.62C-60.63,30.67-60.75,30.51-61.04,30.51z
						 M-67.33,22.25c1.92,3.89,1.47,4.25,1.65,4.61c0.06,0.12,0.14,0.2,0.39,0.2c0.38,0,2.88-0.52,2.45-1.39
						c-0.9-1.83-3.66-6.47-4.87-8.94c-0.53-1.07-0.88-1.95-1.27-2.74c-0.14-0.28-0.39-0.36-0.59-0.36c-0.33,0-1.85,0.32-1.48,1.07
						L-67.33,22.25z"/>
				</g>
				<g id="g120" transform="translate(243.5233,100.0176)">
					<path id="path122" class="st1" d="M-61.04,30.51c5.96,3.02,7.71,4.69,8.71,6.71c0.72,1.47,0.07,2.34-1.35,2.34
						c-2.34,0-6.42-2.5-7.56-4.81C-61.65,33.92-61.69,32.65-61.04,30.51 M-71.1,17.84c3.39,0,7.07,1.11,10.73,3.1
						c-1.48,2.42-2.64,4.81-3.69,7.43c-4.57-2.15-8.78-5.24-9.74-7.19C-75,18.75-73.36,17.84-71.1,17.84 M-57.01,21.81l0.44-0.64
						c1.32-1.91,2.44-3.18,3.91-3.18c0.29,0,0.4-0.12,0.3-0.32c-0.31-0.64-2.03-1.91-3.07-1.91c-0.5,0-1.73,0.48-4.56,4.49
						c-4.23-2.38-10.05-3.85-14.07-3.85c-3.55,0-4.73,1.43-3.61,3.69c1.35,2.74,3.58,4.37,13.44,8.94
						c-1.14,3.46-0.83,4.25-0.28,5.36c1.71,3.46,8.96,6.12,12.47,6.12c1.67,0,4.26-0.36,3.22-2.46c-1.14-2.3-3.63-4.13-11.96-8.3
						c0.28-1.39,2.45-5.96,3.35-7.19c3.52,2.3,5.31,5,5.74,5.88c0.29,0.6,0.44,1.23,0.58,1.51c0.06,0.12,0.14,0.2,0.31,0.2
						c1.09,0,1.66-0.8,1.05-2.03C-50.91,25.78-54.55,23.24-57.01,21.81"/>
				</g>
				<g id="g124" transform="translate(243.5233,100.0176)">
					<path id="path126" class="st6" d="M-61.04,30.51c5.96,3.02,7.71,4.69,8.71,6.71c0.72,1.47,0.07,2.34-1.35,2.34
						c-2.34,0-6.42-2.5-7.56-4.81C-61.65,33.92-61.69,32.65-61.04,30.51z M-71.1,17.84c3.39,0,7.07,1.11,10.73,3.1
						c-1.48,2.42-2.64,4.81-3.69,7.43c-4.57-2.15-8.78-5.24-9.74-7.19C-75,18.75-73.36,17.84-71.1,17.84z M-57.01,21.81l0.44-0.64
						c1.32-1.91,2.44-3.18,3.91-3.18c0.29,0,0.4-0.12,0.3-0.32c-0.31-0.64-2.03-1.91-3.07-1.91c-0.5,0-1.73,0.48-4.56,4.49
						c-4.23-2.38-10.05-3.85-14.07-3.85c-3.55,0-4.73,1.43-3.61,3.69c1.35,2.74,3.58,4.37,13.44,8.94
						c-1.14,3.46-0.83,4.25-0.28,5.36c1.71,3.46,8.96,6.12,12.47,6.12c1.67,0,4.26-0.36,3.22-2.46c-1.14-2.3-3.63-4.13-11.96-8.3
						c0.28-1.39,2.45-5.96,3.35-7.19c3.52,2.3,5.31,5,5.74,5.88c0.29,0.6,0.44,1.23,0.58,1.51c0.06,0.12,0.14,0.2,0.31,0.2
						c1.09,0,1.66-0.8,1.05-2.03C-50.91,25.78-54.55,23.24-57.01,21.81z"/>
				</g>
				<g id="g128" transform="translate(276.8813,92.9877)">
					<path id="path130" class="st1" d="M-61.04,30.51l-3.41-6.91c-0.21-0.44-0.51-0.44-1.05-0.44c-0.59,0-1.64,0.4-1.31,1.07
						c1.96,3.97,4.39,8.22,6.43,12.35c3.73,7.55,4.7,10.88,5,11.48c0.06,0.12,0.1,0.2,0.22,0.2c0.71,0,3.17-0.95,2.81-1.67
						c-0.31-0.64-0.65-1.31-1.08-2.11l-6.95-12.63c21.55,10.29,26.46,17.52,27.09,17.52c0.5,0,0.48-1.91-0.27-3.42
						c-1.02-2.06-13.84-8.98-17.69-10.68l2.84-4.49c1.37-2.15,5.3-7.47,6.43-7.47c0.33,0,0.63,0,0.51-0.24
						c-0.22-0.44-3.15-1.63-3.9-1.63c-0.92,0-1.63,1.35-4.4,5.32l-4.76,6.87L-61.04,30.51z"/>
				</g>
				<g id="g132" transform="translate(276.8813,92.9877)">
					<path id="path134" class="st6" d="M-61.04,30.51l-3.41-6.91c-0.21-0.44-0.51-0.44-1.05-0.44c-0.59,0-1.64,0.4-1.31,1.07
						c1.96,3.97,4.39,8.22,6.43,12.35c3.73,7.55,4.7,10.88,5,11.48c0.06,0.12,0.1,0.2,0.22,0.2c0.71,0,3.17-0.95,2.81-1.67
						c-0.31-0.64-0.65-1.31-1.08-2.11l-6.95-12.63c21.55,10.29,26.46,17.52,27.09,17.52c0.5,0,0.48-1.91-0.27-3.42
						c-1.02-2.06-13.84-8.98-17.69-10.68l2.84-4.49c1.37-2.15,5.3-7.47,6.43-7.47c0.33,0,0.63,0,0.51-0.24
						c-0.22-0.44-3.15-1.63-3.9-1.63c-0.92,0-1.63,1.35-4.4,5.32l-4.76,6.87L-61.04,30.51z"/>
				</g>
				<g id="g136" transform="translate(316.0671,92.5113)">
					<path id="path138" class="st1" d="M-61.04,30.51c0.72,2.9,0.81,4.01-0.53,4.01c-1.92,0-7.56-4.13-11.95-9.29
						c-0.34-0.44-0.48-0.56-0.69-0.56c-0.29,0-1.66,0.2-1.27,0.99c0.39,0.79,1.67,2.54,3.97,7.19c1.47,2.98,1.51,3.73,1.72,4.17
						c0.08,0.16,0.22,0.28,0.39,0.28c0.25,0,2.34-0.67,2.07-1.23c-0.31-0.63-1.66-2.86-2.78-4.61l-2.5-3.97h0.08
						c3.22,3.3,9.93,9.02,13.9,9.02c1.8,0,1.63-1.19,1.09-3.3l-1.63-6.35c-0.11-0.4-0.35-1.47,0.36-1.47c0.12,0,0.19-0.04,0.11-0.2
						c-0.38-0.68-2.9-1.55-3.48-1.55c-0.46,0-0.41,0.52-0.16,1.63L-61.04,30.51z"/>
				</g>
				<g id="g140" transform="translate(316.0671,92.5113)">
					<path id="path142" class="st6" d="M-61.04,30.51c0.72,2.9,0.81,4.01-0.53,4.01c-1.92,0-7.56-4.13-11.95-9.29
						c-0.34-0.44-0.48-0.56-0.69-0.56c-0.29,0-1.66,0.2-1.27,0.99c0.39,0.79,1.67,2.54,3.97,7.19c1.47,2.98,1.51,3.73,1.72,4.17
						c0.08,0.16,0.22,0.28,0.39,0.28c0.25,0,2.34-0.67,2.07-1.23c-0.31-0.63-1.66-2.86-2.78-4.61l-2.5-3.97h0.08
						c3.22,3.3,9.93,9.02,13.9,9.02c1.8,0,1.63-1.19,1.09-3.3l-1.63-6.35c-0.11-0.4-0.35-1.47,0.36-1.47c0.12,0,0.19-0.04,0.11-0.2
						c-0.38-0.68-2.9-1.55-3.48-1.55c-0.46,0-0.41,0.52-0.16,1.63L-61.04,30.51z"/>
				</g>
				<g id="g144" transform="translate(341.6064,96.4831)">
					<path id="path146" class="st1" d="M-61.04,30.51c-1.12,0.87-2.23,1.07-3.32,1.07c-4.01,0-8.77-3.53-10.59-7.23
						c-1.14-2.3,0.79-3.22,2.3-3.22c3.89,0,8.94,2.7,9.93,3.77c0.26,0.28,0.68,1.03,0.93,1.55C-61.39,27.25-60.59,30.15-61.04,30.51
						 M-62.81,32.77c1.63,0,2.54-0.79,2.91-1.99c0.87,0.16,1.74,0.4,2.49,0.72l-1.35-3.5c-1.41-3.69-2.3-7.03-1.38-7.03
						c0.29,0,0.28-0.12,0.18-0.32c-0.2-0.4-2.97-1.35-3.47-1.35c-0.38,0-0.55,0.08,0.87,4.81c-3.95-2.66-8.58-4.17-12.39-4.17
						c-2.38,0-4.97,0.6-3.58,3.42C-76.36,27.77-67.32,32.77-62.81,32.77"/>
				</g>
				<g id="g148" transform="translate(341.6064,96.4831)">
					<path id="path150" class="st6" d="M-61.04,30.51c-1.12,0.87-2.23,1.07-3.32,1.07c-4.01,0-8.77-3.53-10.59-7.23
						c-1.14-2.3,0.79-3.22,2.3-3.22c3.89,0,8.94,2.7,9.93,3.77c0.26,0.28,0.68,1.03,0.93,1.55C-61.39,27.25-60.59,30.15-61.04,30.51
						z M-62.81,32.77c1.63,0,2.54-0.79,2.91-1.99c0.87,0.16,1.74,0.4,2.49,0.72l-1.35-3.5c-1.41-3.69-2.3-7.03-1.38-7.03
						c0.29,0,0.28-0.12,0.18-0.32c-0.2-0.4-2.97-1.35-3.47-1.35c-0.38,0-0.55,0.08,0.87,4.81c-3.95-2.66-8.58-4.17-12.39-4.17
						c-2.38,0-4.97,0.6-3.58,3.42C-76.36,27.77-67.32,32.77-62.81,32.77z"/>
				</g>
				<g id="g152" transform="translate(353.3983,94.4575)">
					<path id="path154" class="st1" d="M-61.04,30.51c1.31,2.66,0.65,1.31,1.85,4.17c0.12,0.24,0.34,0.44,0.59,0.44
						c0.5,0,2.3-0.76,1.79-1.79c-0.39-0.79-0.89-1.55-1.33-2.26h0.08c3.7,2.58,8.47,4.29,12.23,4.29c2.93,0,4.43-1.27,3.02-4.13
						c-2.06-4.17-10.43-9.53-14.78-9.53c-1.71,0-4.26,0.52-3.51,2.02c0.08,0.16,0.34,0.36,0.51,0.36c0.42,0,0.53-0.95,4.17-0.95
						c4.35,0,7.8,2.58,9.78,6.59c1.51,3.06,0.11,4.21-1.93,4.21c-2.26,0-8.66-1.03-12.25-7.78l-7.39-13.86
						c-0.26-0.52-0.38-0.6-0.67-0.6c-0.42,0-1.54,0.52-1.25,1.11c0.1,0.2,1.3,1.95,4.73,8.9L-61.04,30.51z"/>
				</g>
				<g id="g156" transform="translate(353.3983,94.4575)">
					<path id="path158" class="st6" d="M-61.04,30.51c1.31,2.66,0.65,1.31,1.85,4.17c0.12,0.24,0.34,0.44,0.59,0.44
						c0.5,0,2.3-0.76,1.79-1.79c-0.39-0.79-0.89-1.55-1.33-2.26h0.08c3.7,2.58,8.47,4.29,12.23,4.29c2.93,0,4.43-1.27,3.02-4.13
						c-2.06-4.17-10.43-9.53-14.78-9.53c-1.71,0-4.26,0.52-3.51,2.02c0.08,0.16,0.34,0.36,0.51,0.36c0.42,0,0.53-0.95,4.17-0.95
						c4.35,0,7.8,2.58,9.78,6.59c1.51,3.06,0.11,4.21-1.93,4.21c-2.26,0-8.66-1.03-12.25-7.78l-7.39-13.86
						c-0.26-0.52-0.38-0.6-0.67-0.6c-0.42,0-1.54,0.52-1.25,1.11c0.1,0.2,1.3,1.95,4.73,8.9L-61.04,30.51z"/>
				</g>
				<g id="g160" transform="translate(378.3141,94.4575)">
					<path id="path162" class="st1" d="M-61.04,30.51c1.31,2.66,0.65,1.31,1.85,4.17c0.12,0.24,0.34,0.44,0.59,0.44
						c0.5,0,2.3-0.76,1.79-1.79c-0.39-0.79-0.89-1.55-1.33-2.26h0.08c3.7,2.58,8.47,4.29,12.23,4.29c2.93,0,4.43-1.27,3.02-4.13
						c-2.06-4.17-10.43-9.53-14.78-9.53c-1.71,0-4.26,0.52-3.52,2.02c0.08,0.16,0.34,0.36,0.51,0.36c0.42,0,0.53-0.95,4.17-0.95
						c4.35,0,7.8,2.58,9.78,6.59c1.51,3.06,0.11,4.21-1.93,4.21c-2.26,0-8.66-1.03-12.25-7.78l-7.39-13.86
						c-0.26-0.52-0.38-0.6-0.67-0.6c-0.42,0-1.54,0.52-1.25,1.11c0.1,0.2,1.3,1.95,4.73,8.9L-61.04,30.51z"/>
				</g>
				<g id="g164" transform="translate(378.3141,94.4575)">
					<path id="path166" class="st6" d="M-61.04,30.51c1.31,2.66,0.65,1.31,1.85,4.17c0.12,0.24,0.34,0.44,0.59,0.44
						c0.5,0,2.3-0.76,1.79-1.79c-0.39-0.79-0.89-1.55-1.33-2.26h0.08c3.7,2.58,8.47,4.29,12.23,4.29c2.93,0,4.43-1.27,3.02-4.13
						c-2.06-4.17-10.43-9.53-14.78-9.53c-1.71,0-4.26,0.52-3.52,2.02c0.08,0.16,0.34,0.36,0.51,0.36c0.42,0,0.53-0.95,4.17-0.95
						c4.35,0,7.8,2.58,9.78,6.59c1.51,3.06,0.11,4.21-1.93,4.21c-2.26,0-8.66-1.03-12.25-7.78l-7.39-13.86
						c-0.26-0.52-0.38-0.6-0.67-0.6c-0.42,0-1.54,0.52-1.25,1.11c0.1,0.2,1.3,1.95,4.73,8.9L-61.04,30.51z"/>
				</g>
			</g>
		</g>
	</g>
</g>
</svg>
