<?xml version="1.0" encoding="utf-8"?>
<!-- Generator: Adobe Illustrator 26.4.1, SVG Export Plug-In . SVG Version: 6.00 Build 0)  -->
<svg version="1.1" id="Ebene_1" xmlns="http://www.w3.org/2000/svg" xmlns:xlink="http://www.w3.org/1999/xlink" x="0px" y="0px"
	 viewBox="0 0 2834.6 4252" style="enable-background:new 0 0 2834.6 4252;" xml:space="preserve">
<style type="text/css">
	.st0{fill-rule:evenodd;clip-rule:evenodd;}
</style>
<g>
	<path class="st0" d="M1440,3105.8c27.6-62.8,65.4-69,139.9-69c66.9,0,142,6.7,183.7-18.3c22-13.2,40.1-37.2,40.1-71.9
		c0-70,0.1-134.1,0-204.4c-0.1-36-0.1-66.9,0-109.1c0.1-33.8,0-87.4,0-134.2v-260.7c0-31.5,15.5-144.8-7.3-161.4
		c-13.7-9.9-71.6,0-87.9,0h-158.8c-82.8,0-130.8,2.5-193.2-3.6c12.6-15.4,33.3-33.9,54.5-40c45.2-13,105.9,3.9,141.8-21.8
		c28.2-20.1,29.1-37.6,29.1-79.9c0-13.2-41.8-26.6-47.2-47.3c24.4-4.6,41.2-19.8,72.7-14.5c5.4,0.9,38.8,26.6,47.2,18.2
		c1.9-1.9-4.2-44.9-3.6-47.3c4.6-18.4,23.5-25.7,18.1-58.2c31.4,8.9,23.8,37.2,25.4,69.1c1.1,21.1,15.6,20.1,32.7-3.7
		c15-20.8,2.4-87.5,32.7-50.9c18.8,22.7-1,105.8,14.7,120c14.4,13.1,38.8-20,43.6-32.7c3-8.1,1.7-47.1,7.3-50.9
		c5.1-3.5,25.5,17,25.5,20c0,13.1-6.2,24.6-7.3,34.5c-2.6,23.2,7.3,40.8,7.3,54.5c0,14.8,32.3,34.1,43.6,40
		c-12.9,26.3-49.5,23-69.1,7.3c-7.2-5.8-7.4-25.5-20-25.5c-17.1,0,3.7,74.6,5.5,80c12.3,36.8,49.3,28.5,58.2,61.8
		c9.2,34.7-15.6,78.3,18.2,101.8c14.6,10.2,34.6,7.3,50.9,7.3c8,0-10.9-35.5-10.9-41.8c0-29.7,15.5-37.4,29.1-60
		c15.8-26.4,16.2-43.6,47.2-29.1c18.9,8.8,44.2,43.2,72.7,14.5c29.1-29.3-30.4-137.7-32.7-189c26.4,22,42.1,57.2,69.1,80
		c25.4,21.5,68.6,38.6,80,72.7c19.5,58.5-5.6,74.3-50.9,61.8c-6.2-1.7-34.3-16.8-40-10.9c-13.2,13.8,16.1,29.2,18.1,32.7
		c4.5,7.5,14.6,16.4,14.6,25.4c0,14.9-18.2,12.2-18.2,25.5c0,19.9-26.7,75.5,7.3,87.2c8.8-22.4,24-46.6,47.2-54.5
		c-24.5,83.2-126.9,85-145.4-7.3c-22.5,8.9-24.4,35.2-29.1,61.8c-2.6,15.1,6.3,7-3.6,21.8c-5.5,8.2-18.8,7.6-25.5,14.5
		c-9.4,9.6-32.2,51.5-14.5,61.9c11.2,6.6,75.4-21.1,98.2-21.8c-12.4,18.8-27.3,30.1-40,50.9c-21.1,34.3-14.5,88.5-14.5,141.3
		c0,33.9-22.9,84.9-14.6,87.7c27.7,9.3,47.4-31.3,65.4-32.7c39.4-3.1,13,57.3,3.7,80c-4.4,10.8-58.2,56.2-58.2,50.9
		c0,24.4,76.4,26.6,94.5,18.2c23.9-11.2,36.3-45.4,36.3-80c0-0.2-7.1-40,1.8-40c8.7,0,14.3,18.5,16.4,18.2c8.9-1.2,8.3,12.7,18.2,0
		c7.7-10,2.9-44.7,0-54.5c-6.4-21.8-25.2-22.4-14.6-47.3c5.6-13,23.7-15.5,29.1-36.3c-57.1,12.7-108.9,4.5-105.4-61.8
		c1.1-21.4,21.8-43.1,21.8-61.8c0-6.6,18.2-24.5,18.2-8.9c0,26.6,7.3,51.2,7.3,68.9c0,15,20.6,26.4,32.7,30.9
		c41.9,15.7,34.6-0.2,29.1-25.5c-3.5-16.2-20.4-98.1,3.7-98.1c20.7,0,32.2,29.1,65.4,14.5c-7.9-22.1-16.7-34.5-21.9-61.9
		c-4.9-25.9-5.6-74.5-25.4-87.2c61.5-9.9,80.6-103.2,58.2-170.8c-7.8-23.5-18.9-34.5-32.8-50.9c-4.8-5.7-18.8-11.6-21.8-18.2
		c-10-22-12.2-2.8,10.9-18.2c45.5-30.3,84.1-47.4,61.8-116.3c-5.5-17-16.8-50.9-36.3-50.9c-28.8,0-10.9,4.5-10.9,29.1
		c0,20.3-46.7-3.3-50.9-7.3c26.3-4.9,90.9-62.4,90.9-90.9c0-33.8,29.1-66.5,29.1-112.8c0-33.4-2.9-71.6,0-105.4
		c1.2-14.4,14.5-33,14.5-40c0-34-8.4-48.4-29.1-69.1c-28-28-18.2-28-18.2-67.2c0-13.5,14.7-22.5-3.6-30.9c-18-8.1-46.9,7-54.5,14.5
		c-26.7,26.4-5.9,54.5-56.2,54.5c-34.8,0-60.9,2.7-85.6,10.9c-11.5,3.8-30.5,18.2-41.8,18.2c-18.4,0-45.4-105.8,23.6-80
		c22.7,8.5,21.6,54.2,43.6,21.8c27.2-39.9-12.5-70.4-18.2-94.5c-6.8-28.8,12.6-87.2-29.1-87.2c-18.1,0-54.5-10.5-54.5,14.5
		c0,24.3,37.4,29.3,21.8,58.2c-8.7,16.1-34.9,29-47.3,43.6c-31.9,37.6-36.3,85.4-18.2,141.8c14.3,44.5,5.4,68.1-18.2,109.1
		c-17.6,0.7-58.2-40.4-58.2-7.3c0,34.9,16.3,60,43.6,69.1c49.5,16.5,28.4-5.5,47.2,36.4c5.9,13.3,9.4,29.5,18.2,40.1
		c19.2,23.5,47.7,32.7,91.2,32.7c43.8,0,46.1-29.4,72.4-36.3c35.1-9.2,13.6,74.6,0,94.5c-11.1,16.2-40.4,36.3-64.8,36.3
		c-21.1,0-51.6,13.2-51.6-14.5c0-11.6-12.7-27.2-18.2-36.3c-15-25.1-39.7-54-61.8-72.7c-38.2-32.3-80-34.7-145.4-29.2
		c-16.7,1.4-101.9,17.4-101.9,7.3c0-11.7,10.9-19.3,10.9-31c0-13.1-3.6-34.9-3.6-45.4c0-9.7-26.5-31.1-36.4-32.7
		c-35.9-6-4,47.9-14.5,72.7c-8.8-7-21.8-29.3-36.3-18.2c-20.4,15.6-0.1,73-18.2,91.1c-27.6,27.6-10.9-21.9-10.9-21.8
		c1.8-16.9,18.2-64.4,18.2-79.7c0-47.1-16.5-78.5-40-102.2c-39.1-39.5-116.7-11.7-174.5-36.3c43.4,0,158.8,25.7,178.1,7.2
		c13.8-13.2-1.8-39.7,10.9-54.5c7.6-8.8,31.5-6,40-14.5c20.8-20.8,6.3-55.7-18.2-61.8c-49.3-12.3-40,27.7-40,58.2
		c0,18.1-39.3,4.2-43.6-3.6c-12-21.6,14.1-19.8,21.8-32.7c22.1-36.9-11.3-72.2-47.3-50.9c-22.4,13.2-6.9,72.7-10.9,72.7
		c-16.7,0-18.2-17.8-18.2-41.8v-168.2c0-29.9,36.1-142.5,61.8-142.5c15.8,0,16.1,14.6,25.5,18.2c4.8,1.9,5.6,7.3,10.9,7.3
		c22.6,0-0.5,1.2,14.5-18.2c5.4-6.9-15.5-10.5,3.6-14.5c15.6-3.3,32.4,18.5,47.3,7.3c18-13.6-25.5-23.9-25.5-41.8
		c0-37.6,96.6,44.4,76.3-16.5c-1.5-4.5-21.8-13.9-21.8-18.2c-0.1-18.1,35-21.8,58.1-21.8c31.8,0-6.1-31.7-21.8-29.1
		c-16.1-23.7,22.4-50.4,7.3-87.2c-6.8,4.7-21.8,15.1-21.8,25.4c0,33.5-31-23.7-25.5-21.8c-19.6-6.5-34.3,93.7-50.9,32.7
		c-16.4,4.4-15.2,48.7-18.2,65.4c-16.3-10.5-24.3-30.1-40-10.9c-7.8,9.5,3.2,49-18.2,43.6c1.3,0.3-8.3-33.1-14.6-36.3
		c-8.6,12.6-6,32.8-14.5,47.3c-13.7,23.3-18.9,10-47.3,14.5c-26.9,4.3-60.1,19.6-76.3,36.5c-20,20.8-22.9,47.8-50.9,61.8
		c-11.6,5.8-63.3,54.5-18.8,54.5c47.8,0,58.9-52.6,58.9,25.5c0,35.1,8.4,76.6,0,109c-10.7,41.6-8.5,20.4-40,32.7
		c-17.8,6.9-46.7,61.8-14.5,61.8c63.4,0-36.3,72.7-36.3,32.7c0-100.7-102-23.1-58.2,14.5c31.3,26.8,61.8-6,61.8,54.5
		c0,33.5,83.2,5.7,109,7.3c-16.6,8.7-80,32.7-94.5,32.7c-8.9,0-9.5,32.6-25.5,10.9c-2.9-3.9-14.5-60.5-14.5-65.4
		c0-26.1-60.1-29.2-76.4-14.5c-10.6,9.5-33.9,101.8-12.7,101.8c26.2,0,22.1-47.2,60-36.3c40.9,11.7,5.2,34.9,3.6,61.8
		c-2.5,42,39.8,20.6,36.3,65.4c-0.8,10.2-9.8,31.4-18.2,36.4c-34.4,20.2-1.5-27.9-21.8-43.6c-37.9-29.3-36.4,69.1-36.4-35.1
		c0-43.5-38-7.1-47.2,6.1c-19.1,27.2-3.1,50.2-3.6,80.1c-0.3,19.9,1.7,8.9-21.8,7.3c-22.8-1.6-57.6-0.7-69.2-14.7
		c-33.5,17.3-78.4,0.3-109.1,14.7c-18.9,8.8-38.1,28.2-54.5,40c-17.4,12.4-36.2,25.3-47.2,43.6c-5.4,9-14.5,26.9-14.5,38.1
		c0,37.9-33.9,16.3-58.2,16.3c-26,0-58.5-18.8-69-36.3c-10.2-17-10.9-41.4-10.9-68c0-40.9,13.1-18.6,25.4-11.9
		c50.3,27,131.4,36.7,163.5-18.2c7.3-12.5,4.5-48,14.6-58.3c10.3-10.5,46-5.9,58.2-14.5c9.3-6.6,48.7-63.6,25.4-80
		c-22.6-16-39.9,47-69.1,0c-19.1-30.9-12.5-53.2-3.6-80c25.9-77.7,0-137.5-43.6-174.4c-27.4-23.2-30.4-21.3-14.5-58.2
		c0.2-0.5,31.2-29.1,7.3-29.1c-16.3,0-49.5,0.8-58.2,0c-20.3,23.2-25.4,52.4-25.4,89c0,9-15.3,21.4-18.2,30.9
		c-8,26.8,7.3,39.7,7.3,60c0,41.6,34.3-20.3,43.6-23.6c39-13.8,61.3,54,32.7,76.4c-14.6,11.5-73.9-16.6-83.6-18.2
		c-45.3-7.5-101.8,13.4-101.8-40c0-20-62.6-48-76.3-25.4c-13.6,22.3,24.3,50,3.6,80c-12,17.4-44.2,33.5-47.2,58.2
		c-3.6,29.2,17.5,24.9,21.8,40c7.9,27.9,0,93.6,0,121.3c0,96.5,38.7,130.2,76.4,184.2c-61,4.9-58.2,65.1-58.2,112.7
		c0,12.5,24,43.6,36.4,43.6c5.8,0,20.3,11.6,25.4,14.5c28.5,16.3,25.2-5.1,14.5,18.2c-5,11.1-27.6,26-36.4,36.3
		c-16.8,19.9-29.1,39.9-29.1,78.2c0,39.5,12.4,123.2,65.4,121.8c-13.3,30.9-19.1,80.9-29.1,112.8c-1.5,4.9-14,34.1-14.5,32.7
		c9.2,21.9,36.4,5.9,54.5,3.6c17.5-2.1,21.8-24.5,21.8,25.5c0,32.1-14.5,50-14.5,70.9c0,35.9,47.9,22.5,65.4,1.8
		c16.1-19,3.9-100.2,25.4-90.9c21.8,9.5,21.8,81.7,21.8,103.6c0,35.2-43.4,38.2-70.9,38.2c-45.6,0-15.6,7.1-1.8,32.7
		c14.5,26.9-9.9,24.2-14.5,54.5c-12,78.8,22.2,31.5,43.6,25.4c-6.2,49.8-4,96.6,29.1,116.3c19.5,11.6,114.8,5.8,90.9-14.5
		c0.6-4.5,5.8-3,3.6-7.3c-38.9,5.1-69.1-50.3-69.1-81.8c0-79.9,43.9-3.6,94.5-5.4c-8.6-19.8-17.7-28.7-21.8-54.5
		c-6.7-42.7,11.6-97.9,0-141.8c-10.6-40.2-46.4-55.4-58.2-87.2c34.8,3.6,144.5,45.9,94.5-25.6c-8.6-12.4-32.5-14.7-40-25.5
		c-11.1-16,0.8-48.6-10.9-69.1c-24-42-27.6,40.8-61.8,50.9c-58.3,17.2-92.9-17-105.4-58.1c30,10.5,31.8,44.1,58.1,54.5
		c4.7-23.1,12.4-53.9,3.6-80c-2.7-7.9-20.7-19.9-21.8-25.5c-3.7-18.5,18.1-45.9,32.7-58.1c-12.7-27.3-65.3,30.4-90.9,0
		c-31.7-37.7,12.6-78,29.1-94.5c8.5-8.5,47.1-47.3,58.2-47.3c19.4,0,35.8-45.4,50.9-54.5c18.1,60-40,106.1-40,160.6
		c0,59.1,88.8,8.4,101.8-11.6c15,6.4,30.6,41.5,40,54.5c4.7,6.5,18.2,16.1,18.2,25.5c0,13.3-9.2,40.3-7.3,50.9
		c4.1,21.9,14.1,21.6,40,10.9c7-2.9,25.4-13.2,25.4-21.8c0-42-11.7-109,36.4-109c17.6,0,33.4-58,36.3-72.7
		c17.4-87-23.8-10.9-36.3-10.9c-13.3,0-28.2,12-43.6,0c-9.1-7.1-16.3-25.5,3.6-25.5c22.5,0,34.6-48.3,32.7-65.4
		c-2-17.6-18.2-37.5-10.9-58.2c0.2-0.7,28.3-18.7,29.1-18.2c14.2,10.1-5.7,76.4,29.1,76.4c15.9,0,25.4,29.7,25.4-14.6
		c0-37.5,0.6-66.2,11-87.2c22.8-45.9,32.7,3.7,32.7,36.4c0,1.4,22.1,21.8,21.8,21.8c32.4,0,7.3-25.4,7.3-47.9
		c0-9.5,10-26.5,18.2-28.4c15.7-3.8,8.3,12.3,18.2,32.7c5.1,10.6,29.1,44.1,29.1,3c0-21.8-4.5-37.3,10.9-50.2
		c23.8-20,34.3,5.2,50.9,21.8c5.8,5.8,14.6,18.4,21.8,21.8c10.8,5.1,32.5,1.2,40,10.9c6.9,8.9-3.7,64.3-3.7,72.7
		c0,5-24.6,15.5-29.1,18.2c-36.3,21.8-61.5,61.5-90.9,90.9c-7.6,7.6-14.8,13.4-21.8,21.8c-4.2,5-17.8,33.3-21.8,36.4
		c-18,13.8-67.9,3.6-88.3,3.6c-48.6,0-39.1,9.6-39.1,56.4c0,196.2-3.6,354.2-3.6,551.8c0,96.8-18.1,174-3.6,271.6
		c3.8,25.5,31.3,72.8,58.3,72.8c21.9,0,58.2,10.9,94.1,10.9h202.7C1416.1,3040.3,1412.2,3101.6,1440,3105.8 M1549,1004.5
		c-42.2-44.1,22.2-18.2,47.3-10.9c-5.6-15.6-25.6-16-29-29.2c-1-3.7-12.9-10.9,8.5-10.9c28.1,0,47.3-2.6,75.1,0
		c-6.9-20.3-33.7-14.9-43.6-32.7c23.4-11.1,59.9-5.6,87.2-14.5v-7.3c-19.3-4.8-41.7,6.3-43.6-10.9c-0.6-5.7,21.5-19.7,25.4-25.4
		c-14.4,7.3-26.7,7.4-25.4-14.5c-9.6,9-25.6,63.5-43.6,29.1c-11,34-10.5,45.3-36.4,61.8c-0.3-6.4-5.4-17-3.6-29.1
		c-27.3,9.8-15.9,82.7-58.2,40C1514.9,982.7,1518.6,997.3,1549,1004.5 M1465.4,1044.4c-20-4-10.9-39.6-10.9-60.8
		c0-7.4,10.9-7.4,10.9,0.3V1044.4 M1440,1051.7c-18.5-3.7-13.3-52.4-14.5-65.4C1452.6,985.1,1440,1029.6,1440,1051.7 M1414.5,1073.6
		c-20.7-9.5-14.5-47-14.5-76.4C1418.3,1005.3,1419.3,1056,1414.5,1073.6 M1389.1,1080.8c-13.1-11.3-18.7-49.5-14.6-65.4
		C1388.5,1022.8,1393.2,1069,1389.1,1080.8 M1323.7,1095.3c-35.4-10.7,33.3-34.8,40-32.7C1352.6,1075.8,1334,1081.5,1323.7,1095.3
		 M1432.7,1328c-15.2,0.6-39.2-1.5-29.1-21.8C1417,1279.2,1455,1303.9,1432.7,1328 M1341.8,1331.6c-35.3,5.6-34.5-28-10.9-32.7
		C1348.2,1295.4,1360.9,1319.9,1341.8,1331.6 M1523.6,1342.5c-31.5,5.2-37.1-29.8-18.2-36.3
		C1531.1,1297.3,1532.9,1332.3,1523.6,1342.5 M1389.1,1367.9c32.5-27.6-14.5-28.7-3.6-69.1c7.3-27.2,40.4-24.4,61.8-14.5
		c0-74.8-5.5-142,18.1-192.6c15-32.1,35.7-64.9,36.4-109.1h-7.3c-5.9,24.9-12.1,87.2-45.4,87.2c-7.4,0-63.9,36.4-67.2,43.6
		c-8.1,17.3,7.3,60.9,7.3,87c0,35.5-14.6,59.5-14.6,85.7C1374.5,1318,1325.8,1372,1389.1,1367.9 M1450.9,1371.6
		c-17.1-8.8-25.3-31.2,0-36.3C1454.2,1350.9,1454.3,1361.6,1450.9,1371.6 M1251,1378.8c-30.8,2.5-37.1-31.8-14.6-36.3
		C1260.9,1337.6,1266.9,1369.1,1251,1378.8 M1596.3,1378.8c-32.7,1.7-25.8-46.1,3.6-36.3C1617.4,1348.3,1608.2,1373.5,1596.3,1378.8
		 M1512.7,1400.7c-11.1-3.6-24.1-4.8-40-3.7v-7.3C1493,1380,1505.9,1375.6,1512.7,1400.7 M1301.9,1407.9h-14.6v-7.2
		c39.1,3.5,30.5-18.6,50.9-25.4c19.7-6.6,15.1,14.5,40,14.5c21.2,0,22.9-29.1,38.2-29.1c9.5,0,23.4,23.9,34.5,29.1
		C1408.4,1407.6,1340.3,1387.7,1301.9,1407.9 M1981.7,1437c25.4-23.5,15.5-27.1,7.3-58.2c-11.3-43,1.4-76.3,43.6-76.3
		c31.7,0,61.6,32.5,40-14.6c-5-10.8-15.9-16.4-18.2-25.4c-2-7.9,1.5-44.9,0-50.9c-3.7-14.9-4.5-29.3-18.2-32.7
		c-39.2-9.8-4.5,25.3-3.7,29.1c8.9,40.4-11.2,47.3-32.7,65.4c-12.3,10.4-40,28.5-40,49.1C1959.9,1349.9,1938.2,1434.3,1981.7,1437
		 M865.5,1440.6c-34.9-18.3-18.2-24.1-18.2-56.3c0-40,6.4-81.8-40-81.8c-15.4,0-34.3,19.3-40,18.2c-23.7-4.8,0-20,0-36.4
		c0-6.5,9.8-7.1,10.9-10.9c1.9-6.5-0.4-25.9,0-29.1c1.6-14.3,7.3-31.4,7.3-43.6c0-5,26.8-27.8,36.3-18.2c7.5,7.5-17,25.5-18.2,29.1
		c-7.8,24.9,8.7,61.8,32.7,61.8C890.2,1273.4,890.6,1406.1,865.5,1440.6 M1556.3,1444.3c-56-4-102.8-20.4-170.8-14.5
		c-14.4,1.2-111,28.7-90.9-3.6c12.8-20.5,131-14.6,162.6-14.6C1486,1411.5,1570.8,1413.3,1556.3,1444.3 M2294.3,1469.7
		c-24.3-0.6-40.7-49.3-58.1-61.8c-25.5-18.2-52.9-34.4-18.2-69c14.4-14.4,25.4-20.9,25.4,3.6c0,25.9-6.4,38.2,7.2,58.2
		C2263.2,1419.1,2305.9,1440.5,2294.3,1469.7 M553,1473.4c-31.2-4.1,9.3-44,18.2-54.5c26.3-31,26.5-41.2,18.2-90.9
		c31.4,4.7,37.2,39.3,50.9,61.8C608.8,1422.5,575.4,1429,553,1473.4 M1185.5,1473.4c15.2-34.1,79.4,18.8,54.5-29.1
		C1212.7,1391.5,1156.8,1462.7,1185.5,1473.4 M1327.3,1506.1c40.5-11.2,82.4-24.2,130.9-18.2c23.5,2.9,41.7,11.2,65.4,10.9
		c14.1-0.2,47.6-14.5,16.3-14.5c-69.6,0-198.7-39.6-241.7,18.2C1304.5,1506.2,1315.7,1507.8,1327.3,1506.1 M1400,1593.3
		c-25.1-27-59-45.1-87.2-69.1C1346,1510.9,1389.2,1570,1400,1593.3 M1403.6,1596.9C1399.7,1592.9,1399.6,1592.9,1403.6,1596.9
		 M1574.5,1600.6c-60.3,8.6-68.6-21.7-83.6-58.2c-10.1-24.5-4.5-32.7-39.7-32.7c-20.4,0-62.1,19.2-80.2,0
		c33.3-3.5,75.5-11.2,112.7-3.6c21.2,4.3,44.5,14.5,65.7,14.5C1592.1,1520.6,1600.1,1582.5,1574.5,1600.6 M640.2,1644.2
		c6.4-23.4,19.2-38.6,32.7-54.5c2.9-3.4,17.3-18.2,21.8-18.2c22.3,0,11.2,18.5,21.8,36.3c13.6,22.7,53.1,33.3,83.6,18.2
		c7.4-3.7,15.9-12.9,18.2-21.8c5.9-23.7-8.2-7.3-23.6-7.3c-36.8,0-16.4-60.2-16.4-81.8c0-34.1-76.9-15.4-90.9-5.5
		C671,1521.5,610.4,1637.3,640.2,1644.2 M2203.4,1644.2c-17.9-19.9-48.5-96.8-72.7-72.7c-22.3,22.2-6.4,58.1-52.1,58.1
		c-39.5,0-60.6-12.9-60.6-40c0-1.8,33,3.4,40-3.6c15.8-15.8,0-43.9,0-67.9c0-45,68.1-15.7,87.2-15.7
		C2174.5,1502.4,2215.1,1616.5,2203.4,1644.2 M1556.3,1669.8c-45-11.7-55.4-54.9-80-87.4c-3.7-4.9-20.8-43.3-40-25.4
		c-12.3,11.4,19.2,39,7.3,50.9c-7.6,7.6-33.3-28.4-40-36.3c-9.2-10.9-36.2-36.9-25.4-43.6c-4.1,2.6,66,0,65.4,0
		c38.8,3.1,28.8,9.1,40,36.4c8.5,20.6,16.8,42.8,36.3,50.9c28.8,11.9,61.8-14.5,61.8,28.9
		C1581.7,1657.7,1565.3,1664.7,1556.3,1669.8 M1447.3,1677.1c-37.7-4-73.8-60.2-101.8-80.1c-12.5-8.9-159.7-55.4-87.2-80
		c21-7.1,87,49.8,105.4,65.4C1393.6,1607.7,1431.7,1638,1447.3,1677.1 M1254.6,1680.7c-37-4.5-3.5-15.1,3.7-25.5
		c5.8-8.3,20.3-65.6,27.2-65.6C1310.1,1589.7,1262,1673,1254.6,1680.7 M2214.3,1698.8c-22.4-1-30.4-56.7-40-72.8
		c-4.9-8.1-9-21.8-18.1-25.4c-24.3-9.8-6.4,2.8-21.8,18.2c-33.9,33.9-166.6,35.1-130.9-43.6c15.3-33.6,9.5,4.5,25.5,0
		c36.7-10.4,12.1-9.8,10.9-32.7c-3-58.2,22-69.1,77.4-69.1c47.5,0,97.1,68.8,97.1,114.5C2214.3,1613.8,2237,1677.2,2214.3,1698.8
		 M636.6,1702.5c7.4-14.6,32.7-67.9,32.7-80.1c0-2.9,16.2-25.5,18.2-25.5c12.8,0,15.6,21.7,21.8,29.1
		c41.9,49.6,169.2,14.8,123.6-65.4c-10,5-25.9,22.4-36.4,14.5c-9.2-6.9,0-47,0-63.6c0-41.6-82-40.1-109-23.6
		c-24.8,15.1-34,34.6-47.2,61.8C633.6,1563.1,585.7,1709.6,636.6,1702.5 M1374.5,1702.5c-24.1,0-89.4,8.3-101.8-7.3
		c-11-13.9,10.4-16.6,14.5-25.4c14.9-32,5.8-82,47.3-58.3c18.1,10.3,38.1,29.8,54.5,43.8c3,2.6,24.4,19.4,25.4,21.8
		C1424.9,1702.4,1399.3,1691.8,1374.5,1702.5 M1516.3,1738.8c-53-3.4,28.6-40.7,43.6-47.3
		C1546.5,1708.5,1532.5,1724.7,1516.3,1738.8 M916.4,1782.4c-40.5-0.3,8.1-37.4,18.2-43.6c31.8-19.7,67-21.8,123.6-21.8
		C1040.2,1762.6,960.3,1762.1,916.4,1782.4 M1941.7,1782.4c-36.4-3.3-74-15.2-101.8-29.1c-13.1-6.5-49.6-32.7-58.2-32.7
		c-15.7,0,12.9-10.9,22.8-10.9c18.1,0,45.1,1.2,57.2,3.7c17,3.4,24.9,7.8,36.4,14.5C1916.5,1738.8,1940.9,1754.8,1941.7,1782.4
		 M1323.7,1807.9c-14.4,0.7-22.9-0.5-29.1-7.3c13-28.4,82.9-60.9,112.7-72.7C1401.2,1760.3,1348,1791.3,1323.7,1807.9 M1480,1822.4
		c-40.4-9.1,34.1-50.9,50.9-54.5C1521.4,1794.8,1497.8,1804.2,1480,1822.4 M803.8,1840.6c20.7-22.3-52.2-27.3-69.1-32.7
		c-24.4-7.7-46.4-13.3-58.1-32.7c-18.8-31.1-7.3-77.7-7.3-112.7c0-34.4,28.6-16.8,40-7.3c19.9,16.7,30.1,32.7,69.1,32.7
		c19.5,0,72.7-12,72.7-32.8c0-5.6,7.1-40.5,10.9-51c10.2-28,13.9-22,36.3-25.5c24.1-3.8,43.2-3.7,50.9-32.7
		c-82,14.8-60-49.4-98.1-94.5c-33.6-39.7-144.7-72.9-210.8-40c-47.8,23.8-83.6,63.2-83.6,134.5c0,60.9,17.7,4.6,29.1-18.2
		c5.8-11.5,22.1-54.5,36.3-54.5c6.3,0,1.4-2,7.3-3.6c12.1,26.8-34.3,67.2-43.6,90.9c-19.2,48.6-28.6,111.8-3.6,163.7
		c12.8,26.6,38.4,56,61.8,72.7C678.4,1821.6,742.5,1849.2,803.8,1840.6 M2058,1840.6c54.8-14.5,96.7-20.3,134.5-47.2
		c18.6-13.3,61.8-48.1,61.8-76.3c0-19.2,20.8-45.1,21.8-69.2c1.3-30.5-10.5-68.3-21.8-90.9c-11-22-58.1-64.8-47.2-90.9
		c33.9,9.7,56.8,76.5,69.1,109.1h7.3c-8.5-69.9-10.9-111.5-50.9-145.4c-14.2-12-26.9-18.6-47.2-25.4c-39.4-13.2-93.4,3.6-127.2,3.6
		c-22.5,0-80,39.2-80,61.8c0,30.3-40.2,104.3-83.6,72.7c-13.1,42.5,35.5,22.4,65.4,36.4c14.2,6.6,15.6,54,29.1,72.8
		c32.8,46,104.2,35.6,141.8,3.6c8-6.8,36.3-37.1,36.3,0c0,35.8,10.6,82.9-7.3,112.7c-10.8,18-23.4,28.1-43.6,36.4
		c-17.8,7.3-34.8,4.9-54.5,10.9c-7.9,2.4-29.1-1.5-29.1,12.7C2032.6,1840.1,2044.5,1843.2,2058,1840.6 M622,1844.2
		c-7.1-2.6-5.1-5.7-14.6-7.3c4-12.4,8.7-22.4,10.9-36.4c16.1,5.7,22.6,15.9,40,21.8C653.9,1839.2,633,1834.6,622,1844.2
		 M1629,1858.8c-16.3-8.1-48.5-4.3-61.8-7.3C1577.9,1823.2,1622.6,1831.9,1629,1858.8 M1538.1,1869.7c10-22.9,26.4-54.5,58.1-54.5
		c21.7,0,47.2,35.8,40-14.6c-1.6-11.2-16.3-32.7-29-32.7c-9.2,0-25.5,11.6-25.5,25.4c0,10.9-29.9-14.5-32.7-14.5
		C1524.5,1778.8,1508,1867.8,1538.1,1869.7 M1949,1869.7c-20.9-2.9-24.2-10.9-32.7-25.5c16.2,1.1,25.2,3.9,40,7.3
		C1954.8,1859.1,1953.1,1864.7,1949,1869.7 M901.9,1876.9c-39.4-2.6-5.3-28.1,21.8-29.1v7.3C912.7,1859.1,905.6,1866.6,901.9,1876.9
		 M1800,1887.9c15.4-20.4,1.3-64.9,7.3-87.3c34.4,18.1,61.1,50.4,98.2,65.4c0.9-3.6,1.5-4.7,3.6-7.3c-15-9.8-44.6-29.4-36.4-50.9
		c11.9,4.4,70.2,39.7,83.6,21.8c22.3-29.7-68.8-44.4-80-47.3c-22.3-5.6-63.7-29.1-76.3-29.1c-20.2,0-28.7-34.2-43.8-40
		c-32.1-12.2-112.3,6.4-149,14.5c-7.2,1.6-16.5,13.4-25.5,14.5c-23.2,3-55.9-14.4-40,14.5c19.3,35.1,42.9-11.9,61.8-10.9
		c16.1,0.9,37.5,26.6,43.6,40h7.3c-9.1-45.7,3.7-43.6,29.1-18.2c7.8,7.8,14.7,17,21.8,25.4c17.1,20.3,18.2,40.9,18.2-16.9
		c0-26.2-11.1-19.5,14.5-19.5c5.8,0,21.8,17.5,25.5,21.8c4.7,5.5,18.3,21.2,18.3,29.1C1781.8,1820.1,1786.5,1887.1,1800,1887.9
		 M1050.9,1891.5c0-60.8,4.7-84.7,32.8-112.7c3.5-3.5,17.8-25.4,21.8-25.4c32.7,0,3.9,41.2,14.5,65.4
		c11.4-18.6,88.1-118.2,69.1-32.7c15.2-18.6,42.9-47.6,65.4-36.4c23.9,11.9-3.4,27.6,32.7,18.2c3.6-0.9,32.7-21.6,36.3-25.4
		c-28.9-13.7-97.2-10.2-127.2-14.5c-37.5-5.4-94.1-14.7-123.7,0c-29,14.4-43.9,37.6-83.6,50.9c-23.1,7.7-55.6,21.8-83.6,21.8
		c-15.1,0-21.8,11.6-21.8,25.5c0,19.1,38.5,0,45.4,0c16.6,0,49.1-32.7,34.5,3.6c-6.8,17.1-22.8,19.2-29.1,36.3
		c27.5-11.1,46.6-28.1,69.1-43.6c10.6-7.3,32.7-35.2,32.7,0.7C1036.4,1849.2,1025.1,1882.8,1050.9,1891.5 M1912.6,1895.1
		c-27.6,5-43.6-13.4-47.3-32.7c15.5,9.7,28.7,19.1,50.9,21.8C1916.2,1892.1,1914.4,1889.5,1912.6,1895.1 M952.8,1902.4
		c-17.4,0.9-26.4-1.1-36.4-7.3v-7.2c24.3,1.2,36.2-11.7,54.5-18.2C969.5,1885.8,962.4,1894.8,952.8,1902.4 M2221.6,1946
		c-8.3-2.7-6.8-69.6-14.6-90.9c39.9,13.1,25.5-21.8,41.8-21.8c15.4,0,16.3,43.6,16.3,59.7C2265.2,1920.3,2235.9,1931.8,2221.6,1946
		 M629.3,1949.6c-25.6-8.7-92-69.8-43.6-105.4c17.1-12.6-1.3,3.6,14.5,10.9c12.2,5.6,23.5-0.5,29.1,18.2
		c0.5,1.6-10.9,29.5-10.9,40.6C618.4,1926.3,626.2,1936.5,629.3,1949.6 M2178,1964.2c-21.9-6.9-21.6-32.6-18.2-58.2
		c-15.8,3-55,5.2-76.3-3.6c-15.4-6.3-25.1-27-43.6-18.2c-14.8-37.7,49.5-36.3,76.4-36.3c34.7,0,30.8-26,58.1-3.6
		C2211.6,1874.8,2203.1,1928.5,2178,1964.2 M669.3,1967.8c6.8-11.6,9-21.6,14.6-36.3c12.7-33.9-5.6-18.2,36.3-18.2
		c34.1,0,50.4-21,72.7-32.7c1.9,1.4,5.3,5.4,7.3,7.3c16.7-41.5-55.5-31.8-80-40c-29.5-9.8-38.5-16.4-58.2,0
		C627.2,1876.9,634.8,1944.5,669.3,1967.8 M1240.1,2029.6c-8.9-0.5-13.4,0.2-18.2-3.7c22.9-26.8,49.3-53.5,76.3-76.3
		c23.3-19.8,103.9-69.6,149-54.5c49.3,16.4-17.8,36.4-45.7,36.4c-39.4,0-59.4,9.6-81.5,25.4
		C1289.7,1978.6,1267.8,2005.9,1240.1,2029.6 M1280.1,2033.2c28.4-11,77.4-61.8,101.8-61.8c11,0,8.8-15.6,25.4-14.5
		c4,0.3,19,16.5,25.4,18.2c45.1,12.1,77.9-9.2,94.5-29.1c18.1-21.7,8.9-23.8-3.6-47.3c-9.4-17.6-14.5-20.2-14.5-53.5
		c0-36.6-12.1-7.6-29.1-8.3c-85.8-3.7,13-65,29.1-80c-40.1-1.9-29.3-34.5-10.9-50.9c21.2-18.8,38.6-6.4,25.4-32.7
		c-14.6-29.3-46.4-52.3-61.8-87.4c-3.7,7.5-16,53.1-14.5,61.8c1.4,8,18.1,18.7,18.1,31c0,24.2-36.3,37.8-36.3,56.3
		c0,10.6-35.4,40.3-43.6,47.2c-27.8,23.6-38.8,22.7-36.4,72.7c1.8,36.7-10.7,35.9,25.5,36.4c21,0.3,43.1-19.5,72.7-14.5
		c31,5.2,46.3,37.3,21.8,58.2c-25.7,21.9-93.2,14.2-123.6,29.1c-22.6,11-33.4,25.3-50.9,40C1284.5,2012.7,1256.9,2023,1280.1,2033.2
		 M1814.5,2073.2C1810.5,2069.2,1810.5,2069.2,1814.5,2073.2 M1320,2076.8c-22.8-4.7-138.3,12.5-130.8-14.5
		c7.7-27.8,100.3-9.9,123.6-21.8c13.5-6.9,40.2-36.3,54.5-36.3c8,0,16.9-16,25.4-18.2c21.6-5.4,26.1,8.7,43.6,10.9
		c39,4.9,84.8-9,101.8-29.1c3.7-4.3,10-27.6,14.6-29.1c25.2-8.5,20,21.2,10.9,36.4c-11.5,19.1-49,36.3-77.6,36.3
		c-60.8,0-83.4-4.9-115.1,21.8C1354.7,2046.9,1335,2061.6,1320,2076.8 M1785.4,2109.6h-241.1c-42.2,0-109.8,0.2-129.8,0
		c-54.1-0.6-354.7,19-360-10.9c82.7-11.2,180.2-3.6,280.2-3.6C1384.8,2095,1784.7,2077.5,1785.4,2109.6 M1167.4,2149.5
		c-22.8-8.5-58.3-3.6-81.8-3.6c-44.1,0-34.5-14.6,11.9-14.6c106.4,0,183.7-3.6,306.1-3.6C1398,2176.1,1208.2,2131,1167.4,2149.5
		 M1781.8,2149.5c-50.2-14.8-332.8,25.4-338.2-21.8h209.6C1680.1,2127.8,1802.6,2110.3,1781.8,2149.5 M1363.7,2185.9
		c-52.8-17.5-145.3,0-199.3,0h-95.8c-22.4,0-13.9-18.2,3-18.2c59.3,0,131.4-3.7,164.7-3.6
		C1273.2,2164.2,1371.8,2151.2,1363.7,2185.9 M1778.1,2185.9c-51.4-17.2-140.7-3.7-199.7-3.7h-93.5c-3.4,0-21.1,1.4-8.5-10.9
		c25.1-24.6,140.3-7.3,181.1-7.3C1680.9,2164.1,1813.3,2150.6,1778.1,2185.9 M1916.3,2196.8c-19.8-81.3,53.1-84.4,50.9-170.8
		c18.8,5.3,67.1,93.4,98.1,54.5c9.2-11.5-12.9-56.4-18.2-72.7c-12.4-38.2-19-87.5-21.8-138.1c-5.5,2-58.4,152.3-79.9,130.8
		c-9.5-9.5,29-61.7,32.7-69c13.4-26.7,29.2-55.9,32.8-94.5c6.6-71.9-36.5-111.1-72.7-141.8c-15.8-13.4-39.5-36.4-66.6-36.4
		c-71.5,0-131.1,21.8-190.9,21.8c-40.9,0,6.6-34,6.6-51c0-26.8,13.2-54.1-18.2-65.4c1.1,21.1,12.5,72.3-3.6,83.6
		c-17.1,12-14-16.4-25.4-21.8c-19-9-18.2,2.5-18.2,35.8c0,22.1-3.8,44.3-25.7,44.3c-34.2,0-35.4,14.5-5.2,14.5
		c12,0,35.1-11.4,56.4-14.5c58.4-8.5,123.4-14.6,183.7-14.6c67.4,0,116.3,39.5,132.7,90.9c14.7,46,13.3,81.2-14.6,105.4
		c-18,15.8-39.2,31.4-69,25.5c-1.4-0.3-16.3-16.1-18.2-18.2c-32.6,62.2,113.5,76.7,25.5,120c-33.4,16.4-81.4-18.5-61.8,25.4
		c12.3,27.6,38.5,32.3,61.8,14.5C1902.2,2094.7,1850.7,2193.4,1916.3,2196.8 M938.2,2200.5c16.9-16.1,14.7-138.1,14.5-138.1
		c12.5,0,28.1,17.5,47.2,3.6c10.4-7.5,16.7-31.7,18.2-47.2c-34.6,23.7-87,5.9-101.8-29.1c15.1-14.4,33.6-24.1,47.3-40
		c10.1-11.9,18.2-13.1,18.2-37c0-18.9-25.7,10.9-29.1,11.6c-17.7,3.5-69.1-20.4-69.1-32.7c0-13.4-18.2-13.3-18.2-38.2
		c0-29.5,14.5-52.6,14.5-76.3c0-54.1,92.1-78.2,150.2-78.2c109.9,0,234.5,40.7,355.2,21.8c-65.5-21.1-140.5,13.8-167.2-50.9
		c-1.6-3.9-18.2-60.4-18.2-43.8c0,7.7-14.5,16.2-14.5,25.5c0,23.9-16.1-8.3-18.2-14.6c-6.3-19.1,4.6-48.1-3.6-65.4
		c-30.7,14.8-18.6,52.8-7.3,76.3c16.5,34.5,26,36.5-13.8,36.5c-59.1,0-121.5-23.1-182.5-7.2c-23.2,6-51.9,32.7-69.1,32.7
		c-8.3,0-43.6,37.8-43.6,47.3c0,11.2-14.5,27.3-14.5,41.3c0,34.7,2.6,60.2,10.9,86c7.5,23.5,22,51.8,32.7,72.7
		c4.8,9.4,14.5,26.3,14.5,36.4c0,22.3-25.5,4.4-25.5-7.3c0-21.4-25.4-42-25.4-61.8c0-6.5-10.4-46.8-14.5-50.9
		c-18.8-18.7-14.5,20.7-14.5,47.5c0,44-25.4,85.6-25.4,116c0,14.6-36.3,58.2-0.7,58.2c27.9,0,42.3-17.5,55.2-32.7
		c18.9-22.3,36.3-45.6,36.3,12.7c0,38.5,87.7,69,47.3,121.8C927.6,2200.3,930.6,2200,938.2,2200.5 M1349.1,2222.2
		c-33.7-2.5-80.3-3.7-109-3.6c-34.4,0.1-89.1,3.6-129.9,3.6c-7.9,0-45.7,5.6-52,0c-9.5-8.5-5.4-18.2,9-18.2c77,0,173.6,3.8,238.3,0
		C1311.3,2203.7,1394.9,2197.6,1349.1,2222.2 M1781.8,2222.2c-49.3-14.3-292,26.3-298.2-21.8c50.7,0,96.8,1.3,123.6,0
		c44.5-2.1,89.6,0,134.1,0C1765.6,2200.5,1796.3,2194.7,1781.8,2222.2 M716.5,2240.4c-12.5-4.3-101.8-39.9-101.8-47.2
		c0-11.6-21.8-35.2-21.8-55.5c0-45.7,3.1-67.9,18.2-93.6c16-27.2,38.6-38.5,61.8-58.1c13.8-11.6,13.1-40.4,25.4-50.9
		c12.7-10.8,60.6-12.8,76.3-18.2c-25.5,39.7-66.6,61-101.8,90.9c-14.5,12.3-43.6,35.5-43.6,60c0,65.3-6.6,94.5,69.1,81.8
		c-7.2,13.8-27,25.9-18.2,43.6C690.6,2213.9,718.2,2198.5,716.5,2240.4 M2134.4,2240.4c-28.5-7.8,1.9-50.9,18.2-50.9
		c25.4,0-7.9-35.2-10.9-43.6c110.7,27.1,67.5-103.4,32.7-138.1c-28-28-98.7-48.8-105.4-94.5c9.5,2.2,11.9,6.8,21.8,7.2
		c-0.9,0,45.4,6,47.2,7.3c5.2,3.7,20,40.8,25.5,47.3c19.5,23,43.5,36.2,61.8,61.8c10.4,14.5,21.9,30.8,21.9,55.8
		c0,37.5-18.2,72.6-18.2,93.2C2228.9,2209.1,2148,2216.4,2134.4,2240.4 M1429.1,2247.7c-3.4-1.1-54.5-40-54.5-27.2
		c0-22.4,22.8-30.6,3.6-56.3c43.6,9,22.2-26.6,47.2-29.1c-3,0.3,21.2,29.1,36.3,29.1c-21.1,21.8,6.6,26,3.6,43.6
		C1462.2,2226.7,1432.7,2220,1429.1,2247.7 M1400,2258.6c-46.2-7.3-93.9,0-136.8,0h-170.9c-21.4,0-58.6-18.2-25.1-18.2h242.6
		c22.1,0,37.2,2.3,53.9,3.7C1381.1,2245.5,1412.3,2234,1400,2258.6 M1785.4,2258.6c-77,0-173.1-3.6-232.7-3.6
		c-14.1,0-116,8-105.4-7.3c18.6-26.9,135.1-10.9,168.7-10.9C1643.4,2236.8,1804,2219.8,1785.4,2258.6 M1134.7,2295
		c-19.5,0-80.1,10.8-80.1-10.9c0-15.2,74.5-7.3,91-7.3C1144.3,2286.2,1140.7,2290.7,1134.7,2295 M1407.2,2295H1235
		c-15.1,0-83.7,3.4-67.6-14.6c17.5-19.5,133.7-3.6,163.2-3.6C1353.4,2276.7,1435.3,2264.7,1407.2,2295 M1676.2,2295
		c-39.6,0-159.5,14.1-178.1-3.7c-17.3-16.5,10.9-14.6,23.1-14.6h117.5C1664.2,2276.7,1705.4,2271.3,1676.2,2295 M1785.4,2295
		c-27.7,0-114.8-0.4-61.9-21.8C1740,2266.4,1796.8,2269.5,1785.4,2295 M1080.1,2331.3c-32.8,7.6-41.2-23.5,0-18.2
		C1073.1,2322.4,1081.9,2320.8,1080.1,2331.3 M1356.4,2331.3c-28.8-20-13.9,0-51.1,0c-32.3,0-89.6,11.6-83.4-18.2h145.4
		C1364.4,2319.3,1361.2,2326.9,1356.4,2331.3 M1618.1,2331.3c-19.5,0-140,2.7-90.9-21.8C1544.8,2300.7,1631.6,2303.8,1618.1,2331.3
		 M1785.4,2331.3c-20.3,3.1-26.5-7.2-25.6-21.8c9.1,0,17.1-0.8,21.9,0C1789.7,2316,1788.7,2321,1785.4,2331.3 M1098.3,2367.8
		C977.8,2367.8,1130.9,2331.3,1098.3,2367.8 M1345.4,2367.8c-36.5,0-136.7,17.6-141.7-18.2
		C1247.2,2349.6,1331.4,2334.3,1345.4,2367.8 M1636.2,2367.8c-21.4,0-105.4,5.6-105.4-10.9c0-15.1,108-10,116.3-3.7
		C1644.7,2359.6,1641.2,2364,1636.2,2367.8 M1781.8,2367.8c-21.7,4.6-36.1-4.8-40.1-18.2C1758.4,2342.3,1803.7,2347,1781.8,2367.8
		 M1076.4,2404.1C1004.6,2410.3,1112.4,2364.9,1076.4,2404.1 M1418.2,2404.1c-41.6,0-95.8-3.6-130.9-3.6c-8.8,0-81.8,3.4-54.5-14.6
		c12.8-8.4,71.2,0,88.4,0C1345.8,2386,1434.9,2371.4,1418.2,2404.1 M1614.4,2404.1c-18.6,0-90.9,9.6-90.9-9.1
		c0-18.8,82.2-9.1,101.8-9.1C1624,2395.8,1620.4,2399.4,1614.4,2404.1 M1785.4,2404.1h-18.2
		C1769.2,2382.1,1791.4,2380.3,1785.4,2404.1 M1160.1,2415c-24.1-8.2-15.3-33.8-54.5-21.8c5.8-14.8,10.4-19.5,14.5-36.3
		c-0.9,3.8-1.4-24.4-7.3-14.5c8.7-14.5,13.7-1.6,18.2-7.4c0.9-1.1,19.4-33,18.2-32.7c22-4.4,8.5,33,47.3,25.4
		c-17.5,22,6.6,36.3,3.6,47.4C1194.7,2394.9,1167.2,2392.1,1160.1,2415 M1701.7,2415c-20.1-7.9-19.6-38.5-54.5-21.8
		c1.7-24,25.9-41.2,3.6-61.9c39.6,6.4,21.9-23.3,39.9-25.5c21.3-2.6,8.1,28.1,43.7,21.8c-10.8,20,9.3,41.9,7.2,47.4
		C1734.1,2395,1708.7,2389.2,1701.7,2415 M1141.9,2440.5c-18.1,0-73.6,10.1-87.4,0c-14.5-10.7,8.4-14.5,19-14.5
		C1087.7,2425.9,1142.4,2407.2,1141.9,2440.5 M1225.6,2440.5c-101.9,0-36.4-31.4,10.9-14.5
		C1233.9,2432.4,1230.5,2436.7,1225.6,2440.5 M1396.4,2440.5c-32.3,0-52.9-0.5-69.1-14.5c28.8-5.7,53.1-5.6,87.2-3.7v7.3
		C1404.6,2431.7,1403.3,2437,1396.4,2440.5 M1683.5,2440.5c-27.6,0-163.6-1.8-163.6-7.3C1519.9,2417.4,1686.4,2402.6,1683.5,2440.5
		 M1785.4,2440.5h-72.2c-9.7,0-4-18.2,3.5-18.2C1742.6,2422.3,1798.8,2410.2,1785.4,2440.5 M1523.6,2476.8h-14.5
		C1513.7,2460.2,1531,2450.4,1523.6,2476.8 M1080.1,2480.4c-24.7,4.7-42.4-18.2-12.5-18.2h109c38.1,0,75.7-0.9,96.1,14.5
		C1216.9,2476.8,1127,2461.9,1080.1,2480.4 M1781.8,2480.4c-31.9-8.8-81.1-3.6-119.1-3.6c-10.7,0-72.2,2.6-48.2-18.2
		c18.6-16.1,118.7,0,144.3,0C1784,2458.6,1796.7,2463.5,1781.8,2480.4 M1414.5,2509.5c-25.7-1.4-12.3-54.2,0-50.9
		C1427.9,2462.2,1420,2502.4,1414.5,2509.5 M1334.6,2513.2h-172.1c-15.4,0-124.2,4.2-108-10.9
		C1077.6,2480.8,1332.8,2491.1,1334.6,2513.2 M1516.3,2513.2c-7.2-2.3-10.2-2.7-14.6-7.3C1511,2489.4,1529.8,2495.6,1516.3,2513.2
		 M1785.4,2513.2c-66,0-107.7,0.5-171,0c-16.3-0.1-59.2,1.8-36.3-10.9c31.7-17.6,82.8-3.7,125.2-3.7
		C1720.4,2498.6,1795.6,2484.5,1785.4,2513.2 M1483.6,2516.8c-54.5,6.2-12.8-37.9-40-47.2c-23.3-8,1.9,47.2-27.9,47.2
		c-62.7,0-71.2-20.1-99.3-50.9c-18.6,9-108.6-32.1-50.9-43.6c40.7-8.2,54.9,40,87.2,40c17.6,0,22,11.7,43.6,3.6
		c5.6-2.1,29.4-19.9,32.7-25.5c30.9-51.6-3.5-105.5-47.2-112.8c42,0.9,43.7-59.7,94.5-36.3c-0.5-0.2,25.4,43.3,25.4,45.5
		c0,7.9,10.4,13,10.9,16.4c1.5,11.1-3.6,9.3-3.6,20c0,14.7,3.2,67.8-7.3,78.1c-26.1,25.7-22.9-19.9-36.4-29.1
		c-19.9-13.6-3.3,47.2,0,54.5C1470.3,2487.5,1507.8,2495.1,1483.6,2516.8 M1549,2516.8c-22.9-7.8-11.9-86.9,36.4-58.1
		c18.7,11.1,11.9,21.8-14.3,21.8C1552.8,2480.4,1550.3,2501.6,1549,2516.8 M1785.4,2578.6h-276.7h-71.6h-328.5
		c-19.1,0-49.7,4.9-57.7-7.2c-21.2-31.9,15.6-36.4,33.8-36.4c149.3,0,319.5,6.9,449.7,0c39.4-2.1,97.7-3.6,138.1-3.6
		C1715.6,2531.3,1814.4,2512.9,1785.4,2578.6 M1570.8,2611.3C1494.3,2626.6,1567.2,2570.1,1570.8,2611.3 M1403.6,2614.9
		c-42.5,3-342.9,21.6-352.7-3.6c-5.9-15.2,173.8-10.9,194.8-10.9c29.1,0,158.2-15.5,165.1,10.9
		C1404.1,2609.3,1405.9,2612.9,1403.6,2614.9 M1781.8,2614.9c-26.9,0-163.7,5.2-163.7-10.9c0-7.4,78.3-7.3,90.9-7.3
		C1723.1,2596.8,1810.3,2587,1781.8,2614.9 M1618.1,2647.7c-11.3-11-17.8-29.3-25.4-43.7C1609,2609.5,1613.9,2630.2,1618.1,2647.7
		 M1141.9,2651.3c-16.9,0-84.5,8.3-91-3.6c-9.5-17.6,84.1-10.9,98.3-10.9C1147.9,2644.4,1146.1,2646.9,1141.9,2651.3 M1349.1,2651.3
		c-33.7,0-184.6,16.6-185.4-14.5h199.9C1359.6,2640.8,1353.8,2648.4,1349.1,2651.3 M1440,2651.3c-17.1-4.9-24.5-9.4-36.3-18.2
		C1423.5,2630.5,1437,2636.3,1440,2651.3 M1592.7,2651.3c-26,3.1-45.4-0.6-50.9-18.2C1566.9,2633.1,1602.6,2628.5,1592.7,2651.3
		 M1683.5,2651.3c-23.5,0-47.7,5.6-50.9-14.5c14.4-5.5,41.3-3.6,61.8-3.6C1692,2641.2,1689,2646.8,1683.5,2651.3 M1785.4,2651.3
		c-31.7,0-78.9,10.2-83.7-18.2C1726.1,2633.1,1801.1,2621.1,1785.4,2651.3 M1138.3,2658.6
		C1134.4,2654.6,1134.3,2654.5,1138.3,2658.6 M1669,2676.7c-8.5-0.4-17,0-25.4,0v-7.3C1660,2664.8,1663.7,2673.6,1669,2676.7
		 M1599.9,2684c-15.8-0.6-24.2-0.2-25.5-14.5C1595.3,2666,1608.2,2668,1599.9,2684 M1072.7,2687.6c-16.1-0.1-24.2-0.4-18.2-10.9
		c6-10.5,57.7-3.6,72.9-3.6C1111.2,2679.8,1078.6,2668.6,1072.7,2687.6 M1331,2687.6c-47.9,0-90.1-9.9-123.6-10.9
		C1226.6,2668.8,1342.9,2661,1331,2687.6 M1785.4,2687.6c-18.2-7.3-28.7-16-54.7-14.5C1749.1,2665.4,1796.8,2662.9,1785.4,2687.6
		 M1101.9,2724c-95.9,0-21.5-29,3.7-7.3C1103.2,2721.5,1103.9,2719,1101.9,2724 M1345.4,2724h-104.1c-7.5,0-51.7-2.4-30.4-14.5
		C1237.3,2694.5,1337.5,2704,1345.4,2724 M1443.6,2724c-16.1,3.5-30.7,1.5-36.4-7.3C1423.3,2713.2,1438,2715.2,1443.6,2724
		 M1643.5,2724c-1-3.1-10.9,1.8-7.3-10.9c7.9,0.5,5.2,2.1,10.9,3.6C1645.8,2719.4,1642.4,2720.7,1643.5,2724 M1785.4,2724
		C1687.8,2745,1807.7,2671.9,1785.4,2724 M1610.8,2727.6c-9.7-8.1,7.3-52,7.3-80C1629.7,2674.3,1625,2708.4,1610.8,2727.6
		 M1381.8,2738.5c1.2-0.3,4.1-5.5,10.9-3.6c-18.4-44,20.7-36.3,50.9-36.3c7.2,0,29.9,24,36.4,29.1c16.5-11.6,23.4-34.7,7.3-50.9
		c-17.8-17.8-25.3,5.2-54.6,0c-22.6-4-31-18.2-61.8-18.2c-17.4,0-23.9,31.2-10.9,40c6.1-1.9,1-2.2,7.3-3.7
		C1367.3,2716.7,1357.6,2738.2,1381.8,2738.5 M800.1,2742.2c3.9-19.5-43.6-69.1-43.6-109c0-16.7,14.9-52.2,29.1-54.5
		c20.9-3.5,27.1,25.2,47.3,29.1c-13.4-38.8-3.6-109-3.6-153.3c0-25.2-20.6-43.2-32.7-57.5c-8.4-9.9-42.6-29.8-29.1-47.3
		c20.9-26.9,86,13.5,109,3.7c-4.9-8.5-19.2-25.6-30.9-25.6c-34.5,0-18.1-33.6-16.4-58.1c-18.5,7.3-21.9,27.3-40,36.3
		c-27.6,13.8-81.9,9.6-101.8-7.2c-10.4-8.8-19.5-50.9-34.5-50.9c-12,0-24.2,95.8-27.3,112.9c24.4-6.4,25.6-21.9,43.6-32.9
		c11.5,26.7,21.4,64,18.2,94.6c-0.9,8-11.1,43.3-10.9,43.6c4.5,5.9,25.4-0.6,25.4-7.3c0-6.4,13.2-19.5,14.6-25.5
		c5.4-24.3-7.9-48-3.7-69.1c8.2-40.9,26.9-4.2,40,10.9c27.3,31.5,55.4,101.9,18.2,145.4c-5.6,6.6-8.4,18.2-20,18.2
		c-25.5,0-21.9,12-27.3,21.8c2.4-4.4-1.7,24.9-3.6,29.1c-5.4,11.6-17.7,8.3-18.2,32.7c6.4-1.5,27.3-15,29.1-14.5
		c26.8,7.3,7.3,39.7,7.3,65.4C738.3,2717,754.4,2743.8,800.1,2742.2 M2061.7,2742.2c21.4-6.9,28-12.7,36.4-32.7
		c6.5-15.7,8.2-39.2,7.3-61.8c0.2,4.2-6.4-22.7-7.3-18.2c6.3-31.4,4.8-10.2,18.2-18.2c7.2-4.3,25.5,20.1,25.5,0
		c0-15.1-10.8-16.8-14.5-25.4c-8.7-19.9-15.2-18.8,0-43.6c-108,3.8-73.5-150.6-21.8-185.4c29.5-19.9,18.2-1.4,18.2,40
		c0,24.5,4,59.5,21.8,65.4c31.8,10.6,4.4-47.1,7.3-76.3c1.8-18,11.1-53.8,25.4-61.9c4.7,17.6,16.9,33.5,40,32.9
		c-4.2-14.5-19.4-112.8-29.1-112.8c-13.5,0-28.6,46.5-40,54.5c-29.6,20.8-86.9,11.4-109.1-7.3c-35.3-29.9-18.2-25-18.2,16.4
		c0,22.5-54.5,17.8-54.5,41.9c0,14.3,91.3-22.4,105.4,3.6c9.8,18.1-30.5,37.3-40,50.9c-20.6,29.5-26.7,76.7-21.8,130.8
		c2.3,25.5,8.3,44.6,0,69.1c23.6-3.3,25.1-27.2,47.2-25.4c10.6,0.8,27.5,29.9,29.1,40c7,44.3-27.8,95.6-47.3,120
		C2050.3,2740.2,2051,2742.1,2061.7,2742.2 M1789.1,2756.7C1746.7,2756.8,1783.5,2727.1,1789.1,2756.7 M1083.8,2760.3
		C995.4,2785.9,1112.4,2712.2,1083.8,2760.3 M1349.1,2760.3c-42.1,0-92.6,4.5-123.5-7.3v-7.3C1257,2745.8,1344.1,2731,1349.1,2760.3
		 M1458.2,2760.3c-31.3-1.5-14-24.1,7.2-14.6C1464.1,2753.4,1462.4,2756,1458.2,2760.3 M1621.7,2760.3h-10.9v-7.3
		c6-5.3,9.7-7.9,18.2-10.9C1628.6,2754,1625.7,2753.2,1621.7,2760.3 M1701.7,2778.5c-18.5-11-15.7-33.8-54.5-25.5
		c11.3-16.1,25.7-37.8,7.3-54.5c37.1,4.7,22.2-27.9,47.2-32.7c-0.9,18.4,9.7,30.8,32.7,25.4c-14.6,26.7,2.4,40.3,10.9,61.8
		C1717.2,2749.1,1706.1,2759.8,1701.7,2778.5 M1160.1,2782.1c-14-4.7-5.9-12.1-14.5-18.2c-2.1-1.5-38.5-11.1-36.4-7.3
		c-8.4-15.2,20.6-34.2,7.3-58.1c23.7,10.1,27.5-19.5,43.6-29.1c1.1,16.8,10.5,28.9,32.7,25.4c-13.5,24.2,1.2,38.7,10.9,58.2
		C1170.8,2744.5,1168.1,2766,1160.1,2782.1 M1472.7,2796.7h-47.3C1433.6,2778.4,1464.5,2778.4,1472.7,2796.7 M1679.9,2796.7h-101.8
		C1580.4,2771.1,1679.6,2771.8,1679.9,2796.7 M1138.3,2800.3h-80.2c-9.8,0-9.8-18.2,0.6-18.2
		C1086.5,2782.1,1148.6,2772.7,1138.3,2800.3 M1345.4,2800.3c-18-4.1-55.7,0-76.3,0c-12.1,0-105.3,8.8-94.5-14.6
		c6.8-14.8,120.7-3.6,139.7-3.6c9.8,0,53-6.2,53,5.4C1367.3,2794.6,1349.4,2799.9,1345.4,2800.3 M1781.8,2800.3
		c-19.9-5.1-101.8,0.1-51-18.2C1748.5,2775.8,1805.5,2776.1,1781.8,2800.3 M1389.1,2833H1331v-7.3c45-6.3,67.2-30,65.4-80
		c26,4.7,29.3,10.3,21.8,32.7C1415.3,2787.2,1396,2823,1389.1,2833 M1516.3,2833c-17.2,0-127.8,6.3-105.4-14.5
		C1429.4,2801.2,1510.6,2816.9,1516.3,2833 M1261.9,2836.7c-34.7-16.4-200.1,26.3-214.6-10.9c23.9-25.3,145.9-7.3,186.3-7.3
		c16.1,0,69.2-9.4,82.9,0C1334.9,2831.1,1260.5,2837.2,1261.9,2836.7 M1774.5,2836.7c-35-14.5-181.4,20.6-189.2-18.2
		c71.2,0,158.8-19.4,203.7,3.6C1786.3,2829.9,1781.4,2833.5,1774.5,2836.7 M1381.8,2873c-35.6,0-334.6,4-334.6-9.1
		c0-13.4,145.6-9.1,168.8-9.1h160.4C1412.5,2854.8,1407,2872.9,1381.8,2873 M1534.5,2873c-27.7-8.2-84.2,14.1-94.5-18.2
		c31.1,0,102-13.4,109,14.5C1541.9,2867.6,1535.8,2872.6,1534.5,2873 M1781.8,2873c-26.4-7.4-66.7-3.6-98.9-3.6h-64.3
		c-12,0-12.2-14.5-0.3-14.5h151C1790.3,2854.8,1792.4,2861.6,1781.8,2873 M1363.7,2909.4h-236.6c-12.2,0-66.5,8.3-76.2,0
		c-24.4-21.2,34.6-18.2,45.9-18.2C1136.2,2891.2,1355.9,2869.7,1363.7,2909.4 M1541.8,2909.4c-13.6-6.4-69.1,0.5-58.2-10.9
		C1496.3,2885.1,1578.8,2885.2,1541.8,2909.4 M1781.8,2909.4c-36.7,0-86.4-3.8-116.5-3.7c-6.4,0-83.4,8-58.1-10.9
		c22.3-16.8,104.9-3.7,136.9-3.7C1768.2,2891.2,1802.1,2887.6,1781.8,2909.4 M1519.9,2934.8
		C1493.7,2928.5,1513.6,2908.5,1519.9,2934.8 M1552.7,2938.4h-18.2c38.7-21.9,48.3-62.5,18.2-98.1c-8.9-10.5-72.7-56.2-72.7-65.4
		c0-32.8,60-57.6,29.1-109.1c-17.2-28.6-62.8-28.9-80-61.8c15.8,0,65.8-6.4,72.7-3.6c22.3,9.1,12,8.7,21.8,32.7
		c8.4,20.5,13.2,25.6,25.4,40c20.4,24.1,47.2,48.5,32.7,87.2c-7.9,21.2-23.9,18.4-18.2,50.9c2.8,16.1,21.2,28.8,25.5,40
		C1604,2890.8,1572.7,2913.5,1552.7,2938.4 M1356.4,2945.7h-238.1c-52.2,0-109.3-18.2-24.2-18.2h273.2
		C1364.9,2935.5,1361.9,2941.3,1356.4,2945.7 M1778.1,2945.7c-55.3-19.1-144.6-3.6-203.7-3.6c7.7-25.1,64.3-14.6,94.3-14.6h101.8
		C1792,2927.5,1786.1,2937,1778.1,2945.7 M1429.1,2974.8c-15.3-4.8-8.6-13.4-18.2-18.2c-0.4-0.2-34.8-7.1-32.7-3.6
		c-11-18.3,28.4-32.7,3.7-54.5c17.5,0.1,36.3-11.3,36.3-29.1c0-2.2,24.9,25.3,43.6,21.8c-16,24.6,7.3,31.8,7.3,49.1
		C1469,2944,1434.2,2963.1,1429.1,2974.8 M1400,2982c-47,0-340.3,17.9-345.5-10.9c-2.2-12.3,179.8-7.3,210.5-7.3h61.9
		c13.5,0,19.7,11,18.5,10.9c16.9,1.5,31.4-5.7,58.2-3.6C1403.5,2978.5,1402.3,2977.2,1400,2982 M1763.5,2982
		c-47.1-8.9-107.6-0.2-152.7,0c-47.8,0.2-95.5,0-143.3,0c-46.6,0,3-12.5,27-14.5c45.6-3.8,103.7-7.4,159.9-7.3
		c20.6,0,78.2-2.4,98.1,0C1765.1,2961.7,1797.1,2972.4,1763.5,2982 M1443.6,3062.2c4.9-12,14.9-26.6,25.4-32.7
		c21.2-12.3,71-13.2,101.8-14.7c60.8-2.8,123.5,11,178.1-10.9v-7.3c-78.6,10.4-175.8,3.6-260.7,3.6c-19.8,0-50.5,7.3-59.1,7.3
		c-11.7-0.1-15.3-7.3-36.6-7.3h-175.4c-46.4,0-82.7-6.1-133.3,0c28.4,42.3,200.2,18.2,260.8,18.2c28.7,0,50.8,14.6,62.7,14.6
		C1424.3,3033,1419,3060.7,1443.6,3062.2"/>
</g>
<g>
	<path class="st0" d="M464.5,3357.3c0.6,0,1.1,0.6,1.3,1.5c2.4,20.8,31,29.2,49.1,29.2c17.2,0,41.3-6.9,41.3-27.5
		c0-16.1-12.7-20.4-28.2-23.6l-23.5-4.6c-15.3-3-37.7-9.8-37.7-29.2c0-24,23.9-36.9,53-36.9c16.1,0,34.7,4.2,48.9,11.7l-5.2,15.2
		c-0.7,2-1.5,3.9-2.1,3.9c-0.6,0-0.9-1.7-1.6-3.9c-5.6-17.1-32.1-22.1-45.6-22.1c-13.6,0-31.4,5.8-31.4,24.4c0,17.8,23,21,36.1,23.6
		l22,4.1c16.6,3.1,31.3,11.5,31.3,30.1c0,29.6-38.2,39.6-59.5,39.6c-17.4,0-39.4-6-54.3-13c-1.3-0.6-1.9-0.9-1.9-1.1
		c0-0.2,0.2-0.7,0.4-1.1l6.2-18.8C463.2,3357.8,463.8,3357.3,464.5,3357.3"/>
	<path class="st0" d="M641.7,3294.2c11,0.4,28,4.4,31.9,16.5c2.6,6,3.5,7.5,4.3,7.5c0.6,0,0.9-0.4,1.3-1.7l4.7-15.8
		c-4.3-4.1-21.4-10.5-42.2-11.2c-31.1,0-54.7,20.7-54.7,51.9c0,29.5,24.2,50.4,52.9,50.4c19,0,33.2-7.9,44.8-25.2
		c0.4-0.5,0.7-1.3,0.7-2c0-0.6-0.6-2.6-1.5-2.6c-0.6,0-1.3,0.6-2.1,2.1c-3.3,5-16.2,23-38.6,23c-25.9,0-38.2-21.7-38.2-45.5
		C605,3316.4,613.7,3294.2,641.7,3294.2"/>
	<path class="st0" d="M719.1,3253.9v59.8h0.6c6.1-15.8,20.1-24.3,36.9-24.3c19.6,0,40.7,9.2,40.7,36v36.5c0,14.7,1.3,22.5,5.8,24.7
		c2.1,1.1,3.5,1.7,3.5,2.1c0,0.5-1.1,0.7-1.8,0.7c-1.9,0-7.6-0.3-13.1-0.3h-1.8c-6,0-12.9,0.3-15.5,0.3c-0.8,0-1.3,0-1.3-0.7
		c0-0.9,1.7-1.1,3.1-2.1c5.2-3.5,6.2-10,6.2-16.2V3334c0-31.6-13.6-39.8-29.5-39.8c-19.9,0-33.7,18.2-33.7,40.2v28.6
		c0,13.6,0.9,19.9,6.7,23.6c1.9,1.1,3.4,1.9,3.4,2.3c0,0.5-0.6,0.5-1.5,0.5c-2.9,0-8.6-0.3-13.7-0.3h-1.9c-5.4,0-12.3,0.3-15.5,0.3
		c-0.9,0-1.7-0.2-1.7-0.9c0-0.5,1.7-1.1,3.5-2.2c5.8-3.3,6.7-9.7,6.7-15.8v-98.2c0-5-1.5-9.2-6.7-10.1c-0.8-0.2-1.7-0.4-1.7-1.1
		c0-0.4,1.1-1.1,1.7-1.1L719.1,3253.9"/>
	<path class="st0" d="M839,3292.2v21.8h0.4c6.7-16,19.4-24.6,33-24.6c23.5,0,31.3,9.9,37.5,26.3h0.4c5-17.8,17.3-26.3,32-26.3
		c31.9,0,41.6,17.5,41.6,40.8v32.5c0,13.8,0.6,20.4,5.4,24c1.7,1.1,3.4,1.6,3.4,2c0,0.5-0.6,0.7-1.3,0.7c-2.7,0-8.4-0.3-13.8-0.3h-2
		c-6,0-12.8,0.3-14,0.3c-1,0-1.7-0.2-1.7-0.7c0-0.4,0.7-1.2,2.1-1.8c5.4-2.8,7.1-10.4,7.1-21.4v-32.3c0-30.8-14.6-39-27.2-39
		c-22,0-28.7,19.3-28.7,47.2v29c0,6.1,1.3,13.7,5.6,15.8c1.9,0.9,3.5,2.1,3.5,2.5c0,0.5-0.9,0.7-1.9,0.7c-2.8,0-8.6-0.3-14-0.3h-2
		c-6,0-12.9,0.3-14.3,0.3c-0.9,0-1.5-0.2-1.5-0.7c0-0.4,1.3-1,3-2.1c5.8-3.7,6.7-10,6.7-26.8v-34.4c0-23-14.9-31.2-25.7-31.2
		c-17.7,0-31.8,21.5-31.8,42v31.2c0,9.1,0.9,15.4,6.2,19.5c0.9,0.6,2.4,0.8,2.4,1.8c0,0.5-1.1,0.7-2.1,0.7c-1.1,0-3.2-0.3-13.5-0.3
		h-2.1c-8,0-10.3,0.3-11.5,0.3c-0.9,0-1.7-0.2-1.7-0.7c0-1,1.3-1.2,2.6-2.1c4.8-3.7,5.8-15.6,5.8-27.1v-45.5
		c0-10.4-3.2-11.7-5.2-12.8c-1.9-0.9-2.6-1.1-2.6-1.9c0-0.6,0.4-1.1,1.3-1.3L839,3292.2"/>
	<path class="st0" d="M1029.7,3292.1l-20.4,5.4c-0.7,0.2-1.3,0.4-1.3,0.9c0,0.6,0.7,0.7,1.6,1.1c3,1.6,6.2,2.2,6.2,5.9v54.3
		c0,16.6-0.6,23.4-6.9,26.4c-1.9,0.8-3.2,1.3-3.2,2.3c0,0.7,0.6,0.7,1.5,0.7c2.1,0,6-0.3,15.5-0.3h1.9c5.1,0,10.8,0.3,13.6,0.3
		c1,0,2.3-0.2,2.3-0.7c0-1-1.3-1.2-3-1.6c-4.5-1.3-7.8-10.6-7.8-31.3V3292.1 M1022.9,3260.3c-4.1,0-8.8,3.4-8.8,9c0,5.6,4.7,9,8.8,9
		c4.1,0,8.8-3.4,8.8-9C1031.7,3263.7,1027,3260.3,1022.9,3260.3"/>
	<path class="st0" d="M1106.3,3294.2c-26.7,0-35,25.4-35,47.5c0,21.6,10.2,45.3,34.5,45.3c28.5,0,38.4-22.3,38.4-47.7
		C1144.1,3313.7,1133.9,3294.2,1106.3,3294.2 M1107.6,3289.4c15.6,0,29.4,9.2,36.9,16.6v-25.9c0-6.7-1.1-15.2-6.5-16.9
		c-2.6-0.7-3.2-1.1-3.2-1.5c0-0.8,0.8-1.1,1.7-1.5l21.9-6.4v93.9c0,23.5,2,34.3,6.5,37.4c1.5,1.1,2.6,2.1,2.6,2.7
		c0,0.8-0.4,1.2-1.7,1.2c-3,0-5.8-0.7-8.4-0.7c-3,0-5.8,0.7-8.4,0.7l-4.5-20.6c-8.9,14.7-21.8,23.3-39.3,23.3
		c-29.4,0-51.9-20.9-51.9-50.1C1053.3,3310.1,1076.6,3289.4,1107.6,3289.4"/>
	<path class="st0" d="M1272.1,3332.4c-9.2,5.2-15.7,12.6-15.7,23.6c0,17.7,17.5,32,34.5,32c10.7,0,20.9-4.7,28.8-11.9
		C1303.1,3362.3,1286.9,3348,1272.1,3332.4 M1288.9,3274.3c15.7,0,26.3,7,26.3,21.3c0,16.7-15.3,24.9-29,30.5
		c12.9,14,27.1,26.9,42.2,38.2c3-4.5,4.5-10,4.5-14.9c0-10.8-6-16.7-15.1-18.4c-0.9-0.2-1.3-0.6-1.3-1c0-1,0.9-1,1.6-1h29.1
		c1.1,12-7.5,30.4-14.4,39.3c11.9,9.7,20.7,15.6,32.2,17.9c1.7,0.2,2.4,0.8,2.4,1.5c0,1.2-1.3,1.2-2.4,1.2h-27
		c-3-0.2-11.9-8.3-14.8-10.2c-10.8,8.6-25,13.8-38.8,13.8c-19.9,0.4-44.2-8.8-44.2-31.5c0-16.2,16.2-25.9,29.1-32.1
		c-6.4-6.5-11.3-16-11.3-25.2C1258.3,3286.7,1273.3,3274.3,1288.9,3274.3 M1287.6,3279h-2.2c-9.7,0-15.8,6.5-15.8,15.9
		c0,10.4,7.1,20.7,13.9,27.9c11.2-3,19.1-14.1,19.1-25.5C1302.5,3287.5,1297.3,3279.5,1287.6,3279"/>
	<path class="st0" d="M1426.6,3291.2c2.4,0,8,0.9,13.6,0.9c5.8,0,10.8-0.9,13.1-0.9c2.4,0,3.7,0.4,3.7,1.1c0,0.8-1.1,1.3-3,2.6
		c-2.5,1.5-3,3.2-3,6.3c0,3,3.2,10.4,6.9,17.9l27.6,52.5l17.4-33.9c7.1-13.6,13.3-27.2,13.3-32.6c0-4.7-1.5-8.2-4.9-9.9
		c-2.4-1.3-4.7-2.2-4.7-2.8c0-0.6,0.2-1.3,1.1-1.3c1.7,0,8.4,0.9,13.8,0.9c7.3,0,11.4-0.9,13.1-0.9c1.1,0,1.7,0.4,1.7,1.1
		c0,0.9-0.9,1.3-1.9,2.1c-6.3,4.5-14,17.9-22.8,35.4l-27.1,53.8c-3.7,7.6-4.3,8.2-4.8,8.2h-0.4c-0.6,0-2.4-4.5-4.3-8.2l-34.2-66.8
		c-6-11.7-10.1-19.1-14.9-22.2c-1.5-0.9-2.4-1.5-2.4-2C1423.6,3291.6,1424.7,3291.2,1426.6,3291.2"/>
	<path class="st0" d="M1598.9,3289.4c-28,0-55.2,20.5-55.2,51.2c0,30.7,27.1,51.2,55.2,51.2c28.1,0,55.2-20.5,55.2-51.2
		C1654.1,3309.9,1627,3289.4,1598.9,3289.4 M1598.9,3294.2c-27.5,0-37.4,21.2-37.2,46.4c-0.2,25.3,9.6,46.4,37.2,46.4
		c27.5,0,37.4-21.2,37.2-46.4C1636.3,3315.3,1626.4,3294.2,1598.9,3294.2"/>
	<path class="st0" d="M1688.1,3292.2v21.5h0.6c5.2-15.8,21.6-24.3,38.4-24.3c19.6,0,40.7,9.2,40.7,36v36.5c0,20.5,1.3,22.5,6,24.6
		c2.1,0.9,3.4,1.9,3.4,2.2c0,0.5-1.1,0.7-1.9,0.7c-1.9,0-7.6-0.3-13.1-0.3h-1.8c-6,0-12.9,0.3-15.5,0.3c-1.5,0-2.6-0.2-2.6-0.5
		c0-1.1,2.8-1.9,3.7-2.4c6-3.3,6.9-13.4,6.9-27.2V3334c0-31.6-13.6-39.8-29.5-39.8c-19.9,0-33.8,18.2-33.8,40.2v28.6
		c0,13.6,0.9,19.9,6.7,23.6c1.9,1.1,3.4,1.9,3.4,2.3c0,0.5-0.6,0.5-1.5,0.5c-2.9,0-8.6-0.3-13.7-0.3h-1.9c-5.4,0-12.3,0.3-15.5,0.3
		c-0.9,0-1.7-0.2-1.7-0.9c0-0.5,1.7-1.1,3.5-2.2c5.8-3.3,6.7-16.2,6.7-26.6V3318c0-14.1-3-16.8-6.3-17.9c-1.5-0.4-2.4-1.3-2.4-1.9
		c0-0.7,1.5-0.9,2.2-1.1L1688.1,3292.2"/>
	<path class="st0" d="M1897.8,3269h-44c-3.2,0-4.1,0.8-4.1,1.1c0,1,0.7,1.4,2.2,2c7.5,3.5,7.7,9.6,7.7,22.6v59.6
		c0,23.1-4.9,30.8-9.7,32.4c-2.8,1-4.1,1.5-4.1,2.1c0,0.4,0.2,0.7,1.3,0.7c1.9,0,6-0.5,15.5-0.5h26.3c8.2,0,16,0.5,22,0.5
		c7.5,0,16.6-0.4,25.7-0.9c16.3-0.7,40.8-11.8,40.8-32.5c0-24.6-33.1-29.4-50.8-31.2v-0.4c9.6,0,39.3-6.7,39.3-27.5
		C1966,3273.7,1937.3,3269.3,1897.8,3269 M1903.3,3327.3h-27.7v24.8c0,26.1,0.6,32.2,14,32.2c5.6,0,11.2,0.6,16.8,0.6
		c5.2,0,10.1-0.2,19.1-0.7c18.9-1.1,31.9-9.3,31.9-27.2C1957.4,3329.1,1926.4,3327.4,1903.3,3327.3 M1905.1,3273.7h-29.5v48.8h29.6
		c18.3,0,41.2-1.9,41.2-25.8C1946.5,3281.7,1933.8,3273.7,1905.1,3273.7"/>
	<path class="st0" d="M2046.1,3289.4c-28,0-55.2,20.5-55.2,51.2c0,30.7,27.1,51.2,55.2,51.2c28.1,0,55.2-20.5,55.2-51.2
		C2101.3,3309.9,2074.2,3289.4,2046.1,3289.4 M2046.1,3294.2c-27.5,0-37.4,21.2-37.1,46.4c-0.2,25.3,9.6,46.4,37.1,46.4
		c27.5,0,37.4-21.2,37.2-46.4C2083.5,3315.3,2073.7,3294.2,2046.1,3294.2"/>
	<path class="st0" d="M2119.9,3363.5c1,0,1.3,1.5,2.2,3.9c5.2,15.4,23.7,19.7,38,19.7c13.8,0,32.3-4.3,32.3-21.3
		c0-18.2-20.9-18.4-35.8-19.3c-15.3-1.5-36-8.5-36-27.1c0-22.6,26.1-30,44.5-30c12.7,0,25.9,2.8,37.5,7.9l-4.8,14.8
		c-0.6,1.7-1.1,2.4-1.6,2.4c-0.9,0-1.3-1.3-2.3-4.2c-3.3-11.3-19.4-16.1-31.5-16.1c-12.8,0-26.8,5.7-26.8,19.3
		c0,18.3,21.2,18.9,35,20c15.6,1.5,36.7,3.6,36.7,24.3c0,23.9-26.7,34-46.8,34c-16.4,0-33.3-1.7-47.9-9.9l3.9-12
		C2118,3365,2118.8,3363.5,2119.9,3363.5"/>
	<path class="st0" d="M2247.2,3292.1l-20.4,5.4c-0.7,0.2-1.3,0.4-1.3,0.9c0,0.6,0.7,0.7,1.6,1.1c3,1.6,6.2,2.2,6.2,5.9v54.3
		c0,16.6-0.6,23.4-6.9,26.4c-1.9,0.8-3.2,1.3-3.2,2.3c0,0.7,0.6,0.7,1.5,0.7c2.1,0,6-0.3,15.5-0.3h1.9c5.1,0,10.8,0.3,13.6,0.3
		c1,0,2.2-0.2,2.2-0.7c0-1-1.3-1.2-3-1.6c-4.5-1.3-7.8-10.6-7.8-31.3V3292.1 M2240.4,3260.3c-4.1,0-8.8,3.4-8.8,9c0,5.6,4.7,9,8.8,9
		c4.1,0,8.8-3.4,8.8-9C2249.2,3263.7,2244.5,3260.3,2240.4,3260.3"/>
	<path class="st0" d="M2325.9,3289.4c-28.1,0-55.2,20.5-55.2,51.2c0,30.7,27.1,51.2,55.2,51.2c28.1,0,55.2-20.5,55.2-51.2
		C2381.1,3309.9,2354,3289.4,2325.9,3289.4 M2325.9,3294.2c-27.5,0-37.4,21.2-37.2,46.4c-0.2,25.3,9.6,46.4,37.2,46.4
		c27.5,0,37.4-21.2,37.2-46.4C2363.3,3315.3,2353.4,3294.2,2325.9,3294.2"/>
	<path d="M2398.3,3260.7c8.9,0,16.2,7.2,16.2,16.1c0,8.9-7.3,16.2-16.2,16.2c-8.9,0-16.2-7.3-16.2-16.2
		C2382.2,3267.9,2389.4,3260.7,2398.3,3260.7 M2398.3,3290.2c7.5,0,13.2-5.7,13.2-13.4c0-7.6-5.7-13.4-13.2-13.4
		c-7.5,0-13.2,5.7-13.2,13.4C2385.1,3284.4,2390.8,3290.2,2398.3,3290.2 M2390.7,3284.3c2.1-0.2,2.1-0.3,2.1-2v-11.6
		c0-1.7,0-1.8-2.1-2v-0.8h8.7c2.8,0,5.3,1.3,5.3,4.4c0,2.2-1.5,4.1-3.5,4.8l3.6,6.1c0.5,0.9,0.8,1,2.1,1.2v0.8h-3.8
		c-1.2,0-1.6-0.8-2.4-2.1l-3-5.5h-1.4v4.7c0,1.7,0,1.8,2.1,2v0.8h-7.8V3284.3z M2396.3,3276.5h1.7c2.1,0,3-1.8,3-4.1
		c0-2.6-1.3-3.5-3-3.5h-1.7V3276.5z"/>
</g>
</svg>
