<?xml version="1.0" encoding="utf-8"?>
<!-- Generator: Adobe Illustrator 26.0.0, SVG Export Plug-In . SVG Version: 6.00 Build 0)  -->
<svg version="1.1"
	 id="svg2" xmlns:cc="http://creativecommons.org/ns#" xmlns:dc="http://purl.org/dc/elements/1.1/" xmlns:inkscape="http://www.inkscape.org/namespaces/inkscape" xmlns:rdf="http://www.w3.org/1999/02/22-rdf-syntax-ns#" xmlns:sodipodi="http://sodipodi.sourceforge.net/DTD/sodipodi-0.dtd" xmlns:svg="http://www.w3.org/2000/svg"
	 xmlns="http://www.w3.org/2000/svg" xmlns:xlink="http://www.w3.org/1999/xlink" x="0px" y="0px" viewBox="0 0 304.81 144.23"
	 style="enable-background:new 0 0 304.81 144.23;" xml:space="preserve">
<style type="text/css">
	.st0{clip-path:url(#SVGID_00000080189981348598628430000013451178592129894787_);}
	.st1{fill:#1A1A18;}
	.st2{fill:#E3000F;}
	.st3{fill:#FFFFFF;}
</style>
<sodipodi:namedview  bordercolor="#666666" borderopacity="1" gridtolerance="10" guidetolerance="10" id="namedview4" inkscape:pageopacity="0" inkscape:pageshadow="2" inkscape:window-height="480" inkscape:window-width="640" objecttolerance="10" pagecolor="#ffffff">
	</sodipodi:namedview>
<g id="g10" transform="matrix(1.3333333,0,0,-1.3333333,0,180.368)" inkscape:groupmode="layer" inkscape:label="Sparkasse">
	<g id="g12">
		<g>
			<defs>
				<rect id="SVGID_1_" x="-76.29" y="-8.99" width="381.19" height="180.37"/>
			</defs>
			<clipPath id="SVGID_00000109719987519480783170000014415200355330020482_">
				<use xlink:href="#SVGID_1_"  style="overflow:visible;"/>
			</clipPath>
			<g id="g14" style="clip-path:url(#SVGID_00000109719987519480783170000014415200355330020482_);">
				<g id="g20" transform="translate(81.857,68.9148)">
					<path id="path22" class="st1" d="M-28.64,13.55c0.14-0.99,0.24-1.45,0.46-2.01c0.46-1.19,1.16-2.11,2.13-2.76
						c1.16-0.78,3.1-1.26,5.09-1.26c2.59,0,4.51,0.61,5.79,1.84c0.99,0.99,1.53,2.4,1.53,4.12c0,1.82-0.63,3.15-2.01,4.17
						c-0.87,0.61-2.04,1.07-3.95,1.48c-2.69,0.61-2.88,0.65-3.42,0.87c-1.11,0.49-1.65,1.19-1.65,2.21c0,1.58,1.43,2.64,3.54,2.64
						c1.33,0,2.4-0.41,3.03-1.16c0.41-0.49,0.58-0.9,0.73-1.72l3.47,0.41c-0.29,1.28-0.58,2.01-1.19,2.81
						c-1.19,1.6-3.27,2.45-6.04,2.45c-4.17,0-6.89-2.18-6.89-5.55c0-1.62,0.63-2.96,1.87-3.93c0.87-0.68,1.84-1.07,3.66-1.48
						c3.35-0.78,3.49-0.8,4.22-1.19c0.75-0.41,1.21-1.24,1.21-2.23c0-1.82-1.45-2.91-3.88-2.91c-1.58,0-2.84,0.51-3.54,1.43
						c-0.44,0.56-0.58,1.04-0.68,2.13L-28.64,13.55z"/>
				</g>
				<g id="g24" transform="translate(103.3541,73.1956)">
					<path id="path26" class="st1" d="M-28.64,13.55v6.52h4.63c1.28,0,2.08-0.27,2.64-0.87c0.53-0.56,0.8-1.36,0.8-2.33
						c0-2.13-1.21-3.32-3.44-3.32H-28.64z M-28.45,3.56c-0.15,0.92-0.19,1.84-0.19,3.15v4.05h4.63c2.33,0,3.98,0.56,5.16,1.75
						c1.07,1.11,1.62,2.62,1.62,4.46c0,1.75-0.51,3.2-1.5,4.17c-1.16,1.16-2.81,1.72-5.16,1.72h-5.07c-1.28,0-2.04,0.02-3.08,0.07
						c0.15-1.09,0.19-1.96,0.19-3.13V6.69c0-1.31-0.05-2.16-0.19-3.13H-28.45z"/>
				</g>
				<g id="g28" transform="translate(126.6691,71.1838)">
					<path id="path30" class="st1" d="M-28.64,13.55h-6.01l2.52,7.18c0.07,0.22,0.07,0.22,0.46,1.36c0.27-0.8,0.34-1.09,0.44-1.36
						L-28.64,13.55z M-22.14,5.58c-0.34,0.63-0.63,1.31-1.24,2.86l-5.38,13.99c-0.56,1.48-0.7,1.87-0.82,2.45h-4.22
						c-0.12-0.63-0.32-1.24-0.78-2.45l-5.33-13.99c-0.44-1.12-0.92-2.21-1.28-2.86h3.98c0.19,1.02,0.29,1.38,0.73,2.55l0.97,2.64
						h7.76l0.97-2.64c0.27-0.7,0.53-1.75,0.68-2.55H-22.14z"/>
				</g>
				<g id="g32" transform="translate(138.396,74.0927)">
					<path id="path34" class="st1" d="M-28.64,13.55v5.65h4.97c1.99,0,2.98-0.9,2.98-2.64c0-0.92-0.27-1.62-0.77-2.13
						c-0.56-0.56-1.41-0.87-2.3-0.87H-28.64z M-15.74,2.67c-0.34,0.65-0.94,1.96-1.14,2.4c-2.4,5.67-2.86,6.35-4.39,6.84
						c1.38,0.39,2.01,0.7,2.69,1.41c0.82,0.85,1.24,2.06,1.24,3.61c0,3.2-2.11,5.04-5.79,5.04h-5.82c-1.33,0-2.09,0.02-3.1,0.07
						c0.15-1.14,0.19-1.87,0.19-3.15V5.82c0-1.48-0.05-2.13-0.19-3.15h3.61c-0.15,0.94-0.19,1.72-0.19,3.18v4.95h3.61
						c1.87,0,2.72-0.9,4.02-4.24c0.8-2.06,1.21-3.3,1.26-3.88H-15.74z"/>
				</g>
				<g id="g36" transform="translate(161.808,74.6261)">
					<path id="path38" class="st1" d="M-28.64,13.55l5.19,5.31c1.07,1.09,1.87,1.87,2.57,2.57h-4.58c-0.49-0.8-0.94-1.38-1.89-2.35
						l-6.18-6.42v5.65c0,1.38,0.07,2.33,0.22,3.13h-3.59c0.15-1.02,0.19-1.82,0.19-3.13V5.26c0-1.29-0.05-2.04-0.19-3.13h3.59
						c-0.17,1.02-0.22,1.7-0.22,3.13v3.56l2.64,2.64l4.83-6.79c0.56-0.8,1.16-1.82,1.53-2.55h4.49c-0.7,0.78-0.97,1.12-2.43,3.08
						L-28.64,13.55z"/>
				</g>
				<g id="g40" transform="translate(183.377,71.1838)">
					<path id="path42" class="st1" d="M-28.64,13.55h-6.01l2.52,7.18c0.07,0.22,0.07,0.22,0.46,1.36c0.27-0.8,0.34-1.09,0.44-1.36
						L-28.64,13.55z M-22.14,5.58c-0.34,0.63-0.63,1.31-1.24,2.86l-5.38,13.99c-0.56,1.48-0.7,1.87-0.82,2.45h-4.22
						c-0.12-0.63-0.31-1.24-0.77-2.45l-5.33-13.99c-0.44-1.12-0.92-2.21-1.28-2.86h3.98c0.19,1.02,0.29,1.38,0.73,2.55l0.97,2.64
						h7.76l0.97-2.64c0.27-0.7,0.53-1.75,0.68-2.55H-22.14z"/>
				</g>
				<g id="g44" transform="translate(191.056,68.8563)">
					<path id="path46" class="st1" d="M-28.64,13.55c0.15-0.99,0.24-1.45,0.46-2.01c0.46-1.19,1.16-2.11,2.13-2.76
						c1.16-0.77,3.1-1.26,5.09-1.26c2.59,0,4.51,0.61,5.79,1.84c0.99,0.99,1.53,2.4,1.53,4.12c0,1.82-0.63,3.15-2.01,4.17
						c-0.87,0.61-2.04,1.07-3.95,1.48c-2.69,0.61-2.89,0.65-3.42,0.87c-1.12,0.49-1.65,1.19-1.65,2.21c0,1.58,1.43,2.64,3.54,2.64
						c1.33,0,2.4-0.41,3.03-1.16c0.41-0.48,0.58-0.9,0.73-1.72l3.47,0.41c-0.29,1.28-0.58,2.01-1.19,2.81
						c-1.19,1.6-3.27,2.45-6.04,2.45c-4.17,0-6.89-2.18-6.89-5.55c0-1.62,0.63-2.96,1.87-3.93c0.87-0.68,1.84-1.07,3.66-1.48
						c3.35-0.78,3.49-0.8,4.22-1.19c0.75-0.41,1.21-1.24,1.21-2.23c0-1.82-1.45-2.91-3.88-2.91c-1.58,0-2.84,0.51-3.54,1.43
						c-0.44,0.56-0.58,1.04-0.68,2.13L-28.64,13.55z"/>
				</g>
				<g id="g48" transform="translate(208.213,68.8563)">
					<path id="path50" class="st1" d="M-28.64,13.55c0.15-0.99,0.24-1.45,0.46-2.01c0.46-1.19,1.16-2.11,2.13-2.76
						c1.16-0.77,3.1-1.26,5.09-1.26c2.59,0,4.51,0.61,5.79,1.84c0.99,0.99,1.53,2.4,1.53,4.12c0,1.82-0.63,3.15-2.01,4.17
						c-0.87,0.61-2.04,1.07-3.95,1.48c-2.69,0.61-2.89,0.65-3.42,0.87c-1.12,0.49-1.65,1.19-1.65,2.21c0,1.58,1.43,2.64,3.54,2.64
						c1.33,0,2.4-0.41,3.03-1.16c0.41-0.48,0.58-0.9,0.73-1.72l3.47,0.41c-0.29,1.28-0.58,2.01-1.19,2.81
						c-1.19,1.6-3.27,2.45-6.04,2.45c-4.17,0-6.89-2.18-6.89-5.55c0-1.62,0.63-2.96,1.87-3.93c0.87-0.68,1.84-1.07,3.66-1.48
						c3.35-0.78,3.49-0.8,4.22-1.19c0.75-0.41,1.21-1.24,1.21-2.23c0-1.82-1.45-2.91-3.88-2.91c-1.58,0-2.84,0.51-3.54,1.43
						c-0.44,0.56-0.58,1.04-0.68,2.13L-28.64,13.55z"/>
				</g>
				<g id="g52" transform="translate(239.528,66.2625)">
					<path id="path54" class="st1" d="M-28.64,13.55c-1.04-0.12-1.5-0.17-2.86-0.17h-7.27v5.72h5.92c1.5,0,2.16-0.03,3.15-0.17v3.17
						c-1.07-0.12-1.89-0.17-3.15-0.17h-5.89v4.99h6.98c1.43,0,2.21-0.05,3.13-0.17v3.2c-1.12-0.12-1.92-0.17-3.13-0.17h-7.32
						c-1.48,0-2.11,0.02-3.08,0.07c0.15-1.14,0.19-1.87,0.19-3.13V13.62c0-1.43-0.05-2.23-0.19-3.2c0.97,0.05,1.62,0.07,3.08,0.07
						h7.56c1.48,0,2.01-0.05,2.89-0.17V13.55z"/>
				</g>
				<g id="g56" transform="translate(87.9792,54.5056)">
					<path id="path58" class="st1" d="M-28.64,13.55c-0.08-0.49-0.17-0.71-0.35-0.98c-0.34-0.5-0.98-0.79-1.73-0.79
						c-1.5,0-2.44,1.21-2.44,3.16c0,1.96,0.92,3.14,2.44,3.14c0.66,0,1.2-0.22,1.56-0.66c0.21-0.24,0.31-0.45,0.46-0.91l1.49,0.34
						c-0.13,0.4-0.2,0.6-0.33,0.82c-0.27,0.47-0.65,0.86-1.13,1.16c-0.59,0.35-1.22,0.51-2.05,0.51c-1.07,0-2.03-0.36-2.67-1.01
						c-0.8-0.8-1.25-2.03-1.25-3.44c0-1.36,0.42-2.56,1.17-3.34c0.65-0.67,1.58-1.02,2.75-1.02c1.28,0,2.31,0.41,2.92,1.16
						c0.32,0.41,0.51,0.83,0.72,1.6L-28.64,13.55z"/>
				</g>
				<g id="g60" transform="translate(97.0284,55.1546)">
					<path id="path62" class="st1" d="M-28.64,13.55h-2.65l1.11,3.15c0.03,0.1,0.03,0.1,0.2,0.6c0.12-0.35,0.15-0.48,0.19-0.6
						L-28.64,13.55z M-25.77,10.05c-0.15,0.28-0.28,0.57-0.55,1.26l-2.37,6.14c-0.25,0.65-0.31,0.82-0.36,1.07h-1.86
						c-0.05-0.28-0.14-0.54-0.34-1.07l-2.35-6.14c-0.19-0.49-0.41-0.97-0.57-1.26h1.75c0.08,0.45,0.13,0.61,0.32,1.12l0.43,1.16
						h3.42l0.43-1.16c0.12-0.31,0.24-0.77,0.3-1.12H-25.77z"/>
				</g>
				<g id="g64" transform="translate(102.3406,54.1332)">
					<path id="path66" class="st1" d="M-28.64,13.55c0.06-0.44,0.11-0.64,0.2-0.88c0.2-0.52,0.51-0.93,0.94-1.21
						c0.51-0.34,1.37-0.55,2.25-0.55c1.14,0,1.99,0.27,2.56,0.81c0.44,0.44,0.67,1.05,0.67,1.81c0,0.8-0.28,1.38-0.89,1.83
						c-0.38,0.27-0.9,0.47-1.74,0.65c-1.19,0.27-1.27,0.29-1.51,0.38c-0.49,0.21-0.73,0.52-0.73,0.97c0,0.69,0.63,1.16,1.56,1.16
						c0.59,0,1.06-0.18,1.34-0.51c0.18-0.21,0.26-0.39,0.32-0.76l1.53,0.18c-0.13,0.56-0.26,0.88-0.52,1.24
						c-0.52,0.7-1.44,1.07-2.66,1.07c-1.84,0-3.04-0.96-3.04-2.44c0-0.71,0.28-1.3,0.82-1.72c0.39-0.3,0.81-0.47,1.61-0.65
						c1.48-0.34,1.54-0.35,1.86-0.52c0.33-0.18,0.53-0.54,0.53-0.98c0-0.8-0.64-1.28-1.71-1.28c-0.69,0-1.25,0.22-1.56,0.63
						c-0.19,0.24-0.26,0.46-0.3,0.94L-28.64,13.55z"/>
				</g>
				<g id="g68" transform="translate(112.2986,54.1332)">
					<path id="path70" class="st1" d="M-28.64,13.55c0.06-0.44,0.11-0.64,0.2-0.88c0.2-0.52,0.51-0.93,0.94-1.21
						c0.51-0.34,1.37-0.55,2.25-0.55c1.14,0,1.99,0.27,2.56,0.81c0.44,0.44,0.67,1.05,0.67,1.81c0,0.8-0.28,1.38-0.89,1.83
						c-0.38,0.27-0.9,0.47-1.74,0.65c-1.19,0.27-1.27,0.29-1.51,0.38c-0.49,0.21-0.73,0.52-0.73,0.97c0,0.69,0.63,1.16,1.56,1.16
						c0.59,0,1.06-0.18,1.34-0.51c0.18-0.21,0.26-0.39,0.32-0.76l1.53,0.18c-0.13,0.56-0.26,0.88-0.52,1.24
						c-0.52,0.7-1.44,1.07-2.66,1.07c-1.84,0-3.04-0.96-3.04-2.44c0-0.71,0.28-1.3,0.82-1.72c0.39-0.3,0.81-0.47,1.61-0.65
						c1.48-0.34,1.54-0.35,1.86-0.52c0.33-0.18,0.53-0.54,0.53-0.98c0-0.8-0.64-1.28-1.71-1.28c-0.69,0-1.25,0.22-1.56,0.63
						c-0.19,0.24-0.26,0.46-0.3,0.94L-28.64,13.55z"/>
				</g>
				<g id="g72" transform="translate(126.9024,55.1546)">
					<path id="path74" class="st1" d="M-28.64,13.55h-2.65l1.11,3.15c0.03,0.1,0.03,0.1,0.2,0.6c0.12-0.35,0.15-0.48,0.19-0.6
						L-28.64,13.55z M-25.77,10.05c-0.15,0.28-0.28,0.57-0.55,1.26l-2.37,6.14c-0.25,0.65-0.31,0.82-0.36,1.07h-1.86
						c-0.05-0.28-0.14-0.54-0.34-1.07l-2.35-6.14c-0.19-0.49-0.41-0.97-0.57-1.26h1.75c0.09,0.45,0.13,0.61,0.32,1.12l0.43,1.16
						h3.42l0.43-1.16c0.12-0.31,0.24-0.77,0.3-1.12H-25.77z"/>
				</g>
				<g id="g76" transform="translate(139.846,52.9099)">
					<path id="path78" class="st1" d="M-28.64,13.55v5.96h1.71c0.93,0,1.49-0.18,1.93-0.64c0.49-0.51,0.74-1.27,0.74-2.28
						c0-1-0.27-1.82-0.78-2.36c-0.45-0.48-1.02-0.68-1.89-0.68H-28.64z M-30.06,13.67c0-0.64-0.02-0.97-0.09-1.4
						c0.44,0.02,0.71,0.03,1.36,0.03h1.95c1.26,0,2.12,0.29,2.8,0.93c0.83,0.79,1.26,1.94,1.26,3.38c0,1.38-0.41,2.49-1.19,3.22
						c-0.68,0.66-1.55,0.94-2.89,0.94h-1.94c-0.67,0-0.93,0.01-1.36,0.03c0.06-0.47,0.09-0.79,0.09-1.38V13.67z"/>
				</g>
				<g id="g80" transform="translate(148.7,60.1227)">
					<path id="path82" class="st1" d="M-28.64,13.55c0.06-0.43,0.09-0.71,0.09-1.37V6.46c0-0.63-0.02-0.97-0.09-1.37h1.63
						c-0.07,0.4-0.09,0.75-0.09,1.37v5.72c0,0.64,0.02,0.97,0.09,1.37H-28.64z"/>
				</g>
				<g id="g84" transform="translate(161.089,56.4312)">
					<path id="path86" class="st1" d="M-28.64,13.55v2.48h2.19c0.88,0,1.31-0.39,1.31-1.16c0-0.4-0.12-0.71-0.34-0.94
						c-0.25-0.24-0.62-0.38-1.02-0.38H-28.64z M-22.95,8.77c-0.15,0.29-0.42,0.86-0.5,1.05c-1.06,2.49-1.26,2.79-1.93,3
						c0.61,0.17,0.89,0.31,1.19,0.62c0.36,0.37,0.55,0.9,0.55,1.59c0,1.4-0.93,2.21-2.56,2.21h-2.57c-0.59,0-0.92,0.01-1.37,0.03
						c0.06-0.5,0.08-0.82,0.08-1.38v-5.73c0-0.65-0.02-0.94-0.08-1.38h1.59c-0.06,0.41-0.09,0.76-0.09,1.39v2.17h1.59
						c0.82,0,1.2-0.39,1.77-1.86c0.35-0.9,0.54-1.45,0.56-1.7H-22.95z"/>
				</g>
				<g id="g88" transform="translate(169.207,60.1227)">
					<path id="path90" class="st1" d="M-28.64,13.55c0.06-0.43,0.08-0.71,0.08-1.37V6.46c0-0.63-0.02-0.97-0.08-1.37h1.62
						c-0.06,0.4-0.09,0.75-0.09,1.37v5.72c0,0.64,0.02,0.97,0.09,1.37L-28.64,13.55z"/>
				</g>
				<g id="g92" transform="translate(174.714,54.1332)">
					<path id="path94" class="st1" d="M-28.64,13.55c0.06-0.44,0.11-0.64,0.2-0.88c0.2-0.52,0.51-0.93,0.94-1.21
						c0.51-0.34,1.37-0.55,2.25-0.55c1.14,0,1.99,0.27,2.56,0.81c0.44,0.44,0.67,1.05,0.67,1.81c0,0.8-0.28,1.38-0.89,1.83
						c-0.38,0.27-0.9,0.47-1.74,0.65c-1.19,0.27-1.27,0.29-1.51,0.38c-0.49,0.21-0.73,0.52-0.73,0.97c0,0.69,0.63,1.16,1.56,1.16
						c0.59,0,1.06-0.18,1.34-0.51c0.18-0.21,0.26-0.39,0.32-0.76l1.53,0.18c-0.13,0.56-0.26,0.88-0.52,1.24
						c-0.52,0.7-1.44,1.07-2.66,1.07c-1.84,0-3.04-0.96-3.04-2.44c0-0.71,0.28-1.3,0.82-1.72c0.39-0.3,0.81-0.47,1.61-0.65
						c1.48-0.34,1.54-0.35,1.86-0.52c0.33-0.18,0.53-0.54,0.53-0.98c0-0.8-0.64-1.28-1.71-1.28c-0.69,0-1.25,0.22-1.56,0.63
						c-0.19,0.24-0.26,0.46-0.3,0.94L-28.64,13.55z"/>
				</g>
				<g id="g96" transform="translate(186.131,56.0375)">
					<path id="path98" class="st1" d="M-28.64,13.55v2.86h2.04c0.57,0,0.92-0.12,1.17-0.38c0.24-0.25,0.35-0.6,0.35-1.02
						c0-0.94-0.54-1.46-1.52-1.46H-28.64z M-28.55,9.17c-0.06,0.4-0.09,0.81-0.09,1.38v1.78h2.04c1.03,0,1.75,0.24,2.28,0.77
						c0.47,0.49,0.72,1.15,0.72,1.96c0,0.77-0.22,1.4-0.66,1.83c-0.51,0.51-1.24,0.75-2.28,0.75h-2.24c-0.57,0-0.9,0.01-1.36,0.03
						c0.06-0.48,0.09-0.86,0.09-1.37v-5.76c0-0.57-0.02-0.95-0.09-1.37H-28.55z"/>
				</g>
				<g id="g100" transform="translate(198.33,55.1546)">
					<path id="path102" class="st1" d="M-28.64,13.55h-2.65l1.11,3.15c0.03,0.1,0.03,0.1,0.2,0.6c0.12-0.35,0.15-0.48,0.19-0.6
						L-28.64,13.55z M-25.77,10.05c-0.15,0.28-0.28,0.57-0.55,1.26l-2.37,6.14c-0.25,0.65-0.31,0.82-0.36,1.07h-1.86
						c-0.05-0.28-0.14-0.54-0.34-1.07l-2.35-6.14c-0.19-0.49-0.41-0.97-0.57-1.26h1.75c0.08,0.45,0.13,0.61,0.32,1.12l0.43,1.16
						h3.42l0.43-1.16c0.12-0.31,0.24-0.77,0.3-1.12H-25.77z"/>
				</g>
				<g id="g104" transform="translate(205.322,56.4312)">
					<path id="path106" class="st1" d="M-28.64,13.55v2.48h2.19c0.88,0,1.32-0.39,1.32-1.16c0-0.4-0.12-0.71-0.34-0.94
						c-0.25-0.24-0.62-0.38-1.01-0.38H-28.64z M-22.95,8.77c-0.15,0.29-0.42,0.86-0.5,1.05c-1.06,2.49-1.26,2.79-1.94,3
						c0.61,0.17,0.89,0.31,1.19,0.62c0.36,0.37,0.55,0.9,0.55,1.59c0,1.4-0.93,2.21-2.56,2.21h-2.57c-0.59,0-0.92,0.01-1.37,0.03
						c0.06-0.5,0.08-0.82,0.08-1.38v-5.73c0-0.65-0.02-0.94-0.08-1.38h1.59c-0.06,0.41-0.08,0.76-0.08,1.39v2.17h1.59
						c0.82,0,1.2-0.39,1.77-1.86c0.35-0.9,0.53-1.45,0.56-1.7H-22.95z"/>
				</g>
				<g id="g108" transform="translate(219.173,51.6546)">
					<path id="path110" class="st1" d="M-28.64,13.55c0.06,0.32,0.26,0.91,0.47,1.41l1.6,3.74c0.15,0.38,0.35,0.98,0.49,1.55
						c-0.01-0.16-0.04-0.7-0.08-1.63V15.1c0-0.73-0.02-1.12-0.09-1.55h1.5c-0.06,0.39-0.08,0.78-0.08,1.55v5.34
						c0,0.71,0.02,1.06,0.08,1.57h-1.97c-0.08-0.4-0.17-0.75-0.39-1.27l-2.16-5.28l-2.17,5.28c-0.18,0.45-0.32,0.89-0.4,1.27h-1.96
						c0.06-0.44,0.09-0.88,0.09-1.57V15.1c0-0.71-0.02-1.13-0.09-1.55h1.5c-0.06,0.41-0.08,0.82-0.08,1.55v3.49
						c0,0.23-0.04,1.11-0.09,1.67c0.25-0.86,0.34-1.15,0.55-1.63l1.54-3.65c0.25-0.6,0.42-1.1,0.47-1.44H-28.64z"/>
				</g>
				<g id="g112" transform="translate(226.779,60.1227)">
					<path id="path114" class="st1" d="M-28.64,13.55c0.07-0.43,0.09-0.71,0.09-1.37V6.46c0-0.63-0.02-0.97-0.09-1.37h1.63
						c-0.06,0.4-0.09,0.75-0.09,1.37v5.72c0,0.64,0.02,0.97,0.09,1.37H-28.64z"/>
				</g>
				<g id="g116" transform="translate(235.55,52.7396)">
					<path id="path118" class="st1" d="M-28.64,13.55c-0.65,0-1.22,0.22-1.66,0.65c-0.56,0.55-0.87,1.45-0.87,2.51
						c0,1.93,0.97,3.14,2.51,3.14c0.64,0,1.21-0.22,1.65-0.65c0.55-0.54,0.85-1.4,0.85-2.48C-26.16,14.76-27.11,13.55-28.64,13.55
						 M-28.67,21.1c-1.13,0-2.02-0.34-2.76-1.06c-0.79-0.77-1.22-1.95-1.22-3.32c0-2.7,1.56-4.44,3.99-4.44s4,1.75,4,4.44
						c0,1.38-0.42,2.54-1.2,3.32C-26.59,20.76-27.5,21.1-28.67,21.1"/>
				</g>
				<path id="path120" class="st2" d="M16.36,96.42H47.7V65.16H16.36V96.42z"/>
				<g id="g122" transform="translate(58.1516,70.1336)">
					<path id="path124" class="st3" d="M-28.64,13.55c0,0-0.31,0.05-0.77,0.26c-2.72,1.23-4.63,3.63-4.58,7.02v3.15h0.46
						c0-0.36,0.01-3.85,0.06-4.21c0.21-2.42,2.11-4.78,4.42-5.65c0.31-0.1,0.56-0.2,0.56-0.2c0.13-0.05,0.18-0.14,0.14-0.24
						C-28.42,13.48-28.64,13.55-28.64,13.55"/>
				</g>
				<g id="g126" transform="translate(53.6685,67.2364)">
					<path id="path128" class="st3" d="M-28.64,13.55l1.81,2.38c0.05,0.05,0.16,0.16,0.31,0.05c0.16-0.11,0.11-0.21,0.05-0.31
						l-1.61-2.13"/>
				</g>
				<g id="g130" transform="translate(56.7879,67.2408)">
					<path id="path132" class="st3" d="M-28.64,13.55l0.59,1.51c0.03,0.07,0.14,0.16,0.28,0.11c0.15-0.06,0.16-0.16,0.13-0.26
						l-0.54-1.35H-28.64z"/>
				</g>
				<g id="g134" transform="translate(60.7722,78.3034)">
					<path id="path136" class="st3" d="M-28.64,13.55h0.36v0.1h-1.44v-0.1h0.31c0-0.21,0.15-0.31,0.36-0.31
						C-28.85,13.24-28.64,13.35-28.64,13.55"/>
				</g>
				<g id="g138" transform="translate(68.2382,67.233)">
					<path id="path140" class="st3" d="M-28.64,13.55l-1.81,2.39c-0.05,0.05-0.13,0.18-0.31,0.06c-0.14-0.09-0.09-0.22-0.05-0.31
						l1.61-2.14L-28.64,13.55z"/>
				</g>
				<g id="g142" transform="translate(65.1224,67.2249)">
					<path id="path144" class="st3" d="M-28.64,13.55l-0.6,1.52c-0.05,0.09-0.1,0.13-0.21,0.1c-0.11-0.02-0.24-0.1-0.2-0.26
						l0.54-1.36L-28.64,13.55z"/>
				</g>
				<g id="g146" transform="translate(70.9017,68.4893)">
					<path id="path148" class="st3" d="M-28.64,13.55c0.62,0.67,1.18,1.44,1.64,2.21l-3.75,1.64c-0.11,0.06-0.15,0.19-0.06,0.32
						c0.06,0.1,0.17,0.14,0.27,0.09l3.75-1.64c0.41,0.77,0.77,1.59,1.08,2.47l-4.11,0.72c-0.08,0.02-0.18,0.1-0.14,0.29
						c0.04,0.16,0.19,0.18,0.24,0.18l4.11-0.77c0.26,0.77,0.41,1.59,0.46,2.47h-4.21c-0.05,0-0.23,0.04-0.23,0.21
						c0,0.11,0.12,0.2,0.23,0.2h4.26v0.87v2.54h-8.43c-0.57,0-1.03-0.46-1.03-1.03l0.05-3.93c0-0.51-0.56-0.93-0.98-0.93v0.57h0.57
						l-0.62,1.54l0.62,0.2l-0.98,1.34l0.41,0.36l-1.54,0.82l0.31,0.57c0,0,0-0.05,0,0l-2.98-0.05c-0.75-0.04-0.82-0.21-1.03-0.56
						c-0.05-0.15-0.1-0.31-0.15-0.46c-0.67-0.05-1.28-0.15-1.75-0.72c-0.31-0.41-0.41-0.87-0.31-1.44c0-0.05,0.05-0.15,0.15-0.15
						c0.1,0,0.15,0.15,0.15,0.26c0.1,0.41,0.56,0.62,0.98,0.72c0.31,0.05,0.67,0.05,0.93-0.05c0.31-0.21,0.41-0.44,0.41-0.64h-1.28
						c0.31-0.26,0.62-0.75,0.92-1.05c-0.21-0.41-0.41-0.82-0.57-1.23h-1.03c-0.56,0-1.08,0.51-1.08,1.08v3.77
						c0,0.57-0.46,1.03-1.03,1.03h-8.43v-2.49v-0.87l4.26-0.05c0.16,0,0.2-0.07,0.21-0.2c0-0.18-0.1-0.2-0.21-0.21h-4.21
						c0.05-0.87,0.21-1.7,0.46-2.47l4.11,0.77c0.1,0,0.22,0,0.26-0.18c0.04-0.2-0.05-0.25-0.15-0.28c-0.03-0.01-4.11-0.72-4.11-0.72
						c0.31-0.87,0.62-1.7,1.08-2.47l3.75,1.64c0.1,0.05,0.22,0.04,0.29-0.11c0.1-0.21-0.03-0.27-0.09-0.3l-3.75-1.64
						c0.46-0.77,1.03-1.54,1.65-2.21l3.24,2.57c0.05,0.05,0.19,0.07,0.27-0.04c0.11-0.14,0.03-0.27-0.02-0.32l-3.19-2.52
						c0.36-0.41,0.63-0.64,1.08-0.94h-6.05v15h30.07v-15h-6.18c0.46,0.31,0.71,0.53,1.07,0.94l-3.19,2.52
						c-0.08,0.11-0.1,0.23,0,0.32c0.1,0.1,0.25,0.04,0.26,0.03L-28.64,13.55z"/>
				</g>
				<g id="g150" transform="translate(68.6056,80.5624)">
					<path id="path152" class="st3" d="M-28.64,13.55c0-0.36-0.01-3.85-0.06-4.21c-0.2-2.41-2.11-4.78-4.42-5.65
						c-0.31-0.1-0.57-0.2-0.57-0.2c-0.09-0.06-0.16-0.17-0.12-0.27c0.07-0.15,0.27-0.09,0.27-0.09s0.31,0.05,0.77,0.26
						c2.72,1.23,4.63,3.63,4.58,7.02v3.15H-28.64z"/>
				</g>
				<path id="path154" class="st3" d="M32.34,70.46h-0.52v-0.58h0.52V70.46z"/>
				<path id="path156" class="st3" d="M32.34,69.53h-0.52v-0.52h0.52V69.53z"/>
				<g id="g158" transform="translate(60.7492,57.1935)">
					<path id="path160" class="st3" d="M-28.64,13.55c0.4,0,0.69,0.35,0.69,0.75c0,0.4-0.29,0.69-0.69,0.69
						c-0.4,0-0.75-0.29-0.75-0.69C-29.39,13.9-29.04,13.55-28.64,13.55"/>
				</g>
				<g id="g162" transform="translate(61.5578,57.3089)">
					<path id="path164" class="st3" d="M-28.64,13.55c0.17,0.17,0.23,0.4,0.23,0.64v0.64h0.29v-0.64c0-0.69-0.46-0.98-0.46-0.98
						l1.1-1.33c0.12-0.17,0-0.35-0.12-0.35h-0.52v-1.1h-0.29v1.1h-0.35c-0.11,0-0.17,0.11-0.17,0.17v1.62
						C-28.93,13.32-28.76,13.44-28.64,13.55"/>
				</g>
				<g id="g166" transform="translate(61.5578,55.0565)">
					<path id="path168" class="st3" d="M-28.64,13.55c0-0.46-0.35-0.81-0.81-0.81c-0.46,0-0.87,0.35-0.87,0.81H-28.64z"/>
				</g>
				<g id="g170" transform="translate(59.8919,57.3089)">
					<path id="path172" class="st3" d="M-28.64,13.55c-0.17,0.17-0.23,0.4-0.23,0.64v0.64h-0.29v-0.64c0-0.69,0.46-0.98,0.46-0.98
						l-1.1-1.33c-0.12-0.17,0-0.35,0.11-0.35h0.52v-1.1h0.29v1.1h0.35c0.11,0,0.17,0.11,0.17,0.17v1.62
						C-28.35,13.32-28.52,13.44-28.64,13.55"/>
				</g>
				<path id="path174" class="st3" d="M39.65,72.63h-0.52v-0.58h0.52V72.63z"/>
				<path id="path176" class="st3" d="M39.65,71.71h-0.52v-0.52h0.52V71.71z"/>
				<g id="g178" transform="translate(68.0611,59.3672)">
					<path id="path180" class="st3" d="M-28.64,13.55c0.4,0,0.69,0.35,0.69,0.75c0,0.4-0.29,0.69-0.69,0.69
						c-0.4,0-0.75-0.29-0.75-0.69C-29.39,13.9-29.04,13.55-28.64,13.55"/>
				</g>
				<g id="g182" transform="translate(68.8697,59.4827)">
					<path id="path184" class="st3" d="M-28.64,13.55c0.17,0.17,0.23,0.4,0.23,0.64v0.64h0.29v-0.64c0-0.69-0.46-0.98-0.46-0.98
						l1.1-1.33c0.12-0.17,0-0.35-0.12-0.35h-0.52v-1.1h-0.29v1.1h-0.35c-0.11,0-0.17,0.11-0.17,0.17v1.62
						C-28.93,13.32-28.76,13.44-28.64,13.55"/>
				</g>
				<g id="g186" transform="translate(68.8697,57.2303)">
					<path id="path188" class="st3" d="M-28.64,13.55c0-0.46-0.35-0.81-0.81-0.81c-0.46,0-0.87,0.35-0.87,0.81H-28.64z"/>
				</g>
				<g id="g190" transform="translate(67.2039,59.4827)">
					<path id="path192" class="st3" d="M-28.64,13.55c-0.17,0.17-0.23,0.4-0.23,0.64v0.64h-0.29v-0.64c0-0.69,0.46-0.98,0.46-0.98
						l-1.1-1.33c-0.12-0.17,0-0.35,0.11-0.35h0.52v-1.1h0.29v1.1h0.35c0.12,0,0.17,0.11,0.17,0.17v1.62
						C-28.35,13.32-28.52,13.44-28.64,13.55"/>
				</g>
				<path id="path194" class="st3" d="M43.27,77.1h-0.52v-0.58h0.52V77.1z"/>
				<path id="path196" class="st3" d="M43.27,76.18h-0.52v-0.52h0.52V76.18z"/>
				<g id="g198" transform="translate(71.6821,63.8403)">
					<path id="path200" class="st3" d="M-28.64,13.55c0.4,0,0.69,0.35,0.69,0.75S-28.24,15-28.64,15c-0.4,0-0.75-0.29-0.75-0.69
						S-29.04,13.55-28.64,13.55"/>
				</g>
				<g id="g202" transform="translate(72.4907,63.9558)">
					<path id="path204" class="st3" d="M-28.64,13.55c0.17,0.17,0.23,0.4,0.23,0.64v0.64h0.29v-0.64c0-0.69-0.46-0.98-0.46-0.98
						l1.1-1.33c0.12-0.17,0-0.35-0.11-0.35h-0.52v-1.1h-0.29v1.1h-0.35c-0.11,0-0.17,0.11-0.17,0.17v1.62
						C-28.93,13.32-28.76,13.44-28.64,13.55"/>
				</g>
				<g id="g206" transform="translate(72.4907,61.7034)">
					<path id="path208" class="st3" d="M-28.64,13.55c0-0.46-0.35-0.81-0.81-0.81c-0.46,0-0.87,0.35-0.87,0.81H-28.64z"/>
				</g>
				<g id="g210" transform="translate(70.8249,63.9558)">
					<path id="path212" class="st3" d="M-28.64,13.55c-0.17,0.17-0.23,0.4-0.23,0.64v0.64h-0.29v-0.64c0-0.69,0.46-0.98,0.46-0.98
						l-1.1-1.33c-0.12-0.17,0-0.35,0.12-0.35h0.52v-1.1h0.29v1.1h0.35c0.12,0,0.17,0.11,0.17,0.17v1.62
						C-28.35,13.32-28.53,13.44-28.64,13.55"/>
				</g>
				<path id="path214" class="st3" d="M36.05,77.1h-0.52v-0.58h0.52V77.1z"/>
				<path id="path216" class="st3" d="M36.05,76.18h-0.52v-0.52h0.52V76.18z"/>
				<g id="g218" transform="translate(64.4576,63.8403)">
					<path id="path220" class="st3" d="M-28.64,13.55c0.4,0,0.69,0.35,0.69,0.75S-28.24,15-28.64,15s-0.75-0.29-0.75-0.69
						S-29.04,13.55-28.64,13.55"/>
				</g>
				<g id="g222" transform="translate(65.2662,63.9558)">
					<path id="path224" class="st3" d="M-28.64,13.55c0.17,0.17,0.23,0.4,0.23,0.64v0.64h0.29v-0.64c0-0.69-0.46-0.98-0.46-0.98
						l1.1-1.33c0.12-0.17,0-0.35-0.12-0.35h-0.52v-1.1h-0.29v1.1h-0.35c-0.11,0-0.17,0.11-0.17,0.17v1.62
						C-28.93,13.32-28.76,13.44-28.64,13.55"/>
				</g>
				<g id="g226" transform="translate(65.2662,61.7034)">
					<path id="path228" class="st3" d="M-28.64,13.55c0-0.46-0.35-0.81-0.81-0.81c-0.46,0-0.87,0.35-0.87,0.81H-28.64z"/>
				</g>
				<g id="g230" transform="translate(63.6004,63.9558)">
					<path id="path232" class="st3" d="M-28.64,13.55c-0.17,0.17-0.23,0.4-0.23,0.64v0.64h-0.29v-0.64c0-0.69,0.46-0.98,0.46-0.98
						l-1.1-1.33c-0.12-0.17,0-0.35,0.11-0.35h0.52v-1.1h0.29v1.1h0.35c0.12,0,0.17,0.11,0.17,0.17v1.62
						C-28.35,13.32-28.53,13.44-28.64,13.55"/>
				</g>
				<path id="path234" class="st3" d="M24.89,72.63h-0.52v-0.58h0.52V72.63z"/>
				<path id="path236" class="st3" d="M24.89,71.71h-0.52v-0.52h0.52V71.71z"/>
				<g id="g238" transform="translate(53.2973,59.3672)">
					<path id="path240" class="st3" d="M-28.64,13.55c0.4,0,0.69,0.35,0.69,0.75c0,0.4-0.29,0.69-0.69,0.69
						c-0.4,0-0.75-0.29-0.75-0.69C-29.39,13.9-29.04,13.55-28.64,13.55"/>
				</g>
				<g id="g242" transform="translate(54.1058,59.4827)">
					<path id="path244" class="st3" d="M-28.64,13.55c0.17,0.17,0.23,0.4,0.23,0.64v0.64h0.29v-0.64c0-0.69-0.46-0.98-0.46-0.98
						l1.1-1.33c0.12-0.17,0-0.35-0.11-0.35h-0.52v-1.1h-0.29v1.1h-0.35c-0.12,0-0.17,0.11-0.17,0.17v1.62
						C-28.93,13.32-28.76,13.44-28.64,13.55"/>
				</g>
				<g id="g246" transform="translate(54.1058,57.2303)">
					<path id="path248" class="st3" d="M-28.64,13.55c0-0.46-0.35-0.81-0.81-0.81c-0.46,0-0.87,0.35-0.87,0.81H-28.64z"/>
				</g>
				<g id="g250" transform="translate(52.44,59.4827)">
					<path id="path252" class="st3" d="M-28.64,13.55c-0.17,0.17-0.23,0.4-0.23,0.64v0.64h-0.29v-0.64c0-0.69,0.46-0.98,0.46-0.98
						l-1.1-1.33c-0.12-0.17,0-0.35,0.11-0.35h0.52v-1.1h0.29v1.1h0.35c0.12,0,0.17,0.11,0.17,0.17v1.62
						C-28.35,13.32-28.53,13.44-28.64,13.55"/>
				</g>
				<path id="path254" class="st3" d="M28.49,77.1h-0.52v-0.58h0.52V77.1z"/>
				<path id="path256" class="st3" d="M28.49,76.18h-0.52v-0.52h0.52V76.18z"/>
				<g id="g258" transform="translate(56.9008,63.8403)">
					<path id="path260" class="st3" d="M-28.64,13.55c0.4,0,0.69,0.35,0.69,0.75S-28.24,15-28.64,15c-0.4,0-0.75-0.29-0.75-0.69
						S-29.04,13.55-28.64,13.55"/>
				</g>
				<g id="g262" transform="translate(57.7094,63.9558)">
					<path id="path264" class="st3" d="M-28.64,13.55c0.17,0.17,0.23,0.4,0.23,0.64v0.64h0.29v-0.64c0-0.69-0.46-0.98-0.46-0.98
						l1.1-1.33c0.12-0.17,0-0.35-0.11-0.35h-0.52v-1.1h-0.29v1.1h-0.35c-0.11,0-0.17,0.11-0.17,0.17v1.62
						C-28.93,13.32-28.76,13.44-28.64,13.55"/>
				</g>
				<g id="g266" transform="translate(57.7094,61.7034)">
					<path id="path268" class="st3" d="M-28.64,13.55c0-0.46-0.35-0.81-0.81-0.81s-0.87,0.35-0.87,0.81H-28.64z"/>
				</g>
				<g id="g270" transform="translate(56.0435,63.9558)">
					<path id="path272" class="st3" d="M-28.64,13.55c-0.17,0.17-0.23,0.4-0.23,0.64v0.64h-0.29v-0.64c0-0.69,0.46-0.98,0.46-0.98
						l-1.1-1.33c-0.12-0.17,0-0.35,0.11-0.35h0.52v-1.1h0.29v1.1h0.35c0.12,0,0.17,0.11,0.17,0.17v1.62
						C-28.35,13.32-28.53,13.44-28.64,13.55"/>
				</g>
				<path id="path274" class="st3" d="M21.3,77.1h-0.52v-0.58h0.52V77.1z"/>
				<path id="path276" class="st3" d="M21.3,76.18h-0.52v-0.52h0.52V76.18z"/>
				<g id="g278" transform="translate(49.7113,63.8403)">
					<path id="path280" class="st3" d="M-28.64,13.55c0.4,0,0.69,0.35,0.69,0.75S-28.24,15-28.64,15c-0.4,0-0.75-0.29-0.75-0.69
						S-29.04,13.55-28.64,13.55"/>
				</g>
				<g id="g282" transform="translate(50.5199,63.9558)">
					<path id="path284" class="st3" d="M-28.64,13.55c0.17,0.17,0.23,0.4,0.23,0.64v0.64h0.29v-0.64c0-0.69-0.46-0.98-0.46-0.98
						l1.1-1.33c0.12-0.17,0-0.35-0.11-0.35h-0.52v-1.1h-0.29v1.1h-0.35c-0.11,0-0.17,0.11-0.17,0.17v1.62
						C-28.93,13.32-28.76,13.44-28.64,13.55"/>
				</g>
				<g id="g286" transform="translate(50.5199,61.7034)">
					<path id="path288" class="st3" d="M-28.64,13.55c0-0.46-0.35-0.81-0.81-0.81s-0.87,0.35-0.87,0.81H-28.64z"/>
				</g>
				<g id="g290" transform="translate(48.854,63.9558)">
					<path id="path292" class="st3" d="M-28.64,13.55c-0.17,0.17-0.23,0.4-0.23,0.64v0.64h-0.29v-0.64c0-0.69,0.46-0.98,0.46-0.98
						l-1.1-1.33c-0.12-0.17,0-0.35,0.12-0.35h0.52v-1.1h0.29v1.1h0.35c0.12,0,0.17,0.11,0.17,0.17v1.62
						C-28.35,13.32-28.53,13.44-28.64,13.55"/>
				</g>
			</g>
		</g>
	</g>
</g>
</svg>
