<?xml version="1.0" encoding="UTF-8" standalone="no"?>
<svg
   xmlns:dc="http://purl.org/dc/elements/1.1/"
   xmlns:cc="http://creativecommons.org/ns#"
   xmlns:rdf="http://www.w3.org/1999/02/22-rdf-syntax-ns#"
   xmlns:svg="http://www.w3.org/2000/svg"
   xmlns="http://www.w3.org/2000/svg"
   xmlns:sodipodi="http://sodipodi.sourceforge.net/DTD/sodipodi-0.dtd"
   xmlns:inkscape="http://www.inkscape.org/namespaces/inkscape"
   version="1.1"
   id="svg2"
   xml:space="preserve"
   width="377.95334"
   height="151.18134"
   viewBox="0 0 377.95334 151.18134"
   sodipodi:docname="Sportler.ai"><metadata
     id="metadata8"><rdf:RDF><cc:Work
         rdf:about=""><dc:format>image/svg+xml</dc:format><dc:type
           rdf:resource="http://purl.org/dc/dcmitype/StillImage" /></cc:Work></rdf:RDF></metadata><defs
     id="defs6"><clipPath
       clipPathUnits="userSpaceOnUse"
       id="clipPath20"><path
         d="M 0,0 H 283.465 V 113.387 H 0 Z"
         id="path18" /></clipPath><clipPath
       clipPathUnits="userSpaceOnUse"
       id="clipPath40"><path
         d="M 0,0 H 283.465 V 113.387 H 0 Z"
         id="path38" /></clipPath></defs><sodipodi:namedview
     pagecolor="#ffffff"
     bordercolor="#666666"
     borderopacity="1"
     objecttolerance="10"
     gridtolerance="10"
     guidetolerance="10"
     inkscape:pageopacity="0"
     inkscape:pageshadow="2"
     inkscape:window-width="640"
     inkscape:window-height="480"
     id="namedview4" /><g
     id="g10"
     inkscape:groupmode="layer"
     inkscape:label="Sportler"
     transform="matrix(1.3333333,0,0,-1.3333333,0,151.18133)"><path
       d="M 0,0 H 283.465 V 113.387 H 0 Z"
       style="fill:#004d90;fill-opacity:1;fill-rule:nonzero;stroke:none"
       id="path12" /><g
       id="g14"><g
         id="g16"
         clip-path="url(#clipPath20)"><g
           id="g22"
           transform="translate(32.4756,25.1045)"><path
             d="m 0,0 v 3.791 h 2.452 c 1.016,0 1.5,-0.226 1.855,-0.581 C 4.63,2.872 4.84,2.42 4.84,1.904 4.84,1.388 4.63,0.92 4.307,0.581 3.952,0.227 3.468,0 2.452,0 Z m 0,5.324 v 2.903 h 1.936 c 0.903,0 1.29,-0.176 1.549,-0.466 C 3.727,7.501 3.872,7.163 3.872,6.775 3.872,6.389 3.727,6.051 3.485,5.791 3.226,5.501 2.839,5.324 1.936,5.324 Z m 2.742,-6.856 c 1.146,0 1.888,0.274 2.469,0.759 0.758,0.613 1.242,1.563 1.242,2.613 0,1.274 -0.791,2.435 -1.855,2.968 0.532,0.5 0.887,1.243 0.887,2.016 C 5.485,7.663 5.13,8.438 4.549,8.97 4.017,9.453 3.323,9.761 2.226,9.761 H -1.613 V -1.532 Z m 14.035,6.856 v 2.903 h 4.84 V 9.761 H 15.164 V -1.532 h 6.614 V 0 h -5.001 v 3.791 h 3.711 v 1.533 z m 13.067,-5.13 c 1,-1.21 2.404,-1.887 3.953,-1.887 1.968,0 3.5,1.291 3.5,3.274 0,1.291 -0.709,2.081 -1.468,2.581 -1.452,0.969 -3.855,1.275 -3.855,2.71 0,0.984 0.935,1.518 1.871,1.518 0.71,0 1.404,-0.258 2.017,-0.776 l 0.951,1.178 c -0.597,0.5 -1.597,1.13 -3.032,1.13 -1.969,0 -3.42,-1.356 -3.42,-3 0,-1.179 0.629,-1.952 1.435,-2.486 1.501,-0.984 3.888,-1.176 3.888,-2.903 0,-1.016 -0.919,-1.693 -1.968,-1.693 -1.162,0 -2.097,0.644 -2.759,1.451 z m 14.794,8.033 h 3.065 v -9.759 h 1.613 v 9.759 h 3.065 v 1.534 h -7.743 z m 25.393,-9.759 h 1.613 V 9.76 h -1.613 z m 19.197,0 h 1.129 V 9.761 H 88.744 V 1.469 l -6.775,8.292 h -1.13 V -1.532 h 1.614 V 6.76 Z m 18.618,9.759 h 3.065 v -9.759 h 1.613 v 9.759 h 3.065 v 1.534 h -7.743 z m 23.714,-9.759 h 1.613 V 9.761 H 131.56 V 5.324 h -6.292 v 4.437 h -1.613 V -1.532 h 1.613 v 5.323 h 6.292 z m 13.228,6.856 v 2.903 h 4.84 v 1.534 h -6.453 V -1.532 h 6.614 V 0 h -5.001 v 3.791 h 3.711 v 1.533 z m 30.249,-6.856 h 1.678 l -4.678,11.293 h -1.129 l -4.679,-11.293 h 1.678 l 1.178,2.903 h 4.759 z m -3.565,8.631 1.743,-4.195 h -3.485 z m 14.632,2.662 h -1.613 V -1.532 h 6.614 V 0 h -5.001 z m 14.632,-4.76 v 3.226 h 2.581 c 0.774,0 1.193,-0.193 1.484,-0.5 0.274,-0.29 0.452,-0.676 0.452,-1.113 0,-0.434 -0.178,-0.823 -0.452,-1.113 -0.291,-0.306 -0.71,-0.5 -1.484,-0.5 z m 2.661,-1.532 c 1.097,0 1.807,0.274 2.356,0.741 0.677,0.581 1.113,1.436 1.113,2.404 0,0.968 -0.436,1.824 -1.113,2.404 -0.549,0.468 -1.259,0.743 -2.356,0.743 h -4.275 V -1.532 h 1.614 v 5.001 z m 10.357,-3.275 c 1,-1.21 2.404,-1.887 3.952,-1.887 1.969,0 3.501,1.291 3.501,3.274 0,1.291 -0.71,2.081 -1.468,2.581 -1.452,0.969 -3.856,1.275 -3.856,2.71 0,0.984 0.936,1.518 1.872,1.518 0.71,0 1.403,-0.258 2.016,-0.776 l 0.952,1.178 c -0.597,0.5 -1.597,1.13 -3.033,1.13 -1.968,0 -3.42,-1.356 -3.42,-3 0,-1.179 0.629,-1.952 1.436,-2.486 1.5,-0.984 3.888,-1.176 3.888,-2.903 0,-1.016 -0.92,-1.693 -1.968,-1.693 -1.162,0 -2.097,0.644 -2.759,1.451 z"
             style="fill:#ffffff;fill-opacity:1;fill-rule:nonzero;stroke:none"
             id="path24" /></g></g></g><g
       id="g26"
       transform="translate(203.3877,92.0317)"><path
         d="m 0,0 -1.814,-6.212 h -22.317 l -8.694,-29.939 h -10.664 l 8.74,29.939 H -56.602 L -54.789,0 Z"
         style="fill:#ffffff;fill-opacity:1;fill-rule:nonzero;stroke:none"
         id="path28" /></g><g
       id="g30"
       transform="translate(183.8818,81.4473)"><path
         d="M 0,0 H 10.434 L 1.577,-30.325 h 22.26 l -1.823,-6.255 h -32.692 z"
         style="fill:#ffffff;fill-opacity:1;fill-rule:nonzero;stroke:none"
         id="path32" /></g><g
       id="g34"><g
         id="g36"
         clip-path="url(#clipPath40)"><g
           id="g42"
           transform="translate(69.875,81.4263)"><path
             d="m 0,0 h 20.153 c 0,0 9.974,0 7.076,-9.905 -2.571,-8.78 -11.902,-8.791 -11.902,-8.791 H 5.264 l -1.975,-6.851 h -10.76 l 3.892,13.337 16.525,0.02 c 0,0 3.119,0 3.94,2.705 0.781,2.569 -2.168,2.892 -2.168,2.892 l -16.69,-0.019 z"
             style="fill:#ffffff;fill-opacity:1;fill-rule:nonzero;stroke:none"
             id="path44" /></g><g
           id="g46"
           transform="translate(44.8682,62.7256)"><path
             d="m 0,0 c 0,0 2.89,0.009 3.342,1.547 0.726,2.465 -2.617,2.465 -6.462,2.465 -1.183,0 -9.568,0.014 -7.214,8.109 1.915,6.586 10.111,6.58 12.825,6.58 H 19.477 L 17.531,12.048 3.114,11.98 c 0,0 -2.632,-0.147 -3.152,-1.92 -0.581,-1.985 1.803,-2.047 5.742,-2.047 2.822,0 11.987,0.048 9.55,-8.303 C 13.339,-6.849 4.658,-6.849 0.986,-6.849 H -14.979 L -13.033,0 Z"
             style="fill:#ffffff;fill-opacity:1;fill-rule:nonzero;stroke:none"
             id="path48" /></g><g
           id="g50"
           transform="translate(247.0566,81.4263)"><path
             d="M 0,0 C 0,0 9.392,0 7.004,-8.162 5.084,-14.717 -4.42,-14.759 -4.42,-14.759 L 1.842,-25.571 H -8.804 l -7.736,13.361 9.009,0.02 c 0,0 3.119,0 3.943,2.705 0.776,2.569 -2.17,2.892 -2.17,2.892 L -19.122,-6.612 -17.153,0 Z"
             style="fill:#ffffff;fill-opacity:1;fill-rule:nonzero;stroke:none"
             id="path52" /></g><g
           id="g54"
           transform="translate(132.1802,73.8037)"><path
             d="m 0,0 c 0,7.773 -7.587,8.015 -14.222,8.015 -6.67,0 -12.13,-0.626 -15.281,-5.4 -2.603,-3.973 -4.141,-9.34 -4.141,-12.931 0,-7.773 5.901,-8.266 14.039,-8.266 5.239,0 12.311,0.563 15.168,4.889 C -1.575,-9.477 0,-3.59 0,0 m -10.919,-2.044 c 0,-3.423 -1.692,-6.678 -2.178,-7.521 -1.332,-2.327 -2.668,-2.876 -5.912,-2.876 -1.824,0 -4.044,0.719 -4.044,3.846 0,1.521 1.021,4.943 2.22,7.101 1.598,2.871 3.423,2.999 5.6,2.999 3.068,0 4.314,-1.353 4.314,-3.549"
             style="fill:#ffffff;fill-opacity:1;fill-rule:nonzero;stroke:none"
             id="path56" /></g><g
           id="g58"
           transform="translate(153.877,81.4263)"><path
             d="M 0,0 C 0,0 9.389,0 7.001,-8.162 5.081,-14.717 -4.42,-14.759 -4.42,-14.759 L 1.841,-25.571 H -8.807 l -7.734,13.361 9.008,0.02 c 0,0 3.123,0 3.939,2.705 0.78,2.569 -2.167,2.892 -2.167,2.892 L -19.122,-6.612 -17.154,0 Z"
             style="fill:#ffffff;fill-opacity:1;fill-rule:nonzero;stroke:none"
             id="path60" /></g></g></g><g
       id="g62"
       transform="translate(200.3213,81.4395)"><path
         d="M 0,0 25.125,0.008 23.219,-6.607 H 7.441 L 6.527,-9.799 h 15.766 l -1.669,-5.882 H 4.832 l -0.933,-3.03 h 15.776 l -2.001,-6.862 -25.139,0.009 z"
         style="fill:#ffffff;fill-opacity:1;fill-rule:nonzero;stroke:none"
         id="path64" /></g></g></svg>
