<?xml version="1.0" encoding="utf-8"?>
<!-- Generator: Adobe Illustrator 26.4.1, SVG Export Plug-In . SVG Version: 6.00 Build 0)  -->
<svg version="1.1" id="Livello_1" xmlns="http://www.w3.org/2000/svg" xmlns:xlink="http://www.w3.org/1999/xlink" x="0px" y="0px"
	 viewBox="0 0 841.9 450" style="enable-background:new 0 0 841.9 450;" xml:space="preserve">
<path style="fill:#8A2432;" d="M92.8,277c3,2.3,4.5,5.6,4.5,9.7c0,4.1-1.5,7.3-4.5,9.7c-3,2.3-7.1,3.5-12.4,3.5h-12v12.8h-3.1v-39.2
	h15C85.7,273.5,89.8,274.7,92.8,277 M90.6,294.6c2.4-1.8,3.5-4.4,3.5-7.8c0-3.4-1.2-6-3.5-7.9c-2.4-1.8-5.8-2.8-10.2-2.8h-12v21.2
	h12C84.9,297.3,88.3,296.4,90.6,294.6"/>
<path style="fill:#8A2432;" d="M126.7,286c2.1,1.8,3.1,4.6,3.1,8.1v18.5H127v-5.2c-1,1.7-2.5,3.1-4.4,4c-1.9,1-4.2,1.4-6.9,1.4
	c-3.5,0-6.2-0.8-8.2-2.3c-2-1.5-3-3.5-3-6c0-2.4,0.9-4.4,2.8-5.9c1.9-1.5,4.8-2.3,8.9-2.3h10.7v-2.4c0-2.7-0.8-4.8-2.4-6.2
	c-1.6-1.4-3.9-2.1-6.9-2.1c-2.1,0-4.1,0.3-6,1c-1.9,0.7-3.5,1.6-4.8,2.7l-1.5-2c1.6-1.3,3.4-2.3,5.6-3.1c2.2-0.7,4.5-1.1,6.9-1.1
	C121.7,283.3,124.6,284.2,126.7,286 M122.7,309c1.8-1.1,3.2-2.7,4.1-4.9v-5.5h-10.7c-3.1,0-5.3,0.5-6.7,1.6c-1.4,1-2.1,2.5-2.1,4.3
	c0,1.9,0.8,3.4,2.3,4.5c1.5,1.1,3.7,1.7,6.4,1.7C118.7,310.7,120.9,310.1,122.7,309"/>
<path style="fill:#8A2432;" d="M142.9,311.9c-2.3-0.7-4.1-1.6-5.3-2.7l1.4-2.2c1.3,1,2.9,1.8,4.9,2.5s4.1,1,6.3,1
	c3.2,0,5.5-0.5,7-1.5c1.5-1,2.2-2.3,2.2-4c0-1.2-0.4-2.2-1.2-2.9c-0.8-0.7-1.8-1.2-3-1.6s-2.9-0.7-5-1.1c-2.5-0.4-4.5-0.9-6-1.3
	c-1.5-0.5-2.8-1.3-3.9-2.4c-1.1-1.1-1.6-2.6-1.6-4.5c0-2.3,1-4.2,3.1-5.7c2.1-1.5,5-2.3,8.8-2.3c2,0,4,0.3,5.9,0.8
	c2,0.5,3.6,1.2,4.8,2.1l-1.4,2.2c-1.3-0.9-2.7-1.5-4.4-2c-1.6-0.4-3.3-0.7-5-0.7c-2.9,0-5.1,0.5-6.6,1.5c-1.5,1-2.2,2.3-2.2,4
	c0,1.3,0.4,2.3,1.3,3.1c0.8,0.7,1.9,1.3,3.1,1.6c1.2,0.4,2.9,0.7,5.1,1.1c2.4,0.4,4.4,0.9,5.9,1.3c1.5,0.5,2.8,1.2,3.8,2.3
	c1,1,1.6,2.5,1.6,4.3c0,2.4-1.1,4.4-3.2,5.8s-5.2,2.2-9.1,2.2C147.6,312.9,145.2,312.6,142.9,311.9"/>
<path style="fill:#8A2432;" d="M171.5,311.9c-2.3-0.7-4.1-1.6-5.3-2.7l1.4-2.2c1.3,1,2.9,1.8,4.9,2.5s4.1,1,6.3,1
	c3.2,0,5.5-0.5,7-1.5c1.5-1,2.2-2.3,2.2-4c0-1.2-0.4-2.2-1.2-2.9c-0.8-0.7-1.8-1.2-3-1.6s-2.9-0.7-5-1.1c-2.5-0.4-4.5-0.9-6-1.3
	c-1.5-0.5-2.8-1.3-3.9-2.4c-1.1-1.1-1.6-2.6-1.6-4.5c0-2.3,1-4.2,3.1-5.7c2.1-1.5,5-2.3,8.8-2.3c2,0,4,0.3,5.9,0.8
	c2,0.5,3.6,1.2,4.8,2.1l-1.4,2.2c-1.3-0.9-2.7-1.5-4.4-2c-1.6-0.4-3.3-0.7-5-0.7c-2.9,0-5.1,0.5-6.6,1.5c-1.5,1-2.2,2.3-2.2,4
	c0,1.3,0.4,2.3,1.3,3.1c0.8,0.7,1.9,1.3,3.1,1.6c1.2,0.4,2.9,0.7,5.1,1.1c2.4,0.4,4.4,0.9,5.9,1.3c1.5,0.5,2.8,1.2,3.8,2.3
	c1,1,1.6,2.5,1.6,4.3c0,2.4-1.1,4.4-3.2,5.8s-5.2,2.2-9.1,2.2C176.2,312.9,173.8,312.6,171.5,311.9"/>
<path style="fill:#8A2432;" d="M199.2,275.7c-0.5-0.4-0.7-1-0.7-1.6c0-0.6,0.2-1.2,0.7-1.6c0.5-0.4,1.1-0.7,1.7-0.7s1.3,0.2,1.7,0.6
	c0.5,0.4,0.7,1,0.7,1.6s-0.2,1.2-0.7,1.6c-0.5,0.4-1.1,0.7-1.7,0.7S199.7,276.2,199.2,275.7 M199.5,283.5h3v29.2h-3V283.5z"/>
<path style="fill:#8A2432;" d="M219.3,311c-2.4-1.3-4.2-3-5.6-5.3c-1.4-2.3-2-4.8-2-7.6c0-2.8,0.7-5.4,2-7.6c1.4-2.3,3.2-4,5.6-5.3
	c2.4-1.3,5-1.9,8-1.9c3,0,5.6,0.6,8,1.9c2.4,1.3,4.2,3,5.6,5.3c1.4,2.3,2,4.8,2,7.6c0,2.8-0.7,5.4-2,7.6c-1.4,2.3-3.2,4-5.6,5.3
	c-2.4,1.3-5,1.9-8,1.9C224.4,313,221.7,312.3,219.3,311 M233.8,308.9c1.9-1,3.4-2.5,4.5-4.4c1.1-1.9,1.6-4,1.6-6.4
	c0-2.4-0.6-4.5-1.6-6.4c-1.1-1.9-2.6-3.3-4.5-4.4c-1.9-1-4-1.6-6.4-1.6c-2.4,0-4.5,0.5-6.4,1.6c-1.9,1-3.4,2.5-4.5,4.4
	c-1.1,1.9-1.6,4-1.6,6.4c0,2.4,0.5,4.5,1.6,6.4c1.1,1.9,2.6,3.3,4.5,4.4s4,1.6,6.4,1.6C229.7,310.4,231.9,309.9,233.8,308.9"/>
<path style="fill:#8A2432;" d="M276.8,286.5c2.3,2.1,3.4,5.2,3.4,9.2v17.1h-3v-16.9c0-3.3-0.9-5.8-2.7-7.5c-1.8-1.7-4.3-2.6-7.5-2.6
	c-3.7,0-6.6,1-8.7,3.1c-2.1,2.1-3.2,4.8-3.2,8.3v15.6h-3v-29.2h2.9v6.3c1.1-2.1,2.7-3.7,4.8-4.8c2.1-1.2,4.7-1.7,7.6-1.7
	C271.4,283.3,274.5,284.3,276.8,286.5"/>
<path style="fill:#8A2432;" d="M319,298.8h-26.9c0.1,2.3,0.7,4.3,1.9,6.1c1.2,1.8,2.7,3.1,4.7,4.1c2,1,4.2,1.5,6.7,1.5
	c2,0,3.9-0.3,5.7-1c1.7-0.7,3.2-1.7,4.3-3.1l1.7,1.8c-1.4,1.5-3.1,2.7-5.1,3.5c-2.1,0.8-4.3,1.2-6.7,1.2c-3.1,0-5.9-0.6-8.3-1.9
	c-2.4-1.3-4.3-3-5.7-5.3c-1.4-2.2-2.1-4.8-2.1-7.7c0-2.8,0.6-5.4,1.9-7.6c1.3-2.3,3.1-4,5.4-5.3c2.3-1.3,4.8-1.9,7.7-1.9
	c2.8,0,5.4,0.6,7.6,1.9c2.3,1.3,4,3,5.3,5.2c1.3,2.2,1.9,4.8,1.9,7.6L319,298.8z M298.2,287.1c-1.8,0.9-3.2,2.2-4.2,3.9
	c-1.1,1.7-1.7,3.5-1.8,5.6h24c-0.1-2.1-0.7-4-1.8-5.6c-1.1-1.6-2.5-2.9-4.3-3.9c-1.8-0.9-3.7-1.4-5.9-1.4
	C301.9,285.7,300,286.2,298.2,287.1"/>
<path style="fill:#8A2432;" d="M348,311c-2.4-1.3-4.3-3-5.6-5.3s-2-4.8-2-7.6c0-2.9,0.7-5.4,2-7.7c1.4-2.3,3.2-4,5.6-5.3
	c2.4-1.2,5.1-1.9,8.1-1.9c2.5,0,4.8,0.5,6.9,1.4c2.1,0.9,3.7,2.2,5,4l-2.2,1.5c-1.1-1.5-2.5-2.5-4.2-3.3c-1.7-0.7-3.5-1.1-5.5-1.1
	c-2.4,0-4.6,0.5-6.6,1.5c-1.9,1-3.5,2.5-4.6,4.3c-1.1,1.9-1.6,4-1.6,6.4c0,2.4,0.5,4.6,1.6,6.4c1.1,1.9,2.6,3.3,4.6,4.3
	c1.9,1,4.1,1.5,6.6,1.5c2,0,3.8-0.4,5.5-1.1c1.7-0.7,3-1.8,4.2-3.3l2.2,1.5c-1.3,1.8-2.9,3.1-5,4c-2.1,0.9-4.3,1.4-6.9,1.4
	C353.1,312.9,350.4,312.3,348,311"/>
<path style="fill:#8A2432;" d="M381.2,311c-2.4-1.3-4.2-3-5.6-5.3c-1.4-2.3-2-4.8-2-7.6c0-2.8,0.7-5.4,2-7.6c1.4-2.3,3.2-4,5.6-5.3
	c2.4-1.3,5-1.9,8-1.9c3,0,5.6,0.6,8,1.9c2.4,1.3,4.2,3,5.6,5.3c1.4,2.3,2,4.8,2,7.6c0,2.8-0.7,5.4-2,7.6c-1.4,2.3-3.2,4-5.6,5.3
	c-2.4,1.3-5,1.9-8,1.9C386.3,313,383.6,312.3,381.2,311 M395.7,308.9c1.9-1,3.4-2.5,4.5-4.4c1.1-1.9,1.6-4,1.6-6.4
	c0-2.4-0.6-4.5-1.6-6.4c-1.1-1.9-2.6-3.3-4.5-4.4c-1.9-1-4-1.6-6.4-1.6c-2.4,0-4.5,0.5-6.4,1.6c-1.9,1-3.4,2.5-4.5,4.4
	c-1.1,1.9-1.6,4-1.6,6.4c0,2.4,0.5,4.5,1.6,6.4c1.1,1.9,2.6,3.3,4.5,4.4s4,1.6,6.4,1.6C391.6,310.4,393.8,309.9,395.7,308.9"/>
<rect x="414.1" y="271.2" style="fill:#8A2432;" width="3" height="41.6"/>
<path style="fill:#8A2432;" d="M434,311c-2.4-1.3-4.2-3-5.6-5.3c-1.4-2.3-2-4.8-2-7.6c0-2.8,0.7-5.4,2-7.6c1.4-2.3,3.2-4,5.6-5.3
	c2.4-1.3,5-1.9,8-1.9c3,0,5.6,0.6,8,1.9c2.4,1.3,4.2,3,5.6,5.3c1.4,2.3,2,4.8,2,7.6c0,2.8-0.7,5.4-2,7.6c-1.4,2.3-3.2,4-5.6,5.3
	c-2.4,1.3-5,1.9-8,1.9C439.1,313,436.4,312.3,434,311 M448.4,308.9c1.9-1,3.4-2.5,4.5-4.4c1.1-1.9,1.6-4,1.6-6.4
	c0-2.4-0.6-4.5-1.6-6.4c-1.1-1.9-2.6-3.3-4.5-4.4c-1.9-1-4-1.6-6.4-1.6c-2.4,0-4.5,0.5-6.4,1.6c-1.9,1-3.4,2.5-4.5,4.4
	c-1.1,1.9-1.6,4-1.6,6.4c0,2.4,0.5,4.5,1.6,6.4c1.1,1.9,2.6,3.3,4.5,4.4s4,1.6,6.4,1.6C444.4,310.4,446.6,309.9,448.4,308.9"/>
<path style="fill:#8A2432;" d="M474.3,285c2-1.1,4.5-1.7,7.4-1.7v2.7L481,286c-3.5,0-6.2,1-8.1,3.1c-2,2-2.9,4.9-2.9,8.5v15.2h-3
	v-29.2h2.9v6.4C470.8,287.7,472.3,286.1,474.3,285"/>
<path style="fill:#8A2432;" d="M517,298.8h-26.9c0.1,2.3,0.7,4.3,1.9,6.1c1.2,1.8,2.7,3.1,4.7,4.1c2,1,4.2,1.5,6.7,1.5
	c2,0,3.9-0.3,5.7-1c1.7-0.7,3.2-1.7,4.3-3.1l1.7,1.8c-1.4,1.5-3.1,2.7-5.1,3.5c-2.1,0.8-4.3,1.2-6.7,1.2c-3.1,0-5.9-0.6-8.3-1.9
	c-2.4-1.3-4.3-3-5.7-5.3c-1.4-2.2-2.1-4.8-2.1-7.7c0-2.8,0.6-5.4,1.9-7.6c1.3-2.3,3.1-4,5.4-5.3c2.3-1.3,4.8-1.9,7.7-1.9
	c2.8,0,5.4,0.6,7.6,1.9c2.3,1.3,4,3,5.3,5.2c1.3,2.2,1.9,4.8,1.9,7.6L517,298.8z M496.2,287.1c-1.8,0.9-3.2,2.2-4.2,3.9
	c-1.1,1.7-1.7,3.5-1.8,5.6h24c-0.1-2.1-0.7-4-1.8-5.6c-1.1-1.6-2.5-2.9-4.3-3.9c-1.8-0.9-3.7-1.4-5.9-1.4
	C499.9,285.7,497.9,286.2,496.2,287.1"/>
<path style="fill:#8A2432;" d="M569.5,271.2v41.6h-2.9v-6.9c-1.2,2.3-3,4-5.2,5.3c-2.2,1.2-4.8,1.8-7.6,1.8c-2.9,0-5.6-0.6-7.9-1.9
	c-2.4-1.3-4.2-3-5.5-5.3c-1.3-2.2-2-4.8-2-7.7c0-2.9,0.7-5.4,2-7.7c1.3-2.3,3.2-4,5.5-5.3c2.4-1.2,5-1.9,7.9-1.9
	c2.8,0,5.3,0.6,7.5,1.8c2.2,1.2,4,2.9,5.2,5.2v-19.1H569.5z M560.4,308.9c1.9-1,3.4-2.5,4.5-4.4c1.1-1.9,1.6-4,1.6-6.4
	c0-2.4-0.5-4.5-1.6-6.4c-1.1-1.9-2.6-3.3-4.5-4.4c-1.9-1-4-1.6-6.4-1.6c-2.4,0-4.5,0.5-6.4,1.6c-1.9,1-3.4,2.5-4.5,4.4
	c-1.1,1.9-1.6,4-1.6,6.4c0,2.4,0.5,4.5,1.6,6.4c1.1,1.9,2.6,3.3,4.5,4.4c1.9,1,4,1.6,6.4,1.6C556.3,310.4,558.5,309.9,560.4,308.9"
	/>
<path style="fill:#8A2432;" d="M601.6,286c2.1,1.8,3.1,4.6,3.1,8.1v18.5h-2.9v-5.2c-1,1.7-2.5,3.1-4.4,4c-1.9,1-4.2,1.4-6.9,1.4
	c-3.5,0-6.2-0.8-8.2-2.3c-2-1.5-3-3.5-3-6c0-2.4,0.9-4.4,2.8-5.9c1.9-1.5,4.8-2.3,8.9-2.3h10.7v-2.4c0-2.7-0.8-4.8-2.4-6.2
	c-1.6-1.4-3.9-2.1-6.9-2.1c-2.1,0-4.1,0.3-6,1c-1.9,0.7-3.5,1.6-4.8,2.7l-1.5-2c1.6-1.3,3.4-2.3,5.6-3.1c2.2-0.7,4.5-1.1,6.9-1.1
	C596.6,283.3,599.6,284.2,601.6,286 M597.6,309c1.8-1.1,3.2-2.7,4.1-4.9v-5.5h-10.7c-3.1,0-5.3,0.5-6.7,1.6c-1.4,1-2.1,2.5-2.1,4.3
	c0,1.9,0.8,3.4,2.3,4.5c1.5,1.1,3.7,1.7,6.4,1.7C593.6,310.7,595.8,310.1,597.6,309"/>
<rect x="617.1" y="271.2" style="fill:#8A2432;" width="3" height="41.6"/>
<polygon style="fill:#8A2432;" points="655.6,273.5 655.6,312.7 652.6,312.7 652.6,276.1 642.3,276.1 642.3,273.5 "/>
<path style="fill:#8A2432;" d="M691.4,278.4c2.9,3.5,4.3,8.3,4.3,14.5c0,4.3-0.8,8-2.3,11c-1.5,3-3.7,5.3-6.5,6.8
	c-2.8,1.5-6.1,2.3-9.8,2.3c-4,0-7.1-0.7-9.5-2l1.3-2.3c2,1.2,4.8,1.8,8.3,1.8c4.8,0,8.6-1.5,11.4-4.4c2.8-2.9,4.2-7.2,4.2-12.7
	c0-1.7-0.1-3.3-0.4-4.7c-0.8,2.5-2.5,4.5-4.9,5.9c-2.4,1.4-5.2,2.1-8.5,2.1c-2.8,0-5.2-0.5-7.3-1.4c-2.1-1-3.8-2.3-4.9-4.1
	c-1.2-1.8-1.7-3.8-1.7-6.1c0-2.4,0.6-4.4,1.8-6.2c1.2-1.8,2.9-3.2,5-4.1c2.1-1,4.5-1.5,7.2-1.5C684.3,273.2,688.5,275,691.4,278.4
	 M685.4,293c1.8-0.8,3.2-1.9,4.1-3.4c1-1.4,1.5-3,1.5-4.8c0-1.6-0.5-3.1-1.4-4.5c-0.9-1.4-2.3-2.6-4.1-3.4c-1.8-0.9-4-1.3-6.5-1.3
	c-3.3,0-5.9,0.9-8,2.5c-2,1.7-3.1,3.9-3.1,6.7c0,2.8,1,5,3.1,6.7c2,1.7,4.8,2.5,8.3,2.5C681.6,294.2,683.6,293.8,685.4,293"/>
<path style="fill:#8A2432;" d="M726.4,291c2.1,1,3.8,2.3,4.9,4.1c1.2,1.8,1.7,3.8,1.7,6.1c0,2.4-0.6,4.4-1.8,6.2
	c-1.2,1.8-2.9,3.2-5,4.1c-2.1,1-4.5,1.5-7.2,1.5c-5.4,0-9.6-1.7-12.5-5.2s-4.3-8.3-4.3-14.5c0-4.3,0.8-8,2.3-11
	c1.5-3,3.7-5.3,6.5-6.8c2.8-1.5,6.1-2.3,9.8-2.3c4,0,7.1,0.7,9.5,2l-1.3,2.3c-2-1.2-4.8-1.8-8.3-1.8c-4.8,0-8.6,1.5-11.4,4.4
	c-2.8,2.9-4.2,7.2-4.2,12.7c0,1.7,0.1,3.3,0.4,4.7c0.8-2.5,2.5-4.5,4.9-5.9c2.4-1.4,5.2-2.1,8.5-2.1
	C721.8,289.5,724.3,290,726.4,291 M727,308c2-1.7,3.1-3.9,3.1-6.7c0-2.8-1-5-3.1-6.7c-2-1.7-4.8-2.5-8.3-2.5c-2.2,0-4.2,0.4-6,1.2
	c-1.8,0.8-3.2,1.9-4.1,3.4c-1,1.4-1.5,3-1.5,4.8c0,1.6,0.5,3.1,1.4,4.5c0.9,1.4,2.3,2.6,4.1,3.4c1.8,0.9,4,1.3,6.5,1.3
	C722.3,310.5,724.9,309.7,727,308"/>
<path style="fill:#8A2432;" d="M767.5,295.8c1.6,1.7,2.4,3.7,2.4,6.2c0,3.4-1.4,6.1-4.3,8.1c-2.8,2-6.7,2.9-11.7,2.9
	c-4.9,0-8.8-1-11.6-2.9c-2.8-2-4.2-4.7-4.2-8.1c0-2.5,0.8-4.5,2.3-6.2c1.5-1.7,3.7-2.8,6.6-3.6c-2.4-0.7-4.2-1.9-5.5-3.4
	c-1.3-1.5-1.9-3.3-1.9-5.5c0-3.1,1.3-5.6,3.9-7.4c2.6-1.8,6.1-2.7,10.4-2.7c4.4,0,7.8,0.9,10.5,2.7c2.6,1.8,4,4.3,4,7.4
	c0,2.1-0.6,3.9-1.9,5.5c-1.3,1.5-3.2,2.6-5.6,3.4C763.7,292.9,765.9,294.1,767.5,295.8 M763.4,308.2c2.3-1.5,3.4-3.6,3.4-6.3
	c0-2.6-1.1-4.7-3.4-6.2c-2.3-1.5-5.4-2.3-9.5-2.3c-4,0-7.1,0.8-9.4,2.3c-2.3,1.5-3.4,3.6-3.4,6.2c0,2.7,1.1,4.7,3.4,6.3
	c2.2,1.5,5.4,2.3,9.4,2.3C758,310.5,761.1,309.8,763.4,308.2 M745.6,289c2,1.4,4.7,2.1,8.3,2.1c3.6,0,6.3-0.7,8.4-2
	c2-1.4,3-3.2,3-5.6c0-2.4-1-4.3-3.1-5.7c-2.1-1.4-4.8-2.1-8.3-2.1c-3.5,0-6.2,0.7-8.2,2.1c-2,1.4-3,3.3-3,5.7
	C742.7,285.8,743.7,287.7,745.6,289"/>
<path style="fill:#54575A;" d="M64,247.4l11.4-25.7c9.9,5.8,23,9.6,34.5,9.6c10,0,13.6-2.1,13.6-5.7c0-13.1-57.8-2.5-57.8-41.5
	c0-19.4,16.3-35.3,48.7-35.3c14,0,28.5,3,39.4,9.1l-10.6,25.5c-10.3-5.2-20-7.8-29.1-7.8c-10.3,0-13.6,3-13.6,6.6
	c0,12.5,57.8,2.1,57.8,40.6c0,19.1-16.3,35.3-48.7,35.3C92.1,258.2,74.5,253.9,64,247.4"/>
<polygon style="fill:#54575A;" points="190,178.6 159.4,178.6 159.4,151.2 255.9,151.2 255.9,178.6 225.3,178.6 225.3,255.8 
	190,255.8 "/>
<path style="fill:#54575A;" d="M309.9,229.5h-9.6v26.3h-35.3V151.2h50.3c29.1,0,47.7,15.2,47.7,39.4c0,15.1-7.2,26.4-20.7,32.9
	l22,32.3h-37.6L309.9,229.5z M313.2,178.4h-12.8v24.5h12.8c9.7,0,14.3-4.6,14.3-12.2C327.5,183.1,322.9,178.4,313.2,178.4"/>
<path style="fill:#54575A;" d="M449.7,237.6H410l-7,18.2h-35.9l45.7-104.6h34.7l45.7,104.6h-36.5L449.7,237.6z M440,212.2
	l-10.2-26.3l-10.2,26.3H440z"/>
<path style="fill:#54575A;" d="M493.8,208.8v-57.5H529v56.5c0,16,6.1,22,16,22s16-6,16-22v-56.5h34.7v57.5
	c0,31.4-18.8,49.4-50.9,49.4C512.6,258.2,493.8,240.1,493.8,208.8"/>
<path style="fill:#8A2432;" d="M611.8,151.2h51.5c35,0,59,19.9,59,52.3c0,32.4-24,52.3-59,52.3h-51.5V151.2z M661.9,228.3
	c14.8,0,24.9-8.8,24.9-24.8s-10.2-24.8-24.9-24.8h-14.8v49.6H661.9z"/>
<path style="fill:#54575A;" d="M768.4,151.3v104.5h-33.6v-78.5C734.8,156.3,749.9,151.6,768.4,151.3"/>
<path style="fill:#8A2432;" d="M770.5,94.7c4.9,4.8,7.4,11.1,7.4,18c0,7.3-2.5,13-7.5,18.1c-11.4,10.9-34,6.9-39.4,20.5
	c-3.8-12.7-11.6-43.5,2.2-56.8c5-4.8,11.3-7.3,18.6-7.3C759,87.3,766.6,90.9,770.5,94.7"/>
</svg>
