<?xml version="1.0" encoding="utf-8"?>
<!-- Generator: Adobe Illustrator 26.4.1, SVG Export Plug-In . SVG Version: 6.00 Build 0)  -->
<svg version="1.1" id="Layer_1" xmlns="http://www.w3.org/2000/svg" xmlns:xlink="http://www.w3.org/1999/xlink" x="0px" y="0px"
	 viewBox="0 0 501.3 244.9" style="enable-background:new 0 0 501.3 244.9;" xml:space="preserve">
<g>
	<path style="fill-rule:evenodd;clip-rule:evenodd;fill:#0075BE;" d="M230,125.3c0,2.8-1,5.2-3,7.2c-2,2-4.4,3-7.2,3
		c-2.8,0-5.2-1-7.2-3c-2-2-3-4.4-3-7.2v-20.5c0-2.8,1-5.2,3-7.2c2-2,4.4-3,7.2-3c2.8,0,5.2,1,7.2,3c2,2,3,4.4,3,7.2v1.8h-5.9v-1.8
		c0-1.2-0.4-2.2-1.3-3c-0.8-0.9-1.8-1.3-3-1.3c-1.2,0-2.2,0.4-3.1,1.3c-0.8,0.8-1.2,1.8-1.2,3v20.5c0,1.2,0.4,2.2,1.2,3.1
		c0.8,0.8,1.9,1.2,3.1,1.2c1.2,0,2.2-0.4,3-1.2c0.9-0.8,1.3-1.9,1.3-3.1v-0.7l5.9-2V125.3z"/>
	<path style="fill-rule:evenodd;clip-rule:evenodd;fill:#0075BE;" d="M251,98.7l-4.3,3.3c-0.9-1-1.7-1.5-2.6-1.5
		c-1.2,0-2.2,0.4-3.1,1.3c-0.8,0.8-1.2,1.8-1.2,3v30.7h-5.9V94.6h3.9l1.3,2.3c1.1-1.5,2.8-2.3,5-2.3C247.1,94.6,249.4,96,251,98.7z"
		/>
	<path style="fill-rule:evenodd;clip-rule:evenodd;fill:#0075BE;" d="M259.9,86.8c0,1-0.3,1.9-0.8,2.6c-0.5,0.7-1.2,1.1-2,1.1
		c-0.9,0-1.6-0.4-2.2-1.1c-0.6-0.8-0.9-1.7-0.9-2.6c0-0.9,0.3-1.8,0.9-2.5c0.6-0.8,1.3-1.2,2.2-1.2c0.9,0,1.6,0.4,2,1.1
		C259.7,84.9,259.9,85.8,259.9,86.8z M259.9,135.6H254v-38l5.9-2V135.6z"/>
	<path style="fill-rule:evenodd;clip-rule:evenodd;fill:#0075BE;" d="M285.6,125.3c0,2.8-1,5.2-3,7.2c-2,2-4.4,3-7.2,3
		c-2.8,0-5.2-1-7.2-3c-2-2-3-4.4-3-7.2v-2.8l5.9,1.3v1.5c0,1.2,0.4,2.2,1.2,3.1c0.8,0.8,1.9,1.2,3.1,1.2c1.2,0,2.2-0.4,3-1.2
		c0.9-0.8,1.3-1.9,1.3-3.1c0-2.3-1.3-4.5-3.8-6.5c-2.3-1.8-4.7-3.6-7-5.3c-2.5-2.5-3.7-5.5-3.7-9.1c0-2.8,1-5.2,3-7.2
		c2-2,4.4-3,7.2-3c2.8,0,5.2,1,7.2,3c2,2,3,4.4,3,7.2v2.8l-5.9-1.3v-1.5c0-1.2-0.4-2.2-1.3-3.1c-0.8-0.8-1.8-1.2-3-1.2
		c-1.2,0-2.2,0.4-3.1,1.2c-0.8,0.8-1.2,1.9-1.2,3.1c0,2.4,1.2,4.7,3.7,6.8c2.3,1.9,4.7,3.7,7,5.5C284.3,119.1,285.6,122,285.6,125.3
		z"/>
	<path style="fill-rule:evenodd;clip-rule:evenodd;fill:#0075BE;" d="M310.5,125.3c0,3.2-0.9,5.6-2.6,7.5c-1.7,1.8-3.8,2.7-6.1,2.7
		h-0.2c-2.4,0-4.4-0.9-6.1-2.6c-1.9-1.9-2.8-4.4-2.8-7.6v-24.8h-3.7v-5.9h3.7V85l5.9-2v11.6h9.3v5.9h-9.3v24.8
		c0,1.4,0.3,2.4,0.9,3.2c0.6,0.7,1.3,1.1,2,1.1h0.1h0.1c1.9-0.1,2.8-1.5,2.8-4.3v-0.7l5.9-2V125.3z"/>
	<path style="fill-rule:evenodd;clip-rule:evenodd;fill:#0075BE;" d="M334.7,135.6h-3.9l-1.3-2.3c-1.6,1.5-3.2,2.3-5,2.3
		c-2.8,0-5.2-1-7.2-3c-2-2-3-4.4-3-7.2c0-3.2,1.2-6,3.7-8.4c0.6-0.6,3-2.2,7-5c2.5-1.7,3.8-3.3,3.8-4.8v-2.3c0-1.2-0.4-2.2-1.3-3
		c-0.8-0.9-1.8-1.3-3-1.3c-2.1,0-3.5,1-4.1,2.9l-5-2.6c0.4-2,1.5-3.5,3.1-4.6c1.7-1.1,3.6-1.7,5.9-1.7c2.8,0,5.2,1,7.2,3
		c2,2,3,4.4,3,7.2V135.6z M328.7,125.3v-10.6c0,1.1-0.7,2.1-2.2,3.1c-1.4,1-2.8,2-4.2,3c-1.5,1.3-2.2,2.8-2.2,4.5
		c0,1.2,0.4,2.2,1.2,3.1c0.8,0.8,1.8,1.2,3.1,1.2c1.2,0,2.2-0.4,3-1.2C328.3,127.6,328.7,126.5,328.7,125.3z"/>
	<polygon style="fill-rule:evenodd;clip-rule:evenodd;fill:#0075BE;" points="345.5,135.6 339.6,135.6 339.6,85.1 345.5,83.1 	"/>
	<polygon style="fill-rule:evenodd;clip-rule:evenodd;fill:#0075BE;" points="355.8,135.6 349.9,135.6 349.9,85.1 355.8,83.1 	"/>
	<path style="fill-rule:evenodd;clip-rule:evenodd;fill:#0075BE;" d="M380.7,125.3c0,2.8-1,5.2-3,7.2c-2,2-4.4,3-7.2,3
		c-2.8,0-5.2-1-7.2-3c-2-2-3-4.4-3-7.2v-20.5c0-2.8,1-5.2,3-7.2c2-2,4.4-3,7.2-3c2.8,0,5.2,1,7.2,3c2,2,3,4.4,3,7.2V125.3z
		 M374.8,125.3v-20.5c0-1.2-0.4-2.2-1.3-3c-0.8-0.9-1.8-1.3-3-1.3c-1.2,0-2.2,0.4-3.1,1.3c-0.8,0.8-1.2,1.8-1.2,3v20.5
		c0,1.2,0.4,2.2,1.2,3.1c0.8,0.8,1.9,1.2,3.1,1.2c1.2,0,2.2-0.4,3-1.2C374.3,127.6,374.8,126.5,374.8,125.3z"/>
	<path style="opacity:0.5;fill:#0075BE;" d="M174.7,107c-0.1,0-0.3,0-0.4,0c-0.8,0-1.5,0.1-2.1,0.3c-0.6,0.2-1.2,0.4-1.6,0.8
		c-0.4,0.4-0.7,0.8-0.9,1.3c-0.2,0.5-0.2,1.1-0.1,1.8c0.2,1.1,0.8,2.2,1.6,3.4c0.9,1.2,2.1,2.4,3.6,3.6c1.5,1.2,3.2,2.3,5,3.3
		c1.9,1,3.9,1.8,5.9,2.4c0.7,0.2,1.3,0.3,1.9,0.5c0.6,0.1,1.2,0.2,1.7,0.3c0.5,0.1,1,0.1,1.4,0.1c0,0,0.1,0,0.1,0
		c0.5,0,0.9,0,1.4-0.1c0.9-0.1,1.6-0.4,2.2-0.7c0.6-0.3,1-0.8,1.2-1.3c0.2-0.5,0.3-1.1,0.3-1.8c-0.1-0.7-0.3-1.4-0.7-2.1
		c-0.6-1.1-1.5-2.3-2.6-3.4c-1.1-1.1-2.3-2.1-3.7-3.1c-1.4-0.9-2.8-1.8-4.4-2.5c-1.5-0.7-3.1-1.4-4.7-1.8c-0.5-0.1-1-0.3-1.5-0.4
		c-0.5-0.1-1-0.2-1.4-0.3c-0.5-0.1-0.9-0.1-1.3-0.1C175.2,107.1,174.9,107,174.7,107z"/>
	<path style="fill:#0075BE;" d="M163.6,97.8c-1.5,0-3,0-4.3,0.2c-1.4,0.2-2.7,0.5-3.9,1c-1.2,0.5-2.2,1.3-3,2.3
		c-0.8,1-1.4,2.4-1.6,4.2c-0.4,4.3,1.6,8.8,5.2,13.1c3.9,4.7,9.5,9.1,15.3,12.8c6.1,3.9,12.2,6.9,16.8,8.9c4.7,2.1,7.7,3.1,7.7,3.1
		l-5.6-14.1c0,0-1.5-0.5-3.7-1.5c-2.3-1-5.3-2.4-8.4-4.2c-3-1.8-6.1-3.9-8.4-6.2c-2.2-2.2-3.8-4.6-4.1-7.1c-0.1-1.1,0-2,0.3-2.7
		c0.3-0.7,0.9-1.2,1.6-1.6c0.7-0.4,1.5-0.6,2.3-0.8c0.9-0.2,1.8-0.2,2.7-0.2c1,0,2.1,0,3.1,0.1c1,0.1,1.9,0.2,2.7,0.3
		c0.8,0.1,1.5,0.3,2,0.4c0.5,0.1,0.8,0.2,0.8,0.2l-2.2-5.6c0,0-0.5-0.1-1.3-0.4c-0.9-0.2-2.1-0.5-3.5-0.8c-1.4-0.3-3.1-0.6-4.8-0.8
		C167.3,98,165.4,97.8,163.6,97.8z"/>
	<path style="opacity:0.5;fill:#0075BE;" d="M108.8,108.7c-0.3,0-0.5,0-0.8,0c-0.8,0-1.5,0.1-2.3,0.1c-0.8,0.1-1.5,0.2-2.3,0.3
		c-0.8,0.1-1.5,0.3-2.3,0.5c-0.8,0.2-1.5,0.4-2.3,0.7c-2.3,0.9-4.3,2-5.9,3.3c-1.7,1.4-2.9,2.9-3.7,4.6c-0.8,1.8-1,3.7-0.7,5.6
		c0.4,2,1.4,4,3.2,5.8c1.2,1.3,2.7,2.3,4.3,3.3c1.7,0.9,3.5,1.6,5.5,2.2c2,0.5,4,0.9,6.1,1c0.6,0,1.2,0.1,1.8,0.1
		c1.5,0,2.9-0.1,4.3-0.3c1-0.1,1.9-0.3,2.9-0.6c0.9-0.2,1.8-0.5,2.7-0.8c0.9-0.3,1.7-0.7,2.5-1.1c0.8-0.4,1.5-0.8,2.2-1.3
		c2.1-1.4,3.5-3,4.5-4.8c0.9-1.6,1.3-3.3,1.2-5c-0.1-1.6-0.6-3.2-1.5-4.7c-0.9-1.5-2.2-2.9-3.8-4.1c-1.1-0.8-2.3-1.5-3.6-2.1
		c-1.3-0.6-2.6-1.1-4-1.5c-1.4-0.4-2.9-0.7-4.3-0.9C111.3,108.8,110.1,108.7,108.8,108.7z"/>
	<path style="fill:#0075BE;" d="M106.5,96.6c-3.1-0.1-6.2,0-9,0.2c-2.9,0.2-5.7,0.4-8,0.7c-2.4,0.3-4.5,0.6-5.9,0.8
		c-1.5,0.2-2.3,0.4-2.3,0.4l10.1,9c0,0,0.5-0.1,1.4-0.3c0.9-0.2,2.1-0.5,3.6-0.7c1.5-0.2,3.2-0.5,5-0.7c1.8-0.2,3.8-0.3,5.8-0.3
		c1.7,0,3.5,0,5.3,0.2c1.8,0.2,3.6,0.5,5.3,0.9c1.8,0.4,3.5,1,5.3,1.8c1.8,0.8,3.5,1.8,5.2,3c3.8,2.7,5.8,5.6,6.8,8.4
		c1,3,0.7,6-0.2,8.9c-0.9,3-2.6,5.8-4,7.8c-1.5,2.1-2.8,3.5-2.8,3.5l18.8,16.6c0,0,2.1-2.8,4.4-7.2c2.1-4,4.1-9.2,4.8-14.8
		c0.6-4.9,0-10-2.6-14.9c-2.4-4.5-6.4-8.9-13.2-13.3c-3-1.9-5.9-3.5-8.8-4.7c-2.8-1.2-5.6-2.2-8.4-2.9c-2.8-0.7-5.5-1.2-8.3-1.6
		C111.9,96.9,109.2,96.7,106.5,96.6z"/>
	<path style="opacity:0.5;fill:#0075BE;" d="M126.7,81.5c-0.5,0-1,0-1.4,0.1c-1,0.1-1.9,0.3-2.6,0.6c-0.7,0.3-1.2,0.7-1.4,1.2
		c-0.3,0.5-0.2,1.1,0.1,1.7c0.3,0.7,1,1.3,1.9,2c0.9,0.6,2,1.3,3.3,1.8c1.3,0.5,2.7,1,4.2,1.4c1.5,0.3,3,0.6,4.4,0.7
		c0.4,0,0.8,0,1.2,0c1,0,1.8-0.1,2.6-0.2c1-0.2,1.8-0.5,2.3-0.9c0.5-0.4,0.8-0.9,0.8-1.4c0-0.5-0.2-1.1-0.8-1.7
		c-0.5-0.6-1.2-1.2-2.1-1.7c-0.9-0.5-1.9-1-3-1.5c-1.1-0.4-2.3-0.8-3.5-1.1c-1.2-0.3-2.5-0.5-3.8-0.7
		C128.1,81.5,127.4,81.5,126.7,81.5z"/>
	<path style="fill:#0075BE;" d="M153,86.8l-8.8-0.7c0,0,0.3,0.4,0.5,1c0.3,0.6,0.5,1.4,0.4,2.3c-0.1,0.9-0.6,1.7-1.9,2.4
		c-1.3,0.7-3.4,1-6.8,0.9c-3.5-0.2-6.6-0.8-9.3-1.8c-2.7-0.9-4.8-2-6.5-3.1c-1.6-1.1-2.8-2-3.5-2.8c-0.7-0.7-1-1.2-1-1.2l-12.4-1
		c0,0,0.2,0.8,1.1,2.1c0.9,1.3,2.5,3.3,5.1,5.3c2.8,2.1,6.6,4.4,11.9,6.2c5.3,1.8,11.6,3.1,18.7,3.2c6.6,0.1,10.6-0.9,12.8-2.3
		c2-1.3,2.6-3.1,2.4-4.7c-0.1-1.5-0.8-3-1.5-4.1C153.6,87.5,153,86.8,153,86.8z"/>
	<path style="opacity:0.5;fill-rule:evenodd;clip-rule:evenodd;fill:#0075BE;" d="M321.9,159.6c0,1.5-0.4,2.7-1.2,3.5
		c-0.8,0.8-1.8,1.3-2.9,1.3h-0.1c-1.1,0-2.1-0.4-2.9-1.2c-0.9-0.9-1.3-2.1-1.3-3.6v-11.7h-1.8V145h1.8v-4.6l2.8-0.9v5.5h4.4v2.8
		h-4.4v11.7c0,0.6,0.1,1.2,0.4,1.5c0.3,0.3,0.6,0.5,1,0.5h0h0.1c0.9,0,1.3-0.7,1.3-2v-0.3l2.8-0.9V159.6z"/>
	<path style="opacity:0.5;fill-rule:evenodd;clip-rule:evenodd;fill:#0075BE;" d="M333.3,159.6c0,1.3-0.5,2.5-1.4,3.4
		c-0.9,0.9-2.1,1.4-3.4,1.4c-1.3,0-2.5-0.5-3.4-1.4c-0.9-0.9-1.4-2.1-1.4-3.4v-9.7c0-1.3,0.5-2.5,1.4-3.4c0.9-0.9,2.1-1.4,3.4-1.4
		c1.3,0,2.5,0.5,3.4,1.4c0.9,0.9,1.4,2.1,1.4,3.4c0,1.6-0.2,2.8-0.7,3.6c-0.4,0.8-1.2,1.6-2.2,2.3c-1.3,0.9-2.7,1.7-4,2.6v1.2
		c0,0.6,0.2,1.1,0.6,1.5c0.4,0.4,0.9,0.6,1.5,0.6c0.6,0,1-0.2,1.4-0.6c0.4-0.4,0.6-0.9,0.6-1.5v-0.3l2.8-0.9V159.6z M330.5,149.9
		c0-0.6-0.2-1-0.6-1.4c-0.4-0.4-0.9-0.6-1.4-0.6c-0.6,0-1.1,0.2-1.5,0.6c-0.4,0.4-0.6,0.9-0.6,1.4v5.3c1.7-0.9,2.7-1.7,3.2-2.2
		C330.2,152.3,330.5,151.2,330.5,149.9z"/>
	<path style="opacity:0.5;fill-rule:evenodd;clip-rule:evenodd;fill:#0075BE;" d="M345.4,164.4h-1.9l-0.6-1.1
		c-0.7,0.7-1.5,1.1-2.4,1.1c-1.3,0-2.5-0.5-3.4-1.4c-0.9-0.9-1.4-2.1-1.4-3.4c0-1.5,0.6-2.8,1.8-4c0.3-0.3,1.4-1.1,3.3-2.4
		c1.2-0.8,1.8-1.6,1.8-2.3v-1.1c0-0.6-0.2-1-0.6-1.4c-0.4-0.4-0.9-0.6-1.4-0.6c-1,0-1.6,0.5-1.9,1.4l-2.4-1.2
		c0.2-0.9,0.7-1.7,1.5-2.2c0.8-0.5,1.7-0.8,2.8-0.8c1.3,0,2.5,0.5,3.4,1.4c0.9,0.9,1.4,2.1,1.4,3.4V164.4z M342.6,159.6v-5
		c0,0.5-0.3,1-1,1.5c-0.7,0.5-1.3,1-2,1.4c-0.7,0.6-1,1.3-1,2.1c0,0.6,0.2,1.1,0.6,1.5c0.4,0.4,0.9,0.6,1.5,0.6c0.6,0,1-0.2,1.4-0.6
		C342.4,160.6,342.6,160.1,342.6,159.6z"/>
	<path style="opacity:0.5;fill-rule:evenodd;clip-rule:evenodd;fill:#0075BE;" d="M357.2,159.6c0,1.5-0.4,2.7-1.2,3.5
		c-0.8,0.8-1.8,1.3-2.9,1.3h-0.1c-1.1,0-2.1-0.4-2.9-1.2c-0.9-0.9-1.3-2.1-1.3-3.6v-11.7H347V145h1.8v-4.6l2.8-0.9v5.5h4.4v2.8h-4.4
		v11.7c0,0.6,0.1,1.2,0.4,1.5c0.3,0.3,0.6,0.5,1,0.5h0h0.1c0.9,0,1.3-0.7,1.3-2v-0.3l2.8-0.9V159.6z"/>
	<path style="opacity:0.5;fill-rule:evenodd;clip-rule:evenodd;fill:#0075BE;" d="M367,147l-2,1.6c-0.4-0.5-0.8-0.7-1.2-0.7
		c-0.6,0-1.1,0.2-1.5,0.6c-0.4,0.4-0.6,0.9-0.6,1.4v14.5h-2.8V145h1.9l0.6,1.1c0.5-0.7,1.3-1.1,2.4-1.1
		C365.2,145,366.3,145.7,367,147z"/>
	<path style="opacity:0.5;fill-rule:evenodd;clip-rule:evenodd;fill:#0075BE;" d="M378.1,159.6c0,1.3-0.5,2.5-1.4,3.4
		c-0.9,0.9-2.1,1.4-3.4,1.4c-1.3,0-2.5-0.5-3.4-1.4c-0.9-0.9-1.4-2.1-1.4-3.4v-9.7c0-1.3,0.5-2.5,1.4-3.4c0.9-0.9,2.1-1.4,3.4-1.4
		c1.3,0,2.5,0.5,3.4,1.4c0.9,0.9,1.4,2.1,1.4,3.4V159.6z M375.3,159.6v-9.7c0-0.6-0.2-1-0.6-1.4c-0.4-0.4-0.9-0.6-1.4-0.6
		c-0.6,0-1.1,0.2-1.5,0.6c-0.4,0.4-0.6,0.9-0.6,1.4v9.7c0,0.6,0.2,1.1,0.6,1.5c0.4,0.4,0.9,0.6,1.5,0.6c0.6,0,1-0.2,1.4-0.6
		C375.1,160.6,375.3,160.1,375.3,159.6z"/>
</g>
</svg>
