<?xml version="1.0" encoding="utf-8"?>
<!-- Generator: Adobe Illustrator 26.4.1, SVG Export Plug-In . SVG Version: 6.00 Build 0)  -->
<svg version="1.1" id="svg" xmlns="http://www.w3.org/2000/svg" xmlns:xlink="http://www.w3.org/1999/xlink" x="0px" y="0px"
	 viewBox="0 0 400 234" style="enable-background:new 0 0 400 234;" xml:space="preserve">
<style type="text/css">
	.st0{fill-rule:evenodd;clip-rule:evenodd;fill:#E5222E;}
	.st1{fill-rule:evenodd;clip-rule:evenodd;fill:#FCFBFC;}
	.st2{fill-rule:evenodd;clip-rule:evenodd;fill:#183F7A;}
	.st3{fill-rule:evenodd;clip-rule:evenodd;fill:#587299;}
	.st4{fill-rule:evenodd;clip-rule:evenodd;fill:#375789;}
</style>
<g id="svgg">
	<path id="path0" class="st0" d="M34.2,150.7v12H200h165.8v-12v-12H200H34.2V150.7 M92.4,142.3c1.6,0.8,2.3,2,2.5,4.1l0.1,1.2h-2h-2
		l-0.1-0.9c-0.2-1.9-1.4-2.7-2.6-1.7c-0.8,0.7-1,1.5-0.9,6c0,5.3,0.3,6.2,1.8,6.2c1.3,0,1.7-0.7,1.9-2.9l0.1-1.2h-1.1H89l0-1.4
		l0-1.4l3,0l3,0v4.8v4.8h-1.3c-1.5,0-1.7-0.1-1.7-0.9v-0.5l-0.6,0.6c-1.8,1.8-6.1,1.3-7.3-1c-1.4-2.8-1.5-11.1-0.1-13.8
		C85.2,141.9,89.6,140.8,92.4,142.3 M161.3,141.9c3.2,0.9,4,2.6,4,8.9c0,7.6-1.3,9.4-6.9,9.1c-4.3-0.2-5.7-2.8-5.5-10.1
		C153.1,143.1,155.9,140.5,161.3,141.9 M220.4,142.3c2.4,1.2,2.9,2.8,2.9,8.5c0,5.9-0.5,7.4-3.2,8.8c-0.9,0.5-5.1,0.5-6.1-0.1
		c-2.5-1.3-3.1-3.1-3-9.3c0.1-4.4,0.2-4.9,1.3-6.6C213.6,141.7,217.8,141,220.4,142.3 M106.1,142.2c3.5,1,4.1,6.7,0.9,8.3l-0.8,0.4
		l0.5,0.2c1.8,0.7,2,1,2.2,5.4c0.1,1.9,0.2,2.5,0.4,2.8c0.5,0.5,0.4,0.5-2,0.5h-2.2l-0.2-0.6c-0.1-0.3-0.2-1.7-0.3-3.2
		c-0.2-3.4-0.2-3.5-2.1-3.6l-1.3,0v3.7v3.7l-2,0l-2,0l0-8.9l0-8.9h4.1C104.3,142,105.5,142.1,106.1,142.2 M115.7,149.1
		c0.1,8.2,0,8,1.5,8s1.5,0.2,1.5-8l0-7.1h2.2h2.2l-0.1,7c-0.1,7.9-0.1,7.9-1.3,9.4c-1.7,2-6.7,2.2-8.7,0.5
		c-1.7-1.5-1.8-2.2-1.8-10.4V142h2.2h2.2L115.7,149.1 M134.7,142.5c3.6,1.7,3.5,8-0.1,9.7c-0.5,0.2-1.2,0.3-2.8,0.4l-2.1,0.1l0,3.5
		l0,3.5l-2,0l-2,0v-8.9V142l4.1,0.1C133.7,142.1,133.8,142.1,134.7,142.5 M148,142.3c2.1,0.6,3,2.2,3,5c0,3.8-1.4,5.2-5.5,5.3
		l-2.1,0.1v3.6v3.6h-2.1h-2.1v-8.9V142h3.8C146.5,142,147.1,142,148,142.3 M191.5,149.2v7.2h3h3v1.8v1.8l-5.1,0l-5.1,0l0-8.9l0-8.9
		h2.2h2.2V149.2 M209,143.7v1.7h-3h-3v1.8v1.8h2.8h2.8v1.8v1.8h-2.8H203v2v2h3.2h3.2v1.8v1.8h-5.2h-5.2v-8.9V142h5.1h5.1V143.7
		 M230.7,142.3c0,0.2,0.5,2,1.1,4c0.6,2,1.4,4.5,1.6,5.4l0.5,1.7l0-5.7l0-5.7h2h2l0,8.9l0,8.9h-2.4h-2.4l-1.3-4.3
		c-0.7-2.4-1.6-5.1-1.9-6.1l-0.5-1.8l0,6.1l0,6.1h-1.8h-1.8v-8.9V142h2.5C230.5,142,230.7,142,230.7,142.3 M249.3,143.3
		c0.2,0.7,0.5,1.8,0.6,2.4c0.1,0.6,0.8,3.3,1.5,6.1c1.3,5.3,1.9,7.8,1.9,8c0,0-1,0.1-2.2,0.1H249l-0.1-0.5c-0.1-0.3-0.2-1.1-0.4-1.8
		l-0.3-1.2h-2.1c-1.8,0-2.1,0-2.1,0.3c0,0.2-0.2,0.9-0.4,1.8l-0.3,1.5h-2.2c-2.2,0-2.2,0-2.1-0.4c0.1-0.2,0.3-1.3,0.6-2.5
		c0.3-1.2,0.9-3.7,1.4-5.5c0.5-1.8,1.2-4.5,1.5-5.8s0.7-2.7,0.8-3l0.2-0.5h2.6h2.6L249.3,143.3 M263.9,142.3
		c3.4,1.3,3.9,6.7,0.8,8.2l-0.8,0.4l0.6,0.2c1.6,0.5,1.9,1.2,2.1,4.4c0.2,3.1,0.3,3.8,0.6,3.9c0.6,0.2-0.2,0.4-2.1,0.4h-2.2
		l-0.2-0.6c-0.2-0.4-0.3-1.4-0.3-3c-0.1-3.6-0.2-3.8-2.1-3.8H259l0,3.6l0,3.6l-2,0l-2,0v-8.9V142h4.1
		C262.6,142,263.1,142,263.9,142.3 M278.1,142.5c2.2,1,3,2.8,3.2,7.1c0.3,8.5-1.1,10.2-8.7,10.2l-3.5,0v-8.9V142l4,0.1
		C277,142.1,277.3,142.1,278.1,142.5 M293.8,143.7v1.7h-3.1h-3.1v1.8v1.8h2.9h2.9l0,1.7l0,1.7l-2.9,0l-2.9,0v2v2h3.2h3.2v1.8v1.8
		h-5.2h-5.2v-8.9V142h5.2h5.2V143.7 M300.2,149.2v7.2h3h3v1.8v1.8h-5.1H296v-8.9V142h2.1h2.1V149.2 M311.7,149.2v7.2h3.1h3.1l0,1.7
		l0,1.7l-5.1,0l-5.1,0v-8.9V142h2.1h2.1V149.2 M323.3,150.9v8.9l-2,0l-2,0l0-8.9l0-8.9h2.1h2.1V150.9 M158.3,144.8
		c-0.7,0.4-0.8,1.1-0.9,4.8c-0.1,6,0.2,7.4,1.6,7.6c1.6,0.1,1.9-0.9,1.9-6.3C160.9,145,160.3,143.7,158.3,144.8 M216.4,144.7
		c-1.4,0.7-1.4,11.6,0,12.3c2,1.1,2.6-0.3,2.6-6.1C218.9,145.1,218.4,143.7,216.4,144.7 M101.4,147.2l0,2.2l0.8,0
		c2,0.1,3.1-1.5,2.4-3.5c-0.3-0.8-0.8-1-2.3-1h-1L101.4,147.2 M259,147.2v2.2h0.9c1.7,0,2.4-0.7,2.4-2.4c0-1.5-0.6-2-2.4-2.1l-1,0
		V147.2 M129.7,147.4v2.3l1.1-0.1c1.6-0.1,2.4-1.1,2.1-2.7c-0.3-1.4-0.7-1.8-2.2-1.8h-1V147.4 M143.5,147.4v2.2h0.8
		c1.8,0,2.7-1,2.4-2.8c-0.2-1.3-0.8-1.7-2.2-1.7h-1.1V147.4 M273.3,150.9v5.8h0.8c2.4,0,2.7-0.7,2.7-6c0-5.1-0.2-5.5-2.4-5.5h-1.1
		V150.9 M245.8,147.8c-0.2,1.3-0.5,2.9-0.6,3.5c-0.1,0.6-0.2,1.2-0.3,1.4c-0.1,0.3,0.1,0.3,1.4,0.3h1.4l-0.1-0.9
		c-0.2-1.3-1.1-6-1.2-6.4C246.3,145.5,246.1,146.1,245.8,147.8"/>
	<path id="path1" class="st1" d="M87.1,141.9c-3.2,0.9-4,2.6-4,9.1c0,7.2,1,9,5.1,9c1.7,0,2.4-0.2,3.2-1l0.6-0.6v0.5
		c0,0.8,0.2,0.9,1.7,0.9H95V155v-4.8l-3,0l-3,0l0,1.4l0,1.4h1.1h1.1l-0.1,1.2c-0.2,2.2-0.7,2.9-1.9,2.9c-1.5,0-1.8-1-1.8-6.2
		c0-4.5,0.1-5.3,0.9-6c1.1-1,2.3-0.2,2.6,1.7l0.1,0.9h2h2l-0.1-1.2C94.6,142.7,91.2,140.8,87.1,141.9 M157.1,141.9
		c-2.9,0.7-4.1,2.8-4.2,8c-0.2,7.3,1.2,9.9,5.5,10.1c5.6,0.2,6.9-1.5,6.9-9.1c0-6.4-0.8-8.1-4-8.9
		C160.3,141.6,158.1,141.6,157.1,141.9 M215.1,141.8c-3.1,0.8-4,2.6-4.1,8.4c-0.1,7.8,1,9.6,6.1,9.6c3,0,4.2-0.5,5.2-2.4
		c1.6-2.9,1.4-11.6-0.4-14C220.9,142.1,217.6,141.2,215.1,141.8 M97.2,150.9l0,8.9l2,0l2,0v-3.7v-3.7l1.3,0c1.8,0.1,1.9,0.2,2.1,3.6
		c0.1,1.4,0.2,2.9,0.3,3.2l0.2,0.6h2.2c2.3,0,2.4,0,2-0.5c-0.2-0.2-0.3-0.9-0.4-2.8c-0.2-4.3-0.4-4.7-2.2-5.4l-0.5-0.2l0.8-0.4
		c1.5-0.8,2.1-2.1,1.9-4.4c-0.2-3.5-1.4-4.2-7.7-4.2h-4.1L97.2,150.9 M111.3,148.5c0,8.2,0.1,8.9,1.8,10.4c2,1.8,6.9,1.5,8.7-0.5
		c1.2-1.4,1.2-1.4,1.3-9.4l0.1-7H121h-2.2l0,7.1c-0.1,8.2,0,8-1.5,8s-1.5,0.2-1.5-8l0-7.1h-2.2h-2.2V148.5 M125.5,150.9v8.9l2,0l2,0
		l0-3.5l0-3.5l2.1-0.1c1.6-0.1,2.3-0.2,2.8-0.4c3.6-1.7,3.7-8,0.1-9.7c-0.9-0.4-1-0.4-5.1-0.5l-4.1-0.1V150.9 M139.3,150.9v8.9h2.1
		h2.1v-3.6v-3.6l2.1-0.1c4-0.1,5.5-1.5,5.5-5.3c0-4.3-1.5-5.3-7.9-5.3h-3.8V150.9 M187.2,150.9l0,8.9l5.1,0l5.1,0v-1.8v-1.8h-3h-3
		v-7.2V142h-2.2h-2.2L187.2,150.9 M198.8,150.9v8.9h5.2h5.2v-1.8v-1.8h-3.2H203v-2v-2h2.8h2.8v-1.8v-1.8h-2.8H203v-1.8v-1.8h3h3
		v-1.7V142h-5.1h-5.1V150.9 M225.7,150.9v8.9h1.8h1.8l0-6.1l0-6.1l0.5,1.8c0.3,1,1.1,3.7,1.9,6.1l1.3,4.3h2.4h2.4l0-8.9l0-8.9h-2h-2
		l0,5.7l0,5.7l-0.5-1.7c-0.3-0.9-1-3.3-1.6-5.4c-0.6-2-1.1-3.9-1.1-4c0-0.3-0.1-0.3-2.5-0.3h-2.5V150.9 M243.5,142.5
		c-0.1,0.3-0.4,1.7-0.8,3s-1,4-1.5,5.8c-0.5,1.8-1.1,4.3-1.4,5.5c-0.3,1.2-0.6,2.3-0.6,2.5c-0.1,0.4-0.1,0.4,2.1,0.4h2.2l0.3-1.5
		c0.2-0.8,0.3-1.6,0.4-1.8c0.1-0.3,0.3-0.3,2.1-0.3h2.1l0.3,1.2c0.1,0.7,0.3,1.5,0.4,1.8l0.1,0.5h2.2c1.2,0,2.2,0,2.2-0.1
		c0-0.1-0.6-2.7-1.9-8c-0.7-2.8-1.4-5.5-1.5-6.1c-0.1-0.6-0.4-1.7-0.6-2.4L249,142h-2.6h-2.6L243.5,142.5 M254.8,150.9v8.9l2,0l2,0
		l0-3.6l0-3.6h1.2c1.9,0,1.9,0.1,2.1,3.8c0.1,1.5,0.2,2.6,0.3,3l0.2,0.6h2.2c2,0,2.7-0.1,2.1-0.4c-0.3-0.1-0.4-0.8-0.6-3.9
		c-0.2-3.2-0.5-3.9-2.1-4.4l-0.6-0.2l0.8-0.4c1.9-1,2.6-4.1,1.4-6.4c-1-1.9-1.9-2.2-7.2-2.2h-4.1V150.9 M269.2,150.9v8.9l3.5,0
		c7.5,0,9-1.7,8.7-10.2c-0.2-6.4-1.4-7.5-8.1-7.6l-4-0.1V150.9 M283.5,150.9v8.9h5.2h5.2v-1.8v-1.8h-3.2h-3.2v-2v-2l2.9,0l2.9,0
		l0-1.7l0-1.7h-2.9h-2.9v-1.8v-1.8h3.1h3.1v-1.7V142h-5.2h-5.2V150.9 M296,150.9v8.9h5.1h5.1v-1.8v-1.8h-3h-3v-7.2V142h-2.1H296
		V150.9 M307.5,150.9v8.9l5.1,0l5.1,0l0-1.7l0-1.7h-3.1h-3.1v-7.2V142h-2.1h-2.1V150.9 M319.2,150.9l0,8.9l2,0l2,0v-8.9V142h-2.1
		h-2.1L319.2,150.9 M160,144.8c1.3,1,1.3,10.8,0,12c-0.6,0.5-1.7,0.4-2.1-0.2c-0.6-0.9-0.9-9.5-0.3-11.1
		C158,144.6,159.2,144.2,160,144.8 M218,144.8c1.3,1,1.3,11.5,0,12.2c-1,0.5-1.9,0.1-2.3-1.1c-0.4-1.4-0.4-8.7,0-10.1
		C216.1,144.5,217.1,144.1,218,144.8 M103.8,145.2c1.4,0.5,1.3,3.5-0.2,4.1c-0.3,0.1-0.9,0.2-1.4,0.2l-0.8,0l0-2.2l0-2.2h1
		C102.8,145,103.5,145.1,103.8,145.2 M261.3,145.1c0.8,0.2,1.2,1.8,0.8,3.2c-0.3,0.7-1.1,1.2-2.2,1.2H259v-2.2V145l1,0
		C260.5,145,261.1,145.1,261.3,145.1 M132,145.3c0.7,0.4,1.1,1.7,0.8,2.7c-0.2,1-0.8,1.4-2.1,1.5l-1.1,0.1v-2.3v-2.3h1
		C131.2,145.2,131.8,145.2,132,145.3 M146.2,145.6c1.6,1.6,0.5,4-1.8,4h-0.8v-2.2v-2.2h1.1C145.6,145.2,145.7,145.2,146.2,145.6
		 M276,145.4c0.9,0.6,1,1,0.9,5.2c0,5.3-0.3,6-2.7,6h-0.8v-5.8v-5.8h1.1C275.2,145.2,275.7,145.3,276,145.4 M247,148.7
		c0.3,1.4,0.5,3,0.6,3.5l0.1,0.9h-1.4c-1.3,0-1.4,0-1.4-0.3c0-0.2,0.2-0.8,0.3-1.4c0.7-4.1,1.1-5.9,1.2-5.6
		C246.4,145.9,246.7,147.2,247,148.7 M94.2,181.1c0,7.4,0,10.5,0,6.8c0-3.7,0-9.8,0-13.5C94.3,170.6,94.2,173.7,94.2,181.1"/>
	<path id="path2" class="st2" d="M187,26.2c-0.7,0.1-1.8,0.3-2.5,0.4c-0.7,0.2-1.4,0.3-1.6,0.3s-0.4,0.1-0.4,0.1
		c0,0.1-0.1,0.2-0.3,0.1c-0.6-0.1-0.9,0-1.1,0.3c-0.2,0.2-0.3,0.2-0.3,0c0-0.1-0.1-0.1-0.2,0.1c-0.1,0.2-0.3,0.3-0.3,0.2
		c-0.1-0.1-1.8,0.6-3,1.3c-1,0.6-1.4,0.7-1.2,0.4c0.1-0.1-0.1,0-0.4,0.2c-0.3,0.2-0.5,0.5-0.5,0.5c0,0.1-0.1,0.1-0.2,0
		c-0.1-0.1-0.2,0-0.3,0.2c-0.1,0.1-0.2,0.3-0.4,0.3c-0.2,0-0.3,0.1-0.3,0.2c0,0.1-0.1,0.2-0.2,0.2c-0.1,0-0.2,0.1-0.2,0.1
		c0,0.1-0.3,0.3-0.6,0.4c-0.3,0.2-0.6,0.4-0.6,0.4c0,0.1-0.1,0.1-0.2,0.1c-0.1-0.1-0.2,0-0.3,0.2c-0.1,0.2-0.2,0.3-0.4,0.3
		c-0.1,0-0.3,0.1-0.4,0.3c-0.1,0.2-0.2,0.4-0.3,0.4c-0.1,0-0.4,0.2-0.7,0.5c-0.3,0.3-0.5,0.5-0.6,0.4c-0.1,0-0.1,0-0.1,0.2
		c0,0.1-0.1,0.3-0.2,0.3c-0.2,0-2.5,2.3-2.5,2.5c0,0.1-0.2,0.2-0.4,0.2c-0.2,0-0.3,0.2-0.2,0.3c0.1,0.1-0.3,0.5-0.7,1
		c-0.4,0.4-0.8,0.9-0.8,1c0,0.1-0.1,0.2-0.3,0.3c-0.2,0.1-0.3,0.2-0.2,0.3c0.1,0.1,0,0.2-0.1,0.3c-0.1,0.1-0.2,0.2-0.2,0.2
		c0.1,0.1,0,0.1-0.1,0.1c-0.1,0-0.2,0.1-0.2,0.2c0,0.1-0.1,0.4-0.3,0.5c-0.2,0.2-0.3,0.4-0.3,0.5c0,0.1-0.1,0.2-0.1,0.2
		c-0.2,0-0.6,0.8-0.6,1c0,0.1-0.1,0.1-0.1,0.1s-0.1,0.1-0.1,0.2c0.1,0.1,0,0.2-0.1,0.2c-0.2,0-0.8,1-0.8,1.4c0,0.1-0.2,0.5-0.3,0.7
		c-0.2,0.3-0.4,0.8-0.5,1.1c-0.1,0.3-0.2,0.7-0.3,0.7c-0.2,0.2-0.7,1.3-0.6,1.4c0.1,0.1,0,0.2-0.1,0.3c-0.1,0.1-0.3,0.4-0.3,0.7
		c0,0.3-0.1,0.5-0.1,0.5c0,0,0,0.1-0.1,0.3c0,0.1-0.3,0.9-0.6,1.8c-0.3,0.8-0.5,1.6-0.4,1.7c0.1,0.1,0,0.2-0.1,0.2
		c-0.1,0-0.3,0.4-0.4,0.8c-0.1,0.4-0.2,0.8-0.2,0.9c-0.3,1-0.4,1.6-0.4,1.8c0,0.1,0,0.2-0.1,0.2c-0.1,0-0.2,0.2-0.2,0.3
		c0,0.2,0,0.3,0.1,0.2c0.1-0.1,0.2,0,0.2,0.1s-0.1,0.2-0.2,0.2c-0.1,0-0.2,0.2-0.1,0.5s-0.2,1.5-0.4,2.8c-0.2,1.3-0.5,2.7-0.5,3.2
		c0,0.5-0.1,1-0.2,1.1c-0.1,0.2-0.1,0.5,0,0.7c0,0.2,0,0.5-0.1,0.5c-0.1,0.1-0.1,0.4-0.1,0.7c0,0.3,0,0.7-0.1,0.9
		c-0.2,0.5-0.2,1.5,0,1.5c0.1,0,0.1,0.1-0.1,0.1c-0.2,0.1-0.2,0.4-0.2,1.1c0,0.5,0,0.9-0.1,0.9c-0.1,0-0.1,0.6-0.1,1.4
		c0,0.8,0,1.4-0.1,1.4s-0.1,1.4-0.1,3.2c0,1.7,0,3.1,0,3.1c0,0-0.1,0.3,0,0.8c0,0.4,0.1,0.8,0.2,0.8c0.1,0,0.1,0.6,0.1,1.4
		c0,0.9,0,1.4,0.1,1.4s0.1,0.4,0.1,1c-0.1,0.6,0,1,0.1,1c0.1,0,0.1,0.2,0.1,0.5c-0.1,0.7,0.6,6.6,1.2,9.2c0.1,0.7,0.3,1.5,0.3,1.8
		c0,0.3,0.1,0.6,0.1,0.6s0.1,0.2,0.1,0.6c0,0.4,0.1,0.7,0.2,0.8c0.1,0.1,0.2,0.2,0.1,0.4c0,0.2,0,0.3,0.1,0.3s0.1,0.1,0.1,0.2
		c-0.1,0.2,0.3,1.7,0.4,1.7c0.1,0,0.1,0.1,0.1,0.3c0,0.2,0,0.4,0.1,0.6c0.2,0.5,1,3.1,1.1,3.6c0,0.2,0.2,0.5,0.3,0.7
		c0.1,0.1,0.2,0.3,0.2,0.4c0,0.1,0,0.3,0.2,0.4c0.1,0.1,0.2,0.3,0.2,0.4c0,0.1,0,0.3,0.2,0.3c0.1,0.1,0.2,0.2,0.2,0.3
		c0,0.1,0,0.4,0.2,0.6c0.1,0.2,0.5,1,0.8,1.6c0.3,0.7,0.7,1.4,0.9,1.6c0.2,0.2,0.4,0.5,0.4,0.6c0,0.4,0,0.6,0.3,0.6
		c0.1,0,0.2,0.1,0.2,0.1c-0.1,0.2,0.7,1.5,0.9,1.5c0.1,0,0.1,0.2,0.1,0.3c0,0.2,0.1,0.3,0.2,0.3c0.1,0,0.1,0.1,0.1,0.2
		c-0.1,0.1,0.1,0.2,0.2,0.3s0.3,0.2,0.2,0.3c-0.1,0.1,0.1,0.2,0.2,0.4c0.2,0.1,0.3,0.3,0.3,0.4c0,0.1,0.2,0.3,0.3,0.4
		c0.2,0.1,0.3,0.3,0.3,0.4c0,0.1,0.2,0.4,0.5,0.6c0.3,0.2,0.6,0.6,0.7,0.8c0.1,0.2,0.5,0.6,0.7,0.7c0.2,0.1,0.4,0.3,0.4,0.4
		c0,0.2,1.1,1.3,1.3,1.3c0.1,0,0.3,0.2,0.5,0.5c0.2,0.3,0.5,0.5,0.6,0.5s0.4,0.2,0.6,0.5c0.2,0.3,0.5,0.5,0.6,0.5
		c0.1,0,0.3,0.1,0.3,0.2c0.1,0.1,0.2,0.2,0.3,0.2c0.1,0,0.3,0.1,0.3,0.3c0.1,0.1,0.2,0.2,0.2,0.2c0.1-0.1,0.2,0,0.2,0.2
		c0.1,0.1,0.2,0.2,0.2,0.2c0.1-0.1,0.2,0.1,0.3,0.3c0.1,0.3,0.1,0.3,0.3,0.1c0.1-0.2,0.2-0.2,0.2,0c0,0.2,0.1,0.3,0.3,0.2
		c0.1-0.1,0.2,0,0.2,0.1c0,0.1,0.1,0.2,0.2,0.2c0.2,0,1.1,0.6,1.3,0.9c0.2,0.2,2.2,1.2,2.3,1.1c0.1-0.1,0.2,0,0.4,0.1
		c0.1,0.1,1,0.5,2,0.8c1,0.3,1.9,0.6,2.1,0.7c0.3,0.2,0.8,0.3,1.5,0.4c0.3,0,0.7,0.1,0.9,0.2s0.7,0.2,1.1,0.1c0.4,0,0.7,0,0.7,0.1
		c0,0.1,0.1,0.1,0.2,0.1c0.1-0.1,0.5,0,0.8,0.1c0.3,0.1,0.5,0.1,0.4,0c-0.1-0.1,0-0.2,0.2-0.2c0.1,0,0.3,0.1,0.3,0.2
		c0,0.1,0.9,0.2,2.2,0.2c1.4,0,2.2-0.1,2.2-0.2c0-0.1,0.1-0.2,0.3-0.2c0.1,0,0.2,0.1,0.2,0.1c0,0.1,0.3,0.1,0.7,0.1
		c0.4,0,0.7-0.1,0.7-0.2s0.2-0.1,0.5-0.1c0.3,0,0.6,0,0.7,0c0.1-0.1,0.5-0.1,0.9-0.1c0.4,0,0.8-0.1,0.8-0.2c0-0.1,0.2-0.1,0.3-0.1
		c0.1,0,0.3,0,0.3-0.1c0.1-0.1,0.2-0.1,0.3-0.1c0.1,0.1,0.2,0,0.2-0.1c0-0.1,0.1-0.1,0.3-0.1c0.2,0.1,1.3-0.3,2.7-0.9
		c0.3-0.1,0.7-0.2,0.9-0.2c0.2,0,0.5-0.2,0.7-0.4c0.2-0.2,0.4-0.3,0.6-0.3c0.1,0.1,0.4,0,0.6-0.2c0.2-0.2,0.5-0.4,0.7-0.4
		c0.2-0.1,0.3-0.2,0.3-0.3c0-0.1,0.2-0.2,0.3-0.2c0.2,0,0.3-0.1,0.3-0.1c0-0.1,0.2-0.2,0.4-0.3c0.2-0.1,0.4-0.2,0.4-0.3
		s0.1-0.2,0.3-0.2c0.2,0,0.5-0.2,0.7-0.4s0.5-0.4,0.6-0.4c0.1,0,0.3-0.1,0.3-0.3c0-0.1,0.1-0.2,0.2-0.2c0.1,0,0.5-0.2,0.9-0.6
		c0.4-0.3,0.7-0.6,0.9-0.6c0.1,0,0.3-0.2,0.5-0.4c0.2-0.2,0.2-0.3,0.2-0.1c-0.1,0.2,0,0.2,0.1,0.1c0.1-0.1,0.2-0.2,0.2-0.3
		c0-0.2,1.6-1.7,1.8-1.7c0.1,0,0.2-0.1,0.3-0.2c0.1-0.1,0.1-0.1-0.1,0c-0.1,0.1-0.2,0.1-0.2,0c0-0.2,2.2-2.2,2.4-2.2
		c0.1,0,0.1-0.1,0-0.2c0-0.1,0.1-0.3,0.3-0.4c0.2-0.1,0.4-0.3,0.3-0.4s0.1-0.3,0.2-0.5c0.7-0.7,1.5-1.7,1.5-1.9
		c0-0.1,0.1-0.2,0.2-0.3c0.1-0.1,0.2-0.2,0.1-0.2c-0.1,0,0-0.2,0.2-0.4c0.2-0.2,0.3-0.4,0.2-0.5c0-0.1,0-0.1,0.1-0.1
		s0.2-0.2,0.4-0.5c0.1-0.3,0.4-0.8,0.7-1.3c0.3-0.5,0.4-0.9,0.4-1c0-0.1,0-0.1,0.1-0.1c0.2,0,0.9-1.4,0.9-1.8c0-0.2,0.2-0.6,0.5-1.3
		c0.2-0.5,0.6-1.4,0.7-1.6c0,0,0.1-0.3,0.2-0.6c0.1-0.3,0.2-0.7,0.2-0.9c0-0.2,0.1-0.4,0.1-0.4c0.2,0,0.5-1.1,0.4-1.4
		c-0.1-0.2-0.1-0.3,0.1-0.2c0.1,0.1,0.2-0.1,0.3-0.5c0-0.3,0.2-1.2,0.4-1.9c0.3-1.1,0.7-2.7,0.9-3.9c0.1-0.6,0.3-1.7,0.3-2.1
		c0-0.3,0.1-0.5,0.2-0.5s0.1-0.2,0-0.5c-0.1-0.3,0-0.5,0.1-0.5c0.1,0,0.2-0.2,0.1-0.5c0-0.3,0-0.5,0.1-0.5c0.1,0,0.1-0.3,0.1-0.6
		c-0.1-0.3,0-0.6,0.1-0.6c0.1,0,0.1-0.4,0.1-1c0-0.5,0.1-1.6,0.2-2.4c0.8-6.3,0.8-15.2,0-21.5c-0.1-0.8-0.2-1.8-0.2-2.4
		c0-0.5-0.1-1-0.1-1c-0.1,0-0.1-0.2-0.1-0.5c0-0.3,0-0.5-0.1-0.5c-0.1,0-0.1-0.2-0.1-0.5c0-0.3,0-0.6-0.1-0.7
		c-0.1-0.1-0.1-0.1,0-0.1c0.1,0,0.2-0.2,0.1-0.4c0-0.2-0.1-0.4-0.2-0.4s-0.1-0.2-0.1-0.4c0-0.2,0-0.4-0.1-0.4s-0.1-0.3-0.1-0.7
		c0-0.4-0.4-2.1-0.8-3.7c-0.4-1.7-0.8-3.1-0.8-3.3c0-0.2-0.1-0.3-0.1-0.3c-0.1,0-0.1-0.1-0.1-0.3c0-0.2,0-0.3-0.1-0.4
		c-0.1-0.1-0.2-0.3-0.2-0.5c0-0.2-0.1-0.4-0.2-0.4c-0.1,0-0.1-0.1,0-0.2c0.1-0.1,0-0.2-0.1-0.2c-0.1,0-0.1-0.2-0.1-0.3
		c0-0.2,0-0.3-0.1-0.3c-0.1,0-0.2-0.1-0.2-0.3c0-0.2-0.2-0.7-0.4-1.1c-0.7-1.6-1-2.2-0.9-2.3c0.1-0.1-0.6-1.4-0.8-1.4
		c-0.1,0-0.1-0.1,0-0.2c0.1-0.1,0-0.2,0-0.2c-0.1,0-0.2-0.3-0.3-0.6c-0.1-0.3-0.4-1-0.7-1.4c-0.3-0.5-0.6-0.9-0.6-1
		c0-0.1,0-0.2,0-0.3c0-0.1-0.1-0.2-0.3-0.2c-0.1,0-0.2-0.1-0.2-0.2c0.1-0.2-0.2-0.7-0.8-1.1c-0.2-0.1-0.3-0.3-0.2-0.4
		c0-0.1-0.2-0.4-0.5-0.7s-0.5-0.6-0.5-0.6c0.1,0-0.2-0.2-0.5-0.5c-0.3-0.3-0.6-0.6-0.6-0.7c0-0.1-0.2-0.4-0.5-0.6
		c-0.3-0.2-0.5-0.4-0.4-0.5c0.1-0.2-0.9-1.1-1.3-1.2c-0.2-0.1-0.3-0.2-0.3-0.4c0-0.1-0.1-0.3-0.2-0.3c-0.1,0-0.5-0.3-0.8-0.7
		c-0.3-0.4-0.6-0.7-0.7-0.7c-0.1,0-0.5-0.3-0.8-0.7c-0.4-0.4-0.8-0.7-0.8-0.7c-0.1,0-0.3-0.1-0.4-0.2c-0.6-0.5-0.7-0.6-0.9-0.6
		c-0.1,0-0.2-0.1-0.2-0.1c0-0.1-0.3-0.3-0.7-0.5c-0.4-0.2-0.7-0.5-0.7-0.6c0-0.1,0-0.1-0.1-0.1c-0.1,0.1-0.2,0-0.3-0.1
		c-0.1-0.1-0.3-0.2-0.4-0.1c-0.1,0.1-0.2,0-0.2-0.1c0-0.1-0.2-0.3-0.5-0.4c-0.5-0.2-1.9-0.8-3-1.4c-1.4-0.6-1.9-0.8-2.5-0.8
		c-0.2,0-0.3-0.1-0.3-0.1s-0.1-0.1-0.2,0c-0.1,0.1-0.2,0-0.2-0.1c0-0.1-0.4-0.2-0.8-0.3c-0.4-0.1-1.4-0.2-2.1-0.4
		C194.8,26.1,188.8,26,187,26.2 M34.3,27.8c-0.1,0.1-0.1,4.4-0.1,9.7V47h8.2h8.2v42.6v42.6h10.3h10.3V89.6V47h8.2h8.2v-9.7v-9.7H61
		C46.4,27.7,34.3,27.7,34.3,27.8 M90.7,79.9v52.3h10.4h10.4v-24.1c0-22.9,0.1-25.5,0.4-23.6c0.1,0.3,0.2,0.5,0.2,0.6
		c0.1,0,0.1,0.2,0,0.3c-0.1,0.1,0,0.2,0.1,0.2c0.1,0,0.2,0.1,0.1,0.2c-0.1,0.1,0,0.3,0.1,0.5c0.1,0.1,0.2,0.4,0.2,0.6
		s0.2,0.5,0.3,0.6s0.2,0.2,0.2,0.3c-0.1,0.1,0.6,1.9,1.3,3.4c0.1,0.2,0.2,0.5,0.2,0.8c0,0.3,0.1,0.5,0.2,0.6c0.1,0,0.2,0.1,0.1,0.2
		c0,0.1,0,0.4,0.2,0.7c0.2,0.3,0.3,0.6,0.2,0.8c0,0.1,0,0.2,0.2,0.2c0.1,0,0.1,0.1,0.1,0.3c-0.1,0.1,0,0.3,0.1,0.4
		c0.1,0.1,0.2,0.2,0.2,0.2c0,0.1,0,0.3,0.2,0.6c0.1,0.3,0.2,0.6,0.2,0.8c0,0.2,0.1,0.3,0.2,0.4c0.1,0.1,0.1,0.2,0.1,0.2
		s0,0.2,0.1,0.2c0.1,0.1,0.2,0.3,0.2,0.6c0,0.3,0.1,0.5,0.3,0.6c0.2,0.1,0.2,0.2,0.2,0.4c0,0.2,0,0.4,0.2,0.5c0.2,0.1,0.2,0.2,0,0.2
		c-0.2,0-0.2,0.1,0,0.3c0.1,0.2,0.3,0.3,0.2,0.4c0,0.1,0.4,1.4,0.5,1.6c0.1,0.1,0.2,0.5,0.4,0.9c0.2,0.4,0.4,1,0.5,1.2
		s0.2,0.7,0.2,0.9c0,0.2,0.1,0.5,0.3,0.6c0.1,0.1,0.2,0.4,0.3,0.7c0,0.2,0.1,0.5,0.3,0.6c0.1,0.1,0.2,0.3,0.2,0.4
		c0,0.3,0.4,1.4,0.6,1.5c0.1,0.1,0.7,1.7,0.8,2.2c0,0.3,0.2,0.5,0.2,0.5c0.1,0,0.1,0.1,0,0.2c-0.1,0.1,0,0.2,0.1,0.2
		c0.1,0,0.2,0.1,0.1,0.2c0,0.1,0.1,0.5,0.2,0.8c0.2,0.3,0.3,0.6,0.3,0.6c0,0.1,0,0.2,0,0.2c0,0.1,0.1,0.2,0.1,0.2
		c0,0.1,0.2,0.4,0.3,0.8c0.2,0.4,0.3,0.7,0.3,0.8c0,0.1,0.2,0.4,0.3,0.8c0.2,0.4,0.3,0.8,0.3,0.9c0,0.1,0.1,0.4,0.2,0.5
		c0.2,0.2,0.2,0.2,0,0.1c-0.3-0.2,0.1,0.7,0.4,1c0.2,0.1,0.2,0.2,0,0.2c-0.1,0,0,0.3,0.2,0.6c0.2,0.4,0.4,0.7,0.3,0.7
		c-0.1,0.1,0.6,1.6,1.1,2.9c0.1,0.2,0.2,0.6,0.2,0.8c0,0.3,0.1,0.5,0.2,0.5c0.1,0,0.1,0.1,0.1,0.2c-0.1,0.1,0,0.2,0.1,0.2
		c0.1,0,0.1,0.1,0.1,0.3c-0.1,0.2,0,0.4,0.1,0.4s0.1,0.2,0.1,0.3c-0.1,0.1,0,0.2,0.2,0.3c0.1,0.1,0.2,0.2,0.2,0.3
		c0,0.2,0.3,1.4,0.5,1.7c0.1,0.1,0.3,0.7,0.5,1.3c0.2,0.6,0.4,1.2,0.5,1.2c0,0,0.1,0.2,0.1,0.3c0.1,0.8-0.6,0.7,11,0.7
		c6,0,10.9,0,10.9-0.1s-0.1-0.3-0.2-0.6c-0.1-0.3-0.2-0.6-0.1-0.8c0.1-0.2,0-0.2-0.1-0.1c-0.2,0.1-0.2,0-0.1-0.2
		c0.1-0.2,0-0.4-0.1-0.5c-0.1-0.1-0.2-0.2-0.1-0.2c0.1-0.2-0.3-1.1-0.5-1.1c-0.1,0-0.1-0.1,0-0.2s0-0.3-0.1-0.5
		c-0.4-0.8-1.2-2.8-1.2-3.1c0-0.2-0.1-0.3-0.1-0.3c-0.1,0-0.1-0.2-0.1-0.4c0-0.2-0.1-0.6-0.3-0.7s-0.2-0.4-0.2-0.5
		c0-0.1,0-0.2-0.1-0.2c-0.1,0-0.2-0.2-0.2-0.3c0-0.2-0.1-0.3-0.2-0.3s-0.2-0.1-0.1-0.3c0-0.2-0.3-0.9-0.6-1.7
		c-0.3-0.8-0.6-1.6-0.6-1.7c0-0.1-0.1-0.3-0.2-0.3c-0.1,0-0.2-0.1-0.2-0.2c0-0.1,0.1-0.1,0.2-0.1c0.1,0.1,0.1,0,0.1-0.1
		c-0.1-0.1-0.2-0.3-0.3-0.3c-0.1,0-0.2-0.2-0.1-0.3c0.1-0.1,0-0.3-0.1-0.3c-0.1,0-0.2-0.1-0.2-0.2c0.1-0.3-0.1-0.8-0.6-1.9
		c-0.2-0.5-0.4-0.9-0.4-1s-0.2-0.4-0.4-0.9c-0.2-0.4-0.4-0.9-0.3-1.1s-0.1-0.3-0.1-0.3c-0.1,0-0.1-0.1-0.1-0.2
		c0.1-0.1,0-0.3-0.1-0.5c-0.1-0.2-0.2-0.5-0.4-0.8c-0.1-0.3-0.3-0.5-0.3-0.5c-0.1,0-0.1-0.1,0-0.2c0.1-0.1,0-0.2-0.1-0.2
		c-0.1,0-0.2-0.1-0.2-0.3s-0.1-0.4-0.2-0.4c-0.1-0.1-0.1-0.2-0.1-0.2c0-0.1-0.1-0.5-0.3-1c-0.2-0.5-0.4-1-0.4-1.2
		c0-0.5-0.5-1.6-0.7-1.6c-0.1,0-0.1-0.1,0-0.2c0.1-0.2-0.2-1-0.4-1c-0.1,0-0.1-0.1-0.1-0.1c0.1-0.2-0.1-0.8-1-2.7
		c-0.1-0.3-0.3-0.8-0.3-0.9c0-0.5-0.5-1.5-0.7-1.5c-0.1,0-0.1-0.1-0.1-0.1c0.1-0.2-0.1-0.8-0.8-2.3c-0.2-0.5-0.4-1-0.4-1.1
		c0-0.1-0.1-0.3-0.2-0.3c-0.1-0.1-0.2-0.3-0.2-0.6s-0.1-0.6-0.2-0.7c-0.1-0.1-0.2-0.3-0.2-0.4c0-0.1,0-0.2-0.1-0.2
		c-0.1,0-0.2-0.3-0.3-0.7c-0.1-0.4-0.2-0.7-0.3-0.8c-0.1,0-0.2-0.2-0.1-0.2c0-0.1,0-0.4-0.2-0.7c-0.2-0.5-0.4-1.1-0.5-1.3
		c0,0-0.2-0.4-0.3-0.8c-0.2-0.4-0.3-0.8-0.3-1.1c0-0.2-0.1-0.5-0.3-0.5c-0.1-0.1-0.2-0.2-0.1-0.3c0.1-0.1,0-0.3-0.1-0.4
		c-0.3-0.3-0.3-0.5,0-0.4c0.2,0.1,0.3,0,0.3-0.2c0-0.2,0-0.3,0.2,0c0.1,0.1,0.2,0.2,0.2,0.1c0-0.1,0.2-0.3,0.5-0.5
		c1.2-0.8,1.2-0.8,1.8-1.3c0.1-0.1,0.3-0.2,0.5-0.3c0.2-0.1,0.3-0.2,0.3-0.3c0-0.1,0.1-0.1,0.2-0.1c0.1,0.1,0.3-0.1,0.4-0.2
		c0.1-0.2,0.3-0.3,0.4-0.3c0.1,0,0.5-0.3,0.8-0.8c0.3-0.4,0.7-0.8,0.9-0.8c0.1,0,0.2-0.1,0.2-0.2c0-0.1,0.3-0.5,0.7-0.9
		c1-1,1.3-1.3,1.3-1.5c0-0.1,0.2-0.3,0.3-0.4c0.2-0.1,0.3-0.2,0.3-0.3c0-0.1,0-0.2,0.2-0.2c0.1-0.1,0.2-0.2,0.2-0.2
		c-0.1-0.1,0-0.2,0.2-0.2c0.1-0.1,0.2-0.2,0.2-0.3c-0.1-0.1,0-0.2,0.2-0.2c0.1,0,0.2-0.1,0.2-0.2c0-0.1,0-0.3,0.1-0.5
		c0.1-0.1,0.4-0.5,0.5-0.9c0.2-0.3,0.4-0.6,0.5-0.6c0.1,0,0.1-0.1,0.1-0.2c-0.1-0.1,0.1-0.5,0.4-0.9c0.2-0.4,0.4-0.8,0.4-1
		c0-0.2,0.1-0.3,0.2-0.4c0.1-0.1,0.2-0.2,0.1-0.4c-0.1-0.2,0-0.3,0.1-0.3c0.1,0,0.2-0.1,0.2-0.3c0-0.3,1.1-3.7,1.2-3.8
		c0.1-0.1,0-0.2-0.1-0.4c-0.1-0.2-0.1-0.3,0-0.3c0.1,0,0.2-0.1,0.1-0.3c0-0.2,0-0.4,0.1-0.6c0.1-0.2,0.1-0.4,0-0.5
		c0-0.1,0-0.3,0.1-0.3c0.1,0,0.2-0.7,0.2-1.4c0-0.8,0.1-1.4,0.1-1.5c0.1-0.2,0.1-5-0.1-5.1c-0.1,0-0.1-0.5-0.1-1.1c0-0.5,0-1-0.1-1
		c-0.1,0-0.1-0.3-0.1-0.7c0-0.4,0-0.7-0.1-0.7c-0.1,0-0.1-0.2-0.1-0.5c0.1-0.7-0.6-3.7-1.3-5.9c-0.1-0.4-0.2-0.7-0.2-0.8
		c0-0.1,0-0.1-0.1-0.1c-0.1,0-0.2-0.1-0.2-0.2s0.1-0.1,0.2-0.1c0.1,0.1,0.1,0,0.1-0.1c-0.1-0.1-0.2-0.3-0.3-0.3
		c-0.1,0-0.2-0.2-0.1-0.3c0.1-0.1,0-0.3-0.1-0.3s-0.2-0.2-0.2-0.4c0-0.2-0.2-0.6-0.4-1c-0.6-1-1.3-2.2-1.4-2.5
		c0-0.1-0.3-0.5-0.7-0.8c-0.4-0.3-0.7-0.7-0.7-0.8c0-0.2-3-3.1-3.3-3.1c-0.1,0-0.2-0.2-0.3-0.3c-0.1-0.2-0.2-0.3-0.4-0.3
		c-0.2,0-0.4-0.1-0.4-0.1c0-0.2-1.2-1-1.4-0.9c-0.1,0-0.1-0.1-0.1-0.2c0-0.2-0.2-0.3-0.6-0.3c-0.1,0-0.3-0.1-0.4-0.3
		c-0.1-0.2-0.2-0.3-0.3-0.3c-0.4,0.1-0.6,0-0.4-0.2c0.2-0.1,0.2-0.2-0.1-0.1c-0.2,0.1-0.8-0.1-1.4-0.5c-0.6-0.3-1.1-0.5-1.2-0.5
		c-0.1,0-0.1,0-0.1-0.1c0-0.1-0.2-0.2-0.4-0.2c-0.2,0-0.4-0.1-0.5-0.2c0-0.1-0.2-0.2-0.4-0.2c-0.2,0-0.4-0.1-0.4-0.2
		c0-0.1-0.1-0.1-0.2-0.1c-0.1,0.1-0.2,0-0.2,0c0-0.2-1.1-0.5-1.6-0.5c-0.2,0-1.3-0.2-2.4-0.4c-2.4-0.5-4.3-0.8-5.5-0.9
		c-0.5,0-1-0.1-1.1-0.1c-0.1,0-0.6-0.1-1.1-0.1c-0.5,0-1,0-1-0.1c0-0.1-6-0.1-13.2-0.1l-13.2,0V79.9 M232.3,79.9v52.3h10.4h10.4
		v-24.3c0-14-0.1-24.3-0.1-24.3c-0.1,0-0.1-0.6-0.1-1.3c0-0.7,0.1-1.3,0.2-1.3c0.1,0,0.1-0.1,0-0.2c-0.1-0.1-0.1-0.4-0.1-0.7
		c0-0.3,0-0.5-0.1-0.5c-0.1,0-0.1-0.3-0.1-0.7c0-0.4,0-0.8,0-1c-0.1-0.2-0.1-0.6-0.1-1c0-0.4,0-0.7-0.1-0.8
		c-0.1-0.1-0.1-0.2-0.1-0.4c0-0.2,0-1.5-0.2-2.9s-0.3-2.8-0.3-3c0-0.5,0.3-0.6,0.4-0.2c0.1,0.2,0.2,0.6,0.3,0.9
		c0.8,1.8,0.9,2.2,1,2.4c0,0.4,0.8,2.2,1,2.2c0.1,0,0.1,0.1,0.1,0.3c0,0.1,0.1,0.6,0.3,1c0.2,0.4,0.5,1.1,0.7,1.5
		c0.2,0.4,0.4,0.9,0.4,1c0,0.1,0.1,0.3,0.2,0.3c0.1,0,0.1,0.1,0.1,0.3c-0.1,0.2,0,0.4,0.2,0.5c0.2,0.1,0.2,0.2,0,0.2
		c-0.2,0-0.2,0.1-0.1,0.1c0.1,0.1,0.4,0.6,0.6,1.2s0.5,1,0.5,1c0.1,0,0.1,0.1,0.1,0.3c0,0.1,0.1,0.6,0.3,0.9c0.2,0.4,0.3,0.8,0.3,1
		s0.1,0.3,0.2,0.3c0.1,0,0.1,0.1,0.1,0.2c-0.1,0.1,0,0.4,0.2,0.5c0.1,0.1,0.2,0.3,0.1,0.4c-0.1,0.1,0,0.2,0.2,0.3
		c0.2,0.1,0.2,0.2,0.2,0.4c-0.1,0.2,0,0.3,0.1,0.4c0.1,0.1,0.1,0.2,0.1,0.3c-0.1,0.1,0,0.2,0.1,0.2c0.1,0,0.2,0.1,0.2,0.2
		s0.2,0.5,0.4,1c0.2,0.4,0.5,1.1,0.6,1.4c0.1,0.3,0.3,0.7,0.2,0.9c0,0.2,0.1,0.3,0.2,0.4c0.2,0.1,0.2,0.2,0.1,0.4
		c-0.1,0.2,0,0.4,0.2,0.4c0.2,0.1,0.2,0.1,0.1,0.2c-0.1,0.1-0.1,0.2,0.2,0.5c0.2,0.2,0.3,0.4,0.3,0.5c0,0.2,0.3,1.1,1.1,2.7
		c0.1,0.3,0.3,0.7,0.3,0.9c0,0.2,0.1,0.3,0.2,0.3c0.1,0,0.1,0.1,0.1,0.2c0,0.1,0,0.3,0.1,0.5c0.1,0.1,0.2,0.3,0.2,0.4
		c0,0.1,0,0.3,0.2,0.4c0.1,0.1,0.2,0.3,0.2,0.4c0,0.1,0,0.3,0.2,0.3c0.1,0.1,0.2,0.2,0.2,0.3c0,0.1,0,0.3,0.1,0.4
		c0.1,0.1,0.2,0.3,0.2,0.4c0,0.2,0.4,1.1,0.6,1.5c0.1,0.2,0.2,0.4,0.2,0.6s0.1,0.3,0.2,0.3c0.1,0,0.1,0.1,0.1,0.2
		c-0.1,0.1,0,0.2,0.1,0.2c0.1,0,0.2,0.2,0.2,0.4c0,0.2,0.1,0.5,0.2,0.5c0.1,0.1,0.2,0.2,0.2,0.2c0,0.1,0.1,0.5,0.3,0.8
		c0.2,0.4,0.3,0.8,0.3,0.9s0.1,0.3,0.3,0.4c0.1,0.1,0.2,0.2,0.2,0.3c0,0,0.1,0.4,0.3,0.8c0.2,0.4,0.4,0.9,0.4,1.1
		c0,0.2,0.1,0.4,0.2,0.4c0.1,0,0.1,0.2,0.1,0.4c0,0.2,0,0.3,0.1,0.3c0.1,0,0.2,0.1,0.2,0.3c0,0.1,0.1,0.4,0.2,0.5
		c0.1,0.2,0.3,0.6,0.4,0.9c0.6,1.3,0.8,1.9,1,2.2c0.1,0.2,0.2,0.4,0.2,0.6s0.1,0.3,0.2,0.3c0.1,0,0.1,0.1,0.1,0.2
		c-0.1,0.2,0.7,2.1,0.9,2.1c0.1,0,0.1,0.2,0.1,0.4c0,0.2,0.1,0.5,0.2,0.6c0.1,0.2,0.3,0.6,0.4,1c0.2,0.4,0.4,0.9,0.5,1.2
		c0.1,0.3,0.2,0.6,0.2,0.8s0.1,0.3,0.2,0.3c0.1,0,0.1,0.1,0.1,0.2c-0.1,0.1,0,0.4,0.1,0.5c0.1,0.1,0.2,0.3,0.1,0.3
		c0,0,0.2,0.7,0.5,1.4s0.7,1.5,0.8,1.7c0.1,0.2,0.2,0.5,0.3,0.7c0.1,0.2,0.1,0.4,0.1,0.6c0,0.2,0.1,0.3,0.2,0.3
		c0.1,0,0.1,0.1,0.1,0.2c-0.1,0.1,0,0.3,0.2,0.4c0.2,0.1,0.3,0.3,0.2,0.5c-0.1,0.2,0,0.3,0.1,0.4c0.1,0.1,0.2,0.2,0.2,0.2
		c-0.1,0.1,0.6,1.9,1,2.6l0.2,0.4h9.7h9.7V79.9V27.7h-10.2h-10.2l0,23.2c0,12.8,0,24.4-0.1,25.8c0,1.4,0,2.7,0,2.8
		c0.1,0.1,0.1,0.7,0.1,1.2c0,0.5,0.1,1,0.1,1c0.1,0,0.1,0.2,0.1,0.4c-0.1,0.4,0.4,4,0.7,5.5c0.1,0.6,0.3,1.3,0.3,1.6
		c0,0.3,0.1,0.5,0.1,0.5s0.1,0.2,0,0.3c-0.1,0.3-0.1,0.3-0.4,0c-0.2-0.2-0.3-0.4-0.2-0.5c0-0.1,0-0.2-0.1-0.2
		c-0.1,0-0.2-0.2-0.2-0.4s-0.1-0.5-0.2-0.5c-0.1-0.1-0.2-0.3-0.2-0.4c0-0.2-0.1-0.4-0.2-0.4c-0.1-0.1-0.2-0.2-0.2-0.4
		c0-0.2-0.2-0.7-0.5-1.3c-0.3-0.6-0.5-1.1-0.5-1.3c0-0.2-0.1-0.4-0.2-0.4c-0.1-0.1-0.2-0.3-0.1-0.4c0.1-0.2,0-0.3-0.2-0.4
		c-0.2-0.1-0.2-0.2,0-0.2c0.2,0,0.2,0,0-0.1c-0.1-0.1-0.2-0.2-0.2-0.2c0-0.1-0.1-0.5-0.3-0.9c-1.2-2.7-1.4-3.3-1.4-3.5
		c0-0.1,0-0.3-0.2-0.3c-0.1-0.1-0.2-0.2-0.2-0.3c0-0.1,0-0.3-0.1-0.4c-0.1-0.1-0.2-0.3-0.2-0.4c0-0.1-0.1-0.3-0.2-0.3
		c-0.1-0.1-0.2-0.2-0.2-0.2s-0.1-0.5-0.3-0.9c-0.9-1.9-1.1-2.4-1.3-3.3c-0.1-0.4-0.3-0.7-0.4-0.7c-0.1,0-0.2-0.2-0.2-0.4
		c0-0.2-0.1-0.5-0.2-0.5c-0.1-0.1-0.2-0.2-0.1-0.3c0.1-0.1,0-0.3-0.2-0.5c-0.2-0.2-0.2-0.4-0.2-0.4c0.1-0.1,0-0.3-0.1-0.5
		c-0.1-0.2-0.2-0.4-0.2-0.4c0,0-0.2-0.4-0.4-0.8c-0.2-0.4-0.3-0.8-0.3-1c0-0.1,0-0.3-0.2-0.3c-0.1-0.1-0.3-0.2-0.3-0.4
		c0-0.4-0.4-1.4-0.5-1.4c-0.1,0-0.1-0.1-0.1-0.3s-0.1-0.5-0.2-0.8c-0.3-0.5-0.8-1.8-1-2.3c-0.1-0.2-0.1-0.5-0.2-0.7
		c0-0.2-0.1-0.4-0.2-0.4c-0.1,0-0.1-0.2-0.1-0.3c0.1-0.1,0-0.3-0.2-0.3c-0.2-0.1-0.2-0.2-0.2-0.4c0.1-0.1,0-0.3-0.1-0.4
		c-0.1-0.1-0.3-0.3-0.3-0.5c-0.1-0.3-0.5-1.4-1-2.5c-0.2-0.4-0.3-0.8-0.3-1s-0.1-0.4-0.2-0.5c-0.1-0.1-0.1-0.2-0.1-0.2
		c0-0.1-0.1-0.3-0.2-0.5c-0.2-0.2-0.3-0.4-0.2-0.5c0-0.1,0-0.2-0.1-0.3c-0.1-0.1-0.2-0.3-0.2-0.4s-0.1-0.4-0.2-0.4
		c-0.1-0.1-0.2-0.2-0.2-0.2c0.1-0.1-0.5-1.5-0.9-2.4c-0.1-0.2-0.1-0.4-0.1-0.4c0-0.1,0-0.3-0.2-0.4c-0.1-0.1-0.2-0.3-0.2-0.4
		c0.1-0.2-0.4-1.4-0.6-1.4c-0.1,0-0.1-0.1-0.1-0.3c0-0.2-0.2-0.8-1.1-2.6c-0.2-0.4-0.3-0.9-0.3-1.1c0-0.2-0.1-0.3-0.2-0.4
		c-0.2-0.1-0.2-0.2-0.1-0.4c0.1-0.2,0-0.4-0.2-0.4c-0.1-0.1-0.2-0.2-0.2-0.3c0-0.1,0-0.3-0.1-0.4c-0.1-0.1-0.2-0.3-0.2-0.5
		c-0.1-0.3-0.2-0.5-0.7-1.7c-0.4-1-0.6-1.4-0.6-1.6c0-0.4-0.3-0.9-0.4-0.9c-0.1,0-0.1-0.1-0.1-0.2c0-0.1,0-0.3-0.1-0.3
		c-0.1-0.1-0.2-0.3-0.2-0.4c0-0.2-0.1-0.4-0.2-0.4c-0.1-0.1-0.2-0.2-0.2-0.3c0-0.1,0-0.3-0.1-0.4c-0.1-0.1-0.2-0.4-0.3-0.5
		s-0.2-0.6-0.3-0.9c-0.2-0.3-0.3-0.7-0.3-0.7c0,0-0.1-0.2-0.2-0.4c-0.1-0.2-0.1-0.4-0.1-0.5c0.1-0.1,0-0.2-0.2-0.3
		c-0.2-0.1-0.3-0.3-0.3-0.4c0.1-0.3-0.4-1.3-0.6-1.3c-0.1,0-0.1-0.1-0.1-0.3c0-0.9,0.6-0.8-10.2-0.8h-10V79.9 M298.8,27.8
		c0,0.1,0.3,0.8,0.7,1.6c0.4,0.8,0.7,1.6,0.7,1.6c-0.1,0.1,0.3,0.9,0.7,1.3c0.1,0.1,0.2,0.4,0.2,0.5c0,0.2,0.3,0.9,0.7,1.6
		c0.4,0.7,0.7,1.4,0.7,1.5c0,0.1,0.1,0.2,0.2,0.2c0.1,0,0.1,0.1,0,0.2c-0.2,0.1-0.2,0.2,0.1,0.2c0.2,0,0.3,0.1,0.2,0.1
		c-0.1,0.2,0.5,1.5,0.7,1.5c0.1,0,0.1,0.1,0.1,0.1s0.2,0.6,0.5,1.3c0.3,0.6,0.6,1.3,0.7,1.6c0.1,0.3,0.2,0.6,0.4,0.7
		c0.1,0.1,0.3,0.4,0.3,0.7c0.1,0.6,0.5,1.4,0.7,1.4c0.1,0,0.2,0.2,0.3,0.5c0.1,0.3,0.3,0.9,0.6,1.4c0.3,0.5,0.4,0.9,0.4,0.9
		c-0.1,0.1,0.4,1.1,0.6,1.1c0.1,0,0.1,0.1,0.1,0.2c0,0.2,0.6,1.7,1.3,2.9c0.1,0.2,0.2,0.6,0.2,0.7c0,0.1,0.1,0.3,0.2,0.3
		c0.1,0,0.1,0.1,0.1,0.2c-0.1,0.1,0,0.2,0.1,0.2c0.1,0,0.1,0.1,0.1,0.2c-0.1,0.2,0.1,0.8,0.6,1.2c0.1,0.2,0.3,0.5,0.3,0.7
		s0.3,0.7,0.6,1.2c0.3,0.5,0.5,1,0.5,1.2c0,0.2,0.2,0.5,0.4,0.8c0.2,0.2,0.4,0.6,0.4,0.7c0,0.2,0.4,1.1,0.9,2.1
		c0.5,1,0.9,1.9,0.9,2.1c0,0.3,0.4,1.1,0.7,1.3c0.1,0.1,0.1,0.1,0.1,0.2c-0.1,0.4,0,0.6,0.4,1.1c0.2,0.3,0.6,1,0.7,1.6
		c0.2,0.5,0.4,0.9,0.4,0.8c0-0.1,0.1,0,0.2,0.2c0.1,0.2,0.2,0.5,0.2,0.5c-0.1,0.2,0.4,1.1,0.6,1.2c0.1,0,0.2,0.3,0.2,0.5
		c0,0.2,0.2,0.8,0.5,1.2c0.2,0.4,0.5,1,0.6,1.4c0.1,0.4,0.3,0.8,0.4,0.9c0.1,0.1,0.2,0.3,0.1,0.3c-0.1,0.1,0,0.1,0.1,0.1
		c0.1,0,0.2,0.1,0.1,0.1c0,0.1,0.4,1,0.9,2.1c0.5,1.1,0.9,2,0.9,2c-0.1,0.1,0.4,1.1,0.6,1.1c0.1,0,0.2,0.3,0.2,0.5
		c0,0.2,0.2,0.8,0.5,1.2l0.4,0.8v25.1v25.1h10.3h10.3l0-25.4c0-17.1,0.1-25.5,0.2-25.5c0.3-0.2,0.7-1,0.7-1.4c0-0.2,0.2-0.5,0.3-0.7
		c0.2-0.2,0.3-0.5,0.3-0.6c-0.1-0.1,0-0.2,0.1-0.2s0.1-0.1,0.1-0.1c0-0.1,0.3-0.9,0.9-2.1c0.2-0.4,0.3-0.8,0.3-0.9
		c0-0.1,0.1-0.2,0.1-0.2c0.2,0,0.6-0.8,0.4-1c-0.1-0.1,0-0.2,0.1-0.2c0.1,0,0.2,0,0.1-0.1c-0.1-0.1,0-0.3,0.2-0.4
		c0.2-0.2,0.3-0.5,0.2-0.6c0-0.1,0.1-0.5,0.2-0.8c0.2-0.3,0.3-0.6,0.3-0.8c0-0.2,0.1-0.4,0.3-0.5c0.3-0.3,0.8-1.4,0.6-1.4
		c-0.1,0-0.1-0.1,0-0.1c0.3-0.3,0.7-1,0.6-1.1c-0.1,0-0.1-0.1,0.1-0.3c0.1-0.1,0.3-0.4,0.4-0.7c0.1-0.4,0.7-1.6,1.3-2.7
		c0.2-0.3,0.3-0.7,0.2-0.8c-0.1-0.1,0-0.2,0.1-0.2c0.1,0,0.2,0,0.1-0.1c-0.1-0.1,0.1-0.2,0.2-0.4c0.2-0.2,0.3-0.4,0.2-0.6
		c-0.1-0.2,0-0.2,0.1-0.1c0.1,0.1,0.2,0,0.1-0.1c-0.1-0.1,0-0.5,0.2-0.8c0.2-0.3,0.3-0.5,0.2-0.5c0,0,0.1-0.4,0.4-0.9
		c0.3-0.5,0.4-1,0.4-1.1c-0.1-0.1,0-0.2,0.1-0.2c0.2,0,0.7-1,0.6-1.2c0-0.1,0-0.1,0.1-0.1c0.2,0,0.4-0.6,0.4-0.9
		c0-0.2,1.2-2.7,1.8-3.8c0.2-0.3,0.3-0.7,0.2-0.8c-0.1-0.1,0-0.3,0.1-0.4c0.1-0.1,0.3-0.4,0.4-0.6c0.1-0.2,0.5-1.2,0.9-2.1
		c0.4-0.9,0.8-1.7,0.7-1.8c0-0.1,0-0.1,0.1-0.1c0.2,0,0.8-1,0.6-1.1c0-0.1,0.2-0.8,0.6-1.6c0.4-0.8,0.7-1.5,0.6-1.6
		c0-0.1,0-0.1,0.1-0.1c0.2,0,0.6-0.9,0.6-1.2c0-0.2,0.1-0.3,0.2-0.4c0.1-0.1,0.3-0.2,0.3-0.4s0.2-0.7,0.4-1.1
		c0.8-1.5,1.1-2.2,1.1-2.5c0-0.2,0.1-0.3,0.2-0.3c0.2,0,0.7-1,0.6-1.2c-0.1-0.1,0-0.2,0.1-0.2c0.1,0,0.2,0,0.1-0.1
		c-0.1-0.1,0-0.3,0.1-0.5c0.7-1.4,1.1-2.3,1-2.4c0-0.1,0-0.1,0.1-0.1c0.2,0,0.5-0.5,0.6-1.1c0-0.2,0.2-0.6,0.3-0.7
		c0.2-0.2,0.3-0.5,0.3-0.8c0-0.1,0.1-0.4,0.3-0.7s0.3-0.6,0.2-0.7c-0.1-0.1-5.3-0.1-11.6-0.1h-11.5l-0.3,1c-0.2,0.5-0.4,1-0.4,1
		c-0.1,0-0.1,0.1,0,0.2c0.1,0.1,0,0.2-0.1,0.2c-0.1,0-0.2,0.1-0.1,0.2c0.1,0.1,0,0.3-0.1,0.3c-0.1,0.1-0.1,0.2-0.1,0.3
		c0.1,0.1,0,0.2-0.1,0.2c-0.2,0-0.5,0.8-0.4,1.1c0.1,0.2,0,0.2-0.1,0.1c-0.2-0.1-0.2-0.1-0.1,0.2c0.1,0.2,0,0.5-0.1,0.8
		c-0.1,0.3-0.2,0.5-0.2,0.5c0,0-0.1,0.4-0.3,0.9s-0.4,1-0.4,1.2c0,0.2-0.1,0.4-0.3,0.5c-0.2,0.2-0.2,0.2,0,0.2c0.2,0,0.2,0,0,0.2
		c-0.2,0.1-0.2,0.3-0.2,0.4c0.1,0.1,0,0.2-0.1,0.2c-0.1,0-0.1,0.1-0.1,0.2c0.1,0.1,0,0.2-0.1,0.2s-0.2,0.1-0.1,0.2
		c0.1,0.1,0,0.2-0.1,0.2c-0.1,0-0.1,0.1-0.1,0.2c0.1,0.1,0,0.2-0.1,0.2c-0.1,0-0.2,0.1-0.2,0.3c0,0.1-0.2,0.7-0.3,1.2
		c-0.2,0.5-0.4,1-0.4,1.2c0,0.1-0.1,0.2-0.2,0.2c-0.1,0-0.1,0.1-0.1,0.2s-0.2,0.6-0.3,1c-0.2,0.4-0.3,0.8-0.2,0.9s0,0.2-0.1,0.2
		c-0.1,0-0.2,0.1-0.1,0.2c0,0.1,0,0.3-0.2,0.4c-0.1,0.1-0.2,0.4-0.2,0.6s-0.1,0.4-0.2,0.4s-0.1,0.1-0.1,0.2c0,0.1-0.1,0.5-0.2,0.9
		c-0.2,0.4-0.3,0.8-0.3,0.9c0,0.1-0.1,0.5-0.3,0.8c-0.2,0.3-0.3,0.7-0.2,0.8c0,0.1,0,0.2-0.1,0.2s-0.2,0.1-0.1,0.2
		c0,0.1-0.1,0.5-0.3,0.9c-0.2,0.4-0.3,0.8-0.3,0.9c0.1,0.1,0,0.3-0.2,0.3c-0.1,0.1-0.3,0.3-0.3,0.5c0,0.2-0.3,1.2-0.6,2.2
		c-0.3,1-0.5,1.9-0.5,1.9s0,0.2-0.2,0.4s-0.2,0.3-0.1,0.3c0.1,0.1,0,0.2-0.1,0.3c-0.1,0.1-0.2,0.3-0.1,0.4c0.1,0.1,0,0.2-0.1,0.2
		c-0.2,0-0.6,1.1-0.4,1.3c0.1,0.1,0,0.2-0.1,0.2s-0.2,0.1-0.1,0.2c0.1,0.1,0,0.2-0.1,0.2s-0.2,0.2-0.2,0.5c0,0.3-0.1,0.5-0.3,0.5
		c-0.2,0-0.2-0.1-0.2-0.2c0.1-0.1,0-0.2-0.1-0.2c-0.1,0-0.1-0.1-0.1-0.2c0.1-0.1,0-0.3-0.1-0.4s-0.2-0.3-0.1-0.4
		c0.1-0.1,0-0.3-0.1-0.4c-0.1-0.1-0.2-0.4-0.3-0.6c-0.1-0.5-1-3.5-1.2-3.7c-0.1-0.1-0.1-0.4-0.1-0.7c0-0.3-0.1-0.6-0.2-0.7
		c-0.1-0.1-0.2-0.2-0.2-0.2c0.1-0.1-0.2-0.9-0.8-2.3c-0.2-0.5-0.4-1-0.4-1.1s-0.1-0.3-0.1-0.4c-0.2-0.2-0.6-1.4-0.6-1.9
		c0-0.2-0.2-0.5-0.3-0.6c-0.1-0.1-0.2-0.3-0.2-0.5c0.1-0.2,0-0.3-0.1-0.3c-0.1,0-0.2-0.2-0.2-0.3c0-0.2-0.1-0.3-0.2-0.3
		c-0.1,0-0.1-0.1-0.1-0.2c0.1-0.1,0-0.3-0.1-0.3c-0.1-0.1-0.2-0.2-0.2-0.4c0-0.1-0.2-0.7-0.5-1.3c-0.3-0.6-0.5-1.2-0.5-1.3
		c0-0.1-0.1-0.3-0.2-0.3c-0.1-0.1-0.1-0.2-0.1-0.2c0.1-0.2-0.2-1.2-0.4-1.2c-0.1,0-0.1-0.2-0.1-0.4c0-0.2-0.1-0.5-0.3-0.6
		c-0.1-0.1-0.2-0.2-0.2-0.3c0.1-0.1-0.1-0.6-0.6-1.7c-0.1-0.2-0.3-0.6-0.4-0.9c-0.3-0.8-0.5-1.4-0.5-1.5c0-0.1,0-0.1-0.2-0.1
		c-0.1,0-0.1-0.1-0.1-0.3c0.1-0.2,0-0.4-0.1-0.4c-0.1,0-0.2-0.2-0.1-0.2c0.1-0.1,0-0.4-0.2-0.7c-0.1-0.3-0.3-0.6-0.3-0.7
		c0-0.1-0.1-0.2-0.2-0.2c-0.1,0-0.2-0.2-0.2-0.3c0-0.2-0.1-0.3-0.2-0.3c-0.1,0-0.2-0.1-0.1-0.2c0-0.3-0.1-0.8-0.6-1.8
		c-0.2-0.4-0.3-0.8-0.2-0.9c0.1-0.1,0-0.2-0.2-0.3c-0.2-0.1-0.2-0.2-0.2-0.4c0.1-0.3-0.2-0.3-11.3-0.3
		C304,27.7,298.8,27.7,298.8,27.8 M118.7,44.9c0.3,0,0.5,0.1,0.5,0.1c0,0.1,2.1,0.7,2.4,0.7c0.1,0,0.2,0.1,0.3,0.2
		c0.1,0.1,0.3,0.2,0.4,0.2c0.4,0,2,1.2,2.3,1.7c0.1,0.2,0.3,0.3,0.5,0.3c0.2,0,0.2,0.1,0.2,0.2c-0.1,0.1,0,0.2,0.1,0.2
		c0.2,0,1.5,2,1.6,2.3c0,0.1,0.1,0.2,0.2,0.2c0.1,0,0.1,0.1,0.1,0.1c-0.1,0.2,0.2,1.2,0.4,1.2c0.1,0,0.1,0.1,0,0.2
		c-0.1,0.1,0,0.2,0,0.2c0.1,0,0.2,0.2,0.2,0.5c0,0.3,0.1,0.6,0.2,0.8c0.1,0.2,0.1,0.5,0.1,0.7c0,0.2,0,0.5,0.1,0.6
		c0.2,0.2,0.1,3.2,0,4.7c-0.1,0.6-0.1,1.4-0.2,1.6c0,0.2-0.1,0.6-0.2,0.9c-0.1,0.3-0.2,0.7-0.2,0.9c0,0.2-0.1,0.4-0.1,0.4
		c-0.1,0-0.1,0.1,0,0.2c0.1,0.1,0,0.2-0.1,0.2c-0.1,0-0.1,0.1-0.1,0.2c0.1,0.1,0,0.2-0.1,0.2s-0.2,0.1-0.1,0.2
		c0.1,0.2-0.7,1.8-1.1,2.2c-0.1,0.1-0.1,0.2,0,0.2c0.1,0,0,0.1-0.2,0.2c-0.2,0.1-0.3,0.2-0.2,0.3c0.1,0.1,0,0.2-0.2,0.2
		s-0.2,0.1-0.2,0.2c0.1,0.1,0,0.2-0.1,0.2c-0.1,0-0.3,0.1-0.4,0.2c-0.1,0.1,0,0.1,0.1,0.1c0.1-0.1,0.2-0.1,0.2,0c0,0.2-1,1-1.7,1.5
		c-0.3,0.2-0.6,0.4-0.8,0.6s-0.4,0.3-0.5,0.2c-0.1-0.1-0.2,0-0.2,0.1c0,0.1-0.1,0.1-0.2,0.1c-0.1-0.1-0.2,0-0.2,0.1
		s-0.1,0.2-0.1,0.1c-0.2-0.1-1,0.2-1,0.4c0,0.1-0.1,0.1-0.2,0c-0.1-0.1-0.2,0-0.2,0c0,0.1-0.2,0.2-0.4,0.2c-0.2,0-0.6,0.1-0.9,0.1
		c-0.9,0.2-3.4,0.4-5.2,0.3l-1.8-0.1l0-14l0-14l3.4,0.1C116.7,44.8,118.5,44.9,118.7,44.9 M192.6,45.3c0.1,0,0.2,0,0.2,0.1
		c0,0.1,0.2,0.1,0.3,0.1c0.2,0,0.3,0,0.3,0c0,0.2,1,0.5,1.2,0.4c0.1,0,0.1,0,0.1,0.1s0.3,0.3,0.6,0.4c0.3,0.1,0.9,0.5,1.3,0.8
		c0.4,0.3,0.7,0.5,0.8,0.5c0.1-0.1,0.1,0,0.1,0.1c0,0.3,0.6,0.9,1,1c0.2,0.1,0.3,0.2,0.3,0.3c0,0.1,0.3,0.5,0.6,0.9
		c0.3,0.4,0.6,0.7,0.5,0.8c0,0.2,0.6,1.3,0.7,1.3c0.1,0,0.1,0.2,0.1,0.3s0.2,0.6,0.3,1c0.6,1,1.2,2.5,1.2,3c0.1,0.9,0.3,1.5,0.6,1.7
		c0.2,0.1,0.2,0.2,0.1,0.2c-0.2,0-0.2,0.1,0,0.4c0.1,0.2,0.2,0.4,0.2,0.5c0,0.1,0,0.1,0.1,0.1s0.1,0.1,0.1,0.1
		c0,0.1,0.1,0.9,0.3,1.8c0.2,0.9,0.4,2,0.5,2.3c0,0.4,0.2,1.2,0.3,1.8c0.1,0.6,0.2,1.5,0.2,2c0,0.5,0,1,0.1,1.1
		c0.1,0.1,0.1,0.5,0.1,0.9c0,0.4,0,0.7,0.1,0.7c0.1,0,0.2,0.1,0.2,0.3c0,0.2-0.1,0.2-0.2,0.1c-0.1-0.1-0.1,0-0.1,0.1
		c0.1,0.1,0.1,0.5,0.1,0.9c0,0.3,0,0.6,0.1,0.6c0.1,0,0.1,0.3,0.1,0.6c0,0.3-0.1,0.6-0.1,0.6c-0.1,0-0.1,0.2,0,0.5
		c0,0.3,0.1,0.5,0.2,0.5c0.1,0,0.1,11.4,0,11.6c0,0.1-0.1,0.6,0,1.1c0,0.5,0,1-0.1,1s-0.1,0.3-0.1,0.6c0.1,0.3,0,0.6,0,0.5
		c-0.1,0-0.1,0.1-0.1,0.2s0.1,0.3,0.1,0.2c0.1,0,0.1,0,0.1,0.2c0,0.2-0.1,0.2-0.2,0.2c-0.1-0.1-0.2,0.1-0.1,0.7c0,0.5,0,0.9-0.1,0.9
		c-0.1,0-0.1,0.5-0.1,1c0,0.5-0.1,1.9-0.3,3s-0.3,2.1-0.3,2.2c0,0.1,0,0.1-0.1,0.1c-0.1,0-0.2,0.2-0.3,0.5c-0.1,0.3-0.3,1.1-0.5,1.8
		c-0.2,0.7-0.3,1.4-0.3,1.6c0,0.2-0.1,0.4-0.2,0.4c-0.1,0-0.1,0.1-0.1,0.2c0.1,0.1,0,0.2-0.1,0.2c-0.1,0-0.1,0.1-0.1,0.2
		c0.1,0.1,0,0.2-0.1,0.2c-0.1,0-0.2,0.1-0.1,0.1c0.1,0.1,0,0.4-0.2,0.8c-0.5,1.2-0.8,1.8-1,2.2c-0.1,0.2-0.2,0.6-0.3,0.8
		c0,0.2-0.2,0.4-0.3,0.5c-0.1,0.1-0.2,0.4-0.3,0.7c0,0.3-0.2,0.6-0.3,0.7c-0.1,0.1-0.2,0.2-0.2,0.3c0,0-0.2,0.4-0.5,0.7
		c-0.3,0.4-0.6,0.7-0.6,0.8c0,0.2-2.3,2.5-2.5,2.4c-0.1,0-1.2,0.5-1.5,0.8c-0.4,0.3-2.2,0.8-2.9,0.8c-0.3,0-0.6,0-0.6,0.1
		c0,0.1-0.1,0.2-0.2,0.2c-0.1,0-0.1-0.1-0.1-0.2c0.1-0.1,0-0.1-0.3,0c-0.5,0.2-0.6,0.2-0.5,0c0.1-0.1-0.2-0.1-0.5-0.1
		c-0.5,0-1.1-0.1-1.9-0.4c-0.1-0.1-0.3-0.1-0.3-0.1c0,0-0.2-0.1-0.4-0.2s-0.4-0.2-0.5-0.1c-0.1,0.1-0.3-0.1-0.6-0.3
		c-0.3-0.2-0.6-0.4-0.7-0.4c-0.1,0-0.2-0.1-0.2-0.3c-0.1-0.2-0.1-0.3-0.2-0.2c-0.1,0.2-2.1-1.6-2.1-1.9c0-0.1-0.2-0.4-0.5-0.7
		c-0.3-0.3-0.6-0.7-0.6-0.8s-0.2-0.4-0.3-0.5c-0.2-0.2-0.8-1.4-1.4-2.7c0-0.1,0-0.1,0.1,0c0.2,0.1,0.2,0,0-0.2
		c-0.1-0.2-0.3-0.4-0.4-0.4c-0.1,0-0.2,0,0-0.1c0.2-0.1-0.1-0.9-0.4-1.2c0,0-0.1-0.2-0.1-0.4c0-0.2-0.2-0.9-0.5-1.6
		c-0.7-2.2-1-3.4-0.9-3.7c0-0.2,0-0.3-0.1-0.3c-0.1,0-0.2-0.1-0.1-0.4c0.1-0.2,0-0.4,0-0.4c-0.1,0-0.1-0.2-0.1-0.4
		c0-0.2,0-0.4-0.1-0.4c-0.1,0-0.1-0.2-0.1-0.4c0.1-0.3,0-0.5-0.1-0.6c-0.1-0.1-0.2-0.1,0-0.1c0.2,0,0.1-0.6-0.1-0.9
		c-0.1-0.1-0.1-0.4-0.1-0.6c0-0.3,0-0.5-0.1-0.5c-0.1,0-0.1-0.3-0.1-0.6c0-0.9-0.3-3.9-0.4-4.1c-0.1-0.2-0.1-0.6-0.3-6.3
		c-0.1-3.9,0-7.6,0.4-11.8c0.1-0.6,0.1-1.5,0.1-2c0-0.4,0.1-0.8,0.1-0.8c0.1,0,0.1-0.3,0.1-0.7c0-0.4,0-0.7,0.1-0.7
		c0.1,0,0.1-0.3,0.1-0.6c0-0.3,0-0.6,0.1-0.6s0.1-0.2,0.1-0.5c0-0.3,0-0.5,0.1-0.5s0.1-0.1,0.1-0.2c-0.1-0.1,0-0.2,0.1-0.2
		c0.1,0,0.1-0.1,0.1-0.3s0-0.4,0.1-0.5c0.1-0.2,0.1-0.2,0-0.1c-0.1,0.1-0.2,0-0.2-0.2c0-0.2,0.1-0.3,0.2-0.3c0.1,0,0.1-0.1,0.1-0.3
		c0-0.2,0-0.3,0-0.3c0.1,0,0.2-0.4,0.2-0.9c0.1-0.5,0.4-1.8,0.8-2.8c0.4-1.1,0.6-2,0.6-2c-0.1-0.1,0-0.1,0.1-0.1s0.2-0.1,0.2-0.3
		c0-0.2,0.1-0.4,0.2-0.4c0.1-0.1,0.1-0.2,0.1-0.3c0-0.1,0-0.2,0.1-0.3c0.1,0,0.2-0.2,0.2-0.4c0-0.5,1.5-3.3,1.8-3.5
		c0.2-0.1,0.3-0.3,0.2-0.4c0-0.1,0-0.2,0.2-0.3c0.2-0.1,0.2-0.2,0.2-0.2c-0.1,0,0.2-0.3,0.6-0.7c0.4-0.4,0.8-0.8,0.8-0.9
		s0.1-0.2,0.2-0.2c0.1,0,0.2-0.1,0.2-0.2s0.1-0.2,0.2-0.2c0.1,0,0.3-0.1,0.4-0.2c0.3-0.4,1.2-1,1.5-0.8c0.2,0.1,0.2,0.1,0.1-0.1
		c-0.1-0.2-0.1-0.2,0.1-0.1c0.1,0.1,0.3,0,0.4-0.2c0.2-0.2,0.2-0.2,0.2-0.1c0,0.2,0,0.2,0.2,0c0.1-0.1,0.5-0.3,0.8-0.3
		c0.3,0,0.7-0.1,0.8-0.2c0.1-0.1,0.3-0.1,0.5-0.1c0.1,0.1,0.3,0,0.3-0.1c0.1-0.1,0.6-0.1,1.2,0C191.9,45.3,192.5,45.3,192.6,45.3
		 M64.2,167.3c-0.9,0.1-1.9,0.5-2.4,0.8c-0.3,0.2-0.6,0.3-0.8,0.3c-0.2,0-0.4,0.2-0.5,0.4c-0.1,0.2-0.3,0.3-0.3,0.2
		c0-0.4-2.5,2.5-2.6,3c-0.1,0.2-0.2,0.5-0.4,0.7c-0.1,0.2-0.3,0.4-0.3,0.4c0,0.1-0.1,0.3-0.2,0.6c-0.3,0.6-0.5,1.7-0.5,2
		c0,0.1-0.1,0.9-0.2,1.8c-0.3,1.9-0.3,5.7,0,7.7c0.1,0.9,0.2,1.6,0.2,1.7c-0.1,0.2,0.8,2.5,1,2.8c0.1,0.1,0.2,0.2,0.1,0.3
		c-0.1,0.1,0,0.1,0.1,0.1s0.2,0.1,0.2,0.1c0,0.3,0,0.5,0.3,0.8c0.2,0.2,0.4,0.6,0.6,0.9c0.1,0.3,0.4,0.5,0.5,0.5s0.3,0.1,0.4,0.3
		c0.2,0.4,1.6,1.3,1.9,1.3c0.1,0,0.4,0.2,0.6,0.4c0.2,0.2,0.6,0.4,0.8,0.4c0.3,0,0.5,0.1,0.5,0.1s0.8,0.1,1.8,0.1
		c1.1,0,1.8-0.1,1.7-0.1c-0.1-0.1,0.1-0.1,0.3,0c0.2,0.1,0.5,0,0.6-0.1c0.1-0.1,0.4-0.2,0.5-0.3c0.1,0,0.3-0.1,0.4-0.2
		c0.1-0.1,0.2-0.2,0.3-0.2c0.1,0,0.3-0.1,0.3-0.2c0-0.1,0.1-0.2,0.3-0.2c0.2,0,2.3-1.9,2.3-2.1c0-0.1,0.1-0.2,0.2-0.3
		c0.1-0.1,0.3-0.3,0.3-0.4s0.2-0.4,0.4-0.5c0.2-0.1,0.3-0.5,0.4-0.8c0-0.3,0.2-1,0.5-1.6c0.4-1.1,0.7-2.2,0.7-3.4
		c0-0.3,0.1-0.6,0.1-0.6s0.1-0.5,0.1-1.1c0-0.6,0-1.1,0.1-1.2c0.2-0.1,0.2-1,0-1.1c-0.1,0-0.1-0.6-0.1-1.2c0-0.6,0-1.1-0.1-1.2
		c-0.1,0-0.1-0.2,0-0.3c0.1-0.3-0.3-2.3-0.7-3.7c-0.2-0.6-0.4-1.3-0.5-1.5c-0.1-0.5-0.5-1.2-0.8-1.2c-0.1,0-0.1-0.1-0.1-0.2
		c0.1-0.3-1.4-1.8-2-2.1c-0.2-0.1-0.4-0.3-0.4-0.4c0-0.1-0.1-0.3-0.3-0.3c-0.2-0.1-0.7-0.3-1.1-0.5c-0.5-0.2-1.4-0.5-2-0.6
		C65.2,167.2,64.9,167.2,64.2,167.3 M146.7,167.3c0,0.1-0.4,0.1-0.9,0.1c-0.5,0-1,0.1-1.1,0.2c-0.1,0.1-0.3,0.2-0.4,0.2
		c-0.3-0.1-1.7,0.7-2.2,1.3c-0.3,0.3-0.5,0.6-0.5,0.6c0.1,0-0.1,0.4-0.4,0.9c-0.6,1-1,2-0.9,2.3c0.1,0.1,0,0.2-0.1,0.2
		c-0.1,0-0.2,0.1-0.1,0.3c0,0.2,0,0.4-0.1,0.4c-0.2,0.1-0.2,2.7,0,2.7c0.1,0,0.1,0.2,0.1,0.4c-0.1,0.3,0,0.4,0.1,0.4
		c0.1,0,0.1,0.1,0.1,0.2c-0.1,0.2,0.6,2,0.8,2c0.1,0,0.1,0.1,0.1,0.2c0,0.2,0.2,0.4,1.2,1.4c1.1,1.1,1.3,1.3,1.5,1.2
		c0.1,0,0.1,0.1,0.1,0.2c0,0.1,0.1,0.2,0.3,0.2c0.2,0,0.3,0.1,0.3,0.2s0.1,0.2,0.2,0.2c0.1,0,0.3,0.1,0.5,0.3
		c0.2,0.2,0.4,0.3,0.5,0.3c0.1,0,0.3,0.2,0.4,0.4c0.1,0.2,0.3,0.4,0.5,0.4c0.5,0,1.5,2.4,1.2,2.9c-0.1,0.1-0.3,0.6-0.5,1
		c-0.2,0.5-0.4,0.8-0.6,0.8c-0.1,0-0.3,0.1-0.3,0.2c0,0.7-3,0.6-4.4-0.1c-0.4-0.2-0.8-0.4-0.8-0.3c0,0.1-0.1,0-0.2-0.3
		c-0.3-0.8-0.5-0.1-0.5,2.3c0,1.9,0.1,2.5,0.2,2.5c0.1,0,0.3,0.2,0.4,0.3c0.1,0.2,0.3,0.3,0.5,0.3c0.2,0,0.4,0.1,0.5,0.2
		c0.1,0.1,0.4,0.2,0.8,0.2c0.3,0,0.6,0,0.6,0.1c0,0.1,0.7,0.1,1.7,0.1c0.9,0,1.6-0.1,1.6-0.1c0-0.1,0.2-0.1,0.4,0
		c0.4,0.1,0.5,0,0.4-0.1c-0.1-0.1,0-0.1,0.2-0.1c0.2,0.1,0.4,0,0.4-0.2c0.1-0.1,0.2-0.2,0.3-0.2s0.1,0,0.1-0.1
		c0-0.1,0.1-0.2,0.3-0.2c0.2,0,0.5-0.2,0.7-0.4c0.2-0.2,0.5-0.4,0.7-0.5c0.2-0.1,0.3-0.2,0.3-0.3c0-0.1,0.1-0.2,0.2-0.3
		s0.3-0.3,0.3-0.4s0.1-0.2,0.2-0.2c0.1,0,0.2-0.1,0.2-0.2s0.1-0.3,0.2-0.3c0.1,0,0.2-0.2,0.2-0.4c0-0.2,0.2-0.4,0.3-0.6
		c0.1-0.1,0.2-0.3,0.1-0.5c0-0.1,0-0.2,0.1-0.2c0.4,0,0.7-3.8,0.4-4.2c-0.1-0.1-0.1-0.3-0.1-0.5c0-0.2-0.1-0.5-0.2-0.8
		c-0.1-0.3-0.2-0.5-0.1-0.6c0.1-0.1,0-0.2-0.1-0.4c-0.1-0.1-0.4-0.5-0.7-0.9c-0.3-0.4-0.6-0.7-0.7-0.8c-0.1,0-0.2-0.2-0.2-0.3
		c0-0.3-0.4-0.7-0.8-0.7c-0.1,0-0.5-0.3-0.9-0.7c-0.3-0.4-0.7-0.7-0.8-0.7c-0.1,0-0.2-0.1-0.3-0.3c-0.1-0.1-0.2-0.2-0.2-0.2
		c-0.1,0.1-0.2,0-0.3-0.2c-0.1-0.2-0.3-0.3-0.4-0.3c-0.1,0.1-1.3-1.1-1.3-1.3c0,0-0.2-0.4-0.4-0.8c-0.5-0.9-0.3-2.9,0.2-2.9
		c0.1,0,0.1-0.1,0.1-0.2c0-0.3,0.4-0.6,0.8-0.6c0.2,0,0.5-0.1,0.5-0.2c0.1-0.2,1-0.2,1,0c0,0.1,0.1,0.1,0.2,0.1
		c0.1-0.1,0.3,0,0.4,0.1c0.1,0.1,0.2,0.1,0.4,0.1s0.3,0,0.3,0s0.2,0.2,0.5,0.4c0.3,0.2,0.5,0.2,0.5,0.2c0-0.1,0.1,0,0.3,0.1
		c0.7,0.6,0.7,0.6,0.7-2.1c0-2.4,0-2.6-0.3-2.6c-0.2,0-0.4-0.1-0.6-0.2c-0.6-0.4-1.5-0.6-2.4-0.7c-0.5,0-0.9-0.1-1-0.1
		C147.1,167.1,146.7,167.1,146.7,167.3 M164,167.3c-0.1,0.1-0.3,0.1-0.5,0.1c-0.3-0.1-3.1,0.8-3.2,1.1c0,0.1-0.1,0.2-0.2,0.1
		c-0.1,0-0.2,0.1-0.3,0.3c-0.1,0.2-0.3,0.3-0.4,0.3s-0.4,0.3-0.7,0.6c-0.3,0.3-0.6,0.7-0.8,0.9c-0.2,0.1-0.3,0.4-0.3,0.5
		c0,0.1-0.1,0.2-0.2,0.2s-0.2,0.1-0.2,0.3c0,0.3-0.3,0.9-0.5,1.1c-0.1,0.1-0.2,0.3-0.2,0.5c0,0.2-0.2,0.4-0.3,0.5
		c-0.1,0.1-0.2,0.2-0.1,0.3c0,0.1-0.1,0.8-0.2,1.4c-0.4,1.8-0.5,3-0.5,5.7c0,2.9,0.3,5.7,0.7,6.3c0.1,0.1,0.1,0.4,0.1,0.7
		c0,0.3,0.1,0.4,0.2,0.4c0.1-0.1,0.1,0,0.1,0.3c-0.1,0.2,0,0.5,0.2,0.7c0.2,0.2,0.3,0.3,0.2,0.3c-0.1,0,0,0.1,0.1,0.3
		c0.1,0.1,0.2,0.4,0.3,0.5c0,0.1,0.2,0.4,0.5,0.7s0.4,0.5,0.4,0.6c0,0.2,1,1.3,1.2,1.3c0.1,0,0.3,0.1,0.5,0.3
		c1.1,0.9,1.5,1.2,1.8,1.1c0.2-0.1,0.3,0,0.3,0.1c0,0.1,0.1,0.1,0.2,0.1c0.1-0.1,0.2,0,0.2,0.1c0,0.1,0.7,0.2,2.2,0.2
		c1.2,0,2.1,0,2-0.1c0-0.1,0-0.1,0.2,0c0.1,0.1,0.3,0,0.3-0.1c0-0.1,0.1-0.2,0.3-0.1c0.2,0.1,0.4,0,0.5-0.2c0.2-0.2,0.2-0.2,0.2-0.1
		c0,0.2,0.1,0.1,0.3-0.1c0.2-0.2,0.4-0.3,0.4-0.2c0.1,0.1,0.1,0,0.1-0.1c0-0.1,0.1-0.2,0.1-0.1c0.1,0,0.4-0.2,0.8-0.5
		c0.4-0.3,0.7-0.6,0.8-0.6c0.1,0,0.1,0,0.1-0.1c0-0.1,0.3-0.5,0.7-1c0.4-0.4,0.8-0.9,0.8-1c0-0.1,0.2-0.3,0.3-0.4
		c0.2-0.1,0.3-0.4,0.2-0.5c0-0.2,0-0.4,0.2-0.5c0.1-0.1,0.3-0.4,0.3-0.6c0-0.3,0.2-1.1,0.4-1.9c0.9-3.6,0.9-7.7,0-11.2
		c-0.2-0.8-0.3-1.6-0.3-1.8c0-0.2-0.1-0.4-0.2-0.5s-0.2-0.2-0.2-0.2c0.1-0.1,0-0.2-0.1-0.2c-0.1,0-0.1-0.1-0.1-0.2
		c0.1-0.1,0-0.4-0.2-0.7c-0.2-0.3-0.4-0.5-0.4-0.6c0-0.1-0.3-0.4-0.7-0.9c-0.4-0.4-0.7-0.8-0.7-0.9c0-0.1-0.1-0.1-0.3-0.1
		c-0.2,0-0.3-0.1-0.3-0.2c0-0.1-0.2-0.3-0.4-0.3c-0.2-0.1-0.4-0.2-0.4-0.4c0-0.1-0.1-0.2-0.2-0.2c-0.1,0.1-0.2,0-0.2-0.1
		s-0.1-0.2-0.1-0.1c-0.1,0-0.3-0.1-0.5-0.2c-1-0.4-1.4-0.6-1.8-0.6C165.1,167.2,164.2,167.2,164,167.3 M205.3,167.3
		c-0.1,0.1-0.4,0.1-0.8,0.2c-0.8,0.1-2.9,0.8-3.1,1.1c-0.1,0.1-0.2,0.2-0.3,0.1c-0.1-0.1-0.2,0.1-0.2,0.3c-0.1,0.2-0.2,0.4-0.2,0.4
		c-0.1,0-0.2,0-0.3,0c-0.1,0-0.3,0.3-0.5,0.6c-0.2,0.3-0.4,0.6-0.6,0.6c-0.1,0.1-0.2,0.2-0.2,0.3c0,0.1-0.1,0.2-0.2,0.2
		c-0.1,0-0.2,0.1-0.2,0.2c0,0.1-0.1,0.2-0.1,0.2c-0.2,0-0.7,1.2-0.6,1.3c0,0.1,0,0.2-0.1,0.2s-0.3,0.6-0.5,1.3c-1,4.1-1.1,9.4,0,13
		c0.2,0.6,0.3,1.2,0.2,1.4c0,0.2,0,0.4,0.1,0.4c0.1,0.1,0.1,0,0.1-0.2c-0.1-0.2,0-0.2,0.1-0.2c0.1,0.1,0.2,0.2,0.1,0.4
		c-0.1,0.3,0.5,1.4,0.8,1.4c0.1,0,0.1,0.1,0.1,0.2c-0.1,0.1,0.2,0.4,0.5,0.7c0.3,0.3,0.6,0.7,0.7,0.8c0.1,0.2,0.2,0.3,0.4,0.3
		s0.4,0.2,0.5,0.4c0.1,0.2,0.4,0.4,0.5,0.4s0.2,0.1,0.2,0.2c0,0.1,0.1,0.1,0.1,0.1c0.1,0,0.3,0.1,0.4,0.2s0.5,0.3,0.7,0.3
		s0.4,0.1,0.4,0.2c0,0.1,0.1,0.1,0.2,0.1c0.1-0.1,0.2,0,0.2,0.1c0,0.1,0.1,0.2,0.3,0.1c0.1-0.1,0.2,0,0.2,0c0,0.1,0.8,0.1,1.9,0.1
		c1.3,0,1.9,0,1.9-0.2c-0.1-0.1,0-0.1,0.2-0.1c0.2,0.1,0.3,0,0.3-0.1c0-0.1,0.1-0.1,0.2-0.1c0.1,0.1,0.2,0,0.2-0.1
		c0-0.1,0.1-0.2,0.3-0.1c0.3,0.1,1.8-0.8,2.1-1.3c0.1-0.1,0.2-0.2,0.4-0.2c0.1,0,0.4-0.2,0.5-0.4c0.2-0.2,0.4-0.6,0.6-0.7
		c0.4-0.4,1-1.3,1-1.5c0-0.1,0.2-0.4,0.3-0.5c0.2-0.2,0.2-0.4,0.2-0.5c0-0.1,0-0.3,0.1-0.3c0.1-0.1,0.1-0.2,0.1-0.3
		c-0.1-0.1,0-0.2,0.1-0.2c0.1,0,0.2-0.1,0.1-0.2c-0.1-0.1,0-0.2,0-0.2c0.1,0,0.1-0.2,0.1-0.4c0-0.2,0.1-1,0.3-1.8
		c0.4-2,0.5-6.9,0-9.1c-0.2-0.8-0.3-1.7-0.3-1.9c0-0.3,0-0.3-0.2-0.3c-0.1,0.1-0.2,0-0.1-0.2c0.1-0.2,0-0.3-0.1-0.3
		c-0.1,0-0.1-0.1-0.1-0.2c0-0.1,0-0.3-0.1-0.3c-0.2-0.1-0.2-0.1,0-0.1c0.2,0-0.3-1-0.5-1c-0.1,0-0.1-0.1-0.1-0.3
		c0-0.2-0.3-0.7-1.4-1.9c-0.2-0.3-0.4-0.5-0.4-0.6s-0.2-0.2-0.4-0.3c-0.3-0.1-0.4-0.2-0.3-0.4c0.1-0.2,0-0.2-0.2-0.2
		c-0.1,0.1-0.3,0-0.3-0.1c0-0.1-0.1-0.2-0.2-0.2c-0.1,0-0.3-0.1-0.3-0.2c-0.1-0.2-2.2-1-2.8-1c-0.2,0-0.7,0-1.1-0.1
		C205.7,167.2,205.4,167.2,205.3,167.3 M116.5,167.4c0,0-0.4,0.1-0.8,0.2c-1.1,0.1-1.8,0.3-1.9,0.5c-0.1,0.1-0.2,0.1-0.4,0.1
		c-0.2,0-0.5,0.1-0.6,0.3c-0.2,0.2-0.3,0.2-0.3,0.1c0-0.1-0.2,0-0.4,0.2c-0.2,0.2-0.4,0.4-0.5,0.3c0,0-0.4,0.2-0.7,0.5
		c-0.3,0.3-0.7,0.6-0.8,0.6c-0.1,0-0.2,0.1-0.2,0.1c0,0.1-0.4,0.6-0.9,1.1c-0.5,0.5-1,1.2-1.1,1.5c-0.3,0.6-0.8,1.7-1.3,2.8
		c-0.2,0.4-0.4,1-0.4,1.3c0,0.3-0.1,0.5-0.2,0.6s-0.2,0.3-0.1,0.6c0,0.3,0,0.5-0.1,0.5c-0.1,0-0.1,0.3-0.1,0.7
		c0.1,0.4,0,0.8-0.1,0.8c-0.2,0.1-0.2,1.2,0,1.3c0.1,0.1,0.1,0.5,0.1,0.9c0,0.6,0,0.8,0.1,0.8c0.1,0,0.1,0.1,0,0.2
		c-0.2,0.1-0.2,0.2,0,0.2c0.1,0,0.2,0.1,0.1,0.3c-0.1,0.4,0.7,2.8,1.3,4c0.2,0.3,0.2,0.5,0.2,0.5c-0.1,0,0,0.1,0.2,0.2
		c0.2,0.1,0.3,0.4,0.4,0.7c0.1,0.3,0.2,0.5,0.4,0.5c0.2,0,0.2,0,0,0.1c-0.2,0.1-0.2,0.2,0.1,0.3c0.2,0.1,0.3,0.2,0.3,0.3
		c0,0.1,0.2,0.4,0.6,0.7c0.4,0.3,0.7,0.7,0.7,0.8c0,0.1,0.1,0.2,0.2,0.2s0.2,0.1,0.2,0.2c0,0.1,0.1,0.2,0.2,0.2
		c0.1,0,0.3,0.1,0.4,0.2c0.2,0.3,0.9,0.7,1.1,0.6c0.1,0,0.1,0,0.1,0.1s0.1,0.2,0.2,0.2c0.1,0,0.2,0.1,0.2,0.1c0,0.2,1,0.5,1.2,0.4
		c0.1,0,0.1,0,0.1,0.1c0,0.2,1.3,0.5,2.2,0.4c0.4,0,0.8,0,0.8,0.1s0.2,0.1,0.3,0.1s0.3-0.1,0.3-0.2c0-0.1,0.3-0.1,0.6-0.1
		c0.4,0.1,0.6,0,0.6-0.1c0-0.1,0.1-0.1,0.2,0c0.1,0.2,0.2,0.2,0.3,0c0.1-0.2,0.2-0.3,0.3-0.3c0.2,0,0.2-0.5,0.2-2.5
		c0-2.3,0-2.5-0.3-2.4c-0.9,0.4-2.6,0.5-3,0.2c-0.1-0.1-0.2-0.1-0.3,0c-0.1,0.1-0.4-0.1-0.8-0.3c-0.4-0.2-0.8-0.4-0.8-0.3
		c-0.1,0.1-0.1,0-0.1-0.1c0-0.3-0.8-1.1-1.1-1.1c-0.2,0-0.6-0.5-0.6-0.6c0,0-0.1-0.2-0.2-0.4c-0.4-0.5-0.6-1-0.6-1.3
		c0-0.2-0.1-0.3-0.2-0.3c-0.1,0-0.1-0.1-0.1-0.2c0.1-0.1,0-0.2,0-0.2c-0.1,0-0.2-0.2-0.2-0.5c0-0.3-0.1-0.6-0.2-0.6
		c-0.2-0.1-0.2-0.1,0-0.2c0.1-0.1,0.1-0.1,0-0.1c-0.1,0-0.2-0.2-0.1-0.3c0-0.2,0-0.3-0.1-0.3c-0.2,0-0.2-3,0-3.2
		c0.1-0.1,0.2-0.4,0.2-0.8c0-0.4,0.1-0.7,0.1-0.7c0.1,0,0.1-0.1,0-0.2c0-0.1,0-0.3,0.2-0.3c0.1-0.1,0.2-0.2,0.2-0.3
		c-0.1-0.2,0.6-1.7,0.8-1.7c0.1,0,0.1-0.1,0.1-0.2c0-0.1,0.1-0.2,0.2-0.2c0.1,0,0.2-0.1,0.2-0.2c0-0.1,0.1-0.2,0.2-0.2
		s0.3-0.2,0.5-0.3c0.1-0.2,0.3-0.3,0.4-0.3c0.1,0,0.2-0.1,0.2-0.2c0-0.2,0.5-0.4,1.1-0.4c0.2,0,0.4-0.1,0.4-0.2
		c0-0.1,0.2-0.1,0.5-0.1c0.2,0.1,0.4,0,0.4,0c0-0.1,0.4-0.1,1-0.1c0.6,0,1,0,1,0.1c0,0.2,0.7,0.3,0.7,0.1c0-0.1,0.1-0.1,0.2,0.1
		c0.1,0.2,0.2-0.6,0.2-2.3l0-2.5l-0.5-0.1C118.7,167.5,116.6,167.3,116.5,167.4 M36.2,181.2v13.5h2.7h2.7l0-7.6
		c0-4.2-0.1-7.5-0.2-7.5c-0.1,0-0.1-0.2-0.1-0.6c0-0.8,0-0.8,0.3-0.3c0.1,0.3,0.1,0.4,0,0.5c-0.2,0.1-0.2,0.1,0,0.1
		c0.1,0,0.2,0.1,0.2,0.3c0,0.1,0.1,0.2,0.2,0.2c0.1-0.1,0.1,0,0.1,0.2c-0.1,0.2,0,0.3,0.2,0.4c0.1,0.1,0.2,0.2,0.2,0.3
		c-0.1,0.1,0,0.3,0.2,0.4c0.1,0.1,0.2,0.3,0.2,0.4c0,0.1,0,0.3,0.1,0.4c0.1,0.2,0.3,0.6,0.4,1c0.2,0.4,0.4,0.9,0.5,1.2
		c0.1,0.3,0.2,0.6,0.2,0.8c0,0.2,0.1,0.3,0.2,0.3s0.1,0.1,0.1,0.2c0,0.1,0,0.3,0.1,0.5c0.1,0.1,0.2,0.3,0.2,0.5
		c0,0.1,0.3,0.8,0.6,1.4c0.3,0.6,0.6,1.3,0.7,1.5c0.1,0.2,0.3,0.6,0.4,1s0.3,0.8,0.3,1c0,0.2,0.2,0.4,0.3,0.5
		c0.1,0.1,0.1,0.2,0.1,0.4c-0.1,0.2,0,0.3,0.1,0.4c0.1,0,0.2,0.2,0.2,0.4c0,0.2,0.1,0.4,0.2,0.5c0.1,0.1,0.2,0.2,0.1,0.2
		c0,0.1,0.1,0.4,0.2,0.7l0.2,0.6h2.6H53v-13.5v-13.5h-2.8h-2.8v6.2c0,3.4,0.1,6.3,0.1,6.3c0.1,0.1,0.1,0.6,0.1,1.1c0,0.6,0,1,0.1,1
		c0.1,0,0.1,0.2,0.1,0.3c0,0.2,0,0.4,0.1,0.6c0.1,0.1,0.1,0.3,0.1,0.3c-0.2,0.2-0.4,0.1-0.4-0.2c0-0.2-0.1-0.6-0.3-1
		c-0.7-1.5-1.1-2.3-1.1-2.6c0-0.2-0.1-0.3-0.2-0.4c-0.2-0.1-0.2-0.2-0.1-0.4c0.1-0.2,0-0.4-0.2-0.4c-0.1-0.1-0.2-0.2-0.2-0.3
		c0-0.1,0-0.3-0.1-0.4c-0.1-0.1-0.2-0.3-0.3-0.5c0-0.1-0.1-0.4-0.2-0.6c-0.1-0.2-0.3-0.6-0.4-1c-0.2-0.4-0.4-0.9-0.5-1.2
		c-0.1-0.3-0.2-0.7-0.2-0.9c0-0.2-0.1-0.4-0.2-0.5c-0.1-0.1-0.2-0.2-0.2-0.3c0-0.1,0-0.3-0.2-0.4c-0.1-0.1-0.2-0.3-0.2-0.4
		c0-0.1,0-0.3-0.1-0.3c-0.1-0.1-0.2-0.3-0.2-0.4s-0.1-0.4-0.2-0.4c-0.1,0-0.2-0.2-0.2-0.4c0-0.2-0.2-0.6-0.4-1
		c-0.5-1.1-0.6-1.4-0.5-1.6c0-0.2-0.6-0.2-2.6-0.2h-2.7V181.2 M77.5,181.2v13.5h2.6h2.6l0.1-6.8c0-4.4,0-6.8-0.1-6.9
		c-0.1-0.1-0.1-0.2,0-0.2c0.2-0.1,0.1-1.4-0.1-1.6c-0.1-0.1-0.1-0.3,0-0.5c0.1-0.2,0.2-0.3,0.2-0.2c0,0.1,0.2,0.5,0.3,0.9
		c0.2,0.4,0.2,0.7,0.1,0.7c-0.1,0,0,0.2,0.1,0.3c0.2,0.2,0.3,0.5,0.3,0.7c0,0.2,0.1,0.4,0.2,0.4c0.1,0,0.1,0.2,0.1,0.3
		c-0.1,0.1,0,0.3,0.2,0.3c0.1,0.1,0.2,0.2,0.2,0.4c-0.1,0.2,0,0.4,0.2,0.4c0.1,0.1,0.2,0.2,0.2,0.2c0,0.1,0,0.4,0.2,0.6
		c0.2,0.2,0.3,0.5,0.2,0.5c-0.1,0,0,0.3,0.2,0.9c0.1,0.2,0.1,0.3,0.1,0.4c0,0.1,0,0.1,0.1,0.1c0.1,0,0.1,0.1,0.1,0.2
		c0,0.1,0,0.3,0.2,0.5c0.1,0.1,0.2,0.3,0.1,0.4c-0.1,0.1,0,0.2,0.2,0.3c0.2,0.2,0.2,0.2,0.1,0.2c-0.2,0-0.2,0.1,0.1,0.4
		c0.2,0.2,0.3,0.4,0.3,0.5c0,0.1,0.1,0.3,0.1,0.5s0.2,0.5,0.3,0.7c0.1,0.2,0.3,0.7,0.5,1.1c0.2,0.4,0.4,0.9,0.4,1
		c0,0.2,0.1,0.3,0.2,0.3c0.1,0,0.1,0.1,0.1,0.3c-0.1,0.2,0,0.4,0.2,0.5c0.2,0.1,0.2,0.2,0.2,0.2c-0.2,0,0.4,1.4,0.6,1.6
		c0.1,0.1,0.9,0.2,2.6,0.2H94v-13.5v-13.5h-2.5H89l0,6.2c0,7.5,0,8.1,0.1,8.8c0.1,0.4,0,0.5-0.1,0.5c-0.1,0-0.2-0.1-0.2-0.3
		c0-0.1-0.1-0.6-0.3-1c-0.5-1.1-0.6-1.4-0.5-1.6c0-0.1,0-0.2-0.2-0.1c-0.1,0.1-0.2,0.1-0.1-0.1c0.1-0.1,0-0.3-0.1-0.4
		c-0.1-0.1-0.2-0.4-0.2-0.5c0.1-0.1,0-0.3-0.2-0.3c-0.2-0.1-0.2-0.2-0.2-0.4c0.1-0.1,0-0.3-0.2-0.5c-0.2-0.1-0.3-0.3-0.2-0.4
		c0-0.2-0.4-1.3-1-2.5c-0.2-0.4-0.3-0.8-0.3-1c0.1-0.1,0-0.3-0.2-0.4c-0.2-0.1-0.2-0.2-0.2-0.3c0-0.1,0-0.2,0-0.2
		c-0.1,0-0.1-0.1-0.1-0.2c0-0.2-0.1-0.5-1-2.3c-0.2-0.5-0.4-1-0.4-1c0,0-0.1-0.3-0.3-0.7c-0.3-0.6-0.3-0.7-0.4-1.2
		c0-0.2-0.7-0.2-2.6-0.2h-2.6V181.2 M122.7,181.2v13.5h2.7h2.7v-13.5v-13.5h-2.7h-2.7V181.2 M177,181.2v13.5h2.7h2.7l0-7.2
		c0-3.9-0.1-7.2-0.1-7.2c-0.1-0.1-0.2-1.2-0.1-1.4c0.1-0.3,0.9,1.3,0.9,2c0,0.2,0.1,0.4,0.2,0.4c0.1,0,0.1,0.2,0.1,0.3
		s0,0.3,0.2,0.3c0.1,0.1,0.2,0.2,0.2,0.4c-0.1,0.2,0,0.4,0.2,0.5c0.2,0.1,0.3,0.3,0.2,0.3c-0.1,0.1,0,0.2,0.2,0.4
		c0.2,0.2,0.2,0.3,0.2,0.3c-0.1,0,0,0.3,0.1,0.6c0.1,0.3,0.2,0.6,0.1,0.7c-0.1,0.1,0,0.1,0.1,0.1c0.2,0,0.6,1.1,0.6,1.4
		c0,0.1,0.1,0.2,0.2,0.3c0.1,0.1,0.3,0.2,0.3,0.3c0,0.1-0.1,0.1-0.2,0.1c-0.1-0.1-0.1,0,0,0.2c0.1,0.2,0.3,0.4,0.3,0.4
		c0.1,0,0.1,0.1,0.1,0.2c0,0.1,0,0.3,0.1,0.5c0.1,0.1,0.2,0.3,0.2,0.4c0,0.1,0,0.2,0.1,0.3c0.1,0.1,0.2,0.3,0.2,0.4s0.1,0.4,0.3,0.4
		c0.1,0.1,0.2,0.2,0.2,0.3c0,0.2,0.3,1,0.5,1.5c0.1,0.2,0.2,0.4,0.2,0.6c0,0.2,0.1,0.3,0.2,0.3s0.1,0.1,0.1,0.2
		c-0.1,0.1,0,0.3,0.2,0.4c0.1,0.1,0.2,0.3,0.2,0.4c-0.3,0.6,0.6,0.8,2.9,0.8h2.3v-13.5v-13.5H191h-2.7l0,6.8c0,4.1,0.1,6.9,0.2,6.9
		c0.1,0.1,0.1,0.4,0.1,0.7c-0.1,0.3,0,0.6,0,0.6c0.1,0,0.1,0.2,0.1,0.4c0,0.2,0,0.5,0.1,0.6c0.1,0.1,0.1,0.2,0,0.3
		c-0.1,0.1-0.2-0.1-0.3-0.3c-0.1-0.2-0.3-0.7-0.4-1.1c-0.2-0.4-0.3-0.8-0.3-1c0-0.1-0.1-0.3-0.2-0.3c-0.1,0-0.1-0.1-0.1-0.3
		c0.1-0.2,0-0.4-0.1-0.4c-0.1,0-0.2-0.2-0.2-0.4c0-0.2-0.1-0.4-0.2-0.4c-0.1,0-0.2-0.2-0.2-0.5s-0.1-0.4-0.2-0.5
		c-0.1-0.1-0.2-0.2-0.2-0.4c0-0.2-0.1-0.4-0.2-0.5c-0.1-0.1-0.2-0.3-0.2-0.3c0-0.2-0.4-1.1-0.6-1.4c-0.1-0.2-0.2-0.4-0.2-0.6
		c0-0.2-0.1-0.3-0.2-0.3s-0.1-0.1-0.1-0.2c0.1-0.1,0-0.3-0.2-0.4c-0.2-0.1-0.2-0.2-0.2-0.4c0.1-0.2,0-0.3-0.1-0.4
		c-0.1,0-0.2-0.2-0.2-0.4c0-0.2-0.2-0.7-0.4-1.1c-0.2-0.4-0.5-1.1-0.7-1.6c-0.2-0.4-0.4-0.9-0.4-1.2c-0.1-0.5-0.4-1.1-0.6-1.1
		c-0.1,0-0.1-0.1-0.1-0.3c0-0.3-0.2-0.3-2.6-0.3l-2.6,0V181.2 M325.3,168.1c-0.6,0-1.1,0.1-1.1,0.2c0,0.1-0.2,0.1-0.4,0.1
		c-0.3-0.1-0.3,0-0.2,0.1c0.1,0.1,0.1,0.2-0.1,0.1c-0.3-0.2-1.2,0.3-1.8,1c-0.9,0.9-1.6,1.4-1.7,1.3c-0.1-0.1-0.1,0,0,0.2
		c0.1,0.2,0,0.3-0.2,0.4c-0.2,0.1-0.3,0.2-0.2,0.4c0.1,0.1,0,0.3-0.1,0.3s-0.2,0.2-0.3,0.4c-0.1,0.2-0.3,0.6-0.4,0.8
		c-0.2,0.2-0.3,0.6-0.3,0.7s-0.1,0.5-0.3,0.8c-0.1,0.3-0.2,0.6-0.2,0.7c0.1,0.1,0,0.2-0.1,0.2c-0.1,0-0.2,0.3-0.2,0.8
		c0,0.4,0,0.7-0.1,0.7c-0.1,0-0.1,0.2-0.1,0.5c0,0.3,0,0.5,0,0.5c-0.2,0-0.3,1-0.1,1.2c0.1,0.1,0.1,0.2,0,0.3
		c-0.3,0.2-0.3,3.9,0,4.1c0.1,0.1,0.2,0.2,0,0.3c-0.2,0.2-0.1,1.1,0.1,1.1c0.1,0,0.1,0.2,0.1,0.5c0,0.3,0,0.5,0.1,0.5
		c0.1,0,0.1,0.3,0.1,0.7c0,0.4,0.1,0.7,0.2,0.8c0.1,0,0.2,0.1,0.1,0.2c-0.2,0.3,1.2,3.3,1.5,3.3c0.1,0,0.1,0.1,0.1,0.3
		c0,0.2,0.1,0.3,0.2,0.3c0.1,0,0.3,0.1,0.3,0.2c0,0.1,0,0.2,0,0.3c0,0.1,0.4,0.4,0.9,0.8c0.5,0.3,0.9,0.7,1,0.9s0.2,0.2,0.3,0.1
		c0.1-0.1,0.2,0,0.2,0.1c0,0.2,0.4,0.4,1.1,0.5c0.3,0,0.5,0.1,0.6,0.2c0.2,0.3,4.1,0.3,4.4,0c0.1-0.1,0.3-0.2,0.5-0.1
		c0.1,0.1,0.3,0,0.3-0.2c0.1-0.1,0.2-0.2,0.3-0.2c0.1,0.1,0.2,0,0.2-0.1c0-0.1,0.3-0.2,0.6-0.4c0.3-0.1,0.6-0.3,0.6-0.3
		c0-0.1,0.1-0.2,0.2-0.2c0.2,0,1.8-1.6,1.8-1.7c0-0.1,0.2-0.3,0.3-0.4c0.2-0.2,0.3-0.4,0.3-0.5c0-0.1,0-0.2,0.2-0.2
		c0.1-0.1,0.2-0.2,0.2-0.3s0-0.2,0.1-0.2s0.1-0.1,0.1-0.2c-0.1-0.1,0-0.3,0.1-0.4c0.3-0.4,1-2.9,1.1-4.2c0-0.3,0.1-0.6,0.2-0.8
		c0.1-0.2,0.1-0.6,0-1c-0.1-0.4,0-0.8,0.1-0.8c0.1-0.1,0.2-0.5,0.2-1.1s-0.1-1-0.2-1.1c-0.1-0.1-0.1-0.4-0.1-0.8c0.1-0.4,0-0.9,0-1
		c-0.1-0.2-0.1-0.5-0.2-0.8c-0.1-1.3-0.8-3.8-1.1-4.2c-0.1-0.1-0.1-0.3-0.1-0.3c0.1-0.1-0.1-0.3-0.2-0.5c-0.2-0.2-0.3-0.5-0.3-0.6
		c0-0.1-0.1-0.3-0.2-0.4c-0.1-0.1-0.2-0.2-0.2-0.3c0-0.2-1.6-1.8-1.8-1.8c-0.1,0-0.2-0.1-0.2-0.2c-0.1-0.1-0.2-0.2-0.3-0.2
		c-0.1,0.1-0.3-0.1-0.4-0.3c-0.1-0.2-0.3-0.3-0.4-0.3c-0.1,0-0.3,0-0.4-0.2c-0.1-0.1-0.3-0.2-0.5-0.1c-0.1,0.1-0.2,0-0.2-0.1
		c0-0.1-0.5-0.2-1-0.2s-1.1,0-1.1-0.1C326.5,168.1,325.9,168.1,325.3,168.1 M304.8,168.3c0,0.1-0.2,0.1-0.4,0
		c-0.3-0.1-0.3,0-0.2,0.1c0.1,0.2,0.1,0.2-0.1,0.1c-0.2-0.1-0.3,0-0.3,0.1c0,0.1-0.1,0.1-0.2,0.1c-0.1-0.1-0.4,0-0.5,0.2
		c-0.2,0.2-0.3,0.3-0.4,0.3c-0.1,0-0.2,0.1-0.3,0.2c-1.2,1-1.5,1.3-1.5,1.5c0,0.1-0.1,0.3-0.3,0.3c-0.2,0.1-0.3,0.2-0.2,0.4
		c0.1,0.1,0,0.3-0.1,0.3c-0.1,0-0.3,0.3-0.5,0.7c-0.2,0.4-0.4,0.7-0.5,0.7c-0.1,0-0.1,0.1,0,0.2c0.1,0.1,0,0.3-0.2,0.5
		c-0.2,0.2-0.3,0.5-0.3,0.7c0,0.2-0.1,0.5-0.2,0.6c-0.1,0.1-0.1,0.3-0.1,0.4c0.1,0.1,0,0.2-0.1,0.2c-0.1,0-0.2,0.3-0.2,0.7
		c0,0.3-0.1,0.6-0.2,0.6c-0.1,0-0.1,0.2-0.1,0.5c0,0.3,0,0.5,0,0.5c-0.1,0-0.1,0.3-0.1,0.7c0,0.4,0,0.7-0.1,0.7
		c-0.1,0-0.1,1-0.1,2.2s0.1,2.2,0.1,2.2s0.1,0.3,0.1,0.7c0,0.4,0,0.7,0.1,0.7c0.1,0,0.1,0.2,0,0.4c0,0.2,0,0.4,0.1,0.4
		c0.1,0,0.1,0.2,0.1,0.3c-0.1,0.2,0,0.3,0.1,0.3c0.1,0,0.2,0.1,0.1,0.3c-0.1,0.2,0,0.3,0.1,0.3c0.1,0,0.1,0.1,0.1,0.2
		c-0.1,0.1,0.3,1,0.7,1.9c0.4,0.9,0.8,1.7,0.8,1.7s0.2,0.3,0.4,0.4c0.2,0.2,0.3,0.4,0.3,0.5c-0.1,0.2,1.3,1.4,1.5,1.4
		c0.1,0,0.2,0.1,0.2,0.3c0,0.2,0.1,0.2,0.2,0.2c0.1-0.1,0.2,0,0.2,0.1c0,0.1,0.1,0.1,0.1,0.1s0.3,0.1,0.6,0.3
		c0.2,0.2,0.4,0.3,0.4,0.2c0-0.1,0.1,0,0.2,0.1c0.1,0.1,0.4,0.2,0.7,0.2c0.3,0,0.5,0.1,0.5,0.1c0,0.1,0.7,0.1,1.7,0.1
		c0.9,0,1.6-0.1,1.6-0.1c0-0.1,0-0.1,0.2,0c0.1,0.1,0.3,0,0.3-0.1c0-0.1,0.1-0.2,0.2-0.2c0.4,0.1,1.2-0.2,1.5-0.5
		c0.2-0.2,0.4-0.3,0.4-0.2c0.1,0,0.2-0.1,0.3-0.3c0.1-0.2,0.3-0.3,0.3-0.2c0.1,0.1,0.1,0,0.1-0.1s0.3-0.5,0.7-0.9
		c0.4-0.4,0.7-0.8,0.6-0.9c0-0.1,0.1-0.3,0.2-0.4c0.2-0.2,0.3-0.4,0.3-0.6c0-0.2,0.2-0.5,0.3-0.6c0.2-0.2,0.3-0.5,0.3-0.8
		c0-0.3,0.1-1,0.3-1.7c0.3-1.2,0.6-4.6,0.6-6.4l0-0.8h-4.2H307v2.5v2.5h1.6c1.4,0,1.6,0,1.6,0.3c0.1,1,0.1,1.2-0.1,1.2
		c-0.1,0-0.1,0.1-0.1,0.3c0,0.2,0,0.3-0.1,0.3s-0.1,0.1-0.1,0.3c0.1,1-1,2.5-2.1,2.7c-1,0.2-3.2-0.7-3.1-1.3c0.1-0.3,0-0.5-0.3-0.5
		c-0.1,0-0.2-0.1-0.2-0.2c0.1-0.1,0-0.2-0.1-0.2c-0.1,0-0.2-0.1-0.1-0.2c0-0.1,0-0.3-0.1-0.5c-0.4-1-0.3-0.8-0.6-3.4
		c-0.3-2.9,0.1-6.9,0.8-8.4c0.2-0.4,0.3-0.8,0.3-0.9c0-0.2,0.1-0.3,0.2-0.3c0.1,0,0.3-0.1,0.3-0.3c0-0.5,0.8-1.1,1.4-1.1
		c0.3,0,0.6-0.1,0.6-0.2c0-0.1,0.1-0.2,0.2-0.2c0.1,0,0.2,0.1,0.2,0.2c0,0.1,0.2,0.2,0.4,0.2c0.4,0,1.2,0.4,1.1,0.5
		c0,0.1,0.1,0.4,0.3,0.7c0.2,0.3,0.4,0.8,0.4,1.2c0.1,0.7,0.3,0.8,1.3,0.3c0.4-0.2,0.8-0.3,0.8-0.2c0.1,0.1,0.1,0,0.1-0.1
		c0-0.1,0.1-0.2,0.2-0.1c0.1,0.1,0.3,0,0.5-0.1c0.1-0.1,0.3-0.2,0.3-0.1c0.1,0.1,0.2,0,0.2-0.1c0.1-0.1,0.4-0.2,0.8-0.3
		c0.7-0.2,1.1-1.1,0.5-1.3c-0.1-0.1-0.2-0.2-0.2-0.3c0.1-0.1-0.1-0.4-0.3-0.6c-0.2-0.3-0.4-0.6-0.4-0.7c0-0.1-0.1-0.2-0.2-0.2
		s-0.2-0.1-0.2-0.2c0-0.3-2.4-2.5-2.6-2.4c-0.1,0-0.2,0-0.2-0.1c0-0.1-0.1-0.1-0.2-0.1c-0.1,0.1-0.2,0-0.2-0.1
		c0-0.1-0.3-0.2-0.7-0.3C308.5,168.2,304.8,168.2,304.8,168.3 M226.8,181.5v13.2h2.6h2.6v-5.4v-5.4l0.4,0c0.2,0,0.7,0,1,0
		c1.4,0,4.6-0.9,4.7-1.4c0-0.2,0.2-0.2,0.3-0.2c0.1,0.1,0.3,0,0.3-0.2c0.1-0.2,0.3-0.5,0.5-0.7c0.9-0.9,1.1-1.3,1.3-2.3
		c0.1-0.3,0.2-0.6,0.2-0.6c0.1,0,0.1-0.2,0.1-0.5c0-0.2,0-0.4,0.1-0.4c0.2,0,0.2-2.4,0-2.5c-0.1-0.1-0.1-0.2,0-0.5
		c0.2-0.3,0.1-0.4,0-0.4c-0.1-0.1-0.2-0.2-0.2-0.4c0.1-0.2,0-0.3-0.1-0.3c-0.2,0-0.2,0,0-0.1c0.2-0.1,0.2-0.2,0-0.4
		c-0.1-0.1-0.3-0.4-0.3-0.6s-0.1-0.4-0.2-0.5c-0.1-0.1-0.2-0.3-0.2-0.4c0-0.2-0.9-1.1-1.1-1.1c0,0-0.2-0.2-0.4-0.3
		c-0.2-0.2-0.4-0.3-0.5-0.2s-0.2,0-0.3-0.1c-0.1-0.2-0.9-0.6-1.1-0.5c-0.1,0-0.2,0-0.2-0.1c-0.1-0.2-1.1-0.6-1-0.4
		c0,0.1-0.2,0.1-0.5,0.1s-0.6-0.1-0.6-0.1s-1.7-0.1-3.7-0.1l-3.7,0V181.5 M248.2,168.9c0,0.3-0.1,0.7-0.2,0.9
		c-0.2,0.3-0.4,1.2-0.4,1.8c0,0.2-0.1,0.4-0.1,0.4c-0.2,0.2-0.5,1.2-0.3,1.2c0.1,0,0.1,0.1,0,0.1c-0.1,0.1-0.2,0.2-0.1,0.4
		c0.1,0.1,0,0.3-0.1,0.3c-0.1,0.1-0.2,0.4-0.2,0.7c0,0.3-0.1,0.6-0.1,0.6c-0.1,0-0.2,0.1-0.2,0.3c-0.1,0.1,0,0.2,0.1,0.2
		c0.1-0.1,0.2,0,0.2,0.1c0,0.1-0.1,0.2-0.2,0.2s-0.2,0.2-0.2,0.5c0,0.3-0.2,1.3-0.4,2.2c-0.2,0.9-0.4,1.7-0.3,1.8
		c0.1,0.1,0,0.2-0.1,0.2c-0.1,0-0.2,0.3-0.2,0.6c0,0.3-0.1,0.6-0.2,0.7c-0.1,0.1-0.1,0.3-0.1,0.4c0.1,0.1,0,0.3-0.1,0.3
		c-0.1,0-0.2,0.3-0.2,0.7c0,0.3-0.1,0.7-0.2,0.8c-0.1,0.1-0.1,0.3,0,0.3c0.1,0.1,0,0.2-0.1,0.2c-0.1,0-0.2,0.4-0.2,0.8
		c0,0.4-0.1,0.6-0.1,0.5c-0.1-0.1-0.1-0.1-0.1,0.1c0,0.2,0,0.4-0.1,0.6c-0.1,0.3-0.1,0.3,0.1,0.1c0.2-0.3,0.2-0.1,0,0.3
		c-0.1,0.2-0.2,0.6-0.3,0.9c-0.1,0.4-0.2,0.9-0.3,1.2c-0.1,0.3-0.2,0.8-0.2,1c-0.1,0.7-0.6,2.1-0.7,2.3c-0.1,0.1,0,0.2,0.1,0.2
		c0.2,0,0.2,0,0,0.1c-0.1,0.1-0.2,0.3-0.1,0.4c0.1,0.1,0,0.3-0.1,0.3c-0.1,0-0.2,0.3-0.3,0.6l-0.1,0.5h2.6h2.6l0.1-0.6
		c0.1-0.3,0.1-0.8,0.1-1c0-0.2,0.1-0.4,0.2-0.4c0.1,0,0.1-0.2,0.1-0.4c0-0.2,0-0.4,0.1-0.5c0.1,0,0.2-0.3,0.2-0.6c0.1-1,0.2-1,3-1
		l2.5,0l0.1,0.7c0.1,0.4,0.2,0.9,0.2,1.2c0.1,1,0.1,1,0.3,1c0.1,0,0.1,0.1,0,0.3c0,0.2,0,0.3,0.1,0.3c0.1,0,0.1,0.2,0.1,0.4
		l-0.1,0.4h2.9c1.6,0,2.9,0,2.9-0.1c0,0-0.2-0.6-0.3-1.3c-0.2-0.7-0.4-1.4-0.4-1.7c0-0.3-0.3-1.1-0.5-1.9c-0.2-0.8-0.4-1.8-0.5-2.2
		c-0.1-1.1-0.3-1.6-0.5-1.6c-0.1,0-0.1-0.1-0.1-0.3s0-0.3-0.1-0.3c-0.1,0-0.1-0.1,0-0.3c0.1-0.1,0-0.4-0.1-0.5
		c-0.1-0.1-0.2-0.3-0.1-0.3c0.1-0.1,0-0.3-0.7-3.1c-0.3-1.1-0.5-2.2-0.5-2.5c0-0.3-0.1-0.5-0.2-0.5c-0.1,0-0.1-0.1-0.1-0.3
		c0-0.2,0-0.3,0-0.3c-0.1,0-0.1-0.1,0-0.3c0.1-0.2,0-0.3-0.1-0.3c-0.1,0-0.2-0.2-0.2-0.4c0.1-0.5-0.4-2.1-0.6-2.1
		c-0.1,0-0.1-0.2-0.1-0.3c0-0.2,0-0.3,0-0.3c-0.1,0-0.1-0.2-0.1-0.4c0-0.5-0.2-1.2-0.7-3.1l-0.5-1.7l-2.7,0l-2.7,0L248.2,168.9
		 M262,181.5v13.2h2.6h2.6l0-6c0-5,0.1-6,0.3-5.5c0.1,0.3,0.3,0.6,0.4,0.8c0.1,0.2,0.2,0.4,0.2,0.4c0,0.1,0.1,0.4,0.2,0.6
		c0.1,0.3,0.2,0.7,0.2,0.9c0,0.2,0.2,0.5,0.3,0.6c0.1,0.1,0.2,0.4,0.2,0.7c0,0.3,0.1,0.6,0.3,0.7c0.1,0.1,0.2,0.2,0.2,0.3
		c0,0,0,0.3,0.2,0.7c0.2,0.5,0.5,1.1,0.5,1.3c0,0,0.2,0.4,0.4,0.9c0.2,0.4,0.3,0.9,0.3,0.9c0,0.1,0,0.2,0.2,0.3
		c0.1,0.1,0.2,0.3,0.1,0.4c-0.1,0.1,0,0.2,0.1,0.2c0.1,0,0.1,0.1,0.1,0.2c-0.1,0.1,0,0.2,0.1,0.2c0.1,0,0.2,0.2,0.2,0.3
		c0,0.2,0.1,0.3,0.2,0.3c0.1,0,0.1,0.1,0.1,0.3c-0.1,0.3,0,0.3,2.6,0.3c3,0,3.1,0,2.6-1.1c-0.1-0.3-0.4-0.8-0.5-1.2
		c-0.1-0.3-0.3-0.8-0.4-1c-0.3-0.7-0.4-1-0.4-1.2c0-0.1,0-0.2-0.1-0.2c-0.1,0-0.1-0.1-0.1-0.2c0-0.1,0-0.3-0.1-0.5
		c-0.1-0.1-0.2-0.4-0.3-0.6c0-0.2-0.2-0.5-0.3-0.6c-0.1-0.1-0.2-0.2-0.2-0.3c0,0-0.1-0.4-0.3-0.7c-0.2-0.3-0.3-0.7-0.3-0.7
		c0-0.1,0-0.3-0.1-0.5c-0.3-0.7-0.6-1.5-0.8-1.8c-0.1-0.2-0.1-0.4-0.1-0.4c0-0.1,0-0.3-0.1-0.6c-0.1-0.3-0.1-0.4,0-0.4
		c0.1,0,0.2-0.1,0.2-0.3c0-0.1,0.1-0.2,0.2-0.2c0.1,0.1,0.3-0.1,0.4-0.3c0.2-0.2,0.4-0.4,0.5-0.4c0.1,0,0.2-0.1,0.2-0.2
		c0-0.1,0.2-0.3,0.3-0.4c0.2-0.1,0.3-0.3,0.2-0.4c-0.1-0.1,0-0.2,0.2-0.2c0.2,0,0.3-0.3,0.4-0.7c0.1-0.4,0.3-0.9,0.4-1.1
		c0.5-1,0.3-4.8-0.3-6c-0.1-0.2-0.2-0.5-0.1-0.6c0-0.1-0.1-0.3-0.3-0.3c-0.2-0.1-0.3-0.2-0.3-0.3c0-0.1-0.2-0.5-0.7-0.8
		c-0.4-0.3-0.9-0.7-1.1-0.8c-0.2-0.2-0.3-0.2-0.3-0.1s-0.1,0-0.3-0.2c-0.2-0.2-0.4-0.3-0.6-0.2c-0.1,0.1-0.3,0-0.3-0.1
		c0-0.1-0.1-0.2-0.3-0.1c-0.2,0-0.3,0-0.3-0.1c0-0.1-0.2-0.1-0.5-0.1c-0.3,0.1-0.5,0-0.5-0.1c0-0.1-0.2-0.2-0.6-0.1
		c-0.3,0.1-0.6,0-0.6,0c0-0.1-1.6-0.2-3.5-0.2l-3.5,0V181.5 M285.1,168.5c-0.2,0.2-0.8,2.3-0.6,2.5c0.1,0.1,0,0.2-0.1,0.2
		c-0.2,0-0.6,1.6-0.4,1.8c0.1,0.1,0,0.2-0.1,0.2c-0.1,0-0.1,0.1-0.1,0.2c0.1,0.1,0,0.2,0,0.2c-0.1,0-0.2,0.5-0.3,1.3
		c0,0.2-0.1,0.4-0.2,0.4c-0.1,0-0.1,0.1,0,0.2c0.1,0.1,0,0.2-0.1,0.2c-0.2,0-0.2,0,0,0.2c0.2,0.1,0.2,0.2,0,0.2
		c-0.1,0-0.2,0.2-0.2,0.5c0,0.3-0.1,1-0.3,1.5s-0.4,1.4-0.5,1.9c-0.1,0.5-0.4,1.4-0.5,2.1c-0.2,0.6-0.3,1.4-0.3,1.8
		c0,0.3-0.1,0.7-0.2,0.8s-0.2,0.5-0.2,0.8c0,0.3-0.1,0.6-0.2,0.6c-0.1,0-0.1,0.2-0.1,0.4c0,0.2,0,0.3-0.1,0.3
		c-0.1,0-0.2,0.2-0.2,0.5c0,0.3-0.3,1.5-0.6,2.8c-0.3,1.3-0.6,2.5-0.5,2.5c0.1,0.1,0,0.2-0.1,0.2c-0.1,0-0.1,0.1-0.1,0.2
		c0.1,0.1,0,0.2,0,0.2s-0.2,0.1-0.2,0.2c0,0.1-0.1,0.5-0.1,0.8l-0.1,0.6h2.6h2.6l0.1-0.7c0.1-0.4,0.1-0.9,0.1-1.1s0-0.4,0.1-0.4
		c0.1,0,0.1-0.3,0.1-0.6c0-0.3,0.1-0.6,0.2-0.7c0.1-0.1,0.1-0.3,0.1-0.5c-0.1-0.5,0.1-0.6,2.9-0.6c2.6,0,2.6,0,2.5,0.8
		c0,0.2,0,0.3,0.1,0.3c0.1-0.1,0.1,0,0.1,0.2c0,0.2,0,0.3,0.1,0.3s0.2,0.3,0.2,0.7s0.1,0.7,0.2,0.8c0.1,0.1,0.2,0.3,0.1,0.4
		c-0.3,0.8,0.1,0.9,3,0.9c1.7,0,2.7-0.1,2.7-0.2c0-0.1-0.1-0.2-0.2-0.2c-0.1,0-0.1-0.1-0.1-0.1c0-0.1-0.2-1.3-0.6-2.8
		c-0.4-1.4-0.7-3-0.7-3.4c0-0.4-0.1-0.8-0.2-0.8c-0.1,0-0.1-0.2-0.1-0.3c0.1-0.1,0-0.2-0.1-0.2c-0.1,0-0.2-0.1-0.1-0.3
		c0.1-0.2,0-0.3-0.1-0.3c-0.1,0-0.1-0.1-0.1-0.3c0-0.2,0-0.3-0.1-0.3c-0.1,0-0.2-0.2-0.2-0.6c0-0.3-0.2-1.2-0.4-2
		c-0.2-0.8-0.5-1.7-0.5-1.9c0-0.2-0.2-0.9-0.4-1.4c-0.2-0.6-0.3-1.2-0.3-1.5c0-0.4,0-0.5-0.2-0.4c-0.1,0.1-0.2,0-0.1-0.3
		c0.1-0.2,0.1-0.4,0-0.4c-0.1,0-0.1-0.2-0.1-0.5c0-0.3-0.1-0.6-0.2-0.7c-0.1,0-0.1-0.2-0.1-0.4c0-0.2,0-0.3-0.1-0.3
		c-0.1,0-0.2-0.1-0.1-0.1c0-0.1,0-0.4-0.1-0.7c-0.1-0.3-0.2-0.7-0.2-0.9c0-0.2-0.3-1.3-0.6-2.5l-0.5-2.2l-2.5,0
		C286.4,168.3,285.2,168.4,285.1,168.5 M338.3,181.5v13.2h2.5h2.5l0-6.4c0-3.5,0-6.7,0-7.2c0-0.4,0-0.8-0.1-0.9
		c-0.1,0-0.1-0.3,0-0.7l0.1-0.6l0.2,0.5c0.3,0.7,0.5,1.1,0.5,1.5c0,0.2,0.1,0.4,0.2,0.4c0.1,0,0.1,0.2,0.1,0.3
		c-0.1,0.1,0,0.3,0.2,0.3c0.1,0.1,0.2,0.2,0.2,0.4c-0.1,0.2,0,0.4,0.2,0.4c0.1,0.1,0.2,0.2,0.2,0.3c0,0.1,0,0.3,0.2,0.4
		c0.1,0.1,0.3,0.3,0.3,0.5c0,0.1,0.2,0.8,0.5,1.4c0.3,0.6,0.4,1.2,0.4,1.3c-0.1,0.1,0,0.2,0.2,0.3c0.2,0.1,0.3,0.2,0.3,0.3
		c0,0.1-0.1,0.1-0.2,0.1c-0.1-0.1-0.1,0,0,0.2c0.1,0.2,0.3,0.4,0.3,0.4c0.1,0,0.1,0.1,0.1,0.2c0,0.1,0,0.3,0.1,0.5
		c0.1,0.1,0.2,0.3,0.2,0.4c0,0.1,0,0.2,0.1,0.3c0.1,0.1,0.2,0.3,0.2,0.4s0.1,0.4,0.3,0.4c0.1,0.1,0.2,0.2,0.2,0.3
		c0,0.2,0.3,1,0.5,1.5c0.1,0.2,0.2,0.4,0.2,0.6c0,0.2,0.1,0.3,0.2,0.3c0.1,0,0.1,0.1,0.1,0.2c-0.1,0.1,0,0.3,0.2,0.4
		c0.1,0.1,0.2,0.3,0.2,0.4c-0.4,0.6,0.6,0.8,2.8,0.8l2.2,0l0-13.1l0-13.1h-2.6h-2.6v6.6c0,4.5,0.1,6.6,0.2,6.7
		c0.1,0.1,0.1,0.4,0.1,0.8c-0.1,0.4,0,0.6,0.1,0.6c0.1,0,0.1,0.1,0.1,0.3s0,0.4,0.1,0.6c0.1,0.1,0.1,0.3,0,0.3
		c-0.1,0.1-0.2-0.1-0.3-0.4c-0.1-0.3-0.2-0.5-0.2-0.5s-0.2-0.4-0.4-0.8s-0.3-0.8-0.4-0.8s-0.1-0.1-0.1-0.3c0-0.2,0-0.5-0.2-0.6
		c-0.2-0.2-0.3-0.4-0.2-0.5c0-0.1,0-0.2-0.1-0.2s-0.2-0.2-0.2-0.4s-0.1-0.5-0.2-0.5c-0.1-0.1-0.2-0.2-0.2-0.4c0-0.2-0.1-0.4-0.2-0.5
		c-0.1-0.1-0.2-0.3-0.2-0.4c0-0.1-0.2-0.5-0.4-0.9c-0.2-0.4-0.4-0.9-0.4-1s-0.1-0.3-0.2-0.3s-0.1-0.1-0.1-0.2c0-0.1,0-0.3-0.2-0.5
		c-0.1-0.1-0.2-0.3-0.2-0.4c0.1-0.1,0-0.2-0.1-0.3c-0.1-0.1-0.2-0.2-0.2-0.4c0-0.2-0.1-0.6-0.3-1c-0.8-1.6-1.2-2.7-1.2-3.1
		c0-0.3-0.1-0.4-0.2-0.3c-0.1,0.1-0.1,0-0.1-0.1c0.4-0.6-0.5-0.8-2.9-0.8h-2.3V181.5 M358.2,181.5v13.2h2.6h2.6v-13.2v-13.2h-2.6
		h-2.6V181.5 M165.5,172.3c0.3,0.1,0.5,0.3,0.5,0.4c0,0.1,0.1,0.1,0.2-0.1c0.1-0.2,0.2-0.2,0.2,0c0,0.2,0.1,0.3,0.2,0.4
		c0.9,0.3,1.8,3.5,1.8,6c0,1,0.1,1.8,0.1,1.8c0.1,0,0.1,0.1,0.1,0.2c0,0.1-0.1,0.2-0.2,0.2c-0.1,0-0.2,0.7-0.1,1.7
		c0,1.8-0.1,2.5-0.7,4.2c-0.2,0.5-0.3,1-0.2,1c0.1,0-0.1,0.1-0.3,0.3c-0.2,0.2-0.3,0.3-0.3,0.4c0.4,0.4-2,1.4-2.8,1.1
		c-0.5-0.2-1.6-1.1-1.6-1.3c0-0.2-0.5-1.1-0.7-1.1c-0.1,0-0.1-0.1-0.1-0.2c0.1-0.1,0-0.4-0.1-0.8c-0.8-2.1-0.9-8.2-0.1-10.9
		c0.1-0.5,0.3-1,0.4-1.1c0.1-0.1,0.1-0.3,0.2-0.5c0-0.5,0.8-1.3,1.6-1.7c0.4-0.2,0.7-0.4,0.7-0.5C164.4,172,164.7,172,165.5,172.3
		 M206.3,172.1c0,0.1,0.3,0.2,0.6,0.3c0.6,0.2,1.4,0.8,1.3,1.1c0,0.1,0.1,0.2,0.2,0.2c0.1,0.1,0.3,0.2,0.3,0.3
		c0,0.1,0.2,0.8,0.4,1.5c1.4,4.2,0.7,11.4-1.4,13.7c-0.9,1-2.8,1.1-3.4,0.2c-0.1-0.2-0.3-0.5-0.5-0.6c-0.2-0.2-0.5-0.7-0.5-1
		c0,0-0.1-0.2-0.2-0.4c-0.4-0.7-0.6-1.7-0.6-2.4c0-0.4,0-0.8-0.1-0.8c-0.1,0-0.1-0.5-0.1-1.1c0-0.7,0-1.1-0.1-1.1
		c-0.1,0-0.2-0.4-0.2-0.9c0-0.6,0.1-0.9,0.2-0.9c0.1,0,0.2-0.4,0.1-1.2c0-0.6,0-1.1,0-1.1c0.1,0,0.1-0.2,0.1-0.6
		c0-0.8,0.5-2.4,0.9-3.2c0.2-0.3,0.2-0.5,0.2-0.5c-0.1,0,1.2-0.9,1.9-1.3C205.8,172,206.3,172,206.3,172.1 M65.7,172.3
		c0.2,0.1,0.3,0.1,0.3-0.1c0-0.1,0.1-0.1,0.2,0.1c0.1,0.2,0.2,0.3,0.2,0.1c0-0.2,0.1-0.1,0.2,0.1c0.1,0.2,0.2,0.3,0.4,0.3
		c0.2-0.1,0.6,0.4,0.7,0.9c0,0.1,0.2,0.4,0.3,0.6c0.1,0.2,0.3,0.7,0.4,1.1c0.1,0.4,0.2,0.7,0.2,0.8c0.1,0,0.1,0.3,0,0.5
		c-0.1,0.3,0,0.5,0.1,0.5c0.1,0,0.2,0.1,0.2,0.2s-0.1,0.1-0.1,0.1c-0.2-0.1,0,1.3,0.1,1.4c0.1,0,0.1,0.4,0,0.9
		c-0.1,0.4-0.1,0.8,0,0.8s0.1,0.6,0.1,1.2c0,0.7-0.1,1.2-0.1,1.2c-0.1,0-0.1,0.4-0.1,0.8c0,0.5,0,0.8-0.1,0.8s-0.1,0.2-0.1,0.4
		s0,0.4-0.1,0.4c-0.1,0-0.1,0.2-0.1,0.4c0.1,0.5-0.7,2.5-1.2,2.9c-0.2,0.2-0.4,0.4-0.4,0.5s-0.1,0.2-0.3,0.2s-0.4,0.1-0.4,0.1
		c-0.3,0.5-1.9,0.3-2.7-0.4c-0.3-0.2-0.4-0.4-0.3-0.3c0.2,0.1,0.2,0.1,0.1-0.1c-0.1-0.1-0.2-0.2-0.4-0.2c-0.2,0-0.2-0.1-0.2-0.3
		c0.1-0.1,0-0.4-0.2-0.5c-0.9-0.9-1.5-6.8-1-10.1c0.1-0.8,0.2-1.7,0.2-1.8c0-0.2,0.1-0.4,0.2-0.6c0.1-0.1,0.2-0.3,0.2-0.4
		c0-0.1,0-0.3,0.2-0.4c0.1-0.1,0.2-0.3,0.2-0.4c0-0.1,0-0.3,0.2-0.4c0.1-0.1,0.2-0.3,0.2-0.3c-0.1-0.2,0.8-1,0.9-0.9
		c0.1,0,0.1,0,0.1-0.1s0.1-0.1,0.2-0.1c0.1,0.1,0.2,0,0.2,0C64.2,172.2,65.3,172.2,65.7,172.3 M234.3,173c0.4,0,1.3,0.9,1.3,1.3
		c0,0.2,0.1,0.3,0.2,0.3c0.3,0,0.1,2.7-0.2,3.2c-0.2,0.2-0.3,0.6-0.3,0.7c0,0.1-0.1,0.3-0.3,0.4c-0.4,0.1-1.6,0.6-2,0.8
		c-1,0.5-1.1,0.3-1.1-3.5v-3.4l1-0.1c0.5,0,1,0,1,0.1C234,172.9,234.2,173,234.3,173 M269.3,172.8c0,0.1,0.2,0.2,0.4,0.2
		c0.5,0,1.3,0.8,1.4,1.4c0,0.2,0.2,0.5,0.3,0.6c0.2,0.1,0.2,0.1,0,0.1c-0.1,0-0.2,0.1-0.1,0.2c0.2,0.3,0.2,1.7,0,1.7
		c-0.1,0-0.1,0.1,0,0.2c0.1,0.1,0,0.2-0.1,0.2s-0.2,0.2-0.3,0.5c-0.1,0.5-0.7,1.2-1.1,1.3c-0.1,0-0.3,0.1-0.3,0.2
		c0,0.1-0.6,0.1-1.3,0.2l-1.2,0l0-3.4l0-3.4l0.8,0.1c0.4,0,0.8,0,0.7-0.1c0-0.1,0.1-0.1,0.3-0.1S269.3,172.7,269.3,172.8
		 M326.5,172.8c-0.2,0.1-0.1,0.2,0.4,0.2c0.9,0,2.3,1.5,2.5,2.7c0,0.2,0.1,0.3,0.2,0.4c0.2,0.2,0.1,0.4,0,0.3
		c-0.1-0.1-0.1,0-0.1,0.2c0.1,0.1,0.2,0.3,0.2,0.3c0.1,0,0.1,0.2,0,0.4c0,0.2,0,0.4,0.1,0.4s0.1,0.3,0.1,0.7c0,0.4,0,0.7,0.1,0.7
		c0.1,0,0.2,0.2,0.1,0.5c0,0.3-0.1,0.5-0.2,0.5c-0.1,0-0.1,0.1,0,0.2c0.1,0.2,0.1,3.5,0,3.9c-0.1,0.2-0.1,0.5-0.1,0.8
		c0,0.3,0,0.5-0.1,0.5c-0.1,0-0.1,0.2-0.1,0.4c0.1,0.2,0,0.4-0.1,0.5c-0.1,0-0.2,0.4-0.3,0.9c-0.2,0.9-0.4,1.4-1,2
		c-0.2,0.2-0.4,0.5-0.4,0.5c0,0.1-0.4,0.3-1.2,0.5c-0.9,0.2-2.5-0.6-2.5-1.3c0-0.1-0.1-0.2-0.3-0.2c-0.2,0-0.2-0.1-0.2-0.3
		c0-0.2,0-0.5-0.1-0.7c-0.4-0.8-0.6-1.3-0.6-1.7c0-0.2-0.1-0.3-0.1-0.3c-0.4,0-0.3-7.3,0.1-8.8c0.1-0.3,0.1-0.6,0.1-0.7
		c0-0.1,0-0.1,0-0.1c0.1,0,0.2-0.2,0.3-0.4c0.1-0.3,0.1-0.4,0-0.4c-0.1,0,0-0.2,0.2-0.3c0.2-0.2,0.3-0.4,0.3-0.5
		c-0.1-0.1,0-0.2,0.1-0.2c0.1,0,0.2-0.1,0.2-0.2c0-0.3,1.4-1.2,1.7-1c0.1,0.1,0.2,0,0.2-0.1s0.1-0.2,0.3-0.2
		C326.7,172.7,326.7,172.7,326.5,172.8 M287.6,175.6c0.2,0.6,0.3,1.8,0.3,2.5c0,0.4,0.1,0.7,0.1,0.7c0.1,0,0.1,0.2,0.1,0.4
		c-0.1,0.3,0,0.4,0.1,0.4s0.1,0.2,0.1,0.4c-0.1,0.2,0,0.4,0.1,0.4c0.1,0,0.1,0.1,0.1,0.3c0,0.2,0,0.4,0.1,0.6
		c0.1,0.1,0.2,0.4,0.1,0.5c-0.1,0.1,0,0.3,0,0.3c0.1,0,0.1,0.2,0.1,0.4c0,0.2,0,0.4,0.1,0.4s0.2,0.4,0.2,0.8c0,0.4,0.1,0.8,0.2,0.9
		c0.1,0.1,0.1,0.4,0.2,0.7l0,0.6h-1.8c-1.8,0-1.8,0-1.7-0.4c0.1-0.4,0.6-3.5,0.9-5.1c0.1-0.4,0.1-1,0.1-1.3c0-0.3,0.1-0.5,0.2-0.5
		c0.1,0,0.1-0.2,0.1-0.5c0-0.3,0-0.6,0.1-0.7c0.1-0.1,0.1-0.4,0-0.6c-0.1-0.3,0-0.4,0.1-0.4c0.1,0,0.2-0.2,0.1-0.6
		C287.2,175.3,287.4,175.1,287.6,175.6 M251.1,176.6c0.1,0.6,0.1,1.3,0.1,1.6c0,0.3,0,0.5,0.1,0.5c0.1,0,0.1,0.2,0.1,0.4
		c0,0.2,0,0.4,0.1,0.4c0.2,0,0.2,0.1,0.2,1.2c0,0.3,0.1,0.5,0.2,0.5c0.1,0,0.2,0.2,0.1,0.4c0,0.2,0,0.4,0,0.4s0.1,0.2,0,0.4
		c0,0.2,0,0.4,0.1,0.4c0.1,0,0.2,0.4,0.2,0.8c0,0.4,0.1,0.8,0.2,0.9c0.1,0.1,0.2,0.4,0.2,0.8l0,0.7h-1.8H249l0.1-0.7
		c0.1-0.4,0.2-1,0.2-1.4c0-0.4,0.1-0.8,0.2-1.1c0.1-0.2,0.1-0.7,0.2-1.1c0-0.4,0.1-0.8,0.2-0.9c0.2-0.4,0.4-2.2,0.4-2.6
		c0-0.2,0-0.4,0.1-0.4c0.1,0,0.1-0.2,0.1-0.6c-0.1-0.4,0-0.6,0.1-0.6c0.1,0,0.1-0.2,0.1-0.6c-0.1-0.4,0-0.6,0.1-0.6
		C250.9,175.5,251,175.9,251.1,176.6"/>
	<path id="path3" class="st3" d="M276.6,51.4c0,13.1,0,18.5,0,12s0-17.2,0-23.8C276.6,33,276.6,38.3,276.6,51.4 M362.9,40.7
		c-0.1,0.2-0.1,0.4,0,0.4c0.2,0.2,0.3-0.1,0.2-0.4C363.1,40.4,363.1,40.4,362.9,40.7 M203.8,131.2c-0.2,0.1-0.2,0.2,0.1,0.2
		c0.2,0,0.4-0.1,0.4-0.2C204.3,131,204.2,131,203.8,131.2 M88.7,173.9c0,3.5,0,4.9,0,3.2s0-4.6,0-6.3
		C88.8,169,88.7,170.4,88.7,173.9 M354.6,181.5c0,7.3,0,10.3,0,6.6s0-9.6,0-13.2S354.6,174.2,354.6,181.5 M70.2,169
		c0.1,0.2,0.3,0.3,0.3,0.3c0.3,0,0.2-0.2-0.2-0.5C70,168.7,70,168.7,70.2,169 M303.2,181.6c0,0.4,0,0.5,0.1,0.3c0-0.2,0-0.5,0-0.7
		C303.2,181,303.2,181.2,303.2,181.6 M322.7,181.5c0,0.3,0,0.5,0.1,0.3c0-0.2,0-0.4,0-0.6C322.7,181,322.7,181.2,322.7,181.5
		 M82.7,188.5c0,4.1,0.1,6.2,0.2,6.1c0.1-0.1,0.2-2.3,0.2-6.1s-0.1-6-0.2-6.1C82.7,182.3,82.7,184.4,82.7,188.5 M166.4,189.2
		c-0.2,0.2-0.2,0.3-0.1,0.3c0.1,0,0.3-0.1,0.4-0.3c0.1-0.2,0.1-0.3,0.1-0.3S166.6,189,166.4,189.2"/>
	<path id="path4" class="st4" d="M276.7,51.3c0,13.1,0,18.4,0,11.9c0-6.5,0-17.2,0-23.8C276.8,32.9,276.7,38.3,276.7,51.3
		 M176.5,29.3c-0.3,0.1-0.5,0.3-0.5,0.3c0,0,0.4-0.1,0.7-0.3C177.5,29,177.4,28.9,176.5,29.3 M133,31.1c0.2,0.2,1.2,0.6,1.2,0.5
		C134.2,31.5,133.2,31,133,31.1C133,31,133,31,133,31.1 M216.1,38.3c0.2,0.2,0.4,0.3,0.5,0.3C216.6,38.6,216.5,38.4,216.1,38.3
		l-0.4-0.4L216.1,38.3 M312.5,58c0,0.1,0.2,0.2,0.3,0.3c0.1,0,0.2,0,0.1-0.2C312.8,57.8,312.4,57.7,312.5,58 M177.5,62.5
		c0,0.3,0,0.3,0.2,0.1c0.2-0.3,0.2-0.5,0-0.5C177.6,62.2,177.5,62.3,177.5,62.5 M318.2,70.1c0.1,0.2,0.2,0.4,0.2,0.4
		c0.1-0.1-0.1-0.8-0.3-0.8C318.1,69.7,318.1,69.9,318.2,70.1 M140.4,79.1c-0.3,0.3-0.4,0.6-0.1,0.4c0.2-0.1,0.6-0.8,0.4-0.8
		C140.7,78.8,140.6,79,140.4,79.1 M252.8,83c0,0.3,0.1,0.5,0.2,0.5c0.2,0,0.2-0.3,0-0.7C252.9,82.6,252.8,82.7,252.8,83 M154.3,86.9
		c0,0.1,0.1,0.2,0.2,0.2s0.2-0.1,0.2-0.2c0-0.1-0.1-0.2-0.2-0.2S154.3,86.8,154.3,86.9 M183.2,111.1c0,0,0.2,0.3,0.5,0.5l0.5,0.5
		l-0.5-0.5C183.3,111,183.2,110.9,183.2,111.1 M184.7,112.5c0.2,0.4,0.3,0.4,0.3,0.1c0-0.1-0.1-0.3-0.3-0.3
		C184.5,112.2,184.5,112.2,184.7,112.5 M214.4,123.4c-0.3,0.3-0.7,0.8-0.9,1l-0.4,0.5l0.6-0.5c0.3-0.3,0.7-0.6,0.8-0.7
		c0.2-0.2,0.6-0.9,0.5-0.9C214.9,122.8,214.7,123.1,214.4,123.4 M169.1,125.3c0.1,0.1,0.3,0.3,0.5,0.4c0.4,0.2,0.4,0.2,0-0.2
		C169.3,125.2,168.9,125,169.1,125.3 M77.4,181.2c0,7.5,0,10.5,0,6.8c0-3.7,0-9.8,0-13.6S77.4,173.7,77.4,181.2 M88.9,173.8
		c0,3.4,0,4.8,0,3.1c0-1.7,0-4.5,0-6.2C88.9,169,88.9,170.4,88.9,173.8 M94.1,181.2c0,7.5,0,10.5,0,6.8c0-3.7,0-9.8,0-13.6
		S94.1,173.7,94.1,181.2 M210.8,169c0,0.2,0.5,0.4,0.6,0.3c0,0-0.1-0.2-0.3-0.3C211,168.9,210.8,168.9,210.8,169 M109.2,170.9
		c-0.3,0.4-0.4,0.7-0.2,0.6c0.2-0.1,0.6-0.8,0.5-0.8C109.4,170.7,109.3,170.8,109.2,170.9 M320,170.9c-0.2,0.3-0.3,0.4-0.1,0.4
		c0.1,0,0.4-0.5,0.3-0.6C320.3,170.7,320.2,170.8,320,170.9 M66.9,173c0.4,0.4,0.4,0.4,0.4,0.2c0-0.1-0.2-0.2-0.4-0.4
		C66.6,172.6,66.6,172.6,66.9,173 M306.8,172.8c0,0.1,0.1,0.2,0.2,0.2c0.1,0,0.2-0.1,0.2-0.2c0-0.1-0.1-0.2-0.2-0.2
		C306.9,172.7,306.8,172.7,306.8,172.8 M235,178.7c-0.2,0.3-0.2,0.3,0,0.3c0.1,0,0.3-0.1,0.4-0.3C235.4,178.3,235.3,178.3,235,178.7
		 M202,180.6c0,0.2,0.1,0.4,0.2,0.3c0.1-0.1,0.2-0.2,0.2-0.4c0-0.2-0.1-0.3-0.2-0.3C202.1,180.2,202,180.4,202,180.6 M168.3,181.1
		c0,0.1,0.1,0.2,0.2,0.2s0.2-0.1,0.2-0.2c0-0.1-0.1-0.2-0.2-0.2S168.3,180.9,168.3,181.1 M202,181.6c0,0.2,0.1,0.4,0.2,0.4
		c0.1,0,0.2-0.1,0.2-0.3c0-0.2-0.1-0.4-0.2-0.4C202.1,181.2,202,181.3,202,181.6 M349.3,181.7c0,0.4,0.3,0.8,0.3,0.4
		c0-0.2-0.1-0.4-0.2-0.5C349.4,181.5,349.3,181.6,349.3,181.7 M343.4,181.9c-0.2,0.2-0.1,12.7,0.1,12.7c0.1,0,0.2-2.1,0.2-6.4
		c0-3.5,0-6.4-0.1-6.4C343.6,181.8,343.5,181.9,343.4,181.9 M315.4,182.8c0,0.3,0,0.5,0.1,0.3s0-0.4,0-0.6
		C315.4,182.4,315.4,182.5,315.4,182.8 M188.6,183.4c-0.1,0.1,0,0.2,0.1,0.3c0.1,0,0.1,0.1,0.1,0.2c-0.1,0.1,0,0.1,0.1,0.1
		c0.1-0.1,0.1-0.2,0-0.3c-0.1-0.1-0.1-0.3-0.1-0.3c0.1-0.1,0.1-0.1,0-0.1C188.7,183.2,188.6,183.3,188.6,183.4 M146.7,184.7
		c0,0.1,0.1,0.1,0.2,0.1c0.1,0,0.2,0.1,0.2,0.2c0,0.1,0,0.2,0.1,0.2c0.2,0,0.2-0.2,0-0.5C146.9,184.5,146.7,184.4,146.7,184.7
		 M147.1,189c-0.2,0.2-0.2,0.3-0.1,0.3c0.1,0,0.3-0.1,0.4-0.3c0.1-0.2,0.2-0.3,0.1-0.3C147.4,188.7,147.2,188.8,147.1,189
		 M170.9,192c-0.9,1-1,1.3-0.3,0.6c0.4-0.4,1.4-1.6,1.3-1.6C171.8,191,171.4,191.5,170.9,192 M199.3,191.8c0,0.1,0.1,0.3,0.2,0.4
		c0.1,0.1,0.2,0.1,0.2,0c0-0.1-0.1-0.3-0.2-0.4C199.4,191.7,199.3,191.7,199.3,191.8 M303.4,194.1c0.2,0.2,0.4,0.4,0.5,0.4
		c0.2,0,0-0.3-0.4-0.5C303.1,193.8,303.1,193.8,303.4,194.1"/>
</g>
</svg>
