<?xml version="1.0" encoding="UTF-8" standalone="no"?>
<svg
   xmlns:dc="http://purl.org/dc/elements/1.1/"
   xmlns:cc="http://creativecommons.org/ns#"
   xmlns:rdf="http://www.w3.org/1999/02/22-rdf-syntax-ns#"
   xmlns:svg="http://www.w3.org/2000/svg"
   xmlns="http://www.w3.org/2000/svg"
   xmlns:sodipodi="http://sodipodi.sourceforge.net/DTD/sodipodi-0.dtd"
   xmlns:inkscape="http://www.inkscape.org/namespaces/inkscape"
   version="1.1"
   id="svg2"
   xml:space="preserve"
   width="944.88135"
   height="377.95334"
   viewBox="0 0 944.88135 377.95334"
   sodipodi:docname="Twenty.ai"><metadata
     id="metadata8"><rdf:RDF><cc:Work
         rdf:about=""><dc:format>image/svg+xml</dc:format><dc:type
           rdf:resource="http://purl.org/dc/dcmitype/StillImage" /></cc:Work></rdf:RDF></metadata><defs
     id="defs6"><clipPath
       clipPathUnits="userSpaceOnUse"
       id="clipPath18"><path
         d="M 0,283.465 H 708.661 V 0 H 0 Z"
         id="path16" /></clipPath></defs><sodipodi:namedview
     pagecolor="#ffffff"
     bordercolor="#666666"
     borderopacity="1"
     objecttolerance="10"
     gridtolerance="10"
     guidetolerance="10"
     inkscape:pageopacity="0"
     inkscape:pageshadow="2"
     inkscape:window-width="640"
     inkscape:window-height="480"
     id="namedview4" /><g
     id="g10"
     inkscape:groupmode="layer"
     inkscape:label="Twenty"
     transform="matrix(1.3333333,0,0,-1.3333333,0,377.95333)"><g
       id="g12"><g
         id="g14"
         clip-path="url(#clipPath18)"><g
           id="g20"
           transform="translate(169.8548,15.4867)"><path
             d="m 0,0 c 1.79,-1.523 3.921,-2.293 6.391,-2.315 2.922,0.043 4.405,1.122 4.446,3.235 C 10.857,2.651 9.88,3.695 7.905,4.045 7,4.172 6.008,4.316 4.928,4.475 2.994,4.805 1.523,5.543 0.516,6.689 c -1.04,1.18 -1.559,2.616 -1.559,4.305 0,2.028 0.653,3.666 1.957,4.908 1.264,1.232 3.057,1.86 5.378,1.88 2.796,-0.063 5.225,-0.861 7.29,-2.398 L 11.684,12.495 C 9.996,13.643 8.139,14.238 6.112,14.28 5.063,14.28 4.188,14.011 3.488,13.468 2.758,12.905 2.383,12.066 2.362,10.949 2.362,10.281 2.613,9.675 3.118,9.132 3.622,8.58 4.43,8.199 5.54,7.986 6.157,7.881 7,7.757 8.07,7.618 c 2.109,-0.296 3.667,-1.077 4.675,-2.342 0.997,-1.243 1.496,-2.687 1.496,-4.334 -0.113,-4.441 -2.743,-6.696 -7.89,-6.759 -3.33,0 -6.192,1.057 -8.585,3.17 z"
             style="fill:#ef7c00;fill-opacity:1;fill-rule:nonzero;stroke:none"
             id="path22" /></g><g
           id="g24"
           transform="translate(200.6129,20.0067)"><path
             d="m 0,0 h -8.921 v -10.146 h -3.404 v 23.217 h 3.404 V 3.118 H 0 v 9.953 H 3.404 V -10.146 H 0 Z"
             style="fill:#ef7c00;fill-opacity:1;fill-rule:nonzero;stroke:none"
             id="path26" /></g><g
           id="g28"
           transform="translate(212.0589,21.4697)"><path
             d="m 0,0 c 0,-2.286 0.082,-3.834 0.247,-4.644 0.145,-0.808 0.439,-1.462 0.88,-1.963 0.362,-0.477 0.835,-0.865 1.423,-1.164 0.576,-0.352 1.266,-0.527 2.069,-0.527 0.814,0 1.52,0.175 2.118,0.527 0.565,0.299 1.019,0.687 1.359,1.164 0.443,0.501 0.746,1.155 0.911,1.963 0.155,0.81 0.232,2.358 0.232,4.644 0,2.288 -0.077,3.847 -0.232,4.674 C 8.842,5.462 8.539,6.106 8.096,6.606 7.756,7.086 7.302,7.483 6.737,7.804 6.139,8.111 5.433,8.277 4.619,8.297 3.816,8.277 3.126,8.111 2.55,7.804 1.962,7.483 1.489,7.086 1.127,6.606 0.686,6.106 0.392,5.462 0.247,4.677 0.082,3.847 0,2.288 0,0 m -3.405,0 c 0,2.703 0.078,4.511 0.231,5.426 0.165,0.915 0.416,1.653 0.756,2.219 0.545,1.068 1.419,2.019 2.621,2.853 1.181,0.848 2.656,1.281 4.425,1.301 1.788,-0.02 3.279,-0.455 4.471,-1.306 1.181,-0.838 2.035,-1.794 2.558,-2.866 0.38,-0.561 0.643,-1.299 0.787,-2.212 0.133,-0.913 0.2,-2.719 0.2,-5.415 0,-2.654 -0.067,-4.449 -0.2,-5.382 C 12.3,-6.317 12.037,-7.064 11.657,-7.627 11.134,-8.7 10.28,-9.644 9.098,-10.463 7.906,-11.311 6.416,-11.757 4.627,-11.8 c -1.768,0.043 -3.243,0.489 -4.424,1.337 -1.203,0.819 -2.077,1.763 -2.621,2.836 -0.165,0.35 -0.314,0.684 -0.448,1.002 -0.123,0.33 -0.225,0.743 -0.308,1.243 -0.153,0.933 -0.231,2.728 -0.231,5.382"
             style="fill:#ef7c00;fill-opacity:1;fill-rule:nonzero;stroke:none"
             id="path30" /></g><g
           id="g32"
           transform="translate(232.7119,22.2317)"><path
             d="m 0,0 h 5.054 c 1.267,0.023 2.22,0.427 2.859,1.216 0.608,0.77 0.911,1.622 0.911,2.56 0,0.778 -0.123,1.435 -0.37,1.969 C 8.196,6.223 7.835,6.602 7.372,6.88 6.671,7.338 5.858,7.558 4.93,7.535 H 0 Z m -3.404,10.846 h 8.151 c 0.885,0 1.739,-0.085 2.563,-0.253 0.824,-0.224 1.657,-0.68 2.5,-1.371 0.709,-0.52 1.285,-1.263 1.727,-2.229 C 11.999,6.059 12.23,4.956 12.23,3.682 12.23,1.961 11.643,0.397 10.469,-1.016 9.265,-2.501 7.504,-3.266 5.188,-3.308 H 0 v -9.063 h -3.404 z"
             style="fill:#ef7c00;fill-opacity:1;fill-rule:nonzero;stroke:none"
             id="path34" /></g><g
           id="g36"
           transform="translate(252.0439,22.2317)"><path
             d="m 0,0 h 5.054 c 1.267,0.023 2.221,0.427 2.859,1.216 0.608,0.77 0.912,1.622 0.912,2.56 0,0.778 -0.124,1.435 -0.37,1.969 C 8.197,6.223 7.836,6.602 7.372,6.88 6.671,7.338 5.858,7.558 4.93,7.535 H 0 Z m -3.404,10.846 h 8.152 c 0.885,0 1.738,-0.085 2.563,-0.253 0.823,-0.224 1.656,-0.68 2.5,-1.371 0.708,-0.52 1.284,-1.263 1.726,-2.229 C 11.999,6.059 12.23,4.956 12.23,3.682 12.23,1.961 11.643,0.397 10.469,-1.016 9.265,-2.501 7.504,-3.266 5.188,-3.308 H 0 v -9.063 h -3.404 z"
             style="fill:#ef7c00;fill-opacity:1;fill-rule:nonzero;stroke:none"
             id="path38" /></g><path
           d="m 267.972,33.078 h 3.404 V 9.861 h -3.404 z"
           style="fill:#ef7c00;fill-opacity:1;fill-rule:nonzero;stroke:none"
           id="path40" /><g
           id="g42"
           transform="translate(276.3799,33.0777)"><path
             d="m 0,0 h 3.208 l 10.186,-16.505 h 0.062 V 0 H 16.86 V -23.217 H 13.635 L 3.465,-6.711 H 3.404 V -23.217 H 0 Z"
             style="fill:#ef7c00;fill-opacity:1;fill-rule:nonzero;stroke:none"
             id="path44" /></g><g
           id="g46"
           transform="translate(305.9789,22.6317)"><path
             d="m 0,0 h 7.994 v -4.725 c -0.042,-2.321 -0.812,-4.266 -2.313,-5.834 -1.511,-1.559 -3.412,-2.36 -5.704,-2.403 -1.768,0.043 -3.243,0.489 -4.424,1.337 -1.204,0.819 -2.077,1.763 -2.621,2.836 -0.165,0.35 -0.314,0.684 -0.448,1.002 -0.123,0.33 -0.225,0.743 -0.308,1.243 -0.154,0.933 -0.231,2.728 -0.231,5.382 0,2.696 0.077,4.502 0.231,5.415 0.164,0.913 0.416,1.651 0.756,2.212 0.544,1.072 1.417,2.028 2.621,2.866 1.181,0.851 2.656,1.286 4.424,1.306 C 2.146,10.617 3.913,9.953 5.28,8.647 6.647,7.331 7.51,5.702 7.87,3.759 H 4.258 C 3.979,4.699 3.475,5.498 2.744,6.16 1.983,6.79 1.057,7.115 -0.035,7.135 -0.837,7.115 -1.526,6.949 -2.103,6.642 -2.69,6.321 -3.163,5.924 -3.523,5.444 -3.966,4.944 -4.26,4.3 -4.404,3.512 -4.568,2.685 -4.65,1.126 -4.65,-1.162 c 0,-2.286 0.082,-3.834 0.246,-4.644 0.145,-0.808 0.439,-1.462 0.881,-1.963 0.361,-0.477 0.834,-0.865 1.422,-1.164 0.577,-0.352 1.266,-0.527 2.069,-0.527 1.33,0 2.427,0.469 3.291,1.406 0.866,0.893 1.309,2.071 1.33,3.529 v 1.216 l -4.589,0 z"
             style="fill:#ef7c00;fill-opacity:1;fill-rule:nonzero;stroke:none"
             id="path48" /></g><path
           d="m 326.302,33.269 h 2.448 V 9.67 h -2.448 z"
           style="fill:#ef7c00;fill-opacity:1;fill-rule:nonzero;stroke:none"
           id="path50" /><g
           id="g52"
           transform="translate(341.4589,33.0777)"><path
             d="M 0,0 H 14.368 V -3.311 H 3.405 v -6.866 h 9.357 v -3.118 H 3.405 v -9.922 H 0 Z"
             style="fill:#ef7c00;fill-opacity:1;fill-rule:nonzero;stroke:none"
             id="path54" /></g><g
           id="g56"
           transform="translate(361.6169,21.4697)"><path
             d="m 0,0 c 0,-2.286 0.083,-3.834 0.249,-4.644 0.143,-0.808 0.437,-1.462 0.879,-1.963 0.361,-0.477 0.835,-0.865 1.422,-1.164 0.577,-0.352 1.268,-0.527 2.071,-0.527 0.812,0 1.519,0.175 2.115,0.527 0.568,0.299 1.021,0.687 1.359,1.164 0.445,0.501 0.748,1.155 0.914,1.963 C 9.163,-3.834 9.24,-2.286 9.24,0 9.24,2.288 9.163,3.847 9.009,4.674 8.843,5.462 8.54,6.106 8.095,6.606 7.757,7.086 7.304,7.483 6.736,7.804 6.14,8.111 5.433,8.277 4.621,8.297 3.818,8.277 3.127,8.111 2.55,7.804 1.963,7.483 1.489,7.086 1.128,6.606 0.686,6.106 0.392,5.462 0.249,4.677 0.083,3.847 0,2.288 0,0 m -3.403,0 c 0,2.703 0.076,4.511 0.231,5.426 0.163,0.915 0.415,1.653 0.756,2.219 0.543,1.068 1.417,2.019 2.62,2.853 1.182,0.848 2.656,1.281 4.424,1.301 1.79,-0.02 3.279,-0.455 4.47,-1.306 1.182,-0.838 2.037,-1.794 2.56,-2.866 0.381,-0.561 0.641,-1.299 0.787,-2.212 0.133,-0.913 0.2,-2.719 0.2,-5.415 0,-2.654 -0.067,-4.449 -0.2,-5.382 -0.146,-0.935 -0.408,-1.682 -0.787,-2.245 -0.525,-1.073 -1.378,-2.017 -2.56,-2.836 -1.191,-0.848 -2.683,-1.294 -4.47,-1.337 -1.768,0.043 -3.242,0.489 -4.424,1.337 -1.203,0.819 -2.077,1.763 -2.622,2.836 -0.164,0.35 -0.312,0.684 -0.447,1.002 -0.123,0.33 -0.226,0.743 -0.307,1.243 -0.155,0.933 -0.231,2.728 -0.231,5.382"
             style="fill:#ef7c00;fill-opacity:1;fill-rule:nonzero;stroke:none"
             id="path58" /></g><g
           id="g60"
           transform="translate(381.5049,21.4697)"><path
             d="m 0,0 c 0,-2.286 0.083,-3.834 0.249,-4.644 0.144,-0.808 0.438,-1.462 0.88,-1.963 0.361,-0.477 0.834,-0.865 1.422,-1.164 0.576,-0.352 1.267,-0.527 2.07,-0.527 0.812,0 1.519,0.175 2.116,0.527 0.567,0.299 1.02,0.687 1.359,1.164 0.444,0.501 0.747,1.155 0.913,1.963 C 9.164,-3.834 9.24,-2.286 9.24,0 9.24,2.288 9.164,3.847 9.009,4.674 8.843,5.462 8.54,6.106 8.096,6.606 7.757,7.086 7.304,7.483 6.737,7.804 6.14,8.111 5.433,8.277 4.621,8.297 3.818,8.277 3.127,8.111 2.551,7.804 1.963,7.483 1.49,7.086 1.129,6.606 0.687,6.106 0.393,5.462 0.249,4.677 0.083,3.847 0,2.288 0,0 m -3.403,0 c 0,2.703 0.077,4.511 0.231,5.426 0.164,0.915 0.415,1.653 0.756,2.219 0.543,1.068 1.418,2.019 2.62,2.853 1.182,0.848 2.656,1.281 4.424,1.301 1.79,-0.02 3.28,-0.455 4.471,-1.306 C 10.281,9.655 11.136,8.699 11.658,7.627 12.04,7.066 12.3,6.328 12.446,5.415 12.578,4.502 12.645,2.696 12.645,0 c 0,-2.654 -0.067,-4.449 -0.199,-5.382 C 12.3,-6.317 12.037,-7.064 11.658,-7.627 11.133,-8.7 10.281,-9.644 9.099,-10.463 7.908,-11.311 6.416,-11.757 4.628,-11.8 c -1.768,0.043 -3.242,0.489 -4.424,1.337 -1.202,0.819 -2.077,1.763 -2.622,2.836 -0.164,0.35 -0.312,0.684 -0.446,1.002 -0.124,0.33 -0.227,0.743 -0.308,1.243 -0.154,0.933 -0.231,2.728 -0.231,5.382"
             style="fill:#ef7c00;fill-opacity:1;fill-rule:nonzero;stroke:none"
             id="path62" /></g><g
           id="g64"
           transform="translate(402.1588,13.1717)"><path
             d="m 0,0 h 4.078 c 1.913,0 3.304,0.675 4.168,2.028 0.381,0.498 0.624,1.133 0.727,1.898 0.092,0.756 0.139,2.169 0.139,4.244 0,2.021 -0.047,3.468 -0.139,4.34 -0.124,0.873 -0.418,1.58 -0.88,2.123 -0.949,1.352 -2.286,2.005 -4.015,1.962 H 0 Z m -3.406,19.906 h 7.87 c 3.044,-0.02 5.327,-1.325 6.851,-3.916 0.545,-0.871 0.888,-1.783 1.031,-2.739 0.115,-0.956 0.171,-2.607 0.171,-4.953 0,-2.495 -0.088,-4.236 -0.263,-5.223 C 12.172,2.575 12.048,2.131 11.884,1.738 11.709,1.355 11.499,0.958 11.252,0.543 10.592,-0.55 9.677,-1.454 8.506,-2.165 7.344,-2.927 5.92,-3.311 4.233,-3.311 h -7.639 z"
             style="fill:#ef7c00;fill-opacity:1;fill-rule:nonzero;stroke:none"
             id="path66" /></g><path
           d="m 427.02,33.269 h 2.45 V 9.67 h -2.45 z"
           style="fill:#ef7c00;fill-opacity:1;fill-rule:nonzero;stroke:none"
           id="path68" /><g
           id="g70"
           transform="translate(457.3488,16.3477)"><path
             d="m 0,0 c -0.494,-2.151 -1.433,-3.806 -2.822,-4.959 -1.431,-1.147 -3.123,-1.719 -5.079,-1.719 -1.767,0.043 -3.241,0.489 -4.423,1.337 -1.203,0.819 -2.078,1.763 -2.621,2.836 -0.165,0.35 -0.314,0.684 -0.448,1.002 -0.124,0.33 -0.227,0.743 -0.308,1.243 -0.154,0.933 -0.231,2.728 -0.231,5.382 0,2.696 0.077,4.502 0.231,5.415 0.164,0.913 0.416,1.651 0.756,2.212 0.545,1.072 1.418,2.028 2.623,2.866 1.182,0.851 2.658,1.286 4.426,1.306 2.169,-0.02 3.939,-0.682 5.305,-1.987 1.368,-1.315 2.232,-2.941 2.591,-4.882 h -3.614 c -0.278,0.938 -0.783,1.734 -1.514,2.394 -0.763,0.628 -1.689,0.953 -2.782,0.973 -0.803,-0.02 -1.492,-0.186 -2.068,-0.493 -0.588,-0.321 -1.061,-0.718 -1.422,-1.198 -0.442,-0.5 -0.736,-1.144 -0.88,-1.932 -0.166,-0.827 -0.249,-2.386 -0.249,-4.674 0,-2.286 0.083,-3.834 0.249,-4.644 0.144,-0.808 0.438,-1.462 0.88,-1.963 0.361,-0.477 0.834,-0.865 1.422,-1.164 0.576,-0.352 1.267,-0.527 2.07,-0.527 1.919,0 3.35,1.059 4.299,3.176 z"
             style="fill:#ef7c00;fill-opacity:1;fill-rule:nonzero;stroke:none"
             id="path72" /></g><path
           d="m 460.317,33.078 h 3.405 V 9.861 h -3.405 z"
           style="fill:#ef7c00;fill-opacity:1;fill-rule:nonzero;stroke:none"
           id="path74" /><g
           id="g76"
           transform="translate(468.7238,33.0777)"><path
             d="m 0,0 h 3.21 l 10.185,-16.505 h 0.062 V 0 h 3.406 V -23.217 H 13.637 L 3.468,-6.711 H 3.406 V -23.217 H 0 Z"
             style="fill:#ef7c00;fill-opacity:1;fill-rule:nonzero;stroke:none"
             id="path78" /></g><g
           id="g80"
           transform="translate(491.0328,33.0777)"><path
             d="M 0,0 H 14.368 V -3.311 H 3.406 v -6.642 h 9.356 v -3.118 H 3.406 v -6.835 h 10.962 v -3.311 H 0 Z"
             style="fill:#ef7c00;fill-opacity:1;fill-rule:nonzero;stroke:none"
             id="path82" /></g><g
           id="g84"
           transform="translate(509.1718,33.0777)"><path
             d="M 0,0 H 3.21 L 9.657,-15.132 15.983,0 h 3.219 v -23.217 h -3.405 v 14.48 H 15.721 L 11.014,-19.888 H 8.174 L 3.468,-8.737 H 3.405 v -14.48 H 0 Z"
             style="fill:#ef7c00;fill-opacity:1;fill-rule:nonzero;stroke:none"
             id="path86" /></g><g
           id="g88"
           transform="translate(544.4399,18.1717)"><path
             d="M 0,0 -3.255,10.157 H -3.318 L -6.57,0 Z m 0.971,-3.118 h -8.528 l -1.728,-5.193 h -3.609 l 8.174,23.217 h 2.854 L 6.308,-8.311 H 2.714 Z"
             style="fill:#ef7c00;fill-opacity:1;fill-rule:nonzero;stroke:none"
             id="path90" /></g><g
           id="g92"
           transform="translate(165.6569,89.0197)"><path
             d="m 0,0 c 1.366,-1.532 2.056,-3.423 2.056,-5.673 v -21.003 c 0,-2.25 -0.69,-4.144 -2.056,-5.676 -1.365,-1.523 -3.012,-2.288 -4.942,-2.288 h -5.553 -136.374 -1.448 c -2.093,0 -3.825,0.884 -5.19,2.658 -1.369,1.763 -2.052,3.773 -2.052,6.032 v 20.999 c 0,1.613 0.077,3.098 0.242,4.469 0.162,1.366 2.157,2.894 3.457,3.986 l 63.895,56.001 c 7.883,6.921 14.563,12.875 20.036,17.864 5.473,4.987 9.9,9.573 13.278,13.764 3.381,4.181 5.796,8.205 7.241,12.068 1.452,3.859 2.175,8.047 2.175,12.552 0,4.181 -0.39,7.856 -1.571,10.863 -6.369,16.232 -23.76,23.073 -37.544,19.284 -25.781,-7.083 -38.18,-34.934 -39.235,-36.485 -1.044,-1.531 -2.481,-3.074 -5.072,-0.482 -2.592,2.589 -17.416,21.32 -17.416,21.32 -0.806,1.45 -1.168,3.017 -1.083,4.706 0.077,1.695 6.78,20.302 25.928,33.597 15.102,10.489 33.19,16.219 47.983,16.219 25.18,0 42.339,-8.271 53.358,-19.289 10.865,-10.864 19.068,-24.142 19.068,-45.388 0,-8.048 -1.005,-15.41 -3.016,-22.091 -2.013,-6.678 -5.032,-13.12 -9.052,-19.31 -4.024,-6.2 -9.173,-12.432 -15.448,-18.709 C -34.613,53.714 -41.94,46.955 -50.307,39.714 L -93.517,2.537 -4.993,2.643 C -3.068,2.643 -1.365,1.528 0,0"
             style="fill:#ef7c00;fill-opacity:1;fill-rule:nonzero;stroke:none"
             id="path94" /></g><g
           id="g96"
           transform="translate(225.5569,170.8447)"><path
             d="m 0,0 c 0.354,8.248 0.992,14.562 1.922,20.288 1.364,8.449 3.741,15.491 7.119,21.126 3.383,5.63 8.047,9.896 14.004,12.794 5.951,2.896 13.519,4.344 22.692,4.344 9.176,0 16.694,-1.448 22.572,-4.344 5.872,-2.898 10.498,-7.164 13.882,-12.794 3.378,-5.635 5.749,-12.677 7.121,-21.126 1.366,-8.448 2.05,-18.227 2.05,-29.33 0,-4.42 -0.112,-8.646 -0.327,-12.67 l -0.054,-1.007 h 45.66 c 0,0 0.347,8.966 0.347,13.677 0,17.537 -1.653,33.072 -4.946,46.593 -3.302,13.516 -8.569,24.783 -15.812,33.795 -7.239,9.014 -16.659,15.852 -28.245,20.519 -11.588,4.667 -25.67,7.006 -42.248,7.006 -16.741,0 -30.942,-2.339 -42.61,-7.006 C -8.544,87.198 -17.993,80.36 -25.234,71.346 -32.475,62.334 -37.754,51.067 -41.048,37.551 -43.703,26.676 -45.179,13.479 -45.697,0 Z"
             style="fill:#ef7c00;fill-opacity:1;fill-rule:nonzero;stroke:none"
             id="path98" /></g><g
           id="g100"
           transform="translate(196.5948,71.7107)"><path
             d="m 0,0 c 0.717,-0.639 1.08,-1.458 1.08,-2.44 v -11.696 c 0,-0.828 -0.325,-1.55 -0.967,-2.154 -0.644,-0.606 -1.421,-0.985 -2.328,-1.137 -0.075,-0.074 -0.227,-0.112 -0.455,-0.112 h -9.767 -1.929 -0.454 -0.453 c -4.77,0.148 -8.723,0.735 -11.869,1.758 -3.139,1.025 -5.656,2.54 -7.549,4.543 -1.89,2.005 -3.235,4.52 -4.031,7.553 -0.795,3.028 -1.191,6.622 -1.191,10.783 v 43.604 h -9.426 c -0.985,0 -1.815,0.381 -2.498,1.139 -0.679,0.756 -1.02,1.663 -1.02,2.719 v 0.797 10.217 c 0,1.061 0.341,1.95 1.02,2.672 0.683,0.723 1.478,1.079 2.385,1.079 h 10.557 v 19.304 c 0,0.982 0.363,1.795 1.082,2.439 0.718,0.64 1.607,0.967 2.668,0.967 h 13.287 c 1.055,0 1.949,-0.327 2.666,-0.967 0.72,-0.644 1.082,-1.457 1.082,-2.439 V 69.325 h 15.213 c 0.906,0 1.705,-0.379 2.384,-1.133 0.682,-0.76 1.024,-1.669 1.024,-2.723 V 54.56 c 0,-1.056 -0.342,-1.963 -1.024,-2.719 -0.679,-0.758 -1.478,-1.139 -2.384,-1.139 H -18.11 V 10.279 c 0,-1.36 0.054,-2.578 0.168,-3.634 0.113,-1.061 0.434,-1.985 0.967,-2.782 0.525,-0.792 1.267,-1.435 2.214,-1.931 0.943,-0.492 2.286,-0.81 4.033,-0.965 H -2.67 C -1.607,0.967 -0.723,0.644 0,0"
             style="fill:#0095db;fill-opacity:1;fill-rule:nonzero;stroke:none"
             id="path102" /></g><g
           id="g104"
           transform="translate(343.0919,132.9197)"><path
             d="M 0,0 C 0.525,-0.722 0.606,-1.536 0.231,-2.441 L -24.98,-74.433 c -0.608,-1.588 -1.441,-2.631 -2.498,-3.124 -1.06,-0.492 -2.007,-0.738 -2.838,-0.738 h -15.782 c -0.987,0 -2.069,0.246 -3.24,0.738 -1.17,0.493 -2.064,1.536 -2.667,3.124 l -16.692,43.261 -15.784,-43.261 c -0.606,-1.588 -1.417,-2.631 -2.437,-3.124 -1.026,-0.492 -1.992,-0.738 -2.897,-0.738 h -15.669 c -0.985,0 -2.066,0.246 -3.239,0.738 -1.176,0.493 -2.063,1.536 -2.668,3.124 l -26.91,71.762 h 0.113 l -0.113,0.23 c -0.377,0.905 -0.304,1.719 0.223,2.441 0.531,0.718 1.326,1.075 2.386,1.075 h 0.455 14.987 0.911 c 1.059,0 2.081,-0.339 3.066,-1.019 0.983,-0.686 1.661,-1.473 2.041,-2.384 l 5.342,-13.967 c 0.071,-0.152 11.127,-33.61 11.127,-33.61 l 16.914,47.577 c 0.379,0.911 1.062,1.698 2.047,2.384 0.983,0.68 2.006,1.019 3.066,1.019 h 0.224 0.569 1.023 10.561 1.136 0.452 0.796 c 1.061,0 2.061,-0.339 3.012,-1.019 0.942,-0.686 1.604,-1.473 1.981,-2.384 l 5.453,-13.967 c 0,-0.152 0.021,-0.249 0.058,-0.287 0.033,-0.036 0.057,-0.13 0.057,-0.287 l 12.034,-33.036 15.901,47.577 c 0.374,0.911 1.036,1.698 1.985,2.384 0.947,0.68 1.946,1.019 3.009,1.019 h 1.815 11.812 1.474 C -1.326,1.075 -0.534,0.718 0,0"
             style="fill:#0095db;fill-opacity:1;fill-rule:nonzero;stroke:none"
             id="path106" /></g><g
           id="g108"
           transform="translate(405.1018,101.6377)"><path
             d="m 0,0 c -0.157,2.194 -0.453,4.218 -0.913,6.071 -0.453,1.855 -1.268,3.443 -2.445,4.773 -1.167,1.319 -2.833,2.36 -4.992,3.12 -2.157,0.754 -5.051,1.135 -8.685,1.135 -3.634,0 -6.663,-0.361 -9.085,-1.078 -2.421,-0.718 -4.426,-1.723 -6.015,-3.011 -1.592,-1.288 -2.788,-2.858 -3.58,-4.709 C -36.507,4.444 -37.056,2.342 -37.364,0 Z m -16.239,32.018 c 6.131,0 11.353,-0.565 15.669,-1.705 4.316,-1.133 7.872,-2.745 10.673,-4.823 2.802,-2.084 4.983,-4.567 6.528,-7.436 1.552,-2.876 2.687,-6.077 3.41,-9.599 0.715,-3.52 1.115,-7.266 1.189,-11.243 0.074,-3.973 0.074,-8.08 0,-12.322 h -58.594 c 0.308,-2.264 0.891,-4.347 1.766,-6.241 0.866,-1.893 2.115,-3.519 3.742,-4.886 1.633,-1.357 3.708,-2.397 6.249,-3.12 2.533,-0.718 5.696,-1.079 9.48,-1.079 3.255,0 5.976,0.153 8.172,0.453 2.199,0.308 4.13,0.743 5.797,1.317 1.662,0.563 3.176,1.241 4.542,2.037 1.362,0.796 2.838,1.723 4.426,2.781 0.909,0.682 1.797,0.979 2.668,0.909 0.87,-0.079 1.606,-0.534 2.218,-1.366 l 6.584,-8.511 c 0.978,-1.218 1.593,-2.102 1.815,-2.667 0.226,-0.57 -0.402,-1.407 -1.929,-2.441 -1.936,-1.319 -4.846,-3.338 -7.897,-4.834 -2.324,-1.137 -4.746,-2.12 -7.315,-2.838 -2.575,-0.717 -5.381,-1.227 -8.403,-1.532 -3.035,-0.3 -6.595,-0.453 -10.678,-0.453 -9.08,0 -16.485,1.059 -22.199,3.181 -5.718,2.115 -10.159,4.996 -13.34,8.63 -3.186,3.629 -5.355,7.849 -6.526,12.658 -1.18,4.808 -1.763,9.933 -1.763,15.384 0,5.301 0.583,10.353 1.763,15.165 1.171,4.805 3.367,9.028 6.582,12.658 3.219,3.634 7.663,6.528 13.34,8.686 5.682,2.158 13.024,3.237 22.031,3.237"
             style="fill:#0095db;fill-opacity:1;fill-rule:nonzero;stroke:none"
             id="path110" /></g><g
           id="g112"
           transform="translate(485.5439,134.1087)"><path
             d="m 0,0 c 5.909,0 10.678,-0.776 14.312,-2.329 3.632,-1.545 6.452,-3.75 8.461,-6.583 1.999,-2.838 3.365,-6.266 4.083,-10.274 0.718,-4.016 1.079,-8.446 1.079,-13.285 v -29.523 -13.401 -1.249 c 0,-0.909 -0.361,-1.705 -1.079,-2.389 -0.718,-0.678 -1.606,-1.019 -2.667,-1.019 H 10.225 c -1.061,0 -1.95,0.341 -2.668,1.019 -0.722,0.684 -1.079,1.48 -1.079,2.389 v 1.249 38.604 c 0,2.346 -0.134,4.543 -0.399,6.588 -0.267,2.046 -0.87,3.782 -1.814,5.222 -0.949,1.436 -2.372,2.576 -4.265,3.41 -1.889,0.828 -4.464,1.245 -7.719,1.245 -3.782,0 -6.81,-0.417 -9.081,-1.245 -2.276,-0.834 -4.031,-2.025 -5.287,-3.58 -1.249,-1.552 -2.075,-3.39 -2.494,-5.509 -0.413,-2.118 -0.622,-4.464 -0.622,-7.04 v -23.957 -0.337 -14.65 c 0,-0.909 -0.361,-1.705 -1.079,-2.389 -0.717,-0.678 -1.61,-1.019 -2.667,-1.019 H -43.03 c -1.065,0 -1.953,0.341 -2.671,1.019 -0.718,0.684 -1.075,1.48 -1.075,2.389 v 4.652 9.998 43.831 14.646 0.453 c 0.148,0.832 0.583,1.532 1.301,2.102 0.718,0.565 1.535,0.848 2.445,0.848 h 14.081 c 1.057,0 1.95,-0.321 2.667,-0.965 0.718,-0.644 1.079,-1.458 1.079,-2.438 v -4.769 c 0.978,1.137 1.889,2.207 2.724,3.234 0.827,1.019 2.059,1.896 3.69,2.614 1.624,0.715 3.881,1.305 6.754,1.758 C -9.154,-0.226 -5.148,0 0,0"
             style="fill:#0095db;fill-opacity:1;fill-rule:nonzero;stroke:none"
             id="path114" /></g><g
           id="g116"
           transform="translate(573.2249,71.7107)"><path
             d="m 0,0 c 0.716,-0.639 1.084,-1.458 1.084,-2.44 v -11.696 c 0,-0.828 -0.325,-1.55 -0.965,-2.154 -0.644,-0.606 -1.42,-0.985 -2.328,-1.137 -0.079,-0.074 -0.227,-0.112 -0.454,-0.112 h -9.771 -1.925 -0.455 -0.458 c -4.769,0.148 -8.724,0.735 -11.862,1.758 -3.145,1.025 -5.664,2.54 -7.553,4.543 -1.893,2.005 -3.237,4.52 -4.033,7.553 -0.792,3.028 -1.189,6.622 -1.189,10.783 v 43.604 h -9.424 c -0.985,0 -1.819,0.381 -2.499,1.139 -0.682,0.756 -1.018,1.663 -1.018,2.719 v 0.797 10.217 c 0,1.061 0.336,1.95 1.018,2.672 0.68,0.723 1.472,1.079 2.385,1.079 h 10.556 v 19.304 c 0,0.982 0.362,1.795 1.079,2.439 0.718,0.64 1.607,0.967 2.668,0.967 h 13.289 c 1.061,0 1.949,-0.327 2.667,-0.967 0.717,-0.644 1.079,-1.457 1.079,-2.439 V 69.325 h 15.213 c 0.913,0 1.705,-0.379 2.385,-1.133 0.682,-0.76 1.025,-1.669 1.025,-2.723 V 54.56 c 0,-1.056 -0.343,-1.963 -1.025,-2.719 -0.68,-0.758 -1.472,-1.139 -2.385,-1.139 H -18.109 V 10.279 c 0,-1.36 0.056,-2.578 0.17,-3.634 0.112,-1.061 0.435,-1.985 0.963,-2.782 0.533,-0.792 1.269,-1.435 2.218,-1.931 0.944,-0.492 2.288,-0.81 4.033,-0.965 h 8.062 C -1.604,0.967 -0.718,0.644 0,0"
             style="fill:#0095db;fill-opacity:1;fill-rule:nonzero;stroke:none"
             id="path118" /></g><g
           id="g120"
           transform="translate(582.9209,130.2487)"><path
             d="M 0,0 C -0.38,0.906 -0.306,1.722 0.226,2.445 0.753,3.162 1.55,3.524 2.611,3.524 h 0.57 14.872 1.023 c 1.057,0 2.062,-0.344 3.006,-1.026 0.949,-0.679 1.611,-1.48 1.99,-2.384 l 5.334,-14.648 c 0.074,-0.151 0.112,-0.247 0.112,-0.283 0,-0.038 0.045,-0.135 0.115,-0.287 L 41.672,-46.438 58.703,0.114 c 0.379,0.904 1.04,1.705 1.989,2.384 0.942,0.682 1.945,1.026 3.006,1.026 h 1.811 11.812 1.481 c 1.061,0 1.853,-0.362 2.385,-1.079 C 81.716,1.722 81.79,0.906 81.409,0 L 50.757,-82.323 c -1.384,-3.385 -2.607,-5.729 -3.973,-8.454 -1.361,-2.728 -3.371,-5.303 -5.57,-7.387 -2.196,-2.08 -5.015,-3.708 -8.454,-4.884 -3.45,-1.173 -7.971,-1.718 -13.572,-1.644 H 16.575 13.62 c -1.058,0 -1.942,0.323 -2.665,0.967 -0.717,0.639 -1.079,1.453 -1.079,2.44 v 12.376 c 0,0.983 0.362,1.802 1.079,2.441 0.723,0.644 1.607,0.969 2.665,0.969 h 3.183 c 2.046,0 3.749,0.184 5.111,0.563 1.361,0.381 2.478,0.895 3.344,1.534 0.875,0.644 1.573,1.402 2.102,2.268 0.532,0.875 2.01,3.363 2.273,6.988 C 29.698,-73.249 0.11,-0.227 0.11,-0.227 Z"
             style="fill:#0095db;fill-opacity:1;fill-rule:nonzero;stroke:none"
             id="path122" /></g><g
           id="g124"
           transform="translate(681.2499,149.4077)"><path
             d="m 0,0 h 3.311 c 1.055,0 3.008,0 3.008,2.333 0,2.41 -1.879,2.41 -3.008,2.41 H 0 Z m -2.113,6.55 h 5.424 c 1.129,0 5.196,0 5.196,-3.838 0,-0.453 0,-2.863 -2.863,-3.691 1.584,-0.375 2.107,-1.053 2.333,-2.934 0.227,-1.886 0.375,-3.313 0.904,-4.815 H 6.701 C 6.398,-7.753 6.245,-7.151 5.945,-4.742 5.718,-2.407 5.117,-1.807 2.634,-1.807 H 0 V -8.728 H -2.113 Z M -9.45,-1.205 c 0,-7.075 5.686,-12.645 12.537,-12.645 6.923,0 12.531,5.646 12.531,12.645 0,6.739 -5.456,12.534 -12.531,12.534 -6.851,0 -12.537,-5.646 -12.537,-12.534 m 26.764,0 c 0,-7.977 -6.474,-14.303 -14.227,-14.303 -7.681,0 -14.233,6.326 -14.233,14.303 0,7.982 6.626,14.228 14.233,14.228 7.827,0 14.227,-6.321 14.227,-14.228"
             style="fill:#0095db;fill-opacity:1;fill-rule:nonzero;stroke:none"
             id="path126" /></g></g></g></g></svg>
